%TF.GenerationSoftware,KiCad,Pcbnew,9.0.4*%
%TF.CreationDate,2025-10-07T14:12:27+03:00*%
%TF.ProjectId,XIaoShield,5849616f-5368-4696-956c-642e6b696361,rev?*%
%TF.SameCoordinates,Original*%
%TF.FileFunction,Copper,L1,Top*%
%TF.FilePolarity,Positive*%
%FSLAX46Y46*%
G04 Gerber Fmt 4.6, Leading zero omitted, Abs format (unit mm)*
G04 Created by KiCad (PCBNEW 9.0.4) date 2025-10-07 14:12:27*
%MOMM*%
%LPD*%
G01*
G04 APERTURE LIST*
G04 Aperture macros list*
%AMRoundRect*
0 Rectangle with rounded corners*
0 $1 Rounding radius*
0 $2 $3 $4 $5 $6 $7 $8 $9 X,Y pos of 4 corners*
0 Add a 4 corners polygon primitive as box body*
4,1,4,$2,$3,$4,$5,$6,$7,$8,$9,$2,$3,0*
0 Add four circle primitives for the rounded corners*
1,1,$1+$1,$2,$3*
1,1,$1+$1,$4,$5*
1,1,$1+$1,$6,$7*
1,1,$1+$1,$8,$9*
0 Add four rect primitives between the rounded corners*
20,1,$1+$1,$2,$3,$4,$5,0*
20,1,$1+$1,$4,$5,$6,$7,0*
20,1,$1+$1,$6,$7,$8,$9,0*
20,1,$1+$1,$8,$9,$2,$3,0*%
G04 Aperture macros list end*
%TA.AperFunction,SMDPad,CuDef*%
%ADD10RoundRect,0.140000X-0.140000X-0.170000X0.140000X-0.170000X0.140000X0.170000X-0.140000X0.170000X0*%
%TD*%
%TA.AperFunction,SMDPad,CuDef*%
%ADD11RoundRect,0.050000X-0.300000X0.150000X-0.300000X-0.150000X0.300000X-0.150000X0.300000X0.150000X0*%
%TD*%
%TA.AperFunction,SMDPad,CuDef*%
%ADD12RoundRect,0.140000X-0.170000X0.140000X-0.170000X-0.140000X0.170000X-0.140000X0.170000X0.140000X0*%
%TD*%
%TA.AperFunction,SMDPad,CuDef*%
%ADD13RoundRect,0.135000X0.185000X-0.135000X0.185000X0.135000X-0.185000X0.135000X-0.185000X-0.135000X0*%
%TD*%
%TA.AperFunction,ComponentPad*%
%ADD14R,1.700000X1.700000*%
%TD*%
%TA.AperFunction,ComponentPad*%
%ADD15C,1.700000*%
%TD*%
%TA.AperFunction,SMDPad,CuDef*%
%ADD16RoundRect,0.218750X-0.256250X0.218750X-0.256250X-0.218750X0.256250X-0.218750X0.256250X0.218750X0*%
%TD*%
%TA.AperFunction,SMDPad,CuDef*%
%ADD17RoundRect,0.140000X0.140000X0.170000X-0.140000X0.170000X-0.140000X-0.170000X0.140000X-0.170000X0*%
%TD*%
%TA.AperFunction,SMDPad,CuDef*%
%ADD18RoundRect,0.135000X-0.135000X-0.185000X0.135000X-0.185000X0.135000X0.185000X-0.135000X0.185000X0*%
%TD*%
%TA.AperFunction,SMDPad,CuDef*%
%ADD19RoundRect,0.150000X-0.587500X-0.150000X0.587500X-0.150000X0.587500X0.150000X-0.587500X0.150000X0*%
%TD*%
%TA.AperFunction,ComponentPad*%
%ADD20RoundRect,0.250000X-0.350000X-0.625000X0.350000X-0.625000X0.350000X0.625000X-0.350000X0.625000X0*%
%TD*%
%TA.AperFunction,ComponentPad*%
%ADD21O,1.200000X1.750000*%
%TD*%
%TA.AperFunction,SMDPad,CuDef*%
%ADD22RoundRect,0.050000X-0.287500X-0.075000X0.287500X-0.075000X0.287500X0.075000X-0.287500X0.075000X0*%
%TD*%
%TA.AperFunction,SMDPad,CuDef*%
%ADD23RoundRect,0.050000X0.075000X-0.287500X0.075000X0.287500X-0.075000X0.287500X-0.075000X-0.287500X0*%
%TD*%
%TA.AperFunction,SMDPad,CuDef*%
%ADD24RoundRect,0.135000X-0.185000X0.135000X-0.185000X-0.135000X0.185000X-0.135000X0.185000X0.135000X0*%
%TD*%
%TA.AperFunction,SMDPad,CuDef*%
%ADD25RoundRect,0.135000X0.135000X0.185000X-0.135000X0.185000X-0.135000X-0.185000X0.135000X-0.185000X0*%
%TD*%
%TA.AperFunction,SMDPad,CuDef*%
%ADD26RoundRect,0.150000X0.587500X0.150000X-0.587500X0.150000X-0.587500X-0.150000X0.587500X-0.150000X0*%
%TD*%
%TA.AperFunction,SMDPad,CuDef*%
%ADD27RoundRect,0.225000X0.225000X0.250000X-0.225000X0.250000X-0.225000X-0.250000X0.225000X-0.250000X0*%
%TD*%
%TA.AperFunction,SMDPad,CuDef*%
%ADD28R,0.250000X0.275000*%
%TD*%
%TA.AperFunction,SMDPad,CuDef*%
%ADD29R,0.275000X0.250000*%
%TD*%
%TA.AperFunction,ViaPad*%
%ADD30C,0.800000*%
%TD*%
%TA.AperFunction,Conductor*%
%ADD31C,0.500000*%
%TD*%
%TA.AperFunction,Conductor*%
%ADD32C,0.250000*%
%TD*%
%TA.AperFunction,Conductor*%
%ADD33C,0.200000*%
%TD*%
%TA.AperFunction,Conductor*%
%ADD34C,1.000000*%
%TD*%
G04 APERTURE END LIST*
D10*
%TO.P,C3,1*%
%TO.N,VCCA*%
X167420000Y-73900000D03*
%TO.P,C3,2*%
%TO.N,GND*%
X168380000Y-73900000D03*
%TD*%
D11*
%TO.P,D3,1,K*%
%TO.N,VBAT*%
X156600000Y-69050000D03*
%TO.P,D3,2,A*%
%TO.N,Net-(D3-A)*%
X156600000Y-69750000D03*
%TD*%
D12*
%TO.P,C7,1*%
%TO.N,VBAT*%
X157900000Y-68940000D03*
%TO.P,C7,2*%
%TO.N,Net-(D3-A)*%
X157900000Y-69900000D03*
%TD*%
D13*
%TO.P,R10,1*%
%TO.N,IMU_SDA*%
X165300000Y-69010000D03*
%TO.P,R10,2*%
%TO.N,VCCA*%
X165300000Y-67990000D03*
%TD*%
D14*
%TO.P,J6,1,Pin_1*%
%TO.N,VBAT*%
X182660000Y-67920000D03*
D15*
%TO.P,J6,2,Pin_2*%
%TO.N,Net-(D4-A)*%
X182660000Y-70460000D03*
%TD*%
D16*
%TO.P,FB1,1*%
%TO.N,VCC*%
X171500000Y-61025000D03*
%TO.P,FB1,2*%
%TO.N,VCCA*%
X171500000Y-62600000D03*
%TD*%
D17*
%TO.P,C4,1*%
%TO.N,VCCA*%
X165380000Y-66800000D03*
%TO.P,C4,2*%
%TO.N,GND*%
X164420000Y-66800000D03*
%TD*%
D18*
%TO.P,R9,1*%
%TO.N,IMU_SCL*%
X167700000Y-69800000D03*
%TO.P,R9,2*%
%TO.N,VCCA*%
X168720000Y-69800000D03*
%TD*%
D11*
%TO.P,D1,1,K*%
%TO.N,VBAT*%
X179900000Y-58200000D03*
%TO.P,D1,2,A*%
%TO.N,Net-(D1-A)*%
X179900000Y-58900000D03*
%TD*%
D13*
%TO.P,R12,1*%
%TO.N,GND*%
X179700000Y-76100000D03*
%TO.P,R12,2*%
%TO.N,Net-(Q4-G)*%
X179700000Y-75080000D03*
%TD*%
D19*
%TO.P,Q4,1,G*%
%TO.N,Net-(Q4-G)*%
X181462500Y-73750000D03*
%TO.P,Q4,2,S*%
%TO.N,GND*%
X181462500Y-75650000D03*
%TO.P,Q4,3,D*%
%TO.N,Net-(D4-A)*%
X183337500Y-74700000D03*
%TD*%
D12*
%TO.P,C6,1*%
%TO.N,VBAT*%
X158020000Y-58420000D03*
%TO.P,C6,2*%
%TO.N,Net-(D2-A)*%
X158020000Y-59380000D03*
%TD*%
D20*
%TO.P,J7,1,Pin_1*%
%TO.N,GND*%
X163530000Y-82080000D03*
D21*
%TO.P,J7,2,Pin_2*%
%TO.N,VBAT*%
X165530000Y-82080000D03*
%TD*%
D14*
%TO.P,J8,1,Pin_1*%
%TO.N,unconnected-(J8-Pin_1-Pad1)*%
X161000000Y-57200000D03*
D15*
%TO.P,J8,2,Pin_2*%
%TO.N,unconnected-(J8-Pin_2-Pad2)*%
X161000000Y-59740000D03*
%TO.P,J8,3,Pin_3*%
%TO.N,/BAT_V*%
X161000000Y-62280000D03*
%TO.P,J8,4,Pin_4*%
%TO.N,/M2*%
X161000000Y-64820000D03*
%TO.P,J8,5,Pin_5*%
%TO.N,INT_GYR*%
X161000000Y-67360000D03*
%TO.P,J8,6,Pin_6*%
%TO.N,IMU_SDA*%
X161000000Y-69900000D03*
%TO.P,J8,7,Pin_7*%
%TO.N,IMU_SCL*%
X161000000Y-72440000D03*
%TO.P,J8,8,Pin_8*%
%TO.N,/M3*%
X161000000Y-74980000D03*
%TO.P,J8,9,Pin_9*%
%TO.N,unconnected-(J8-Pin_9-Pad9)*%
X161000000Y-77520000D03*
%TD*%
D22*
%TO.P,U1,1,INT2*%
%TO.N,unconnected-(U1-INT2-Pad1)*%
X169474000Y-64800000D03*
%TO.P,U1,2,NC*%
%TO.N,unconnected-(U1-NC-Pad2)*%
X169474000Y-65300000D03*
%TO.P,U1,3,VDD*%
%TO.N,VCCA*%
X169474000Y-65800000D03*
%TO.P,U1,4,GND_IO*%
%TO.N,GND*%
X169474000Y-66300000D03*
%TO.P,U1,5,CS_GYR*%
%TO.N,unconnected-(U1-CS_GYR-Pad5)*%
X169474000Y-66800000D03*
%TO.P,U1,6,GND*%
%TO.N,GND*%
X169474000Y-67300000D03*
%TO.P,U1,7,PS*%
%TO.N,VCCA*%
X169474000Y-67800000D03*
D23*
%TO.P,U1,8,SCL/SCK*%
%TO.N,IMU_SCL*%
X168212000Y-68262000D03*
D22*
%TO.P,U1,9,SDA/SDI*%
%TO.N,IMU_SDA*%
X166900000Y-67800000D03*
%TO.P,U1,10,SDO2*%
%TO.N,VCCA*%
X166900000Y-67300000D03*
%TO.P,U1,11,VDD_IO*%
X166900000Y-66800000D03*
%TO.P,U1,12,INT3*%
%TO.N,INT_GYR*%
X166900000Y-66300000D03*
%TO.P,U1,13,INT4*%
%TO.N,unconnected-(U1-INT4-Pad13)*%
X166900000Y-65800000D03*
%TO.P,U1,14,CS_ACC*%
%TO.N,unconnected-(U1-CS_ACC-Pad14)*%
X166900000Y-65300000D03*
%TO.P,U1,15,SDO1*%
%TO.N,GND*%
X166900000Y-64800000D03*
D23*
%TO.P,U1,16,INT1*%
%TO.N,unconnected-(U1-INT1-Pad16)*%
X168212000Y-64282500D03*
%TD*%
D24*
%TO.P,R8,1*%
%TO.N,GND*%
X157000000Y-73190000D03*
%TO.P,R8,2*%
%TO.N,Net-(Q3-G)*%
X157000000Y-74210000D03*
%TD*%
D25*
%TO.P,R7,1*%
%TO.N,/M3*%
X158120000Y-75600000D03*
%TO.P,R7,2*%
%TO.N,Net-(Q3-G)*%
X157100000Y-75600000D03*
%TD*%
D14*
%TO.P,J5,1,Pin_1*%
%TO.N,unconnected-(J5-Pin_1-Pad1)*%
X175600000Y-57200000D03*
D15*
%TO.P,J5,2,Pin_2*%
%TO.N,GND*%
X175600000Y-59740000D03*
%TO.P,J5,3,Pin_3*%
%TO.N,VCC*%
X175600000Y-62280000D03*
%TO.P,J5,4,Pin_4*%
%TO.N,/M1*%
X175600000Y-64820000D03*
%TO.P,J5,5,Pin_5*%
%TO.N,unconnected-(J5-Pin_5-Pad5)*%
X175600000Y-67360000D03*
%TO.P,J5,6,Pin_6*%
%TO.N,unconnected-(J5-Pin_6-Pad6)*%
X175600000Y-69900000D03*
%TO.P,J5,7,Pin_7*%
%TO.N,unconnected-(J5-Pin_7-Pad7)*%
X175600000Y-72440000D03*
%TO.P,J5,8,Pin_8*%
%TO.N,/M4*%
X175600000Y-74980000D03*
%TO.P,J5,9,Pin_9*%
%TO.N,unconnected-(J5-Pin_9-Pad9)*%
X175600000Y-77520000D03*
%TD*%
D25*
%TO.P,R3,1*%
%TO.N,/M2*%
X158120000Y-65010000D03*
%TO.P,R3,2*%
%TO.N,Net-(Q2-G)*%
X157100000Y-65010000D03*
%TD*%
D14*
%TO.P,J4,1,Pin_1*%
%TO.N,Net-(D3-A)*%
X154000000Y-70540000D03*
D15*
%TO.P,J4,2,Pin_2*%
%TO.N,VBAT*%
X154000000Y-68000000D03*
%TD*%
D18*
%TO.P,R11,1*%
%TO.N,/M4*%
X178690000Y-73700000D03*
%TO.P,R11,2*%
%TO.N,Net-(Q4-G)*%
X179710000Y-73700000D03*
%TD*%
D26*
%TO.P,Q3,1,G*%
%TO.N,Net-(Q3-G)*%
X155237500Y-75450000D03*
%TO.P,Q3,2,S*%
%TO.N,GND*%
X155237500Y-73550000D03*
%TO.P,Q3,3,D*%
%TO.N,Net-(D3-A)*%
X153362500Y-74500000D03*
%TD*%
D18*
%TO.P,R1,1*%
%TO.N,/M1*%
X178390000Y-62890000D03*
%TO.P,R1,2*%
%TO.N,Net-(Q1-G)*%
X179410000Y-62890000D03*
%TD*%
D12*
%TO.P,C2,1*%
%TO.N,VBAT*%
X178500000Y-58040000D03*
%TO.P,C2,2*%
%TO.N,Net-(D1-A)*%
X178500000Y-59000000D03*
%TD*%
D14*
%TO.P,J3,1,Pin_1*%
%TO.N,VBAT*%
X154000000Y-57460000D03*
D15*
%TO.P,J3,2,Pin_2*%
%TO.N,Net-(D2-A)*%
X154000000Y-60000000D03*
%TD*%
D12*
%TO.P,C9,1*%
%TO.N,VBAT*%
X178500000Y-69020000D03*
%TO.P,C9,2*%
%TO.N,Net-(D4-A)*%
X178500000Y-69980000D03*
%TD*%
D11*
%TO.P,D4,1,K*%
%TO.N,VBAT*%
X179900000Y-69100000D03*
%TO.P,D4,2,A*%
%TO.N,Net-(D4-A)*%
X179900000Y-69800000D03*
%TD*%
D14*
%TO.P,J1,1,Pin_1*%
%TO.N,Net-(D1-A)*%
X182680000Y-60070000D03*
D15*
%TO.P,J1,2,Pin_2*%
%TO.N,VBAT*%
X182680000Y-57530000D03*
%TD*%
D27*
%TO.P,C8,1*%
%TO.N,VCCA*%
X168975000Y-62500000D03*
%TO.P,C8,2*%
%TO.N,GND*%
X167425000Y-62500000D03*
%TD*%
D20*
%TO.P,J2,1,Pin_1*%
%TO.N,GND*%
X171060000Y-82060000D03*
D21*
%TO.P,J2,2,Pin_2*%
%TO.N,VBAT*%
X173060000Y-82060000D03*
%TD*%
D13*
%TO.P,R2,1*%
%TO.N,GND*%
X179400000Y-65100000D03*
%TO.P,R2,2*%
%TO.N,Net-(Q1-G)*%
X179400000Y-64080000D03*
%TD*%
D24*
%TO.P,R5,1*%
%TO.N,VBAT*%
X164200000Y-60080000D03*
%TO.P,R5,2*%
%TO.N,/BAT_V*%
X164200000Y-61100000D03*
%TD*%
%TO.P,R4,1*%
%TO.N,GND*%
X157100000Y-62700000D03*
%TO.P,R4,2*%
%TO.N,Net-(Q2-G)*%
X157100000Y-63720000D03*
%TD*%
D12*
%TO.P,C5,1*%
%TO.N,VCCA*%
X169900000Y-71220000D03*
%TO.P,C5,2*%
%TO.N,GND*%
X169900000Y-72180000D03*
%TD*%
D26*
%TO.P,Q2,1,G*%
%TO.N,Net-(Q2-G)*%
X155137500Y-64850000D03*
%TO.P,Q2,2,S*%
%TO.N,GND*%
X155137500Y-62950000D03*
%TO.P,Q2,3,D*%
%TO.N,Net-(D2-A)*%
X153262500Y-63900000D03*
%TD*%
D12*
%TO.P,C1,1*%
%TO.N,VCCA*%
X170712000Y-65520000D03*
%TO.P,C1,2*%
%TO.N,GND*%
X170712000Y-66480000D03*
%TD*%
D19*
%TO.P,Q1,1,G*%
%TO.N,Net-(Q1-G)*%
X181362500Y-63150000D03*
%TO.P,Q1,2,S*%
%TO.N,GND*%
X181362500Y-65050000D03*
%TO.P,Q1,3,D*%
%TO.N,Net-(D1-A)*%
X183237500Y-64100000D03*
%TD*%
D11*
%TO.P,D2,1,K*%
%TO.N,VBAT*%
X156600000Y-58550000D03*
%TO.P,D2,2,A*%
%TO.N,Net-(D2-A)*%
X156600000Y-59250000D03*
%TD*%
D28*
%TO.P,U2,1,VDDIO*%
%TO.N,VCCA*%
X168312500Y-71237500D03*
%TO.P,U2,2,SCK/SCL*%
%TO.N,IMU_SCL*%
X167812500Y-71237500D03*
D29*
%TO.P,U2,3,VSS*%
%TO.N,GND*%
X167300000Y-71500000D03*
%TO.P,U2,4,SDI/SDA*%
%TO.N,IMU_SDA*%
X167300000Y-72000000D03*
%TO.P,U2,5,SDO/A0*%
%TO.N,VCCA*%
X167300000Y-72500000D03*
D28*
%TO.P,U2,6,CSB*%
X167812500Y-72762500D03*
%TO.P,U2,7,INT*%
%TO.N,unconnected-(U2-INT-Pad7)*%
X168312500Y-72762500D03*
D29*
%TO.P,U2,8,VSS*%
%TO.N,GND*%
X168825000Y-72500000D03*
%TO.P,U2,9,VSS*%
X168825000Y-72000000D03*
%TO.P,U2,10,VDD*%
%TO.N,VCCA*%
X168825000Y-71500000D03*
%TD*%
D18*
%TO.P,R6,1*%
%TO.N,/BAT_V*%
X164180000Y-62500000D03*
%TO.P,R6,2*%
%TO.N,GND*%
X165200000Y-62500000D03*
%TD*%
D30*
%TO.N,GND*%
X179400000Y-66400000D03*
X158600000Y-72800000D03*
X163400000Y-67800000D03*
X166200000Y-63600000D03*
X168200000Y-66300000D03*
X158400000Y-61400000D03*
X169900000Y-73900000D03*
X166367653Y-71057653D03*
X178100000Y-76100000D03*
%TO.N,IMU_SDA*%
X165612653Y-72000000D03*
X164587347Y-70787347D03*
%TD*%
D31*
%TO.N,VCCA*%
X171500000Y-62600000D02*
X171500000Y-63800000D01*
D32*
X169100000Y-71500000D02*
X169380000Y-71220000D01*
X165990000Y-67300000D02*
X165300000Y-67990000D01*
X168312500Y-71237500D02*
X168562500Y-71237500D01*
D31*
X169900000Y-69800000D02*
X168720000Y-69800000D01*
D32*
X167812500Y-72487500D02*
X168312500Y-71987500D01*
X169380000Y-71220000D02*
X169900000Y-71220000D01*
X168578370Y-67300000D02*
X169078370Y-67800000D01*
X167420000Y-72905000D02*
X167562500Y-72762500D01*
D31*
X171900000Y-67000000D02*
X171100000Y-67800000D01*
X170200000Y-67800000D02*
X170200000Y-69500000D01*
D32*
X167812500Y-72762500D02*
X167812500Y-72487500D01*
X166900000Y-66800000D02*
X166000000Y-66800000D01*
D31*
X169075000Y-62600000D02*
X168975000Y-62500000D01*
X170712000Y-64588000D02*
X170712000Y-65520000D01*
D32*
X165990000Y-66810000D02*
X166000000Y-66800000D01*
D31*
X171100000Y-67800000D02*
X170200000Y-67800000D01*
D32*
X166900000Y-67300000D02*
X165990000Y-67300000D01*
D31*
X171620000Y-65520000D02*
X171900000Y-65800000D01*
D32*
X165990000Y-67300000D02*
X165990000Y-66810000D01*
X170280000Y-65520000D02*
X170712000Y-65520000D01*
X167420000Y-73900000D02*
X167420000Y-72905000D01*
X166900000Y-67300000D02*
X168578370Y-67300000D01*
X167562500Y-72762500D02*
X167300000Y-72500000D01*
D31*
X171500000Y-63800000D02*
X170712000Y-64588000D01*
D32*
X168825000Y-71500000D02*
X169100000Y-71500000D01*
X169474000Y-67800000D02*
X170200000Y-67800000D01*
X166000000Y-66800000D02*
X165380000Y-66800000D01*
X170000000Y-65800000D02*
X170280000Y-65520000D01*
X169474000Y-65800000D02*
X170000000Y-65800000D01*
D31*
X171500000Y-62600000D02*
X169075000Y-62600000D01*
X169900000Y-69800000D02*
X169900000Y-71220000D01*
X171900000Y-65800000D02*
X171900000Y-67000000D01*
D32*
X168312500Y-71987500D02*
X168312500Y-71237500D01*
D31*
X170200000Y-69500000D02*
X169900000Y-69800000D01*
X170712000Y-65520000D02*
X171620000Y-65520000D01*
D32*
X168562500Y-71237500D02*
X168825000Y-71500000D01*
X167812500Y-72762500D02*
X167562500Y-72762500D01*
X169078370Y-67800000D02*
X169474000Y-67800000D01*
%TO.N,GND*%
X166900000Y-64800000D02*
X166400000Y-64800000D01*
D31*
X181462500Y-75650000D02*
X181012500Y-76100000D01*
D32*
X170049630Y-66480000D02*
X169869630Y-66300000D01*
X169300000Y-72000000D02*
X169720000Y-72000000D01*
D31*
X156150000Y-62950000D02*
X155137500Y-62950000D01*
X181312500Y-65100000D02*
X181362500Y-65050000D01*
D32*
X170137500Y-67032130D02*
X170137500Y-66567870D01*
X169869630Y-67300000D02*
X170137500Y-67032130D01*
D31*
X181012500Y-76100000D02*
X179700000Y-76100000D01*
D32*
X170712000Y-66480000D02*
X170049630Y-66480000D01*
X168825000Y-72500000D02*
X168825000Y-72475000D01*
X166200000Y-64600000D02*
X166200000Y-63600000D01*
X168825000Y-72475000D02*
X169300000Y-72000000D01*
X169720000Y-72000000D02*
X169900000Y-72180000D01*
D33*
X167300000Y-71500000D02*
X167300000Y-71470000D01*
D31*
X156400000Y-62700000D02*
X156150000Y-62950000D01*
X179700000Y-76100000D02*
X178100000Y-76100000D01*
D32*
X169474000Y-66300000D02*
X168200000Y-66300000D01*
D31*
X156050000Y-73550000D02*
X156410000Y-73190000D01*
D32*
X164420000Y-66800000D02*
X164400000Y-66800000D01*
D31*
X157100000Y-62700000D02*
X156400000Y-62700000D01*
D32*
X169474000Y-67300000D02*
X169869630Y-67300000D01*
X166200000Y-62500000D02*
X166200000Y-63600000D01*
X170137500Y-66567870D02*
X170049630Y-66480000D01*
D33*
X167300000Y-71500000D02*
X166810000Y-71500000D01*
D32*
X166400000Y-64800000D02*
X166200000Y-64600000D01*
D31*
X157000000Y-73190000D02*
X158210000Y-73190000D01*
D32*
X169869630Y-66300000D02*
X169474000Y-66300000D01*
X165200000Y-62500000D02*
X166200000Y-62500000D01*
X168825000Y-72000000D02*
X169300000Y-72000000D01*
D33*
X166810000Y-71500000D02*
X166367653Y-71057653D01*
D32*
X166200000Y-62500000D02*
X167425000Y-62500000D01*
D31*
X156410000Y-73190000D02*
X157000000Y-73190000D01*
X169900000Y-72180000D02*
X169900000Y-73900000D01*
D32*
X164400000Y-66800000D02*
X163400000Y-67800000D01*
D31*
X158210000Y-73190000D02*
X158600000Y-72800000D01*
X179400000Y-65100000D02*
X179400000Y-66400000D01*
X168380000Y-73900000D02*
X169900000Y-73900000D01*
X157100000Y-62700000D02*
X158400000Y-61400000D01*
X179400000Y-65100000D02*
X181312500Y-65100000D01*
X155237500Y-73550000D02*
X156050000Y-73550000D01*
%TO.N,Net-(D1-A)*%
X182700000Y-61700000D02*
X182700000Y-60100000D01*
X179900000Y-60000000D02*
X180000000Y-60100000D01*
X178500000Y-59100000D02*
X179500000Y-60100000D01*
X179900000Y-58900000D02*
X179900000Y-60000000D01*
X183237500Y-64100000D02*
X183237500Y-62237500D01*
X178500000Y-59000000D02*
X178500000Y-59100000D01*
X183237500Y-62237500D02*
X182700000Y-61700000D01*
X179500000Y-60100000D02*
X180000000Y-60100000D01*
X180000000Y-60100000D02*
X182700000Y-60100000D01*
%TO.N,VBAT*%
X157100000Y-68000000D02*
X156600000Y-68000000D01*
X179900000Y-58200000D02*
X179900000Y-57560000D01*
D32*
X163000000Y-55000000D02*
X155000000Y-55000000D01*
D34*
X184560000Y-57560000D02*
X182700000Y-57560000D01*
D31*
X156600000Y-58550000D02*
X156600000Y-57460000D01*
X158020000Y-58420000D02*
X158020000Y-58417435D01*
D34*
X186000000Y-76000000D02*
X186000000Y-68000000D01*
D32*
X155000000Y-55000000D02*
X154000000Y-56000000D01*
D31*
X178980000Y-57560000D02*
X178500000Y-58040000D01*
X178500000Y-69020000D02*
X179250000Y-68270000D01*
D34*
X151000000Y-68000000D02*
X151130000Y-68130000D01*
X186000000Y-59000000D02*
X184560000Y-57560000D01*
D31*
X179900000Y-68010000D02*
X179890000Y-68000000D01*
X179250000Y-68270000D02*
X179250000Y-68260000D01*
D34*
X172595000Y-84400000D02*
X173060000Y-83935000D01*
D31*
X179900000Y-57560000D02*
X178980000Y-57560000D01*
D34*
X175380000Y-82060000D02*
X175400000Y-82080000D01*
D31*
X157900000Y-68800000D02*
X157100000Y-68000000D01*
X179510000Y-68000000D02*
X179250000Y-68260000D01*
D34*
X165530000Y-84280000D02*
X165650000Y-84400000D01*
X165530000Y-82080000D02*
X165530000Y-84280000D01*
D32*
X154000000Y-56000000D02*
X154000000Y-57460000D01*
D34*
X151130000Y-68130000D02*
X153870000Y-68130000D01*
D31*
X182700000Y-57560000D02*
X179900000Y-57560000D01*
D34*
X151000000Y-77000000D02*
X152000000Y-78000000D01*
X151000000Y-59000000D02*
X152540000Y-57460000D01*
X186000000Y-68000000D02*
X186000000Y-59000000D01*
X151000000Y-68000000D02*
X151000000Y-59000000D01*
X155920000Y-78000000D02*
X162320000Y-84400000D01*
D31*
X182700000Y-68000000D02*
X179890000Y-68000000D01*
X158020000Y-58417435D02*
X157062565Y-57460000D01*
X156600000Y-57460000D02*
X154000000Y-57460000D01*
D34*
X173060000Y-82060000D02*
X175380000Y-82060000D01*
X153870000Y-68130000D02*
X154000000Y-68000000D01*
X186000000Y-68000000D02*
X182700000Y-68000000D01*
X184070000Y-77930000D02*
X186000000Y-76000000D01*
D31*
X179890000Y-68000000D02*
X179510000Y-68000000D01*
D34*
X165650000Y-84400000D02*
X172595000Y-84400000D01*
X152000000Y-78000000D02*
X155920000Y-78000000D01*
X179550000Y-77930000D02*
X184070000Y-77930000D01*
X175400000Y-82080000D02*
X179550000Y-77930000D01*
D31*
X179900000Y-69100000D02*
X179900000Y-68010000D01*
X156600000Y-69050000D02*
X156600000Y-68000000D01*
D34*
X162320000Y-84400000D02*
X165650000Y-84400000D01*
D32*
X164200000Y-60080000D02*
X164200000Y-56200000D01*
D31*
X157062565Y-57460000D02*
X156600000Y-57460000D01*
X156600000Y-68000000D02*
X154000000Y-68000000D01*
D32*
X164200000Y-56200000D02*
X163000000Y-55000000D01*
D34*
X152540000Y-57460000D02*
X154000000Y-57460000D01*
X173060000Y-83935000D02*
X173060000Y-82060000D01*
D31*
X157900000Y-68940000D02*
X157900000Y-68800000D01*
D34*
X151000000Y-68000000D02*
X151000000Y-77000000D01*
D31*
%TO.N,Net-(D2-A)*%
X154000000Y-60000000D02*
X156600000Y-60000000D01*
X156600000Y-60000000D02*
X157400000Y-60000000D01*
X153262500Y-60737500D02*
X153262500Y-63900000D01*
X156600000Y-59250000D02*
X156600000Y-60000000D01*
X157400000Y-60000000D02*
X158020000Y-59380000D01*
X154000000Y-60000000D02*
X153262500Y-60737500D01*
%TO.N,Net-(D3-A)*%
X157900000Y-69900000D02*
X157260000Y-70540000D01*
X153362500Y-72637500D02*
X153362500Y-74500000D01*
X157260000Y-70540000D02*
X156600000Y-70540000D01*
X156600000Y-69750000D02*
X156600000Y-70540000D01*
X156600000Y-70540000D02*
X154000000Y-70540000D01*
X154000000Y-70540000D02*
X154000000Y-72000000D01*
X154000000Y-72000000D02*
X153362500Y-72637500D01*
%TO.N,Net-(D4-A)*%
X179900000Y-70520000D02*
X179880000Y-70540000D01*
X178770000Y-70250000D02*
X178780000Y-70250000D01*
X183337500Y-74700000D02*
X183337500Y-72637500D01*
X179900000Y-69800000D02*
X179900000Y-70520000D01*
X179880000Y-70540000D02*
X182700000Y-70540000D01*
X182700000Y-72000000D02*
X182700000Y-70540000D01*
X178500000Y-69980000D02*
X178770000Y-70250000D01*
X179070000Y-70540000D02*
X179880000Y-70540000D01*
X178780000Y-70250000D02*
X179070000Y-70540000D01*
X183337500Y-72637500D02*
X182700000Y-72000000D01*
%TO.N,VCC*%
X173125000Y-61025000D02*
X174380000Y-62280000D01*
X171500000Y-61025000D02*
X173125000Y-61025000D01*
X174380000Y-62280000D02*
X175600000Y-62280000D01*
D32*
%TO.N,/M4*%
X178690000Y-73700000D02*
X176880000Y-73700000D01*
X176880000Y-73700000D02*
X175600000Y-74980000D01*
%TO.N,/M3*%
X158120000Y-75600000D02*
X160380000Y-75600000D01*
X160380000Y-75600000D02*
X161000000Y-74980000D01*
%TO.N,IMU_SDA*%
X165300000Y-69010000D02*
X166490000Y-69010000D01*
X164600000Y-69900000D02*
X165300000Y-69900000D01*
X165300000Y-69900000D02*
X165300000Y-69010000D01*
X166490000Y-69010000D02*
X166900000Y-68600000D01*
X165800000Y-72000000D02*
X167300000Y-72000000D01*
X164600000Y-69900000D02*
X164600000Y-70774694D01*
X161000000Y-69900000D02*
X164600000Y-69900000D01*
X164600000Y-70774694D02*
X164587347Y-70787347D01*
X165612653Y-71812653D02*
X165800000Y-72000000D01*
X166900000Y-68600000D02*
X166900000Y-67800000D01*
%TO.N,/M2*%
X158120000Y-65010000D02*
X160810000Y-65010000D01*
X160810000Y-65010000D02*
X161000000Y-64820000D01*
%TO.N,IMU_SCL*%
X161000000Y-72440000D02*
X163960000Y-72440000D01*
X163960000Y-72440000D02*
X166600000Y-69800000D01*
X168212000Y-68688000D02*
X167700000Y-69200000D01*
X167812500Y-70712500D02*
X167700000Y-70600000D01*
X167812500Y-71237500D02*
X167812500Y-70712500D01*
X168212000Y-68262000D02*
X168212000Y-68688000D01*
X167700000Y-69200000D02*
X167700000Y-69800000D01*
X167700000Y-70600000D02*
X167700000Y-69800000D01*
X166600000Y-69800000D02*
X167700000Y-69800000D01*
%TO.N,INT_GYR*%
X165700000Y-65500000D02*
X163500000Y-65500000D01*
X163500000Y-65500000D02*
X161640000Y-67360000D01*
X161640000Y-67360000D02*
X161000000Y-67360000D01*
X166900000Y-66300000D02*
X166500000Y-66300000D01*
X166500000Y-66300000D02*
X165700000Y-65500000D01*
%TO.N,/M1*%
X176480000Y-64820000D02*
X175600000Y-64820000D01*
X178390000Y-62910000D02*
X176480000Y-64820000D01*
X178390000Y-62890000D02*
X178390000Y-62910000D01*
%TO.N,Net-(Q1-G)*%
X179410000Y-62890000D02*
X179410000Y-64070000D01*
X179410000Y-62890000D02*
X181102500Y-62890000D01*
X179410000Y-64070000D02*
X179400000Y-64080000D01*
X181102500Y-62890000D02*
X181362500Y-63150000D01*
%TO.N,Net-(Q2-G)*%
X157100000Y-65010000D02*
X155297500Y-65010000D01*
X157100000Y-63720000D02*
X157100000Y-65010000D01*
X155297500Y-65010000D02*
X155137500Y-64850000D01*
%TO.N,Net-(Q3-G)*%
X157100000Y-75600000D02*
X157100000Y-74310000D01*
X157100000Y-75600000D02*
X155387500Y-75600000D01*
X155387500Y-75600000D02*
X155237500Y-75450000D01*
X157100000Y-74310000D02*
X157000000Y-74210000D01*
%TO.N,Net-(Q4-G)*%
X179710000Y-73700000D02*
X181412500Y-73700000D01*
X181412500Y-73700000D02*
X181462500Y-73750000D01*
X179700000Y-73710000D02*
X179710000Y-73700000D01*
X179700000Y-75080000D02*
X179700000Y-73710000D01*
%TO.N,/BAT_V*%
X164180000Y-62500000D02*
X161220000Y-62500000D01*
X164200000Y-62480000D02*
X164180000Y-62500000D01*
X161220000Y-62500000D02*
X161000000Y-62280000D01*
X164200000Y-61100000D02*
X164200000Y-62480000D01*
%TD*%
M02*
