%TF.GenerationSoftware,KiCad,Pcbnew,9.0.4*%
%TF.CreationDate,2025-10-07T14:12:27+03:00*%
%TF.ProjectId,XIaoShield,5849616f-5368-4696-956c-642e6b696361,rev?*%
%TF.SameCoordinates,Original*%
%TF.FileFunction,Paste,Top*%
%TF.FilePolarity,Positive*%
%FSLAX46Y46*%
G04 Gerber Fmt 4.6, Leading zero omitted, Abs format (unit mm)*
G04 Created by KiCad (PCBNEW 9.0.4) date 2025-10-07 14:12:27*
%MOMM*%
%LPD*%
G01*
G04 APERTURE LIST*
G04 Aperture macros list*
%AMRoundRect*
0 Rectangle with rounded corners*
0 $1 Rounding radius*
0 $2 $3 $4 $5 $6 $7 $8 $9 X,Y pos of 4 corners*
0 Add a 4 corners polygon primitive as box body*
4,1,4,$2,$3,$4,$5,$6,$7,$8,$9,$2,$3,0*
0 Add four circle primitives for the rounded corners*
1,1,$1+$1,$2,$3*
1,1,$1+$1,$4,$5*
1,1,$1+$1,$6,$7*
1,1,$1+$1,$8,$9*
0 Add four rect primitives between the rounded corners*
20,1,$1+$1,$2,$3,$4,$5,0*
20,1,$1+$1,$4,$5,$6,$7,0*
20,1,$1+$1,$6,$7,$8,$9,0*
20,1,$1+$1,$8,$9,$2,$3,0*%
G04 Aperture macros list end*
%ADD10RoundRect,0.140000X-0.140000X-0.170000X0.140000X-0.170000X0.140000X0.170000X-0.140000X0.170000X0*%
%ADD11RoundRect,0.050000X-0.250000X0.100000X-0.250000X-0.100000X0.250000X-0.100000X0.250000X0.100000X0*%
%ADD12RoundRect,0.140000X-0.170000X0.140000X-0.170000X-0.140000X0.170000X-0.140000X0.170000X0.140000X0*%
%ADD13RoundRect,0.135000X0.185000X-0.135000X0.185000X0.135000X-0.185000X0.135000X-0.185000X-0.135000X0*%
%ADD14RoundRect,0.218750X-0.256250X0.218750X-0.256250X-0.218750X0.256250X-0.218750X0.256250X0.218750X0*%
%ADD15RoundRect,0.140000X0.140000X0.170000X-0.140000X0.170000X-0.140000X-0.170000X0.140000X-0.170000X0*%
%ADD16RoundRect,0.135000X-0.135000X-0.185000X0.135000X-0.185000X0.135000X0.185000X-0.135000X0.185000X0*%
%ADD17RoundRect,0.150000X-0.587500X-0.150000X0.587500X-0.150000X0.587500X0.150000X-0.587500X0.150000X0*%
%ADD18RoundRect,0.050000X-0.287500X-0.075000X0.287500X-0.075000X0.287500X0.075000X-0.287500X0.075000X0*%
%ADD19RoundRect,0.050000X0.075000X-0.287500X0.075000X0.287500X-0.075000X0.287500X-0.075000X-0.287500X0*%
%ADD20RoundRect,0.135000X-0.185000X0.135000X-0.185000X-0.135000X0.185000X-0.135000X0.185000X0.135000X0*%
%ADD21RoundRect,0.135000X0.135000X0.185000X-0.135000X0.185000X-0.135000X-0.185000X0.135000X-0.185000X0*%
%ADD22RoundRect,0.150000X0.587500X0.150000X-0.587500X0.150000X-0.587500X-0.150000X0.587500X-0.150000X0*%
%ADD23RoundRect,0.225000X0.225000X0.250000X-0.225000X0.250000X-0.225000X-0.250000X0.225000X-0.250000X0*%
%ADD24R,0.250000X0.275000*%
%ADD25R,0.275000X0.250000*%
G04 APERTURE END LIST*
D10*
%TO.C,C3*%
X167420000Y-73900000D03*
X168380000Y-73900000D03*
%TD*%
D11*
%TO.C,D3*%
X156600000Y-69050000D03*
X156600000Y-69750000D03*
%TD*%
D12*
%TO.C,C7*%
X157900000Y-68940000D03*
X157900000Y-69900000D03*
%TD*%
D13*
%TO.C,R10*%
X165300000Y-69010000D03*
X165300000Y-67990000D03*
%TD*%
D14*
%TO.C,FB1*%
X171500000Y-61025000D03*
X171500000Y-62600000D03*
%TD*%
D15*
%TO.C,C4*%
X165380000Y-66800000D03*
X164420000Y-66800000D03*
%TD*%
D16*
%TO.C,R9*%
X167700000Y-69800000D03*
X168720000Y-69800000D03*
%TD*%
D11*
%TO.C,D1*%
X179900000Y-58200000D03*
X179900000Y-58900000D03*
%TD*%
D13*
%TO.C,R12*%
X179700000Y-76100000D03*
X179700000Y-75080000D03*
%TD*%
D17*
%TO.C,Q4*%
X181462500Y-73750000D03*
X181462500Y-75650000D03*
X183337500Y-74700000D03*
%TD*%
D12*
%TO.C,C6*%
X158020000Y-58420000D03*
X158020000Y-59380000D03*
%TD*%
D18*
%TO.C,U1*%
X169474000Y-64800000D03*
X169474000Y-65300000D03*
X169474000Y-65800000D03*
X169474000Y-66300000D03*
X169474000Y-66800000D03*
X169474000Y-67300000D03*
X169474000Y-67800000D03*
D19*
X168212000Y-68262000D03*
D18*
X166900000Y-67800000D03*
X166900000Y-67300000D03*
X166900000Y-66800000D03*
X166900000Y-66300000D03*
X166900000Y-65800000D03*
X166900000Y-65300000D03*
X166900000Y-64800000D03*
D19*
X168212000Y-64282500D03*
%TD*%
D20*
%TO.C,R8*%
X157000000Y-73190000D03*
X157000000Y-74210000D03*
%TD*%
D21*
%TO.C,R7*%
X158120000Y-75600000D03*
X157100000Y-75600000D03*
%TD*%
%TO.C,R3*%
X158120000Y-65010000D03*
X157100000Y-65010000D03*
%TD*%
D16*
%TO.C,R11*%
X178690000Y-73700000D03*
X179710000Y-73700000D03*
%TD*%
D22*
%TO.C,Q3*%
X155237500Y-75450000D03*
X155237500Y-73550000D03*
X153362500Y-74500000D03*
%TD*%
D16*
%TO.C,R1*%
X178390000Y-62890000D03*
X179410000Y-62890000D03*
%TD*%
D12*
%TO.C,C2*%
X178500000Y-58040000D03*
X178500000Y-59000000D03*
%TD*%
%TO.C,C9*%
X178500000Y-69020000D03*
X178500000Y-69980000D03*
%TD*%
D11*
%TO.C,D4*%
X179900000Y-69100000D03*
X179900000Y-69800000D03*
%TD*%
D23*
%TO.C,C8*%
X168975000Y-62500000D03*
X167425000Y-62500000D03*
%TD*%
D13*
%TO.C,R2*%
X179400000Y-65100000D03*
X179400000Y-64080000D03*
%TD*%
D20*
%TO.C,R5*%
X164200000Y-60080000D03*
X164200000Y-61100000D03*
%TD*%
%TO.C,R4*%
X157100000Y-62700000D03*
X157100000Y-63720000D03*
%TD*%
D12*
%TO.C,C5*%
X169900000Y-71220000D03*
X169900000Y-72180000D03*
%TD*%
D22*
%TO.C,Q2*%
X155137500Y-64850000D03*
X155137500Y-62950000D03*
X153262500Y-63900000D03*
%TD*%
D12*
%TO.C,C1*%
X170712000Y-65520000D03*
X170712000Y-66480000D03*
%TD*%
D17*
%TO.C,Q1*%
X181362500Y-63150000D03*
X181362500Y-65050000D03*
X183237500Y-64100000D03*
%TD*%
D11*
%TO.C,D2*%
X156600000Y-58550000D03*
X156600000Y-59250000D03*
%TD*%
D24*
%TO.C,U2*%
X168312500Y-71237500D03*
X167812500Y-71237500D03*
D25*
X167300000Y-71500000D03*
X167300000Y-72000000D03*
X167300000Y-72500000D03*
D24*
X167812500Y-72762500D03*
X168312500Y-72762500D03*
D25*
X168825000Y-72500000D03*
X168825000Y-72000000D03*
X168825000Y-71500000D03*
%TD*%
D16*
%TO.C,R6*%
X164180000Y-62500000D03*
X165200000Y-62500000D03*
%TD*%
M02*
