%TF.GenerationSoftware,KiCad,Pcbnew,9.0.4*%
%TF.CreationDate,2025-10-07T14:12:27+03:00*%
%TF.ProjectId,XIaoShield,5849616f-5368-4696-956c-642e6b696361,rev?*%
%TF.SameCoordinates,Original*%
%TF.FileFunction,Legend,Top*%
%TF.FilePolarity,Positive*%
%FSLAX46Y46*%
G04 Gerber Fmt 4.6, Leading zero omitted, Abs format (unit mm)*
G04 Created by KiCad (PCBNEW 9.0.4) date 2025-10-07 14:12:27*
%MOMM*%
%LPD*%
G01*
G04 APERTURE LIST*
%ADD10C,0.200000*%
%ADD11C,0.160000*%
G04 APERTURE END LIST*
D10*
G36*
X186813292Y-71006337D02*
G01*
X186877470Y-71070514D01*
X186907275Y-71130124D01*
X186907275Y-71273386D01*
X186877470Y-71332995D01*
X186813292Y-71397172D01*
X186661631Y-71435088D01*
X186352917Y-71435088D01*
X186201258Y-71397173D01*
X186137079Y-71332994D01*
X186107275Y-71273385D01*
X186107275Y-71130124D01*
X186137079Y-71070515D01*
X186201258Y-71006336D01*
X186352917Y-70968422D01*
X186661631Y-70968422D01*
X186813292Y-71006337D01*
G37*
G36*
X186813292Y-69196813D02*
G01*
X186877470Y-69260990D01*
X186907275Y-69320600D01*
X186907275Y-69463862D01*
X186877470Y-69523471D01*
X186813292Y-69587648D01*
X186661631Y-69625564D01*
X186352917Y-69625564D01*
X186201258Y-69587649D01*
X186137079Y-69523470D01*
X186107275Y-69463861D01*
X186107275Y-69320600D01*
X186137079Y-69260991D01*
X186201258Y-69196812D01*
X186352917Y-69158898D01*
X186661631Y-69158898D01*
X186813292Y-69196813D01*
G37*
G36*
X186376610Y-68188703D02*
G01*
X186401279Y-68213371D01*
X186431084Y-68272981D01*
X186431084Y-68530326D01*
X186107275Y-68530326D01*
X186107275Y-68272981D01*
X186137080Y-68213371D01*
X186161748Y-68188702D01*
X186221358Y-68158898D01*
X186317001Y-68158898D01*
X186376610Y-68188703D01*
G37*
G36*
X187218386Y-72841437D02*
G01*
X185749330Y-72841437D01*
X185749330Y-71978843D01*
X185908434Y-71978843D01*
X185909196Y-71980938D01*
X185909196Y-71983169D01*
X185915840Y-71999210D01*
X185921769Y-72015512D01*
X185923274Y-72017155D01*
X185924128Y-72019217D01*
X185936401Y-72031490D01*
X185948120Y-72044287D01*
X185950764Y-72045853D01*
X185951718Y-72046807D01*
X185953899Y-72047710D01*
X185964986Y-72054278D01*
X186485090Y-72296993D01*
X185964986Y-72539708D01*
X185953899Y-72546275D01*
X185951718Y-72547179D01*
X185950764Y-72548132D01*
X185948120Y-72549699D01*
X185936401Y-72562495D01*
X185924128Y-72574769D01*
X185923274Y-72576830D01*
X185921769Y-72578474D01*
X185915840Y-72594775D01*
X185909196Y-72610817D01*
X185909196Y-72613047D01*
X185908434Y-72615143D01*
X185909196Y-72632482D01*
X185909196Y-72649835D01*
X185910049Y-72651894D01*
X185910147Y-72654123D01*
X185917488Y-72669853D01*
X185924128Y-72685883D01*
X185925704Y-72687459D01*
X185926648Y-72689481D01*
X185939444Y-72701199D01*
X185951718Y-72713473D01*
X185953779Y-72714326D01*
X185955423Y-72715832D01*
X185971724Y-72721760D01*
X185987766Y-72728405D01*
X185990824Y-72728706D01*
X185992092Y-72729167D01*
X185994451Y-72729063D01*
X186007275Y-72730326D01*
X187007275Y-72730326D01*
X187026784Y-72728405D01*
X187062832Y-72713473D01*
X187090422Y-72685883D01*
X187105354Y-72649835D01*
X187105354Y-72610817D01*
X187090422Y-72574769D01*
X187062832Y-72547179D01*
X187026784Y-72532247D01*
X187007275Y-72530326D01*
X186458031Y-72530326D01*
X186763849Y-72387611D01*
X186770990Y-72383380D01*
X186773412Y-72382500D01*
X186775124Y-72380931D01*
X186780715Y-72377620D01*
X186790975Y-72366415D01*
X186802188Y-72356148D01*
X186804067Y-72352120D01*
X186807067Y-72348845D01*
X186812258Y-72334569D01*
X186818688Y-72320791D01*
X186818883Y-72316350D01*
X186820401Y-72312176D01*
X186819733Y-72296993D01*
X186820401Y-72281810D01*
X186818883Y-72277635D01*
X186818688Y-72273195D01*
X186812258Y-72259416D01*
X186807067Y-72245141D01*
X186804067Y-72241865D01*
X186802188Y-72237838D01*
X186790975Y-72227570D01*
X186780715Y-72216366D01*
X186775124Y-72213054D01*
X186773412Y-72211486D01*
X186770990Y-72210605D01*
X186763849Y-72206375D01*
X186458031Y-72063660D01*
X187007275Y-72063660D01*
X187026784Y-72061739D01*
X187062832Y-72046807D01*
X187090422Y-72019217D01*
X187105354Y-71983169D01*
X187105354Y-71944151D01*
X187090422Y-71908103D01*
X187062832Y-71880513D01*
X187026784Y-71865581D01*
X187007275Y-71863660D01*
X186007275Y-71863660D01*
X185994451Y-71864922D01*
X185992092Y-71864819D01*
X185990824Y-71865279D01*
X185987766Y-71865581D01*
X185971724Y-71872225D01*
X185955423Y-71878154D01*
X185953779Y-71879659D01*
X185951718Y-71880513D01*
X185939444Y-71892786D01*
X185926648Y-71904505D01*
X185925704Y-71906526D01*
X185924128Y-71908103D01*
X185917488Y-71924132D01*
X185910147Y-71939863D01*
X185910049Y-71942091D01*
X185909196Y-71944151D01*
X185909196Y-71961503D01*
X185908434Y-71978843D01*
X185749330Y-71978843D01*
X185749330Y-71106517D01*
X185907275Y-71106517D01*
X185907275Y-71296993D01*
X185909196Y-71316502D01*
X185910571Y-71319822D01*
X185910826Y-71323406D01*
X185917832Y-71341714D01*
X185965451Y-71436952D01*
X185970736Y-71445348D01*
X185971747Y-71447788D01*
X185974000Y-71450534D01*
X185975894Y-71453542D01*
X185977888Y-71455271D01*
X185984183Y-71462942D01*
X186079421Y-71558180D01*
X186094575Y-71570616D01*
X186101443Y-71573461D01*
X186107418Y-71577888D01*
X186125878Y-71584483D01*
X186316354Y-71632102D01*
X186319735Y-71632602D01*
X186321099Y-71633167D01*
X186328449Y-71633890D01*
X186335747Y-71634970D01*
X186337205Y-71634752D01*
X186340608Y-71635088D01*
X186673941Y-71635088D01*
X186677343Y-71634752D01*
X186678802Y-71634970D01*
X186686099Y-71633890D01*
X186693450Y-71633167D01*
X186694813Y-71632602D01*
X186698195Y-71632102D01*
X186888670Y-71584483D01*
X186907131Y-71577888D01*
X186913103Y-71573462D01*
X186919974Y-71570617D01*
X186935127Y-71558180D01*
X187030367Y-71462942D01*
X187036660Y-71455273D01*
X187038656Y-71453543D01*
X187040549Y-71450535D01*
X187042803Y-71447789D01*
X187043813Y-71445348D01*
X187049099Y-71436952D01*
X187096718Y-71341715D01*
X187103724Y-71323406D01*
X187103978Y-71319822D01*
X187105354Y-71316502D01*
X187107275Y-71296993D01*
X187107275Y-71106517D01*
X187105354Y-71087008D01*
X187103978Y-71083687D01*
X187103724Y-71080104D01*
X187096718Y-71061795D01*
X187049099Y-70966558D01*
X187043813Y-70958161D01*
X187042803Y-70955721D01*
X187040549Y-70952974D01*
X187038656Y-70949967D01*
X187036660Y-70948236D01*
X187030367Y-70940568D01*
X186935127Y-70845330D01*
X186919974Y-70832893D01*
X186913103Y-70830047D01*
X186907131Y-70825622D01*
X186888670Y-70819027D01*
X186698195Y-70771408D01*
X186694813Y-70770907D01*
X186693450Y-70770343D01*
X186686099Y-70769619D01*
X186678802Y-70768540D01*
X186677343Y-70768757D01*
X186673941Y-70768422D01*
X186340608Y-70768422D01*
X186337205Y-70768757D01*
X186335747Y-70768540D01*
X186328449Y-70769619D01*
X186321099Y-70770343D01*
X186319735Y-70770907D01*
X186316354Y-70771408D01*
X186125878Y-70819027D01*
X186107418Y-70825622D01*
X186101443Y-70830048D01*
X186094575Y-70832894D01*
X186079421Y-70845330D01*
X185984183Y-70940568D01*
X185977888Y-70948238D01*
X185975894Y-70949968D01*
X185974000Y-70952975D01*
X185971747Y-70955722D01*
X185970736Y-70958161D01*
X185965451Y-70966558D01*
X185917832Y-71061796D01*
X185910826Y-71080104D01*
X185910571Y-71083687D01*
X185909196Y-71087008D01*
X185907275Y-71106517D01*
X185749330Y-71106517D01*
X185749330Y-70011279D01*
X185907275Y-70011279D01*
X185907275Y-70582707D01*
X185909196Y-70602216D01*
X185924128Y-70638264D01*
X185951718Y-70665854D01*
X185987766Y-70680786D01*
X186026784Y-70680786D01*
X186062832Y-70665854D01*
X186090422Y-70638264D01*
X186105354Y-70602216D01*
X186107275Y-70582707D01*
X186107275Y-70396993D01*
X187007275Y-70396993D01*
X187026784Y-70395072D01*
X187062832Y-70380140D01*
X187090422Y-70352550D01*
X187105354Y-70316502D01*
X187105354Y-70277484D01*
X187090422Y-70241436D01*
X187062832Y-70213846D01*
X187026784Y-70198914D01*
X187007275Y-70196993D01*
X186107275Y-70196993D01*
X186107275Y-70011279D01*
X186105354Y-69991770D01*
X186090422Y-69955722D01*
X186062832Y-69928132D01*
X186026784Y-69913200D01*
X185987766Y-69913200D01*
X185951718Y-69928132D01*
X185924128Y-69955722D01*
X185909196Y-69991770D01*
X185907275Y-70011279D01*
X185749330Y-70011279D01*
X185749330Y-69296993D01*
X185907275Y-69296993D01*
X185907275Y-69487469D01*
X185909196Y-69506978D01*
X185910571Y-69510298D01*
X185910826Y-69513882D01*
X185917832Y-69532190D01*
X185965451Y-69627428D01*
X185970736Y-69635824D01*
X185971747Y-69638264D01*
X185974000Y-69641010D01*
X185975894Y-69644018D01*
X185977888Y-69645747D01*
X185984183Y-69653418D01*
X186079421Y-69748656D01*
X186094575Y-69761092D01*
X186101443Y-69763937D01*
X186107418Y-69768364D01*
X186125878Y-69774959D01*
X186316354Y-69822578D01*
X186319735Y-69823078D01*
X186321099Y-69823643D01*
X186328449Y-69824366D01*
X186335747Y-69825446D01*
X186337205Y-69825228D01*
X186340608Y-69825564D01*
X186673941Y-69825564D01*
X186677343Y-69825228D01*
X186678802Y-69825446D01*
X186686099Y-69824366D01*
X186693450Y-69823643D01*
X186694813Y-69823078D01*
X186698195Y-69822578D01*
X186888670Y-69774959D01*
X186907131Y-69768364D01*
X186913103Y-69763938D01*
X186919974Y-69761093D01*
X186935127Y-69748656D01*
X187030367Y-69653418D01*
X187036660Y-69645749D01*
X187038656Y-69644019D01*
X187040549Y-69641011D01*
X187042803Y-69638265D01*
X187043813Y-69635824D01*
X187049099Y-69627428D01*
X187096718Y-69532191D01*
X187103724Y-69513882D01*
X187103978Y-69510298D01*
X187105354Y-69506978D01*
X187107275Y-69487469D01*
X187107275Y-69296993D01*
X187105354Y-69277484D01*
X187103978Y-69274163D01*
X187103724Y-69270580D01*
X187096718Y-69252271D01*
X187049099Y-69157034D01*
X187043813Y-69148637D01*
X187042803Y-69146197D01*
X187040549Y-69143450D01*
X187038656Y-69140443D01*
X187036660Y-69138712D01*
X187030367Y-69131044D01*
X186935127Y-69035806D01*
X186919974Y-69023369D01*
X186913103Y-69020523D01*
X186907131Y-69016098D01*
X186888670Y-69009503D01*
X186698195Y-68961884D01*
X186694813Y-68961383D01*
X186693450Y-68960819D01*
X186686099Y-68960095D01*
X186678802Y-68959016D01*
X186677343Y-68959233D01*
X186673941Y-68958898D01*
X186340608Y-68958898D01*
X186337205Y-68959233D01*
X186335747Y-68959016D01*
X186328449Y-68960095D01*
X186321099Y-68960819D01*
X186319735Y-68961383D01*
X186316354Y-68961884D01*
X186125878Y-69009503D01*
X186107418Y-69016098D01*
X186101443Y-69020524D01*
X186094575Y-69023370D01*
X186079421Y-69035806D01*
X185984183Y-69131044D01*
X185977888Y-69138714D01*
X185975894Y-69140444D01*
X185974000Y-69143451D01*
X185971747Y-69146198D01*
X185970736Y-69148637D01*
X185965451Y-69157034D01*
X185917832Y-69252272D01*
X185910826Y-69270580D01*
X185910571Y-69274163D01*
X185909196Y-69277484D01*
X185907275Y-69296993D01*
X185749330Y-69296993D01*
X185749330Y-68249374D01*
X185907275Y-68249374D01*
X185907275Y-68630326D01*
X185909196Y-68649835D01*
X185924128Y-68685883D01*
X185951718Y-68713473D01*
X185987766Y-68728405D01*
X186007275Y-68730326D01*
X187007275Y-68730326D01*
X187026784Y-68728405D01*
X187062832Y-68713473D01*
X187090422Y-68685883D01*
X187105354Y-68649835D01*
X187105354Y-68610817D01*
X187090422Y-68574769D01*
X187062832Y-68547179D01*
X187026784Y-68532247D01*
X187007275Y-68530326D01*
X186631084Y-68530326D01*
X186631084Y-68444296D01*
X187064621Y-68140821D01*
X187079502Y-68128060D01*
X187100471Y-68095155D01*
X187107252Y-68056730D01*
X187098812Y-68018636D01*
X187076437Y-67986671D01*
X187043532Y-67965702D01*
X187005108Y-67958921D01*
X186967013Y-67967361D01*
X186949929Y-67976975D01*
X186621403Y-68206942D01*
X186620527Y-68204652D01*
X186572908Y-68109415D01*
X186567622Y-68101018D01*
X186566612Y-68098578D01*
X186564358Y-68095832D01*
X186562465Y-68092824D01*
X186560467Y-68091091D01*
X186554175Y-68083425D01*
X186506557Y-68035806D01*
X186498886Y-68029511D01*
X186497157Y-68027517D01*
X186494149Y-68025623D01*
X186491403Y-68023370D01*
X186488963Y-68022359D01*
X186480567Y-68017074D01*
X186385329Y-67969455D01*
X186367021Y-67962449D01*
X186363437Y-67962194D01*
X186360117Y-67960819D01*
X186340608Y-67958898D01*
X186197751Y-67958898D01*
X186178242Y-67960819D01*
X186174921Y-67962194D01*
X186171338Y-67962449D01*
X186153029Y-67969455D01*
X186057792Y-68017074D01*
X186049395Y-68022359D01*
X186046955Y-68023370D01*
X186044209Y-68025623D01*
X186041201Y-68027517D01*
X186039468Y-68029514D01*
X186031802Y-68035807D01*
X185984183Y-68083425D01*
X185977888Y-68091095D01*
X185975894Y-68092825D01*
X185974000Y-68095832D01*
X185971747Y-68098579D01*
X185970736Y-68101018D01*
X185965451Y-68109415D01*
X185917832Y-68204653D01*
X185910826Y-68222961D01*
X185910571Y-68226544D01*
X185909196Y-68229865D01*
X185907275Y-68249374D01*
X185749330Y-68249374D01*
X185749330Y-66665438D01*
X185860441Y-66665438D01*
X185863207Y-66704358D01*
X185880657Y-66739257D01*
X185910133Y-66764822D01*
X185928033Y-66772813D01*
X186642318Y-67010908D01*
X186651990Y-67013107D01*
X186654432Y-67014119D01*
X186656438Y-67014119D01*
X186661433Y-67015255D01*
X186677417Y-67014119D01*
X186693450Y-67014119D01*
X186696770Y-67012743D01*
X186700353Y-67012489D01*
X186714683Y-67005323D01*
X186729498Y-66999187D01*
X186732039Y-66996645D01*
X186735252Y-66995039D01*
X186745749Y-66982935D01*
X186757088Y-66971597D01*
X186758463Y-66968276D01*
X186760817Y-66965563D01*
X186765884Y-66950361D01*
X186772020Y-66935549D01*
X186772522Y-66930448D01*
X186773156Y-66928547D01*
X186772968Y-66925913D01*
X186773941Y-66916040D01*
X186773941Y-66539850D01*
X187007275Y-66539850D01*
X187026784Y-66537929D01*
X187062832Y-66522997D01*
X187090422Y-66495407D01*
X187105354Y-66459359D01*
X187105354Y-66420341D01*
X187090422Y-66384293D01*
X187062832Y-66356703D01*
X187026784Y-66341771D01*
X187007275Y-66339850D01*
X186773941Y-66339850D01*
X186773941Y-66296993D01*
X186772020Y-66277484D01*
X186757088Y-66241436D01*
X186729498Y-66213846D01*
X186693450Y-66198914D01*
X186654432Y-66198914D01*
X186618384Y-66213846D01*
X186590794Y-66241436D01*
X186575862Y-66277484D01*
X186573941Y-66296993D01*
X186573941Y-66339850D01*
X186340608Y-66339850D01*
X186321099Y-66341771D01*
X186285051Y-66356703D01*
X186257461Y-66384293D01*
X186242529Y-66420341D01*
X186242529Y-66459359D01*
X186257461Y-66495407D01*
X186285051Y-66522997D01*
X186321099Y-66537929D01*
X186340608Y-66539850D01*
X186573941Y-66539850D01*
X186573941Y-66777297D01*
X185991279Y-66583077D01*
X185972163Y-66578730D01*
X185933243Y-66581496D01*
X185898344Y-66598946D01*
X185872779Y-66628422D01*
X185860441Y-66665438D01*
X185749330Y-66665438D01*
X185749330Y-66087803D01*
X187218386Y-66087803D01*
X187218386Y-72841437D01*
G37*
D11*
X184911653Y-57033358D02*
X184911653Y-57795263D01*
X184530700Y-57414310D02*
X185292605Y-57414310D01*
X184911653Y-60557168D02*
X184911653Y-61319073D01*
D10*
G36*
X164067884Y-77952240D02*
G01*
X164134957Y-78019313D01*
X164170409Y-78090218D01*
X164212380Y-78258099D01*
X164212380Y-78376337D01*
X164170409Y-78544218D01*
X164134956Y-78615124D01*
X164067885Y-78682197D01*
X163962820Y-78717219D01*
X163840952Y-78717219D01*
X163840952Y-77917219D01*
X163962820Y-77917219D01*
X164067884Y-77952240D01*
G37*
G36*
X166972647Y-76818486D02*
G01*
X166992099Y-76837938D01*
X167021904Y-76897548D01*
X167021904Y-76993191D01*
X166992099Y-77052799D01*
X166967430Y-77077469D01*
X166907821Y-77107275D01*
X166650476Y-77107275D01*
X166650476Y-76783465D01*
X166867582Y-76783465D01*
X166972647Y-76818486D01*
G37*
G36*
X166919811Y-76337080D02*
G01*
X166944480Y-76361748D01*
X166974285Y-76421358D01*
X166974285Y-76469382D01*
X166944480Y-76528991D01*
X166919811Y-76553659D01*
X166860202Y-76583465D01*
X166650476Y-76583465D01*
X166650476Y-76307275D01*
X166860202Y-76307275D01*
X166919811Y-76337080D01*
G37*
G36*
X168639313Y-76342296D02*
G01*
X168706386Y-76409369D01*
X168741838Y-76480274D01*
X168783809Y-76648155D01*
X168783809Y-76766393D01*
X168741838Y-76934274D01*
X168706385Y-77005180D01*
X168639314Y-77072253D01*
X168534249Y-77107275D01*
X168412381Y-77107275D01*
X168412381Y-76307275D01*
X168534249Y-76307275D01*
X168639313Y-76342296D01*
G37*
G36*
X170253145Y-76670413D02*
G01*
X170277814Y-76695081D01*
X170307619Y-76754691D01*
X170307619Y-76993191D01*
X170277814Y-77052799D01*
X170253145Y-77077469D01*
X170193536Y-77107275D01*
X170097893Y-77107275D01*
X170038283Y-77077470D01*
X170013616Y-77052802D01*
X169983810Y-76993190D01*
X169983810Y-76754691D01*
X170013615Y-76695081D01*
X170038283Y-76670412D01*
X170097893Y-76640608D01*
X170193536Y-76640608D01*
X170253145Y-76670413D01*
G37*
G36*
X172069524Y-77097852D02*
G01*
X172050679Y-77107275D01*
X171859798Y-77107275D01*
X171815488Y-77085120D01*
X171793334Y-77040810D01*
X171793334Y-76992786D01*
X171815489Y-76948476D01*
X171859798Y-76926322D01*
X172069524Y-76926322D01*
X172069524Y-77097852D01*
G37*
G36*
X164967430Y-76337080D02*
G01*
X164992099Y-76361748D01*
X165021904Y-76421358D01*
X165021904Y-76517001D01*
X164992099Y-76576610D01*
X164967430Y-76601278D01*
X164907821Y-76631084D01*
X164650476Y-76631084D01*
X164650476Y-76307275D01*
X164907821Y-76307275D01*
X164967430Y-76337080D01*
G37*
G36*
X173235856Y-79028330D02*
G01*
X163529841Y-79028330D01*
X163529841Y-77817219D01*
X163640952Y-77817219D01*
X163640952Y-78817219D01*
X163642873Y-78836728D01*
X163657805Y-78872776D01*
X163685395Y-78900366D01*
X163721443Y-78915298D01*
X163740952Y-78917219D01*
X163979047Y-78917219D01*
X163988920Y-78916246D01*
X163991554Y-78916434D01*
X163995017Y-78915646D01*
X163998556Y-78915298D01*
X164000998Y-78914286D01*
X164010670Y-78912087D01*
X164153526Y-78864468D01*
X164171427Y-78856477D01*
X164174142Y-78854122D01*
X164177462Y-78852747D01*
X164192615Y-78840310D01*
X164287853Y-78745071D01*
X164294145Y-78737404D01*
X164296142Y-78735673D01*
X164298035Y-78732665D01*
X164300290Y-78729918D01*
X164301301Y-78727476D01*
X164306585Y-78719082D01*
X164354204Y-78623845D01*
X164354750Y-78622416D01*
X164355180Y-78621837D01*
X164358101Y-78613660D01*
X164361210Y-78605536D01*
X164361261Y-78604815D01*
X164361775Y-78603377D01*
X164409394Y-78412901D01*
X164409894Y-78409519D01*
X164410459Y-78408156D01*
X164411182Y-78400805D01*
X164412262Y-78393508D01*
X164412044Y-78392049D01*
X164412380Y-78388647D01*
X164412380Y-78245790D01*
X164412044Y-78242387D01*
X164412262Y-78240929D01*
X164411182Y-78233631D01*
X164410459Y-78226281D01*
X164409894Y-78224917D01*
X164409394Y-78221536D01*
X164391648Y-78150552D01*
X164640952Y-78150552D01*
X164640952Y-78674361D01*
X164642873Y-78693870D01*
X164644248Y-78697190D01*
X164644503Y-78700773D01*
X164651509Y-78719082D01*
X164699128Y-78814321D01*
X164701181Y-78817584D01*
X164701695Y-78819123D01*
X164703357Y-78821039D01*
X164709571Y-78830911D01*
X164719042Y-78839125D01*
X164727259Y-78848600D01*
X164737129Y-78854812D01*
X164739047Y-78856476D01*
X164740587Y-78856989D01*
X164743850Y-78859043D01*
X164839087Y-78906662D01*
X164857396Y-78913668D01*
X164860979Y-78913922D01*
X164864300Y-78915298D01*
X164883809Y-78917219D01*
X165026666Y-78917219D01*
X165046175Y-78915298D01*
X165049495Y-78913922D01*
X165053079Y-78913668D01*
X165071387Y-78906662D01*
X165103970Y-78890370D01*
X165113966Y-78900366D01*
X165150014Y-78915298D01*
X165189032Y-78915298D01*
X165225080Y-78900366D01*
X165252670Y-78872776D01*
X165267602Y-78836728D01*
X165269523Y-78817219D01*
X165269523Y-78150552D01*
X165545714Y-78150552D01*
X165545714Y-78817219D01*
X165547635Y-78836728D01*
X165562567Y-78872776D01*
X165590157Y-78900366D01*
X165626205Y-78915298D01*
X165665223Y-78915298D01*
X165701271Y-78900366D01*
X165728861Y-78872776D01*
X165743793Y-78836728D01*
X165745714Y-78817219D01*
X165745714Y-78287211D01*
X165752568Y-78280356D01*
X165812178Y-78250552D01*
X165907821Y-78250552D01*
X165952130Y-78272707D01*
X165974285Y-78317016D01*
X165974285Y-78817219D01*
X165976206Y-78836728D01*
X165991138Y-78872776D01*
X166018728Y-78900366D01*
X166054776Y-78915298D01*
X166093794Y-78915298D01*
X166129842Y-78900366D01*
X166157432Y-78872776D01*
X166172364Y-78836728D01*
X166174285Y-78817219D01*
X166174285Y-78317016D01*
X166196440Y-78272706D01*
X166240749Y-78250552D01*
X166336392Y-78250552D01*
X166380702Y-78272706D01*
X166402857Y-78317016D01*
X166402857Y-78817219D01*
X166404778Y-78836728D01*
X166419710Y-78872776D01*
X166447300Y-78900366D01*
X166483348Y-78915298D01*
X166522366Y-78915298D01*
X166558414Y-78900366D01*
X166586004Y-78872776D01*
X166600936Y-78836728D01*
X166602857Y-78817219D01*
X166602857Y-78293409D01*
X166600936Y-78273900D01*
X166599560Y-78270579D01*
X166599306Y-78266996D01*
X166592300Y-78248687D01*
X166544681Y-78153450D01*
X166542857Y-78150552D01*
X166879047Y-78150552D01*
X166879047Y-78817219D01*
X166880968Y-78836728D01*
X166895900Y-78872776D01*
X166923490Y-78900366D01*
X166959538Y-78915298D01*
X166998556Y-78915298D01*
X167034604Y-78900366D01*
X167062194Y-78872776D01*
X167077126Y-78836728D01*
X167079047Y-78817219D01*
X167079047Y-78150552D01*
X167077126Y-78131043D01*
X167214301Y-78131043D01*
X167214301Y-78170061D01*
X167229233Y-78206109D01*
X167256823Y-78233699D01*
X167292871Y-78248631D01*
X167312380Y-78250552D01*
X167355237Y-78250552D01*
X167355237Y-78674361D01*
X167357158Y-78693870D01*
X167358533Y-78697190D01*
X167358788Y-78700773D01*
X167365794Y-78719082D01*
X167413413Y-78814321D01*
X167415466Y-78817584D01*
X167415980Y-78819123D01*
X167417642Y-78821039D01*
X167423856Y-78830911D01*
X167433327Y-78839125D01*
X167441544Y-78848600D01*
X167451414Y-78854812D01*
X167453332Y-78856476D01*
X167454872Y-78856989D01*
X167458135Y-78859043D01*
X167553372Y-78906662D01*
X167571681Y-78913668D01*
X167575264Y-78913922D01*
X167578585Y-78915298D01*
X167598094Y-78917219D01*
X167693332Y-78917219D01*
X167712841Y-78915298D01*
X167748889Y-78900366D01*
X167776479Y-78872776D01*
X167791411Y-78836728D01*
X167791411Y-78797710D01*
X167776479Y-78761662D01*
X167748889Y-78734072D01*
X167712841Y-78719140D01*
X167693332Y-78717219D01*
X167621701Y-78717219D01*
X167577391Y-78695064D01*
X167555237Y-78650754D01*
X167555237Y-78250552D01*
X167693332Y-78250552D01*
X167712841Y-78248631D01*
X167748889Y-78233699D01*
X167776479Y-78206109D01*
X167791411Y-78170061D01*
X167791411Y-78150552D01*
X167926666Y-78150552D01*
X167926666Y-78817219D01*
X167928587Y-78836728D01*
X167943519Y-78872776D01*
X167971109Y-78900366D01*
X168007157Y-78915298D01*
X168046175Y-78915298D01*
X168082223Y-78900366D01*
X168109813Y-78872776D01*
X168124745Y-78836728D01*
X168126666Y-78817219D01*
X168126666Y-78364635D01*
X168156471Y-78305025D01*
X168181139Y-78280356D01*
X168240749Y-78250552D01*
X168312380Y-78250552D01*
X168331889Y-78248631D01*
X168367937Y-78233699D01*
X168395527Y-78206109D01*
X168410459Y-78170061D01*
X168410459Y-78150552D01*
X168545714Y-78150552D01*
X168545714Y-78674361D01*
X168547635Y-78693870D01*
X168549010Y-78697190D01*
X168549265Y-78700773D01*
X168556271Y-78719082D01*
X168603890Y-78814321D01*
X168605943Y-78817584D01*
X168606457Y-78819123D01*
X168608119Y-78821039D01*
X168614333Y-78830911D01*
X168623804Y-78839125D01*
X168632021Y-78848600D01*
X168641891Y-78854812D01*
X168643809Y-78856476D01*
X168645349Y-78856989D01*
X168648612Y-78859043D01*
X168743849Y-78906662D01*
X168762158Y-78913668D01*
X168765741Y-78913922D01*
X168769062Y-78915298D01*
X168788571Y-78917219D01*
X168931428Y-78917219D01*
X168950937Y-78915298D01*
X168954257Y-78913922D01*
X168957841Y-78913668D01*
X168976149Y-78906662D01*
X169008732Y-78890370D01*
X169018728Y-78900366D01*
X169054776Y-78915298D01*
X169093794Y-78915298D01*
X169129842Y-78900366D01*
X169157432Y-78872776D01*
X169172364Y-78836728D01*
X169174285Y-78817219D01*
X169174285Y-78165167D01*
X170118216Y-78165167D01*
X170122969Y-78184186D01*
X170361064Y-78850852D01*
X170369434Y-78868579D01*
X170372804Y-78872301D01*
X170374952Y-78876836D01*
X170385803Y-78886659D01*
X170395621Y-78897504D01*
X170400153Y-78899651D01*
X170403878Y-78903023D01*
X170417668Y-78907947D01*
X170430883Y-78914208D01*
X170435893Y-78914457D01*
X170440623Y-78916146D01*
X170455244Y-78915418D01*
X170469853Y-78916145D01*
X170474578Y-78914457D01*
X170479593Y-78914208D01*
X170492819Y-78907942D01*
X170506598Y-78903022D01*
X170510318Y-78899653D01*
X170514855Y-78897505D01*
X170524677Y-78886654D01*
X170535524Y-78876836D01*
X170537671Y-78872301D01*
X170541042Y-78868579D01*
X170549412Y-78850853D01*
X170787507Y-78184186D01*
X170792260Y-78165167D01*
X170790322Y-78126197D01*
X170773619Y-78090935D01*
X170773057Y-78090426D01*
X170927452Y-78090426D01*
X170930218Y-78129346D01*
X170947667Y-78164245D01*
X170977144Y-78189809D01*
X171014160Y-78202148D01*
X171053080Y-78199382D01*
X171071388Y-78192376D01*
X171166626Y-78144757D01*
X171175022Y-78139471D01*
X171177462Y-78138461D01*
X171180208Y-78136207D01*
X171183216Y-78134314D01*
X171184945Y-78132319D01*
X171192616Y-78126025D01*
X171212381Y-78106260D01*
X171212381Y-78717219D01*
X171026667Y-78717219D01*
X171007158Y-78719140D01*
X170971110Y-78734072D01*
X170943520Y-78761662D01*
X170928588Y-78797710D01*
X170928588Y-78836728D01*
X170943520Y-78872776D01*
X170971110Y-78900366D01*
X171007158Y-78915298D01*
X171026667Y-78917219D01*
X171598095Y-78917219D01*
X171617604Y-78915298D01*
X171653652Y-78900366D01*
X171681242Y-78872776D01*
X171696174Y-78836728D01*
X171696174Y-78797710D01*
X171681242Y-78761662D01*
X171669671Y-78750091D01*
X171880969Y-78750091D01*
X171880969Y-78789109D01*
X171883829Y-78796013D01*
X171895901Y-78825158D01*
X171895905Y-78825162D01*
X171908337Y-78840311D01*
X171955956Y-78887929D01*
X171971109Y-78900366D01*
X171977522Y-78903022D01*
X172007158Y-78915298D01*
X172046176Y-78915298D01*
X172082224Y-78900366D01*
X172097378Y-78887930D01*
X172144996Y-78840311D01*
X172157433Y-78825158D01*
X172161922Y-78814321D01*
X172172364Y-78789110D01*
X172172365Y-78750092D01*
X172157434Y-78714043D01*
X172144997Y-78698890D01*
X172097378Y-78651270D01*
X172082225Y-78638833D01*
X172060031Y-78629640D01*
X172046176Y-78623901D01*
X172007158Y-78623901D01*
X171996600Y-78628274D01*
X171971110Y-78638832D01*
X171971109Y-78638833D01*
X171955955Y-78651270D01*
X171908337Y-78698890D01*
X171895900Y-78714043D01*
X171887604Y-78734072D01*
X171880969Y-78750091D01*
X171669671Y-78750091D01*
X171653652Y-78734072D01*
X171617604Y-78719140D01*
X171598095Y-78717219D01*
X171412381Y-78717219D01*
X171412381Y-78090426D01*
X172356023Y-78090426D01*
X172358789Y-78129346D01*
X172376238Y-78164245D01*
X172405715Y-78189809D01*
X172442731Y-78202148D01*
X172481651Y-78199382D01*
X172499959Y-78192376D01*
X172595197Y-78144757D01*
X172603593Y-78139471D01*
X172606033Y-78138461D01*
X172608779Y-78136207D01*
X172611787Y-78134314D01*
X172613516Y-78132319D01*
X172621187Y-78126025D01*
X172640952Y-78106260D01*
X172640952Y-78717219D01*
X172455238Y-78717219D01*
X172435729Y-78719140D01*
X172399681Y-78734072D01*
X172372091Y-78761662D01*
X172357159Y-78797710D01*
X172357159Y-78836728D01*
X172372091Y-78872776D01*
X172399681Y-78900366D01*
X172435729Y-78915298D01*
X172455238Y-78917219D01*
X173026666Y-78917219D01*
X173046175Y-78915298D01*
X173082223Y-78900366D01*
X173109813Y-78872776D01*
X173124745Y-78836728D01*
X173124745Y-78797710D01*
X173109813Y-78761662D01*
X173082223Y-78734072D01*
X173046175Y-78719140D01*
X173026666Y-78717219D01*
X172840952Y-78717219D01*
X172840952Y-77817219D01*
X172840945Y-77817148D01*
X172840952Y-77817114D01*
X172840931Y-77817012D01*
X172839031Y-77797710D01*
X172835241Y-77788561D01*
X172833300Y-77778854D01*
X172827848Y-77770713D01*
X172824099Y-77761662D01*
X172817099Y-77754662D01*
X172811589Y-77746434D01*
X172803434Y-77740997D01*
X172796509Y-77734072D01*
X172787365Y-77730284D01*
X172779124Y-77724790D01*
X172769510Y-77722888D01*
X172760461Y-77719140D01*
X172750560Y-77719140D01*
X172740848Y-77717219D01*
X172731243Y-77719140D01*
X172721443Y-77719140D01*
X172712294Y-77722929D01*
X172702587Y-77724871D01*
X172694446Y-77730322D01*
X172685395Y-77734072D01*
X172678395Y-77741071D01*
X172670167Y-77746582D01*
X172657878Y-77761588D01*
X172657805Y-77761662D01*
X172657791Y-77761694D01*
X172657747Y-77761749D01*
X172568003Y-77896365D01*
X172491239Y-77973128D01*
X172410517Y-78013490D01*
X172393926Y-78023933D01*
X172368362Y-78053410D01*
X172356023Y-78090426D01*
X171412381Y-78090426D01*
X171412381Y-77817219D01*
X171412374Y-77817148D01*
X171412381Y-77817114D01*
X171412360Y-77817012D01*
X171410460Y-77797710D01*
X171406670Y-77788561D01*
X171404729Y-77778854D01*
X171399277Y-77770713D01*
X171395528Y-77761662D01*
X171388528Y-77754662D01*
X171383018Y-77746434D01*
X171374863Y-77740997D01*
X171367938Y-77734072D01*
X171358794Y-77730284D01*
X171350553Y-77724790D01*
X171340939Y-77722888D01*
X171331890Y-77719140D01*
X171321989Y-77719140D01*
X171312277Y-77717219D01*
X171302672Y-77719140D01*
X171292872Y-77719140D01*
X171283723Y-77722929D01*
X171274016Y-77724871D01*
X171265875Y-77730322D01*
X171256824Y-77734072D01*
X171249824Y-77741071D01*
X171241596Y-77746582D01*
X171229307Y-77761588D01*
X171229234Y-77761662D01*
X171229220Y-77761694D01*
X171229176Y-77761749D01*
X171139432Y-77896365D01*
X171062668Y-77973128D01*
X170981946Y-78013490D01*
X170965355Y-78023933D01*
X170939791Y-78053410D01*
X170927452Y-78090426D01*
X170773057Y-78090426D01*
X170744693Y-78064749D01*
X170707948Y-78051626D01*
X170668978Y-78053563D01*
X170633716Y-78070267D01*
X170607529Y-78099192D01*
X170599159Y-78116919D01*
X170455238Y-78519897D01*
X170311317Y-78116918D01*
X170302947Y-78099192D01*
X170276760Y-78070266D01*
X170241498Y-78053563D01*
X170202528Y-78051625D01*
X170165783Y-78064748D01*
X170136857Y-78090935D01*
X170120154Y-78126197D01*
X170118216Y-78165167D01*
X169174285Y-78165167D01*
X169174285Y-78150552D01*
X169172364Y-78131043D01*
X169157432Y-78094995D01*
X169129842Y-78067405D01*
X169093794Y-78052473D01*
X169054776Y-78052473D01*
X169018728Y-78067405D01*
X168991138Y-78094995D01*
X168976206Y-78131043D01*
X168974285Y-78150552D01*
X168974285Y-78680559D01*
X168967430Y-78687413D01*
X168907821Y-78717219D01*
X168812178Y-78717219D01*
X168767868Y-78695064D01*
X168745714Y-78650754D01*
X168745714Y-78150552D01*
X168743793Y-78131043D01*
X168728861Y-78094995D01*
X168701271Y-78067405D01*
X168665223Y-78052473D01*
X168626205Y-78052473D01*
X168590157Y-78067405D01*
X168562567Y-78094995D01*
X168547635Y-78131043D01*
X168545714Y-78150552D01*
X168410459Y-78150552D01*
X168410459Y-78131043D01*
X168395527Y-78094995D01*
X168367937Y-78067405D01*
X168331889Y-78052473D01*
X168312380Y-78050552D01*
X168217142Y-78050552D01*
X168197633Y-78052473D01*
X168194312Y-78053848D01*
X168190729Y-78054103D01*
X168172420Y-78061109D01*
X168108091Y-78093273D01*
X168082223Y-78067405D01*
X168046175Y-78052473D01*
X168007157Y-78052473D01*
X167971109Y-78067405D01*
X167943519Y-78094995D01*
X167928587Y-78131043D01*
X167926666Y-78150552D01*
X167791411Y-78150552D01*
X167791411Y-78131043D01*
X167776479Y-78094995D01*
X167748889Y-78067405D01*
X167712841Y-78052473D01*
X167693332Y-78050552D01*
X167555237Y-78050552D01*
X167555237Y-77817219D01*
X167553316Y-77797710D01*
X167538384Y-77761662D01*
X167510794Y-77734072D01*
X167474746Y-77719140D01*
X167435728Y-77719140D01*
X167399680Y-77734072D01*
X167372090Y-77761662D01*
X167357158Y-77797710D01*
X167355237Y-77817219D01*
X167355237Y-78050552D01*
X167312380Y-78050552D01*
X167292871Y-78052473D01*
X167256823Y-78067405D01*
X167229233Y-78094995D01*
X167214301Y-78131043D01*
X167077126Y-78131043D01*
X167062194Y-78094995D01*
X167034604Y-78067405D01*
X166998556Y-78052473D01*
X166959538Y-78052473D01*
X166923490Y-78067405D01*
X166895900Y-78094995D01*
X166880968Y-78131043D01*
X166879047Y-78150552D01*
X166542857Y-78150552D01*
X166542627Y-78150187D01*
X166542114Y-78148647D01*
X166540450Y-78146729D01*
X166534238Y-78136859D01*
X166524763Y-78128642D01*
X166516549Y-78119171D01*
X166506677Y-78112957D01*
X166504761Y-78111295D01*
X166503222Y-78110781D01*
X166499959Y-78108728D01*
X166404720Y-78061109D01*
X166386411Y-78054103D01*
X166382828Y-78053848D01*
X166379508Y-78052473D01*
X166359999Y-78050552D01*
X166217142Y-78050552D01*
X166197633Y-78052473D01*
X166194312Y-78053848D01*
X166190729Y-78054103D01*
X166172420Y-78061109D01*
X166077183Y-78108728D01*
X166074284Y-78110552D01*
X166071387Y-78108728D01*
X165976149Y-78061109D01*
X165957841Y-78054103D01*
X165954257Y-78053848D01*
X165950937Y-78052473D01*
X165931428Y-78050552D01*
X165788571Y-78050552D01*
X165769062Y-78052473D01*
X165765741Y-78053848D01*
X165762158Y-78054103D01*
X165743849Y-78061109D01*
X165711266Y-78077400D01*
X165701271Y-78067405D01*
X165665223Y-78052473D01*
X165626205Y-78052473D01*
X165590157Y-78067405D01*
X165562567Y-78094995D01*
X165547635Y-78131043D01*
X165545714Y-78150552D01*
X165269523Y-78150552D01*
X165267602Y-78131043D01*
X165252670Y-78094995D01*
X165225080Y-78067405D01*
X165189032Y-78052473D01*
X165150014Y-78052473D01*
X165113966Y-78067405D01*
X165086376Y-78094995D01*
X165071444Y-78131043D01*
X165069523Y-78150552D01*
X165069523Y-78680559D01*
X165062668Y-78687413D01*
X165003059Y-78717219D01*
X164907416Y-78717219D01*
X164863106Y-78695064D01*
X164840952Y-78650754D01*
X164840952Y-78150552D01*
X164839031Y-78131043D01*
X164824099Y-78094995D01*
X164796509Y-78067405D01*
X164760461Y-78052473D01*
X164721443Y-78052473D01*
X164685395Y-78067405D01*
X164657805Y-78094995D01*
X164642873Y-78131043D01*
X164640952Y-78150552D01*
X164391648Y-78150552D01*
X164361775Y-78031060D01*
X164361261Y-78029621D01*
X164361210Y-78028901D01*
X164358101Y-78020776D01*
X164355180Y-78012600D01*
X164354750Y-78012020D01*
X164354204Y-78010592D01*
X164306585Y-77915355D01*
X164301298Y-77906956D01*
X164300289Y-77904519D01*
X164298037Y-77901775D01*
X164296142Y-77898764D01*
X164294144Y-77897031D01*
X164287853Y-77889365D01*
X164243817Y-77845329D01*
X166833349Y-77845329D01*
X166833349Y-77884347D01*
X166848281Y-77920395D01*
X166860717Y-77935549D01*
X166908336Y-77983167D01*
X166923489Y-77995604D01*
X166930339Y-77998441D01*
X166959538Y-78010536D01*
X166998556Y-78010536D01*
X167034604Y-77995604D01*
X167049758Y-77983168D01*
X167097376Y-77935549D01*
X167109813Y-77920396D01*
X167124744Y-77884347D01*
X167124744Y-77845329D01*
X167121884Y-77838425D01*
X167109813Y-77809280D01*
X167097376Y-77794127D01*
X167049758Y-77746508D01*
X167034604Y-77734072D01*
X166998556Y-77719140D01*
X166959538Y-77719140D01*
X166934047Y-77729698D01*
X166923489Y-77734072D01*
X166908336Y-77746509D01*
X166860717Y-77794127D01*
X166848282Y-77809280D01*
X166848281Y-77809281D01*
X166833349Y-77845329D01*
X164243817Y-77845329D01*
X164192615Y-77794127D01*
X164177461Y-77781691D01*
X164174142Y-77780316D01*
X164171427Y-77777961D01*
X164153526Y-77769970D01*
X164010670Y-77722351D01*
X164000998Y-77720151D01*
X163998556Y-77719140D01*
X163995017Y-77718791D01*
X163991554Y-77718004D01*
X163988920Y-77718191D01*
X163979047Y-77717219D01*
X163740952Y-77717219D01*
X163721443Y-77719140D01*
X163685395Y-77734072D01*
X163657805Y-77761662D01*
X163642873Y-77797710D01*
X163640952Y-77817219D01*
X163529841Y-77817219D01*
X163529841Y-76207275D01*
X164450476Y-76207275D01*
X164450476Y-77207275D01*
X164452397Y-77226784D01*
X164467329Y-77262832D01*
X164494919Y-77290422D01*
X164530967Y-77305354D01*
X164569985Y-77305354D01*
X164606033Y-77290422D01*
X164633623Y-77262832D01*
X164648555Y-77226784D01*
X164650476Y-77207275D01*
X164650476Y-76831084D01*
X164931428Y-76831084D01*
X164950937Y-76829163D01*
X164954257Y-76827787D01*
X164957841Y-76827533D01*
X164976149Y-76820527D01*
X165071387Y-76772908D01*
X165079783Y-76767622D01*
X165082223Y-76766612D01*
X165084969Y-76764358D01*
X165087977Y-76762465D01*
X165089706Y-76760470D01*
X165097377Y-76754176D01*
X165144995Y-76706557D01*
X165151287Y-76698890D01*
X165153285Y-76697158D01*
X165155178Y-76694149D01*
X165157432Y-76691404D01*
X165158442Y-76688963D01*
X165163728Y-76680567D01*
X165186089Y-76635846D01*
X165402857Y-76635846D01*
X165402857Y-76778703D01*
X165403192Y-76782105D01*
X165402975Y-76783564D01*
X165404054Y-76790861D01*
X165404778Y-76798212D01*
X165405342Y-76799575D01*
X165405843Y-76802957D01*
X165453462Y-76993432D01*
X165453975Y-76994869D01*
X165454027Y-76995592D01*
X165457135Y-77003716D01*
X165460057Y-77011893D01*
X165460487Y-77012473D01*
X165461033Y-77013900D01*
X165508652Y-77109138D01*
X165513934Y-77117530D01*
X165514947Y-77119974D01*
X165517203Y-77122723D01*
X165519095Y-77125728D01*
X165521089Y-77127457D01*
X165527384Y-77135127D01*
X165622622Y-77230367D01*
X165637775Y-77242803D01*
X165641094Y-77244178D01*
X165643810Y-77246533D01*
X165661710Y-77254524D01*
X165804567Y-77302143D01*
X165814239Y-77304342D01*
X165816681Y-77305354D01*
X165820218Y-77305702D01*
X165823682Y-77306490D01*
X165826316Y-77306302D01*
X165836190Y-77307275D01*
X165931428Y-77307275D01*
X165941301Y-77306302D01*
X165943935Y-77306490D01*
X165947398Y-77305702D01*
X165950937Y-77305354D01*
X165953379Y-77304342D01*
X165963051Y-77302143D01*
X166105907Y-77254524D01*
X166123808Y-77246533D01*
X166126523Y-77244178D01*
X166129843Y-77242803D01*
X166144996Y-77230366D01*
X166192615Y-77182746D01*
X166205052Y-77167593D01*
X166219983Y-77131544D01*
X166219982Y-77092526D01*
X166205051Y-77056478D01*
X166177460Y-77028888D01*
X166141412Y-77013957D01*
X166102394Y-77013958D01*
X166066346Y-77028889D01*
X166051192Y-77041326D01*
X166020265Y-77072253D01*
X165915201Y-77107275D01*
X165852416Y-77107275D01*
X165747351Y-77072253D01*
X165680281Y-77005183D01*
X165644827Y-76934274D01*
X165602857Y-76766393D01*
X165602857Y-76648156D01*
X165644827Y-76480274D01*
X165680280Y-76409368D01*
X165747352Y-76342296D01*
X165852416Y-76307275D01*
X165915201Y-76307275D01*
X166020266Y-76342296D01*
X166051193Y-76373223D01*
X166066346Y-76385660D01*
X166102395Y-76400591D01*
X166141413Y-76400591D01*
X166177461Y-76385660D01*
X166205051Y-76358070D01*
X166219982Y-76322022D01*
X166219982Y-76283004D01*
X166205051Y-76246955D01*
X166192614Y-76231802D01*
X166168088Y-76207275D01*
X166450476Y-76207275D01*
X166450476Y-77207275D01*
X166452397Y-77226784D01*
X166467329Y-77262832D01*
X166494919Y-77290422D01*
X166530967Y-77305354D01*
X166550476Y-77307275D01*
X166931428Y-77307275D01*
X166950937Y-77305354D01*
X166954257Y-77303978D01*
X166957841Y-77303724D01*
X166976149Y-77296718D01*
X167071387Y-77249099D01*
X167079782Y-77243814D01*
X167082224Y-77242803D01*
X167084971Y-77240547D01*
X167087977Y-77238656D01*
X167089707Y-77236661D01*
X167097377Y-77230366D01*
X167144996Y-77182746D01*
X167151288Y-77175079D01*
X167153285Y-77173348D01*
X167155178Y-77170340D01*
X167157433Y-77167593D01*
X167158444Y-77165151D01*
X167163728Y-77156757D01*
X167211347Y-77061520D01*
X167218353Y-77043211D01*
X167218607Y-77039627D01*
X167219983Y-77036307D01*
X167221904Y-77016798D01*
X167221904Y-76873941D01*
X167219983Y-76854432D01*
X167218607Y-76851111D01*
X167218353Y-76847528D01*
X167211347Y-76829219D01*
X167163728Y-76733982D01*
X167158442Y-76725585D01*
X167157432Y-76723145D01*
X167155178Y-76720399D01*
X167153285Y-76717391D01*
X167151287Y-76715658D01*
X167144995Y-76707992D01*
X167097377Y-76660373D01*
X167096588Y-76659725D01*
X167097376Y-76658938D01*
X167103668Y-76651271D01*
X167105666Y-76649539D01*
X167107559Y-76646530D01*
X167109813Y-76643785D01*
X167110823Y-76641344D01*
X167116109Y-76632948D01*
X167163728Y-76537711D01*
X167170734Y-76519402D01*
X167170988Y-76515818D01*
X167172364Y-76512498D01*
X167174285Y-76492989D01*
X167174285Y-76397751D01*
X167172364Y-76378242D01*
X167170988Y-76374921D01*
X167170734Y-76371338D01*
X167163728Y-76353029D01*
X167116109Y-76257792D01*
X167110823Y-76249395D01*
X167109813Y-76246955D01*
X167107559Y-76244209D01*
X167105666Y-76241201D01*
X167103668Y-76239468D01*
X167097376Y-76231802D01*
X167072850Y-76207275D01*
X168212381Y-76207275D01*
X168212381Y-77207275D01*
X168214302Y-77226784D01*
X168229234Y-77262832D01*
X168256824Y-77290422D01*
X168292872Y-77305354D01*
X168312381Y-77307275D01*
X168550476Y-77307275D01*
X168560349Y-77306302D01*
X168562983Y-77306490D01*
X168566446Y-77305702D01*
X168569985Y-77305354D01*
X168572427Y-77304342D01*
X168582099Y-77302143D01*
X168724955Y-77254524D01*
X168742856Y-77246533D01*
X168745571Y-77244178D01*
X168748891Y-77242803D01*
X168764044Y-77230366D01*
X168859282Y-77135127D01*
X168865574Y-77127460D01*
X168867571Y-77125729D01*
X168869464Y-77122721D01*
X168871719Y-77119974D01*
X168872730Y-77117532D01*
X168878014Y-77109138D01*
X168925633Y-77013901D01*
X168926179Y-77012472D01*
X168926609Y-77011893D01*
X168929530Y-77003716D01*
X168932639Y-76995592D01*
X168932690Y-76994871D01*
X168933204Y-76993433D01*
X168980823Y-76802957D01*
X168981323Y-76799575D01*
X168981888Y-76798212D01*
X168982611Y-76790861D01*
X168983691Y-76783564D01*
X168983473Y-76782105D01*
X168983809Y-76778703D01*
X168983809Y-76635846D01*
X168983473Y-76632443D01*
X168983691Y-76630985D01*
X168982611Y-76623687D01*
X168981888Y-76616337D01*
X168981323Y-76614973D01*
X168980823Y-76611592D01*
X168963077Y-76540608D01*
X169212381Y-76540608D01*
X169212381Y-77207275D01*
X169214302Y-77226784D01*
X169229234Y-77262832D01*
X169256824Y-77290422D01*
X169292872Y-77305354D01*
X169331890Y-77305354D01*
X169367938Y-77290422D01*
X169395528Y-77262832D01*
X169410460Y-77226784D01*
X169412381Y-77207275D01*
X169412381Y-76754691D01*
X169424185Y-76731084D01*
X169783810Y-76731084D01*
X169783810Y-77016798D01*
X169785731Y-77036307D01*
X169787106Y-77039627D01*
X169787361Y-77043211D01*
X169794367Y-77061519D01*
X169841986Y-77156757D01*
X169847269Y-77165149D01*
X169848281Y-77167593D01*
X169850537Y-77170342D01*
X169852429Y-77173347D01*
X169854423Y-77175076D01*
X169860718Y-77182746D01*
X169908336Y-77230366D01*
X169916004Y-77236659D01*
X169917736Y-77238656D01*
X169920744Y-77240549D01*
X169923490Y-77242803D01*
X169925930Y-77243813D01*
X169934327Y-77249099D01*
X170029564Y-77296718D01*
X170047873Y-77303724D01*
X170051456Y-77303978D01*
X170054777Y-77305354D01*
X170074286Y-77307275D01*
X170217143Y-77307275D01*
X170236652Y-77305354D01*
X170239972Y-77303978D01*
X170243556Y-77303724D01*
X170261864Y-77296718D01*
X170357102Y-77249099D01*
X170365497Y-77243814D01*
X170367939Y-77242803D01*
X170370686Y-77240547D01*
X170373692Y-77238656D01*
X170375422Y-77236661D01*
X170383092Y-77230366D01*
X170430711Y-77182746D01*
X170437003Y-77175079D01*
X170439000Y-77173348D01*
X170440893Y-77170340D01*
X170443148Y-77167593D01*
X170444159Y-77165151D01*
X170449443Y-77156757D01*
X170497062Y-77061520D01*
X170504068Y-77043211D01*
X170504322Y-77039627D01*
X170505698Y-77036307D01*
X170507619Y-77016798D01*
X170507619Y-76731084D01*
X170505698Y-76711575D01*
X170504322Y-76708254D01*
X170504068Y-76704671D01*
X170497062Y-76686362D01*
X170449443Y-76591125D01*
X170444157Y-76582728D01*
X170443147Y-76580288D01*
X170440893Y-76577542D01*
X170439000Y-76574534D01*
X170437002Y-76572801D01*
X170430710Y-76565135D01*
X170406184Y-76540608D01*
X170736191Y-76540608D01*
X170736191Y-77207275D01*
X170738112Y-77226784D01*
X170753044Y-77262832D01*
X170780634Y-77290422D01*
X170816682Y-77305354D01*
X170855700Y-77305354D01*
X170891748Y-77290422D01*
X170919338Y-77262832D01*
X170934270Y-77226784D01*
X170936191Y-77207275D01*
X170936191Y-76677267D01*
X170943045Y-76670412D01*
X171002655Y-76640608D01*
X171098298Y-76640608D01*
X171142607Y-76662763D01*
X171164762Y-76707072D01*
X171164762Y-77207275D01*
X171166683Y-77226784D01*
X171181615Y-77262832D01*
X171209205Y-77290422D01*
X171245253Y-77305354D01*
X171284271Y-77305354D01*
X171320319Y-77290422D01*
X171347909Y-77262832D01*
X171362841Y-77226784D01*
X171364762Y-77207275D01*
X171364762Y-76969179D01*
X171593334Y-76969179D01*
X171593334Y-77064417D01*
X171595255Y-77083926D01*
X171596630Y-77087246D01*
X171596885Y-77090829D01*
X171603891Y-77109138D01*
X171651510Y-77204377D01*
X171653563Y-77207640D01*
X171654077Y-77209179D01*
X171655739Y-77211095D01*
X171661953Y-77220967D01*
X171671424Y-77229181D01*
X171679641Y-77238656D01*
X171689511Y-77244868D01*
X171691429Y-77246532D01*
X171692969Y-77247045D01*
X171696232Y-77249099D01*
X171791469Y-77296718D01*
X171809778Y-77303724D01*
X171813361Y-77303978D01*
X171816682Y-77305354D01*
X171836191Y-77307275D01*
X172074286Y-77307275D01*
X172093795Y-77305354D01*
X172097115Y-77303978D01*
X172100699Y-77303724D01*
X172119007Y-77296718D01*
X172123610Y-77294416D01*
X172150015Y-77305354D01*
X172189033Y-77305354D01*
X172225081Y-77290422D01*
X172252671Y-77262832D01*
X172267603Y-77226784D01*
X172269524Y-77207275D01*
X172269524Y-76683465D01*
X172267603Y-76663956D01*
X172266227Y-76660635D01*
X172265973Y-76657052D01*
X172258967Y-76638743D01*
X172211348Y-76543506D01*
X172209293Y-76540242D01*
X172208781Y-76538704D01*
X172207119Y-76536788D01*
X172200905Y-76526915D01*
X172191429Y-76518697D01*
X172183216Y-76509227D01*
X172173344Y-76503013D01*
X172171428Y-76501351D01*
X172169889Y-76500837D01*
X172166626Y-76498784D01*
X172071388Y-76451165D01*
X172053080Y-76444159D01*
X172049496Y-76443904D01*
X172046176Y-76442529D01*
X172026667Y-76440608D01*
X171836191Y-76440608D01*
X171816682Y-76442529D01*
X171813361Y-76443904D01*
X171809778Y-76444159D01*
X171791469Y-76451165D01*
X171696232Y-76498784D01*
X171679641Y-76509227D01*
X171654077Y-76538704D01*
X171641738Y-76575720D01*
X171644504Y-76614640D01*
X171661953Y-76649539D01*
X171691430Y-76675103D01*
X171728446Y-76687442D01*
X171767366Y-76684676D01*
X171785674Y-76677670D01*
X171859798Y-76640608D01*
X172003060Y-76640608D01*
X172047369Y-76662763D01*
X172069524Y-76707072D01*
X172069524Y-76716899D01*
X172050679Y-76726322D01*
X171836191Y-76726322D01*
X171816682Y-76728243D01*
X171813361Y-76729618D01*
X171809778Y-76729873D01*
X171791469Y-76736879D01*
X171696232Y-76784498D01*
X171692968Y-76786552D01*
X171691430Y-76787065D01*
X171689514Y-76788726D01*
X171679641Y-76794941D01*
X171671423Y-76804416D01*
X171661953Y-76812630D01*
X171655739Y-76822501D01*
X171654077Y-76824418D01*
X171653563Y-76825956D01*
X171651510Y-76829220D01*
X171603891Y-76924458D01*
X171596885Y-76942766D01*
X171596630Y-76946349D01*
X171595255Y-76949670D01*
X171593334Y-76969179D01*
X171364762Y-76969179D01*
X171364762Y-76683465D01*
X171362841Y-76663956D01*
X171361465Y-76660635D01*
X171361211Y-76657052D01*
X171354205Y-76638743D01*
X171306586Y-76543506D01*
X171304531Y-76540242D01*
X171304019Y-76538704D01*
X171302357Y-76536788D01*
X171296143Y-76526915D01*
X171286667Y-76518697D01*
X171278454Y-76509227D01*
X171268582Y-76503013D01*
X171266666Y-76501351D01*
X171265127Y-76500837D01*
X171261864Y-76498784D01*
X171166626Y-76451165D01*
X171148318Y-76444159D01*
X171144734Y-76443904D01*
X171141414Y-76442529D01*
X171121905Y-76440608D01*
X170979048Y-76440608D01*
X170959539Y-76442529D01*
X170956218Y-76443904D01*
X170952635Y-76444159D01*
X170934326Y-76451165D01*
X170901743Y-76467456D01*
X170891748Y-76457461D01*
X170855700Y-76442529D01*
X170816682Y-76442529D01*
X170780634Y-76457461D01*
X170753044Y-76485051D01*
X170738112Y-76521099D01*
X170736191Y-76540608D01*
X170406184Y-76540608D01*
X170383092Y-76517516D01*
X170375421Y-76511221D01*
X170373692Y-76509227D01*
X170370684Y-76507333D01*
X170367938Y-76505080D01*
X170365498Y-76504069D01*
X170357102Y-76498784D01*
X170261864Y-76451165D01*
X170243556Y-76444159D01*
X170239972Y-76443904D01*
X170236652Y-76442529D01*
X170217143Y-76440608D01*
X170074286Y-76440608D01*
X170054777Y-76442529D01*
X170051456Y-76443904D01*
X170047873Y-76444159D01*
X170029564Y-76451165D01*
X169934327Y-76498784D01*
X169925930Y-76504069D01*
X169923490Y-76505080D01*
X169920744Y-76507333D01*
X169917736Y-76509227D01*
X169916003Y-76511224D01*
X169908337Y-76517517D01*
X169860718Y-76565135D01*
X169854423Y-76572805D01*
X169852429Y-76574535D01*
X169850535Y-76577542D01*
X169848282Y-76580289D01*
X169847271Y-76582728D01*
X169841986Y-76591125D01*
X169794367Y-76686363D01*
X169787361Y-76704671D01*
X169787106Y-76708254D01*
X169785731Y-76711575D01*
X169783810Y-76731084D01*
X169424185Y-76731084D01*
X169442186Y-76695081D01*
X169466854Y-76670412D01*
X169526464Y-76640608D01*
X169598095Y-76640608D01*
X169617604Y-76638687D01*
X169653652Y-76623755D01*
X169681242Y-76596165D01*
X169696174Y-76560117D01*
X169696174Y-76521099D01*
X169681242Y-76485051D01*
X169653652Y-76457461D01*
X169617604Y-76442529D01*
X169598095Y-76440608D01*
X169502857Y-76440608D01*
X169483348Y-76442529D01*
X169480027Y-76443904D01*
X169476444Y-76444159D01*
X169458135Y-76451165D01*
X169393806Y-76483329D01*
X169367938Y-76457461D01*
X169331890Y-76442529D01*
X169292872Y-76442529D01*
X169256824Y-76457461D01*
X169229234Y-76485051D01*
X169214302Y-76521099D01*
X169212381Y-76540608D01*
X168963077Y-76540608D01*
X168933204Y-76421116D01*
X168932690Y-76419677D01*
X168932639Y-76418957D01*
X168929530Y-76410832D01*
X168926609Y-76402656D01*
X168926179Y-76402076D01*
X168925633Y-76400648D01*
X168878014Y-76305411D01*
X168872727Y-76297012D01*
X168871718Y-76294575D01*
X168869466Y-76291831D01*
X168867571Y-76288820D01*
X168865573Y-76287087D01*
X168859282Y-76279421D01*
X168764044Y-76184183D01*
X168748890Y-76171747D01*
X168745571Y-76170372D01*
X168742856Y-76168017D01*
X168724955Y-76160026D01*
X168582099Y-76112407D01*
X168572427Y-76110207D01*
X168569985Y-76109196D01*
X168566446Y-76108847D01*
X168562983Y-76108060D01*
X168560349Y-76108247D01*
X168550476Y-76107275D01*
X168312381Y-76107275D01*
X168292872Y-76109196D01*
X168256824Y-76124128D01*
X168229234Y-76151718D01*
X168214302Y-76187766D01*
X168212381Y-76207275D01*
X167072850Y-76207275D01*
X167049758Y-76184183D01*
X167042087Y-76177888D01*
X167040358Y-76175894D01*
X167037350Y-76174000D01*
X167034604Y-76171747D01*
X167032164Y-76170736D01*
X167023768Y-76165451D01*
X166928530Y-76117832D01*
X166910222Y-76110826D01*
X166906638Y-76110571D01*
X166903318Y-76109196D01*
X166883809Y-76107275D01*
X166550476Y-76107275D01*
X166530967Y-76109196D01*
X166494919Y-76124128D01*
X166467329Y-76151718D01*
X166452397Y-76187766D01*
X166450476Y-76207275D01*
X166168088Y-76207275D01*
X166144996Y-76184183D01*
X166129842Y-76171747D01*
X166126523Y-76170372D01*
X166123808Y-76168017D01*
X166105907Y-76160026D01*
X165963051Y-76112407D01*
X165953379Y-76110207D01*
X165950937Y-76109196D01*
X165947398Y-76108847D01*
X165943935Y-76108060D01*
X165941301Y-76108247D01*
X165931428Y-76107275D01*
X165836190Y-76107275D01*
X165826316Y-76108247D01*
X165823682Y-76108060D01*
X165820218Y-76108847D01*
X165816681Y-76109196D01*
X165814239Y-76110207D01*
X165804567Y-76112407D01*
X165661710Y-76160026D01*
X165643810Y-76168017D01*
X165641094Y-76170372D01*
X165637776Y-76171747D01*
X165622622Y-76184183D01*
X165527384Y-76279421D01*
X165521089Y-76287091D01*
X165519095Y-76288821D01*
X165517201Y-76291828D01*
X165514948Y-76294575D01*
X165513937Y-76297014D01*
X165508652Y-76305411D01*
X165461033Y-76400649D01*
X165460487Y-76402075D01*
X165460057Y-76402656D01*
X165457135Y-76410832D01*
X165454027Y-76418957D01*
X165453975Y-76419679D01*
X165453462Y-76421117D01*
X165405843Y-76611592D01*
X165405342Y-76614973D01*
X165404778Y-76616337D01*
X165404054Y-76623687D01*
X165402975Y-76630985D01*
X165403192Y-76632443D01*
X165402857Y-76635846D01*
X165186089Y-76635846D01*
X165211347Y-76585330D01*
X165218353Y-76567021D01*
X165218607Y-76563437D01*
X165219983Y-76560117D01*
X165221904Y-76540608D01*
X165221904Y-76397751D01*
X165219983Y-76378242D01*
X165218607Y-76374921D01*
X165218353Y-76371338D01*
X165211347Y-76353029D01*
X165163728Y-76257792D01*
X165158442Y-76249395D01*
X165157432Y-76246955D01*
X165155178Y-76244209D01*
X165153285Y-76241201D01*
X165151287Y-76239468D01*
X165144995Y-76231802D01*
X165097377Y-76184183D01*
X165089706Y-76177888D01*
X165087977Y-76175894D01*
X165084969Y-76174000D01*
X165082223Y-76171747D01*
X165079783Y-76170736D01*
X165071387Y-76165451D01*
X164976149Y-76117832D01*
X164957841Y-76110826D01*
X164954257Y-76110571D01*
X164950937Y-76109196D01*
X164931428Y-76107275D01*
X164550476Y-76107275D01*
X164530967Y-76109196D01*
X164494919Y-76124128D01*
X164467329Y-76151718D01*
X164452397Y-76187766D01*
X164450476Y-76207275D01*
X163529841Y-76207275D01*
X163529841Y-75996164D01*
X173235856Y-75996164D01*
X173235856Y-79028330D01*
G37*
G36*
X160106552Y-82512054D02*
G01*
X159808495Y-82611406D01*
X159808495Y-82412701D01*
X160106552Y-82512054D01*
G37*
G36*
X159846590Y-81638684D02*
G01*
X159811568Y-81743749D01*
X159792116Y-81763200D01*
X159732507Y-81793006D01*
X159636864Y-81793006D01*
X159577254Y-81763201D01*
X159552583Y-81738530D01*
X159522780Y-81678923D01*
X159522780Y-81421578D01*
X159846590Y-81421578D01*
X159846590Y-81638684D01*
G37*
G36*
X160322780Y-81631304D02*
G01*
X160292975Y-81690913D01*
X160268306Y-81715581D01*
X160208697Y-81745387D01*
X160160673Y-81745387D01*
X160101063Y-81715582D01*
X160076395Y-81690913D01*
X160046590Y-81631303D01*
X160046590Y-81421578D01*
X160322780Y-81421578D01*
X160322780Y-81631304D01*
G37*
G36*
X160633891Y-83816482D02*
G01*
X159211669Y-83816482D01*
X159211669Y-83302069D01*
X159324701Y-83302069D01*
X159324701Y-83341087D01*
X159339633Y-83377135D01*
X159367223Y-83404725D01*
X159403271Y-83419657D01*
X159422780Y-83421578D01*
X160322780Y-83421578D01*
X160322780Y-83607292D01*
X160324701Y-83626801D01*
X160339633Y-83662849D01*
X160367223Y-83690439D01*
X160403271Y-83705371D01*
X160442289Y-83705371D01*
X160478337Y-83690439D01*
X160505927Y-83662849D01*
X160520859Y-83626801D01*
X160522780Y-83607292D01*
X160522780Y-83035864D01*
X160520859Y-83016355D01*
X160505927Y-82980307D01*
X160478337Y-82952717D01*
X160442289Y-82937785D01*
X160403271Y-82937785D01*
X160367223Y-82952717D01*
X160339633Y-82980307D01*
X160324701Y-83016355D01*
X160322780Y-83035864D01*
X160322780Y-83221578D01*
X159422780Y-83221578D01*
X159403271Y-83223499D01*
X159367223Y-83238431D01*
X159339633Y-83266021D01*
X159324701Y-83302069D01*
X159211669Y-83302069D01*
X159211669Y-82166214D01*
X159323565Y-82166214D01*
X159326331Y-82205134D01*
X159343781Y-82240033D01*
X159373257Y-82265598D01*
X159391157Y-82273589D01*
X159608495Y-82346034D01*
X159608495Y-82678073D01*
X159391157Y-82750519D01*
X159373257Y-82758510D01*
X159343781Y-82784075D01*
X159326331Y-82818974D01*
X159323565Y-82857894D01*
X159335903Y-82894910D01*
X159361468Y-82924386D01*
X159396367Y-82941836D01*
X159435287Y-82944602D01*
X159454403Y-82940255D01*
X160454402Y-82606922D01*
X160472303Y-82598931D01*
X160477704Y-82594246D01*
X160484091Y-82591053D01*
X160492303Y-82581584D01*
X160501779Y-82573366D01*
X160504974Y-82566974D01*
X160509656Y-82561577D01*
X160513622Y-82549679D01*
X160519228Y-82538467D01*
X160519734Y-82531342D01*
X160521995Y-82524561D01*
X160521105Y-82512054D01*
X160521995Y-82499547D01*
X160519734Y-82492765D01*
X160519228Y-82485641D01*
X160513622Y-82474428D01*
X160509656Y-82462531D01*
X160504974Y-82457133D01*
X160501779Y-82450742D01*
X160492303Y-82442523D01*
X160484091Y-82433055D01*
X160477704Y-82429861D01*
X160472303Y-82425177D01*
X160454402Y-82417186D01*
X159454403Y-82083853D01*
X159435287Y-82079506D01*
X159396367Y-82082272D01*
X159361468Y-82099722D01*
X159335903Y-82129198D01*
X159323565Y-82166214D01*
X159211669Y-82166214D01*
X159211669Y-81321578D01*
X159322780Y-81321578D01*
X159322780Y-81702530D01*
X159324701Y-81722039D01*
X159326076Y-81725358D01*
X159326331Y-81728944D01*
X159333338Y-81747252D01*
X159380958Y-81842490D01*
X159386242Y-81850885D01*
X159387253Y-81853325D01*
X159389506Y-81856070D01*
X159391401Y-81859081D01*
X159393397Y-81860812D01*
X159399689Y-81868479D01*
X159447308Y-81916097D01*
X159454974Y-81922389D01*
X159456707Y-81924387D01*
X159459715Y-81926280D01*
X159462461Y-81928534D01*
X159464901Y-81929544D01*
X159473298Y-81934830D01*
X159568535Y-81982449D01*
X159586844Y-81989455D01*
X159590427Y-81989709D01*
X159593748Y-81991085D01*
X159613257Y-81993006D01*
X159756114Y-81993006D01*
X159775623Y-81991085D01*
X159778943Y-81989709D01*
X159782527Y-81989455D01*
X159800835Y-81982449D01*
X159896073Y-81934830D01*
X159904469Y-81929544D01*
X159906909Y-81928534D01*
X159909655Y-81926280D01*
X159912663Y-81924387D01*
X159914392Y-81922392D01*
X159922063Y-81916098D01*
X159969681Y-81868479D01*
X159970328Y-81867689D01*
X159971117Y-81868478D01*
X159978783Y-81874770D01*
X159980516Y-81876768D01*
X159983524Y-81878661D01*
X159986270Y-81880915D01*
X159988710Y-81881925D01*
X159997107Y-81887211D01*
X160092344Y-81934830D01*
X160110653Y-81941836D01*
X160114236Y-81942090D01*
X160117557Y-81943466D01*
X160137066Y-81945387D01*
X160232304Y-81945387D01*
X160251813Y-81943466D01*
X160255133Y-81942090D01*
X160258717Y-81941836D01*
X160277025Y-81934830D01*
X160372263Y-81887211D01*
X160380659Y-81881925D01*
X160383099Y-81880915D01*
X160385845Y-81878661D01*
X160388853Y-81876768D01*
X160390582Y-81874773D01*
X160398253Y-81868479D01*
X160445871Y-81820860D01*
X160452163Y-81813193D01*
X160454161Y-81811461D01*
X160456054Y-81808452D01*
X160458308Y-81805707D01*
X160459318Y-81803266D01*
X160464604Y-81794870D01*
X160512223Y-81699633D01*
X160519229Y-81681324D01*
X160519483Y-81677740D01*
X160520859Y-81674420D01*
X160522780Y-81654911D01*
X160522780Y-81321578D01*
X160520859Y-81302069D01*
X160505927Y-81266021D01*
X160478337Y-81238431D01*
X160442289Y-81223499D01*
X160422780Y-81221578D01*
X159422780Y-81221578D01*
X159403271Y-81223499D01*
X159367223Y-81238431D01*
X159339633Y-81266021D01*
X159324701Y-81302069D01*
X159322780Y-81321578D01*
X159211669Y-81321578D01*
X159211669Y-81110467D01*
X160633891Y-81110467D01*
X160633891Y-83816482D01*
G37*
G36*
X186693236Y-60436337D02*
G01*
X186757414Y-60500514D01*
X186787219Y-60560124D01*
X186787219Y-60703386D01*
X186757414Y-60762995D01*
X186693236Y-60827172D01*
X186541575Y-60865088D01*
X186232861Y-60865088D01*
X186081202Y-60827173D01*
X186017023Y-60762994D01*
X185987219Y-60703385D01*
X185987219Y-60560124D01*
X186017023Y-60500515D01*
X186081202Y-60436336D01*
X186232861Y-60398422D01*
X186541575Y-60398422D01*
X186693236Y-60436337D01*
G37*
G36*
X186693236Y-58626813D02*
G01*
X186757414Y-58690990D01*
X186787219Y-58750600D01*
X186787219Y-58893862D01*
X186757414Y-58953471D01*
X186693236Y-59017648D01*
X186541575Y-59055564D01*
X186232861Y-59055564D01*
X186081202Y-59017649D01*
X186017023Y-58953470D01*
X185987219Y-58893861D01*
X185987219Y-58750600D01*
X186017023Y-58690991D01*
X186081202Y-58626812D01*
X186232861Y-58588898D01*
X186541575Y-58588898D01*
X186693236Y-58626813D01*
G37*
G36*
X186256554Y-57618703D02*
G01*
X186281223Y-57643371D01*
X186311028Y-57702981D01*
X186311028Y-57960326D01*
X185987219Y-57960326D01*
X185987219Y-57702981D01*
X186017024Y-57643371D01*
X186041692Y-57618702D01*
X186101302Y-57588898D01*
X186196945Y-57588898D01*
X186256554Y-57618703D01*
G37*
G36*
X187098330Y-62271437D02*
G01*
X185676108Y-62271437D01*
X185676108Y-61408843D01*
X185788378Y-61408843D01*
X185789140Y-61410938D01*
X185789140Y-61413169D01*
X185795784Y-61429210D01*
X185801713Y-61445512D01*
X185803218Y-61447155D01*
X185804072Y-61449217D01*
X185816345Y-61461490D01*
X185828064Y-61474287D01*
X185830708Y-61475853D01*
X185831662Y-61476807D01*
X185833843Y-61477710D01*
X185844930Y-61484278D01*
X186365034Y-61726993D01*
X185844930Y-61969708D01*
X185833843Y-61976275D01*
X185831662Y-61977179D01*
X185830708Y-61978132D01*
X185828064Y-61979699D01*
X185816345Y-61992495D01*
X185804072Y-62004769D01*
X185803218Y-62006830D01*
X185801713Y-62008474D01*
X185795784Y-62024775D01*
X185789140Y-62040817D01*
X185789140Y-62043047D01*
X185788378Y-62045143D01*
X185789140Y-62062482D01*
X185789140Y-62079835D01*
X185789993Y-62081894D01*
X185790091Y-62084123D01*
X185797432Y-62099853D01*
X185804072Y-62115883D01*
X185805648Y-62117459D01*
X185806592Y-62119481D01*
X185819388Y-62131199D01*
X185831662Y-62143473D01*
X185833723Y-62144326D01*
X185835367Y-62145832D01*
X185851668Y-62151760D01*
X185867710Y-62158405D01*
X185870768Y-62158706D01*
X185872036Y-62159167D01*
X185874395Y-62159063D01*
X185887219Y-62160326D01*
X186887219Y-62160326D01*
X186906728Y-62158405D01*
X186942776Y-62143473D01*
X186970366Y-62115883D01*
X186985298Y-62079835D01*
X186985298Y-62040817D01*
X186970366Y-62004769D01*
X186942776Y-61977179D01*
X186906728Y-61962247D01*
X186887219Y-61960326D01*
X186337975Y-61960326D01*
X186643793Y-61817611D01*
X186650934Y-61813380D01*
X186653356Y-61812500D01*
X186655068Y-61810931D01*
X186660659Y-61807620D01*
X186670919Y-61796415D01*
X186682132Y-61786148D01*
X186684011Y-61782120D01*
X186687011Y-61778845D01*
X186692202Y-61764569D01*
X186698632Y-61750791D01*
X186698827Y-61746350D01*
X186700345Y-61742176D01*
X186699677Y-61726993D01*
X186700345Y-61711810D01*
X186698827Y-61707635D01*
X186698632Y-61703195D01*
X186692202Y-61689416D01*
X186687011Y-61675141D01*
X186684011Y-61671865D01*
X186682132Y-61667838D01*
X186670919Y-61657570D01*
X186660659Y-61646366D01*
X186655068Y-61643054D01*
X186653356Y-61641486D01*
X186650934Y-61640605D01*
X186643793Y-61636375D01*
X186337975Y-61493660D01*
X186887219Y-61493660D01*
X186906728Y-61491739D01*
X186942776Y-61476807D01*
X186970366Y-61449217D01*
X186985298Y-61413169D01*
X186985298Y-61374151D01*
X186970366Y-61338103D01*
X186942776Y-61310513D01*
X186906728Y-61295581D01*
X186887219Y-61293660D01*
X185887219Y-61293660D01*
X185874395Y-61294922D01*
X185872036Y-61294819D01*
X185870768Y-61295279D01*
X185867710Y-61295581D01*
X185851668Y-61302225D01*
X185835367Y-61308154D01*
X185833723Y-61309659D01*
X185831662Y-61310513D01*
X185819388Y-61322786D01*
X185806592Y-61334505D01*
X185805648Y-61336526D01*
X185804072Y-61338103D01*
X185797432Y-61354132D01*
X185790091Y-61369863D01*
X185789993Y-61372091D01*
X185789140Y-61374151D01*
X185789140Y-61391503D01*
X185788378Y-61408843D01*
X185676108Y-61408843D01*
X185676108Y-60536517D01*
X185787219Y-60536517D01*
X185787219Y-60726993D01*
X185789140Y-60746502D01*
X185790515Y-60749822D01*
X185790770Y-60753406D01*
X185797776Y-60771714D01*
X185845395Y-60866952D01*
X185850680Y-60875348D01*
X185851691Y-60877788D01*
X185853944Y-60880534D01*
X185855838Y-60883542D01*
X185857832Y-60885271D01*
X185864127Y-60892942D01*
X185959365Y-60988180D01*
X185974519Y-61000616D01*
X185981387Y-61003461D01*
X185987362Y-61007888D01*
X186005822Y-61014483D01*
X186196298Y-61062102D01*
X186199679Y-61062602D01*
X186201043Y-61063167D01*
X186208393Y-61063890D01*
X186215691Y-61064970D01*
X186217149Y-61064752D01*
X186220552Y-61065088D01*
X186553885Y-61065088D01*
X186557287Y-61064752D01*
X186558746Y-61064970D01*
X186566043Y-61063890D01*
X186573394Y-61063167D01*
X186574757Y-61062602D01*
X186578139Y-61062102D01*
X186768614Y-61014483D01*
X186787075Y-61007888D01*
X186793047Y-61003462D01*
X186799918Y-61000617D01*
X186815071Y-60988180D01*
X186910311Y-60892942D01*
X186916604Y-60885273D01*
X186918600Y-60883543D01*
X186920493Y-60880535D01*
X186922747Y-60877789D01*
X186923757Y-60875348D01*
X186929043Y-60866952D01*
X186976662Y-60771715D01*
X186983668Y-60753406D01*
X186983922Y-60749822D01*
X186985298Y-60746502D01*
X186987219Y-60726993D01*
X186987219Y-60536517D01*
X186985298Y-60517008D01*
X186983922Y-60513687D01*
X186983668Y-60510104D01*
X186976662Y-60491795D01*
X186929043Y-60396558D01*
X186923757Y-60388161D01*
X186922747Y-60385721D01*
X186920493Y-60382974D01*
X186918600Y-60379967D01*
X186916604Y-60378236D01*
X186910311Y-60370568D01*
X186815071Y-60275330D01*
X186799918Y-60262893D01*
X186793047Y-60260047D01*
X186787075Y-60255622D01*
X186768614Y-60249027D01*
X186578139Y-60201408D01*
X186574757Y-60200907D01*
X186573394Y-60200343D01*
X186566043Y-60199619D01*
X186558746Y-60198540D01*
X186557287Y-60198757D01*
X186553885Y-60198422D01*
X186220552Y-60198422D01*
X186217149Y-60198757D01*
X186215691Y-60198540D01*
X186208393Y-60199619D01*
X186201043Y-60200343D01*
X186199679Y-60200907D01*
X186196298Y-60201408D01*
X186005822Y-60249027D01*
X185987362Y-60255622D01*
X185981387Y-60260048D01*
X185974519Y-60262894D01*
X185959365Y-60275330D01*
X185864127Y-60370568D01*
X185857832Y-60378238D01*
X185855838Y-60379968D01*
X185853944Y-60382975D01*
X185851691Y-60385722D01*
X185850680Y-60388161D01*
X185845395Y-60396558D01*
X185797776Y-60491796D01*
X185790770Y-60510104D01*
X185790515Y-60513687D01*
X185789140Y-60517008D01*
X185787219Y-60536517D01*
X185676108Y-60536517D01*
X185676108Y-59441279D01*
X185787219Y-59441279D01*
X185787219Y-60012707D01*
X185789140Y-60032216D01*
X185804072Y-60068264D01*
X185831662Y-60095854D01*
X185867710Y-60110786D01*
X185906728Y-60110786D01*
X185942776Y-60095854D01*
X185970366Y-60068264D01*
X185985298Y-60032216D01*
X185987219Y-60012707D01*
X185987219Y-59826993D01*
X186887219Y-59826993D01*
X186906728Y-59825072D01*
X186942776Y-59810140D01*
X186970366Y-59782550D01*
X186985298Y-59746502D01*
X186985298Y-59707484D01*
X186970366Y-59671436D01*
X186942776Y-59643846D01*
X186906728Y-59628914D01*
X186887219Y-59626993D01*
X185987219Y-59626993D01*
X185987219Y-59441279D01*
X185985298Y-59421770D01*
X185970366Y-59385722D01*
X185942776Y-59358132D01*
X185906728Y-59343200D01*
X185867710Y-59343200D01*
X185831662Y-59358132D01*
X185804072Y-59385722D01*
X185789140Y-59421770D01*
X185787219Y-59441279D01*
X185676108Y-59441279D01*
X185676108Y-58726993D01*
X185787219Y-58726993D01*
X185787219Y-58917469D01*
X185789140Y-58936978D01*
X185790515Y-58940298D01*
X185790770Y-58943882D01*
X185797776Y-58962190D01*
X185845395Y-59057428D01*
X185850680Y-59065824D01*
X185851691Y-59068264D01*
X185853944Y-59071010D01*
X185855838Y-59074018D01*
X185857832Y-59075747D01*
X185864127Y-59083418D01*
X185959365Y-59178656D01*
X185974519Y-59191092D01*
X185981387Y-59193937D01*
X185987362Y-59198364D01*
X186005822Y-59204959D01*
X186196298Y-59252578D01*
X186199679Y-59253078D01*
X186201043Y-59253643D01*
X186208393Y-59254366D01*
X186215691Y-59255446D01*
X186217149Y-59255228D01*
X186220552Y-59255564D01*
X186553885Y-59255564D01*
X186557287Y-59255228D01*
X186558746Y-59255446D01*
X186566043Y-59254366D01*
X186573394Y-59253643D01*
X186574757Y-59253078D01*
X186578139Y-59252578D01*
X186768614Y-59204959D01*
X186787075Y-59198364D01*
X186793047Y-59193938D01*
X186799918Y-59191093D01*
X186815071Y-59178656D01*
X186910311Y-59083418D01*
X186916604Y-59075749D01*
X186918600Y-59074019D01*
X186920493Y-59071011D01*
X186922747Y-59068265D01*
X186923757Y-59065824D01*
X186929043Y-59057428D01*
X186976662Y-58962191D01*
X186983668Y-58943882D01*
X186983922Y-58940298D01*
X186985298Y-58936978D01*
X186987219Y-58917469D01*
X186987219Y-58726993D01*
X186985298Y-58707484D01*
X186983922Y-58704163D01*
X186983668Y-58700580D01*
X186976662Y-58682271D01*
X186929043Y-58587034D01*
X186923757Y-58578637D01*
X186922747Y-58576197D01*
X186920493Y-58573450D01*
X186918600Y-58570443D01*
X186916604Y-58568712D01*
X186910311Y-58561044D01*
X186815071Y-58465806D01*
X186799918Y-58453369D01*
X186793047Y-58450523D01*
X186787075Y-58446098D01*
X186768614Y-58439503D01*
X186578139Y-58391884D01*
X186574757Y-58391383D01*
X186573394Y-58390819D01*
X186566043Y-58390095D01*
X186558746Y-58389016D01*
X186557287Y-58389233D01*
X186553885Y-58388898D01*
X186220552Y-58388898D01*
X186217149Y-58389233D01*
X186215691Y-58389016D01*
X186208393Y-58390095D01*
X186201043Y-58390819D01*
X186199679Y-58391383D01*
X186196298Y-58391884D01*
X186005822Y-58439503D01*
X185987362Y-58446098D01*
X185981387Y-58450524D01*
X185974519Y-58453370D01*
X185959365Y-58465806D01*
X185864127Y-58561044D01*
X185857832Y-58568714D01*
X185855838Y-58570444D01*
X185853944Y-58573451D01*
X185851691Y-58576198D01*
X185850680Y-58578637D01*
X185845395Y-58587034D01*
X185797776Y-58682272D01*
X185790770Y-58700580D01*
X185790515Y-58704163D01*
X185789140Y-58707484D01*
X185787219Y-58726993D01*
X185676108Y-58726993D01*
X185676108Y-57679374D01*
X185787219Y-57679374D01*
X185787219Y-58060326D01*
X185789140Y-58079835D01*
X185804072Y-58115883D01*
X185831662Y-58143473D01*
X185867710Y-58158405D01*
X185887219Y-58160326D01*
X186887219Y-58160326D01*
X186906728Y-58158405D01*
X186942776Y-58143473D01*
X186970366Y-58115883D01*
X186985298Y-58079835D01*
X186985298Y-58040817D01*
X186970366Y-58004769D01*
X186942776Y-57977179D01*
X186906728Y-57962247D01*
X186887219Y-57960326D01*
X186511028Y-57960326D01*
X186511028Y-57874296D01*
X186944565Y-57570821D01*
X186959446Y-57558060D01*
X186980415Y-57525155D01*
X186987196Y-57486730D01*
X186978756Y-57448636D01*
X186956381Y-57416671D01*
X186923476Y-57395702D01*
X186885052Y-57388921D01*
X186846957Y-57397361D01*
X186829873Y-57406975D01*
X186501347Y-57636942D01*
X186500471Y-57634652D01*
X186452852Y-57539415D01*
X186447566Y-57531018D01*
X186446556Y-57528578D01*
X186444302Y-57525832D01*
X186442409Y-57522824D01*
X186440411Y-57521091D01*
X186434119Y-57513425D01*
X186386501Y-57465806D01*
X186378830Y-57459511D01*
X186377101Y-57457517D01*
X186374093Y-57455623D01*
X186371347Y-57453370D01*
X186368907Y-57452359D01*
X186360511Y-57447074D01*
X186265273Y-57399455D01*
X186246965Y-57392449D01*
X186243381Y-57392194D01*
X186240061Y-57390819D01*
X186220552Y-57388898D01*
X186077695Y-57388898D01*
X186058186Y-57390819D01*
X186054865Y-57392194D01*
X186051282Y-57392449D01*
X186032973Y-57399455D01*
X185937736Y-57447074D01*
X185929339Y-57452359D01*
X185926899Y-57453370D01*
X185924153Y-57455623D01*
X185921145Y-57457517D01*
X185919412Y-57459514D01*
X185911746Y-57465807D01*
X185864127Y-57513425D01*
X185857832Y-57521095D01*
X185855838Y-57522825D01*
X185853944Y-57525832D01*
X185851691Y-57528579D01*
X185850680Y-57531018D01*
X185845395Y-57539415D01*
X185797776Y-57634653D01*
X185790770Y-57652961D01*
X185790515Y-57656544D01*
X185789140Y-57659865D01*
X185787219Y-57679374D01*
X185676108Y-57679374D01*
X185676108Y-56060431D01*
X185787219Y-56060431D01*
X185789140Y-56070036D01*
X185789140Y-56079835D01*
X185792929Y-56088983D01*
X185794871Y-56098691D01*
X185800322Y-56106831D01*
X185804072Y-56115883D01*
X185811071Y-56122882D01*
X185816582Y-56131111D01*
X185831588Y-56143399D01*
X185831662Y-56143473D01*
X185831694Y-56143486D01*
X185831749Y-56143531D01*
X185966365Y-56233275D01*
X186043129Y-56310039D01*
X186083490Y-56390761D01*
X186093933Y-56407351D01*
X186123410Y-56432916D01*
X186160426Y-56445254D01*
X186199346Y-56442489D01*
X186234244Y-56425040D01*
X186259809Y-56395563D01*
X186272148Y-56358547D01*
X186269382Y-56319627D01*
X186262376Y-56301318D01*
X186214757Y-56206081D01*
X186209470Y-56197682D01*
X186208461Y-56195245D01*
X186206209Y-56192501D01*
X186204314Y-56189490D01*
X186202316Y-56187757D01*
X186196025Y-56180091D01*
X186176260Y-56160326D01*
X186787219Y-56160326D01*
X186787219Y-56346040D01*
X186789140Y-56365549D01*
X186804072Y-56401597D01*
X186831662Y-56429187D01*
X186867710Y-56444119D01*
X186906728Y-56444119D01*
X186942776Y-56429187D01*
X186970366Y-56401597D01*
X186985298Y-56365549D01*
X186987219Y-56346040D01*
X186987219Y-55774612D01*
X186985298Y-55755103D01*
X186970366Y-55719055D01*
X186942776Y-55691465D01*
X186906728Y-55676533D01*
X186867710Y-55676533D01*
X186831662Y-55691465D01*
X186804072Y-55719055D01*
X186789140Y-55755103D01*
X186787219Y-55774612D01*
X186787219Y-55960326D01*
X185887219Y-55960326D01*
X185887148Y-55960332D01*
X185887114Y-55960326D01*
X185887012Y-55960346D01*
X185867710Y-55962247D01*
X185858561Y-55966036D01*
X185848854Y-55967978D01*
X185840713Y-55973429D01*
X185831662Y-55977179D01*
X185824662Y-55984178D01*
X185816434Y-55989689D01*
X185810998Y-55997842D01*
X185804072Y-56004769D01*
X185800283Y-56013915D01*
X185794791Y-56022154D01*
X185792889Y-56031764D01*
X185789140Y-56040817D01*
X185789140Y-56050720D01*
X185787219Y-56060431D01*
X185676108Y-56060431D01*
X185676108Y-55565422D01*
X187098330Y-55565422D01*
X187098330Y-62271437D01*
G37*
D11*
X184958346Y-71366641D02*
X184958346Y-70604737D01*
X185339299Y-70985689D02*
X184577394Y-70985689D01*
X184958346Y-67842831D02*
X184958346Y-67080927D01*
D10*
G36*
X150742780Y-70557018D02*
G01*
X150712975Y-70616627D01*
X150688306Y-70641295D01*
X150628697Y-70671101D01*
X150533054Y-70671101D01*
X150473444Y-70641296D01*
X150448776Y-70616627D01*
X150418971Y-70557017D01*
X150418971Y-70299673D01*
X150742780Y-70299673D01*
X150742780Y-70557018D01*
G37*
G36*
X150648797Y-69242350D02*
G01*
X150712976Y-69306529D01*
X150742780Y-69366137D01*
X150742780Y-69509399D01*
X150712976Y-69569007D01*
X150648797Y-69633186D01*
X150497137Y-69671101D01*
X150188423Y-69671101D01*
X150036764Y-69633186D01*
X149972583Y-69569005D01*
X149942780Y-69509399D01*
X149942780Y-69366136D01*
X149972583Y-69306530D01*
X150036764Y-69242349D01*
X150188423Y-69204435D01*
X150497137Y-69204435D01*
X150648797Y-69242350D01*
G37*
G36*
X150648797Y-67432826D02*
G01*
X150712976Y-67497005D01*
X150742780Y-67556613D01*
X150742780Y-67699875D01*
X150712976Y-67759483D01*
X150648797Y-67823662D01*
X150497137Y-67861577D01*
X150188423Y-67861577D01*
X150036764Y-67823662D01*
X149972583Y-67759481D01*
X149942780Y-67699875D01*
X149942780Y-67556612D01*
X149972583Y-67497006D01*
X150036764Y-67432825D01*
X150188423Y-67394911D01*
X150497137Y-67394911D01*
X150648797Y-67432826D01*
G37*
G36*
X151053891Y-72696498D02*
G01*
X149631669Y-72696498D01*
X149631669Y-72009197D01*
X149742780Y-72009197D01*
X149742780Y-72294911D01*
X149744701Y-72314420D01*
X149746076Y-72317739D01*
X149746331Y-72321325D01*
X149753338Y-72339633D01*
X149800958Y-72434871D01*
X149806242Y-72443266D01*
X149807253Y-72445706D01*
X149809506Y-72448451D01*
X149811401Y-72451462D01*
X149813397Y-72453193D01*
X149819689Y-72460860D01*
X149867308Y-72508478D01*
X149874974Y-72514770D01*
X149876707Y-72516768D01*
X149879715Y-72518661D01*
X149882461Y-72520915D01*
X149884901Y-72521925D01*
X149893298Y-72527211D01*
X149988535Y-72574830D01*
X150006844Y-72581836D01*
X150010427Y-72582090D01*
X150013748Y-72583466D01*
X150033257Y-72585387D01*
X150271352Y-72585387D01*
X150290861Y-72583466D01*
X150294181Y-72582090D01*
X150297765Y-72581836D01*
X150316073Y-72574830D01*
X150411311Y-72527211D01*
X150419707Y-72521925D01*
X150422147Y-72520915D01*
X150424893Y-72518661D01*
X150427901Y-72516768D01*
X150429630Y-72514773D01*
X150437301Y-72508479D01*
X150484919Y-72460860D01*
X150491211Y-72453193D01*
X150493209Y-72451461D01*
X150495102Y-72448452D01*
X150497356Y-72445707D01*
X150498366Y-72443266D01*
X150503652Y-72434870D01*
X150543076Y-72356022D01*
X150776930Y-72560645D01*
X150785363Y-72566674D01*
X150787223Y-72568534D01*
X150788986Y-72569264D01*
X150792877Y-72572046D01*
X150808265Y-72577250D01*
X150823271Y-72583466D01*
X150826645Y-72583466D01*
X150829838Y-72584546D01*
X150846041Y-72583466D01*
X150862289Y-72583466D01*
X150865404Y-72582175D01*
X150868770Y-72581951D01*
X150883335Y-72574748D01*
X150898337Y-72568534D01*
X150900720Y-72566150D01*
X150903745Y-72564655D01*
X150914449Y-72552421D01*
X150925927Y-72540944D01*
X150927216Y-72537830D01*
X150929439Y-72535291D01*
X150934644Y-72519899D01*
X150940859Y-72504896D01*
X150941327Y-72500136D01*
X150941939Y-72498329D01*
X150941764Y-72495704D01*
X150942780Y-72485387D01*
X150942780Y-71866340D01*
X150940859Y-71846831D01*
X150925927Y-71810783D01*
X150898337Y-71783193D01*
X150862289Y-71768261D01*
X150823271Y-71768261D01*
X150787223Y-71783193D01*
X150759633Y-71810783D01*
X150744701Y-71846831D01*
X150742780Y-71866340D01*
X150742780Y-72265009D01*
X150527678Y-72076796D01*
X150519244Y-72070766D01*
X150517385Y-72068907D01*
X150515621Y-72068176D01*
X150511731Y-72065395D01*
X150496342Y-72060190D01*
X150481337Y-72053975D01*
X150477963Y-72053975D01*
X150474770Y-72052895D01*
X150458567Y-72053975D01*
X150442319Y-72053975D01*
X150439203Y-72055265D01*
X150435838Y-72055490D01*
X150421277Y-72062690D01*
X150406271Y-72068907D01*
X150403886Y-72071291D01*
X150400863Y-72072787D01*
X150390165Y-72085012D01*
X150378681Y-72096497D01*
X150377390Y-72099611D01*
X150375169Y-72102151D01*
X150369964Y-72117539D01*
X150363749Y-72132545D01*
X150363280Y-72137304D01*
X150362669Y-72139112D01*
X150362843Y-72141736D01*
X150361828Y-72152054D01*
X150361828Y-72271304D01*
X150332023Y-72330913D01*
X150307354Y-72355581D01*
X150247745Y-72385387D01*
X150056864Y-72385387D01*
X149997254Y-72355582D01*
X149972583Y-72330911D01*
X149942780Y-72271304D01*
X149942780Y-72032803D01*
X149972583Y-71973196D01*
X150008729Y-71937051D01*
X150021166Y-71921898D01*
X150036097Y-71885849D01*
X150036097Y-71846831D01*
X150021166Y-71810783D01*
X149993576Y-71783193D01*
X149957528Y-71768262D01*
X149918510Y-71768262D01*
X149882461Y-71783193D01*
X149867308Y-71795630D01*
X149819689Y-71843248D01*
X149813397Y-71850914D01*
X149811401Y-71852646D01*
X149809506Y-71855656D01*
X149807253Y-71858402D01*
X149806242Y-71860841D01*
X149800958Y-71869237D01*
X149753338Y-71964475D01*
X149746331Y-71982783D01*
X149746076Y-71986368D01*
X149744701Y-71989688D01*
X149742780Y-72009197D01*
X149631669Y-72009197D01*
X149631669Y-70773269D01*
X149742803Y-70773269D01*
X149751243Y-70811363D01*
X149773618Y-70843328D01*
X149806523Y-70864297D01*
X149844948Y-70871078D01*
X149883042Y-70862638D01*
X149900126Y-70853024D01*
X150228651Y-70623056D01*
X150229528Y-70625346D01*
X150277147Y-70720584D01*
X150282432Y-70728980D01*
X150283443Y-70731420D01*
X150285696Y-70734166D01*
X150287590Y-70737174D01*
X150289584Y-70738903D01*
X150295879Y-70746574D01*
X150343498Y-70794192D01*
X150351164Y-70800484D01*
X150352897Y-70802482D01*
X150355905Y-70804375D01*
X150358651Y-70806629D01*
X150361091Y-70807639D01*
X150369488Y-70812925D01*
X150464725Y-70860544D01*
X150483034Y-70867550D01*
X150486617Y-70867804D01*
X150489938Y-70869180D01*
X150509447Y-70871101D01*
X150652304Y-70871101D01*
X150671813Y-70869180D01*
X150675133Y-70867804D01*
X150678717Y-70867550D01*
X150697025Y-70860544D01*
X150792263Y-70812925D01*
X150800659Y-70807639D01*
X150803099Y-70806629D01*
X150805845Y-70804375D01*
X150808853Y-70802482D01*
X150810582Y-70800487D01*
X150818253Y-70794193D01*
X150865871Y-70746574D01*
X150872163Y-70738907D01*
X150874161Y-70737175D01*
X150876054Y-70734166D01*
X150878308Y-70731421D01*
X150879318Y-70728980D01*
X150884604Y-70720584D01*
X150932223Y-70625347D01*
X150939229Y-70607038D01*
X150939483Y-70603454D01*
X150940859Y-70600134D01*
X150942780Y-70580625D01*
X150942780Y-70199673D01*
X150940859Y-70180164D01*
X150925927Y-70144116D01*
X150898337Y-70116526D01*
X150862289Y-70101594D01*
X150842780Y-70099673D01*
X149842780Y-70099673D01*
X149823271Y-70101594D01*
X149787223Y-70116526D01*
X149759633Y-70144116D01*
X149744701Y-70180164D01*
X149744701Y-70219182D01*
X149759633Y-70255230D01*
X149787223Y-70282820D01*
X149823271Y-70297752D01*
X149842780Y-70299673D01*
X150218971Y-70299673D01*
X150218971Y-70385702D01*
X149785434Y-70689178D01*
X149770553Y-70701939D01*
X149749584Y-70734844D01*
X149742803Y-70773269D01*
X149631669Y-70773269D01*
X149631669Y-69342530D01*
X149742780Y-69342530D01*
X149742780Y-69533006D01*
X149744701Y-69552515D01*
X149746076Y-69555834D01*
X149746331Y-69559420D01*
X149753338Y-69577728D01*
X149800958Y-69672966D01*
X149806242Y-69681361D01*
X149807253Y-69683801D01*
X149809506Y-69686546D01*
X149811401Y-69689557D01*
X149813397Y-69691288D01*
X149819689Y-69698955D01*
X149914927Y-69794193D01*
X149930081Y-69806629D01*
X149936949Y-69809474D01*
X149942924Y-69813901D01*
X149961384Y-69820496D01*
X150151860Y-69868115D01*
X150155241Y-69868615D01*
X150156605Y-69869180D01*
X150163955Y-69869903D01*
X150171253Y-69870983D01*
X150172711Y-69870765D01*
X150176114Y-69871101D01*
X150509447Y-69871101D01*
X150512849Y-69870765D01*
X150514308Y-69870983D01*
X150521605Y-69869903D01*
X150528956Y-69869180D01*
X150530319Y-69868615D01*
X150533701Y-69868115D01*
X150724176Y-69820496D01*
X150742637Y-69813901D01*
X150748611Y-69809474D01*
X150755480Y-69806629D01*
X150770634Y-69794193D01*
X150865872Y-69698955D01*
X150872163Y-69691288D01*
X150874161Y-69689556D01*
X150876056Y-69686544D01*
X150878308Y-69683801D01*
X150879317Y-69681363D01*
X150884604Y-69672965D01*
X150932223Y-69577728D01*
X150939229Y-69559419D01*
X150939483Y-69555835D01*
X150940859Y-69552515D01*
X150942780Y-69533006D01*
X150942780Y-69342530D01*
X150940859Y-69323021D01*
X150939483Y-69319700D01*
X150939229Y-69316117D01*
X150932223Y-69297808D01*
X150884604Y-69202571D01*
X150879317Y-69194172D01*
X150878308Y-69191735D01*
X150876056Y-69188991D01*
X150874161Y-69185980D01*
X150872163Y-69184247D01*
X150865872Y-69176581D01*
X150770634Y-69081343D01*
X150755480Y-69068907D01*
X150748611Y-69066061D01*
X150742637Y-69061635D01*
X150724176Y-69055040D01*
X150533701Y-69007421D01*
X150530319Y-69006920D01*
X150528956Y-69006356D01*
X150521605Y-69005632D01*
X150514308Y-69004553D01*
X150512849Y-69004770D01*
X150509447Y-69004435D01*
X150176114Y-69004435D01*
X150172711Y-69004770D01*
X150171253Y-69004553D01*
X150163955Y-69005632D01*
X150156605Y-69006356D01*
X150155241Y-69006920D01*
X150151860Y-69007421D01*
X149961384Y-69055040D01*
X149942924Y-69061635D01*
X149936949Y-69066061D01*
X149930081Y-69068907D01*
X149914927Y-69081343D01*
X149819689Y-69176581D01*
X149813397Y-69184247D01*
X149811401Y-69185979D01*
X149809506Y-69188989D01*
X149807253Y-69191735D01*
X149806242Y-69194174D01*
X149800958Y-69202570D01*
X149753338Y-69297808D01*
X149746331Y-69316116D01*
X149746076Y-69319701D01*
X149744701Y-69323021D01*
X149742780Y-69342530D01*
X149631669Y-69342530D01*
X149631669Y-68513497D01*
X149744701Y-68513497D01*
X149744701Y-68552515D01*
X149759633Y-68588563D01*
X149787223Y-68616153D01*
X149823271Y-68631085D01*
X149842780Y-68633006D01*
X150742780Y-68633006D01*
X150742780Y-68818720D01*
X150744701Y-68838229D01*
X150759633Y-68874277D01*
X150787223Y-68901867D01*
X150823271Y-68916799D01*
X150862289Y-68916799D01*
X150898337Y-68901867D01*
X150925927Y-68874277D01*
X150940859Y-68838229D01*
X150942780Y-68818720D01*
X150942780Y-68247292D01*
X150940859Y-68227783D01*
X150925927Y-68191735D01*
X150898337Y-68164145D01*
X150862289Y-68149213D01*
X150823271Y-68149213D01*
X150787223Y-68164145D01*
X150759633Y-68191735D01*
X150744701Y-68227783D01*
X150742780Y-68247292D01*
X150742780Y-68433006D01*
X149842780Y-68433006D01*
X149823271Y-68434927D01*
X149787223Y-68449859D01*
X149759633Y-68477449D01*
X149744701Y-68513497D01*
X149631669Y-68513497D01*
X149631669Y-67533006D01*
X149742780Y-67533006D01*
X149742780Y-67723482D01*
X149744701Y-67742991D01*
X149746076Y-67746310D01*
X149746331Y-67749896D01*
X149753338Y-67768204D01*
X149800958Y-67863442D01*
X149806242Y-67871837D01*
X149807253Y-67874277D01*
X149809506Y-67877022D01*
X149811401Y-67880033D01*
X149813397Y-67881764D01*
X149819689Y-67889431D01*
X149914927Y-67984669D01*
X149930081Y-67997105D01*
X149936949Y-67999950D01*
X149942924Y-68004377D01*
X149961384Y-68010972D01*
X150151860Y-68058591D01*
X150155241Y-68059091D01*
X150156605Y-68059656D01*
X150163955Y-68060379D01*
X150171253Y-68061459D01*
X150172711Y-68061241D01*
X150176114Y-68061577D01*
X150509447Y-68061577D01*
X150512849Y-68061241D01*
X150514308Y-68061459D01*
X150521605Y-68060379D01*
X150528956Y-68059656D01*
X150530319Y-68059091D01*
X150533701Y-68058591D01*
X150724176Y-68010972D01*
X150742637Y-68004377D01*
X150748611Y-67999950D01*
X150755480Y-67997105D01*
X150770634Y-67984669D01*
X150865872Y-67889431D01*
X150872163Y-67881764D01*
X150874161Y-67880032D01*
X150876056Y-67877020D01*
X150878308Y-67874277D01*
X150879317Y-67871839D01*
X150884604Y-67863441D01*
X150932223Y-67768204D01*
X150939229Y-67749895D01*
X150939483Y-67746311D01*
X150940859Y-67742991D01*
X150942780Y-67723482D01*
X150942780Y-67533006D01*
X150940859Y-67513497D01*
X150939483Y-67510176D01*
X150939229Y-67506593D01*
X150932223Y-67488284D01*
X150884604Y-67393047D01*
X150879317Y-67384648D01*
X150878308Y-67382211D01*
X150876056Y-67379467D01*
X150874161Y-67376456D01*
X150872163Y-67374723D01*
X150865872Y-67367057D01*
X150770634Y-67271819D01*
X150755480Y-67259383D01*
X150748611Y-67256537D01*
X150742637Y-67252111D01*
X150724176Y-67245516D01*
X150533701Y-67197897D01*
X150530319Y-67197396D01*
X150528956Y-67196832D01*
X150521605Y-67196108D01*
X150514308Y-67195029D01*
X150512849Y-67195246D01*
X150509447Y-67194911D01*
X150176114Y-67194911D01*
X150172711Y-67195246D01*
X150171253Y-67195029D01*
X150163955Y-67196108D01*
X150156605Y-67196832D01*
X150155241Y-67197396D01*
X150151860Y-67197897D01*
X149961384Y-67245516D01*
X149942924Y-67252111D01*
X149936949Y-67256537D01*
X149930081Y-67259383D01*
X149914927Y-67271819D01*
X149819689Y-67367057D01*
X149813397Y-67374723D01*
X149811401Y-67376455D01*
X149809506Y-67379465D01*
X149807253Y-67382211D01*
X149806242Y-67384650D01*
X149800958Y-67393046D01*
X149753338Y-67488284D01*
X149746331Y-67506592D01*
X149746076Y-67510177D01*
X149744701Y-67513497D01*
X149742780Y-67533006D01*
X149631669Y-67533006D01*
X149631669Y-66180164D01*
X149744701Y-66180164D01*
X149744701Y-66219182D01*
X149759633Y-66255230D01*
X149787223Y-66282820D01*
X149823271Y-66297752D01*
X149842780Y-66299673D01*
X150392024Y-66299673D01*
X150086206Y-66442388D01*
X150079060Y-66446620D01*
X150076643Y-66447500D01*
X150074933Y-66449065D01*
X150069340Y-66452379D01*
X150059076Y-66463587D01*
X150047868Y-66473851D01*
X150045988Y-66477878D01*
X150042989Y-66481154D01*
X150037797Y-66495430D01*
X150031367Y-66509209D01*
X150031171Y-66513649D01*
X150029654Y-66517823D01*
X150030321Y-66533006D01*
X150029654Y-66548189D01*
X150031171Y-66552362D01*
X150031367Y-66556803D01*
X150037797Y-66570581D01*
X150042989Y-66584858D01*
X150045988Y-66588133D01*
X150047868Y-66592161D01*
X150059076Y-66602424D01*
X150069340Y-66613633D01*
X150074933Y-66616946D01*
X150076643Y-66618512D01*
X150079060Y-66619391D01*
X150086206Y-66623624D01*
X150392024Y-66766339D01*
X149842780Y-66766339D01*
X149823271Y-66768260D01*
X149787223Y-66783192D01*
X149759633Y-66810782D01*
X149744701Y-66846830D01*
X149744701Y-66885848D01*
X149759633Y-66921896D01*
X149787223Y-66949486D01*
X149823271Y-66964418D01*
X149842780Y-66966339D01*
X150842780Y-66966339D01*
X150855603Y-66965076D01*
X150857963Y-66965180D01*
X150859230Y-66964719D01*
X150862289Y-66964418D01*
X150878319Y-66957777D01*
X150894632Y-66951846D01*
X150896277Y-66950339D01*
X150898337Y-66949486D01*
X150910598Y-66937224D01*
X150923408Y-66925494D01*
X150924352Y-66923470D01*
X150925927Y-66921896D01*
X150932561Y-66905880D01*
X150939908Y-66890137D01*
X150940005Y-66887907D01*
X150940859Y-66885848D01*
X150940859Y-66868496D01*
X150941621Y-66851156D01*
X150940859Y-66849060D01*
X150940859Y-66846830D01*
X150934218Y-66830799D01*
X150928287Y-66814487D01*
X150926780Y-66812841D01*
X150925927Y-66810782D01*
X150913659Y-66798514D01*
X150901935Y-66785712D01*
X150899290Y-66784145D01*
X150898337Y-66783192D01*
X150896155Y-66782288D01*
X150885069Y-66775721D01*
X150364965Y-66533006D01*
X150885069Y-66290291D01*
X150896155Y-66283723D01*
X150898337Y-66282820D01*
X150899290Y-66281866D01*
X150901935Y-66280300D01*
X150913659Y-66267497D01*
X150925927Y-66255230D01*
X150926780Y-66253170D01*
X150928287Y-66251525D01*
X150934218Y-66235212D01*
X150940859Y-66219182D01*
X150940859Y-66216951D01*
X150941621Y-66214856D01*
X150940859Y-66197515D01*
X150940859Y-66180164D01*
X150940005Y-66178104D01*
X150939908Y-66175875D01*
X150932561Y-66160131D01*
X150925927Y-66144116D01*
X150924352Y-66142541D01*
X150923408Y-66140518D01*
X150910598Y-66128787D01*
X150898337Y-66116526D01*
X150896277Y-66115672D01*
X150894632Y-66114166D01*
X150878319Y-66108234D01*
X150862289Y-66101594D01*
X150859230Y-66101292D01*
X150857963Y-66100832D01*
X150855603Y-66100935D01*
X150842780Y-66099673D01*
X149842780Y-66099673D01*
X149823271Y-66101594D01*
X149787223Y-66116526D01*
X149759633Y-66144116D01*
X149744701Y-66180164D01*
X149631669Y-66180164D01*
X149631669Y-65988562D01*
X151053891Y-65988562D01*
X151053891Y-72696498D01*
G37*
G36*
X150822780Y-60057018D02*
G01*
X150792975Y-60116627D01*
X150768306Y-60141295D01*
X150708697Y-60171101D01*
X150613054Y-60171101D01*
X150553444Y-60141296D01*
X150528776Y-60116627D01*
X150498971Y-60057017D01*
X150498971Y-59799673D01*
X150822780Y-59799673D01*
X150822780Y-60057018D01*
G37*
G36*
X150728797Y-58742350D02*
G01*
X150792976Y-58806529D01*
X150822780Y-58866137D01*
X150822780Y-59009399D01*
X150792976Y-59069007D01*
X150728797Y-59133186D01*
X150577137Y-59171101D01*
X150268423Y-59171101D01*
X150116764Y-59133186D01*
X150052583Y-59069005D01*
X150022780Y-59009399D01*
X150022780Y-58866136D01*
X150052583Y-58806530D01*
X150116764Y-58742349D01*
X150268423Y-58704435D01*
X150577137Y-58704435D01*
X150728797Y-58742350D01*
G37*
G36*
X150728797Y-56932826D02*
G01*
X150792976Y-56997005D01*
X150822780Y-57056613D01*
X150822780Y-57199875D01*
X150792976Y-57259483D01*
X150728797Y-57323662D01*
X150577137Y-57361577D01*
X150268423Y-57361577D01*
X150116764Y-57323662D01*
X150052583Y-57259481D01*
X150022780Y-57199875D01*
X150022780Y-57056612D01*
X150052583Y-56997006D01*
X150116764Y-56932825D01*
X150268423Y-56894911D01*
X150577137Y-56894911D01*
X150728797Y-56932826D01*
G37*
G36*
X151133891Y-62196498D02*
G01*
X149711669Y-62196498D01*
X149711669Y-61366340D01*
X149822780Y-61366340D01*
X149822780Y-61985387D01*
X149824701Y-62004896D01*
X149839633Y-62040944D01*
X149867223Y-62068534D01*
X149903271Y-62083466D01*
X149942289Y-62083466D01*
X149978337Y-62068534D01*
X150005927Y-62040944D01*
X150020859Y-62004896D01*
X150022780Y-61985387D01*
X150022780Y-61607761D01*
X150423498Y-62008479D01*
X150438652Y-62020915D01*
X150441970Y-62022289D01*
X150444686Y-62024645D01*
X150462586Y-62032636D01*
X150605443Y-62080255D01*
X150615115Y-62082454D01*
X150617557Y-62083466D01*
X150621094Y-62083814D01*
X150624558Y-62084602D01*
X150627192Y-62084414D01*
X150637066Y-62085387D01*
X150732304Y-62085387D01*
X150751813Y-62083466D01*
X150755133Y-62082090D01*
X150758717Y-62081836D01*
X150777025Y-62074830D01*
X150872263Y-62027211D01*
X150880659Y-62021925D01*
X150883099Y-62020915D01*
X150885845Y-62018661D01*
X150888853Y-62016768D01*
X150890582Y-62014773D01*
X150898253Y-62008479D01*
X150945871Y-61960860D01*
X150952163Y-61953193D01*
X150954161Y-61951461D01*
X150956054Y-61948452D01*
X150958308Y-61945707D01*
X150959318Y-61943266D01*
X150964604Y-61934870D01*
X151012223Y-61839633D01*
X151019229Y-61821324D01*
X151019483Y-61817740D01*
X151020859Y-61814420D01*
X151022780Y-61794911D01*
X151022780Y-61556816D01*
X151020859Y-61537307D01*
X151019483Y-61533986D01*
X151019229Y-61530403D01*
X151012223Y-61512094D01*
X150964604Y-61416857D01*
X150959318Y-61408460D01*
X150958308Y-61406020D01*
X150956054Y-61403274D01*
X150954161Y-61400266D01*
X150952163Y-61398533D01*
X150945871Y-61390867D01*
X150898253Y-61343248D01*
X150883099Y-61330812D01*
X150847051Y-61315880D01*
X150808033Y-61315880D01*
X150771985Y-61330812D01*
X150744395Y-61358402D01*
X150729463Y-61394450D01*
X150729463Y-61433468D01*
X150744395Y-61469516D01*
X150756831Y-61484670D01*
X150792975Y-61520813D01*
X150822780Y-61580423D01*
X150822780Y-61771304D01*
X150792975Y-61830913D01*
X150768306Y-61855581D01*
X150708697Y-61885387D01*
X150653292Y-61885387D01*
X150548228Y-61850365D01*
X149993491Y-61295629D01*
X149978337Y-61283193D01*
X149942289Y-61268261D01*
X149903271Y-61268261D01*
X149867223Y-61283193D01*
X149839633Y-61310783D01*
X149824701Y-61346831D01*
X149822780Y-61366340D01*
X149711669Y-61366340D01*
X149711669Y-60273269D01*
X149822803Y-60273269D01*
X149831243Y-60311363D01*
X149853618Y-60343328D01*
X149886523Y-60364297D01*
X149924948Y-60371078D01*
X149963042Y-60362638D01*
X149980126Y-60353024D01*
X150308651Y-60123056D01*
X150309528Y-60125346D01*
X150357147Y-60220584D01*
X150362432Y-60228980D01*
X150363443Y-60231420D01*
X150365696Y-60234166D01*
X150367590Y-60237174D01*
X150369584Y-60238903D01*
X150375879Y-60246574D01*
X150423498Y-60294192D01*
X150431164Y-60300484D01*
X150432897Y-60302482D01*
X150435905Y-60304375D01*
X150438651Y-60306629D01*
X150441091Y-60307639D01*
X150449488Y-60312925D01*
X150544725Y-60360544D01*
X150563034Y-60367550D01*
X150566617Y-60367804D01*
X150569938Y-60369180D01*
X150589447Y-60371101D01*
X150732304Y-60371101D01*
X150751813Y-60369180D01*
X150755133Y-60367804D01*
X150758717Y-60367550D01*
X150777025Y-60360544D01*
X150872263Y-60312925D01*
X150880659Y-60307639D01*
X150883099Y-60306629D01*
X150885845Y-60304375D01*
X150888853Y-60302482D01*
X150890582Y-60300487D01*
X150898253Y-60294193D01*
X150945871Y-60246574D01*
X150952163Y-60238907D01*
X150954161Y-60237175D01*
X150956054Y-60234166D01*
X150958308Y-60231421D01*
X150959318Y-60228980D01*
X150964604Y-60220584D01*
X151012223Y-60125347D01*
X151019229Y-60107038D01*
X151019483Y-60103454D01*
X151020859Y-60100134D01*
X151022780Y-60080625D01*
X151022780Y-59699673D01*
X151020859Y-59680164D01*
X151005927Y-59644116D01*
X150978337Y-59616526D01*
X150942289Y-59601594D01*
X150922780Y-59599673D01*
X149922780Y-59599673D01*
X149903271Y-59601594D01*
X149867223Y-59616526D01*
X149839633Y-59644116D01*
X149824701Y-59680164D01*
X149824701Y-59719182D01*
X149839633Y-59755230D01*
X149867223Y-59782820D01*
X149903271Y-59797752D01*
X149922780Y-59799673D01*
X150298971Y-59799673D01*
X150298971Y-59885702D01*
X149865434Y-60189178D01*
X149850553Y-60201939D01*
X149829584Y-60234844D01*
X149822803Y-60273269D01*
X149711669Y-60273269D01*
X149711669Y-58842530D01*
X149822780Y-58842530D01*
X149822780Y-59033006D01*
X149824701Y-59052515D01*
X149826076Y-59055834D01*
X149826331Y-59059420D01*
X149833338Y-59077728D01*
X149880958Y-59172966D01*
X149886242Y-59181361D01*
X149887253Y-59183801D01*
X149889506Y-59186546D01*
X149891401Y-59189557D01*
X149893397Y-59191288D01*
X149899689Y-59198955D01*
X149994927Y-59294193D01*
X150010081Y-59306629D01*
X150016949Y-59309474D01*
X150022924Y-59313901D01*
X150041384Y-59320496D01*
X150231860Y-59368115D01*
X150235241Y-59368615D01*
X150236605Y-59369180D01*
X150243955Y-59369903D01*
X150251253Y-59370983D01*
X150252711Y-59370765D01*
X150256114Y-59371101D01*
X150589447Y-59371101D01*
X150592849Y-59370765D01*
X150594308Y-59370983D01*
X150601605Y-59369903D01*
X150608956Y-59369180D01*
X150610319Y-59368615D01*
X150613701Y-59368115D01*
X150804176Y-59320496D01*
X150822637Y-59313901D01*
X150828611Y-59309474D01*
X150835480Y-59306629D01*
X150850634Y-59294193D01*
X150945872Y-59198955D01*
X150952163Y-59191288D01*
X150954161Y-59189556D01*
X150956056Y-59186544D01*
X150958308Y-59183801D01*
X150959317Y-59181363D01*
X150964604Y-59172965D01*
X151012223Y-59077728D01*
X151019229Y-59059419D01*
X151019483Y-59055835D01*
X151020859Y-59052515D01*
X151022780Y-59033006D01*
X151022780Y-58842530D01*
X151020859Y-58823021D01*
X151019483Y-58819700D01*
X151019229Y-58816117D01*
X151012223Y-58797808D01*
X150964604Y-58702571D01*
X150959317Y-58694172D01*
X150958308Y-58691735D01*
X150956056Y-58688991D01*
X150954161Y-58685980D01*
X150952163Y-58684247D01*
X150945872Y-58676581D01*
X150850634Y-58581343D01*
X150835480Y-58568907D01*
X150828611Y-58566061D01*
X150822637Y-58561635D01*
X150804176Y-58555040D01*
X150613701Y-58507421D01*
X150610319Y-58506920D01*
X150608956Y-58506356D01*
X150601605Y-58505632D01*
X150594308Y-58504553D01*
X150592849Y-58504770D01*
X150589447Y-58504435D01*
X150256114Y-58504435D01*
X150252711Y-58504770D01*
X150251253Y-58504553D01*
X150243955Y-58505632D01*
X150236605Y-58506356D01*
X150235241Y-58506920D01*
X150231860Y-58507421D01*
X150041384Y-58555040D01*
X150022924Y-58561635D01*
X150016949Y-58566061D01*
X150010081Y-58568907D01*
X149994927Y-58581343D01*
X149899689Y-58676581D01*
X149893397Y-58684247D01*
X149891401Y-58685979D01*
X149889506Y-58688989D01*
X149887253Y-58691735D01*
X149886242Y-58694174D01*
X149880958Y-58702570D01*
X149833338Y-58797808D01*
X149826331Y-58816116D01*
X149826076Y-58819701D01*
X149824701Y-58823021D01*
X149822780Y-58842530D01*
X149711669Y-58842530D01*
X149711669Y-58013497D01*
X149824701Y-58013497D01*
X149824701Y-58052515D01*
X149839633Y-58088563D01*
X149867223Y-58116153D01*
X149903271Y-58131085D01*
X149922780Y-58133006D01*
X150822780Y-58133006D01*
X150822780Y-58318720D01*
X150824701Y-58338229D01*
X150839633Y-58374277D01*
X150867223Y-58401867D01*
X150903271Y-58416799D01*
X150942289Y-58416799D01*
X150978337Y-58401867D01*
X151005927Y-58374277D01*
X151020859Y-58338229D01*
X151022780Y-58318720D01*
X151022780Y-57747292D01*
X151020859Y-57727783D01*
X151005927Y-57691735D01*
X150978337Y-57664145D01*
X150942289Y-57649213D01*
X150903271Y-57649213D01*
X150867223Y-57664145D01*
X150839633Y-57691735D01*
X150824701Y-57727783D01*
X150822780Y-57747292D01*
X150822780Y-57933006D01*
X149922780Y-57933006D01*
X149903271Y-57934927D01*
X149867223Y-57949859D01*
X149839633Y-57977449D01*
X149824701Y-58013497D01*
X149711669Y-58013497D01*
X149711669Y-57033006D01*
X149822780Y-57033006D01*
X149822780Y-57223482D01*
X149824701Y-57242991D01*
X149826076Y-57246310D01*
X149826331Y-57249896D01*
X149833338Y-57268204D01*
X149880958Y-57363442D01*
X149886242Y-57371837D01*
X149887253Y-57374277D01*
X149889506Y-57377022D01*
X149891401Y-57380033D01*
X149893397Y-57381764D01*
X149899689Y-57389431D01*
X149994927Y-57484669D01*
X150010081Y-57497105D01*
X150016949Y-57499950D01*
X150022924Y-57504377D01*
X150041384Y-57510972D01*
X150231860Y-57558591D01*
X150235241Y-57559091D01*
X150236605Y-57559656D01*
X150243955Y-57560379D01*
X150251253Y-57561459D01*
X150252711Y-57561241D01*
X150256114Y-57561577D01*
X150589447Y-57561577D01*
X150592849Y-57561241D01*
X150594308Y-57561459D01*
X150601605Y-57560379D01*
X150608956Y-57559656D01*
X150610319Y-57559091D01*
X150613701Y-57558591D01*
X150804176Y-57510972D01*
X150822637Y-57504377D01*
X150828611Y-57499950D01*
X150835480Y-57497105D01*
X150850634Y-57484669D01*
X150945872Y-57389431D01*
X150952163Y-57381764D01*
X150954161Y-57380032D01*
X150956056Y-57377020D01*
X150958308Y-57374277D01*
X150959317Y-57371839D01*
X150964604Y-57363441D01*
X151012223Y-57268204D01*
X151019229Y-57249895D01*
X151019483Y-57246311D01*
X151020859Y-57242991D01*
X151022780Y-57223482D01*
X151022780Y-57033006D01*
X151020859Y-57013497D01*
X151019483Y-57010176D01*
X151019229Y-57006593D01*
X151012223Y-56988284D01*
X150964604Y-56893047D01*
X150959317Y-56884648D01*
X150958308Y-56882211D01*
X150956056Y-56879467D01*
X150954161Y-56876456D01*
X150952163Y-56874723D01*
X150945872Y-56867057D01*
X150850634Y-56771819D01*
X150835480Y-56759383D01*
X150828611Y-56756537D01*
X150822637Y-56752111D01*
X150804176Y-56745516D01*
X150613701Y-56697897D01*
X150610319Y-56697396D01*
X150608956Y-56696832D01*
X150601605Y-56696108D01*
X150594308Y-56695029D01*
X150592849Y-56695246D01*
X150589447Y-56694911D01*
X150256114Y-56694911D01*
X150252711Y-56695246D01*
X150251253Y-56695029D01*
X150243955Y-56696108D01*
X150236605Y-56696832D01*
X150235241Y-56697396D01*
X150231860Y-56697897D01*
X150041384Y-56745516D01*
X150022924Y-56752111D01*
X150016949Y-56756537D01*
X150010081Y-56759383D01*
X149994927Y-56771819D01*
X149899689Y-56867057D01*
X149893397Y-56874723D01*
X149891401Y-56876455D01*
X149889506Y-56879465D01*
X149887253Y-56882211D01*
X149886242Y-56884650D01*
X149880958Y-56893046D01*
X149833338Y-56988284D01*
X149826331Y-57006592D01*
X149826076Y-57010177D01*
X149824701Y-57013497D01*
X149822780Y-57033006D01*
X149711669Y-57033006D01*
X149711669Y-55680164D01*
X149824701Y-55680164D01*
X149824701Y-55719182D01*
X149839633Y-55755230D01*
X149867223Y-55782820D01*
X149903271Y-55797752D01*
X149922780Y-55799673D01*
X150472024Y-55799673D01*
X150166206Y-55942388D01*
X150159060Y-55946620D01*
X150156643Y-55947500D01*
X150154933Y-55949065D01*
X150149340Y-55952379D01*
X150139076Y-55963587D01*
X150127868Y-55973851D01*
X150125988Y-55977878D01*
X150122989Y-55981154D01*
X150117797Y-55995430D01*
X150111367Y-56009209D01*
X150111171Y-56013649D01*
X150109654Y-56017823D01*
X150110321Y-56033006D01*
X150109654Y-56048189D01*
X150111171Y-56052362D01*
X150111367Y-56056803D01*
X150117797Y-56070581D01*
X150122989Y-56084858D01*
X150125988Y-56088133D01*
X150127868Y-56092161D01*
X150139076Y-56102424D01*
X150149340Y-56113633D01*
X150154933Y-56116946D01*
X150156643Y-56118512D01*
X150159060Y-56119391D01*
X150166206Y-56123624D01*
X150472024Y-56266339D01*
X149922780Y-56266339D01*
X149903271Y-56268260D01*
X149867223Y-56283192D01*
X149839633Y-56310782D01*
X149824701Y-56346830D01*
X149824701Y-56385848D01*
X149839633Y-56421896D01*
X149867223Y-56449486D01*
X149903271Y-56464418D01*
X149922780Y-56466339D01*
X150922780Y-56466339D01*
X150935603Y-56465076D01*
X150937963Y-56465180D01*
X150939230Y-56464719D01*
X150942289Y-56464418D01*
X150958319Y-56457777D01*
X150974632Y-56451846D01*
X150976277Y-56450339D01*
X150978337Y-56449486D01*
X150990598Y-56437224D01*
X151003408Y-56425494D01*
X151004352Y-56423470D01*
X151005927Y-56421896D01*
X151012561Y-56405880D01*
X151019908Y-56390137D01*
X151020005Y-56387907D01*
X151020859Y-56385848D01*
X151020859Y-56368496D01*
X151021621Y-56351156D01*
X151020859Y-56349060D01*
X151020859Y-56346830D01*
X151014218Y-56330799D01*
X151008287Y-56314487D01*
X151006780Y-56312841D01*
X151005927Y-56310782D01*
X150993659Y-56298514D01*
X150981935Y-56285712D01*
X150979290Y-56284145D01*
X150978337Y-56283192D01*
X150976155Y-56282288D01*
X150965069Y-56275721D01*
X150444965Y-56033006D01*
X150965069Y-55790291D01*
X150976155Y-55783723D01*
X150978337Y-55782820D01*
X150979290Y-55781866D01*
X150981935Y-55780300D01*
X150993659Y-55767497D01*
X151005927Y-55755230D01*
X151006780Y-55753170D01*
X151008287Y-55751525D01*
X151014218Y-55735212D01*
X151020859Y-55719182D01*
X151020859Y-55716951D01*
X151021621Y-55714856D01*
X151020859Y-55697515D01*
X151020859Y-55680164D01*
X151020005Y-55678104D01*
X151019908Y-55675875D01*
X151012561Y-55660131D01*
X151005927Y-55644116D01*
X151004352Y-55642541D01*
X151003408Y-55640518D01*
X150990598Y-55628787D01*
X150978337Y-55616526D01*
X150976277Y-55615672D01*
X150974632Y-55614166D01*
X150958319Y-55608234D01*
X150942289Y-55601594D01*
X150939230Y-55601292D01*
X150937963Y-55600832D01*
X150935603Y-55600935D01*
X150922780Y-55599673D01*
X149922780Y-55599673D01*
X149903271Y-55601594D01*
X149867223Y-55616526D01*
X149839633Y-55644116D01*
X149824701Y-55680164D01*
X149711669Y-55680164D01*
X149711669Y-55488562D01*
X151133891Y-55488562D01*
X151133891Y-62196498D01*
G37*
G36*
X176526554Y-82471560D02*
G01*
X176551223Y-82496228D01*
X176581028Y-82555838D01*
X176581028Y-82813183D01*
X176257219Y-82813183D01*
X176257219Y-82555838D01*
X176287024Y-82496228D01*
X176311692Y-82471559D01*
X176371302Y-82441755D01*
X176466945Y-82441755D01*
X176526554Y-82471560D01*
G37*
G36*
X177368330Y-84981437D02*
G01*
X175946108Y-84981437D01*
X175946108Y-84294136D01*
X176057219Y-84294136D01*
X176057219Y-84770326D01*
X176059140Y-84789835D01*
X176074072Y-84825883D01*
X176101662Y-84853473D01*
X176137710Y-84868405D01*
X176157219Y-84870326D01*
X177157219Y-84870326D01*
X177176728Y-84868405D01*
X177212776Y-84853473D01*
X177240366Y-84825883D01*
X177255298Y-84789835D01*
X177257219Y-84770326D01*
X177257219Y-84294136D01*
X177255298Y-84274627D01*
X177240366Y-84238579D01*
X177212776Y-84210989D01*
X177176728Y-84196057D01*
X177137710Y-84196057D01*
X177101662Y-84210989D01*
X177074072Y-84238579D01*
X177059140Y-84274627D01*
X177057219Y-84294136D01*
X177057219Y-84670326D01*
X176733409Y-84670326D01*
X176733409Y-84436993D01*
X176731488Y-84417484D01*
X176716556Y-84381436D01*
X176688966Y-84353846D01*
X176652918Y-84338914D01*
X176613900Y-84338914D01*
X176577852Y-84353846D01*
X176550262Y-84381436D01*
X176535330Y-84417484D01*
X176533409Y-84436993D01*
X176533409Y-84670326D01*
X176257219Y-84670326D01*
X176257219Y-84294136D01*
X176255298Y-84274627D01*
X176240366Y-84238579D01*
X176212776Y-84210989D01*
X176176728Y-84196057D01*
X176137710Y-84196057D01*
X176101662Y-84210989D01*
X176074072Y-84238579D01*
X176059140Y-84274627D01*
X176057219Y-84294136D01*
X175946108Y-84294136D01*
X175946108Y-83484612D01*
X176057219Y-83484612D01*
X176057219Y-83722707D01*
X176059140Y-83742216D01*
X176060515Y-83745536D01*
X176060770Y-83749120D01*
X176067776Y-83767428D01*
X176115395Y-83862666D01*
X176120680Y-83871062D01*
X176121691Y-83873502D01*
X176123944Y-83876248D01*
X176125838Y-83879256D01*
X176127832Y-83880985D01*
X176134127Y-83888656D01*
X176181746Y-83936274D01*
X176189412Y-83942566D01*
X176191145Y-83944564D01*
X176194153Y-83946457D01*
X176196899Y-83948711D01*
X176199339Y-83949721D01*
X176207736Y-83955007D01*
X176302973Y-84002626D01*
X176321282Y-84009632D01*
X176324865Y-84009886D01*
X176328186Y-84011262D01*
X176347695Y-84013183D01*
X176442933Y-84013183D01*
X176462442Y-84011262D01*
X176465762Y-84009886D01*
X176469346Y-84009632D01*
X176487654Y-84002626D01*
X176582892Y-83955007D01*
X176591288Y-83949721D01*
X176593728Y-83948711D01*
X176596474Y-83946457D01*
X176599482Y-83944564D01*
X176601211Y-83942569D01*
X176608882Y-83936275D01*
X176656500Y-83888656D01*
X176662792Y-83880989D01*
X176664790Y-83879257D01*
X176666683Y-83876248D01*
X176668937Y-83873503D01*
X176669947Y-83871062D01*
X176675233Y-83862666D01*
X176722852Y-83767429D01*
X176723398Y-83766000D01*
X176723828Y-83765421D01*
X176726749Y-83757244D01*
X176729858Y-83749120D01*
X176729909Y-83748399D01*
X176730423Y-83746961D01*
X176775379Y-83567135D01*
X176810833Y-83496228D01*
X176835501Y-83471559D01*
X176895111Y-83441755D01*
X176943135Y-83441755D01*
X177002746Y-83471561D01*
X177027414Y-83496228D01*
X177057219Y-83555838D01*
X177057219Y-83754099D01*
X177014732Y-83881560D01*
X177010385Y-83900676D01*
X177013151Y-83939596D01*
X177030601Y-83974495D01*
X177060077Y-84000060D01*
X177097093Y-84012398D01*
X177136013Y-84009632D01*
X177170912Y-83992182D01*
X177196477Y-83962706D01*
X177204468Y-83944806D01*
X177252087Y-83801949D01*
X177254286Y-83792276D01*
X177255298Y-83789835D01*
X177255646Y-83786297D01*
X177256434Y-83782834D01*
X177256246Y-83780199D01*
X177257219Y-83770326D01*
X177257219Y-83532231D01*
X177255298Y-83512722D01*
X177253922Y-83509401D01*
X177253668Y-83505818D01*
X177246662Y-83487509D01*
X177199043Y-83392272D01*
X177193757Y-83383875D01*
X177192747Y-83381435D01*
X177190493Y-83378689D01*
X177188600Y-83375681D01*
X177186603Y-83373949D01*
X177180310Y-83366281D01*
X177132690Y-83318663D01*
X177125020Y-83312368D01*
X177123291Y-83310374D01*
X177120286Y-83308482D01*
X177117537Y-83306226D01*
X177115093Y-83305214D01*
X177106701Y-83299931D01*
X177011463Y-83252312D01*
X176993155Y-83245306D01*
X176989571Y-83245051D01*
X176986251Y-83243676D01*
X176966742Y-83241755D01*
X176871504Y-83241755D01*
X176851995Y-83243676D01*
X176848674Y-83245051D01*
X176845091Y-83245306D01*
X176826782Y-83252312D01*
X176731545Y-83299931D01*
X176723148Y-83305216D01*
X176720708Y-83306227D01*
X176717962Y-83308480D01*
X176714954Y-83310374D01*
X176713221Y-83312371D01*
X176705555Y-83318664D01*
X176657936Y-83366282D01*
X176651641Y-83373952D01*
X176649647Y-83375682D01*
X176647753Y-83378689D01*
X176645500Y-83381436D01*
X176644489Y-83383875D01*
X176639204Y-83392272D01*
X176591585Y-83487510D01*
X176591039Y-83488936D01*
X176590609Y-83489517D01*
X176587687Y-83497693D01*
X176584579Y-83505818D01*
X176584527Y-83506540D01*
X176584014Y-83507978D01*
X176539057Y-83687802D01*
X176503604Y-83758709D01*
X176478935Y-83783377D01*
X176419326Y-83813183D01*
X176371302Y-83813183D01*
X176311692Y-83783378D01*
X176287024Y-83758709D01*
X176257219Y-83699099D01*
X176257219Y-83500839D01*
X176299706Y-83373378D01*
X176304053Y-83354263D01*
X176301287Y-83315343D01*
X176283837Y-83280444D01*
X176254361Y-83254879D01*
X176217345Y-83242540D01*
X176178425Y-83245307D01*
X176143526Y-83262756D01*
X176117961Y-83292232D01*
X176109970Y-83310133D01*
X176062351Y-83452989D01*
X176060151Y-83462660D01*
X176059140Y-83465103D01*
X176058791Y-83468641D01*
X176058004Y-83472105D01*
X176058191Y-83474738D01*
X176057219Y-83484612D01*
X175946108Y-83484612D01*
X175946108Y-82532231D01*
X176057219Y-82532231D01*
X176057219Y-82913183D01*
X176059140Y-82932692D01*
X176074072Y-82968740D01*
X176101662Y-82996330D01*
X176137710Y-83011262D01*
X176157219Y-83013183D01*
X177157219Y-83013183D01*
X177176728Y-83011262D01*
X177212776Y-82996330D01*
X177240366Y-82968740D01*
X177255298Y-82932692D01*
X177255298Y-82893674D01*
X177240366Y-82857626D01*
X177212776Y-82830036D01*
X177176728Y-82815104D01*
X177157219Y-82813183D01*
X176781028Y-82813183D01*
X176781028Y-82532231D01*
X176779107Y-82512722D01*
X176777731Y-82509401D01*
X176777477Y-82505818D01*
X176770471Y-82487509D01*
X176722852Y-82392272D01*
X176717566Y-82383875D01*
X176716556Y-82381435D01*
X176714302Y-82378689D01*
X176712409Y-82375681D01*
X176710411Y-82373948D01*
X176704119Y-82366282D01*
X176656501Y-82318663D01*
X176648830Y-82312368D01*
X176647101Y-82310374D01*
X176644093Y-82308480D01*
X176641347Y-82306227D01*
X176638907Y-82305216D01*
X176630511Y-82299931D01*
X176535273Y-82252312D01*
X176516965Y-82245306D01*
X176513381Y-82245051D01*
X176510061Y-82243676D01*
X176490552Y-82241755D01*
X176347695Y-82241755D01*
X176328186Y-82243676D01*
X176324865Y-82245051D01*
X176321282Y-82245306D01*
X176302973Y-82252312D01*
X176207736Y-82299931D01*
X176199339Y-82305216D01*
X176196899Y-82306227D01*
X176194153Y-82308480D01*
X176191145Y-82310374D01*
X176189412Y-82312371D01*
X176181746Y-82318664D01*
X176134127Y-82366282D01*
X176127832Y-82373952D01*
X176125838Y-82375682D01*
X176123944Y-82378689D01*
X176121691Y-82381436D01*
X176120680Y-82383875D01*
X176115395Y-82392272D01*
X176067776Y-82487510D01*
X176060770Y-82505818D01*
X176060515Y-82509401D01*
X176059140Y-82512722D01*
X176057219Y-82532231D01*
X175946108Y-82532231D01*
X175946108Y-81389374D01*
X176057219Y-81389374D01*
X176057219Y-82008421D01*
X176059140Y-82027930D01*
X176074072Y-82063978D01*
X176101662Y-82091568D01*
X176137710Y-82106500D01*
X176176728Y-82106500D01*
X176212776Y-82091568D01*
X176240366Y-82063978D01*
X176255298Y-82027930D01*
X176257219Y-82008421D01*
X176257219Y-81609750D01*
X176472321Y-81797965D01*
X176480754Y-81803994D01*
X176482614Y-81805854D01*
X176484377Y-81806584D01*
X176488268Y-81809366D01*
X176503656Y-81814570D01*
X176518662Y-81820786D01*
X176522036Y-81820786D01*
X176525229Y-81821866D01*
X176541432Y-81820786D01*
X176557680Y-81820786D01*
X176560795Y-81819495D01*
X176564161Y-81819271D01*
X176578726Y-81812068D01*
X176593728Y-81805854D01*
X176596111Y-81803470D01*
X176599136Y-81801975D01*
X176609840Y-81789741D01*
X176621318Y-81778264D01*
X176622607Y-81775150D01*
X176624830Y-81772611D01*
X176630035Y-81757219D01*
X176636250Y-81742216D01*
X176636718Y-81737456D01*
X176637330Y-81735649D01*
X176637155Y-81733024D01*
X176638171Y-81722707D01*
X176638171Y-81603457D01*
X176667976Y-81543847D01*
X176692644Y-81519178D01*
X176752254Y-81489374D01*
X176943135Y-81489374D01*
X177002746Y-81519180D01*
X177027414Y-81543847D01*
X177057219Y-81603457D01*
X177057219Y-81841957D01*
X177027414Y-81901566D01*
X176991270Y-81937710D01*
X176978833Y-81952863D01*
X176963902Y-81988911D01*
X176963901Y-82027929D01*
X176978832Y-82063978D01*
X177006422Y-82091568D01*
X177042470Y-82106499D01*
X177081488Y-82106500D01*
X177117537Y-82091569D01*
X177132690Y-82079132D01*
X177180310Y-82031514D01*
X177186603Y-82023845D01*
X177188600Y-82022114D01*
X177190493Y-82019105D01*
X177192747Y-82016360D01*
X177193757Y-82013919D01*
X177199043Y-82005523D01*
X177246662Y-81910286D01*
X177253668Y-81891977D01*
X177253922Y-81888393D01*
X177255298Y-81885073D01*
X177257219Y-81865564D01*
X177257219Y-81579850D01*
X177255298Y-81560341D01*
X177253922Y-81557020D01*
X177253668Y-81553437D01*
X177246662Y-81535128D01*
X177199043Y-81439891D01*
X177193757Y-81431494D01*
X177192747Y-81429054D01*
X177190493Y-81426308D01*
X177188600Y-81423300D01*
X177186603Y-81421568D01*
X177180310Y-81413900D01*
X177132690Y-81366282D01*
X177125020Y-81359987D01*
X177123291Y-81357993D01*
X177120286Y-81356101D01*
X177117537Y-81353845D01*
X177115093Y-81352833D01*
X177106701Y-81347550D01*
X177011463Y-81299931D01*
X176993155Y-81292925D01*
X176989571Y-81292670D01*
X176986251Y-81291295D01*
X176966742Y-81289374D01*
X176728647Y-81289374D01*
X176709138Y-81291295D01*
X176705817Y-81292670D01*
X176702234Y-81292925D01*
X176683925Y-81299931D01*
X176588688Y-81347550D01*
X176580291Y-81352835D01*
X176577851Y-81353846D01*
X176575105Y-81356099D01*
X176572097Y-81357993D01*
X176570364Y-81359990D01*
X176562698Y-81366283D01*
X176515079Y-81413901D01*
X176508784Y-81421571D01*
X176506790Y-81423301D01*
X176504896Y-81426308D01*
X176502643Y-81429055D01*
X176501632Y-81431494D01*
X176496347Y-81439891D01*
X176456923Y-81518738D01*
X176223069Y-81314116D01*
X176214635Y-81308086D01*
X176212776Y-81306227D01*
X176211012Y-81305496D01*
X176207122Y-81302715D01*
X176191733Y-81297510D01*
X176176728Y-81291295D01*
X176173354Y-81291295D01*
X176170161Y-81290215D01*
X176153958Y-81291295D01*
X176137710Y-81291295D01*
X176134594Y-81292585D01*
X176131229Y-81292810D01*
X176116668Y-81300010D01*
X176101662Y-81306227D01*
X176099277Y-81308611D01*
X176096254Y-81310107D01*
X176085556Y-81322332D01*
X176074072Y-81333817D01*
X176072781Y-81336931D01*
X176070560Y-81339471D01*
X176065355Y-81354859D01*
X176059140Y-81369865D01*
X176058671Y-81374624D01*
X176058060Y-81376432D01*
X176058234Y-81379056D01*
X176057219Y-81389374D01*
X175946108Y-81389374D01*
X175946108Y-80627469D01*
X176057219Y-80627469D01*
X176057219Y-80865564D01*
X176059140Y-80885073D01*
X176060515Y-80888393D01*
X176060770Y-80891977D01*
X176067776Y-80910285D01*
X176115395Y-81005523D01*
X176120680Y-81013919D01*
X176121691Y-81016359D01*
X176123944Y-81019105D01*
X176125838Y-81022113D01*
X176127832Y-81023842D01*
X176134127Y-81031513D01*
X176181746Y-81079131D01*
X176196899Y-81091568D01*
X176232948Y-81106499D01*
X176271966Y-81106499D01*
X176308014Y-81091568D01*
X176335604Y-81063978D01*
X176350535Y-81027930D01*
X176350535Y-80988912D01*
X176335604Y-80952863D01*
X176323167Y-80937710D01*
X176287024Y-80901566D01*
X176257219Y-80841956D01*
X176257219Y-80651076D01*
X176287024Y-80591466D01*
X176311692Y-80566797D01*
X176371302Y-80536993D01*
X176426706Y-80536993D01*
X176531770Y-80572014D01*
X177086508Y-81126751D01*
X177101662Y-81139187D01*
X177137710Y-81154119D01*
X177176728Y-81154119D01*
X177212776Y-81139187D01*
X177240366Y-81111597D01*
X177255298Y-81075549D01*
X177257219Y-81056040D01*
X177257219Y-80436993D01*
X177255298Y-80417484D01*
X177240366Y-80381436D01*
X177212776Y-80353846D01*
X177176728Y-80338914D01*
X177137710Y-80338914D01*
X177101662Y-80353846D01*
X177074072Y-80381436D01*
X177059140Y-80417484D01*
X177057219Y-80436993D01*
X177057219Y-80814618D01*
X176656501Y-80413901D01*
X176641347Y-80401465D01*
X176638028Y-80400090D01*
X176635313Y-80397735D01*
X176617412Y-80389744D01*
X176474556Y-80342125D01*
X176464884Y-80339925D01*
X176462442Y-80338914D01*
X176458903Y-80338565D01*
X176455440Y-80337778D01*
X176452806Y-80337965D01*
X176442933Y-80336993D01*
X176347695Y-80336993D01*
X176328186Y-80338914D01*
X176324865Y-80340289D01*
X176321282Y-80340544D01*
X176302973Y-80347550D01*
X176207736Y-80395169D01*
X176199339Y-80400454D01*
X176196899Y-80401465D01*
X176194153Y-80403718D01*
X176191145Y-80405612D01*
X176189412Y-80407609D01*
X176181746Y-80413902D01*
X176134127Y-80461520D01*
X176127832Y-80469190D01*
X176125838Y-80470920D01*
X176123944Y-80473927D01*
X176121691Y-80476674D01*
X176120680Y-80479113D01*
X176115395Y-80487510D01*
X176067776Y-80582748D01*
X176060770Y-80601056D01*
X176060515Y-80604639D01*
X176059140Y-80607960D01*
X176057219Y-80627469D01*
X175946108Y-80627469D01*
X175946108Y-80225882D01*
X177368330Y-80225882D01*
X177368330Y-84981437D01*
G37*
D11*
X151791653Y-67383358D02*
X151791653Y-68145263D01*
X151410700Y-67764310D02*
X152172605Y-67764310D01*
X151791653Y-70907168D02*
X151791653Y-71669073D01*
X151748346Y-60376641D02*
X151748346Y-59614737D01*
X152129299Y-59995689D02*
X151367394Y-59995689D01*
X151748346Y-57614736D02*
X151748346Y-56852832D01*
X165433333Y-74259060D02*
X165385714Y-74306680D01*
X165385714Y-74306680D02*
X165242857Y-74354299D01*
X165242857Y-74354299D02*
X165147619Y-74354299D01*
X165147619Y-74354299D02*
X165004762Y-74306680D01*
X165004762Y-74306680D02*
X164909524Y-74211441D01*
X164909524Y-74211441D02*
X164861905Y-74116203D01*
X164861905Y-74116203D02*
X164814286Y-73925727D01*
X164814286Y-73925727D02*
X164814286Y-73782870D01*
X164814286Y-73782870D02*
X164861905Y-73592394D01*
X164861905Y-73592394D02*
X164909524Y-73497156D01*
X164909524Y-73497156D02*
X165004762Y-73401918D01*
X165004762Y-73401918D02*
X165147619Y-73354299D01*
X165147619Y-73354299D02*
X165242857Y-73354299D01*
X165242857Y-73354299D02*
X165385714Y-73401918D01*
X165385714Y-73401918D02*
X165433333Y-73449537D01*
X165766667Y-73354299D02*
X166385714Y-73354299D01*
X166385714Y-73354299D02*
X166052381Y-73735251D01*
X166052381Y-73735251D02*
X166195238Y-73735251D01*
X166195238Y-73735251D02*
X166290476Y-73782870D01*
X166290476Y-73782870D02*
X166338095Y-73830489D01*
X166338095Y-73830489D02*
X166385714Y-73925727D01*
X166385714Y-73925727D02*
X166385714Y-74163822D01*
X166385714Y-74163822D02*
X166338095Y-74259060D01*
X166338095Y-74259060D02*
X166290476Y-74306680D01*
X166290476Y-74306680D02*
X166195238Y-74354299D01*
X166195238Y-74354299D02*
X165909524Y-74354299D01*
X165909524Y-74354299D02*
X165814286Y-74306680D01*
X165814286Y-74306680D02*
X165766667Y-74259060D01*
X156954299Y-68108094D02*
X155954299Y-68108094D01*
X155954299Y-68108094D02*
X155954299Y-67869999D01*
X155954299Y-67869999D02*
X156001918Y-67727142D01*
X156001918Y-67727142D02*
X156097156Y-67631904D01*
X156097156Y-67631904D02*
X156192394Y-67584285D01*
X156192394Y-67584285D02*
X156382870Y-67536666D01*
X156382870Y-67536666D02*
X156525727Y-67536666D01*
X156525727Y-67536666D02*
X156716203Y-67584285D01*
X156716203Y-67584285D02*
X156811441Y-67631904D01*
X156811441Y-67631904D02*
X156906680Y-67727142D01*
X156906680Y-67727142D02*
X156954299Y-67869999D01*
X156954299Y-67869999D02*
X156954299Y-68108094D01*
X155954299Y-67203332D02*
X155954299Y-66584285D01*
X155954299Y-66584285D02*
X156335251Y-66917618D01*
X156335251Y-66917618D02*
X156335251Y-66774761D01*
X156335251Y-66774761D02*
X156382870Y-66679523D01*
X156382870Y-66679523D02*
X156430489Y-66631904D01*
X156430489Y-66631904D02*
X156525727Y-66584285D01*
X156525727Y-66584285D02*
X156763822Y-66584285D01*
X156763822Y-66584285D02*
X156859060Y-66631904D01*
X156859060Y-66631904D02*
X156906680Y-66679523D01*
X156906680Y-66679523D02*
X156954299Y-66774761D01*
X156954299Y-66774761D02*
X156954299Y-67060475D01*
X156954299Y-67060475D02*
X156906680Y-67155713D01*
X156906680Y-67155713D02*
X156859060Y-67203332D01*
X157923333Y-68189060D02*
X157875714Y-68236680D01*
X157875714Y-68236680D02*
X157732857Y-68284299D01*
X157732857Y-68284299D02*
X157637619Y-68284299D01*
X157637619Y-68284299D02*
X157494762Y-68236680D01*
X157494762Y-68236680D02*
X157399524Y-68141441D01*
X157399524Y-68141441D02*
X157351905Y-68046203D01*
X157351905Y-68046203D02*
X157304286Y-67855727D01*
X157304286Y-67855727D02*
X157304286Y-67712870D01*
X157304286Y-67712870D02*
X157351905Y-67522394D01*
X157351905Y-67522394D02*
X157399524Y-67427156D01*
X157399524Y-67427156D02*
X157494762Y-67331918D01*
X157494762Y-67331918D02*
X157637619Y-67284299D01*
X157637619Y-67284299D02*
X157732857Y-67284299D01*
X157732857Y-67284299D02*
X157875714Y-67331918D01*
X157875714Y-67331918D02*
X157923333Y-67379537D01*
X158256667Y-67284299D02*
X158923333Y-67284299D01*
X158923333Y-67284299D02*
X158494762Y-68284299D01*
X163874299Y-70582857D02*
X163398108Y-70916190D01*
X163874299Y-71154285D02*
X162874299Y-71154285D01*
X162874299Y-71154285D02*
X162874299Y-70773333D01*
X162874299Y-70773333D02*
X162921918Y-70678095D01*
X162921918Y-70678095D02*
X162969537Y-70630476D01*
X162969537Y-70630476D02*
X163064775Y-70582857D01*
X163064775Y-70582857D02*
X163207632Y-70582857D01*
X163207632Y-70582857D02*
X163302870Y-70630476D01*
X163302870Y-70630476D02*
X163350489Y-70678095D01*
X163350489Y-70678095D02*
X163398108Y-70773333D01*
X163398108Y-70773333D02*
X163398108Y-71154285D01*
X163874299Y-69630476D02*
X163874299Y-70201904D01*
X163874299Y-69916190D02*
X162874299Y-69916190D01*
X162874299Y-69916190D02*
X163017156Y-70011428D01*
X163017156Y-70011428D02*
X163112394Y-70106666D01*
X163112394Y-70106666D02*
X163160013Y-70201904D01*
X162874299Y-69011428D02*
X162874299Y-68916190D01*
X162874299Y-68916190D02*
X162921918Y-68820952D01*
X162921918Y-68820952D02*
X162969537Y-68773333D01*
X162969537Y-68773333D02*
X163064775Y-68725714D01*
X163064775Y-68725714D02*
X163255251Y-68678095D01*
X163255251Y-68678095D02*
X163493346Y-68678095D01*
X163493346Y-68678095D02*
X163683822Y-68725714D01*
X163683822Y-68725714D02*
X163779060Y-68773333D01*
X163779060Y-68773333D02*
X163826680Y-68820952D01*
X163826680Y-68820952D02*
X163874299Y-68916190D01*
X163874299Y-68916190D02*
X163874299Y-69011428D01*
X163874299Y-69011428D02*
X163826680Y-69106666D01*
X163826680Y-69106666D02*
X163779060Y-69154285D01*
X163779060Y-69154285D02*
X163683822Y-69201904D01*
X163683822Y-69201904D02*
X163493346Y-69249523D01*
X163493346Y-69249523D02*
X163255251Y-69249523D01*
X163255251Y-69249523D02*
X163064775Y-69201904D01*
X163064775Y-69201904D02*
X162969537Y-69154285D01*
X162969537Y-69154285D02*
X162921918Y-69106666D01*
X162921918Y-69106666D02*
X162874299Y-69011428D01*
X170666666Y-59442989D02*
X170333333Y-59442989D01*
X170333333Y-59966799D02*
X170333333Y-58966799D01*
X170333333Y-58966799D02*
X170809523Y-58966799D01*
X171523809Y-59442989D02*
X171666666Y-59490608D01*
X171666666Y-59490608D02*
X171714285Y-59538227D01*
X171714285Y-59538227D02*
X171761904Y-59633465D01*
X171761904Y-59633465D02*
X171761904Y-59776322D01*
X171761904Y-59776322D02*
X171714285Y-59871560D01*
X171714285Y-59871560D02*
X171666666Y-59919180D01*
X171666666Y-59919180D02*
X171571428Y-59966799D01*
X171571428Y-59966799D02*
X171190476Y-59966799D01*
X171190476Y-59966799D02*
X171190476Y-58966799D01*
X171190476Y-58966799D02*
X171523809Y-58966799D01*
X171523809Y-58966799D02*
X171619047Y-59014418D01*
X171619047Y-59014418D02*
X171666666Y-59062037D01*
X171666666Y-59062037D02*
X171714285Y-59157275D01*
X171714285Y-59157275D02*
X171714285Y-59252513D01*
X171714285Y-59252513D02*
X171666666Y-59347751D01*
X171666666Y-59347751D02*
X171619047Y-59395370D01*
X171619047Y-59395370D02*
X171523809Y-59442989D01*
X171523809Y-59442989D02*
X171190476Y-59442989D01*
X172714285Y-59966799D02*
X172142857Y-59966799D01*
X172428571Y-59966799D02*
X172428571Y-58966799D01*
X172428571Y-58966799D02*
X172333333Y-59109656D01*
X172333333Y-59109656D02*
X172238095Y-59204894D01*
X172238095Y-59204894D02*
X172142857Y-59252513D01*
X164733333Y-65959060D02*
X164685714Y-66006680D01*
X164685714Y-66006680D02*
X164542857Y-66054299D01*
X164542857Y-66054299D02*
X164447619Y-66054299D01*
X164447619Y-66054299D02*
X164304762Y-66006680D01*
X164304762Y-66006680D02*
X164209524Y-65911441D01*
X164209524Y-65911441D02*
X164161905Y-65816203D01*
X164161905Y-65816203D02*
X164114286Y-65625727D01*
X164114286Y-65625727D02*
X164114286Y-65482870D01*
X164114286Y-65482870D02*
X164161905Y-65292394D01*
X164161905Y-65292394D02*
X164209524Y-65197156D01*
X164209524Y-65197156D02*
X164304762Y-65101918D01*
X164304762Y-65101918D02*
X164447619Y-65054299D01*
X164447619Y-65054299D02*
X164542857Y-65054299D01*
X164542857Y-65054299D02*
X164685714Y-65101918D01*
X164685714Y-65101918D02*
X164733333Y-65149537D01*
X165590476Y-65387632D02*
X165590476Y-66054299D01*
X165352381Y-65006680D02*
X165114286Y-65720965D01*
X165114286Y-65720965D02*
X165733333Y-65720965D01*
X170333333Y-70254299D02*
X170000000Y-69778108D01*
X169761905Y-70254299D02*
X169761905Y-69254299D01*
X169761905Y-69254299D02*
X170142857Y-69254299D01*
X170142857Y-69254299D02*
X170238095Y-69301918D01*
X170238095Y-69301918D02*
X170285714Y-69349537D01*
X170285714Y-69349537D02*
X170333333Y-69444775D01*
X170333333Y-69444775D02*
X170333333Y-69587632D01*
X170333333Y-69587632D02*
X170285714Y-69682870D01*
X170285714Y-69682870D02*
X170238095Y-69730489D01*
X170238095Y-69730489D02*
X170142857Y-69778108D01*
X170142857Y-69778108D02*
X169761905Y-69778108D01*
X170809524Y-70254299D02*
X171000000Y-70254299D01*
X171000000Y-70254299D02*
X171095238Y-70206680D01*
X171095238Y-70206680D02*
X171142857Y-70159060D01*
X171142857Y-70159060D02*
X171238095Y-70016203D01*
X171238095Y-70016203D02*
X171285714Y-69825727D01*
X171285714Y-69825727D02*
X171285714Y-69444775D01*
X171285714Y-69444775D02*
X171238095Y-69349537D01*
X171238095Y-69349537D02*
X171190476Y-69301918D01*
X171190476Y-69301918D02*
X171095238Y-69254299D01*
X171095238Y-69254299D02*
X170904762Y-69254299D01*
X170904762Y-69254299D02*
X170809524Y-69301918D01*
X170809524Y-69301918D02*
X170761905Y-69349537D01*
X170761905Y-69349537D02*
X170714286Y-69444775D01*
X170714286Y-69444775D02*
X170714286Y-69682870D01*
X170714286Y-69682870D02*
X170761905Y-69778108D01*
X170761905Y-69778108D02*
X170809524Y-69825727D01*
X170809524Y-69825727D02*
X170904762Y-69873346D01*
X170904762Y-69873346D02*
X171095238Y-69873346D01*
X171095238Y-69873346D02*
X171190476Y-69825727D01*
X171190476Y-69825727D02*
X171238095Y-69778108D01*
X171238095Y-69778108D02*
X171285714Y-69682870D01*
X180394299Y-57318094D02*
X179394299Y-57318094D01*
X179394299Y-57318094D02*
X179394299Y-57079999D01*
X179394299Y-57079999D02*
X179441918Y-56937142D01*
X179441918Y-56937142D02*
X179537156Y-56841904D01*
X179537156Y-56841904D02*
X179632394Y-56794285D01*
X179632394Y-56794285D02*
X179822870Y-56746666D01*
X179822870Y-56746666D02*
X179965727Y-56746666D01*
X179965727Y-56746666D02*
X180156203Y-56794285D01*
X180156203Y-56794285D02*
X180251441Y-56841904D01*
X180251441Y-56841904D02*
X180346680Y-56937142D01*
X180346680Y-56937142D02*
X180394299Y-57079999D01*
X180394299Y-57079999D02*
X180394299Y-57318094D01*
X180394299Y-55794285D02*
X180394299Y-56365713D01*
X180394299Y-56079999D02*
X179394299Y-56079999D01*
X179394299Y-56079999D02*
X179537156Y-56175237D01*
X179537156Y-56175237D02*
X179632394Y-56270475D01*
X179632394Y-56270475D02*
X179680013Y-56365713D01*
X178537142Y-77884299D02*
X178203809Y-77408108D01*
X177965714Y-77884299D02*
X177965714Y-76884299D01*
X177965714Y-76884299D02*
X178346666Y-76884299D01*
X178346666Y-76884299D02*
X178441904Y-76931918D01*
X178441904Y-76931918D02*
X178489523Y-76979537D01*
X178489523Y-76979537D02*
X178537142Y-77074775D01*
X178537142Y-77074775D02*
X178537142Y-77217632D01*
X178537142Y-77217632D02*
X178489523Y-77312870D01*
X178489523Y-77312870D02*
X178441904Y-77360489D01*
X178441904Y-77360489D02*
X178346666Y-77408108D01*
X178346666Y-77408108D02*
X177965714Y-77408108D01*
X179489523Y-77884299D02*
X178918095Y-77884299D01*
X179203809Y-77884299D02*
X179203809Y-76884299D01*
X179203809Y-76884299D02*
X179108571Y-77027156D01*
X179108571Y-77027156D02*
X179013333Y-77122394D01*
X179013333Y-77122394D02*
X178918095Y-77170013D01*
X179870476Y-76979537D02*
X179918095Y-76931918D01*
X179918095Y-76931918D02*
X180013333Y-76884299D01*
X180013333Y-76884299D02*
X180251428Y-76884299D01*
X180251428Y-76884299D02*
X180346666Y-76931918D01*
X180346666Y-76931918D02*
X180394285Y-76979537D01*
X180394285Y-76979537D02*
X180441904Y-77074775D01*
X180441904Y-77074775D02*
X180441904Y-77170013D01*
X180441904Y-77170013D02*
X180394285Y-77312870D01*
X180394285Y-77312870D02*
X179822857Y-77884299D01*
X179822857Y-77884299D02*
X180441904Y-77884299D01*
X182217261Y-77949537D02*
X182122023Y-77901918D01*
X182122023Y-77901918D02*
X182026785Y-77806680D01*
X182026785Y-77806680D02*
X181883928Y-77663822D01*
X181883928Y-77663822D02*
X181788690Y-77616203D01*
X181788690Y-77616203D02*
X181693452Y-77616203D01*
X181741071Y-77854299D02*
X181645833Y-77806680D01*
X181645833Y-77806680D02*
X181550595Y-77711441D01*
X181550595Y-77711441D02*
X181502976Y-77520965D01*
X181502976Y-77520965D02*
X181502976Y-77187632D01*
X181502976Y-77187632D02*
X181550595Y-76997156D01*
X181550595Y-76997156D02*
X181645833Y-76901918D01*
X181645833Y-76901918D02*
X181741071Y-76854299D01*
X181741071Y-76854299D02*
X181931547Y-76854299D01*
X181931547Y-76854299D02*
X182026785Y-76901918D01*
X182026785Y-76901918D02*
X182122023Y-76997156D01*
X182122023Y-76997156D02*
X182169642Y-77187632D01*
X182169642Y-77187632D02*
X182169642Y-77520965D01*
X182169642Y-77520965D02*
X182122023Y-77711441D01*
X182122023Y-77711441D02*
X182026785Y-77806680D01*
X182026785Y-77806680D02*
X181931547Y-77854299D01*
X181931547Y-77854299D02*
X181741071Y-77854299D01*
X183026785Y-77187632D02*
X183026785Y-77854299D01*
X182788690Y-76806680D02*
X182550595Y-77520965D01*
X182550595Y-77520965D02*
X183169642Y-77520965D01*
X158459060Y-56966666D02*
X158506680Y-57014285D01*
X158506680Y-57014285D02*
X158554299Y-57157142D01*
X158554299Y-57157142D02*
X158554299Y-57252380D01*
X158554299Y-57252380D02*
X158506680Y-57395237D01*
X158506680Y-57395237D02*
X158411441Y-57490475D01*
X158411441Y-57490475D02*
X158316203Y-57538094D01*
X158316203Y-57538094D02*
X158125727Y-57585713D01*
X158125727Y-57585713D02*
X157982870Y-57585713D01*
X157982870Y-57585713D02*
X157792394Y-57538094D01*
X157792394Y-57538094D02*
X157697156Y-57490475D01*
X157697156Y-57490475D02*
X157601918Y-57395237D01*
X157601918Y-57395237D02*
X157554299Y-57252380D01*
X157554299Y-57252380D02*
X157554299Y-57157142D01*
X157554299Y-57157142D02*
X157601918Y-57014285D01*
X157601918Y-57014285D02*
X157649537Y-56966666D01*
X157554299Y-56109523D02*
X157554299Y-56299999D01*
X157554299Y-56299999D02*
X157601918Y-56395237D01*
X157601918Y-56395237D02*
X157649537Y-56442856D01*
X157649537Y-56442856D02*
X157792394Y-56538094D01*
X157792394Y-56538094D02*
X157982870Y-56585713D01*
X157982870Y-56585713D02*
X158363822Y-56585713D01*
X158363822Y-56585713D02*
X158459060Y-56538094D01*
X158459060Y-56538094D02*
X158506680Y-56490475D01*
X158506680Y-56490475D02*
X158554299Y-56395237D01*
X158554299Y-56395237D02*
X158554299Y-56204761D01*
X158554299Y-56204761D02*
X158506680Y-56109523D01*
X158506680Y-56109523D02*
X158459060Y-56061904D01*
X158459060Y-56061904D02*
X158363822Y-56014285D01*
X158363822Y-56014285D02*
X158125727Y-56014285D01*
X158125727Y-56014285D02*
X158030489Y-56061904D01*
X158030489Y-56061904D02*
X157982870Y-56109523D01*
X157982870Y-56109523D02*
X157935251Y-56204761D01*
X157935251Y-56204761D02*
X157935251Y-56395237D01*
X157935251Y-56395237D02*
X157982870Y-56490475D01*
X157982870Y-56490475D02*
X158030489Y-56538094D01*
X158030489Y-56538094D02*
X158125727Y-56585713D01*
X170350095Y-67254299D02*
X170350095Y-68063822D01*
X170350095Y-68063822D02*
X170397714Y-68159060D01*
X170397714Y-68159060D02*
X170445333Y-68206680D01*
X170445333Y-68206680D02*
X170540571Y-68254299D01*
X170540571Y-68254299D02*
X170731047Y-68254299D01*
X170731047Y-68254299D02*
X170826285Y-68206680D01*
X170826285Y-68206680D02*
X170873904Y-68159060D01*
X170873904Y-68159060D02*
X170921523Y-68063822D01*
X170921523Y-68063822D02*
X170921523Y-67254299D01*
X171921523Y-68254299D02*
X171350095Y-68254299D01*
X171635809Y-68254299D02*
X171635809Y-67254299D01*
X171635809Y-67254299D02*
X171540571Y-67397156D01*
X171540571Y-67397156D02*
X171445333Y-67492394D01*
X171445333Y-67492394D02*
X171350095Y-67540013D01*
X157133333Y-72354299D02*
X156800000Y-71878108D01*
X156561905Y-72354299D02*
X156561905Y-71354299D01*
X156561905Y-71354299D02*
X156942857Y-71354299D01*
X156942857Y-71354299D02*
X157038095Y-71401918D01*
X157038095Y-71401918D02*
X157085714Y-71449537D01*
X157085714Y-71449537D02*
X157133333Y-71544775D01*
X157133333Y-71544775D02*
X157133333Y-71687632D01*
X157133333Y-71687632D02*
X157085714Y-71782870D01*
X157085714Y-71782870D02*
X157038095Y-71830489D01*
X157038095Y-71830489D02*
X156942857Y-71878108D01*
X156942857Y-71878108D02*
X156561905Y-71878108D01*
X157704762Y-71782870D02*
X157609524Y-71735251D01*
X157609524Y-71735251D02*
X157561905Y-71687632D01*
X157561905Y-71687632D02*
X157514286Y-71592394D01*
X157514286Y-71592394D02*
X157514286Y-71544775D01*
X157514286Y-71544775D02*
X157561905Y-71449537D01*
X157561905Y-71449537D02*
X157609524Y-71401918D01*
X157609524Y-71401918D02*
X157704762Y-71354299D01*
X157704762Y-71354299D02*
X157895238Y-71354299D01*
X157895238Y-71354299D02*
X157990476Y-71401918D01*
X157990476Y-71401918D02*
X158038095Y-71449537D01*
X158038095Y-71449537D02*
X158085714Y-71544775D01*
X158085714Y-71544775D02*
X158085714Y-71592394D01*
X158085714Y-71592394D02*
X158038095Y-71687632D01*
X158038095Y-71687632D02*
X157990476Y-71735251D01*
X157990476Y-71735251D02*
X157895238Y-71782870D01*
X157895238Y-71782870D02*
X157704762Y-71782870D01*
X157704762Y-71782870D02*
X157609524Y-71830489D01*
X157609524Y-71830489D02*
X157561905Y-71878108D01*
X157561905Y-71878108D02*
X157514286Y-71973346D01*
X157514286Y-71973346D02*
X157514286Y-72163822D01*
X157514286Y-72163822D02*
X157561905Y-72259060D01*
X157561905Y-72259060D02*
X157609524Y-72306680D01*
X157609524Y-72306680D02*
X157704762Y-72354299D01*
X157704762Y-72354299D02*
X157895238Y-72354299D01*
X157895238Y-72354299D02*
X157990476Y-72306680D01*
X157990476Y-72306680D02*
X158038095Y-72259060D01*
X158038095Y-72259060D02*
X158085714Y-72163822D01*
X158085714Y-72163822D02*
X158085714Y-71973346D01*
X158085714Y-71973346D02*
X158038095Y-71878108D01*
X158038095Y-71878108D02*
X157990476Y-71830489D01*
X157990476Y-71830489D02*
X157895238Y-71782870D01*
X158854299Y-74266666D02*
X158378108Y-74599999D01*
X158854299Y-74838094D02*
X157854299Y-74838094D01*
X157854299Y-74838094D02*
X157854299Y-74457142D01*
X157854299Y-74457142D02*
X157901918Y-74361904D01*
X157901918Y-74361904D02*
X157949537Y-74314285D01*
X157949537Y-74314285D02*
X158044775Y-74266666D01*
X158044775Y-74266666D02*
X158187632Y-74266666D01*
X158187632Y-74266666D02*
X158282870Y-74314285D01*
X158282870Y-74314285D02*
X158330489Y-74361904D01*
X158330489Y-74361904D02*
X158378108Y-74457142D01*
X158378108Y-74457142D02*
X158378108Y-74838094D01*
X157854299Y-73933332D02*
X157854299Y-73266666D01*
X157854299Y-73266666D02*
X158854299Y-73695237D01*
X157933333Y-66754299D02*
X157600000Y-66278108D01*
X157361905Y-66754299D02*
X157361905Y-65754299D01*
X157361905Y-65754299D02*
X157742857Y-65754299D01*
X157742857Y-65754299D02*
X157838095Y-65801918D01*
X157838095Y-65801918D02*
X157885714Y-65849537D01*
X157885714Y-65849537D02*
X157933333Y-65944775D01*
X157933333Y-65944775D02*
X157933333Y-66087632D01*
X157933333Y-66087632D02*
X157885714Y-66182870D01*
X157885714Y-66182870D02*
X157838095Y-66230489D01*
X157838095Y-66230489D02*
X157742857Y-66278108D01*
X157742857Y-66278108D02*
X157361905Y-66278108D01*
X158266667Y-65754299D02*
X158885714Y-65754299D01*
X158885714Y-65754299D02*
X158552381Y-66135251D01*
X158552381Y-66135251D02*
X158695238Y-66135251D01*
X158695238Y-66135251D02*
X158790476Y-66182870D01*
X158790476Y-66182870D02*
X158838095Y-66230489D01*
X158838095Y-66230489D02*
X158885714Y-66325727D01*
X158885714Y-66325727D02*
X158885714Y-66563822D01*
X158885714Y-66563822D02*
X158838095Y-66659060D01*
X158838095Y-66659060D02*
X158790476Y-66706680D01*
X158790476Y-66706680D02*
X158695238Y-66754299D01*
X158695238Y-66754299D02*
X158409524Y-66754299D01*
X158409524Y-66754299D02*
X158314286Y-66706680D01*
X158314286Y-66706680D02*
X158266667Y-66659060D01*
X178157142Y-72954299D02*
X177823809Y-72478108D01*
X177585714Y-72954299D02*
X177585714Y-71954299D01*
X177585714Y-71954299D02*
X177966666Y-71954299D01*
X177966666Y-71954299D02*
X178061904Y-72001918D01*
X178061904Y-72001918D02*
X178109523Y-72049537D01*
X178109523Y-72049537D02*
X178157142Y-72144775D01*
X178157142Y-72144775D02*
X178157142Y-72287632D01*
X178157142Y-72287632D02*
X178109523Y-72382870D01*
X178109523Y-72382870D02*
X178061904Y-72430489D01*
X178061904Y-72430489D02*
X177966666Y-72478108D01*
X177966666Y-72478108D02*
X177585714Y-72478108D01*
X179109523Y-72954299D02*
X178538095Y-72954299D01*
X178823809Y-72954299D02*
X178823809Y-71954299D01*
X178823809Y-71954299D02*
X178728571Y-72097156D01*
X178728571Y-72097156D02*
X178633333Y-72192394D01*
X178633333Y-72192394D02*
X178538095Y-72240013D01*
X180061904Y-72954299D02*
X179490476Y-72954299D01*
X179776190Y-72954299D02*
X179776190Y-71954299D01*
X179776190Y-71954299D02*
X179680952Y-72097156D01*
X179680952Y-72097156D02*
X179585714Y-72192394D01*
X179585714Y-72192394D02*
X179490476Y-72240013D01*
X154104761Y-77949537D02*
X154009523Y-77901918D01*
X154009523Y-77901918D02*
X153914285Y-77806680D01*
X153914285Y-77806680D02*
X153771428Y-77663822D01*
X153771428Y-77663822D02*
X153676190Y-77616203D01*
X153676190Y-77616203D02*
X153580952Y-77616203D01*
X153628571Y-77854299D02*
X153533333Y-77806680D01*
X153533333Y-77806680D02*
X153438095Y-77711441D01*
X153438095Y-77711441D02*
X153390476Y-77520965D01*
X153390476Y-77520965D02*
X153390476Y-77187632D01*
X153390476Y-77187632D02*
X153438095Y-76997156D01*
X153438095Y-76997156D02*
X153533333Y-76901918D01*
X153533333Y-76901918D02*
X153628571Y-76854299D01*
X153628571Y-76854299D02*
X153819047Y-76854299D01*
X153819047Y-76854299D02*
X153914285Y-76901918D01*
X153914285Y-76901918D02*
X154009523Y-76997156D01*
X154009523Y-76997156D02*
X154057142Y-77187632D01*
X154057142Y-77187632D02*
X154057142Y-77520965D01*
X154057142Y-77520965D02*
X154009523Y-77711441D01*
X154009523Y-77711441D02*
X153914285Y-77806680D01*
X153914285Y-77806680D02*
X153819047Y-77854299D01*
X153819047Y-77854299D02*
X153628571Y-77854299D01*
X154390476Y-76854299D02*
X155009523Y-76854299D01*
X155009523Y-76854299D02*
X154676190Y-77235251D01*
X154676190Y-77235251D02*
X154819047Y-77235251D01*
X154819047Y-77235251D02*
X154914285Y-77282870D01*
X154914285Y-77282870D02*
X154961904Y-77330489D01*
X154961904Y-77330489D02*
X155009523Y-77425727D01*
X155009523Y-77425727D02*
X155009523Y-77663822D01*
X155009523Y-77663822D02*
X154961904Y-77759060D01*
X154961904Y-77759060D02*
X154914285Y-77806680D01*
X154914285Y-77806680D02*
X154819047Y-77854299D01*
X154819047Y-77854299D02*
X154533333Y-77854299D01*
X154533333Y-77854299D02*
X154438095Y-77806680D01*
X154438095Y-77806680D02*
X154390476Y-77759060D01*
X178554299Y-61406666D02*
X178078108Y-61739999D01*
X178554299Y-61978094D02*
X177554299Y-61978094D01*
X177554299Y-61978094D02*
X177554299Y-61597142D01*
X177554299Y-61597142D02*
X177601918Y-61501904D01*
X177601918Y-61501904D02*
X177649537Y-61454285D01*
X177649537Y-61454285D02*
X177744775Y-61406666D01*
X177744775Y-61406666D02*
X177887632Y-61406666D01*
X177887632Y-61406666D02*
X177982870Y-61454285D01*
X177982870Y-61454285D02*
X178030489Y-61501904D01*
X178030489Y-61501904D02*
X178078108Y-61597142D01*
X178078108Y-61597142D02*
X178078108Y-61978094D01*
X178554299Y-60454285D02*
X178554299Y-61025713D01*
X178554299Y-60739999D02*
X177554299Y-60739999D01*
X177554299Y-60739999D02*
X177697156Y-60835237D01*
X177697156Y-60835237D02*
X177792394Y-60930475D01*
X177792394Y-60930475D02*
X177840013Y-61025713D01*
X178859060Y-56766666D02*
X178906680Y-56814285D01*
X178906680Y-56814285D02*
X178954299Y-56957142D01*
X178954299Y-56957142D02*
X178954299Y-57052380D01*
X178954299Y-57052380D02*
X178906680Y-57195237D01*
X178906680Y-57195237D02*
X178811441Y-57290475D01*
X178811441Y-57290475D02*
X178716203Y-57338094D01*
X178716203Y-57338094D02*
X178525727Y-57385713D01*
X178525727Y-57385713D02*
X178382870Y-57385713D01*
X178382870Y-57385713D02*
X178192394Y-57338094D01*
X178192394Y-57338094D02*
X178097156Y-57290475D01*
X178097156Y-57290475D02*
X178001918Y-57195237D01*
X178001918Y-57195237D02*
X177954299Y-57052380D01*
X177954299Y-57052380D02*
X177954299Y-56957142D01*
X177954299Y-56957142D02*
X178001918Y-56814285D01*
X178001918Y-56814285D02*
X178049537Y-56766666D01*
X178049537Y-56385713D02*
X178001918Y-56338094D01*
X178001918Y-56338094D02*
X177954299Y-56242856D01*
X177954299Y-56242856D02*
X177954299Y-56004761D01*
X177954299Y-56004761D02*
X178001918Y-55909523D01*
X178001918Y-55909523D02*
X178049537Y-55861904D01*
X178049537Y-55861904D02*
X178144775Y-55814285D01*
X178144775Y-55814285D02*
X178240013Y-55814285D01*
X178240013Y-55814285D02*
X178382870Y-55861904D01*
X178382870Y-55861904D02*
X178954299Y-56433332D01*
X178954299Y-56433332D02*
X178954299Y-55814285D01*
X178859060Y-67766666D02*
X178906680Y-67814285D01*
X178906680Y-67814285D02*
X178954299Y-67957142D01*
X178954299Y-67957142D02*
X178954299Y-68052380D01*
X178954299Y-68052380D02*
X178906680Y-68195237D01*
X178906680Y-68195237D02*
X178811441Y-68290475D01*
X178811441Y-68290475D02*
X178716203Y-68338094D01*
X178716203Y-68338094D02*
X178525727Y-68385713D01*
X178525727Y-68385713D02*
X178382870Y-68385713D01*
X178382870Y-68385713D02*
X178192394Y-68338094D01*
X178192394Y-68338094D02*
X178097156Y-68290475D01*
X178097156Y-68290475D02*
X178001918Y-68195237D01*
X178001918Y-68195237D02*
X177954299Y-68052380D01*
X177954299Y-68052380D02*
X177954299Y-67957142D01*
X177954299Y-67957142D02*
X178001918Y-67814285D01*
X178001918Y-67814285D02*
X178049537Y-67766666D01*
X178954299Y-67290475D02*
X178954299Y-67099999D01*
X178954299Y-67099999D02*
X178906680Y-67004761D01*
X178906680Y-67004761D02*
X178859060Y-66957142D01*
X178859060Y-66957142D02*
X178716203Y-66861904D01*
X178716203Y-66861904D02*
X178525727Y-66814285D01*
X178525727Y-66814285D02*
X178144775Y-66814285D01*
X178144775Y-66814285D02*
X178049537Y-66861904D01*
X178049537Y-66861904D02*
X178001918Y-66909523D01*
X178001918Y-66909523D02*
X177954299Y-67004761D01*
X177954299Y-67004761D02*
X177954299Y-67195237D01*
X177954299Y-67195237D02*
X178001918Y-67290475D01*
X178001918Y-67290475D02*
X178049537Y-67338094D01*
X178049537Y-67338094D02*
X178144775Y-67385713D01*
X178144775Y-67385713D02*
X178382870Y-67385713D01*
X178382870Y-67385713D02*
X178478108Y-67338094D01*
X178478108Y-67338094D02*
X178525727Y-67290475D01*
X178525727Y-67290475D02*
X178573346Y-67195237D01*
X178573346Y-67195237D02*
X178573346Y-67004761D01*
X178573346Y-67004761D02*
X178525727Y-66909523D01*
X178525727Y-66909523D02*
X178478108Y-66861904D01*
X178478108Y-66861904D02*
X178382870Y-66814285D01*
X180654299Y-68238094D02*
X179654299Y-68238094D01*
X179654299Y-68238094D02*
X179654299Y-67999999D01*
X179654299Y-67999999D02*
X179701918Y-67857142D01*
X179701918Y-67857142D02*
X179797156Y-67761904D01*
X179797156Y-67761904D02*
X179892394Y-67714285D01*
X179892394Y-67714285D02*
X180082870Y-67666666D01*
X180082870Y-67666666D02*
X180225727Y-67666666D01*
X180225727Y-67666666D02*
X180416203Y-67714285D01*
X180416203Y-67714285D02*
X180511441Y-67761904D01*
X180511441Y-67761904D02*
X180606680Y-67857142D01*
X180606680Y-67857142D02*
X180654299Y-67999999D01*
X180654299Y-67999999D02*
X180654299Y-68238094D01*
X179987632Y-66809523D02*
X180654299Y-66809523D01*
X179606680Y-67047618D02*
X180320965Y-67285713D01*
X180320965Y-67285713D02*
X180320965Y-66666666D01*
X168013333Y-61329060D02*
X167965714Y-61376680D01*
X167965714Y-61376680D02*
X167822857Y-61424299D01*
X167822857Y-61424299D02*
X167727619Y-61424299D01*
X167727619Y-61424299D02*
X167584762Y-61376680D01*
X167584762Y-61376680D02*
X167489524Y-61281441D01*
X167489524Y-61281441D02*
X167441905Y-61186203D01*
X167441905Y-61186203D02*
X167394286Y-60995727D01*
X167394286Y-60995727D02*
X167394286Y-60852870D01*
X167394286Y-60852870D02*
X167441905Y-60662394D01*
X167441905Y-60662394D02*
X167489524Y-60567156D01*
X167489524Y-60567156D02*
X167584762Y-60471918D01*
X167584762Y-60471918D02*
X167727619Y-60424299D01*
X167727619Y-60424299D02*
X167822857Y-60424299D01*
X167822857Y-60424299D02*
X167965714Y-60471918D01*
X167965714Y-60471918D02*
X168013333Y-60519537D01*
X168584762Y-60852870D02*
X168489524Y-60805251D01*
X168489524Y-60805251D02*
X168441905Y-60757632D01*
X168441905Y-60757632D02*
X168394286Y-60662394D01*
X168394286Y-60662394D02*
X168394286Y-60614775D01*
X168394286Y-60614775D02*
X168441905Y-60519537D01*
X168441905Y-60519537D02*
X168489524Y-60471918D01*
X168489524Y-60471918D02*
X168584762Y-60424299D01*
X168584762Y-60424299D02*
X168775238Y-60424299D01*
X168775238Y-60424299D02*
X168870476Y-60471918D01*
X168870476Y-60471918D02*
X168918095Y-60519537D01*
X168918095Y-60519537D02*
X168965714Y-60614775D01*
X168965714Y-60614775D02*
X168965714Y-60662394D01*
X168965714Y-60662394D02*
X168918095Y-60757632D01*
X168918095Y-60757632D02*
X168870476Y-60805251D01*
X168870476Y-60805251D02*
X168775238Y-60852870D01*
X168775238Y-60852870D02*
X168584762Y-60852870D01*
X168584762Y-60852870D02*
X168489524Y-60900489D01*
X168489524Y-60900489D02*
X168441905Y-60948108D01*
X168441905Y-60948108D02*
X168394286Y-61043346D01*
X168394286Y-61043346D02*
X168394286Y-61233822D01*
X168394286Y-61233822D02*
X168441905Y-61329060D01*
X168441905Y-61329060D02*
X168489524Y-61376680D01*
X168489524Y-61376680D02*
X168584762Y-61424299D01*
X168584762Y-61424299D02*
X168775238Y-61424299D01*
X168775238Y-61424299D02*
X168870476Y-61376680D01*
X168870476Y-61376680D02*
X168918095Y-61329060D01*
X168918095Y-61329060D02*
X168965714Y-61233822D01*
X168965714Y-61233822D02*
X168965714Y-61043346D01*
X168965714Y-61043346D02*
X168918095Y-60948108D01*
X168918095Y-60948108D02*
X168870476Y-60900489D01*
X168870476Y-60900489D02*
X168775238Y-60852870D01*
X178454299Y-64806666D02*
X177978108Y-65139999D01*
X178454299Y-65378094D02*
X177454299Y-65378094D01*
X177454299Y-65378094D02*
X177454299Y-64997142D01*
X177454299Y-64997142D02*
X177501918Y-64901904D01*
X177501918Y-64901904D02*
X177549537Y-64854285D01*
X177549537Y-64854285D02*
X177644775Y-64806666D01*
X177644775Y-64806666D02*
X177787632Y-64806666D01*
X177787632Y-64806666D02*
X177882870Y-64854285D01*
X177882870Y-64854285D02*
X177930489Y-64901904D01*
X177930489Y-64901904D02*
X177978108Y-64997142D01*
X177978108Y-64997142D02*
X177978108Y-65378094D01*
X177549537Y-64425713D02*
X177501918Y-64378094D01*
X177501918Y-64378094D02*
X177454299Y-64282856D01*
X177454299Y-64282856D02*
X177454299Y-64044761D01*
X177454299Y-64044761D02*
X177501918Y-63949523D01*
X177501918Y-63949523D02*
X177549537Y-63901904D01*
X177549537Y-63901904D02*
X177644775Y-63854285D01*
X177644775Y-63854285D02*
X177740013Y-63854285D01*
X177740013Y-63854285D02*
X177882870Y-63901904D01*
X177882870Y-63901904D02*
X178454299Y-64473332D01*
X178454299Y-64473332D02*
X178454299Y-63854285D01*
X166154299Y-60756666D02*
X165678108Y-61089999D01*
X166154299Y-61328094D02*
X165154299Y-61328094D01*
X165154299Y-61328094D02*
X165154299Y-60947142D01*
X165154299Y-60947142D02*
X165201918Y-60851904D01*
X165201918Y-60851904D02*
X165249537Y-60804285D01*
X165249537Y-60804285D02*
X165344775Y-60756666D01*
X165344775Y-60756666D02*
X165487632Y-60756666D01*
X165487632Y-60756666D02*
X165582870Y-60804285D01*
X165582870Y-60804285D02*
X165630489Y-60851904D01*
X165630489Y-60851904D02*
X165678108Y-60947142D01*
X165678108Y-60947142D02*
X165678108Y-61328094D01*
X165154299Y-59851904D02*
X165154299Y-60328094D01*
X165154299Y-60328094D02*
X165630489Y-60375713D01*
X165630489Y-60375713D02*
X165582870Y-60328094D01*
X165582870Y-60328094D02*
X165535251Y-60232856D01*
X165535251Y-60232856D02*
X165535251Y-59994761D01*
X165535251Y-59994761D02*
X165582870Y-59899523D01*
X165582870Y-59899523D02*
X165630489Y-59851904D01*
X165630489Y-59851904D02*
X165725727Y-59804285D01*
X165725727Y-59804285D02*
X165963822Y-59804285D01*
X165963822Y-59804285D02*
X166059060Y-59851904D01*
X166059060Y-59851904D02*
X166106680Y-59899523D01*
X166106680Y-59899523D02*
X166154299Y-59994761D01*
X166154299Y-59994761D02*
X166154299Y-60232856D01*
X166154299Y-60232856D02*
X166106680Y-60328094D01*
X166106680Y-60328094D02*
X166059060Y-60375713D01*
X158724299Y-63376666D02*
X158248108Y-63709999D01*
X158724299Y-63948094D02*
X157724299Y-63948094D01*
X157724299Y-63948094D02*
X157724299Y-63567142D01*
X157724299Y-63567142D02*
X157771918Y-63471904D01*
X157771918Y-63471904D02*
X157819537Y-63424285D01*
X157819537Y-63424285D02*
X157914775Y-63376666D01*
X157914775Y-63376666D02*
X158057632Y-63376666D01*
X158057632Y-63376666D02*
X158152870Y-63424285D01*
X158152870Y-63424285D02*
X158200489Y-63471904D01*
X158200489Y-63471904D02*
X158248108Y-63567142D01*
X158248108Y-63567142D02*
X158248108Y-63948094D01*
X158057632Y-62519523D02*
X158724299Y-62519523D01*
X157676680Y-62757618D02*
X158390965Y-62995713D01*
X158390965Y-62995713D02*
X158390965Y-62376666D01*
X171859060Y-71866666D02*
X171906680Y-71914285D01*
X171906680Y-71914285D02*
X171954299Y-72057142D01*
X171954299Y-72057142D02*
X171954299Y-72152380D01*
X171954299Y-72152380D02*
X171906680Y-72295237D01*
X171906680Y-72295237D02*
X171811441Y-72390475D01*
X171811441Y-72390475D02*
X171716203Y-72438094D01*
X171716203Y-72438094D02*
X171525727Y-72485713D01*
X171525727Y-72485713D02*
X171382870Y-72485713D01*
X171382870Y-72485713D02*
X171192394Y-72438094D01*
X171192394Y-72438094D02*
X171097156Y-72390475D01*
X171097156Y-72390475D02*
X171001918Y-72295237D01*
X171001918Y-72295237D02*
X170954299Y-72152380D01*
X170954299Y-72152380D02*
X170954299Y-72057142D01*
X170954299Y-72057142D02*
X171001918Y-71914285D01*
X171001918Y-71914285D02*
X171049537Y-71866666D01*
X170954299Y-70961904D02*
X170954299Y-71438094D01*
X170954299Y-71438094D02*
X171430489Y-71485713D01*
X171430489Y-71485713D02*
X171382870Y-71438094D01*
X171382870Y-71438094D02*
X171335251Y-71342856D01*
X171335251Y-71342856D02*
X171335251Y-71104761D01*
X171335251Y-71104761D02*
X171382870Y-71009523D01*
X171382870Y-71009523D02*
X171430489Y-70961904D01*
X171430489Y-70961904D02*
X171525727Y-70914285D01*
X171525727Y-70914285D02*
X171763822Y-70914285D01*
X171763822Y-70914285D02*
X171859060Y-70961904D01*
X171859060Y-70961904D02*
X171906680Y-71009523D01*
X171906680Y-71009523D02*
X171954299Y-71104761D01*
X171954299Y-71104761D02*
X171954299Y-71342856D01*
X171954299Y-71342856D02*
X171906680Y-71438094D01*
X171906680Y-71438094D02*
X171859060Y-71485713D01*
X156704761Y-61849537D02*
X156609523Y-61801918D01*
X156609523Y-61801918D02*
X156514285Y-61706680D01*
X156514285Y-61706680D02*
X156371428Y-61563822D01*
X156371428Y-61563822D02*
X156276190Y-61516203D01*
X156276190Y-61516203D02*
X156180952Y-61516203D01*
X156228571Y-61754299D02*
X156133333Y-61706680D01*
X156133333Y-61706680D02*
X156038095Y-61611441D01*
X156038095Y-61611441D02*
X155990476Y-61420965D01*
X155990476Y-61420965D02*
X155990476Y-61087632D01*
X155990476Y-61087632D02*
X156038095Y-60897156D01*
X156038095Y-60897156D02*
X156133333Y-60801918D01*
X156133333Y-60801918D02*
X156228571Y-60754299D01*
X156228571Y-60754299D02*
X156419047Y-60754299D01*
X156419047Y-60754299D02*
X156514285Y-60801918D01*
X156514285Y-60801918D02*
X156609523Y-60897156D01*
X156609523Y-60897156D02*
X156657142Y-61087632D01*
X156657142Y-61087632D02*
X156657142Y-61420965D01*
X156657142Y-61420965D02*
X156609523Y-61611441D01*
X156609523Y-61611441D02*
X156514285Y-61706680D01*
X156514285Y-61706680D02*
X156419047Y-61754299D01*
X156419047Y-61754299D02*
X156228571Y-61754299D01*
X157038095Y-60849537D02*
X157085714Y-60801918D01*
X157085714Y-60801918D02*
X157180952Y-60754299D01*
X157180952Y-60754299D02*
X157419047Y-60754299D01*
X157419047Y-60754299D02*
X157514285Y-60801918D01*
X157514285Y-60801918D02*
X157561904Y-60849537D01*
X157561904Y-60849537D02*
X157609523Y-60944775D01*
X157609523Y-60944775D02*
X157609523Y-61040013D01*
X157609523Y-61040013D02*
X157561904Y-61182870D01*
X157561904Y-61182870D02*
X156990476Y-61754299D01*
X156990476Y-61754299D02*
X157609523Y-61754299D01*
X172359060Y-66116666D02*
X172406680Y-66164285D01*
X172406680Y-66164285D02*
X172454299Y-66307142D01*
X172454299Y-66307142D02*
X172454299Y-66402380D01*
X172454299Y-66402380D02*
X172406680Y-66545237D01*
X172406680Y-66545237D02*
X172311441Y-66640475D01*
X172311441Y-66640475D02*
X172216203Y-66688094D01*
X172216203Y-66688094D02*
X172025727Y-66735713D01*
X172025727Y-66735713D02*
X171882870Y-66735713D01*
X171882870Y-66735713D02*
X171692394Y-66688094D01*
X171692394Y-66688094D02*
X171597156Y-66640475D01*
X171597156Y-66640475D02*
X171501918Y-66545237D01*
X171501918Y-66545237D02*
X171454299Y-66402380D01*
X171454299Y-66402380D02*
X171454299Y-66307142D01*
X171454299Y-66307142D02*
X171501918Y-66164285D01*
X171501918Y-66164285D02*
X171549537Y-66116666D01*
X172454299Y-65164285D02*
X172454299Y-65735713D01*
X172454299Y-65449999D02*
X171454299Y-65449999D01*
X171454299Y-65449999D02*
X171597156Y-65545237D01*
X171597156Y-65545237D02*
X171692394Y-65640475D01*
X171692394Y-65640475D02*
X171740013Y-65735713D01*
X180274761Y-61989537D02*
X180179523Y-61941918D01*
X180179523Y-61941918D02*
X180084285Y-61846680D01*
X180084285Y-61846680D02*
X179941428Y-61703822D01*
X179941428Y-61703822D02*
X179846190Y-61656203D01*
X179846190Y-61656203D02*
X179750952Y-61656203D01*
X179798571Y-61894299D02*
X179703333Y-61846680D01*
X179703333Y-61846680D02*
X179608095Y-61751441D01*
X179608095Y-61751441D02*
X179560476Y-61560965D01*
X179560476Y-61560965D02*
X179560476Y-61227632D01*
X179560476Y-61227632D02*
X179608095Y-61037156D01*
X179608095Y-61037156D02*
X179703333Y-60941918D01*
X179703333Y-60941918D02*
X179798571Y-60894299D01*
X179798571Y-60894299D02*
X179989047Y-60894299D01*
X179989047Y-60894299D02*
X180084285Y-60941918D01*
X180084285Y-60941918D02*
X180179523Y-61037156D01*
X180179523Y-61037156D02*
X180227142Y-61227632D01*
X180227142Y-61227632D02*
X180227142Y-61560965D01*
X180227142Y-61560965D02*
X180179523Y-61751441D01*
X180179523Y-61751441D02*
X180084285Y-61846680D01*
X180084285Y-61846680D02*
X179989047Y-61894299D01*
X179989047Y-61894299D02*
X179798571Y-61894299D01*
X181179523Y-61894299D02*
X180608095Y-61894299D01*
X180893809Y-61894299D02*
X180893809Y-60894299D01*
X180893809Y-60894299D02*
X180798571Y-61037156D01*
X180798571Y-61037156D02*
X180703333Y-61132394D01*
X180703333Y-61132394D02*
X180608095Y-61180013D01*
X156954299Y-57538094D02*
X155954299Y-57538094D01*
X155954299Y-57538094D02*
X155954299Y-57299999D01*
X155954299Y-57299999D02*
X156001918Y-57157142D01*
X156001918Y-57157142D02*
X156097156Y-57061904D01*
X156097156Y-57061904D02*
X156192394Y-57014285D01*
X156192394Y-57014285D02*
X156382870Y-56966666D01*
X156382870Y-56966666D02*
X156525727Y-56966666D01*
X156525727Y-56966666D02*
X156716203Y-57014285D01*
X156716203Y-57014285D02*
X156811441Y-57061904D01*
X156811441Y-57061904D02*
X156906680Y-57157142D01*
X156906680Y-57157142D02*
X156954299Y-57299999D01*
X156954299Y-57299999D02*
X156954299Y-57538094D01*
X156049537Y-56585713D02*
X156001918Y-56538094D01*
X156001918Y-56538094D02*
X155954299Y-56442856D01*
X155954299Y-56442856D02*
X155954299Y-56204761D01*
X155954299Y-56204761D02*
X156001918Y-56109523D01*
X156001918Y-56109523D02*
X156049537Y-56061904D01*
X156049537Y-56061904D02*
X156144775Y-56014285D01*
X156144775Y-56014285D02*
X156240013Y-56014285D01*
X156240013Y-56014285D02*
X156382870Y-56061904D01*
X156382870Y-56061904D02*
X156954299Y-56633332D01*
X156954299Y-56633332D02*
X156954299Y-56014285D01*
X165618095Y-69584299D02*
X165618095Y-70393822D01*
X165618095Y-70393822D02*
X165665714Y-70489060D01*
X165665714Y-70489060D02*
X165713333Y-70536680D01*
X165713333Y-70536680D02*
X165808571Y-70584299D01*
X165808571Y-70584299D02*
X165999047Y-70584299D01*
X165999047Y-70584299D02*
X166094285Y-70536680D01*
X166094285Y-70536680D02*
X166141904Y-70489060D01*
X166141904Y-70489060D02*
X166189523Y-70393822D01*
X166189523Y-70393822D02*
X166189523Y-69584299D01*
X166618095Y-69679537D02*
X166665714Y-69631918D01*
X166665714Y-69631918D02*
X166760952Y-69584299D01*
X166760952Y-69584299D02*
X166999047Y-69584299D01*
X166999047Y-69584299D02*
X167094285Y-69631918D01*
X167094285Y-69631918D02*
X167141904Y-69679537D01*
X167141904Y-69679537D02*
X167189523Y-69774775D01*
X167189523Y-69774775D02*
X167189523Y-69870013D01*
X167189523Y-69870013D02*
X167141904Y-70012870D01*
X167141904Y-70012870D02*
X166570476Y-70584299D01*
X166570476Y-70584299D02*
X167189523Y-70584299D01*
X164323333Y-64254299D02*
X163990000Y-63778108D01*
X163751905Y-64254299D02*
X163751905Y-63254299D01*
X163751905Y-63254299D02*
X164132857Y-63254299D01*
X164132857Y-63254299D02*
X164228095Y-63301918D01*
X164228095Y-63301918D02*
X164275714Y-63349537D01*
X164275714Y-63349537D02*
X164323333Y-63444775D01*
X164323333Y-63444775D02*
X164323333Y-63587632D01*
X164323333Y-63587632D02*
X164275714Y-63682870D01*
X164275714Y-63682870D02*
X164228095Y-63730489D01*
X164228095Y-63730489D02*
X164132857Y-63778108D01*
X164132857Y-63778108D02*
X163751905Y-63778108D01*
X165180476Y-63254299D02*
X164990000Y-63254299D01*
X164990000Y-63254299D02*
X164894762Y-63301918D01*
X164894762Y-63301918D02*
X164847143Y-63349537D01*
X164847143Y-63349537D02*
X164751905Y-63492394D01*
X164751905Y-63492394D02*
X164704286Y-63682870D01*
X164704286Y-63682870D02*
X164704286Y-64063822D01*
X164704286Y-64063822D02*
X164751905Y-64159060D01*
X164751905Y-64159060D02*
X164799524Y-64206680D01*
X164799524Y-64206680D02*
X164894762Y-64254299D01*
X164894762Y-64254299D02*
X165085238Y-64254299D01*
X165085238Y-64254299D02*
X165180476Y-64206680D01*
X165180476Y-64206680D02*
X165228095Y-64159060D01*
X165228095Y-64159060D02*
X165275714Y-64063822D01*
X165275714Y-64063822D02*
X165275714Y-63825727D01*
X165275714Y-63825727D02*
X165228095Y-63730489D01*
X165228095Y-63730489D02*
X165180476Y-63682870D01*
X165180476Y-63682870D02*
X165085238Y-63635251D01*
X165085238Y-63635251D02*
X164894762Y-63635251D01*
X164894762Y-63635251D02*
X164799524Y-63682870D01*
X164799524Y-63682870D02*
X164751905Y-63730489D01*
X164751905Y-63730489D02*
X164704286Y-63825727D01*
%TO.C,C3*%
X167792164Y-73540000D02*
X168007836Y-73540000D01*
X167792164Y-74260000D02*
X168007836Y-74260000D01*
%TO.C,D3*%
X155990000Y-68590000D02*
X155990000Y-69900000D01*
X157210000Y-68590000D02*
X155990000Y-68590000D01*
X157210000Y-68590000D02*
X157210000Y-69900000D01*
%TO.C,C7*%
X157540000Y-69312164D02*
X157540000Y-69527836D01*
X158260000Y-69312164D02*
X158260000Y-69527836D01*
%TO.C,R10*%
X164920000Y-68653641D02*
X164920000Y-68346359D01*
X165680000Y-68653641D02*
X165680000Y-68346359D01*
%TO.C,J6*%
X181280000Y-66540000D02*
X182660000Y-66540000D01*
X181280000Y-67920000D02*
X181280000Y-66540000D01*
X181280000Y-69190000D02*
X181280000Y-71840000D01*
X181280000Y-69190000D02*
X184040000Y-69190000D01*
X181280000Y-71840000D02*
X184040000Y-71840000D01*
X184040000Y-69190000D02*
X184040000Y-71840000D01*
%TO.C,FB1*%
X170990000Y-61649721D02*
X170990000Y-61975279D01*
X172010000Y-61649721D02*
X172010000Y-61975279D01*
%TO.C,C4*%
X165007836Y-66440000D02*
X164792164Y-66440000D01*
X165007836Y-67160000D02*
X164792164Y-67160000D01*
%TO.C,R9*%
X168056359Y-69420000D02*
X168363641Y-69420000D01*
X168056359Y-70180000D02*
X168363641Y-70180000D01*
%TO.C,D1*%
X179290000Y-57740000D02*
X179290000Y-59050000D01*
X180510000Y-57740000D02*
X179290000Y-57740000D01*
X180510000Y-57740000D02*
X180510000Y-59050000D01*
%TO.C,R12*%
X179320000Y-75743641D02*
X179320000Y-75436359D01*
X180080000Y-75743641D02*
X180080000Y-75436359D01*
%TO.C,Q4*%
X182400000Y-73140000D02*
X181750000Y-73140000D01*
X182400000Y-73140000D02*
X183050000Y-73140000D01*
X182400000Y-76260000D02*
X181750000Y-76260000D01*
X182400000Y-76260000D02*
X183050000Y-76260000D01*
X181237500Y-73190000D02*
X180997500Y-72860000D01*
X181477500Y-72860000D01*
X181237500Y-73190000D01*
G36*
X181237500Y-73190000D02*
G01*
X180997500Y-72860000D01*
X181477500Y-72860000D01*
X181237500Y-73190000D01*
G37*
%TO.C,C6*%
X157660000Y-58792164D02*
X157660000Y-59007836D01*
X158380000Y-58792164D02*
X158380000Y-59007836D01*
%TO.C,J7*%
X161170000Y-79970000D02*
X161170000Y-81220000D01*
X161470000Y-80270000D02*
X161470000Y-84990000D01*
X161470000Y-81580000D02*
X162080000Y-81580000D01*
X161470000Y-82880000D02*
X162080000Y-82880000D01*
X161470000Y-84990000D02*
X167590000Y-84990000D01*
X162080000Y-80880000D02*
X162080000Y-84380000D01*
X162080000Y-84380000D02*
X166980000Y-84380000D01*
X162420000Y-79970000D02*
X161170000Y-79970000D01*
X162930000Y-80070000D02*
X162930000Y-80270000D01*
X163230000Y-80070000D02*
X162930000Y-80070000D01*
X163230000Y-80170000D02*
X162930000Y-80170000D01*
X163230000Y-80270000D02*
X163230000Y-80070000D01*
X164030000Y-80270000D02*
X164030000Y-80880000D01*
X164030000Y-80880000D02*
X162080000Y-80880000D01*
X164430000Y-83880000D02*
X164630000Y-83880000D01*
X164430000Y-84380000D02*
X164430000Y-83880000D01*
X164530000Y-84380000D02*
X164530000Y-83880000D01*
X164630000Y-83880000D02*
X164630000Y-84380000D01*
X165030000Y-80880000D02*
X165030000Y-80270000D01*
X166980000Y-80880000D02*
X165030000Y-80880000D01*
X166980000Y-84380000D02*
X166980000Y-80880000D01*
X167590000Y-80270000D02*
X161470000Y-80270000D01*
X167590000Y-81580000D02*
X166980000Y-81580000D01*
X167590000Y-82880000D02*
X166980000Y-82880000D01*
X167590000Y-84990000D02*
X167590000Y-80270000D01*
%TO.C,J8*%
X159620000Y-55820000D02*
X161000000Y-55820000D01*
X159620000Y-57200000D02*
X159620000Y-55820000D01*
X159620000Y-58470000D02*
X159620000Y-78900000D01*
X159620000Y-58470000D02*
X162380000Y-58470000D01*
X159620000Y-78900000D02*
X162380000Y-78900000D01*
X162380000Y-58470000D02*
X162380000Y-78900000D01*
%TO.C,U1*%
X169462000Y-64300000D02*
G75*
G02*
X169362000Y-64300000I-50000J0D01*
G01*
X169362000Y-64300000D02*
G75*
G02*
X169462000Y-64300000I50000J0D01*
G01*
%TO.C,R8*%
X156620000Y-73546359D02*
X156620000Y-73853641D01*
X157380000Y-73546359D02*
X157380000Y-73853641D01*
%TO.C,R7*%
X157763641Y-75220000D02*
X157456359Y-75220000D01*
X157763641Y-75980000D02*
X157456359Y-75980000D01*
%TO.C,J5*%
X174220000Y-55820000D02*
X175600000Y-55820000D01*
X174220000Y-57200000D02*
X174220000Y-55820000D01*
X174220000Y-58470000D02*
X174220000Y-78900000D01*
X174220000Y-58470000D02*
X176980000Y-58470000D01*
X174220000Y-78900000D02*
X176980000Y-78900000D01*
X176980000Y-58470000D02*
X176980000Y-78900000D01*
%TO.C,R3*%
X157763641Y-64630000D02*
X157456359Y-64630000D01*
X157763641Y-65390000D02*
X157456359Y-65390000D01*
%TO.C,J4*%
X152620000Y-69270000D02*
X152620000Y-66620000D01*
X155380000Y-66620000D02*
X152620000Y-66620000D01*
X155380000Y-69270000D02*
X152620000Y-69270000D01*
X155380000Y-69270000D02*
X155380000Y-66620000D01*
X155380000Y-70540000D02*
X155380000Y-71920000D01*
X155380000Y-71920000D02*
X154000000Y-71920000D01*
%TO.C,R11*%
X179046359Y-73320000D02*
X179353641Y-73320000D01*
X179046359Y-74080000D02*
X179353641Y-74080000D01*
%TO.C,Q3*%
X154300000Y-72940000D02*
X153650000Y-72940000D01*
X154300000Y-72940000D02*
X154950000Y-72940000D01*
X154300000Y-76060000D02*
X153650000Y-76060000D01*
X154300000Y-76060000D02*
X154950000Y-76060000D01*
X155702500Y-76340000D02*
X155222500Y-76340000D01*
X155462500Y-76010000D01*
X155702500Y-76340000D01*
G36*
X155702500Y-76340000D02*
G01*
X155222500Y-76340000D01*
X155462500Y-76010000D01*
X155702500Y-76340000D01*
G37*
%TO.C,R1*%
X178746359Y-62510000D02*
X179053641Y-62510000D01*
X178746359Y-63270000D02*
X179053641Y-63270000D01*
%TO.C,C2*%
X178140000Y-58412164D02*
X178140000Y-58627836D01*
X178860000Y-58412164D02*
X178860000Y-58627836D01*
%TO.C,J3*%
X152620000Y-56080000D02*
X154000000Y-56080000D01*
X152620000Y-57460000D02*
X152620000Y-56080000D01*
X152620000Y-58730000D02*
X152620000Y-61380000D01*
X152620000Y-58730000D02*
X155380000Y-58730000D01*
X152620000Y-61380000D02*
X155380000Y-61380000D01*
X155380000Y-58730000D02*
X155380000Y-61380000D01*
%TO.C,C9*%
X178140000Y-69392164D02*
X178140000Y-69607836D01*
X178860000Y-69392164D02*
X178860000Y-69607836D01*
%TO.C,D4*%
X179290000Y-68640000D02*
X179290000Y-69950000D01*
X180510000Y-68640000D02*
X179290000Y-68640000D01*
X180510000Y-68640000D02*
X180510000Y-69950000D01*
%TO.C,J1*%
X181300000Y-58800000D02*
X181300000Y-56150000D01*
X184060000Y-56150000D02*
X181300000Y-56150000D01*
X184060000Y-58800000D02*
X181300000Y-58800000D01*
X184060000Y-58800000D02*
X184060000Y-56150000D01*
X184060000Y-60070000D02*
X184060000Y-61450000D01*
X184060000Y-61450000D02*
X182680000Y-61450000D01*
%TO.C,C8*%
X168340580Y-61990000D02*
X168059420Y-61990000D01*
X168340580Y-63010000D02*
X168059420Y-63010000D01*
%TO.C,J2*%
X168700000Y-79950000D02*
X168700000Y-81200000D01*
X169000000Y-80250000D02*
X169000000Y-84970000D01*
X169000000Y-81560000D02*
X169610000Y-81560000D01*
X169000000Y-82860000D02*
X169610000Y-82860000D01*
X169000000Y-84970000D02*
X175120000Y-84970000D01*
X169610000Y-80860000D02*
X169610000Y-84360000D01*
X169610000Y-84360000D02*
X174510000Y-84360000D01*
X169950000Y-79950000D02*
X168700000Y-79950000D01*
X170460000Y-80050000D02*
X170460000Y-80250000D01*
X170760000Y-80050000D02*
X170460000Y-80050000D01*
X170760000Y-80150000D02*
X170460000Y-80150000D01*
X170760000Y-80250000D02*
X170760000Y-80050000D01*
X171560000Y-80250000D02*
X171560000Y-80860000D01*
X171560000Y-80860000D02*
X169610000Y-80860000D01*
X171960000Y-83860000D02*
X172160000Y-83860000D01*
X171960000Y-84360000D02*
X171960000Y-83860000D01*
X172060000Y-84360000D02*
X172060000Y-83860000D01*
X172160000Y-83860000D02*
X172160000Y-84360000D01*
X172560000Y-80860000D02*
X172560000Y-80250000D01*
X174510000Y-80860000D02*
X172560000Y-80860000D01*
X174510000Y-84360000D02*
X174510000Y-80860000D01*
X175120000Y-80250000D02*
X169000000Y-80250000D01*
X175120000Y-81560000D02*
X174510000Y-81560000D01*
X175120000Y-82860000D02*
X174510000Y-82860000D01*
X175120000Y-84970000D02*
X175120000Y-80250000D01*
%TO.C,R2*%
X179020000Y-64743641D02*
X179020000Y-64436359D01*
X179780000Y-64743641D02*
X179780000Y-64436359D01*
%TO.C,R5*%
X163820000Y-60436359D02*
X163820000Y-60743641D01*
X164580000Y-60436359D02*
X164580000Y-60743641D01*
%TO.C,R4*%
X156720000Y-63056359D02*
X156720000Y-63363641D01*
X157480000Y-63056359D02*
X157480000Y-63363641D01*
%TO.C,C5*%
X169540000Y-71592164D02*
X169540000Y-71807836D01*
X170260000Y-71592164D02*
X170260000Y-71807836D01*
%TO.C,Q2*%
X154200000Y-62340000D02*
X153550000Y-62340000D01*
X154200000Y-62340000D02*
X154850000Y-62340000D01*
X154200000Y-65460000D02*
X153550000Y-65460000D01*
X154200000Y-65460000D02*
X154850000Y-65460000D01*
X155602500Y-65740000D02*
X155122500Y-65740000D01*
X155362500Y-65410000D01*
X155602500Y-65740000D01*
G36*
X155602500Y-65740000D02*
G01*
X155122500Y-65740000D01*
X155362500Y-65410000D01*
X155602500Y-65740000D01*
G37*
%TO.C,C1*%
X170352000Y-65892164D02*
X170352000Y-66107836D01*
X171072000Y-65892164D02*
X171072000Y-66107836D01*
%TO.C,Q1*%
X182300000Y-62540000D02*
X181650000Y-62540000D01*
X182300000Y-62540000D02*
X182950000Y-62540000D01*
X182300000Y-65660000D02*
X181650000Y-65660000D01*
X182300000Y-65660000D02*
X182950000Y-65660000D01*
X181137500Y-62590000D02*
X180897500Y-62260000D01*
X181377500Y-62260000D01*
X181137500Y-62590000D01*
G36*
X181137500Y-62590000D02*
G01*
X180897500Y-62260000D01*
X181377500Y-62260000D01*
X181137500Y-62590000D01*
G37*
%TO.C,D2*%
X155990000Y-58090000D02*
X155990000Y-59400000D01*
X157210000Y-58090000D02*
X155990000Y-58090000D01*
X157210000Y-58090000D02*
X157210000Y-59400000D01*
%TO.C,U2*%
X168712500Y-71200000D02*
G75*
G02*
X168612500Y-71200000I-50000J0D01*
G01*
X168612500Y-71200000D02*
G75*
G02*
X168712500Y-71200000I50000J0D01*
G01*
%TO.C,R6*%
X164536359Y-62120000D02*
X164843641Y-62120000D01*
X164536359Y-62880000D02*
X164843641Y-62880000D01*
%TD*%
M02*
