%TF.GenerationSoftware,KiCad,Pcbnew,9.0.4*%
%TF.CreationDate,2025-10-07T14:12:27+03:00*%
%TF.ProjectId,XIaoShield,5849616f-5368-4696-956c-642e6b696361,rev?*%
%TF.SameCoordinates,Original*%
%TF.FileFunction,Legend,Bot*%
%TF.FilePolarity,Positive*%
%FSLAX46Y46*%
G04 Gerber Fmt 4.6, Leading zero omitted, Abs format (unit mm)*
G04 Created by KiCad (PCBNEW 9.0.4) date 2025-10-07 14:12:27*
%MOMM*%
%LPD*%
G01*
G04 APERTURE LIST*
%ADD10C,0.160000*%
%ADD11C,0.000000*%
G04 APERTURE END LIST*
D10*
X163406641Y-54319411D02*
X163406641Y-53319411D01*
X163406641Y-53319411D02*
X163168546Y-53319411D01*
X163168546Y-53319411D02*
X163025689Y-53367030D01*
X163025689Y-53367030D02*
X162930451Y-53462268D01*
X162930451Y-53462268D02*
X162882832Y-53557506D01*
X162882832Y-53557506D02*
X162835213Y-53747982D01*
X162835213Y-53747982D02*
X162835213Y-53890839D01*
X162835213Y-53890839D02*
X162882832Y-54081315D01*
X162882832Y-54081315D02*
X162930451Y-54176553D01*
X162930451Y-54176553D02*
X163025689Y-54271792D01*
X163025689Y-54271792D02*
X163168546Y-54319411D01*
X163168546Y-54319411D02*
X163406641Y-54319411D01*
X161978070Y-53652744D02*
X161978070Y-54319411D01*
X162406641Y-53652744D02*
X162406641Y-54176553D01*
X162406641Y-54176553D02*
X162359022Y-54271792D01*
X162359022Y-54271792D02*
X162263784Y-54319411D01*
X162263784Y-54319411D02*
X162120927Y-54319411D01*
X162120927Y-54319411D02*
X162025689Y-54271792D01*
X162025689Y-54271792D02*
X161978070Y-54224172D01*
X161501879Y-54319411D02*
X161501879Y-53652744D01*
X161501879Y-53747982D02*
X161454260Y-53700363D01*
X161454260Y-53700363D02*
X161359022Y-53652744D01*
X161359022Y-53652744D02*
X161216165Y-53652744D01*
X161216165Y-53652744D02*
X161120927Y-53700363D01*
X161120927Y-53700363D02*
X161073308Y-53795601D01*
X161073308Y-53795601D02*
X161073308Y-54319411D01*
X161073308Y-53795601D02*
X161025689Y-53700363D01*
X161025689Y-53700363D02*
X160930451Y-53652744D01*
X160930451Y-53652744D02*
X160787594Y-53652744D01*
X160787594Y-53652744D02*
X160692355Y-53700363D01*
X160692355Y-53700363D02*
X160644736Y-53795601D01*
X160644736Y-53795601D02*
X160644736Y-54319411D01*
X160168546Y-54319411D02*
X160168546Y-53652744D01*
X160168546Y-53319411D02*
X160216165Y-53367030D01*
X160216165Y-53367030D02*
X160168546Y-53414649D01*
X160168546Y-53414649D02*
X160120927Y-53367030D01*
X160120927Y-53367030D02*
X160168546Y-53319411D01*
X160168546Y-53319411D02*
X160168546Y-53414649D01*
X159835213Y-53652744D02*
X159454261Y-53652744D01*
X159692356Y-53319411D02*
X159692356Y-54176553D01*
X159692356Y-54176553D02*
X159644737Y-54271792D01*
X159644737Y-54271792D02*
X159549499Y-54319411D01*
X159549499Y-54319411D02*
X159454261Y-54319411D01*
X159120927Y-54319411D02*
X159120927Y-53652744D01*
X159120927Y-53843220D02*
X159073308Y-53747982D01*
X159073308Y-53747982D02*
X159025689Y-53700363D01*
X159025689Y-53700363D02*
X158930451Y-53652744D01*
X158930451Y-53652744D02*
X158835213Y-53652744D01*
X158073308Y-53652744D02*
X158073308Y-54319411D01*
X158501879Y-53652744D02*
X158501879Y-54176553D01*
X158501879Y-54176553D02*
X158454260Y-54271792D01*
X158454260Y-54271792D02*
X158359022Y-54319411D01*
X158359022Y-54319411D02*
X158216165Y-54319411D01*
X158216165Y-54319411D02*
X158120927Y-54271792D01*
X158120927Y-54271792D02*
X158073308Y-54224172D01*
X156882831Y-54271792D02*
X156739974Y-54319411D01*
X156739974Y-54319411D02*
X156501879Y-54319411D01*
X156501879Y-54319411D02*
X156406641Y-54271792D01*
X156406641Y-54271792D02*
X156359022Y-54224172D01*
X156359022Y-54224172D02*
X156311403Y-54128934D01*
X156311403Y-54128934D02*
X156311403Y-54033696D01*
X156311403Y-54033696D02*
X156359022Y-53938458D01*
X156359022Y-53938458D02*
X156406641Y-53890839D01*
X156406641Y-53890839D02*
X156501879Y-53843220D01*
X156501879Y-53843220D02*
X156692355Y-53795601D01*
X156692355Y-53795601D02*
X156787593Y-53747982D01*
X156787593Y-53747982D02*
X156835212Y-53700363D01*
X156835212Y-53700363D02*
X156882831Y-53605125D01*
X156882831Y-53605125D02*
X156882831Y-53509887D01*
X156882831Y-53509887D02*
X156835212Y-53414649D01*
X156835212Y-53414649D02*
X156787593Y-53367030D01*
X156787593Y-53367030D02*
X156692355Y-53319411D01*
X156692355Y-53319411D02*
X156454260Y-53319411D01*
X156454260Y-53319411D02*
X156311403Y-53367030D01*
X156025688Y-53652744D02*
X155644736Y-53652744D01*
X155882831Y-53319411D02*
X155882831Y-54176553D01*
X155882831Y-54176553D02*
X155835212Y-54271792D01*
X155835212Y-54271792D02*
X155739974Y-54319411D01*
X155739974Y-54319411D02*
X155644736Y-54319411D01*
X154930450Y-54271792D02*
X155025688Y-54319411D01*
X155025688Y-54319411D02*
X155216164Y-54319411D01*
X155216164Y-54319411D02*
X155311402Y-54271792D01*
X155311402Y-54271792D02*
X155359021Y-54176553D01*
X155359021Y-54176553D02*
X155359021Y-53795601D01*
X155359021Y-53795601D02*
X155311402Y-53700363D01*
X155311402Y-53700363D02*
X155216164Y-53652744D01*
X155216164Y-53652744D02*
X155025688Y-53652744D01*
X155025688Y-53652744D02*
X154930450Y-53700363D01*
X154930450Y-53700363D02*
X154882831Y-53795601D01*
X154882831Y-53795601D02*
X154882831Y-53890839D01*
X154882831Y-53890839D02*
X155359021Y-53986077D01*
X154597116Y-53652744D02*
X154216164Y-53652744D01*
X154454259Y-54319411D02*
X154454259Y-53462268D01*
X154454259Y-53462268D02*
X154406640Y-53367030D01*
X154406640Y-53367030D02*
X154311402Y-53319411D01*
X154311402Y-53319411D02*
X154216164Y-53319411D01*
X153454259Y-54319411D02*
X153454259Y-53795601D01*
X153454259Y-53795601D02*
X153501878Y-53700363D01*
X153501878Y-53700363D02*
X153597116Y-53652744D01*
X153597116Y-53652744D02*
X153787592Y-53652744D01*
X153787592Y-53652744D02*
X153882830Y-53700363D01*
X153454259Y-54271792D02*
X153549497Y-54319411D01*
X153549497Y-54319411D02*
X153787592Y-54319411D01*
X153787592Y-54319411D02*
X153882830Y-54271792D01*
X153882830Y-54271792D02*
X153930449Y-54176553D01*
X153930449Y-54176553D02*
X153930449Y-54081315D01*
X153930449Y-54081315D02*
X153882830Y-53986077D01*
X153882830Y-53986077D02*
X153787592Y-53938458D01*
X153787592Y-53938458D02*
X153549497Y-53938458D01*
X153549497Y-53938458D02*
X153454259Y-53890839D01*
X152978068Y-53652744D02*
X152978068Y-54319411D01*
X152978068Y-53747982D02*
X152930449Y-53700363D01*
X152930449Y-53700363D02*
X152835211Y-53652744D01*
X152835211Y-53652744D02*
X152692354Y-53652744D01*
X152692354Y-53652744D02*
X152597116Y-53700363D01*
X152597116Y-53700363D02*
X152549497Y-53795601D01*
X152549497Y-53795601D02*
X152549497Y-54319411D01*
X182472832Y-53286918D02*
X182568070Y-53239299D01*
X182568070Y-53239299D02*
X182710927Y-53239299D01*
X182710927Y-53239299D02*
X182853784Y-53286918D01*
X182853784Y-53286918D02*
X182949022Y-53382156D01*
X182949022Y-53382156D02*
X182996641Y-53477394D01*
X182996641Y-53477394D02*
X183044260Y-53667870D01*
X183044260Y-53667870D02*
X183044260Y-53810727D01*
X183044260Y-53810727D02*
X182996641Y-54001203D01*
X182996641Y-54001203D02*
X182949022Y-54096441D01*
X182949022Y-54096441D02*
X182853784Y-54191680D01*
X182853784Y-54191680D02*
X182710927Y-54239299D01*
X182710927Y-54239299D02*
X182615689Y-54239299D01*
X182615689Y-54239299D02*
X182472832Y-54191680D01*
X182472832Y-54191680D02*
X182425213Y-54144060D01*
X182425213Y-54144060D02*
X182425213Y-53810727D01*
X182425213Y-53810727D02*
X182615689Y-53810727D01*
X181996641Y-54239299D02*
X181996641Y-53572632D01*
X181996641Y-53763108D02*
X181949022Y-53667870D01*
X181949022Y-53667870D02*
X181901403Y-53620251D01*
X181901403Y-53620251D02*
X181806165Y-53572632D01*
X181806165Y-53572632D02*
X181710927Y-53572632D01*
X181234736Y-54239299D02*
X181329974Y-54191680D01*
X181329974Y-54191680D02*
X181377593Y-54144060D01*
X181377593Y-54144060D02*
X181425212Y-54048822D01*
X181425212Y-54048822D02*
X181425212Y-53763108D01*
X181425212Y-53763108D02*
X181377593Y-53667870D01*
X181377593Y-53667870D02*
X181329974Y-53620251D01*
X181329974Y-53620251D02*
X181234736Y-53572632D01*
X181234736Y-53572632D02*
X181091879Y-53572632D01*
X181091879Y-53572632D02*
X180996641Y-53620251D01*
X180996641Y-53620251D02*
X180949022Y-53667870D01*
X180949022Y-53667870D02*
X180901403Y-53763108D01*
X180901403Y-53763108D02*
X180901403Y-54048822D01*
X180901403Y-54048822D02*
X180949022Y-54144060D01*
X180949022Y-54144060D02*
X180996641Y-54191680D01*
X180996641Y-54191680D02*
X181091879Y-54239299D01*
X181091879Y-54239299D02*
X181234736Y-54239299D01*
X180568069Y-53572632D02*
X180044260Y-53572632D01*
X180044260Y-53572632D02*
X180568069Y-54239299D01*
X180568069Y-54239299D02*
X180044260Y-54239299D01*
X179234736Y-54239299D02*
X179234736Y-53715489D01*
X179234736Y-53715489D02*
X179282355Y-53620251D01*
X179282355Y-53620251D02*
X179377593Y-53572632D01*
X179377593Y-53572632D02*
X179568069Y-53572632D01*
X179568069Y-53572632D02*
X179663307Y-53620251D01*
X179234736Y-54191680D02*
X179329974Y-54239299D01*
X179329974Y-54239299D02*
X179568069Y-54239299D01*
X179568069Y-54239299D02*
X179663307Y-54191680D01*
X179663307Y-54191680D02*
X179710926Y-54096441D01*
X179710926Y-54096441D02*
X179710926Y-54001203D01*
X179710926Y-54001203D02*
X179663307Y-53905965D01*
X179663307Y-53905965D02*
X179568069Y-53858346D01*
X179568069Y-53858346D02*
X179329974Y-53858346D01*
X179329974Y-53858346D02*
X179234736Y-53810727D01*
X177996640Y-54239299D02*
X177996640Y-53239299D01*
X177996640Y-53239299D02*
X177663307Y-53953584D01*
X177663307Y-53953584D02*
X177329974Y-53239299D01*
X177329974Y-53239299D02*
X177329974Y-54239299D01*
X176853783Y-54239299D02*
X176853783Y-53572632D01*
X176853783Y-53239299D02*
X176901402Y-53286918D01*
X176901402Y-53286918D02*
X176853783Y-53334537D01*
X176853783Y-53334537D02*
X176806164Y-53286918D01*
X176806164Y-53286918D02*
X176853783Y-53239299D01*
X176853783Y-53239299D02*
X176853783Y-53334537D01*
X176377593Y-54239299D02*
X176377593Y-53239299D01*
X175949022Y-54239299D02*
X175949022Y-53715489D01*
X175949022Y-53715489D02*
X175996641Y-53620251D01*
X175996641Y-53620251D02*
X176091879Y-53572632D01*
X176091879Y-53572632D02*
X176234736Y-53572632D01*
X176234736Y-53572632D02*
X176329974Y-53620251D01*
X176329974Y-53620251D02*
X176377593Y-53667870D01*
X175044260Y-54239299D02*
X175044260Y-53715489D01*
X175044260Y-53715489D02*
X175091879Y-53620251D01*
X175091879Y-53620251D02*
X175187117Y-53572632D01*
X175187117Y-53572632D02*
X175377593Y-53572632D01*
X175377593Y-53572632D02*
X175472831Y-53620251D01*
X175044260Y-54191680D02*
X175139498Y-54239299D01*
X175139498Y-54239299D02*
X175377593Y-54239299D01*
X175377593Y-54239299D02*
X175472831Y-54191680D01*
X175472831Y-54191680D02*
X175520450Y-54096441D01*
X175520450Y-54096441D02*
X175520450Y-54001203D01*
X175520450Y-54001203D02*
X175472831Y-53905965D01*
X175472831Y-53905965D02*
X175377593Y-53858346D01*
X175377593Y-53858346D02*
X175139498Y-53858346D01*
X175139498Y-53858346D02*
X175044260Y-53810727D01*
X174568069Y-54239299D02*
X174568069Y-53572632D01*
X174568069Y-53239299D02*
X174615688Y-53286918D01*
X174615688Y-53286918D02*
X174568069Y-53334537D01*
X174568069Y-53334537D02*
X174520450Y-53286918D01*
X174520450Y-53286918D02*
X174568069Y-53239299D01*
X174568069Y-53239299D02*
X174568069Y-53334537D01*
D11*
%TO.C,G\u002A\u002A\u002A*%
G36*
X167707394Y-68646438D02*
G01*
X167819825Y-68692194D01*
X167921452Y-68773690D01*
X168011880Y-68860532D01*
X167914799Y-68957174D01*
X167836279Y-69027132D01*
X167783522Y-69051426D01*
X167747685Y-69033463D01*
X167741119Y-69024060D01*
X167701103Y-69013709D01*
X167620994Y-69036842D01*
X167615586Y-69039072D01*
X167507898Y-69074822D01*
X167421155Y-69076697D01*
X167346851Y-69054253D01*
X167285778Y-69012346D01*
X167224024Y-68945529D01*
X167220258Y-68940348D01*
X167157508Y-68852224D01*
X167224053Y-68792577D01*
X167341553Y-68699948D01*
X167445856Y-68649805D01*
X167555363Y-68633575D01*
X167565537Y-68633485D01*
X167707394Y-68646438D01*
G37*
G36*
X164175526Y-67821164D02*
G01*
X164200514Y-67836638D01*
X164237652Y-67863465D01*
X164259401Y-67893439D01*
X164268347Y-67940614D01*
X164267074Y-68019046D01*
X164258167Y-68142789D01*
X164257763Y-68147932D01*
X164239967Y-68305792D01*
X164216035Y-68405860D01*
X164193418Y-68442955D01*
X164168368Y-68480366D01*
X164181355Y-68497268D01*
X164210153Y-68533234D01*
X164205324Y-68566558D01*
X164186674Y-68573438D01*
X164168407Y-68546299D01*
X164141754Y-68473630D01*
X164111213Y-68368545D01*
X164096563Y-68310731D01*
X164056398Y-68127473D01*
X164037435Y-67992872D01*
X164039391Y-67899511D01*
X164061983Y-67839975D01*
X164077919Y-67822971D01*
X164121514Y-67802800D01*
X164175526Y-67821164D01*
G37*
G36*
X167119957Y-77199939D02*
G01*
X167138513Y-77264626D01*
X167167299Y-77276047D01*
X167198002Y-77231007D01*
X167198363Y-77230073D01*
X167216636Y-77199825D01*
X167241604Y-77215837D01*
X167263546Y-77245400D01*
X167293895Y-77326666D01*
X167269682Y-77412467D01*
X167214027Y-77485166D01*
X167148082Y-77539317D01*
X167094883Y-77538931D01*
X167045717Y-77481972D01*
X167026642Y-77445423D01*
X167065421Y-77445423D01*
X167080433Y-77460435D01*
X167095445Y-77445423D01*
X167080433Y-77430412D01*
X167065421Y-77445423D01*
X167026642Y-77445423D01*
X167024210Y-77440763D01*
X166996845Y-77368141D01*
X166992051Y-77320017D01*
X166996179Y-77313162D01*
X167025779Y-77275927D01*
X167063923Y-77210447D01*
X167065469Y-77207445D01*
X167110457Y-77119585D01*
X167119957Y-77199939D01*
G37*
G36*
X174196692Y-67750982D02*
G01*
X174264884Y-67811496D01*
X174327656Y-67916034D01*
X174347472Y-67995543D01*
X174353793Y-68112042D01*
X174347525Y-68244226D01*
X174329576Y-68370792D01*
X174304405Y-68461725D01*
X174278185Y-68555616D01*
X174265498Y-68641866D01*
X174249023Y-68726194D01*
X174214315Y-68832158D01*
X174191628Y-68886635D01*
X174156678Y-68973215D01*
X174138837Y-69037728D01*
X174139360Y-69059271D01*
X174143539Y-69082873D01*
X174116057Y-69068670D01*
X174110969Y-69063824D01*
X174097340Y-69022714D01*
X174091009Y-68949458D01*
X174090953Y-68941755D01*
X174081837Y-68852778D01*
X174059905Y-68781690D01*
X174059784Y-68781463D01*
X174041115Y-68722262D01*
X174023070Y-68625065D01*
X174010563Y-68520730D01*
X173989268Y-68363461D01*
X173953307Y-68248255D01*
X173895312Y-68157574D01*
X173831099Y-68093509D01*
X173786596Y-68056825D01*
X173776480Y-68053482D01*
X173783211Y-68061984D01*
X173807153Y-68110267D01*
X173820172Y-68173192D01*
X173819201Y-68225627D01*
X173805321Y-68243178D01*
X173770427Y-68229112D01*
X173734289Y-68208447D01*
X173701785Y-68183682D01*
X173696123Y-68153893D01*
X173718228Y-68100371D01*
X173741853Y-68055357D01*
X173819759Y-67938777D01*
X173915426Y-67838251D01*
X174014903Y-67765797D01*
X174104235Y-67733431D01*
X174116410Y-67732776D01*
X174196692Y-67750982D01*
G37*
G36*
X173863551Y-68883746D02*
G01*
X173868074Y-68925228D01*
X173861969Y-68953211D01*
X173855174Y-69008792D01*
X173874334Y-69012769D01*
X173915964Y-69013248D01*
X173925521Y-69023302D01*
X173921690Y-69051232D01*
X173909130Y-69053816D01*
X173893916Y-69072101D01*
X173919617Y-69123616D01*
X173960326Y-69215969D01*
X173975954Y-69317128D01*
X173965659Y-69405764D01*
X173932817Y-69457734D01*
X173890860Y-69497177D01*
X173880788Y-69517131D01*
X173861931Y-69553335D01*
X173835752Y-69583519D01*
X173802817Y-69609395D01*
X173791640Y-69586919D01*
X173790717Y-69553122D01*
X173779949Y-69488707D01*
X173760693Y-69459135D01*
X173733690Y-69415964D01*
X173730670Y-69393640D01*
X173739274Y-69363334D01*
X173773583Y-69382316D01*
X173774010Y-69382669D01*
X173805931Y-69399838D01*
X173814402Y-69368368D01*
X173813805Y-69348816D01*
X173791424Y-69269249D01*
X173763357Y-69223740D01*
X173733354Y-69178226D01*
X173749902Y-69145294D01*
X173774336Y-69126163D01*
X173805421Y-69094788D01*
X173796455Y-69083839D01*
X173764768Y-69059618D01*
X173760693Y-69038804D01*
X173776905Y-68998849D01*
X173790717Y-68993769D01*
X173819868Y-68970921D01*
X173820740Y-68963745D01*
X173796302Y-68937396D01*
X173773933Y-68933721D01*
X173742857Y-68919166D01*
X173745681Y-68903698D01*
X173787989Y-68878559D01*
X173823084Y-68873674D01*
X173863551Y-68883746D01*
G37*
G36*
X169189862Y-68526579D02*
G01*
X169301958Y-68570091D01*
X169415260Y-68627799D01*
X169508179Y-68689034D01*
X169551417Y-68730739D01*
X169633499Y-68807775D01*
X169723571Y-68826191D01*
X169799157Y-68802325D01*
X169888602Y-68757703D01*
X169837679Y-68843910D01*
X169798651Y-68901120D01*
X169771302Y-68925804D01*
X169769647Y-68925746D01*
X169734388Y-68935645D01*
X169669699Y-68965649D01*
X169656451Y-68972584D01*
X169580384Y-69007067D01*
X169521673Y-69023554D01*
X169517051Y-69023792D01*
X169470091Y-69048164D01*
X169455233Y-69072012D01*
X169417472Y-69106203D01*
X169366164Y-69102521D01*
X169287520Y-69110813D01*
X169221120Y-69173451D01*
X169185825Y-69246072D01*
X169167936Y-69285664D01*
X169146488Y-69277321D01*
X169121195Y-69246072D01*
X169087761Y-69209408D01*
X169059769Y-69213676D01*
X169016938Y-69259802D01*
X168970809Y-69303835D01*
X168951476Y-69294570D01*
X168953355Y-69256475D01*
X168934242Y-69234667D01*
X168926887Y-69233958D01*
X168900551Y-69258401D01*
X168896863Y-69280845D01*
X168883905Y-69310900D01*
X168835583Y-69316483D01*
X168789928Y-69310738D01*
X168719216Y-69305671D01*
X168699779Y-69320059D01*
X168701629Y-69323898D01*
X168691268Y-69346440D01*
X168645206Y-69354052D01*
X168581618Y-69344195D01*
X168553176Y-69326593D01*
X168559085Y-69294040D01*
X168571158Y-69287483D01*
X168594623Y-69254526D01*
X168586338Y-69197852D01*
X168554307Y-69138745D01*
X168506534Y-69098490D01*
X168498980Y-69095549D01*
X168406189Y-69072034D01*
X168352875Y-69074110D01*
X168345038Y-69097437D01*
X168328252Y-69118371D01*
X168255536Y-69120629D01*
X168237171Y-69119088D01*
X168165822Y-69105712D01*
X168133602Y-69085993D01*
X168134465Y-69078655D01*
X168157237Y-69068828D01*
X168266367Y-69068828D01*
X168281379Y-69083839D01*
X168296391Y-69068828D01*
X168281379Y-69053816D01*
X168266367Y-69068828D01*
X168157237Y-69068828D01*
X168173739Y-69061707D01*
X168194345Y-69065839D01*
X168231468Y-69066848D01*
X168227856Y-69038804D01*
X169347218Y-69038804D01*
X169362230Y-69053816D01*
X169377242Y-69038804D01*
X169362230Y-69023792D01*
X169347218Y-69038804D01*
X168227856Y-69038804D01*
X168226501Y-69028280D01*
X168210038Y-68998757D01*
X168185275Y-68975530D01*
X168167299Y-69003932D01*
X168134091Y-69028172D01*
X168080455Y-69032992D01*
X168036055Y-69018993D01*
X168026178Y-69001083D01*
X168051738Y-68962316D01*
X168110577Y-68935011D01*
X168175930Y-68929895D01*
X168192821Y-68934297D01*
X168283832Y-68941352D01*
X168401381Y-68911406D01*
X168530365Y-68850724D01*
X168655683Y-68765571D01*
X168706670Y-68721116D01*
X168827435Y-68614142D01*
X168924910Y-68547728D01*
X169012286Y-68514733D01*
X169100560Y-68507932D01*
X169189862Y-68526579D01*
G37*
G36*
X169199723Y-75408769D02*
G01*
X169247170Y-75440059D01*
X169264653Y-75446298D01*
X169309688Y-75452175D01*
X169355031Y-75452628D01*
X169399759Y-75450026D01*
X169452267Y-75457410D01*
X169467313Y-75475784D01*
X169489233Y-75494145D01*
X169512348Y-75489732D01*
X169550956Y-75490117D01*
X169557383Y-75503678D01*
X169583438Y-75524711D01*
X169646372Y-75532365D01*
X169648850Y-75532305D01*
X169725990Y-75542495D01*
X169776451Y-75568742D01*
X169797322Y-75595403D01*
X169774786Y-75586424D01*
X169723951Y-75576485D01*
X169669342Y-75587764D01*
X169634726Y-75612376D01*
X169634833Y-75632861D01*
X169644075Y-75688277D01*
X169626940Y-75753204D01*
X169593286Y-75800487D01*
X169570856Y-75809135D01*
X169526290Y-75834134D01*
X169500618Y-75876195D01*
X169475811Y-75943255D01*
X169454002Y-75874542D01*
X169422490Y-75823588D01*
X169386504Y-75825928D01*
X169358619Y-75877280D01*
X169352730Y-75909027D01*
X169332558Y-75960020D01*
X169297962Y-75989683D01*
X169267052Y-75988499D01*
X169257147Y-75959253D01*
X169230790Y-75939256D01*
X169166136Y-75929436D01*
X169154059Y-75929230D01*
X169082249Y-75936080D01*
X169049383Y-75966347D01*
X169038200Y-76011795D01*
X169027521Y-76065380D01*
X169016223Y-76063806D01*
X169004285Y-76032944D01*
X168961428Y-75985583D01*
X168893372Y-75973562D01*
X168823964Y-75997575D01*
X168793550Y-76026806D01*
X168744510Y-76071151D01*
X168703386Y-76073501D01*
X168686698Y-76034312D01*
X168669554Y-76004289D01*
X168716722Y-76004289D01*
X168731733Y-76019300D01*
X168746745Y-76004289D01*
X168731733Y-75989277D01*
X168716722Y-76004289D01*
X168669554Y-76004289D01*
X168665462Y-75997123D01*
X168622851Y-75991953D01*
X168590511Y-76022637D01*
X168590503Y-76022661D01*
X168565423Y-76026410D01*
X168517344Y-75991171D01*
X168507000Y-75980848D01*
X168448256Y-75934225D01*
X168400087Y-75919432D01*
X168395785Y-75920555D01*
X168353938Y-75910306D01*
X168338467Y-75887309D01*
X168297193Y-75849520D01*
X168249915Y-75839159D01*
X168187620Y-75827602D01*
X168161284Y-75809135D01*
X168121260Y-75788630D01*
X168048876Y-75779183D01*
X168041873Y-75779111D01*
X167926807Y-75769203D01*
X167863377Y-75737853D01*
X167846036Y-75689504D01*
X167871146Y-75619611D01*
X167935430Y-75582932D01*
X168004889Y-75585065D01*
X168080047Y-75583263D01*
X168140620Y-75538073D01*
X168169433Y-75511362D01*
X168204641Y-75493101D01*
X168257303Y-75481739D01*
X168338475Y-75475723D01*
X168459218Y-75473505D01*
X168601436Y-75473446D01*
X168759493Y-75471638D01*
X168892105Y-75465820D01*
X168988067Y-75456747D01*
X169036173Y-75445174D01*
X169037710Y-75444087D01*
X169085634Y-75426688D01*
X169103149Y-75431442D01*
X169136564Y-75425746D01*
X169144618Y-75411509D01*
X169165954Y-75389288D01*
X169199723Y-75408769D01*
G37*
G36*
X165737866Y-75473646D02*
G01*
X165790199Y-75551359D01*
X165791429Y-75553934D01*
X165830006Y-75621256D01*
X165863508Y-75657176D01*
X165869669Y-75659017D01*
X165884236Y-75677693D01*
X165879108Y-75689655D01*
X165884427Y-75730026D01*
X165921272Y-75791977D01*
X165934840Y-75809030D01*
X165991155Y-75894417D01*
X166028144Y-75983336D01*
X166029893Y-75990586D01*
X166056511Y-76060587D01*
X166092120Y-76099457D01*
X166092484Y-76099600D01*
X166130578Y-76138091D01*
X166134688Y-76157619D01*
X166151974Y-76195467D01*
X166164712Y-76199442D01*
X166193725Y-76222409D01*
X166194736Y-76230349D01*
X166212416Y-76268153D01*
X166257370Y-76335486D01*
X166317470Y-76416565D01*
X166380586Y-76495609D01*
X166434589Y-76556835D01*
X166466715Y-76584244D01*
X166476074Y-76615386D01*
X166463535Y-76668525D01*
X166450965Y-76717998D01*
X166462330Y-76726474D01*
X166514421Y-76721189D01*
X166565678Y-76747336D01*
X166585043Y-76784256D01*
X166604622Y-76826303D01*
X166654860Y-76890432D01*
X166723010Y-76963982D01*
X166796324Y-77034294D01*
X166862055Y-77088708D01*
X166907455Y-77114563D01*
X166917114Y-77114044D01*
X166964256Y-77112330D01*
X167003038Y-77150341D01*
X167015977Y-77208449D01*
X167013536Y-77222301D01*
X166987693Y-77269420D01*
X166946201Y-77309087D01*
X166906412Y-77329123D01*
X166885675Y-77317352D01*
X166885279Y-77312316D01*
X166863314Y-77294890D01*
X166840244Y-77299460D01*
X166803707Y-77294797D01*
X166795209Y-77254381D01*
X166772401Y-77195922D01*
X166716481Y-77134223D01*
X166706317Y-77126299D01*
X166652385Y-77077571D01*
X166631674Y-77040362D01*
X166633029Y-77035330D01*
X166625892Y-77011874D01*
X166614337Y-77010081D01*
X166590059Y-76988793D01*
X166591923Y-76974428D01*
X166582532Y-76930860D01*
X166545119Y-76881006D01*
X166499288Y-76845745D01*
X166468378Y-76842831D01*
X166439566Y-76830182D01*
X166403599Y-76778810D01*
X166402340Y-76776373D01*
X166329000Y-76671568D01*
X166211950Y-76565050D01*
X166146200Y-76516561D01*
X166144120Y-76514691D01*
X166314830Y-76514691D01*
X166329842Y-76529702D01*
X166344854Y-76514691D01*
X166329842Y-76499679D01*
X166314830Y-76514691D01*
X166144120Y-76514691D01*
X166099614Y-76474687D01*
X166098745Y-76469655D01*
X166134688Y-76469655D01*
X166157536Y-76498806D01*
X166164712Y-76499679D01*
X166193863Y-76476831D01*
X166194736Y-76469655D01*
X166171889Y-76440504D01*
X166164712Y-76439631D01*
X166135561Y-76462479D01*
X166134688Y-76469655D01*
X166098745Y-76469655D01*
X166095091Y-76448485D01*
X166099052Y-76446506D01*
X166132483Y-76417428D01*
X166121069Y-76386869D01*
X166092865Y-76379584D01*
X166046955Y-76355286D01*
X166033007Y-76332585D01*
X166030711Y-76300290D01*
X166070120Y-76303189D01*
X166078590Y-76305778D01*
X166122602Y-76312720D01*
X166119890Y-76289859D01*
X166075206Y-76267376D01*
X165994716Y-76265760D01*
X165992977Y-76265959D01*
X165928475Y-76270759D01*
X165915699Y-76261516D01*
X165936475Y-76243002D01*
X165978307Y-76202765D01*
X165976872Y-76181994D01*
X165939535Y-76188585D01*
X165902991Y-76183919D01*
X165894499Y-76143550D01*
X165880993Y-76098165D01*
X165849464Y-76098514D01*
X165811796Y-76095866D01*
X165807158Y-76064733D01*
X165833837Y-76034692D01*
X165844307Y-76000296D01*
X165822114Y-75951344D01*
X165781617Y-75910629D01*
X165748495Y-75899206D01*
X165722338Y-75892066D01*
X165738572Y-75860672D01*
X165748211Y-75848549D01*
X165773218Y-75812500D01*
X165753427Y-75811773D01*
X165734420Y-75818525D01*
X165682091Y-75835737D01*
X165665095Y-75839159D01*
X165664434Y-75859050D01*
X165672189Y-75873821D01*
X165675728Y-75894366D01*
X165658949Y-75887061D01*
X165629345Y-75862090D01*
X165639651Y-75838000D01*
X165696687Y-75803354D01*
X165714357Y-75794123D01*
X165775511Y-75754202D01*
X165804137Y-75719172D01*
X165804428Y-75716521D01*
X165786383Y-75698499D01*
X165777114Y-75702378D01*
X165728479Y-75707356D01*
X165699538Y-75699971D01*
X165667061Y-75678617D01*
X165689322Y-75652234D01*
X165704760Y-75634075D01*
X165666480Y-75637588D01*
X165661775Y-75638601D01*
X165615933Y-75641172D01*
X165609509Y-75628614D01*
X165603414Y-75590529D01*
X165578818Y-75557790D01*
X165549891Y-75519078D01*
X165571267Y-75491832D01*
X165591580Y-75480311D01*
X165675641Y-75451430D01*
X165737866Y-75473646D01*
G37*
G36*
X167128792Y-65441753D02*
G01*
X167165920Y-65465696D01*
X167205193Y-65492870D01*
X167225768Y-65473229D01*
X167239111Y-65460968D01*
X167243193Y-65485173D01*
X167269492Y-65525001D01*
X167298105Y-65530208D01*
X167342061Y-65549371D01*
X167360227Y-65609443D01*
X167381670Y-65673163D01*
X167414926Y-65684502D01*
X167450836Y-65705108D01*
X167489525Y-65766612D01*
X167524569Y-65850574D01*
X167549545Y-65938554D01*
X167558031Y-66012110D01*
X167543604Y-66052804D01*
X167543281Y-66053008D01*
X167494520Y-66066722D01*
X167479680Y-66062711D01*
X167456787Y-66069620D01*
X167455729Y-66077709D01*
X167429870Y-66102929D01*
X167377431Y-66117011D01*
X167299133Y-66126511D01*
X167379283Y-66212621D01*
X167427108Y-66275519D01*
X167446189Y-66324628D01*
X167444888Y-66332715D01*
X167384430Y-66457069D01*
X167332560Y-66526145D01*
X167305620Y-66542299D01*
X167256389Y-66559029D01*
X167169116Y-66590334D01*
X167061977Y-66629688D01*
X167053381Y-66632881D01*
X166949594Y-66668374D01*
X166867681Y-66690670D01*
X166823599Y-66695513D01*
X166821546Y-66694682D01*
X166781443Y-66698465D01*
X166723236Y-66727722D01*
X166625328Y-66768990D01*
X166490069Y-66785666D01*
X166314830Y-66779509D01*
X166206469Y-66757979D01*
X166124568Y-66705623D01*
X166094679Y-66675464D01*
X166033210Y-66598656D01*
X165988739Y-66525953D01*
X165983136Y-66513046D01*
X165963902Y-66471783D01*
X166555019Y-66471783D01*
X166565263Y-66501026D01*
X166568259Y-66501806D01*
X166592647Y-66481791D01*
X167015382Y-66481791D01*
X167019503Y-66499640D01*
X167035398Y-66501806D01*
X167060111Y-66490821D01*
X167055413Y-66481791D01*
X167019782Y-66478197D01*
X167015382Y-66481791D01*
X166592647Y-66481791D01*
X166593893Y-66480768D01*
X166600055Y-66471783D01*
X166597674Y-66444116D01*
X166586815Y-66441759D01*
X166556241Y-66463554D01*
X166555019Y-66471783D01*
X165963902Y-66471783D01*
X165962207Y-66468146D01*
X165934704Y-66460546D01*
X165879860Y-66487073D01*
X165865711Y-66495097D01*
X165804009Y-66545101D01*
X165774929Y-66598002D01*
X165774595Y-66602883D01*
X165762228Y-66642006D01*
X165714948Y-66647031D01*
X165694050Y-66643564D01*
X165610577Y-66648012D01*
X165570084Y-66671814D01*
X165516461Y-66700831D01*
X165485309Y-66699629D01*
X165449117Y-66701939D01*
X165444145Y-66714686D01*
X165425294Y-66730832D01*
X165410916Y-66725003D01*
X165397082Y-66697075D01*
X165418422Y-66675910D01*
X165442775Y-66648253D01*
X165421627Y-66632125D01*
X165385322Y-66595851D01*
X165394813Y-66556120D01*
X165445100Y-66556120D01*
X165450385Y-66587701D01*
X165471943Y-66571839D01*
X165489825Y-66549034D01*
X165518731Y-66500312D01*
X165519955Y-66487934D01*
X165637565Y-66487934D01*
X165661569Y-66501649D01*
X165668266Y-66501806D01*
X165708894Y-66485919D01*
X165714357Y-66471783D01*
X165738796Y-66445434D01*
X165761165Y-66441759D01*
X165792241Y-66427204D01*
X165789417Y-66411735D01*
X165744124Y-66382715D01*
X165689220Y-66400238D01*
X165654310Y-66441759D01*
X165637565Y-66487934D01*
X165519955Y-66487934D01*
X165520891Y-66478474D01*
X165488351Y-66477258D01*
X165456536Y-66512263D01*
X165445100Y-66556120D01*
X165394813Y-66556120D01*
X165398024Y-66542676D01*
X165453645Y-66479586D01*
X165546097Y-66413563D01*
X165612863Y-66379757D01*
X165811790Y-66379757D01*
X165815896Y-66381712D01*
X165843296Y-66360576D01*
X165849464Y-66351688D01*
X165857115Y-66323619D01*
X165853008Y-66321665D01*
X165825609Y-66342801D01*
X165819440Y-66351688D01*
X165811790Y-66379757D01*
X165612863Y-66379757D01*
X165664305Y-66353710D01*
X165756855Y-66318003D01*
X165832687Y-66295473D01*
X165859459Y-66291456D01*
X165922544Y-66277857D01*
X165986571Y-66251057D01*
X166149025Y-66190238D01*
X166343870Y-66153660D01*
X166549530Y-66124477D01*
X166698791Y-66096061D01*
X166795280Y-66067565D01*
X166842623Y-66038142D01*
X166843554Y-66036923D01*
X166899084Y-65999377D01*
X166941131Y-65991404D01*
X166994943Y-65976353D01*
X167001296Y-65942059D01*
X166974129Y-65915591D01*
X166955733Y-65874897D01*
X166959959Y-65842481D01*
X166953280Y-65788815D01*
X166923651Y-65769469D01*
X166857497Y-65739760D01*
X166795209Y-65706143D01*
X166720149Y-65662030D01*
X166821228Y-65661587D01*
X166888631Y-65656344D01*
X166910713Y-65634100D01*
X166905577Y-65597169D01*
X166911142Y-65520857D01*
X166955370Y-65481003D01*
X167065421Y-65481003D01*
X167076406Y-65505715D01*
X167085437Y-65501018D01*
X167089030Y-65465387D01*
X167085437Y-65460987D01*
X167067588Y-65465108D01*
X167065421Y-65481003D01*
X166955370Y-65481003D01*
X166972787Y-65465309D01*
X167041029Y-65441004D01*
X167128792Y-65441753D01*
G37*
G36*
X170501517Y-65091030D02*
G01*
X170500470Y-65094996D01*
X170460653Y-65116428D01*
X170425355Y-65120719D01*
X170368056Y-65141626D01*
X170348193Y-65167480D01*
X170311691Y-65199462D01*
X170286858Y-65197590D01*
X170229929Y-65202249D01*
X170187170Y-65254420D01*
X170169067Y-65338390D01*
X170173206Y-65393294D01*
X170202593Y-65416338D01*
X170274532Y-65421084D01*
X170274561Y-65421084D01*
X170383034Y-65421212D01*
X170247927Y-65510940D01*
X170172255Y-65568241D01*
X170123022Y-65619029D01*
X170112368Y-65641848D01*
X170094004Y-65697635D01*
X170071163Y-65732134D01*
X170046391Y-65770009D01*
X170067134Y-65780962D01*
X170079121Y-65781239D01*
X170121401Y-65794984D01*
X170127833Y-65808461D01*
X170156749Y-65822665D01*
X170239091Y-65837356D01*
X170368250Y-65851868D01*
X170537613Y-65865534D01*
X170740572Y-65877688D01*
X170878424Y-65884091D01*
X171234414Y-65928049D01*
X171493908Y-65997225D01*
X171575401Y-66032777D01*
X171610483Y-66075091D01*
X171614845Y-66104271D01*
X171638784Y-66171588D01*
X171682399Y-66218296D01*
X171730238Y-66242589D01*
X171749109Y-66234788D01*
X171726071Y-66196407D01*
X171699435Y-66176755D01*
X171665224Y-66131715D01*
X171667787Y-66101981D01*
X171684828Y-66074871D01*
X171717472Y-66071955D01*
X171783101Y-66093337D01*
X171807532Y-66102819D01*
X171894751Y-66148755D01*
X171928386Y-66199084D01*
X171929251Y-66209800D01*
X171937285Y-66249536D01*
X171967959Y-66236831D01*
X171969729Y-66235376D01*
X172011231Y-66221303D01*
X172059111Y-66255929D01*
X172064453Y-66261723D01*
X172098681Y-66303931D01*
X172087677Y-66319468D01*
X172029980Y-66321665D01*
X171955176Y-66331812D01*
X171909251Y-66353674D01*
X171852940Y-66384609D01*
X171775370Y-66401252D01*
X171702053Y-66400895D01*
X171658502Y-66380830D01*
X171658185Y-66380332D01*
X171621663Y-66359901D01*
X171584234Y-66381905D01*
X171568967Y-66428519D01*
X171551212Y-66467308D01*
X171537172Y-66471783D01*
X171520434Y-66452875D01*
X171526500Y-66437604D01*
X171523262Y-66417675D01*
X171471747Y-66418422D01*
X171435246Y-66424507D01*
X171360477Y-66433027D01*
X171339784Y-66419973D01*
X171342607Y-66413650D01*
X171387266Y-66384229D01*
X171405609Y-66381712D01*
X171444413Y-66364925D01*
X171448873Y-66351688D01*
X171473191Y-66325052D01*
X171493908Y-66321665D01*
X171809157Y-66321665D01*
X171820142Y-66346377D01*
X171829172Y-66341680D01*
X171832766Y-66306049D01*
X171829172Y-66301649D01*
X171811323Y-66305770D01*
X171809157Y-66321665D01*
X171493908Y-66321665D01*
X171533876Y-66306356D01*
X171538944Y-66293343D01*
X171515744Y-66256184D01*
X171462469Y-66212038D01*
X171403608Y-66178988D01*
X171374639Y-66172006D01*
X171368577Y-66184750D01*
X171388826Y-66201570D01*
X171412361Y-66225748D01*
X171397501Y-66231134D01*
X171343062Y-66255836D01*
X171288675Y-66312985D01*
X171252949Y-66378971D01*
X171249330Y-66419091D01*
X171258754Y-66464041D01*
X171258414Y-66473200D01*
X171212003Y-66478768D01*
X171125387Y-66483309D01*
X171018407Y-66486420D01*
X170910903Y-66487698D01*
X170822715Y-66486740D01*
X170773682Y-66483141D01*
X170773341Y-66483064D01*
X170655786Y-66449653D01*
X170557185Y-66410571D01*
X170490330Y-66371937D01*
X170468016Y-66339870D01*
X170468687Y-66337361D01*
X170463794Y-66283828D01*
X170429986Y-66213529D01*
X170381844Y-66149139D01*
X170333950Y-66113330D01*
X170323428Y-66111499D01*
X170287481Y-66137667D01*
X170277951Y-66201570D01*
X170286647Y-66264812D01*
X170307601Y-66291634D01*
X170307975Y-66291641D01*
X170334611Y-66315959D01*
X170337998Y-66336676D01*
X170334901Y-66361548D01*
X170318583Y-66375487D01*
X170278502Y-66378819D01*
X170204119Y-66371867D01*
X170084891Y-66354956D01*
X170027242Y-66346231D01*
X169899921Y-66323633D01*
X169818493Y-66299529D01*
X169768919Y-66268691D01*
X169746587Y-66241738D01*
X169720995Y-66192370D01*
X169724087Y-66146899D01*
X169758737Y-66080823D01*
X169767061Y-66067252D01*
X169813348Y-66006416D01*
X171088589Y-66006416D01*
X171103601Y-66021428D01*
X171118613Y-66006416D01*
X171103601Y-65991404D01*
X171088589Y-66006416D01*
X169813348Y-66006416D01*
X169817593Y-66000836D01*
X169864033Y-65964010D01*
X169875080Y-65961381D01*
X169912747Y-65937294D01*
X169917667Y-65916345D01*
X169910529Y-65876868D01*
X169882894Y-65883962D01*
X169843016Y-65920227D01*
X169788954Y-65952610D01*
X169702200Y-65967653D01*
X169570998Y-65967100D01*
X169539029Y-65965311D01*
X169492957Y-65949652D01*
X169487529Y-65900103D01*
X169489345Y-65889686D01*
X169488930Y-65809424D01*
X169474909Y-65762086D01*
X169466309Y-65702650D01*
X169499574Y-65656140D01*
X169545957Y-65624238D01*
X169569893Y-65623615D01*
X169585833Y-65615859D01*
X169593374Y-65571754D01*
X169590963Y-65533544D01*
X169611869Y-65513637D01*
X169632443Y-65511026D01*
X169672271Y-65488064D01*
X169677478Y-65468079D01*
X169703025Y-65430802D01*
X169744725Y-65415538D01*
X169802218Y-65385981D01*
X169822645Y-65349976D01*
X169821795Y-65314610D01*
X169790843Y-65302833D01*
X169717869Y-65308575D01*
X169610860Y-65327512D01*
X169509368Y-65353489D01*
X169504842Y-65354941D01*
X169432499Y-65372831D01*
X169409957Y-65366382D01*
X169434976Y-65341215D01*
X169505317Y-65302951D01*
X169529949Y-65291899D01*
X169617645Y-65259905D01*
X169631510Y-65255825D01*
X169737525Y-65255825D01*
X169752537Y-65270837D01*
X169767549Y-65255825D01*
X169752537Y-65240813D01*
X169737525Y-65255825D01*
X169631510Y-65255825D01*
X169735341Y-65225271D01*
X169872351Y-65190165D01*
X170017988Y-65156754D01*
X170161564Y-65127208D01*
X170292392Y-65103694D01*
X170399785Y-65088381D01*
X170473056Y-65083437D01*
X170501517Y-65091030D01*
G37*
G36*
X168044988Y-70533162D02*
G01*
X168047376Y-70534532D01*
X168098850Y-70540878D01*
X168151006Y-70529056D01*
X168248135Y-70521276D01*
X168328462Y-70540751D01*
X168429986Y-70562340D01*
X168489091Y-70548567D01*
X168542150Y-70533167D01*
X168636866Y-70525049D01*
X168778949Y-70524025D01*
X168974109Y-70529906D01*
X169009452Y-70531422D01*
X169075926Y-70541008D01*
X169106763Y-70558548D01*
X169107029Y-70560382D01*
X169132765Y-70578876D01*
X169182495Y-70585022D01*
X169263226Y-70596136D01*
X169310096Y-70613060D01*
X169361564Y-70638495D01*
X169450313Y-70680287D01*
X169558840Y-70730214D01*
X169579901Y-70739783D01*
X169694209Y-70797259D01*
X169769920Y-70847286D01*
X169798018Y-70883886D01*
X169798032Y-70884380D01*
X169802798Y-70914815D01*
X169824329Y-70893654D01*
X169830342Y-70885258D01*
X169860304Y-70858073D01*
X169877419Y-70877752D01*
X169916402Y-70912635D01*
X169931926Y-70915282D01*
X169967687Y-70940877D01*
X169990277Y-70991272D01*
X170028603Y-71058969D01*
X170095564Y-71119611D01*
X170100161Y-71122488D01*
X170174288Y-71191421D01*
X170250285Y-71303739D01*
X170280061Y-71360322D01*
X170329465Y-71455611D01*
X170372459Y-71528091D01*
X170399099Y-71561441D01*
X170415825Y-71597453D01*
X170411775Y-71607900D01*
X170417364Y-71633669D01*
X170429552Y-71635849D01*
X170451384Y-71660381D01*
X170445711Y-71711116D01*
X170440848Y-71767806D01*
X170464974Y-71778669D01*
X170489571Y-71794059D01*
X170496702Y-71858337D01*
X170495078Y-71898556D01*
X170495878Y-71976334D01*
X170507390Y-72021529D01*
X170514387Y-72026156D01*
X170533541Y-72053181D01*
X170555831Y-72123461D01*
X170573363Y-72205640D01*
X170589036Y-72315177D01*
X170586903Y-72395480D01*
X170563948Y-72475515D01*
X170539042Y-72535193D01*
X170496562Y-72618474D01*
X170457335Y-72673276D01*
X170437903Y-72685969D01*
X170407464Y-72712324D01*
X170375365Y-72776990D01*
X170367761Y-72799265D01*
X170331984Y-72902898D01*
X170292691Y-73001248D01*
X170290373Y-73006462D01*
X170261739Y-73075062D01*
X170248110Y-73117104D01*
X170247927Y-73119198D01*
X170235856Y-73154050D01*
X170204651Y-73225317D01*
X170172868Y-73292915D01*
X170131724Y-73384696D01*
X170104461Y-73457956D01*
X170097809Y-73487922D01*
X170085774Y-73524203D01*
X170047743Y-73508939D01*
X170018691Y-73482533D01*
X169989525Y-73435308D01*
X169990776Y-73410399D01*
X169977609Y-73383562D01*
X169923147Y-73353795D01*
X169913151Y-73350121D01*
X169839342Y-73325308D01*
X169806342Y-73323414D01*
X169797783Y-73349017D01*
X169797573Y-73382454D01*
X169797573Y-73447734D01*
X169728084Y-73382454D01*
X169665797Y-73336241D01*
X169614262Y-73317173D01*
X169577899Y-73342590D01*
X169530330Y-73407505D01*
X169480678Y-73494915D01*
X169438066Y-73587818D01*
X169411617Y-73669209D01*
X169407265Y-73702974D01*
X169395483Y-73754157D01*
X169377242Y-73767527D01*
X169350835Y-73750610D01*
X169350773Y-73745010D01*
X169350641Y-73671291D01*
X169329304Y-73624215D01*
X169312837Y-73617409D01*
X169269283Y-73632472D01*
X169196065Y-73670927D01*
X169148046Y-73699912D01*
X169065959Y-73760031D01*
X169033147Y-73807984D01*
X169034332Y-73835019D01*
X169031570Y-73879537D01*
X169009457Y-73887622D01*
X168982428Y-73911621D01*
X168977445Y-73971028D01*
X168990902Y-74046961D01*
X169019193Y-74120536D01*
X169058712Y-74172869D01*
X169064779Y-74177322D01*
X169114517Y-74201192D01*
X169160251Y-74189761D01*
X169207250Y-74156295D01*
X169283682Y-74114786D01*
X169342241Y-74111220D01*
X169404371Y-74111393D01*
X169489193Y-74089833D01*
X169510758Y-74081505D01*
X169585458Y-74055856D01*
X169634711Y-74049177D01*
X169641659Y-74051961D01*
X169629595Y-74078380D01*
X169583506Y-74132317D01*
X169514909Y-74202156D01*
X169435319Y-74276276D01*
X169356254Y-74343062D01*
X169342462Y-74353794D01*
X169289492Y-74377612D01*
X169221695Y-74390099D01*
X169162933Y-74389142D01*
X169137071Y-74372626D01*
X169137053Y-74371982D01*
X169108905Y-74362100D01*
X169031968Y-74353225D01*
X168917497Y-74346248D01*
X168776751Y-74342058D01*
X168754251Y-74341727D01*
X168517957Y-74338254D01*
X168335533Y-74334326D01*
X168200802Y-74329525D01*
X168107587Y-74323434D01*
X168049712Y-74315633D01*
X168020998Y-74305706D01*
X168015270Y-74293233D01*
X168015759Y-74291737D01*
X168051146Y-74276196D01*
X168135834Y-74268054D01*
X168257731Y-74268264D01*
X168413010Y-74266646D01*
X168510733Y-74249422D01*
X168550741Y-74216650D01*
X168533274Y-74168863D01*
X168516231Y-74134918D01*
X168540261Y-74131512D01*
X168595086Y-74158063D01*
X168618782Y-74173717D01*
X168706906Y-74211092D01*
X168779112Y-74195802D01*
X168829379Y-74134409D01*
X168851688Y-74033473D01*
X168845100Y-73927037D01*
X168816509Y-73847021D01*
X168757861Y-73810415D01*
X168659452Y-73811868D01*
X168641662Y-73814856D01*
X168555057Y-73839474D01*
X168518836Y-73881657D01*
X168523394Y-73956379D01*
X168531184Y-73987040D01*
X168546341Y-74061824D01*
X168535489Y-74099161D01*
X168516122Y-74110735D01*
X168475970Y-74123626D01*
X168452065Y-74114197D01*
X168433608Y-74070010D01*
X168413225Y-73992194D01*
X168389235Y-73909539D01*
X168367616Y-73855628D01*
X168360251Y-73845902D01*
X168321745Y-73835672D01*
X168245040Y-73821683D01*
X168196572Y-73814213D01*
X168108544Y-73804249D01*
X168062367Y-73810493D01*
X168041030Y-73837260D01*
X168035534Y-73855085D01*
X168010240Y-73897817D01*
X167981796Y-73889864D01*
X167966345Y-73837408D01*
X167966131Y-73828508D01*
X167949338Y-73790966D01*
X167893000Y-73753381D01*
X167788171Y-73710087D01*
X167767510Y-73702679D01*
X167651013Y-73654308D01*
X167573966Y-73607469D01*
X167542066Y-73567033D01*
X167561013Y-73537872D01*
X167570370Y-73534160D01*
X167592154Y-73498650D01*
X167587764Y-73452279D01*
X168596627Y-73452279D01*
X168611639Y-73467291D01*
X168626651Y-73452279D01*
X168611639Y-73437267D01*
X168596627Y-73452279D01*
X167587764Y-73452279D01*
X167587529Y-73449794D01*
X167579669Y-73394215D01*
X167600240Y-73381517D01*
X167656981Y-73409728D01*
X167681962Y-73425709D01*
X167733492Y-73451001D01*
X167755932Y-73445231D01*
X167755965Y-73444363D01*
X167780726Y-73412957D01*
X167838656Y-73380402D01*
X169250563Y-73380402D01*
X169253746Y-73414068D01*
X169291879Y-73417979D01*
X169350893Y-73397065D01*
X169416720Y-73356252D01*
X169473902Y-73302161D01*
X169528865Y-73211391D01*
X169540015Y-73110608D01*
X169539217Y-73099501D01*
X169540302Y-73027363D01*
X169554633Y-72988882D01*
X169560091Y-72986913D01*
X169606321Y-72966358D01*
X169655799Y-72915080D01*
X169699666Y-72848662D01*
X169729061Y-72782684D01*
X169735124Y-72732728D01*
X169715008Y-72714469D01*
X169670296Y-72707715D01*
X169622444Y-72699265D01*
X169544418Y-72712614D01*
X169461101Y-72770165D01*
X169383556Y-72858344D01*
X169322844Y-72963577D01*
X169290028Y-73072287D01*
X169287171Y-73110696D01*
X169291479Y-73155743D01*
X169314558Y-73150428D01*
X169340398Y-73128191D01*
X169401661Y-73097659D01*
X169434525Y-73105299D01*
X169454739Y-73130248D01*
X169423112Y-73158387D01*
X169412440Y-73164285D01*
X169366285Y-73211193D01*
X169368132Y-73250078D01*
X169373591Y-73283443D01*
X169363439Y-73281073D01*
X169326542Y-73281180D01*
X169282386Y-73322153D01*
X169250563Y-73380402D01*
X167838656Y-73380402D01*
X167839503Y-73379926D01*
X167933065Y-73329003D01*
X168015631Y-73263483D01*
X168071427Y-73197678D01*
X168076977Y-73182066D01*
X168416485Y-73182066D01*
X168431497Y-73197078D01*
X168446509Y-73182066D01*
X168431497Y-73167055D01*
X168416485Y-73182066D01*
X168076977Y-73182066D01*
X168086225Y-73156055D01*
X168103795Y-73113633D01*
X168121391Y-73107007D01*
X168746745Y-73107007D01*
X168757730Y-73131720D01*
X168766761Y-73127023D01*
X168770354Y-73091392D01*
X168766761Y-73086992D01*
X168748912Y-73091113D01*
X168746745Y-73107007D01*
X168121391Y-73107007D01*
X168169277Y-73088436D01*
X168211461Y-73057319D01*
X168252169Y-73029465D01*
X168266367Y-73034801D01*
X168291988Y-73055521D01*
X168338559Y-73061972D01*
X168388044Y-73054273D01*
X168396834Y-73039454D01*
X168410106Y-73021709D01*
X168445679Y-73016936D01*
X168504927Y-73037824D01*
X168527339Y-73066184D01*
X168545751Y-73097790D01*
X168570609Y-73081168D01*
X168587068Y-73059591D01*
X168601665Y-73046960D01*
X168626651Y-73046960D01*
X168648199Y-73076124D01*
X168654902Y-73076984D01*
X168695564Y-73055160D01*
X168701710Y-73046960D01*
X168694903Y-73021257D01*
X168673458Y-73016936D01*
X168632379Y-73032612D01*
X168626651Y-73046960D01*
X168601665Y-73046960D01*
X168631425Y-73021209D01*
X168697238Y-72986476D01*
X168767826Y-72960855D01*
X168826509Y-72949810D01*
X168856607Y-72958803D01*
X168856148Y-72971468D01*
X168854533Y-73020103D01*
X168861403Y-73031515D01*
X168881390Y-73078073D01*
X168881852Y-73085648D01*
X168908237Y-73112318D01*
X168974068Y-73137688D01*
X168999595Y-73143795D01*
X169085840Y-73167804D01*
X169149750Y-73196138D01*
X169157945Y-73201958D01*
X169196546Y-73224974D01*
X169207423Y-73223874D01*
X169225486Y-73180103D01*
X169248293Y-73101155D01*
X169269904Y-73010942D01*
X169284381Y-72933375D01*
X169287171Y-72902819D01*
X169297877Y-72828242D01*
X169318918Y-72757201D01*
X169345964Y-72704120D01*
X169369224Y-72705250D01*
X169375679Y-72714171D01*
X169401101Y-72731393D01*
X169435446Y-72700299D01*
X169451602Y-72676945D01*
X169481129Y-72611878D01*
X169481049Y-72598598D01*
X169572136Y-72598598D01*
X169574591Y-72606512D01*
X169607552Y-72652324D01*
X169642882Y-72639120D01*
X169660238Y-72606597D01*
X169662483Y-72581594D01*
X169737525Y-72581594D01*
X169752537Y-72596605D01*
X169767549Y-72581594D01*
X169752537Y-72566582D01*
X169737525Y-72581594D01*
X169662483Y-72581594D01*
X169665133Y-72552077D01*
X169655694Y-72532788D01*
X169614967Y-72521990D01*
X169580131Y-72550275D01*
X169572136Y-72598598D01*
X169481049Y-72598598D01*
X169480843Y-72564187D01*
X169480758Y-72564047D01*
X169454613Y-72549635D01*
X169431642Y-72577738D01*
X169394221Y-72619171D01*
X169374047Y-72626629D01*
X169366610Y-72606296D01*
X169390551Y-72559901D01*
X169420641Y-72491523D01*
X169737525Y-72491523D01*
X169752537Y-72506535D01*
X169767549Y-72491523D01*
X169752537Y-72476511D01*
X169737525Y-72491523D01*
X169420641Y-72491523D01*
X169427085Y-72476879D01*
X169437289Y-72411555D01*
X169443284Y-72371428D01*
X169767549Y-72371428D01*
X169782561Y-72386440D01*
X169797573Y-72371428D01*
X169782561Y-72356416D01*
X169767549Y-72371428D01*
X169443284Y-72371428D01*
X169447271Y-72344743D01*
X169467313Y-72311381D01*
X169471525Y-72303854D01*
X169650755Y-72303854D01*
X169660421Y-72323084D01*
X169700286Y-72340189D01*
X169728786Y-72334843D01*
X169743951Y-72326393D01*
X169857620Y-72326393D01*
X169868605Y-72351106D01*
X169877636Y-72346408D01*
X169881229Y-72310777D01*
X169877636Y-72306377D01*
X169859787Y-72310498D01*
X169857620Y-72326393D01*
X169743951Y-72326393D01*
X169759824Y-72317549D01*
X169736454Y-72300978D01*
X169720318Y-72294888D01*
X169661267Y-72281932D01*
X169650755Y-72303854D01*
X169471525Y-72303854D01*
X169490442Y-72270050D01*
X169497336Y-72218596D01*
X169497925Y-72216306D01*
X169837604Y-72216306D01*
X169841725Y-72234155D01*
X169857620Y-72236322D01*
X169882333Y-72225337D01*
X169877636Y-72216306D01*
X169842005Y-72212713D01*
X169837604Y-72216306D01*
X169497925Y-72216306D01*
X169513597Y-72155366D01*
X169542372Y-72127085D01*
X169583574Y-72087885D01*
X169583961Y-72031695D01*
X169551395Y-71976679D01*
X169493740Y-71941005D01*
X169459704Y-71936085D01*
X169402864Y-71918073D01*
X169329448Y-71873695D01*
X169258455Y-71817440D01*
X169208884Y-71763797D01*
X169197101Y-71735811D01*
X169171318Y-71705904D01*
X169267155Y-71705904D01*
X169271276Y-71723753D01*
X169287171Y-71725920D01*
X169311884Y-71714935D01*
X169307186Y-71705904D01*
X169271555Y-71702311D01*
X169267155Y-71705904D01*
X169171318Y-71705904D01*
X169171123Y-71705678D01*
X169108307Y-71681185D01*
X169105228Y-71680489D01*
X169018439Y-71636494D01*
X168984772Y-71585127D01*
X168941403Y-71522332D01*
X168894655Y-71493853D01*
X168864569Y-71480455D01*
X168877892Y-71461469D01*
X168940659Y-71429652D01*
X168952642Y-71424251D01*
X169059998Y-71361148D01*
X169113473Y-71285677D01*
X169117431Y-71216758D01*
X169171658Y-71216758D01*
X169179052Y-71287479D01*
X169182228Y-71298083D01*
X169214351Y-71318816D01*
X169278794Y-71331967D01*
X169352663Y-71336189D01*
X169413061Y-71330131D01*
X169437121Y-71313095D01*
X169429602Y-71271890D01*
X169411181Y-71198114D01*
X169405687Y-71177988D01*
X169369030Y-71092971D01*
X169319060Y-71061223D01*
X169315783Y-71060896D01*
X169246813Y-71055540D01*
X169219618Y-71053390D01*
X169195333Y-71077516D01*
X169178216Y-71139371D01*
X169171658Y-71216758D01*
X169117431Y-71216758D01*
X169119229Y-71185454D01*
X169105048Y-71118091D01*
X169055906Y-70978139D01*
X168990935Y-70886175D01*
X168964507Y-70870246D01*
X169737525Y-70870246D01*
X169752537Y-70885258D01*
X169767549Y-70870246D01*
X169752537Y-70855234D01*
X169737525Y-70870246D01*
X168964507Y-70870246D01*
X168898168Y-70830262D01*
X168788225Y-70802116D01*
X168620635Y-70788667D01*
X168495655Y-70812732D01*
X168415523Y-70873691D01*
X168395283Y-70911429D01*
X168365059Y-70990341D01*
X168332628Y-70915282D01*
X168308889Y-70868700D01*
X168298294Y-70863511D01*
X168274124Y-70867871D01*
X168218086Y-70846738D01*
X168213826Y-70844593D01*
X168081820Y-70809659D01*
X167937593Y-70829162D01*
X167854050Y-70864570D01*
X167747583Y-70954304D01*
X167678846Y-71086565D01*
X167654231Y-71213035D01*
X167632222Y-71306589D01*
X167586894Y-71416854D01*
X167553892Y-71477215D01*
X167499406Y-71572394D01*
X167456963Y-71658378D01*
X167441830Y-71697542D01*
X167404864Y-71764944D01*
X167341436Y-71837177D01*
X167327421Y-71849684D01*
X167268835Y-71905654D01*
X167249731Y-71952944D01*
X167260853Y-72017951D01*
X167264254Y-72029826D01*
X167271837Y-72153936D01*
X167232983Y-72298077D01*
X167151265Y-72449039D01*
X167150591Y-72450028D01*
X167106723Y-72544570D01*
X167089326Y-72647023D01*
X167102144Y-72731398D01*
X167108330Y-72743282D01*
X167135220Y-72767096D01*
X167155942Y-72745996D01*
X167174842Y-72745890D01*
X167193489Y-72799558D01*
X167199412Y-72830188D01*
X167226022Y-72920910D01*
X167265897Y-72991729D01*
X167275389Y-73001746D01*
X167310917Y-73068940D01*
X167323432Y-73173069D01*
X167312847Y-73295569D01*
X167279077Y-73417876D01*
X167277342Y-73422256D01*
X167245153Y-73516027D01*
X167224614Y-73594891D01*
X167204080Y-73654702D01*
X167180751Y-73677456D01*
X167131548Y-73652565D01*
X167065985Y-73586231D01*
X166994059Y-73490970D01*
X166925764Y-73379296D01*
X166895938Y-73320870D01*
X166867466Y-73267133D01*
X167195524Y-73267133D01*
X167199645Y-73284982D01*
X167215540Y-73287149D01*
X167240252Y-73276164D01*
X167235555Y-73267133D01*
X167199924Y-73263540D01*
X167195524Y-73267133D01*
X166867466Y-73267133D01*
X166847160Y-73228809D01*
X166802595Y-73163167D01*
X166772691Y-73138538D01*
X166742335Y-73112084D01*
X166735161Y-73076041D01*
X166717083Y-73018924D01*
X166693444Y-72999043D01*
X166665079Y-72960389D01*
X166667281Y-72923553D01*
X166660431Y-72857841D01*
X166638249Y-72827916D01*
X166609218Y-72783015D01*
X166571609Y-72696401D01*
X166531172Y-72584674D01*
X166493657Y-72464434D01*
X166464812Y-72352280D01*
X166454150Y-72296369D01*
X166453044Y-72223772D01*
X166463125Y-72119494D01*
X166481167Y-72001664D01*
X166503948Y-71888416D01*
X166528243Y-71797879D01*
X166550829Y-71748186D01*
X166551800Y-71747154D01*
X166575381Y-71695362D01*
X166585043Y-71618881D01*
X166603105Y-71525860D01*
X166640845Y-71452250D01*
X166699628Y-71366950D01*
X166746622Y-71281241D01*
X166755616Y-71258314D01*
X167520111Y-71258314D01*
X167527190Y-71273980D01*
X167544028Y-71275565D01*
X167584740Y-71253760D01*
X167590622Y-71245886D01*
X167585790Y-71228824D01*
X167562371Y-71234086D01*
X167520111Y-71258314D01*
X166755616Y-71258314D01*
X166773978Y-71211510D01*
X166773995Y-71174289D01*
X166775291Y-71170482D01*
X167515776Y-71170482D01*
X167530788Y-71185494D01*
X167545800Y-71170482D01*
X167530788Y-71155471D01*
X167515776Y-71170482D01*
X166775291Y-71170482D01*
X166779836Y-71157126D01*
X166797711Y-71154331D01*
X166839067Y-71130673D01*
X166894372Y-71072200D01*
X166919345Y-71038702D01*
X167015436Y-70931489D01*
X167152772Y-70819521D01*
X167314650Y-70713780D01*
X167484368Y-70625246D01*
X167635870Y-70567602D01*
X167757457Y-70539114D01*
X167878621Y-70522878D01*
X167980689Y-70520394D01*
X168044988Y-70533162D01*
G37*
G36*
X171671982Y-75507286D02*
G01*
X171676575Y-75510994D01*
X171713483Y-75575941D01*
X171711820Y-75658726D01*
X171672171Y-75731665D01*
X171671906Y-75731931D01*
X171645644Y-75768138D01*
X171652300Y-75779111D01*
X171698455Y-75799321D01*
X171754917Y-75845741D01*
X171798575Y-75897060D01*
X171809157Y-75923753D01*
X171785988Y-75963683D01*
X171756615Y-75985766D01*
X171720005Y-76010781D01*
X171736799Y-76027533D01*
X171756615Y-76035505D01*
X171801333Y-76066727D01*
X171803434Y-76097591D01*
X171767797Y-76109371D01*
X171715180Y-76130553D01*
X171689062Y-76154407D01*
X171668343Y-76189864D01*
X171696758Y-76199391D01*
X171702169Y-76199442D01*
X171738687Y-76209180D01*
X171728972Y-76231996D01*
X171682393Y-76258293D01*
X171628868Y-76274534D01*
X171570183Y-76291657D01*
X171562364Y-76313115D01*
X171584177Y-76339035D01*
X171620556Y-76382871D01*
X171629015Y-76401744D01*
X171614312Y-76404578D01*
X171610804Y-76401405D01*
X171578633Y-76402132D01*
X171542027Y-76432204D01*
X171526050Y-76468664D01*
X171528576Y-76476709D01*
X171514315Y-76486429D01*
X171464828Y-76482832D01*
X171402325Y-76470109D01*
X171349017Y-76452452D01*
X171328778Y-76439008D01*
X171292744Y-76431602D01*
X171253719Y-76441619D01*
X171212285Y-76460110D01*
X171228454Y-76466282D01*
X171258414Y-76467545D01*
X171305904Y-76481756D01*
X171307555Y-76529292D01*
X171307120Y-76530981D01*
X171304653Y-76577424D01*
X171317436Y-76587473D01*
X171369235Y-76585753D01*
X171388826Y-76587107D01*
X171413802Y-76596276D01*
X171385894Y-76619431D01*
X171379748Y-76623058D01*
X171317154Y-76637816D01*
X171285023Y-76620836D01*
X171251492Y-76609411D01*
X171218452Y-76642970D01*
X171196524Y-76683124D01*
X171160343Y-76759180D01*
X171151622Y-76791782D01*
X171169119Y-76790220D01*
X171183299Y-76782036D01*
X171203844Y-76778498D01*
X171196539Y-76795276D01*
X171150485Y-76826541D01*
X171128176Y-76829939D01*
X171097767Y-76837973D01*
X171115469Y-76871146D01*
X171118613Y-76874974D01*
X171139762Y-76910548D01*
X171113013Y-76919977D01*
X171109049Y-76920010D01*
X171054704Y-76939456D01*
X171040985Y-76954189D01*
X171044882Y-76974349D01*
X171097753Y-76975082D01*
X171136790Y-76969690D01*
X171204124Y-76960427D01*
X171217128Y-76964083D01*
X171181990Y-76981123D01*
X171102655Y-76996434D01*
X171008982Y-76992201D01*
X171004753Y-76991441D01*
X170935789Y-76981744D01*
X170910809Y-76993376D01*
X170915434Y-77033538D01*
X170916039Y-77035870D01*
X170918660Y-77093477D01*
X170905629Y-77116905D01*
X170879899Y-77115636D01*
X170878424Y-77108313D01*
X170852880Y-77087194D01*
X170810870Y-77079577D01*
X170773010Y-77081983D01*
X170780847Y-77090702D01*
X170818615Y-77117175D01*
X170805995Y-77139343D01*
X170752421Y-77147711D01*
X170726225Y-77145684D01*
X170665843Y-77141308D01*
X170654743Y-77154981D01*
X170673684Y-77182016D01*
X170697523Y-77222919D01*
X170675764Y-77242642D01*
X170646667Y-77278782D01*
X170634752Y-77335337D01*
X170628938Y-77380055D01*
X170618585Y-77366696D01*
X170617538Y-77362858D01*
X170592714Y-77320649D01*
X170562290Y-77311402D01*
X170548164Y-77340341D01*
X170523726Y-77366690D01*
X170501356Y-77370364D01*
X170469604Y-77383963D01*
X170471778Y-77398241D01*
X170460714Y-77424186D01*
X170421008Y-77439188D01*
X170353010Y-77452258D01*
X170420563Y-77456347D01*
X170475064Y-77477581D01*
X170488116Y-77507243D01*
X170474486Y-77538972D01*
X170460167Y-77536776D01*
X170421667Y-77540649D01*
X170413057Y-77550506D01*
X170377097Y-77568334D01*
X170365947Y-77564236D01*
X170339755Y-77567457D01*
X170337998Y-77576735D01*
X170313065Y-77608130D01*
X170273576Y-77626954D01*
X170195971Y-77672507D01*
X170124466Y-77747238D01*
X170077483Y-77829204D01*
X170068734Y-77870932D01*
X170057497Y-77911096D01*
X170019965Y-77944598D01*
X169948467Y-77974301D01*
X169835335Y-78003072D01*
X169672897Y-78033775D01*
X169600157Y-78045970D01*
X169467455Y-78062700D01*
X169305166Y-78075457D01*
X169124751Y-78084186D01*
X168937671Y-78088829D01*
X168755386Y-78089329D01*
X168589357Y-78085632D01*
X168451045Y-78077679D01*
X168351911Y-78065414D01*
X168308299Y-78052338D01*
X168264360Y-78012013D01*
X168257343Y-77981094D01*
X168252617Y-77938660D01*
X168220122Y-77925426D01*
X168188544Y-77952322D01*
X168187647Y-77954539D01*
X168169006Y-77984244D01*
X168140658Y-77968712D01*
X168120306Y-77946853D01*
X168033209Y-77879778D01*
X167944343Y-77867587D01*
X167903908Y-77881930D01*
X167856803Y-77897547D01*
X167846036Y-77880051D01*
X167828622Y-77860076D01*
X167819158Y-77863810D01*
X167787771Y-77855275D01*
X167773749Y-77832130D01*
X167743234Y-77805707D01*
X169197100Y-77805707D01*
X169212112Y-77820719D01*
X169227123Y-77805707D01*
X169212112Y-77790695D01*
X169437289Y-77790695D01*
X169460136Y-77819846D01*
X169467313Y-77820719D01*
X169496464Y-77797872D01*
X169497336Y-77790695D01*
X169474489Y-77761544D01*
X169467313Y-77760672D01*
X169438161Y-77783519D01*
X169437289Y-77790695D01*
X169212112Y-77790695D01*
X169197100Y-77805707D01*
X167743234Y-77805707D01*
X167733003Y-77796848D01*
X167680081Y-77798201D01*
X167619830Y-77797257D01*
X167590552Y-77754007D01*
X167587129Y-77741583D01*
X167575313Y-77715636D01*
X169317194Y-77715636D01*
X169332206Y-77730648D01*
X169347218Y-77715636D01*
X169332206Y-77700624D01*
X169317194Y-77715636D01*
X167575313Y-77715636D01*
X167561519Y-77685344D01*
X167533057Y-77673272D01*
X167516264Y-77709109D01*
X167515578Y-77723142D01*
X167508689Y-77749647D01*
X167483721Y-77728019D01*
X167463037Y-77699288D01*
X167412050Y-77648323D01*
X167362928Y-77633016D01*
X167362897Y-77633022D01*
X167312846Y-77625149D01*
X167273071Y-77592904D01*
X167260608Y-77554832D01*
X167274129Y-77536395D01*
X167300456Y-77493276D01*
X167305610Y-77457721D01*
X167324849Y-77401108D01*
X167348750Y-77381949D01*
X167379626Y-77348981D01*
X167378449Y-77330350D01*
X167394645Y-77305248D01*
X167466558Y-77295706D01*
X167477576Y-77295643D01*
X167558417Y-77304210D01*
X167595323Y-77333524D01*
X167600621Y-77350389D01*
X167627453Y-77389380D01*
X167653508Y-77388523D01*
X167690374Y-77395399D01*
X167695918Y-77415591D01*
X167711683Y-77443792D01*
X167767149Y-77444236D01*
X167789777Y-77440162D01*
X167864835Y-77435540D01*
X167907323Y-77464741D01*
X167913379Y-77474539D01*
X167941461Y-77508929D01*
X167966486Y-77489823D01*
X167968388Y-77486806D01*
X167998128Y-77461667D01*
X168030932Y-77483204D01*
X168082759Y-77517971D01*
X168112159Y-77501412D01*
X168116249Y-77473675D01*
X168101694Y-77442599D01*
X168086225Y-77445423D01*
X168062594Y-77436231D01*
X168056201Y-77402160D01*
X168058974Y-77390901D01*
X168160389Y-77390901D01*
X168166697Y-77408514D01*
X168188282Y-77421325D01*
X168201340Y-77385376D01*
X168296391Y-77385376D01*
X168311402Y-77400388D01*
X168326414Y-77385376D01*
X168311402Y-77370364D01*
X168296391Y-77385376D01*
X168201340Y-77385376D01*
X168225733Y-77316119D01*
X168243250Y-77287799D01*
X168257085Y-77255369D01*
X168241076Y-77250270D01*
X168199621Y-77275461D01*
X168168229Y-77331904D01*
X168160389Y-77390901D01*
X168058974Y-77390901D01*
X168068451Y-77352418D01*
X168086225Y-77340341D01*
X168111459Y-77315585D01*
X168115789Y-77287799D01*
X168110681Y-77252834D01*
X168088764Y-77272932D01*
X168083480Y-77280293D01*
X168060196Y-77308787D01*
X168062109Y-77286793D01*
X168063511Y-77281531D01*
X168099723Y-77248545D01*
X168174556Y-77228184D01*
X168182972Y-77227252D01*
X168266859Y-77229289D01*
X168321072Y-77262942D01*
X168339353Y-77286062D01*
X168377686Y-77330808D01*
X168403681Y-77327419D01*
X168415716Y-77311158D01*
X168440884Y-77282455D01*
X168459257Y-77308661D01*
X168460845Y-77312741D01*
X168499997Y-77343533D01*
X168570902Y-77360126D01*
X168646441Y-77360146D01*
X168699496Y-77341219D01*
X168705526Y-77334165D01*
X168733562Y-77326117D01*
X168750498Y-77344641D01*
X168777567Y-77369658D01*
X168804504Y-77342271D01*
X168836650Y-77315089D01*
X168876890Y-77336223D01*
X168923442Y-77355587D01*
X168940187Y-77343110D01*
X168976563Y-77316951D01*
X169012825Y-77339545D01*
X169039940Y-77400263D01*
X169049014Y-77471153D01*
X169050395Y-77531494D01*
X169055159Y-77559442D01*
X169067896Y-77549717D01*
X169089150Y-77505471D01*
X169527360Y-77505471D01*
X169542372Y-77520482D01*
X169557383Y-77505471D01*
X169617431Y-77505471D01*
X169632443Y-77520482D01*
X169633672Y-77519253D01*
X169853133Y-77519253D01*
X169867010Y-77563900D01*
X169892489Y-77602825D01*
X169900543Y-77595542D01*
X169947691Y-77595542D01*
X169962703Y-77610553D01*
X169977714Y-77595542D01*
X169962703Y-77580530D01*
X169947691Y-77595542D01*
X169900543Y-77595542D01*
X169904732Y-77591754D01*
X169910979Y-77548734D01*
X170037762Y-77548734D01*
X170059556Y-77579308D01*
X170067785Y-77580530D01*
X170097028Y-77570286D01*
X170097809Y-77567290D01*
X170076770Y-77541657D01*
X170067785Y-77535494D01*
X170040119Y-77537875D01*
X170037762Y-77548734D01*
X169910979Y-77548734D01*
X169912210Y-77540255D01*
X169913441Y-77475447D01*
X170007738Y-77475447D01*
X170022750Y-77490459D01*
X170037762Y-77475447D01*
X170022750Y-77460435D01*
X170007738Y-77475447D01*
X169913441Y-77475447D01*
X169913502Y-77472240D01*
X169903282Y-77436042D01*
X169874908Y-77431290D01*
X169856246Y-77465885D01*
X169853133Y-77519253D01*
X169633672Y-77519253D01*
X169647454Y-77505471D01*
X169632443Y-77490459D01*
X169617431Y-77505471D01*
X169557383Y-77505471D01*
X169542372Y-77490459D01*
X169527360Y-77505471D01*
X169089150Y-77505471D01*
X169093200Y-77497041D01*
X169135663Y-77396136D01*
X169155118Y-77349196D01*
X169188884Y-77274650D01*
X169212596Y-77248519D01*
X169236128Y-77262576D01*
X169245174Y-77274137D01*
X169276195Y-77309258D01*
X169284213Y-77302714D01*
X169393841Y-77302714D01*
X169398414Y-77339758D01*
X169435709Y-77387543D01*
X169482317Y-77393504D01*
X169532529Y-77375073D01*
X169532912Y-77370364D01*
X169647454Y-77370364D01*
X169658440Y-77395077D01*
X169667470Y-77390380D01*
X169668585Y-77379318D01*
X170038873Y-77379318D01*
X170051391Y-77419016D01*
X170066531Y-77437917D01*
X170117433Y-77479835D01*
X170149517Y-77490459D01*
X170182479Y-77514977D01*
X170187880Y-77540498D01*
X170194613Y-77576560D01*
X170209862Y-77567275D01*
X170226205Y-77525190D01*
X170236218Y-77462850D01*
X170236475Y-77458366D01*
X170227177Y-77388764D01*
X170198436Y-77370364D01*
X170150972Y-77346238D01*
X170139581Y-77327650D01*
X170133916Y-77320325D01*
X170227911Y-77320325D01*
X170232033Y-77338174D01*
X170247927Y-77340341D01*
X170307975Y-77340341D01*
X170318960Y-77365054D01*
X170327990Y-77360356D01*
X170331584Y-77324725D01*
X170329163Y-77321761D01*
X170381972Y-77321761D01*
X170389134Y-77359053D01*
X170407511Y-77397461D01*
X170418096Y-77380432D01*
X170421878Y-77362858D01*
X170455042Y-77316916D01*
X170482812Y-77307947D01*
X170510178Y-77300336D01*
X170495622Y-77290433D01*
X170461164Y-77250801D01*
X170458093Y-77232756D01*
X170438293Y-77194479D01*
X170423065Y-77190222D01*
X170402878Y-77202274D01*
X170407793Y-77209978D01*
X170409314Y-77246380D01*
X170397267Y-77266220D01*
X170381972Y-77321761D01*
X170329163Y-77321761D01*
X170327990Y-77320325D01*
X170310141Y-77324446D01*
X170307975Y-77340341D01*
X170247927Y-77340341D01*
X170272640Y-77329355D01*
X170267943Y-77320325D01*
X170232312Y-77316732D01*
X170227911Y-77320325D01*
X170133916Y-77320325D01*
X170120017Y-77302354D01*
X170085965Y-77322288D01*
X170072549Y-77335156D01*
X170038873Y-77379318D01*
X169668585Y-77379318D01*
X169671063Y-77354749D01*
X169667470Y-77350349D01*
X169649621Y-77354470D01*
X169647454Y-77370364D01*
X169532912Y-77370364D01*
X169534845Y-77346564D01*
X169516183Y-77320719D01*
X169493157Y-77345329D01*
X169469935Y-77362686D01*
X169450910Y-77325303D01*
X169448887Y-77318161D01*
X169445044Y-77310317D01*
X169802313Y-77310317D01*
X169807031Y-77352939D01*
X169817457Y-77347847D01*
X169818910Y-77325329D01*
X170007738Y-77325329D01*
X170022750Y-77340341D01*
X170037762Y-77325329D01*
X170022750Y-77310317D01*
X170007738Y-77325329D01*
X169818910Y-77325329D01*
X169821422Y-77286378D01*
X169817457Y-77272787D01*
X169806498Y-77269016D01*
X169802313Y-77310317D01*
X169445044Y-77310317D01*
X169426259Y-77271979D01*
X169406671Y-77265649D01*
X169393841Y-77302714D01*
X169284213Y-77302714D01*
X169294342Y-77294447D01*
X169302699Y-77274225D01*
X169309835Y-77210062D01*
X169302617Y-77184154D01*
X169301866Y-77170593D01*
X169322474Y-77190222D01*
X169385449Y-77230482D01*
X169422277Y-77238904D01*
X169494692Y-77247345D01*
X169579901Y-77261850D01*
X169648799Y-77269073D01*
X169675514Y-77250860D01*
X169677478Y-77235686D01*
X169679775Y-77230254D01*
X170137841Y-77230254D01*
X170141962Y-77248103D01*
X170157856Y-77250270D01*
X170182569Y-77239285D01*
X170177872Y-77230254D01*
X170142241Y-77226661D01*
X170137841Y-77230254D01*
X169679775Y-77230254D01*
X169690357Y-77205234D01*
X169947691Y-77205234D01*
X169962703Y-77220246D01*
X169977714Y-77205234D01*
X169962703Y-77190222D01*
X169947691Y-77205234D01*
X169690357Y-77205234D01*
X169694486Y-77195472D01*
X169709274Y-77190222D01*
X169725753Y-77171211D01*
X169719360Y-77155097D01*
X169717913Y-77132468D01*
X169746743Y-77138809D01*
X169806554Y-77135545D01*
X169838165Y-77115317D01*
X169878741Y-77086963D01*
X169895004Y-77087496D01*
X169931220Y-77104947D01*
X169999806Y-77127875D01*
X170006601Y-77129849D01*
X170071301Y-77145360D01*
X170093201Y-77134576D01*
X170086623Y-77089706D01*
X170085880Y-77086735D01*
X170080171Y-77035964D01*
X170108092Y-77027071D01*
X170127975Y-77031442D01*
X170175970Y-77030699D01*
X170187880Y-77013582D01*
X170202232Y-76981845D01*
X170236879Y-76996717D01*
X170268935Y-77036824D01*
X170288793Y-77077856D01*
X170265517Y-77082909D01*
X170245773Y-77078264D01*
X170202203Y-77078024D01*
X170195916Y-77119728D01*
X170196934Y-77126987D01*
X170223641Y-77208627D01*
X170267389Y-77235924D01*
X170323063Y-77206411D01*
X170335069Y-77193600D01*
X170384735Y-77143420D01*
X170418289Y-77120697D01*
X170438464Y-77091467D01*
X170438666Y-77076162D01*
X170454141Y-77047603D01*
X170468689Y-77048723D01*
X170502755Y-77085018D01*
X170507171Y-77102736D01*
X170513418Y-77169144D01*
X170514677Y-77182717D01*
X170539627Y-77217672D01*
X170552245Y-77220246D01*
X170572014Y-77195222D01*
X170572063Y-77117892D01*
X170567460Y-77077634D01*
X170560703Y-77001861D01*
X170564071Y-76963941D01*
X170570884Y-76965045D01*
X170613310Y-76985696D01*
X170688742Y-76997601D01*
X170703413Y-76998283D01*
X170774621Y-76997360D01*
X170799078Y-76981429D01*
X170789955Y-76939402D01*
X170785978Y-76928775D01*
X170779111Y-76904998D01*
X170968495Y-76904998D01*
X170983729Y-76942364D01*
X171000770Y-76944279D01*
X171031789Y-76913283D01*
X171033045Y-76904998D01*
X171009671Y-76869794D01*
X171000770Y-76865717D01*
X170973393Y-76880210D01*
X170968495Y-76904998D01*
X170779111Y-76904998D01*
X170764410Y-76854093D01*
X170758329Y-76808319D01*
X170764294Y-76779263D01*
X170791155Y-76791382D01*
X170818376Y-76814927D01*
X170861384Y-76844428D01*
X170878424Y-76838268D01*
X170857683Y-76794986D01*
X170833388Y-76769891D01*
X170820180Y-76754880D01*
X170908447Y-76754880D01*
X170923459Y-76769891D01*
X170938471Y-76754880D01*
X170923459Y-76739868D01*
X170908447Y-76754880D01*
X170820180Y-76754880D01*
X170795672Y-76727025D01*
X170788353Y-76707110D01*
X170810507Y-76693754D01*
X170833388Y-76698987D01*
X170871357Y-76693657D01*
X170879503Y-76660515D01*
X170886662Y-76632501D01*
X170912017Y-76646619D01*
X170954413Y-76694832D01*
X171002953Y-76747298D01*
X171025275Y-76751713D01*
X171028393Y-76733727D01*
X171048392Y-76677249D01*
X171096095Y-76613632D01*
X171151899Y-76519235D01*
X171162682Y-76432126D01*
X171165568Y-76389592D01*
X171428857Y-76389592D01*
X171432978Y-76407441D01*
X171448873Y-76409608D01*
X171473586Y-76398623D01*
X171468889Y-76389592D01*
X171433258Y-76385999D01*
X171428857Y-76389592D01*
X171165568Y-76389592D01*
X171167594Y-76359736D01*
X171180984Y-76321381D01*
X171185200Y-76319537D01*
X171208036Y-76342566D01*
X171208684Y-76349561D01*
X171231764Y-76378430D01*
X171240479Y-76379584D01*
X171250924Y-76368870D01*
X171333084Y-76368870D01*
X171342891Y-76376297D01*
X171396848Y-76355508D01*
X171431470Y-76338323D01*
X171484788Y-76308580D01*
X171487421Y-76293185D01*
X171443719Y-76279466D01*
X171385851Y-76270938D01*
X171362615Y-76275692D01*
X171372947Y-76288075D01*
X171389560Y-76289513D01*
X171404303Y-76302075D01*
X171372046Y-76333594D01*
X171333084Y-76368870D01*
X171250924Y-76368870D01*
X171258410Y-76361191D01*
X171253719Y-76349561D01*
X171260869Y-76324142D01*
X171283858Y-76319537D01*
X171317278Y-76296794D01*
X171322521Y-76242615D01*
X171300539Y-76178072D01*
X171275961Y-76144480D01*
X171267869Y-76127765D01*
X171339099Y-76127765D01*
X171343790Y-76139395D01*
X171370770Y-76168037D01*
X171375586Y-76169419D01*
X171388481Y-76146190D01*
X171388826Y-76139395D01*
X171365745Y-76110525D01*
X171357030Y-76109371D01*
X171339099Y-76127765D01*
X171267869Y-76127765D01*
X171252495Y-76096008D01*
X171270283Y-76063652D01*
X171307222Y-76063140D01*
X171363407Y-76077837D01*
X171421308Y-76091157D01*
X171482213Y-76121351D01*
X171496367Y-76173191D01*
X171511190Y-76231211D01*
X171535617Y-76252840D01*
X171562158Y-76250692D01*
X171555550Y-76232046D01*
X171554890Y-76214454D01*
X171598991Y-76214454D01*
X171614003Y-76229466D01*
X171629015Y-76214454D01*
X171614003Y-76199442D01*
X171598991Y-76214454D01*
X171554890Y-76214454D01*
X171553668Y-76181891D01*
X171591878Y-76134511D01*
X171652737Y-76109872D01*
X171662715Y-76109371D01*
X171709470Y-76096068D01*
X171719086Y-76079348D01*
X171694050Y-76054617D01*
X171661494Y-76049324D01*
X171582643Y-76038596D01*
X171551486Y-76029210D01*
X171515625Y-76023694D01*
X171520779Y-76044222D01*
X171531206Y-76076027D01*
X171510342Y-76073836D01*
X171473125Y-76041977D01*
X171460644Y-76026806D01*
X171424378Y-75967898D01*
X171429964Y-75945733D01*
X171476189Y-75964539D01*
X171478147Y-75965753D01*
X171533181Y-75987721D01*
X171574223Y-75966007D01*
X171622856Y-75934267D01*
X171642525Y-75930184D01*
X171646672Y-75945397D01*
X171615770Y-75975220D01*
X171576357Y-76009543D01*
X171586498Y-76016258D01*
X171647786Y-75995431D01*
X171689411Y-75978383D01*
X171749194Y-75947756D01*
X171756797Y-75926200D01*
X171709753Y-75911920D01*
X171605596Y-75903120D01*
X171584749Y-75902156D01*
X171475305Y-75893573D01*
X171422579Y-75878921D01*
X171423433Y-75856958D01*
X171439856Y-75844731D01*
X171472018Y-75801978D01*
X171488101Y-75759096D01*
X171548952Y-75759096D01*
X171553073Y-75776945D01*
X171568967Y-75779111D01*
X171593680Y-75768126D01*
X171588983Y-75759096D01*
X171553352Y-75755502D01*
X171548952Y-75759096D01*
X171488101Y-75759096D01*
X171494783Y-75741281D01*
X171518611Y-75681760D01*
X171543970Y-75659017D01*
X171558860Y-75640430D01*
X171553956Y-75628993D01*
X171555184Y-75601276D01*
X171565172Y-75598969D01*
X171596913Y-75574114D01*
X171614505Y-75537341D01*
X171637382Y-75495758D01*
X171671982Y-75507286D01*
G37*
G36*
X167084679Y-58431017D02*
G01*
X167152322Y-58450384D01*
X167210634Y-58484796D01*
X167220132Y-58493999D01*
X167261464Y-58527528D01*
X167284333Y-58511591D01*
X167285315Y-58509247D01*
X167299079Y-58486159D01*
X167303240Y-58509784D01*
X167322202Y-58534661D01*
X167335634Y-58530530D01*
X167355973Y-58541395D01*
X167363802Y-58599326D01*
X167359552Y-58692752D01*
X167343653Y-58810102D01*
X167321109Y-58920837D01*
X167300456Y-59016836D01*
X167296658Y-59061002D01*
X167309508Y-59059074D01*
X167316367Y-59050647D01*
X167327887Y-59025920D01*
X167605847Y-59025920D01*
X167616832Y-59050633D01*
X167625863Y-59045936D01*
X167629456Y-59010305D01*
X167625863Y-59005904D01*
X167608014Y-59010025D01*
X167605847Y-59025920D01*
X167327887Y-59025920D01*
X167341782Y-58996093D01*
X167370939Y-58903391D01*
X167395220Y-58802952D01*
X167419159Y-58703639D01*
X167442379Y-58632752D01*
X167459866Y-58605589D01*
X167459910Y-58605589D01*
X167496847Y-58626571D01*
X167547255Y-58674752D01*
X167590386Y-58727988D01*
X167605847Y-58761368D01*
X167629236Y-58784633D01*
X167639083Y-58785731D01*
X167658833Y-58763770D01*
X167654716Y-58740695D01*
X167755965Y-58740695D01*
X167770977Y-58755707D01*
X167785989Y-58740695D01*
X167770977Y-58725683D01*
X167755965Y-58740695D01*
X167654716Y-58740695D01*
X167654438Y-58739136D01*
X167652333Y-58708109D01*
X167667441Y-58711628D01*
X167685504Y-58704306D01*
X167678855Y-58653140D01*
X167672645Y-58590858D01*
X167695320Y-58580275D01*
X167742853Y-58622866D01*
X167747195Y-58628107D01*
X167775521Y-58658207D01*
X167781366Y-58642865D01*
X167772612Y-58590577D01*
X167764165Y-58539815D01*
X167770554Y-58531141D01*
X167798223Y-58567774D01*
X167832737Y-58620601D01*
X167910330Y-58740695D01*
X167890809Y-58643118D01*
X167887651Y-58573360D01*
X167907208Y-58543314D01*
X167940998Y-58561743D01*
X167953100Y-58578771D01*
X167981185Y-58592631D01*
X168002739Y-58571265D01*
X168021489Y-58551449D01*
X168014434Y-58584180D01*
X168013998Y-58585527D01*
X167998341Y-58664762D01*
X167996154Y-58699887D01*
X167986193Y-58741284D01*
X167971447Y-58743981D01*
X167955752Y-58759508D01*
X167948868Y-58817394D01*
X167948929Y-58831847D01*
X167960847Y-58905478D01*
X167987051Y-58948427D01*
X167990718Y-58950280D01*
X168016250Y-58988344D01*
X168010020Y-59029532D01*
X168003623Y-59074263D01*
X168022961Y-59072943D01*
X168049050Y-59033955D01*
X168054993Y-58980509D01*
X168053239Y-58975880D01*
X168396469Y-58975880D01*
X168400591Y-58993729D01*
X168416485Y-58995896D01*
X168441198Y-58984911D01*
X168436501Y-58975880D01*
X168400870Y-58972287D01*
X168396469Y-58975880D01*
X168053239Y-58975880D01*
X168040118Y-58941254D01*
X168026178Y-58935849D01*
X168000471Y-58911775D01*
X168000451Y-58890813D01*
X168116249Y-58890813D01*
X168131261Y-58905825D01*
X168146272Y-58890813D01*
X168131261Y-58875802D01*
X168116249Y-58890813D01*
X168000451Y-58890813D01*
X168000415Y-58854384D01*
X168181136Y-58854384D01*
X168188441Y-58871163D01*
X168218671Y-58903394D01*
X168236051Y-58896783D01*
X168236343Y-58892585D01*
X168215018Y-58867191D01*
X168201681Y-58857923D01*
X168181136Y-58854384D01*
X168000415Y-58854384D01*
X168000412Y-58850800D01*
X168024921Y-58769795D01*
X168038653Y-58740702D01*
X168068639Y-58686548D01*
X168082482Y-58683135D01*
X168091194Y-58727413D01*
X168114220Y-58792849D01*
X168146200Y-58807999D01*
X168171229Y-58772718D01*
X168176296Y-58728185D01*
X168178809Y-58660696D01*
X168197895Y-58639750D01*
X168250878Y-58654084D01*
X168275782Y-58663508D01*
X168321450Y-58687131D01*
X168337302Y-58723856D01*
X168330263Y-58794189D01*
X168326685Y-58814273D01*
X168319033Y-58894031D01*
X168326240Y-58944763D01*
X168343608Y-58956783D01*
X168366437Y-58920407D01*
X168371311Y-58906261D01*
X168399272Y-58858586D01*
X168430479Y-58846850D01*
X168446440Y-58877312D01*
X168446509Y-58880806D01*
X168460016Y-58899402D01*
X168468979Y-58893363D01*
X168466241Y-58861094D01*
X168437320Y-58831311D01*
X168402598Y-58793087D01*
X168400409Y-58738883D01*
X168412142Y-58691154D01*
X168432694Y-58641376D01*
X168447007Y-58645491D01*
X168452065Y-58697433D01*
X168448044Y-58763418D01*
X168465319Y-58816997D01*
X168487727Y-58833456D01*
X168518574Y-58869838D01*
X168516460Y-58893298D01*
X168523180Y-58930267D01*
X168543375Y-58935849D01*
X168598698Y-58920935D01*
X168608481Y-58871886D01*
X168595558Y-58827954D01*
X168580216Y-58778541D01*
X168597156Y-58775451D01*
X168628414Y-58793512D01*
X168679560Y-58815204D01*
X168711352Y-58793749D01*
X168715657Y-58787164D01*
X168730178Y-58738388D01*
X168717084Y-58706156D01*
X168690628Y-58708243D01*
X168674206Y-58693644D01*
X168668684Y-58648685D01*
X168681016Y-58588611D01*
X168708260Y-58580656D01*
X168735784Y-58627578D01*
X168738046Y-58635613D01*
X168761294Y-58684273D01*
X168779056Y-58695660D01*
X168822111Y-58718968D01*
X168881243Y-58777990D01*
X168942618Y-58856371D01*
X168992404Y-58937758D01*
X169003102Y-58960527D01*
X169038183Y-59020744D01*
X169070832Y-59043073D01*
X169076376Y-59041321D01*
X169104493Y-59043111D01*
X169107029Y-59054172D01*
X169130242Y-59084472D01*
X169140307Y-59085967D01*
X169160163Y-59061134D01*
X169154116Y-59008392D01*
X169147370Y-58954707D01*
X169167932Y-58951397D01*
X169168700Y-58951864D01*
X169190184Y-58994342D01*
X169189366Y-59042947D01*
X169194475Y-59106564D01*
X169217971Y-59129097D01*
X169249830Y-59167903D01*
X169251050Y-59195039D01*
X169259712Y-59243816D01*
X169275051Y-59256452D01*
X169294290Y-59240273D01*
X169293615Y-59169831D01*
X169289799Y-59139473D01*
X169281614Y-59023641D01*
X169283973Y-58945857D01*
X169327202Y-58945857D01*
X169331324Y-58963706D01*
X169347218Y-58965873D01*
X169371931Y-58954887D01*
X169367234Y-58945857D01*
X169331603Y-58942264D01*
X169327202Y-58945857D01*
X169283973Y-58945857D01*
X169285165Y-58906571D01*
X169286907Y-58890813D01*
X169302183Y-58770719D01*
X169372655Y-58884070D01*
X169414081Y-58970555D01*
X169424673Y-59038918D01*
X169404323Y-59076629D01*
X169374324Y-59078740D01*
X169334098Y-59094440D01*
X169325951Y-59108485D01*
X169336909Y-59141033D01*
X169357640Y-59146014D01*
X169397366Y-59171491D01*
X169412683Y-59211216D01*
X169432598Y-59260658D01*
X169464496Y-59290484D01*
X169491087Y-59289334D01*
X169497336Y-59266839D01*
X169479090Y-59246583D01*
X169467313Y-59251097D01*
X169441609Y-59244291D01*
X169437289Y-59222845D01*
X169452964Y-59181767D01*
X169467313Y-59176038D01*
X169527360Y-59176038D01*
X169537603Y-59205281D01*
X169540600Y-59206062D01*
X169566233Y-59185023D01*
X169572395Y-59176038D01*
X169570015Y-59148372D01*
X169559155Y-59146014D01*
X169528582Y-59167809D01*
X169527360Y-59176038D01*
X169467313Y-59176038D01*
X169485913Y-59149357D01*
X169496447Y-59082511D01*
X169496867Y-59068453D01*
X169559754Y-59068453D01*
X169565274Y-59107394D01*
X169575523Y-59107859D01*
X169582690Y-59067676D01*
X169577893Y-59050314D01*
X169564562Y-59038942D01*
X169559754Y-59068453D01*
X169496867Y-59068453D01*
X169497336Y-59052772D01*
X169476666Y-58928957D01*
X169422277Y-58840303D01*
X169373659Y-58774105D01*
X169348277Y-58723110D01*
X169347218Y-58715970D01*
X169362528Y-58719346D01*
X169402476Y-58762844D01*
X169452870Y-58829442D01*
X169512869Y-58911123D01*
X169560877Y-58971618D01*
X169582661Y-58994476D01*
X169612061Y-59033657D01*
X169629271Y-59070955D01*
X169649878Y-59112592D01*
X169673575Y-59100390D01*
X169690438Y-59078461D01*
X169700532Y-59070955D01*
X169797573Y-59070955D01*
X169812584Y-59085967D01*
X169827596Y-59070955D01*
X169812584Y-59055943D01*
X169797573Y-59070955D01*
X169700532Y-59070955D01*
X169748542Y-59035255D01*
X169789875Y-59025920D01*
X169842590Y-59000026D01*
X169881466Y-58938801D01*
X169890891Y-58868296D01*
X169913198Y-58850057D01*
X169947691Y-58845778D01*
X169997870Y-58867008D01*
X170007738Y-58905825D01*
X169993837Y-58954590D01*
X169974502Y-58965873D01*
X169955199Y-58988003D01*
X169960287Y-59015440D01*
X169953526Y-59068783D01*
X169913020Y-59127737D01*
X169857729Y-59169136D01*
X169828852Y-59176038D01*
X169801109Y-59200336D01*
X169797573Y-59221074D01*
X169804167Y-59258100D01*
X169832169Y-59259211D01*
X169893905Y-59224007D01*
X169903712Y-59217620D01*
X169955325Y-59191198D01*
X169977606Y-59194457D01*
X169977628Y-59195103D01*
X169954932Y-59227410D01*
X169899255Y-59273148D01*
X169887644Y-59281121D01*
X169826952Y-59333341D01*
X169798113Y-59381368D01*
X169807083Y-59411798D01*
X169827596Y-59416227D01*
X169856747Y-59393380D01*
X169857620Y-59386204D01*
X169880174Y-59357049D01*
X169887243Y-59356180D01*
X169927692Y-59340407D01*
X169997014Y-59300331D01*
X170037722Y-59273615D01*
X170114829Y-59212425D01*
X170146569Y-59160557D01*
X170147232Y-59122780D01*
X170148251Y-59063098D01*
X170161883Y-59038443D01*
X170180627Y-59051720D01*
X170187880Y-59102883D01*
X170193002Y-59156668D01*
X170214299Y-59159847D01*
X170231600Y-59147106D01*
X170288373Y-59126620D01*
X170329482Y-59154962D01*
X170337998Y-59192822D01*
X170354785Y-59231626D01*
X170368022Y-59236085D01*
X170396228Y-59212337D01*
X170398505Y-59198556D01*
X170407270Y-59178588D01*
X170421023Y-59194061D01*
X170462800Y-59234683D01*
X170517776Y-59266047D01*
X170564581Y-59278446D01*
X170581940Y-59267165D01*
X170592609Y-59208470D01*
X170593199Y-59206062D01*
X170601304Y-59152565D01*
X170604458Y-59115991D01*
X170618265Y-59063343D01*
X170641804Y-59059952D01*
X170663166Y-59099062D01*
X170670628Y-59153520D01*
X170672999Y-59251097D01*
X170703154Y-59168532D01*
X170733072Y-59109458D01*
X170760831Y-59085967D01*
X170773580Y-59073257D01*
X170820178Y-59073257D01*
X170833312Y-59114255D01*
X170863412Y-59146014D01*
X170899516Y-59203330D01*
X170912536Y-59262279D01*
X170917072Y-59309808D01*
X170924382Y-59299908D01*
X170927284Y-59286608D01*
X171036439Y-59286608D01*
X171077391Y-59302000D01*
X171081083Y-59302790D01*
X171140879Y-59295352D01*
X171162199Y-59244566D01*
X171156078Y-59201252D01*
X171142361Y-59162148D01*
X171120979Y-59166490D01*
X171084699Y-59203321D01*
X171038707Y-59258338D01*
X171036439Y-59286608D01*
X170927284Y-59286608D01*
X170928910Y-59279153D01*
X170927600Y-59204567D01*
X170910553Y-59136541D01*
X170878910Y-59078368D01*
X170865749Y-59068453D01*
X171120983Y-59068453D01*
X171126503Y-59107394D01*
X171136752Y-59107859D01*
X171137979Y-59100979D01*
X171268731Y-59100979D01*
X171283743Y-59115991D01*
X171298755Y-59100979D01*
X171283743Y-59085967D01*
X171268731Y-59100979D01*
X171137979Y-59100979D01*
X171143919Y-59067676D01*
X171139122Y-59050314D01*
X171125791Y-59038942D01*
X171120983Y-59068453D01*
X170865749Y-59068453D01*
X170849143Y-59055943D01*
X170820178Y-59073257D01*
X170773580Y-59073257D01*
X170785260Y-59061612D01*
X170788353Y-59040932D01*
X170772141Y-59000977D01*
X170758329Y-58995896D01*
X170739604Y-58980884D01*
X170878424Y-58980884D01*
X170893436Y-58995896D01*
X170908447Y-58980884D01*
X170893436Y-58965873D01*
X171193672Y-58965873D01*
X171196052Y-58993539D01*
X171206912Y-58995896D01*
X171237486Y-58974102D01*
X171238707Y-58965873D01*
X171228464Y-58936630D01*
X171225467Y-58935849D01*
X171199834Y-58956888D01*
X171193672Y-58965873D01*
X170893436Y-58965873D01*
X170878424Y-58980884D01*
X170739604Y-58980884D01*
X170729500Y-58972784D01*
X170728305Y-58963849D01*
X170751779Y-58945539D01*
X170790246Y-58951462D01*
X170832495Y-58960581D01*
X170830700Y-58938305D01*
X170813048Y-58908449D01*
X170768916Y-58860015D01*
X170736095Y-58845778D01*
X170701049Y-58824699D01*
X170698282Y-58812078D01*
X170685542Y-58794681D01*
X170655919Y-58813536D01*
X170619111Y-58832799D01*
X170597165Y-58809500D01*
X170585248Y-58736166D01*
X170582729Y-58700328D01*
X170581506Y-58635664D01*
X170593626Y-58621703D01*
X170624674Y-58647787D01*
X170673738Y-58686013D01*
X170699655Y-58695660D01*
X170729758Y-58719830D01*
X170769062Y-58779371D01*
X170776388Y-58793237D01*
X170816047Y-58868947D01*
X170841206Y-58900725D01*
X170864948Y-58897974D01*
X170892420Y-58876645D01*
X170924043Y-58814067D01*
X170919914Y-58767284D01*
X170912739Y-58708731D01*
X170927543Y-58700382D01*
X170955498Y-58740900D01*
X170970078Y-58774883D01*
X170996867Y-58825908D01*
X171018092Y-58836212D01*
X171015426Y-58801895D01*
X171004506Y-58776805D01*
X171407572Y-58776805D01*
X171448873Y-58780990D01*
X171491495Y-58776272D01*
X171488782Y-58770719D01*
X171929251Y-58770719D01*
X171944263Y-58785731D01*
X171959275Y-58770719D01*
X171944263Y-58755707D01*
X171929251Y-58770719D01*
X171488782Y-58770719D01*
X171486402Y-58765847D01*
X171424934Y-58761881D01*
X171411343Y-58765847D01*
X171407572Y-58776805D01*
X171004506Y-58776805D01*
X170987308Y-58737292D01*
X170972460Y-58710672D01*
X171358802Y-58710672D01*
X171373814Y-58725683D01*
X171388826Y-58710672D01*
X171373814Y-58695660D01*
X171358802Y-58710672D01*
X170972460Y-58710672D01*
X170972217Y-58710237D01*
X170927511Y-58631877D01*
X170912362Y-58591885D01*
X170924981Y-58577409D01*
X170953483Y-58575565D01*
X170993287Y-58599598D01*
X170998518Y-58620601D01*
X171025372Y-58656355D01*
X171088589Y-58665636D01*
X171151834Y-58674118D01*
X171178653Y-58694556D01*
X171178660Y-58694917D01*
X171202709Y-58708356D01*
X171259878Y-58693318D01*
X171344117Y-58677834D01*
X171444562Y-58680223D01*
X171458831Y-58682330D01*
X171535814Y-58689711D01*
X171560149Y-58677582D01*
X171557928Y-58672063D01*
X171562223Y-58639710D01*
X171604374Y-58619752D01*
X171662290Y-58621073D01*
X171674816Y-58625049D01*
X171703960Y-58649801D01*
X171686152Y-58684154D01*
X171667802Y-58709673D01*
X171673590Y-58723945D01*
X171714361Y-58730436D01*
X171800962Y-58732609D01*
X171838928Y-58732948D01*
X171950092Y-58746564D01*
X172010609Y-58782407D01*
X172041210Y-58808935D01*
X172051384Y-58800743D01*
X172060898Y-58802268D01*
X172076936Y-58845778D01*
X172111690Y-58903568D01*
X172149002Y-58916667D01*
X172192371Y-58928021D01*
X172192031Y-58975416D01*
X172168339Y-59027978D01*
X172144932Y-59064071D01*
X172117816Y-59066656D01*
X172067458Y-59034494D01*
X172048244Y-59020358D01*
X171989523Y-58967084D01*
X171960075Y-58921056D01*
X171959275Y-58915191D01*
X171934147Y-58883542D01*
X171897456Y-58875802D01*
X171855109Y-58886220D01*
X171852248Y-58902679D01*
X171852052Y-58933619D01*
X171817575Y-58944137D01*
X171772137Y-58930772D01*
X171755273Y-58917075D01*
X171733959Y-58884438D01*
X171764401Y-58875837D01*
X171769371Y-58875802D01*
X171804817Y-58871446D01*
X171793991Y-58848486D01*
X171773436Y-58827214D01*
X171726148Y-58800529D01*
X171684062Y-58802943D01*
X171668487Y-58829799D01*
X171675770Y-58848561D01*
X171662277Y-58863343D01*
X171599071Y-58861590D01*
X171570612Y-58857570D01*
X171494204Y-58847884D01*
X171463505Y-58855133D01*
X171465426Y-58884066D01*
X171469146Y-58894392D01*
X171481303Y-58932589D01*
X171465501Y-58925351D01*
X171438690Y-58899467D01*
X171395683Y-58865166D01*
X171358842Y-58873834D01*
X171328562Y-58897965D01*
X171289284Y-58939253D01*
X171296005Y-58974110D01*
X171318945Y-59001619D01*
X171354312Y-59077929D01*
X171370206Y-59202780D01*
X171370706Y-59220691D01*
X171376015Y-59318260D01*
X171390045Y-59368929D01*
X171417026Y-59385680D01*
X171424583Y-59386102D01*
X171478137Y-59400771D01*
X171492626Y-59414153D01*
X171490529Y-59450775D01*
X171438495Y-59474276D01*
X171345846Y-59481220D01*
X171314603Y-59479777D01*
X171239387Y-59478990D01*
X171217624Y-59491822D01*
X171225611Y-59504322D01*
X171272175Y-59523737D01*
X171356037Y-59537247D01*
X171413921Y-59540674D01*
X171504797Y-59546608D01*
X171567726Y-59557985D01*
X171584095Y-59566533D01*
X171568744Y-59585109D01*
X171511703Y-59601488D01*
X171431328Y-59613010D01*
X171345975Y-59617018D01*
X171275708Y-59611196D01*
X171220884Y-59601642D01*
X171221463Y-59608759D01*
X171261225Y-59630357D01*
X171318680Y-59667724D01*
X171320143Y-59689039D01*
X171267829Y-59692987D01*
X171176412Y-59680573D01*
X171078644Y-59666992D01*
X170999749Y-59663321D01*
X170973752Y-59666177D01*
X170963886Y-59675905D01*
X171005255Y-59682442D01*
X171016032Y-59682957D01*
X171100523Y-59693704D01*
X171134187Y-59721433D01*
X171128344Y-59764434D01*
X171099595Y-59803193D01*
X171076215Y-59796900D01*
X171078782Y-59753993D01*
X171088286Y-59718836D01*
X171070400Y-59727212D01*
X171044264Y-59751112D01*
X171011113Y-59805253D01*
X171023248Y-59846050D01*
X171072967Y-59855577D01*
X171087560Y-59851897D01*
X171141803Y-59857442D01*
X171159150Y-59880699D01*
X171155062Y-59918662D01*
X171120126Y-59926629D01*
X171040867Y-59937357D01*
X170983751Y-59963667D01*
X170968495Y-59988230D01*
X170996074Y-59998455D01*
X171069380Y-60003413D01*
X171174260Y-60002364D01*
X171208684Y-60000823D01*
X171328067Y-59995680D01*
X171399652Y-59997225D01*
X171435534Y-60007809D01*
X171447806Y-60029784D01*
X171448873Y-60047517D01*
X171453524Y-60089298D01*
X171477283Y-60103852D01*
X171534862Y-60094510D01*
X171589721Y-60079406D01*
X171653039Y-60064990D01*
X171672763Y-60075074D01*
X171667122Y-60098988D01*
X171670014Y-60119202D01*
X171697838Y-60106771D01*
X171929251Y-60106771D01*
X171939495Y-60136014D01*
X171942491Y-60136795D01*
X171968124Y-60115756D01*
X171974287Y-60106771D01*
X171971906Y-60079105D01*
X171961047Y-60076747D01*
X171930473Y-60098542D01*
X171929251Y-60106771D01*
X171697838Y-60106771D01*
X171711319Y-60100748D01*
X171751649Y-60073812D01*
X171821469Y-60021416D01*
X171869382Y-59979524D01*
X171876250Y-59971665D01*
X171894407Y-59969278D01*
X171898768Y-59995239D01*
X171907110Y-60030974D01*
X171942090Y-60025255D01*
X171963764Y-60014297D01*
X172005302Y-59995983D01*
X172019453Y-60010652D01*
X172013595Y-60070098D01*
X172010559Y-60089092D01*
X171992817Y-60198426D01*
X172016546Y-60181830D01*
X172079369Y-60181830D01*
X172094381Y-60196842D01*
X172109393Y-60181830D01*
X172094381Y-60166818D01*
X172079369Y-60181830D01*
X172016546Y-60181830D01*
X172059475Y-60151806D01*
X172139417Y-60151806D01*
X172155629Y-60191761D01*
X172169440Y-60196842D01*
X172196077Y-60172524D01*
X172199464Y-60151806D01*
X172183252Y-60111852D01*
X172169440Y-60106771D01*
X172142804Y-60131089D01*
X172139417Y-60151806D01*
X172059475Y-60151806D01*
X172073623Y-60141911D01*
X172147581Y-60102453D01*
X172213761Y-60086589D01*
X172254344Y-60097208D01*
X172259511Y-60111775D01*
X172277707Y-60137609D01*
X172317025Y-60130245D01*
X172354560Y-60097317D01*
X172364594Y-60076747D01*
X172398717Y-60028046D01*
X172428436Y-60016700D01*
X172457961Y-60031726D01*
X172454744Y-60046596D01*
X172464649Y-60078847D01*
X172510908Y-60110501D01*
X172548859Y-60131199D01*
X172569915Y-60159768D01*
X172577494Y-60210898D01*
X172575014Y-60299276D01*
X172570705Y-60367514D01*
X172556981Y-60502098D01*
X172535676Y-60635108D01*
X172513094Y-60731446D01*
X172483197Y-60837929D01*
X172473218Y-60892330D01*
X172482525Y-60893161D01*
X172510486Y-60838939D01*
X172534745Y-60782303D01*
X172576374Y-60641595D01*
X172604718Y-60461074D01*
X172612430Y-60367737D01*
X172624981Y-60231164D01*
X172641723Y-60153389D01*
X172661195Y-60134678D01*
X172681936Y-60175298D01*
X172702485Y-60275515D01*
X172712402Y-60349497D01*
X172728603Y-60451751D01*
X172748656Y-60530593D01*
X172764671Y-60563893D01*
X172780564Y-60563901D01*
X172775352Y-60512090D01*
X172829960Y-60512090D01*
X172844972Y-60527102D01*
X172859984Y-60512090D01*
X172844972Y-60497078D01*
X172829960Y-60512090D01*
X172775352Y-60512090D01*
X172775117Y-60509758D01*
X172768295Y-60478231D01*
X172755647Y-60404759D01*
X172747198Y-60320252D01*
X172743557Y-60244020D01*
X172872457Y-60244020D01*
X172890610Y-60272626D01*
X172929704Y-60303331D01*
X172948495Y-60293874D01*
X172936278Y-60258887D01*
X172895435Y-60228449D01*
X172884559Y-60226865D01*
X172872457Y-60244020D01*
X172743557Y-60244020D01*
X172743346Y-60239593D01*
X172744489Y-60177668D01*
X172751024Y-60149358D01*
X172759773Y-60159312D01*
X172787798Y-60198961D01*
X172810820Y-60189081D01*
X172819418Y-60140026D01*
X172814413Y-60099265D01*
X172802856Y-60036212D01*
X172809374Y-60024964D01*
X172838769Y-60058767D01*
X172841096Y-60061735D01*
X172876045Y-60095262D01*
X172888320Y-60084905D01*
X172878352Y-60042204D01*
X172846568Y-59978698D01*
X172837466Y-59964263D01*
X172811468Y-59916418D01*
X172815945Y-59903402D01*
X172819890Y-59905460D01*
X172858331Y-59903735D01*
X172867599Y-59889287D01*
X172884036Y-59889941D01*
X172910221Y-59936327D01*
X172921230Y-59964159D01*
X172955986Y-60035439D01*
X172992198Y-60074324D01*
X173001122Y-60076747D01*
X173036825Y-60063346D01*
X173022740Y-60021364D01*
X172990437Y-59981535D01*
X172957644Y-59940833D01*
X172966901Y-59927652D01*
X172989865Y-59926629D01*
X173032406Y-59952365D01*
X173059823Y-60013523D01*
X173065119Y-60086032D01*
X173050103Y-60133820D01*
X173040739Y-60203193D01*
X173062005Y-60256889D01*
X173090027Y-60303424D01*
X173099005Y-60298403D01*
X173097998Y-60271901D01*
X173095100Y-60183368D01*
X173099959Y-60114630D01*
X173110910Y-60082257D01*
X173116957Y-60083523D01*
X173129916Y-60120982D01*
X173143610Y-60196777D01*
X173149243Y-60241287D01*
X173152943Y-60344389D01*
X173133302Y-60411870D01*
X173112794Y-60439673D01*
X173083396Y-60483955D01*
X173097543Y-60497078D01*
X173120667Y-60519776D01*
X173114206Y-60560211D01*
X173100337Y-60634036D01*
X173094186Y-60726382D01*
X173094168Y-60730979D01*
X173081315Y-60825392D01*
X173050231Y-60905611D01*
X173048682Y-60908036D01*
X173024928Y-60957555D01*
X173032085Y-60977456D01*
X173066395Y-60953799D01*
X173096369Y-60909903D01*
X173121827Y-60863663D01*
X173125504Y-60872672D01*
X173117462Y-60917409D01*
X173109550Y-60969148D01*
X173122195Y-60966150D01*
X173148821Y-60932421D01*
X173190244Y-60932421D01*
X173205256Y-60947433D01*
X173220268Y-60932421D01*
X173205256Y-60917409D01*
X173190244Y-60932421D01*
X173148821Y-60932421D01*
X173194822Y-60889889D01*
X173226499Y-60881250D01*
X173268014Y-60868120D01*
X173325154Y-60826455D01*
X173376420Y-60774922D01*
X173400316Y-60732183D01*
X173400410Y-60730262D01*
X173382094Y-60716489D01*
X173373186Y-60720525D01*
X173358506Y-60710254D01*
X173363060Y-60671970D01*
X173377010Y-60626997D01*
X173389958Y-60635404D01*
X173406533Y-60677890D01*
X173414826Y-60747359D01*
X173379623Y-60820972D01*
X173371624Y-60832085D01*
X173324569Y-60902787D01*
X173313036Y-60937138D01*
X173337648Y-60930672D01*
X173360290Y-60913580D01*
X173393805Y-60889093D01*
X173391246Y-60906893D01*
X173375301Y-60937953D01*
X173344234Y-61005517D01*
X173347775Y-61024787D01*
X173384563Y-60995553D01*
X173429213Y-60946299D01*
X173481260Y-60892363D01*
X173513865Y-60871909D01*
X173519284Y-60877735D01*
X173501010Y-60927446D01*
X173480897Y-60952794D01*
X173448994Y-60999872D01*
X173424260Y-61059825D01*
X173414197Y-61109856D01*
X173423374Y-61127575D01*
X173456685Y-61110210D01*
X173502611Y-61075033D01*
X173544907Y-61040276D01*
X173545991Y-61046426D01*
X173519987Y-61082129D01*
X173460307Y-61150650D01*
X173415421Y-61193719D01*
X173382408Y-61232192D01*
X173393102Y-61246670D01*
X173429211Y-61233586D01*
X173480836Y-61187960D01*
X173555412Y-61102679D01*
X173596011Y-61052516D01*
X173628729Y-61013058D01*
X173628912Y-61022196D01*
X173608999Y-61064088D01*
X173588736Y-61114638D01*
X173607680Y-61125594D01*
X173650538Y-61116519D01*
X173721852Y-61113008D01*
X173746099Y-61143373D01*
X173718407Y-61198764D01*
X173704243Y-61214049D01*
X173667219Y-61262029D01*
X173663116Y-61290203D01*
X173657705Y-61306397D01*
X173645791Y-61307717D01*
X173622779Y-61332466D01*
X173621949Y-61375270D01*
X173617819Y-61459689D01*
X173583692Y-61523867D01*
X173532688Y-61547906D01*
X173500326Y-61559730D01*
X173501454Y-61571396D01*
X173488361Y-61601047D01*
X173438134Y-61647207D01*
X173413591Y-61665038D01*
X173353815Y-61714151D01*
X173326728Y-61753151D01*
X173327632Y-61761763D01*
X173357873Y-61761311D01*
X173414802Y-61730875D01*
X173481971Y-61682246D01*
X173542933Y-61627211D01*
X173579176Y-61581453D01*
X173612174Y-61552702D01*
X173630841Y-61558353D01*
X173626545Y-61591037D01*
X173584295Y-61639791D01*
X173571893Y-61650221D01*
X173512072Y-61716041D01*
X173507552Y-61767624D01*
X173536854Y-61810626D01*
X173553740Y-61818118D01*
X173578730Y-61838856D01*
X173573085Y-61885331D01*
X173540388Y-61933934D01*
X173535516Y-61938213D01*
X173497388Y-61988829D01*
X173490480Y-62016006D01*
X173511421Y-62042771D01*
X173535516Y-62039141D01*
X173569804Y-62030679D01*
X173577587Y-62050209D01*
X173560644Y-62109694D01*
X173550364Y-62138918D01*
X173520177Y-62223438D01*
X173569209Y-62165727D01*
X173614386Y-62165727D01*
X173618307Y-62186596D01*
X173658419Y-62162591D01*
X173681013Y-62141932D01*
X173720378Y-62092900D01*
X173723940Y-62063272D01*
X173721161Y-62061682D01*
X173681938Y-62073606D01*
X173650723Y-62104950D01*
X173614386Y-62165727D01*
X173569209Y-62165727D01*
X173580187Y-62152806D01*
X173624406Y-62066467D01*
X173622953Y-62013469D01*
X173620586Y-61953310D01*
X173635366Y-61926435D01*
X173653136Y-61934648D01*
X173649386Y-61975701D01*
X173633750Y-62043296D01*
X173683912Y-61975743D01*
X173732483Y-61926161D01*
X173769902Y-61908649D01*
X173785449Y-61918407D01*
X173765099Y-61934855D01*
X173740093Y-61970810D01*
X173756188Y-62019866D01*
X173771528Y-62082106D01*
X173751782Y-62117130D01*
X173735263Y-62142203D01*
X173766127Y-62139633D01*
X173783211Y-62134718D01*
X173837363Y-62132561D01*
X173848564Y-62170965D01*
X173816944Y-62248659D01*
X173763025Y-62335148D01*
X173708131Y-62425167D01*
X173668242Y-62508042D01*
X173658207Y-62538686D01*
X173655832Y-62568498D01*
X173674812Y-62542569D01*
X173695091Y-62502925D01*
X173758815Y-62391631D01*
X173829468Y-62298650D01*
X173896038Y-62236698D01*
X173941907Y-62217933D01*
X173976939Y-62242059D01*
X173988504Y-62295121D01*
X173973697Y-62349640D01*
X173957691Y-62367302D01*
X173954104Y-62382819D01*
X173985870Y-62382314D01*
X174032660Y-62390323D01*
X174040501Y-62433579D01*
X174054483Y-62493701D01*
X174076783Y-62516938D01*
X174103250Y-62557389D01*
X174090154Y-62604309D01*
X174046349Y-62628648D01*
X174042706Y-62628757D01*
X174009754Y-62603325D01*
X174000423Y-62561204D01*
X173990832Y-62492899D01*
X173977905Y-62461437D01*
X173939089Y-62427544D01*
X173890079Y-62406403D01*
X173855283Y-62406729D01*
X173850764Y-62416032D01*
X173875624Y-62443664D01*
X173907496Y-62456447D01*
X173945448Y-62482207D01*
X173967665Y-62543790D01*
X173977265Y-62617573D01*
X173983600Y-62704048D01*
X173985207Y-62761277D01*
X173983765Y-62773189D01*
X173960848Y-62760531D01*
X173912375Y-62717431D01*
X173898984Y-62704271D01*
X173849139Y-62661171D01*
X173822257Y-62651061D01*
X173820740Y-62655271D01*
X173839930Y-62698373D01*
X173865776Y-62729550D01*
X173902688Y-62780258D01*
X173910811Y-62806754D01*
X173932397Y-62837621D01*
X173940835Y-62838922D01*
X173970020Y-62858212D01*
X173970859Y-62864119D01*
X173944910Y-62880331D01*
X173882470Y-62884057D01*
X173882045Y-62884032D01*
X173824746Y-62887452D01*
X173808266Y-62902989D01*
X173808758Y-62903871D01*
X173849001Y-62926701D01*
X173869039Y-62928993D01*
X173955490Y-62950608D01*
X174039017Y-63003985D01*
X174095090Y-63071923D01*
X174103019Y-63093075D01*
X174132269Y-63149926D01*
X174166584Y-63169182D01*
X174206213Y-63182487D01*
X174211048Y-63193467D01*
X174227974Y-63233417D01*
X174257498Y-63276033D01*
X174287902Y-63310605D01*
X174295639Y-63300756D01*
X174285659Y-63239450D01*
X174285136Y-63236735D01*
X174279818Y-63166636D01*
X174296268Y-63139182D01*
X174297041Y-63139159D01*
X174309338Y-63119143D01*
X174611363Y-63119143D01*
X174615484Y-63136992D01*
X174631379Y-63139159D01*
X174656092Y-63128173D01*
X174651395Y-63119143D01*
X174615763Y-63115550D01*
X174611363Y-63119143D01*
X174309338Y-63119143D01*
X174313923Y-63111681D01*
X174319479Y-63037905D01*
X174317546Y-62989040D01*
X174317402Y-62899719D01*
X174328153Y-62848332D01*
X174344902Y-62841223D01*
X174362753Y-62884735D01*
X174369685Y-62921487D01*
X174378034Y-62954727D01*
X174384689Y-62930175D01*
X174389061Y-62868946D01*
X174389850Y-62860697D01*
X174526335Y-62860697D01*
X174541308Y-62898969D01*
X174578138Y-62946480D01*
X174602666Y-62959017D01*
X174611832Y-62938245D01*
X174594387Y-62898969D01*
X174556201Y-62852163D01*
X174533029Y-62838922D01*
X174526335Y-62860697D01*
X174389850Y-62860697D01*
X174395902Y-62797401D01*
X174405621Y-62766629D01*
X174411074Y-62771369D01*
X174450726Y-62805963D01*
X174468107Y-62808899D01*
X174493704Y-62798846D01*
X174487667Y-62758631D01*
X174474811Y-62726334D01*
X174448083Y-62673792D01*
X174481261Y-62673792D01*
X174496272Y-62688804D01*
X174511284Y-62673792D01*
X174496272Y-62658780D01*
X174481261Y-62673792D01*
X174448083Y-62673792D01*
X174435332Y-62648726D01*
X174400396Y-62596369D01*
X174372081Y-62532088D01*
X174363596Y-62461263D01*
X174366441Y-62410059D01*
X174375827Y-62402911D01*
X174399006Y-62443784D01*
X174422856Y-62493650D01*
X174457684Y-62564534D01*
X174474420Y-62584990D01*
X174479858Y-62559233D01*
X174480473Y-62529408D01*
X174490206Y-62472032D01*
X174513331Y-62464892D01*
X174533823Y-62506077D01*
X174530589Y-62523313D01*
X174536828Y-62549518D01*
X174578273Y-62545570D01*
X174621784Y-62542623D01*
X174619290Y-62563980D01*
X174573523Y-62594663D01*
X174547042Y-62598845D01*
X174532702Y-62610630D01*
X174570803Y-62643746D01*
X174593849Y-62658451D01*
X174657368Y-62708205D01*
X174690191Y-62755454D01*
X174691426Y-62763422D01*
X174708430Y-62803644D01*
X174723222Y-62808899D01*
X174740182Y-62827715D01*
X174734387Y-62842279D01*
X174733147Y-62884634D01*
X174742906Y-62894820D01*
X174767063Y-62934999D01*
X174787766Y-63008075D01*
X174789756Y-63019064D01*
X174797461Y-63077344D01*
X174794667Y-63091934D01*
X174791975Y-63086617D01*
X174752494Y-63051740D01*
X174736770Y-63049088D01*
X174709955Y-63026092D01*
X174714455Y-62981535D01*
X174722303Y-62935448D01*
X174702407Y-62938943D01*
X174682733Y-62954264D01*
X174651174Y-62987824D01*
X174655611Y-63024384D01*
X174682658Y-63069415D01*
X174713357Y-63125770D01*
X174706908Y-63157174D01*
X174689052Y-63170828D01*
X174662172Y-63201345D01*
X174678044Y-63248187D01*
X174683920Y-63257930D01*
X174709504Y-63327430D01*
X174720226Y-63414020D01*
X174715456Y-63493625D01*
X174694562Y-63542173D01*
X174691426Y-63544478D01*
X174666099Y-63537219D01*
X174661402Y-63513724D01*
X174643687Y-63478146D01*
X174623873Y-63477652D01*
X174598982Y-63515705D01*
X174591035Y-63596967D01*
X174591404Y-63608978D01*
X174591629Y-63685020D01*
X174572358Y-63719333D01*
X174516902Y-63729990D01*
X174478007Y-63731791D01*
X174405969Y-63728644D01*
X174375860Y-63714267D01*
X174377141Y-63708049D01*
X174373239Y-63681521D01*
X174362938Y-63679584D01*
X174332364Y-63657790D01*
X174331142Y-63649561D01*
X174355460Y-63622924D01*
X174376178Y-63619537D01*
X174416174Y-63639710D01*
X174421398Y-63657066D01*
X174431033Y-63664092D01*
X174454279Y-63630467D01*
X174483127Y-63571564D01*
X174509568Y-63502752D01*
X174519595Y-63468602D01*
X174527957Y-63426648D01*
X174517080Y-63423047D01*
X174478780Y-63460623D01*
X174449435Y-63492804D01*
X174388943Y-63552949D01*
X174345449Y-63572449D01*
X174300607Y-63559201D01*
X174298195Y-63557925D01*
X174257134Y-63526101D01*
X174254012Y-63506517D01*
X174287181Y-63508057D01*
X174305694Y-63522032D01*
X174346319Y-63537976D01*
X174380252Y-63514669D01*
X174417437Y-63467236D01*
X174402958Y-63449461D01*
X174338648Y-63459326D01*
X174254417Y-63474529D01*
X174196036Y-63477969D01*
X174163416Y-63481491D01*
X174173705Y-63490055D01*
X174196425Y-63521478D01*
X174191584Y-63536669D01*
X174190712Y-63554515D01*
X174205529Y-63547889D01*
X174236259Y-63556488D01*
X174257711Y-63610803D01*
X174275007Y-63685005D01*
X174286937Y-63730209D01*
X174277446Y-63776489D01*
X174239625Y-63839695D01*
X174237215Y-63842798D01*
X174204848Y-63894246D01*
X174204992Y-63919302D01*
X174208098Y-63919773D01*
X174241996Y-63895688D01*
X174282218Y-63837069D01*
X174285573Y-63830735D01*
X174333255Y-63766932D01*
X174378660Y-63759750D01*
X174405733Y-63782955D01*
X174415458Y-63834289D01*
X174410335Y-63928443D01*
X174409251Y-63939331D01*
X174389624Y-64063947D01*
X174361448Y-64155281D01*
X174328587Y-64203757D01*
X174301824Y-64205434D01*
X174290495Y-64167745D01*
X174301235Y-64099510D01*
X174310408Y-64030491D01*
X174290744Y-64010901D01*
X174250876Y-64045057D01*
X174235975Y-64066896D01*
X174192596Y-64105964D01*
X174160661Y-64108719D01*
X174125427Y-64111834D01*
X174120977Y-64124225D01*
X174144509Y-64162224D01*
X174158506Y-64170102D01*
X174171358Y-64183494D01*
X174146831Y-64187616D01*
X174107002Y-64213915D01*
X174101795Y-64242527D01*
X174083788Y-64285533D01*
X174053747Y-64290953D01*
X174017730Y-64299339D01*
X174017989Y-64313470D01*
X174006743Y-64334258D01*
X173970482Y-64340104D01*
X173921211Y-64355495D01*
X173911986Y-64407657D01*
X173914721Y-64485440D01*
X173904073Y-64505620D01*
X173877775Y-64469603D01*
X173861866Y-64438763D01*
X173826780Y-64377746D01*
X173799083Y-64364757D01*
X173772479Y-64384077D01*
X173744655Y-64440357D01*
X173730223Y-64524803D01*
X173729715Y-64540619D01*
X173726699Y-64611127D01*
X173715703Y-64630115D01*
X173691324Y-64606054D01*
X173689511Y-64603681D01*
X173663660Y-64576852D01*
X173651301Y-64593295D01*
X173646151Y-64661389D01*
X173646146Y-64661512D01*
X173633354Y-64748431D01*
X173607053Y-64805448D01*
X173574342Y-64819926D01*
X173561762Y-64811701D01*
X173562318Y-64776189D01*
X173583779Y-64740386D01*
X173603241Y-64708786D01*
X173590622Y-64709824D01*
X173550513Y-64707328D01*
X173540450Y-64693069D01*
X173528924Y-64689824D01*
X173522874Y-64734251D01*
X173509423Y-64816496D01*
X173479903Y-64910156D01*
X173476965Y-64917354D01*
X173450967Y-64991995D01*
X173453978Y-65042476D01*
X173481525Y-65090231D01*
X173512604Y-65161137D01*
X173535767Y-65261322D01*
X173541464Y-65309034D01*
X173543693Y-65409690D01*
X173526490Y-65476244D01*
X173486635Y-65530131D01*
X173451208Y-65577472D01*
X173451632Y-65600634D01*
X173455223Y-65601097D01*
X173488445Y-65581103D01*
X173490480Y-65571074D01*
X173515029Y-65544999D01*
X173539018Y-65541050D01*
X173572675Y-65556372D01*
X173568426Y-65608603D01*
X173557162Y-65669837D01*
X173544505Y-65771401D01*
X173532822Y-65893694D01*
X173530546Y-65922370D01*
X173511794Y-66168584D01*
X173418572Y-66120190D01*
X173366354Y-66086084D01*
X173355027Y-66062889D01*
X173359414Y-66060277D01*
X173379070Y-66025908D01*
X173369657Y-65943181D01*
X173368806Y-65939365D01*
X173353922Y-65859140D01*
X173350021Y-65812764D01*
X173404913Y-65812764D01*
X173414357Y-65838377D01*
X173428932Y-65836783D01*
X173461148Y-65811522D01*
X173462709Y-65803006D01*
X173443122Y-65779632D01*
X173413092Y-65796553D01*
X173404913Y-65812764D01*
X173350021Y-65812764D01*
X173349225Y-65803307D01*
X173349754Y-65798099D01*
X173333069Y-65772976D01*
X173319612Y-65773144D01*
X173302070Y-65756309D01*
X173308218Y-65706050D01*
X173331803Y-65640994D01*
X173366576Y-65579766D01*
X173394975Y-65548556D01*
X173420556Y-65521719D01*
X173397400Y-65511976D01*
X173361112Y-65511026D01*
X173306318Y-65519521D01*
X173279072Y-65554088D01*
X173272160Y-65628352D01*
X173273655Y-65676156D01*
X173270056Y-65708845D01*
X173260898Y-65698674D01*
X173233058Y-65662073D01*
X173206579Y-65682008D01*
X173184626Y-65754994D01*
X173179108Y-65788745D01*
X173169842Y-65867183D01*
X173157471Y-65989468D01*
X173143537Y-66139578D01*
X173129577Y-66301494D01*
X173128051Y-66320014D01*
X173099507Y-66584371D01*
X173057774Y-66796423D01*
X172996631Y-66963508D01*
X172909858Y-67092964D01*
X172791232Y-67192129D01*
X172634533Y-67268340D01*
X172433540Y-67328933D01*
X172236938Y-67371045D01*
X172014057Y-67406790D01*
X171761180Y-67436035D01*
X171489273Y-67458486D01*
X171209303Y-67473850D01*
X170932236Y-67481832D01*
X170669037Y-67482138D01*
X170430673Y-67474474D01*
X170228110Y-67458546D01*
X170072313Y-67434059D01*
X170053583Y-67429611D01*
X169901952Y-67363131D01*
X169750870Y-67243213D01*
X169607242Y-67076133D01*
X169521836Y-66946365D01*
X169458673Y-66846286D01*
X169402141Y-66767695D01*
X169362271Y-66724246D01*
X169355794Y-66720359D01*
X169306593Y-66675630D01*
X169257223Y-66588793D01*
X169252744Y-66576865D01*
X169587407Y-66576865D01*
X169602419Y-66591877D01*
X169617431Y-66576865D01*
X169602419Y-66561854D01*
X169587407Y-66576865D01*
X169252744Y-66576865D01*
X169218260Y-66485023D01*
X169557383Y-66485023D01*
X169567278Y-66528402D01*
X169593275Y-66515398D01*
X169601137Y-66503881D01*
X169597372Y-66465321D01*
X169587897Y-66457074D01*
X169561787Y-66463597D01*
X169557383Y-66485023D01*
X169218260Y-66485023D01*
X169215351Y-66477275D01*
X169188644Y-66358501D01*
X169185612Y-66333594D01*
X169178381Y-66284853D01*
X169302149Y-66284853D01*
X169306706Y-66307614D01*
X169330186Y-66348506D01*
X169339818Y-66336676D01*
X169467313Y-66336676D01*
X169482324Y-66351688D01*
X169497336Y-66336676D01*
X169482324Y-66321665D01*
X169467313Y-66336676D01*
X169339818Y-66336676D01*
X169344412Y-66331033D01*
X169347218Y-66289869D01*
X169336133Y-66248009D01*
X169318506Y-66245795D01*
X169302149Y-66284853D01*
X169178381Y-66284853D01*
X169170374Y-66230883D01*
X169144040Y-66097680D01*
X169112044Y-65961221D01*
X169108906Y-65949072D01*
X169079457Y-65826196D01*
X169057602Y-65716068D01*
X169047578Y-65641191D01*
X169117393Y-65641191D01*
X169119656Y-65661144D01*
X169138958Y-65764124D01*
X169169527Y-65882569D01*
X169206125Y-66000464D01*
X169243517Y-66101791D01*
X169276466Y-66170535D01*
X169292505Y-66189855D01*
X169305982Y-66185398D01*
X169290166Y-66147120D01*
X169261133Y-66083267D01*
X169266568Y-66055848D01*
X169291367Y-66051452D01*
X169339580Y-66076375D01*
X169384021Y-66134471D01*
X169406068Y-66200731D01*
X169406310Y-66205821D01*
X169432866Y-66249360D01*
X169483256Y-66274180D01*
X169560052Y-66319928D01*
X169622675Y-66401517D01*
X169655704Y-66494754D01*
X169655325Y-66544112D01*
X169619573Y-66611495D01*
X169569577Y-66653433D01*
X169522868Y-66683950D01*
X169503739Y-66719341D01*
X169513662Y-66771708D01*
X169554114Y-66853155D01*
X169604359Y-66938915D01*
X169726836Y-67120678D01*
X169844936Y-67248083D01*
X169963711Y-67326074D01*
X170021696Y-67347202D01*
X170108084Y-67366709D01*
X170226915Y-67387812D01*
X170362580Y-67408431D01*
X170499472Y-67426487D01*
X170621983Y-67439900D01*
X170714503Y-67446590D01*
X170758329Y-67445351D01*
X170803783Y-67440630D01*
X170896707Y-67434432D01*
X171024564Y-67427486D01*
X171174820Y-67420520D01*
X171212284Y-67418948D01*
X171578105Y-67397040D01*
X171909834Y-67363270D01*
X172202604Y-67318574D01*
X172451546Y-67263884D01*
X172651791Y-67200135D01*
X172798471Y-67128263D01*
X172826022Y-67109268D01*
X172916984Y-67016687D01*
X172988465Y-66887070D01*
X173041342Y-66716338D01*
X173076492Y-66500411D01*
X173094793Y-66235210D01*
X173097121Y-65916654D01*
X173095929Y-65854108D01*
X173091519Y-65674235D01*
X173086526Y-65543683D01*
X173079243Y-65451734D01*
X173067965Y-65387670D01*
X173050987Y-65340775D01*
X173026603Y-65300331D01*
X173002677Y-65268109D01*
X172945492Y-65208227D01*
X172868906Y-65158707D01*
X172762983Y-65115552D01*
X172617784Y-65074766D01*
X172423372Y-65032352D01*
X172409629Y-65029610D01*
X172332918Y-65018532D01*
X172214701Y-65006468D01*
X172066569Y-64994107D01*
X171900110Y-64982142D01*
X171726912Y-64971262D01*
X171558563Y-64962159D01*
X171406653Y-64955524D01*
X171282770Y-64952048D01*
X171198501Y-64952420D01*
X171168370Y-64955609D01*
X171124694Y-64961930D01*
X171036256Y-64969777D01*
X170918275Y-64977900D01*
X170848400Y-64981919D01*
X170639148Y-64997979D01*
X170410636Y-65023586D01*
X170182311Y-65055960D01*
X169973626Y-65092321D01*
X169804028Y-65129889D01*
X169793258Y-65132723D01*
X169557873Y-65202653D01*
X169377809Y-65273626D01*
X169248398Y-65349304D01*
X169164971Y-65433349D01*
X169122859Y-65529424D01*
X169117393Y-65641191D01*
X169047578Y-65641191D01*
X169047305Y-65639154D01*
X169046982Y-65629530D01*
X169033309Y-65563583D01*
X168985429Y-65526433D01*
X168893052Y-65511907D01*
X168849372Y-65511026D01*
X168780898Y-65503318D01*
X168747411Y-65484420D01*
X168746745Y-65481003D01*
X168718438Y-65466545D01*
X168640228Y-65456254D01*
X168522185Y-65451270D01*
X168481186Y-65450979D01*
X168348696Y-65452845D01*
X168262063Y-65460212D01*
X168207162Y-65475730D01*
X168169870Y-65502051D01*
X168161284Y-65511026D01*
X168109513Y-65555791D01*
X168074066Y-65570614D01*
X168066099Y-65557018D01*
X168086225Y-65538162D01*
X168104662Y-65518904D01*
X168073066Y-65519600D01*
X168041251Y-65526050D01*
X167977695Y-65541393D01*
X167949014Y-65550877D01*
X167948940Y-65550996D01*
X167939585Y-65589003D01*
X167923397Y-65670522D01*
X167903201Y-65779800D01*
X167881819Y-65901084D01*
X167862074Y-66018619D01*
X167846790Y-66116653D01*
X167843802Y-66137684D01*
X167820979Y-66257547D01*
X167789307Y-66368971D01*
X167764192Y-66430080D01*
X167626182Y-66688645D01*
X167509061Y-66898787D01*
X167408090Y-67066386D01*
X167318527Y-67197323D01*
X167235635Y-67297477D01*
X167154672Y-67372730D01*
X167070899Y-67428961D01*
X166979577Y-67472051D01*
X166902045Y-67499680D01*
X166834900Y-67512041D01*
X166719246Y-67523660D01*
X166566621Y-67534140D01*
X166388563Y-67543081D01*
X166196610Y-67550083D01*
X166002299Y-67554748D01*
X165817168Y-67556675D01*
X165652755Y-67555467D01*
X165520597Y-67550724D01*
X165489180Y-67548569D01*
X165320854Y-67531046D01*
X165127854Y-67504436D01*
X164930787Y-67472142D01*
X164750258Y-67437566D01*
X164606872Y-67404113D01*
X164595156Y-67400901D01*
X164449366Y-67332338D01*
X164329434Y-67222379D01*
X164251020Y-67085963D01*
X164244462Y-67066311D01*
X164211481Y-66957448D01*
X164179714Y-66851453D01*
X164173960Y-66832066D01*
X164145812Y-66751984D01*
X164101279Y-66641008D01*
X164049748Y-66522481D01*
X164047176Y-66516818D01*
X163997383Y-66404667D01*
X164052505Y-66404667D01*
X164068578Y-66456898D01*
X164101712Y-66511391D01*
X164119479Y-66510728D01*
X164112915Y-66457777D01*
X164108811Y-66444022D01*
X164082134Y-66394325D01*
X164061678Y-66381712D01*
X164052505Y-66404667D01*
X163997383Y-66404667D01*
X163980247Y-66366070D01*
X163937032Y-66258015D01*
X163913925Y-66181876D01*
X163907322Y-66126874D01*
X163909072Y-66103993D01*
X163903326Y-66059774D01*
X163890331Y-66051452D01*
X163860867Y-66027595D01*
X163824116Y-65976393D01*
X164003010Y-65976393D01*
X164018022Y-65991404D01*
X164033034Y-65976393D01*
X164018022Y-65961381D01*
X164003010Y-65976393D01*
X163824116Y-65976393D01*
X163817765Y-65967545D01*
X163811978Y-65957796D01*
X164153650Y-65957796D01*
X164153952Y-66098865D01*
X164157357Y-66247617D01*
X164163696Y-66390991D01*
X164172803Y-66515925D01*
X164184511Y-66609358D01*
X164184516Y-66609388D01*
X164218349Y-66794659D01*
X164246910Y-66931207D01*
X164273800Y-67029695D01*
X164302618Y-67100789D01*
X164336965Y-67155152D01*
X164380440Y-67203449D01*
X164387329Y-67210207D01*
X164483070Y-67283019D01*
X164596610Y-67342961D01*
X164629224Y-67355155D01*
X164724970Y-67380310D01*
X164864760Y-67409349D01*
X165032953Y-67439563D01*
X165213908Y-67468245D01*
X165391986Y-67492689D01*
X165489180Y-67504006D01*
X165595687Y-67510204D01*
X165744524Y-67511914D01*
X165921836Y-67509683D01*
X166113770Y-67504057D01*
X166306471Y-67495584D01*
X166486085Y-67484812D01*
X166638760Y-67472288D01*
X166750639Y-67458559D01*
X166780197Y-67453002D01*
X166890796Y-67424765D01*
X166987860Y-67393824D01*
X167035398Y-67374045D01*
X167105404Y-67325855D01*
X167187713Y-67251937D01*
X167271126Y-67164894D01*
X167344450Y-67077331D01*
X167396489Y-67001853D01*
X167416046Y-66951065D01*
X167415439Y-66946171D01*
X167420408Y-66888449D01*
X167449350Y-66807851D01*
X167461716Y-66783030D01*
X167521490Y-66671505D01*
X167475631Y-66636913D01*
X167513271Y-66636913D01*
X167558495Y-66561854D01*
X167591756Y-66498188D01*
X167604783Y-66458272D01*
X167596149Y-66442032D01*
X167573908Y-66466362D01*
X167548184Y-66516672D01*
X167532910Y-66561854D01*
X167513271Y-66636913D01*
X167475631Y-66636913D01*
X167454104Y-66620675D01*
X167414480Y-66581203D01*
X167414266Y-66558344D01*
X167449542Y-66528688D01*
X167500593Y-66470670D01*
X167509711Y-66459094D01*
X167551932Y-66390488D01*
X167547077Y-66352851D01*
X167543486Y-66350258D01*
X167525794Y-66324061D01*
X167542848Y-66308477D01*
X167577308Y-66316155D01*
X167602162Y-66357265D01*
X167616204Y-66380797D01*
X167633073Y-66372278D01*
X167656442Y-66324822D01*
X167689981Y-66231541D01*
X167722932Y-66130756D01*
X167783406Y-65920829D01*
X167821627Y-65740448D01*
X167837249Y-65595131D01*
X167829923Y-65490393D01*
X167799301Y-65431750D01*
X167767738Y-65420955D01*
X167713720Y-65404494D01*
X167644365Y-65364734D01*
X167642161Y-65363180D01*
X167553082Y-65320675D01*
X167411624Y-65279616D01*
X167225455Y-65241137D01*
X167002244Y-65206371D01*
X166749657Y-65176454D01*
X166475363Y-65152518D01*
X166187029Y-65135697D01*
X166074641Y-65131383D01*
X165845430Y-65126638D01*
X165651083Y-65129941D01*
X165466800Y-65142563D01*
X165267783Y-65165776D01*
X165188944Y-65176799D01*
X164900904Y-65223470D01*
X164668759Y-65273063D01*
X164488369Y-65327327D01*
X164355594Y-65388015D01*
X164266292Y-65456876D01*
X164216324Y-65535661D01*
X164202905Y-65593710D01*
X164190403Y-65666991D01*
X164173827Y-65710432D01*
X164173026Y-65711302D01*
X164163019Y-65750953D01*
X164156616Y-65837472D01*
X164153650Y-65957796D01*
X163811978Y-65957796D01*
X163799458Y-65936706D01*
X163789301Y-65916345D01*
X163972986Y-65916345D01*
X163987998Y-65931357D01*
X164003010Y-65916345D01*
X163987998Y-65901334D01*
X163972986Y-65916345D01*
X163789301Y-65916345D01*
X163774325Y-65886322D01*
X163912939Y-65886322D01*
X163927951Y-65901334D01*
X163942963Y-65886322D01*
X163927951Y-65871310D01*
X163912939Y-65886322D01*
X163774325Y-65886322D01*
X163761218Y-65860046D01*
X163754681Y-65813286D01*
X163767897Y-65791247D01*
X163832876Y-65791247D01*
X163836997Y-65809096D01*
X163852892Y-65811263D01*
X163877605Y-65800277D01*
X163872908Y-65791247D01*
X163837276Y-65787654D01*
X163832876Y-65791247D01*
X163767897Y-65791247D01*
X163775192Y-65779082D01*
X163799016Y-65730429D01*
X163819889Y-65649905D01*
X163832371Y-65573057D01*
X164080063Y-65573057D01*
X164086246Y-65596487D01*
X164102921Y-65622220D01*
X164119022Y-65595124D01*
X164126235Y-65571074D01*
X164143500Y-65499248D01*
X164150135Y-65458485D01*
X164136327Y-65423706D01*
X164126606Y-65420955D01*
X164097775Y-65446525D01*
X164080267Y-65505895D01*
X164080063Y-65573057D01*
X163832371Y-65573057D01*
X163834827Y-65557934D01*
X163840843Y-65474945D01*
X163834951Y-65421363D01*
X163828728Y-65412818D01*
X163830985Y-65407129D01*
X163845386Y-65409922D01*
X163879757Y-65402294D01*
X163882915Y-65392375D01*
X163898179Y-65375920D01*
X164153128Y-65375920D01*
X164168140Y-65390932D01*
X164183152Y-65375920D01*
X164168140Y-65360908D01*
X164153128Y-65375920D01*
X163898179Y-65375920D01*
X163908509Y-65364784D01*
X163968011Y-65346317D01*
X164035504Y-65340948D01*
X164085071Y-65352651D01*
X164092653Y-65360216D01*
X164116602Y-65374449D01*
X164134303Y-65345007D01*
X164175423Y-65307454D01*
X164208536Y-65308347D01*
X164254521Y-65303450D01*
X164263215Y-65281730D01*
X164248484Y-65244455D01*
X164247272Y-65244026D01*
X164303246Y-65244026D01*
X164325863Y-65267855D01*
X164378580Y-65263074D01*
X164419040Y-65244107D01*
X164440943Y-65213260D01*
X164429256Y-65199434D01*
X164425959Y-65198982D01*
X164497397Y-65198982D01*
X164512137Y-65208047D01*
X164568873Y-65202622D01*
X164659438Y-65182597D01*
X164678542Y-65177478D01*
X164765450Y-65143774D01*
X164837518Y-65099076D01*
X164881070Y-65054055D01*
X164882426Y-65019380D01*
X164881895Y-65018832D01*
X164886647Y-65002034D01*
X164898715Y-65000624D01*
X164929080Y-65021415D01*
X164929149Y-65064133D01*
X164899658Y-65099299D01*
X164896213Y-65100835D01*
X164894821Y-65111466D01*
X164941613Y-65117130D01*
X164948755Y-65117285D01*
X165035318Y-65105707D01*
X167305610Y-65105707D01*
X167320622Y-65120719D01*
X167380670Y-65120719D01*
X167383050Y-65148385D01*
X167393909Y-65150743D01*
X167424483Y-65128948D01*
X167425705Y-65120719D01*
X167415461Y-65091476D01*
X167412465Y-65090695D01*
X167386832Y-65111734D01*
X167380670Y-65120719D01*
X167320622Y-65120719D01*
X167335634Y-65105707D01*
X167320622Y-65090695D01*
X167305610Y-65105707D01*
X165035318Y-65105707D01*
X165040342Y-65105035D01*
X165108410Y-65079982D01*
X165154301Y-65047542D01*
X165150211Y-65019924D01*
X165146525Y-65016471D01*
X165217662Y-65016471D01*
X165217883Y-65028893D01*
X165256969Y-65045652D01*
X165317019Y-65045630D01*
X165368779Y-65040656D01*
X166504980Y-65040656D01*
X166509101Y-65058505D01*
X166524996Y-65060672D01*
X166549709Y-65049686D01*
X166545012Y-65040656D01*
X166509381Y-65037063D01*
X166504980Y-65040656D01*
X165368779Y-65040656D01*
X165414243Y-65036287D01*
X165483446Y-65032717D01*
X165544557Y-65025166D01*
X165554514Y-65010329D01*
X165520906Y-64993360D01*
X165513341Y-64991844D01*
X165634294Y-64991844D01*
X165657543Y-65015195D01*
X165730484Y-65013512D01*
X165741879Y-65011817D01*
X165814923Y-64998498D01*
X165856309Y-64987472D01*
X165858659Y-64986066D01*
X165838314Y-64978021D01*
X165776313Y-64968734D01*
X165751074Y-64966093D01*
X165665389Y-64966445D01*
X165634438Y-64989281D01*
X165634294Y-64991844D01*
X165513341Y-64991844D01*
X165451323Y-64979415D01*
X165398147Y-64974778D01*
X165312558Y-64974435D01*
X165278315Y-64986499D01*
X165281226Y-65004203D01*
X165284604Y-65028075D01*
X165252357Y-65021082D01*
X165217662Y-65016471D01*
X165146525Y-65016471D01*
X165135128Y-65005796D01*
X165100296Y-64945807D01*
X165105049Y-64920561D01*
X165394105Y-64920561D01*
X165398227Y-64938410D01*
X165414121Y-64940577D01*
X165438834Y-64929592D01*
X165436740Y-64925565D01*
X165474168Y-64925565D01*
X165489180Y-64940577D01*
X165504192Y-64925565D01*
X165489180Y-64910553D01*
X165474168Y-64925565D01*
X165436740Y-64925565D01*
X165434137Y-64920561D01*
X165398506Y-64916968D01*
X165394105Y-64920561D01*
X165105049Y-64920561D01*
X165112831Y-64879230D01*
X165124611Y-64866976D01*
X167588307Y-64866976D01*
X167591048Y-64880874D01*
X167623160Y-64905762D01*
X167657573Y-64909939D01*
X167665894Y-64898754D01*
X167642343Y-64879471D01*
X167619299Y-64869074D01*
X167588307Y-64866976D01*
X165124611Y-64866976D01*
X165165493Y-64824449D01*
X165214355Y-64804649D01*
X165309038Y-64782466D01*
X165218967Y-64759991D01*
X165128896Y-64737516D01*
X165226473Y-64733964D01*
X165292941Y-64724374D01*
X165323783Y-64705791D01*
X165324050Y-64703809D01*
X165350672Y-64668648D01*
X165418182Y-64631723D01*
X165508048Y-64599915D01*
X165601734Y-64580107D01*
X165664633Y-64577348D01*
X165738243Y-64579188D01*
X165766089Y-64565535D01*
X165761972Y-64528502D01*
X165760186Y-64522745D01*
X165757890Y-64505234D01*
X166224759Y-64505234D01*
X166239771Y-64520246D01*
X166254783Y-64505234D01*
X166239771Y-64490222D01*
X166224759Y-64505234D01*
X165757890Y-64505234D01*
X165754488Y-64479295D01*
X165785117Y-64462440D01*
X165834201Y-64460199D01*
X165898304Y-64451774D01*
X165900942Y-64445187D01*
X165954547Y-64445187D01*
X165969558Y-64460199D01*
X165984570Y-64445187D01*
X165969558Y-64430175D01*
X165954547Y-64445187D01*
X165900942Y-64445187D01*
X165907958Y-64427667D01*
X165907764Y-64427348D01*
X165865976Y-64406983D01*
X165816112Y-64408136D01*
X165749884Y-64405875D01*
X165716191Y-64387348D01*
X165717359Y-64375546D01*
X166107427Y-64375546D01*
X166128937Y-64396390D01*
X166134688Y-64400152D01*
X166179866Y-64426368D01*
X166193792Y-64418571D01*
X166194736Y-64400152D01*
X166194255Y-64399662D01*
X166540310Y-64399662D01*
X166546833Y-64425772D01*
X166568259Y-64430175D01*
X166609435Y-64423213D01*
X166615067Y-64416935D01*
X166593066Y-64388911D01*
X166553479Y-64388286D01*
X166540310Y-64399662D01*
X166194255Y-64399662D01*
X166169980Y-64374917D01*
X166142194Y-64370588D01*
X166107427Y-64375546D01*
X165717359Y-64375546D01*
X165718047Y-64368595D01*
X165764762Y-64356028D01*
X165862610Y-64348376D01*
X165918659Y-64346373D01*
X166074218Y-64341576D01*
X166246184Y-64335694D01*
X166374878Y-64330869D01*
X166489392Y-64330283D01*
X166582802Y-64337036D01*
X166636838Y-64349699D01*
X166639869Y-64351593D01*
X166687293Y-64366611D01*
X166777301Y-64379792D01*
X166892433Y-64388754D01*
X166921143Y-64389986D01*
X167038636Y-64397373D01*
X167134120Y-64409166D01*
X167190639Y-64423111D01*
X167196578Y-64426573D01*
X167251939Y-64452803D01*
X167302544Y-64464828D01*
X167369040Y-64493213D01*
X167400121Y-64527752D01*
X167435987Y-64601466D01*
X167450368Y-64631048D01*
X167487587Y-64682444D01*
X167518598Y-64690178D01*
X167528857Y-64653574D01*
X167525869Y-64634549D01*
X167530308Y-64623389D01*
X167556161Y-64658427D01*
X167598015Y-64732142D01*
X167603290Y-64742148D01*
X167665483Y-64871460D01*
X167693642Y-64956354D01*
X167687289Y-64995096D01*
X167673400Y-64997069D01*
X167603425Y-65009297D01*
X167564832Y-65060402D01*
X167567868Y-65133055D01*
X167578771Y-65157076D01*
X167620420Y-65183543D01*
X167709005Y-65211557D01*
X167831573Y-65238342D01*
X167975168Y-65261126D01*
X168126835Y-65277136D01*
X168146272Y-65278562D01*
X168231451Y-65279544D01*
X168357961Y-65275207D01*
X168507444Y-65266778D01*
X168661542Y-65255480D01*
X168801897Y-65242539D01*
X168910149Y-65229181D01*
X168926887Y-65226471D01*
X169076402Y-65193659D01*
X169217110Y-65150332D01*
X169333145Y-65102303D01*
X169408637Y-65055383D01*
X169417284Y-65046855D01*
X169454126Y-65011145D01*
X169460380Y-65022555D01*
X169457060Y-65034756D01*
X169458765Y-65070493D01*
X169496893Y-65069487D01*
X169533866Y-65054398D01*
X169526740Y-65027117D01*
X169523782Y-65023470D01*
X169600429Y-65023470D01*
X169629941Y-65028278D01*
X169639662Y-65026900D01*
X169715303Y-65026900D01*
X169737297Y-65012510D01*
X169741251Y-65008631D01*
X169764162Y-64970601D01*
X169797573Y-64970601D01*
X169820420Y-64999752D01*
X169827596Y-65000624D01*
X169856747Y-64977777D01*
X169857620Y-64970601D01*
X169843635Y-64952757D01*
X169935786Y-64952757D01*
X169951885Y-64967416D01*
X170020183Y-64954866D01*
X170067785Y-64940577D01*
X170111395Y-64922650D01*
X170097541Y-64914231D01*
X170088531Y-64913546D01*
X170051933Y-64898154D01*
X170052058Y-64895542D01*
X170277951Y-64895542D01*
X170292963Y-64910553D01*
X170302370Y-64901147D01*
X170368891Y-64901147D01*
X170376600Y-64924928D01*
X170392153Y-64936936D01*
X170437286Y-64944382D01*
X170516034Y-64941337D01*
X170609450Y-64930530D01*
X170698588Y-64914691D01*
X170764501Y-64896550D01*
X170788353Y-64879846D01*
X170765649Y-64873352D01*
X170831398Y-64873352D01*
X170860910Y-64878159D01*
X170899851Y-64872639D01*
X170900316Y-64862390D01*
X170889798Y-64860514D01*
X171909235Y-64860514D01*
X171913357Y-64878363D01*
X171929251Y-64880530D01*
X171953964Y-64869545D01*
X171949267Y-64860514D01*
X171913636Y-64856921D01*
X171909235Y-64860514D01*
X170889798Y-64860514D01*
X170860133Y-64855223D01*
X170842771Y-64860020D01*
X170831398Y-64873352D01*
X170765649Y-64873352D01*
X170761562Y-64872183D01*
X170693431Y-64870036D01*
X170602316Y-64872471D01*
X170506577Y-64878556D01*
X170424573Y-64887359D01*
X170374662Y-64897948D01*
X170368891Y-64901147D01*
X170302370Y-64901147D01*
X170307975Y-64895542D01*
X170292963Y-64880530D01*
X170277951Y-64895542D01*
X170052058Y-64895542D01*
X170052774Y-64880530D01*
X170061129Y-64852390D01*
X170034106Y-64860356D01*
X169981408Y-64900873D01*
X169970798Y-64910553D01*
X169935786Y-64952757D01*
X169843635Y-64952757D01*
X169834773Y-64941450D01*
X169827596Y-64940577D01*
X169798445Y-64963424D01*
X169797573Y-64970601D01*
X169764162Y-64970601D01*
X169764966Y-64969266D01*
X169761751Y-64954794D01*
X169739417Y-64963804D01*
X169724444Y-64991824D01*
X169715303Y-65026900D01*
X169639662Y-65026900D01*
X169668882Y-65022758D01*
X169669347Y-65012509D01*
X169629163Y-65005342D01*
X169611801Y-65010138D01*
X169600429Y-65023470D01*
X169523782Y-65023470D01*
X169502986Y-64997826D01*
X169444795Y-64953228D01*
X169400593Y-64940577D01*
X169359952Y-64915893D01*
X169347352Y-64849312D01*
X169350116Y-64831911D01*
X171030312Y-64831911D01*
X171070324Y-64852885D01*
X171151413Y-64857607D01*
X171179019Y-64855618D01*
X171251366Y-64842848D01*
X171280568Y-64824821D01*
X171277629Y-64817371D01*
X171231656Y-64806421D01*
X171155746Y-64818445D01*
X171154932Y-64818677D01*
X171083126Y-64831813D01*
X171058640Y-64815309D01*
X171058566Y-64813383D01*
X171046925Y-64794234D01*
X171040547Y-64798469D01*
X171030312Y-64831911D01*
X169350116Y-64831911D01*
X169362805Y-64752043D01*
X169400292Y-64648448D01*
X169461260Y-64535044D01*
X169530289Y-64463310D01*
X169624766Y-64415597D01*
X169632443Y-64412821D01*
X169692410Y-64380981D01*
X169715276Y-64347321D01*
X169715008Y-64345444D01*
X169718471Y-64340104D01*
X171959275Y-64340104D01*
X171969518Y-64369347D01*
X171972515Y-64370128D01*
X171998148Y-64349089D01*
X172004310Y-64340104D01*
X172001930Y-64312438D01*
X171991070Y-64310081D01*
X171960497Y-64331875D01*
X171959275Y-64340104D01*
X169718471Y-64340104D01*
X169733456Y-64316995D01*
X169767549Y-64310081D01*
X169816341Y-64297818D01*
X169827596Y-64280807D01*
X169854811Y-64251171D01*
X169930698Y-64207980D01*
X170003746Y-64174974D01*
X170157856Y-64174974D01*
X170172868Y-64189986D01*
X170187880Y-64174974D01*
X170172868Y-64159962D01*
X170157856Y-64174974D01*
X170003746Y-64174974D01*
X170046619Y-64155602D01*
X170163181Y-64109923D01*
X170468101Y-64109923D01*
X170472222Y-64127772D01*
X170488116Y-64129939D01*
X170512829Y-64118954D01*
X170508132Y-64109923D01*
X170472501Y-64106330D01*
X170468101Y-64109923D01*
X170163181Y-64109923D01*
X170172868Y-64106127D01*
X170265238Y-64081309D01*
X170371423Y-64064840D01*
X170383034Y-64063857D01*
X170465496Y-64051156D01*
X170520959Y-64030771D01*
X170527932Y-64024856D01*
X170556910Y-64014381D01*
X170567088Y-64029737D01*
X170593928Y-64047456D01*
X170652764Y-64027327D01*
X170662379Y-64022416D01*
X170747163Y-63995220D01*
X170849115Y-63983804D01*
X170863412Y-63983958D01*
X170983506Y-63987725D01*
X170878424Y-64009844D01*
X170825610Y-64022622D01*
X170810797Y-64032374D01*
X170839309Y-64040456D01*
X170916473Y-64048225D01*
X171047614Y-64057037D01*
X171068809Y-64058324D01*
X171180679Y-64068424D01*
X171273164Y-64082774D01*
X171324330Y-64097534D01*
X171391384Y-64112691D01*
X171453334Y-64109280D01*
X171539555Y-64110776D01*
X171598198Y-64129514D01*
X171659757Y-64149992D01*
X171686246Y-64137072D01*
X171667526Y-64100790D01*
X171645747Y-64082449D01*
X171609047Y-64050518D01*
X171607995Y-64039868D01*
X171650606Y-64054327D01*
X171730046Y-64092426D01*
X171832057Y-64146244D01*
X171942382Y-64207863D01*
X172046764Y-64269363D01*
X172130945Y-64322825D01*
X172173700Y-64354093D01*
X172240284Y-64403214D01*
X172291687Y-64429353D01*
X172299344Y-64430635D01*
X172310772Y-64442232D01*
X172290691Y-64458849D01*
X172269129Y-64484138D01*
X172289536Y-64517708D01*
X172328912Y-64551183D01*
X172382238Y-64608022D01*
X172403219Y-64660885D01*
X172402814Y-64665581D01*
X172415056Y-64704616D01*
X172439653Y-64707459D01*
X172464375Y-64708890D01*
X172439744Y-64734771D01*
X172432614Y-64740451D01*
X172400221Y-64781084D01*
X172402590Y-64804036D01*
X172388517Y-64814741D01*
X172328985Y-64818423D01*
X172266996Y-64816079D01*
X172177104Y-64814725D01*
X172115981Y-64822663D01*
X172100526Y-64832009D01*
X172076359Y-64835862D01*
X172047854Y-64814702D01*
X172004755Y-64792545D01*
X171935723Y-64775264D01*
X171859419Y-64764905D01*
X171794505Y-64763512D01*
X171759639Y-64773130D01*
X171759542Y-64783103D01*
X171742760Y-64795830D01*
X171687071Y-64802668D01*
X171613342Y-64803444D01*
X171542442Y-64797987D01*
X171495236Y-64786123D01*
X171493772Y-64785299D01*
X171448588Y-64781421D01*
X171387582Y-64796630D01*
X171339498Y-64821677D01*
X171328778Y-64838383D01*
X171356742Y-64845197D01*
X171432571Y-64848512D01*
X171544173Y-64848100D01*
X171659038Y-64844612D01*
X171792151Y-64841382D01*
X171899431Y-64843084D01*
X171968908Y-64849244D01*
X171989298Y-64857626D01*
X172016460Y-64870868D01*
X172086814Y-64877820D01*
X172161934Y-64877594D01*
X172293054Y-64882241D01*
X172438625Y-64901421D01*
X172514712Y-64917753D01*
X172634795Y-64944913D01*
X172784455Y-64973138D01*
X172933597Y-64996806D01*
X172950055Y-64999076D01*
X173079936Y-65016801D01*
X173197662Y-65033148D01*
X173282318Y-65045206D01*
X173296542Y-65047311D01*
X173352218Y-65052896D01*
X173378078Y-65037697D01*
X173384269Y-64987137D01*
X173382377Y-64924012D01*
X173375362Y-64845021D01*
X173363727Y-64786049D01*
X173351388Y-64757797D01*
X173342264Y-64770969D01*
X173339902Y-64807973D01*
X173324178Y-64881501D01*
X173309733Y-64910553D01*
X173289968Y-64928936D01*
X173284619Y-64895896D01*
X173286049Y-64864659D01*
X173281268Y-64776477D01*
X173268015Y-64746913D01*
X173436048Y-64746913D01*
X173440516Y-64773429D01*
X173466064Y-64816766D01*
X173484074Y-64802937D01*
X173490480Y-64739419D01*
X173484445Y-64686216D01*
X173463408Y-64686034D01*
X173456470Y-64692365D01*
X173436048Y-64746913D01*
X173268015Y-64746913D01*
X173257286Y-64722978D01*
X173219838Y-64715988D01*
X173215198Y-64718533D01*
X173201208Y-64714621D01*
X173217272Y-64675961D01*
X173229640Y-64640341D01*
X173340362Y-64640341D01*
X173347558Y-64703604D01*
X173364895Y-64730405D01*
X173365186Y-64730412D01*
X173378727Y-64704764D01*
X173377143Y-64642809D01*
X173376790Y-64640341D01*
X173364175Y-64577201D01*
X173352152Y-64550281D01*
X173351966Y-64550270D01*
X173343811Y-64576416D01*
X173340363Y-64639391D01*
X173340362Y-64640341D01*
X173229640Y-64640341D01*
X173242694Y-64602746D01*
X173246809Y-64559749D01*
X173242442Y-64522286D01*
X173233253Y-64544022D01*
X173229595Y-64557776D01*
X173206576Y-64605577D01*
X173179583Y-64596087D01*
X173151153Y-64531705D01*
X173134455Y-64467705D01*
X173114203Y-64372630D01*
X173191157Y-64372630D01*
X173202050Y-64425241D01*
X173227211Y-64452263D01*
X173243035Y-64447439D01*
X173240343Y-64414931D01*
X173223933Y-64379886D01*
X173199373Y-64345275D01*
X173191487Y-64363208D01*
X173191157Y-64372630D01*
X173114203Y-64372630D01*
X173104077Y-64325092D01*
X173281234Y-64325092D01*
X173293624Y-64330463D01*
X173310339Y-64310081D01*
X173335744Y-64255347D01*
X173338416Y-64240663D01*
X173894022Y-64240663D01*
X173899356Y-64263486D01*
X173930630Y-64306618D01*
X173958863Y-64295911D01*
X173968488Y-64242527D01*
X173961543Y-64204710D01*
X173950912Y-64212691D01*
X173921579Y-64237173D01*
X173908591Y-64233649D01*
X173894022Y-64240663D01*
X173338416Y-64240663D01*
X173339443Y-64235022D01*
X173327054Y-64229651D01*
X173310339Y-64250033D01*
X173284933Y-64304767D01*
X173281234Y-64325092D01*
X173104077Y-64325092D01*
X173091590Y-64266475D01*
X173072300Y-64159962D01*
X173340362Y-64159962D01*
X173350606Y-64189205D01*
X173353602Y-64189986D01*
X173379235Y-64168947D01*
X173385398Y-64159962D01*
X173383017Y-64132296D01*
X173372158Y-64129939D01*
X173341584Y-64151733D01*
X173340362Y-64159962D01*
X173072300Y-64159962D01*
X173064139Y-64114897D01*
X173058557Y-64068120D01*
X173370386Y-64068120D01*
X173392180Y-64098693D01*
X173400410Y-64099915D01*
X173429653Y-64089672D01*
X173430433Y-64086675D01*
X173409394Y-64061042D01*
X173400410Y-64054880D01*
X173372743Y-64057260D01*
X173370386Y-64068120D01*
X173058557Y-64068120D01*
X173051010Y-64004885D01*
X173051037Y-63985249D01*
X173416516Y-63985249D01*
X173425424Y-63993710D01*
X173449965Y-63963705D01*
X173467565Y-63934785D01*
X174120977Y-63934785D01*
X174135989Y-63949797D01*
X174151001Y-63934785D01*
X174135989Y-63919773D01*
X174120977Y-63934785D01*
X173467565Y-63934785D01*
X173482128Y-63910856D01*
X173490480Y-63885783D01*
X173469161Y-63850551D01*
X173463819Y-63846792D01*
X173442008Y-63860861D01*
X173424501Y-63917193D01*
X173423304Y-63924714D01*
X173416516Y-63985249D01*
X173051037Y-63985249D01*
X173051114Y-63928357D01*
X173057171Y-63894800D01*
X173078181Y-63814691D01*
X173370386Y-63814691D01*
X173385398Y-63829702D01*
X173400410Y-63814691D01*
X173385398Y-63799679D01*
X173370386Y-63814691D01*
X173078181Y-63814691D01*
X173084374Y-63791078D01*
X173092891Y-63736348D01*
X173082533Y-63722472D01*
X173053592Y-63740914D01*
X173024182Y-63759365D01*
X173014112Y-63740543D01*
X173016816Y-63703874D01*
X173250751Y-63703874D01*
X173255610Y-63737474D01*
X173267835Y-63724620D01*
X173460457Y-63724620D01*
X173475469Y-63739631D01*
X173490480Y-63724620D01*
X173485476Y-63719616D01*
X174191032Y-63719616D01*
X174195153Y-63737465D01*
X174211048Y-63739631D01*
X174235761Y-63728646D01*
X174231064Y-63719616D01*
X174195433Y-63716022D01*
X174191032Y-63719616D01*
X173485476Y-63719616D01*
X173475469Y-63709608D01*
X173460457Y-63724620D01*
X173267835Y-63724620D01*
X173276366Y-63715650D01*
X173280315Y-63709608D01*
X173305804Y-63658268D01*
X173309879Y-63640283D01*
X173300210Y-63634549D01*
X174181024Y-63634549D01*
X174196036Y-63649561D01*
X174211048Y-63634549D01*
X174196036Y-63619537D01*
X174181024Y-63634549D01*
X173300210Y-63634549D01*
X173291500Y-63629384D01*
X173280315Y-63634549D01*
X173254191Y-63677396D01*
X173250751Y-63703874D01*
X173016816Y-63703874D01*
X173019011Y-63674110D01*
X173020406Y-63662380D01*
X173025250Y-63634549D01*
X173070149Y-63634549D01*
X173085161Y-63649561D01*
X173100173Y-63634549D01*
X173085161Y-63619537D01*
X173070149Y-63634549D01*
X173025250Y-63634549D01*
X173040928Y-63544478D01*
X174000882Y-63544478D01*
X174015894Y-63559490D01*
X174030906Y-63544478D01*
X174015894Y-63529466D01*
X174000882Y-63544478D01*
X173040928Y-63544478D01*
X173041975Y-63538464D01*
X173070521Y-63469419D01*
X174030906Y-63469419D01*
X174041891Y-63494132D01*
X174050922Y-63489434D01*
X174054515Y-63453803D01*
X174050922Y-63449403D01*
X174033073Y-63453524D01*
X174030906Y-63469419D01*
X173070521Y-63469419D01*
X173072857Y-63463769D01*
X173117445Y-63427670D01*
X173117506Y-63427647D01*
X173146269Y-63393659D01*
X173147257Y-63389356D01*
X174161008Y-63389356D01*
X174165130Y-63407205D01*
X174181024Y-63409371D01*
X174205737Y-63398386D01*
X174201040Y-63389356D01*
X174165409Y-63385762D01*
X174161008Y-63389356D01*
X173147257Y-63389356D01*
X173159336Y-63336777D01*
X173159085Y-63333856D01*
X173953022Y-63333856D01*
X173955847Y-63349324D01*
X173994231Y-63378202D01*
X174002654Y-63379348D01*
X174013350Y-63370422D01*
X174379912Y-63370422D01*
X174421213Y-63374607D01*
X174463836Y-63369889D01*
X174458743Y-63359464D01*
X174397274Y-63355498D01*
X174383684Y-63359464D01*
X174379912Y-63370422D01*
X174013350Y-63370422D01*
X174030097Y-63356447D01*
X174030906Y-63349324D01*
X174006468Y-63322975D01*
X173984099Y-63319300D01*
X173953022Y-63333856D01*
X173159085Y-63333856D01*
X173156541Y-63304289D01*
X173880788Y-63304289D01*
X173895800Y-63319300D01*
X173910811Y-63304289D01*
X173895800Y-63289277D01*
X173880788Y-63304289D01*
X173156541Y-63304289D01*
X173154730Y-63283231D01*
X173139179Y-63267859D01*
X174035746Y-63267859D01*
X174043051Y-63284638D01*
X174073281Y-63316870D01*
X174090661Y-63310258D01*
X174090953Y-63306061D01*
X174069628Y-63280666D01*
X174056291Y-63271398D01*
X174035746Y-63267859D01*
X173139179Y-63267859D01*
X173130475Y-63259255D01*
X173130197Y-63259253D01*
X173101046Y-63282100D01*
X173100173Y-63289277D01*
X173077184Y-63318262D01*
X173069093Y-63319300D01*
X173054772Y-63298388D01*
X173071486Y-63256756D01*
X173083267Y-63214218D01*
X173130197Y-63214218D01*
X173145209Y-63229230D01*
X173156217Y-63218221D01*
X174151001Y-63218221D01*
X174168049Y-63265952D01*
X174171016Y-63269261D01*
X174203170Y-63276384D01*
X174206544Y-63273765D01*
X174202401Y-63242919D01*
X174186528Y-63222724D01*
X174156301Y-63205799D01*
X174151001Y-63218221D01*
X173156217Y-63218221D01*
X173160220Y-63214218D01*
X173145209Y-63199206D01*
X173130197Y-63214218D01*
X173083267Y-63214218D01*
X173088129Y-63196661D01*
X173064219Y-63154170D01*
X173970859Y-63154170D01*
X173985870Y-63169182D01*
X174000882Y-63154170D01*
X173985870Y-63139159D01*
X173970859Y-63154170D01*
X173064219Y-63154170D01*
X173056853Y-63141079D01*
X173054450Y-63138398D01*
X173021415Y-63081589D01*
X173019663Y-63043319D01*
X173033241Y-63029040D01*
X173037756Y-63056594D01*
X173051629Y-63101235D01*
X173065132Y-63109135D01*
X173082297Y-63083919D01*
X173082492Y-63079111D01*
X173220268Y-63079111D01*
X173231253Y-63103824D01*
X173240283Y-63099127D01*
X173243877Y-63063496D01*
X173240283Y-63059096D01*
X173222434Y-63063217D01*
X173220268Y-63079111D01*
X173082492Y-63079111D01*
X173084017Y-63041582D01*
X173071666Y-63001550D01*
X173162591Y-63001550D01*
X173168111Y-63040491D01*
X173178360Y-63040956D01*
X173185527Y-63000773D01*
X173180730Y-62983411D01*
X173170008Y-62974265D01*
X173495248Y-62974265D01*
X173503306Y-63003538D01*
X173542734Y-63055608D01*
X173550528Y-63064100D01*
X173601266Y-63110157D01*
X173633655Y-63125137D01*
X173635831Y-63123910D01*
X173627773Y-63094637D01*
X173604650Y-63064100D01*
X173910811Y-63064100D01*
X173925823Y-63079111D01*
X173940835Y-63064100D01*
X173925823Y-63049088D01*
X173910811Y-63064100D01*
X173604650Y-63064100D01*
X173588345Y-63042567D01*
X173580551Y-63034076D01*
X173547476Y-63004052D01*
X173910811Y-63004052D01*
X173925823Y-63019064D01*
X173940835Y-63004052D01*
X173925823Y-62989040D01*
X173910811Y-63004052D01*
X173547476Y-63004052D01*
X173529813Y-62988019D01*
X173497424Y-62973038D01*
X173495248Y-62974265D01*
X173170008Y-62974265D01*
X173167398Y-62972039D01*
X173162591Y-63001550D01*
X173071666Y-63001550D01*
X173068503Y-62991297D01*
X173048955Y-62979883D01*
X173020398Y-62958776D01*
X172986469Y-62899169D01*
X172979430Y-62882306D01*
X172965802Y-62853934D01*
X173040126Y-62853934D01*
X173055138Y-62868946D01*
X173070149Y-62853934D01*
X173055138Y-62838922D01*
X173040126Y-62853934D01*
X172965802Y-62853934D01*
X172947074Y-62814946D01*
X172918791Y-62780171D01*
X172914427Y-62778875D01*
X172893409Y-62754162D01*
X172890008Y-62728698D01*
X172882248Y-62703816D01*
X173430433Y-62703816D01*
X173436464Y-62773293D01*
X173451292Y-62807998D01*
X173454428Y-62808899D01*
X173467165Y-62782795D01*
X173467635Y-62718513D01*
X173466155Y-62703816D01*
X173460980Y-62671290D01*
X173612945Y-62671290D01*
X173618465Y-62710231D01*
X173628714Y-62710696D01*
X173635881Y-62670513D01*
X173631085Y-62653151D01*
X173617753Y-62641779D01*
X173612945Y-62671290D01*
X173460980Y-62671290D01*
X173455114Y-62634420D01*
X173443827Y-62599663D01*
X173442160Y-62598733D01*
X173434404Y-62625168D01*
X173430532Y-62690156D01*
X173430433Y-62703816D01*
X172882248Y-62703816D01*
X172870848Y-62667263D01*
X172842702Y-62626248D01*
X172801457Y-62568106D01*
X172787190Y-62533813D01*
X172783998Y-62523304D01*
X173393720Y-62523304D01*
X173395798Y-62561070D01*
X173413585Y-62568709D01*
X173449894Y-62544866D01*
X173453592Y-62531180D01*
X173466090Y-62422159D01*
X173481299Y-62367546D01*
X173492698Y-62358544D01*
X173497199Y-62332546D01*
X173497034Y-62331265D01*
X173662071Y-62331265D01*
X173675147Y-62358510D01*
X173675822Y-62358544D01*
X173693258Y-62332433D01*
X173700644Y-62269530D01*
X173700646Y-62268473D01*
X173697277Y-62205174D01*
X173689164Y-62178407D01*
X173689042Y-62178402D01*
X173677093Y-62204391D01*
X173664429Y-62267044D01*
X173664218Y-62268473D01*
X173662071Y-62331265D01*
X173497034Y-62331265D01*
X173488667Y-62266194D01*
X173485015Y-62248457D01*
X173560536Y-62248457D01*
X173564657Y-62266306D01*
X173580551Y-62268473D01*
X173605264Y-62257488D01*
X173600567Y-62248457D01*
X173564936Y-62244864D01*
X173560536Y-62248457D01*
X173485015Y-62248457D01*
X173470292Y-62176945D01*
X173445262Y-62082260D01*
X173437866Y-62058308D01*
X173421647Y-62026417D01*
X173411998Y-62041297D01*
X173410143Y-62089910D01*
X173417305Y-62159218D01*
X173424754Y-62198026D01*
X173431911Y-62359258D01*
X173414007Y-62442428D01*
X173393720Y-62523304D01*
X172783998Y-62523304D01*
X172768413Y-62471984D01*
X172756137Y-62440883D01*
X172745674Y-62377040D01*
X172749849Y-62289345D01*
X172751878Y-62275753D01*
X172770464Y-62163390D01*
X172724337Y-62266356D01*
X172678209Y-62369322D01*
X172574008Y-62258850D01*
X172508557Y-62195305D01*
X172456816Y-62155367D01*
X172439719Y-62148378D01*
X172410490Y-62128017D01*
X172409629Y-62121687D01*
X172384080Y-62089978D01*
X172321711Y-62052768D01*
X172243945Y-62019176D01*
X172172203Y-61998324D01*
X172127907Y-61999331D01*
X172125906Y-62000893D01*
X172072154Y-62025380D01*
X172050847Y-62027371D01*
X172023607Y-62021588D01*
X172048866Y-62000602D01*
X172057483Y-61995502D01*
X172060394Y-61992308D01*
X172869398Y-61992308D01*
X172872262Y-61998260D01*
X173130197Y-61998260D01*
X173141182Y-62022973D01*
X173150212Y-62018276D01*
X173153806Y-61982645D01*
X173150212Y-61978245D01*
X173132363Y-61982366D01*
X173130197Y-61998260D01*
X172872262Y-61998260D01*
X172897345Y-61978405D01*
X172920031Y-61953225D01*
X172937271Y-61918712D01*
X173014674Y-61918712D01*
X173032185Y-61938137D01*
X173034412Y-61938213D01*
X173063277Y-61918197D01*
X173380394Y-61918197D01*
X173384515Y-61936046D01*
X173400410Y-61938213D01*
X173425122Y-61927228D01*
X173420425Y-61918197D01*
X173384794Y-61914604D01*
X173380394Y-61918197D01*
X173063277Y-61918197D01*
X173069104Y-61914156D01*
X173081970Y-61890669D01*
X173082606Y-61863154D01*
X173520504Y-61863154D01*
X173535516Y-61878166D01*
X173550528Y-61863154D01*
X173535516Y-61848142D01*
X173520504Y-61863154D01*
X173082606Y-61863154D01*
X173082784Y-61855472D01*
X173064540Y-61855016D01*
X173028533Y-61882518D01*
X173014674Y-61918712D01*
X172937271Y-61918712D01*
X172938300Y-61916651D01*
X172926920Y-61908189D01*
X172890789Y-61932171D01*
X172879150Y-61953225D01*
X172869398Y-61992308D01*
X172060394Y-61992308D01*
X172093649Y-61955823D01*
X172077067Y-61921880D01*
X172017550Y-61908189D01*
X171969403Y-61888148D01*
X171959946Y-61863154D01*
X171989298Y-61863154D01*
X172004310Y-61878166D01*
X172019322Y-61863154D01*
X172004310Y-61848142D01*
X171989298Y-61863154D01*
X171959946Y-61863154D01*
X171959275Y-61861382D01*
X171945644Y-61829652D01*
X171931326Y-61831848D01*
X171892917Y-61827817D01*
X171883764Y-61817387D01*
X171843033Y-61799206D01*
X171806630Y-61803909D01*
X171760202Y-61805698D01*
X171749109Y-61790118D01*
X171724824Y-61761699D01*
X171704074Y-61758071D01*
X171664121Y-61741728D01*
X171659038Y-61727799D01*
X171644335Y-61713036D01*
X172849127Y-61713036D01*
X172853146Y-61751822D01*
X172872726Y-61758071D01*
X172918225Y-61782272D01*
X172930889Y-61803107D01*
X172961880Y-61842872D01*
X172977740Y-61848142D01*
X172984497Y-61825867D01*
X172963114Y-61770997D01*
X172956164Y-61758261D01*
X172909830Y-61688519D01*
X172877237Y-61672336D01*
X172851595Y-61706843D01*
X172849127Y-61713036D01*
X171644335Y-61713036D01*
X171633376Y-61702032D01*
X171564957Y-61659793D01*
X171466634Y-61607263D01*
X171376301Y-61562917D01*
X171448873Y-61562917D01*
X171463885Y-61577929D01*
X171478896Y-61562917D01*
X171463885Y-61547906D01*
X171448873Y-61562917D01*
X171376301Y-61562917D01*
X171351260Y-61550624D01*
X171251413Y-61505062D01*
X172383828Y-61505062D01*
X172398685Y-61552927D01*
X172420343Y-61577910D01*
X172420888Y-61577929D01*
X172424998Y-61553626D01*
X172421079Y-61532894D01*
X173310339Y-61532894D01*
X173325350Y-61547906D01*
X173340362Y-61532894D01*
X173325350Y-61517882D01*
X173310339Y-61532894D01*
X172421079Y-61532894D01*
X172418017Y-61516691D01*
X172399602Y-61474144D01*
X172387095Y-61470361D01*
X172383828Y-61505062D01*
X171251413Y-61505062D01*
X171231688Y-61496061D01*
X171120771Y-61449755D01*
X171031361Y-61417889D01*
X171025197Y-61416301D01*
X173250291Y-61416301D01*
X173275557Y-61425669D01*
X173310339Y-61427811D01*
X173359144Y-61416404D01*
X173370386Y-61400598D01*
X173346476Y-61385154D01*
X173310339Y-61389088D01*
X173261834Y-61406517D01*
X173250291Y-61416301D01*
X171025197Y-61416301D01*
X170995653Y-61408689D01*
X170894996Y-61381137D01*
X170861758Y-61367764D01*
X172349582Y-61367764D01*
X172360567Y-61392477D01*
X172369598Y-61387780D01*
X172373191Y-61352149D01*
X172369598Y-61347748D01*
X172351749Y-61351869D01*
X172349582Y-61367764D01*
X170861758Y-61367764D01*
X170807363Y-61345879D01*
X170801121Y-61343741D01*
X173415421Y-61343741D01*
X173415742Y-61358542D01*
X173467878Y-61351711D01*
X173475469Y-61349896D01*
X173535206Y-61337620D01*
X173546043Y-61348072D01*
X173520504Y-61383559D01*
X173498887Y-61417639D01*
X173510924Y-61418073D01*
X173554017Y-61416484D01*
X173565237Y-61427321D01*
X173586556Y-61454280D01*
X173595693Y-61436703D01*
X173596909Y-61369055D01*
X173590050Y-61307769D01*
X173561103Y-61291224D01*
X173520587Y-61297872D01*
X173451312Y-61321936D01*
X173415421Y-61343741D01*
X170801121Y-61343741D01*
X170729835Y-61319326D01*
X170666693Y-61316825D01*
X170599873Y-61311942D01*
X170553897Y-61290339D01*
X170506765Y-61270622D01*
X170462106Y-61288437D01*
X170409810Y-61350515D01*
X170369958Y-61412799D01*
X170346395Y-61446131D01*
X170347951Y-61426137D01*
X170349389Y-61421377D01*
X170351475Y-61389093D01*
X170320914Y-61379182D01*
X170250594Y-61385954D01*
X170168095Y-61390311D01*
X170126576Y-61370699D01*
X170117784Y-61354859D01*
X170076538Y-61316758D01*
X170035202Y-61307717D01*
X169988691Y-61318847D01*
X169984935Y-61363191D01*
X169987731Y-61375270D01*
X169997377Y-61421706D01*
X169983759Y-61413984D01*
X169962744Y-61386642D01*
X169907612Y-61346134D01*
X169836637Y-61347921D01*
X169789085Y-61355431D01*
X169788247Y-61349875D01*
X169790067Y-61349059D01*
X169824408Y-61316819D01*
X169816717Y-61285442D01*
X169789687Y-61277693D01*
X169746386Y-61299717D01*
X169695465Y-61352679D01*
X169695410Y-61352752D01*
X169641830Y-61405958D01*
X169593072Y-61427811D01*
X169532635Y-61448831D01*
X169473020Y-61497488D01*
X169438929Y-61552176D01*
X169437289Y-61564069D01*
X169412267Y-61601011D01*
X169379831Y-61615975D01*
X169326142Y-61608455D01*
X169301590Y-61566935D01*
X169284541Y-61523438D01*
X169272797Y-61535353D01*
X169266045Y-61559201D01*
X169250218Y-61591138D01*
X169214487Y-61604397D01*
X169143170Y-61602281D01*
X169089086Y-61596468D01*
X168997382Y-61590271D01*
X168939330Y-61595463D01*
X168926887Y-61604880D01*
X168903000Y-61620578D01*
X168867177Y-61616741D01*
X168827242Y-61592201D01*
X168826482Y-61570360D01*
X168816069Y-61553061D01*
X168751235Y-61557429D01*
X168736074Y-61560122D01*
X168661215Y-61568613D01*
X168629974Y-61554431D01*
X168626651Y-61537897D01*
X168601576Y-61497987D01*
X168540801Y-61459630D01*
X168536580Y-61457835D01*
X168474125Y-61418339D01*
X168446150Y-61373750D01*
X168446049Y-61371627D01*
X168436908Y-61343560D01*
X168423531Y-61354942D01*
X168363100Y-61401113D01*
X168287844Y-61410246D01*
X168241786Y-61390800D01*
X168209521Y-61368042D01*
X168215607Y-61387117D01*
X168220493Y-61395384D01*
X168229215Y-61424859D01*
X168196233Y-61418844D01*
X168153761Y-61419098D01*
X168146272Y-61440089D01*
X168125153Y-61492450D01*
X168103555Y-61515958D01*
X168069465Y-61532280D01*
X168053192Y-61497735D01*
X168051013Y-61484457D01*
X168027476Y-61422263D01*
X167991986Y-61409410D01*
X167959452Y-61449037D01*
X167954448Y-61464113D01*
X167936795Y-61511397D01*
X167914734Y-61504752D01*
X167894531Y-61480020D01*
X167858826Y-61444644D01*
X167828445Y-61458646D01*
X167816289Y-61472514D01*
X167760341Y-61511087D01*
X167728270Y-61517882D01*
X167663364Y-61537489D01*
X167643148Y-61552638D01*
X167598743Y-61571216D01*
X167568583Y-61554355D01*
X167516133Y-61536911D01*
X167464009Y-61575516D01*
X167426973Y-61634527D01*
X167395346Y-61680703D01*
X167370554Y-61675187D01*
X167362890Y-61664550D01*
X167340557Y-61642590D01*
X167336094Y-61651221D01*
X167321065Y-61652908D01*
X167291169Y-61621197D01*
X167254305Y-61582736D01*
X167227610Y-61592552D01*
X167216110Y-61607953D01*
X167187036Y-61637881D01*
X167159822Y-61614341D01*
X167155492Y-61607953D01*
X167123720Y-61580844D01*
X167102723Y-61597948D01*
X167059759Y-61625467D01*
X166984979Y-61646214D01*
X166975123Y-61647739D01*
X166901170Y-61659206D01*
X166857557Y-61667935D01*
X166855256Y-61668713D01*
X166814921Y-61679746D01*
X166810220Y-61680685D01*
X166739016Y-61702534D01*
X166649953Y-61739511D01*
X166607968Y-61760263D01*
X166540677Y-61784226D01*
X166510391Y-61788095D01*
X166470176Y-61804180D01*
X166464949Y-61818118D01*
X166443864Y-61844589D01*
X166401554Y-61843570D01*
X166369432Y-61816464D01*
X166368439Y-61813813D01*
X166344992Y-61794499D01*
X166292851Y-61813813D01*
X166214812Y-61839273D01*
X166136662Y-61848142D01*
X166067036Y-61859962D01*
X166044618Y-61888358D01*
X166020065Y-61929159D01*
X165969116Y-61962975D01*
X165898277Y-62017132D01*
X165859214Y-62072877D01*
X165821055Y-62128461D01*
X165785325Y-62148378D01*
X165743630Y-62169308D01*
X165682022Y-62222531D01*
X165647532Y-62258800D01*
X165579466Y-62334681D01*
X165521472Y-62398371D01*
X165504192Y-62416953D01*
X165418287Y-62516276D01*
X165338720Y-62622471D01*
X165277792Y-62718053D01*
X165249549Y-62778875D01*
X165210887Y-62862232D01*
X165174383Y-62913981D01*
X165136094Y-62972836D01*
X165088528Y-63066728D01*
X165046897Y-63163352D01*
X165006987Y-63256689D01*
X164973480Y-63321316D01*
X164953464Y-63343613D01*
X164953163Y-63343494D01*
X164927834Y-63360196D01*
X164892519Y-63413263D01*
X164857379Y-63482494D01*
X164832580Y-63547691D01*
X164828286Y-63588651D01*
X164829054Y-63590150D01*
X164827678Y-63633590D01*
X164803894Y-63686242D01*
X164772979Y-63762924D01*
X164741609Y-63887929D01*
X164711687Y-64049577D01*
X164685116Y-64236188D01*
X164663796Y-64436086D01*
X164649954Y-64631272D01*
X164638958Y-64819622D01*
X164627025Y-64956949D01*
X164612216Y-65052269D01*
X164592589Y-65114598D01*
X164566204Y-65152951D01*
X164532816Y-65175535D01*
X164497397Y-65198982D01*
X164425959Y-65198982D01*
X164379377Y-65192596D01*
X164326806Y-65211518D01*
X164303246Y-65244026D01*
X164247272Y-65244026D01*
X164238195Y-65240813D01*
X164219471Y-65215405D01*
X164215286Y-65173260D01*
X164218935Y-65126218D01*
X164231693Y-65136793D01*
X164245926Y-65165754D01*
X164264978Y-65201720D01*
X164265665Y-65184409D01*
X164259237Y-65150743D01*
X164247194Y-65076728D01*
X164243609Y-65034942D01*
X164222315Y-65007880D01*
X164198164Y-65011482D01*
X164159184Y-65008575D01*
X164152173Y-64992176D01*
X164137121Y-64984195D01*
X164107138Y-65013869D01*
X164074556Y-65046415D01*
X164063057Y-65040063D01*
X164082075Y-64996459D01*
X164122671Y-64962789D01*
X164160162Y-64958393D01*
X164163728Y-64961185D01*
X164174494Y-64949759D01*
X164174310Y-64895290D01*
X164173357Y-64885747D01*
X164159100Y-64812320D01*
X164139278Y-64768189D01*
X164138898Y-64767823D01*
X164126551Y-64776334D01*
X164129848Y-64827816D01*
X164130284Y-64830265D01*
X164134344Y-64882231D01*
X164122977Y-64891090D01*
X164122205Y-64890312D01*
X164105433Y-64848557D01*
X164088866Y-64769333D01*
X164076679Y-64685376D01*
X164183152Y-64685376D01*
X164198164Y-64700388D01*
X164213175Y-64685376D01*
X164198164Y-64670364D01*
X164183152Y-64685376D01*
X164076679Y-64685376D01*
X164074492Y-64670306D01*
X164072986Y-64655352D01*
X164123105Y-64655352D01*
X164138116Y-64670364D01*
X164153128Y-64655352D01*
X164138116Y-64640341D01*
X164123105Y-64655352D01*
X164072986Y-64655352D01*
X164064301Y-64569145D01*
X164060279Y-64483518D01*
X164064415Y-64431091D01*
X164069622Y-64422983D01*
X164073415Y-64396656D01*
X164049655Y-64354770D01*
X164012077Y-64315738D01*
X163985451Y-64325069D01*
X163975538Y-64338671D01*
X163958189Y-64388277D01*
X163961727Y-64406224D01*
X163957397Y-64429393D01*
X163951562Y-64430175D01*
X163918156Y-64404829D01*
X163880010Y-64343619D01*
X163870878Y-64322590D01*
X163915309Y-64322590D01*
X163920829Y-64361532D01*
X163931078Y-64361996D01*
X163938245Y-64321813D01*
X163933449Y-64304451D01*
X163920117Y-64293079D01*
X163915309Y-64322590D01*
X163870878Y-64322590D01*
X163847516Y-64268794D01*
X163831069Y-64202599D01*
X163833095Y-64176618D01*
X163836143Y-64136879D01*
X163825428Y-64129939D01*
X163798500Y-64155056D01*
X163780855Y-64197492D01*
X163763538Y-64242766D01*
X163744258Y-64233924D01*
X163732269Y-64215084D01*
X163710284Y-64144762D01*
X163740810Y-64101021D01*
X163821407Y-64086236D01*
X163862410Y-64088479D01*
X163987998Y-64100812D01*
X163843033Y-64053733D01*
X163758898Y-64022866D01*
X163754692Y-64019852D01*
X163982994Y-64019852D01*
X163987116Y-64037701D01*
X164003010Y-64039868D01*
X164027723Y-64028883D01*
X164025629Y-64024856D01*
X164273223Y-64024856D01*
X164288235Y-64039868D01*
X164303246Y-64024856D01*
X164288235Y-64009844D01*
X164273223Y-64024856D01*
X164025629Y-64024856D01*
X164023026Y-64019852D01*
X163987395Y-64016259D01*
X163982994Y-64019852D01*
X163754692Y-64019852D01*
X163723835Y-63997739D01*
X163728398Y-63970624D01*
X163733426Y-63964051D01*
X163767882Y-63936891D01*
X163805058Y-63957911D01*
X163812982Y-63965646D01*
X163860347Y-64001033D01*
X163894706Y-64009506D01*
X163900358Y-63990435D01*
X163886040Y-63968574D01*
X163872789Y-63930488D01*
X163898416Y-63880405D01*
X163934905Y-63838213D01*
X164011238Y-63754643D01*
X164063057Y-63754643D01*
X164078069Y-63769655D01*
X164093081Y-63754643D01*
X164078069Y-63739631D01*
X164063057Y-63754643D01*
X164011238Y-63754643D01*
X164020546Y-63744453D01*
X164053543Y-63703999D01*
X164220049Y-63703999D01*
X164229429Y-63726604D01*
X164255702Y-63721428D01*
X164296998Y-63690749D01*
X164303246Y-63673870D01*
X164294912Y-63664572D01*
X164363294Y-63664572D01*
X164378305Y-63679584D01*
X164393317Y-63664572D01*
X164483388Y-63664572D01*
X164498400Y-63679584D01*
X164513412Y-63664572D01*
X164498400Y-63649561D01*
X164483388Y-63664572D01*
X164393317Y-63664572D01*
X164378305Y-63649561D01*
X164363294Y-63664572D01*
X164294912Y-63664572D01*
X164285619Y-63654205D01*
X164249710Y-63666458D01*
X164220980Y-63701408D01*
X164220049Y-63703999D01*
X164053543Y-63703999D01*
X164064773Y-63690231D01*
X164068829Y-63672825D01*
X164033958Y-63689511D01*
X163989705Y-63718227D01*
X163905763Y-63770178D01*
X163863681Y-63782951D01*
X163859852Y-63756594D01*
X163875573Y-63719685D01*
X163884269Y-63670134D01*
X163879149Y-63601230D01*
X163864442Y-63530473D01*
X163844377Y-63475365D01*
X163823184Y-63453407D01*
X163813059Y-63461000D01*
X163805550Y-63514372D01*
X163813474Y-63548291D01*
X163824087Y-63584695D01*
X163803757Y-63573995D01*
X163786559Y-63558506D01*
X163756823Y-63507017D01*
X163767290Y-63479598D01*
X163775996Y-63439823D01*
X163745593Y-63417334D01*
X163698135Y-63427250D01*
X163677683Y-63430899D01*
X163685783Y-63412574D01*
X163714443Y-63394360D01*
X164003010Y-63394360D01*
X164018022Y-63409371D01*
X164033034Y-63394360D01*
X164018022Y-63379348D01*
X164003010Y-63394360D01*
X163714443Y-63394360D01*
X163731737Y-63383369D01*
X163757975Y-63381368D01*
X163860722Y-63383537D01*
X163915271Y-63362616D01*
X163925142Y-63334312D01*
X164003010Y-63334312D01*
X164018022Y-63349324D01*
X164033034Y-63334312D01*
X164018022Y-63319300D01*
X164003010Y-63334312D01*
X163925142Y-63334312D01*
X163930095Y-63320111D01*
X163927024Y-63280252D01*
X163907717Y-63283009D01*
X163868976Y-63316626D01*
X163793856Y-63355947D01*
X163749141Y-63350786D01*
X163709842Y-63330513D01*
X163725056Y-63309217D01*
X163737252Y-63301730D01*
X163796869Y-63247046D01*
X163828357Y-63180303D01*
X163822740Y-63123079D01*
X163815458Y-63113734D01*
X163798385Y-63084973D01*
X163824369Y-63078444D01*
X163877597Y-63060508D01*
X163942963Y-63019064D01*
X163988672Y-62978739D01*
X163987204Y-62962035D01*
X163965480Y-62959684D01*
X163920926Y-62971893D01*
X163912939Y-62986103D01*
X163887621Y-63013308D01*
X163825890Y-63043445D01*
X163818135Y-63046239D01*
X163723331Y-63079288D01*
X163780606Y-63013991D01*
X163808739Y-62975833D01*
X163799975Y-62971025D01*
X163797355Y-62972491D01*
X163772090Y-62980857D01*
X163782105Y-62949461D01*
X163789849Y-62934590D01*
X163819042Y-62864077D01*
X163808957Y-62833918D01*
X163852892Y-62833918D01*
X163877190Y-62856318D01*
X163896607Y-62858938D01*
X163926881Y-62845924D01*
X163924858Y-62833918D01*
X163885260Y-62809146D01*
X163881144Y-62808899D01*
X163853434Y-62829043D01*
X163852892Y-62833918D01*
X163808957Y-62833918D01*
X163806387Y-62826234D01*
X163745243Y-62813087D01*
X163688970Y-62813478D01*
X163611619Y-62820084D01*
X163569283Y-62831004D01*
X163566350Y-62836791D01*
X163547209Y-62844992D01*
X163485748Y-62844148D01*
X163452553Y-62841067D01*
X163327478Y-62827095D01*
X163432561Y-62809615D01*
X163537644Y-62792134D01*
X163432561Y-62766593D01*
X163305497Y-62747800D01*
X163218191Y-62765210D01*
X163172138Y-62804358D01*
X163145170Y-62834694D01*
X163142311Y-62813100D01*
X163146421Y-62788113D01*
X163145786Y-62743519D01*
X163685848Y-62743519D01*
X163687762Y-62748851D01*
X163731937Y-62775093D01*
X163810815Y-62759692D01*
X163837880Y-62748851D01*
X163849840Y-62741673D01*
X163925961Y-62741673D01*
X163955473Y-62746481D01*
X163994414Y-62740961D01*
X163994737Y-62733839D01*
X164753601Y-62733839D01*
X164768613Y-62748851D01*
X164783625Y-62733839D01*
X164768613Y-62718828D01*
X164753601Y-62733839D01*
X163994737Y-62733839D01*
X163994879Y-62730712D01*
X163954695Y-62723545D01*
X163937333Y-62728342D01*
X163925961Y-62741673D01*
X163849840Y-62741673D01*
X163865695Y-62732158D01*
X163843915Y-62723737D01*
X163783567Y-62720938D01*
X163711009Y-62726201D01*
X163685848Y-62743519D01*
X163145786Y-62743519D01*
X163145748Y-62740876D01*
X163113505Y-62739462D01*
X163112282Y-62739924D01*
X163082540Y-62745352D01*
X163092510Y-62716119D01*
X163102229Y-62700076D01*
X163126627Y-62670390D01*
X163162334Y-62656539D01*
X163224714Y-62656690D01*
X163329132Y-62669009D01*
X163344694Y-62671146D01*
X163469550Y-62684565D01*
X163554222Y-62682531D01*
X163616771Y-62664204D01*
X163627603Y-62658780D01*
X164243199Y-62658780D01*
X164254184Y-62683493D01*
X164263215Y-62678796D01*
X164263720Y-62673792D01*
X164603483Y-62673792D01*
X164618495Y-62688804D01*
X164633506Y-62673792D01*
X164618495Y-62658780D01*
X164603483Y-62673792D01*
X164263720Y-62673792D01*
X164266808Y-62643165D01*
X164263215Y-62638765D01*
X164245366Y-62642886D01*
X164243199Y-62658780D01*
X163627603Y-62658780D01*
X163629319Y-62657921D01*
X163639653Y-62651602D01*
X163745819Y-62651602D01*
X163775331Y-62656410D01*
X163814272Y-62650890D01*
X163814737Y-62640641D01*
X163774553Y-62633474D01*
X163757191Y-62638271D01*
X163745819Y-62651602D01*
X163639653Y-62651602D01*
X163679649Y-62627144D01*
X163679902Y-62613745D01*
X164663530Y-62613745D01*
X164678542Y-62628757D01*
X164693554Y-62613745D01*
X164678542Y-62598733D01*
X164663530Y-62613745D01*
X163679902Y-62613745D01*
X163679994Y-62608887D01*
X163652534Y-62596790D01*
X163584746Y-62590783D01*
X163507818Y-62603095D01*
X163407501Y-62625765D01*
X163354714Y-62621609D01*
X163342490Y-62598733D01*
X163359073Y-62574854D01*
X163365008Y-62575607D01*
X163420492Y-62569662D01*
X163422870Y-62568709D01*
X163792844Y-62568709D01*
X163803830Y-62593422D01*
X163812860Y-62588725D01*
X163816453Y-62553094D01*
X163812860Y-62548694D01*
X163892923Y-62548694D01*
X163897045Y-62566543D01*
X163912939Y-62568709D01*
X163937652Y-62557724D01*
X163932955Y-62548694D01*
X163897324Y-62545100D01*
X163892923Y-62548694D01*
X163812860Y-62548694D01*
X163795011Y-62552815D01*
X163792844Y-62568709D01*
X163422870Y-62568709D01*
X163499990Y-62537801D01*
X163511124Y-62531508D01*
X164226197Y-62531508D01*
X164255709Y-62536316D01*
X164294650Y-62530795D01*
X164294973Y-62523674D01*
X164363294Y-62523674D01*
X164378305Y-62538686D01*
X164393317Y-62523674D01*
X164783625Y-62523674D01*
X164798636Y-62538686D01*
X164813648Y-62523674D01*
X164798636Y-62508662D01*
X164783625Y-62523674D01*
X164393317Y-62523674D01*
X164378305Y-62508662D01*
X164363294Y-62523674D01*
X164294973Y-62523674D01*
X164295115Y-62520547D01*
X164254932Y-62513379D01*
X164237570Y-62518176D01*
X164226197Y-62531508D01*
X163511124Y-62531508D01*
X163580963Y-62492035D01*
X163616674Y-62463627D01*
X164543436Y-62463627D01*
X164554356Y-62504302D01*
X164589789Y-62493294D01*
X164621508Y-62464902D01*
X164675287Y-62435830D01*
X164706722Y-62437050D01*
X164748007Y-62425980D01*
X164767924Y-62390739D01*
X164810268Y-62338907D01*
X164849148Y-62328520D01*
X164889679Y-62332463D01*
X164890889Y-62355118D01*
X164861445Y-62403579D01*
X164834619Y-62459235D01*
X164846319Y-62476485D01*
X164888215Y-62454480D01*
X164935027Y-62411085D01*
X164997558Y-62336347D01*
X165033895Y-62276013D01*
X165037609Y-62242011D01*
X165028082Y-62238449D01*
X164994417Y-62262400D01*
X164982650Y-62284222D01*
X164945930Y-62315904D01*
X164890403Y-62311251D01*
X164803877Y-62315601D01*
X164735577Y-62355549D01*
X164663961Y-62399404D01*
X164601257Y-62418559D01*
X164599434Y-62418591D01*
X164553020Y-62438507D01*
X164543436Y-62463627D01*
X163616674Y-62463627D01*
X163640873Y-62444377D01*
X163657355Y-62419797D01*
X163690127Y-62370989D01*
X163698340Y-62368552D01*
X164193160Y-62368552D01*
X164197281Y-62386401D01*
X164213175Y-62388568D01*
X164237888Y-62377582D01*
X164233191Y-62368552D01*
X164197560Y-62364959D01*
X164193160Y-62368552D01*
X163698340Y-62368552D01*
X163732070Y-62358544D01*
X164333270Y-62358544D01*
X164344255Y-62383257D01*
X164353286Y-62378560D01*
X164356465Y-62347032D01*
X164393317Y-62347032D01*
X164419090Y-62355697D01*
X164468376Y-62358544D01*
X164524821Y-62349683D01*
X164543436Y-62332684D01*
X164518456Y-62318238D01*
X164468376Y-62321172D01*
X164412123Y-62335836D01*
X164393317Y-62347032D01*
X164356465Y-62347032D01*
X164356879Y-62342929D01*
X164353286Y-62338528D01*
X164335437Y-62342650D01*
X164333270Y-62358544D01*
X163732070Y-62358544D01*
X163756717Y-62351231D01*
X163815362Y-62350478D01*
X163850213Y-62334961D01*
X163852892Y-62325184D01*
X163877731Y-62302317D01*
X163905433Y-62298037D01*
X163940272Y-62293028D01*
X163919215Y-62271824D01*
X163912939Y-62267591D01*
X163898512Y-62249412D01*
X163935574Y-62245425D01*
X163980492Y-62248900D01*
X164053997Y-62252991D01*
X164062298Y-62248457D01*
X164283231Y-62248457D01*
X164287352Y-62266306D01*
X164303246Y-62268473D01*
X164317271Y-62262239D01*
X164819640Y-62262239D01*
X164828660Y-62267554D01*
X164878000Y-62252605D01*
X164903719Y-62238449D01*
X164927751Y-62214660D01*
X164918731Y-62209345D01*
X164869391Y-62224294D01*
X164843672Y-62238449D01*
X164819640Y-62262239D01*
X164317271Y-62262239D01*
X164327959Y-62257488D01*
X164323262Y-62248457D01*
X164287631Y-62244864D01*
X164283231Y-62248457D01*
X164062298Y-62248457D01*
X164085586Y-62235737D01*
X164092951Y-62183051D01*
X164093081Y-62159251D01*
X164093475Y-62155731D01*
X165053837Y-62155731D01*
X165071917Y-62164882D01*
X165098873Y-62148378D01*
X165136718Y-62103171D01*
X165143908Y-62080979D01*
X165125829Y-62071827D01*
X165098873Y-62088331D01*
X165061028Y-62133539D01*
X165053837Y-62155731D01*
X164093475Y-62155731D01*
X164099334Y-62103343D01*
X164963766Y-62103343D01*
X164978778Y-62118355D01*
X164993790Y-62103343D01*
X164978778Y-62088331D01*
X164963766Y-62103343D01*
X164099334Y-62103343D01*
X164100664Y-62091453D01*
X164110974Y-62073319D01*
X164903719Y-62073319D01*
X164918731Y-62088331D01*
X164933743Y-62073319D01*
X164918731Y-62058308D01*
X164903719Y-62073319D01*
X164110974Y-62073319D01*
X164119214Y-62058826D01*
X164122162Y-62058308D01*
X164138413Y-62036192D01*
X164133704Y-62013272D01*
X164993790Y-62013272D01*
X165008802Y-62028284D01*
X165023814Y-62013272D01*
X165008802Y-61998260D01*
X164993790Y-62013272D01*
X164133704Y-62013272D01*
X164133408Y-62011830D01*
X164138070Y-61978245D01*
X164193160Y-61978245D01*
X164197281Y-61996094D01*
X164213175Y-61998260D01*
X164237888Y-61987275D01*
X164233191Y-61978245D01*
X164197560Y-61974651D01*
X164193160Y-61978245D01*
X164138070Y-61978245D01*
X164140890Y-61957930D01*
X164145095Y-61953225D01*
X165083861Y-61953225D01*
X165098873Y-61968237D01*
X165113885Y-61953225D01*
X165098873Y-61938213D01*
X165083861Y-61953225D01*
X164145095Y-61953225D01*
X164171880Y-61923252D01*
X164207554Y-61893876D01*
X164193061Y-61890066D01*
X164153128Y-61898657D01*
X164075590Y-61935240D01*
X164023721Y-61979729D01*
X163989576Y-62018229D01*
X163984493Y-62015319D01*
X164007373Y-61965457D01*
X164016986Y-61945719D01*
X164045840Y-61881184D01*
X164046065Y-61863154D01*
X164273223Y-61863154D01*
X164288235Y-61878166D01*
X164303246Y-61863154D01*
X164288235Y-61848142D01*
X164273223Y-61863154D01*
X164046065Y-61863154D01*
X164046181Y-61853867D01*
X164018016Y-61848144D01*
X164017021Y-61848142D01*
X163985547Y-61862780D01*
X163988387Y-61878795D01*
X163976151Y-61908359D01*
X163922325Y-61944154D01*
X163901052Y-61953854D01*
X163803269Y-61989205D01*
X163750017Y-61995712D01*
X163744988Y-61972994D01*
X163746878Y-61969743D01*
X163738168Y-61935771D01*
X163722159Y-61923201D01*
X163822868Y-61923201D01*
X163837880Y-61938213D01*
X163852892Y-61923201D01*
X163837880Y-61908189D01*
X163822868Y-61923201D01*
X163722159Y-61923201D01*
X163703614Y-61908639D01*
X163650259Y-61865653D01*
X163655192Y-61833130D01*
X163732797Y-61833130D01*
X163747809Y-61848142D01*
X163762821Y-61833130D01*
X163747809Y-61818118D01*
X163732797Y-61833130D01*
X163655192Y-61833130D01*
X163656026Y-61827633D01*
X163704925Y-61802424D01*
X163782577Y-61806650D01*
X163819950Y-61830490D01*
X163873659Y-61860931D01*
X163905206Y-61835705D01*
X163908830Y-61810940D01*
X164046055Y-61810940D01*
X164075567Y-61815748D01*
X164114508Y-61810228D01*
X164114973Y-61799979D01*
X164074790Y-61792812D01*
X164057428Y-61797609D01*
X164046055Y-61810940D01*
X163908830Y-61810940D01*
X163914003Y-61775585D01*
X163914525Y-61773083D01*
X163942963Y-61773083D01*
X163957975Y-61788095D01*
X163972986Y-61773083D01*
X163957975Y-61758071D01*
X163942963Y-61773083D01*
X163914525Y-61773083D01*
X163929333Y-61702053D01*
X163956727Y-61637977D01*
X163962791Y-61623501D01*
X164039110Y-61623501D01*
X164041410Y-61651560D01*
X164055551Y-61659601D01*
X164089928Y-61697393D01*
X164093081Y-61715538D01*
X164118088Y-61750025D01*
X164153128Y-61758071D01*
X164201916Y-61745498D01*
X164213175Y-61728048D01*
X164191901Y-61698881D01*
X164185296Y-61698024D01*
X164143967Y-61678845D01*
X164108808Y-61649414D01*
X164063361Y-61620143D01*
X164039110Y-61623501D01*
X163962791Y-61623501D01*
X163982159Y-61577262D01*
X163969105Y-61532139D01*
X163948157Y-61506123D01*
X163915679Y-61467385D01*
X163926302Y-61467459D01*
X163965480Y-61490828D01*
X164015920Y-61529488D01*
X164033034Y-61555128D01*
X164056304Y-61577080D01*
X164064909Y-61577929D01*
X164065246Y-61577440D01*
X164528726Y-61577440D01*
X164535249Y-61603549D01*
X164556675Y-61607953D01*
X164597851Y-61600990D01*
X164603483Y-61594713D01*
X164581482Y-61566689D01*
X164541895Y-61566064D01*
X164528726Y-61577440D01*
X164065246Y-61577440D01*
X164083329Y-61551206D01*
X164081687Y-61503696D01*
X164167962Y-61503696D01*
X164186583Y-61520003D01*
X164231542Y-61534679D01*
X164231788Y-61533804D01*
X164280988Y-61533804D01*
X164287000Y-61545908D01*
X164315629Y-61576948D01*
X164320895Y-61555058D01*
X164313607Y-61531599D01*
X164291503Y-61498902D01*
X164281519Y-61499578D01*
X164280988Y-61533804D01*
X164231788Y-61533804D01*
X164238796Y-61508924D01*
X164229119Y-61489366D01*
X164191303Y-61471234D01*
X164177872Y-61476110D01*
X164167962Y-61503696D01*
X164081687Y-61503696D01*
X164080786Y-61477643D01*
X164079551Y-61469493D01*
X164076859Y-61442823D01*
X164303246Y-61442823D01*
X164318258Y-61457835D01*
X164333270Y-61442823D01*
X164318258Y-61427811D01*
X164303246Y-61442823D01*
X164076859Y-61442823D01*
X164072440Y-61399042D01*
X164084584Y-61374458D01*
X164107723Y-61378479D01*
X164146609Y-61379288D01*
X164147402Y-61377772D01*
X164193160Y-61377772D01*
X164197281Y-61395621D01*
X164213175Y-61397787D01*
X164237888Y-61386802D01*
X164233191Y-61377772D01*
X164283231Y-61377772D01*
X164287352Y-61395621D01*
X164303246Y-61397787D01*
X164327959Y-61386802D01*
X164323262Y-61377772D01*
X164287631Y-61374178D01*
X164283231Y-61377772D01*
X164233191Y-61377772D01*
X164197560Y-61374178D01*
X164193160Y-61377772D01*
X164147402Y-61377772D01*
X164153128Y-61366822D01*
X164127476Y-61341794D01*
X164066669Y-61331576D01*
X164022713Y-61335123D01*
X164011467Y-61322728D01*
X164333270Y-61322728D01*
X164348282Y-61337740D01*
X164363294Y-61322728D01*
X164348282Y-61307717D01*
X164333270Y-61322728D01*
X164011467Y-61322728D01*
X164006928Y-61317725D01*
X164009780Y-61302417D01*
X164023094Y-61292705D01*
X168296391Y-61292705D01*
X168311402Y-61307717D01*
X168326414Y-61292705D01*
X168311402Y-61277693D01*
X168296391Y-61292705D01*
X164023094Y-61292705D01*
X164044970Y-61276748D01*
X164116661Y-61259765D01*
X164137563Y-61257837D01*
X164229691Y-61239455D01*
X164239330Y-61232657D01*
X164333270Y-61232657D01*
X164348282Y-61247669D01*
X164363294Y-61232657D01*
X168476532Y-61232657D01*
X168491544Y-61247669D01*
X168506556Y-61232657D01*
X168506100Y-61232201D01*
X172812124Y-61232201D01*
X172814949Y-61247669D01*
X172853332Y-61276548D01*
X172861756Y-61277693D01*
X172889199Y-61254793D01*
X172890008Y-61247669D01*
X172865570Y-61221320D01*
X172843200Y-61217646D01*
X172812124Y-61232201D01*
X168506100Y-61232201D01*
X168491544Y-61217646D01*
X168476532Y-61232657D01*
X164363294Y-61232657D01*
X164348282Y-61217646D01*
X164333270Y-61232657D01*
X164239330Y-61232657D01*
X164281240Y-61203101D01*
X164283549Y-61155941D01*
X164275645Y-61143593D01*
X164242085Y-61064129D01*
X164232451Y-60961378D01*
X164243947Y-60887386D01*
X164261303Y-60839687D01*
X164270257Y-60847018D01*
X164273785Y-60872374D01*
X164278415Y-60929894D01*
X164278520Y-60949714D01*
X164287106Y-60986142D01*
X164310786Y-61056486D01*
X164321266Y-61084820D01*
X164365826Y-61202634D01*
X164364247Y-61187622D01*
X172319558Y-61187622D01*
X172330544Y-61212335D01*
X172339574Y-61207638D01*
X172343167Y-61172007D01*
X172339574Y-61167606D01*
X172321725Y-61171728D01*
X172319558Y-61187622D01*
X164364247Y-61187622D01*
X164354774Y-61097551D01*
X170608211Y-61097551D01*
X170619196Y-61122264D01*
X170628227Y-61117567D01*
X170631820Y-61081936D01*
X170628227Y-61077535D01*
X170610378Y-61081657D01*
X170608211Y-61097551D01*
X164354774Y-61097551D01*
X164352406Y-61075039D01*
X164352180Y-61067527D01*
X172649818Y-61067527D01*
X172672666Y-61096679D01*
X172679842Y-61097551D01*
X172708993Y-61074704D01*
X172709866Y-61067527D01*
X172687019Y-61038376D01*
X172679842Y-61037504D01*
X172650691Y-61060351D01*
X172649818Y-61067527D01*
X164352180Y-61067527D01*
X164349940Y-60992916D01*
X164350022Y-60992468D01*
X172259511Y-60992468D01*
X172274523Y-61007480D01*
X172289535Y-60992468D01*
X172274523Y-60977456D01*
X172439653Y-60977456D01*
X172450638Y-61002169D01*
X172459669Y-60997472D01*
X172463262Y-60961841D01*
X172459669Y-60957441D01*
X172441820Y-60961562D01*
X172439653Y-60977456D01*
X172274523Y-60977456D01*
X172259511Y-60992468D01*
X164350022Y-60992468D01*
X164359755Y-60938983D01*
X164366151Y-60930655D01*
X164388833Y-60889682D01*
X164390743Y-60868287D01*
X164432431Y-60868287D01*
X164433999Y-60900005D01*
X164454234Y-60918582D01*
X164510847Y-60945242D01*
X164532614Y-60938191D01*
X164529092Y-60932421D01*
X168296391Y-60932421D01*
X168311402Y-60947433D01*
X168326414Y-60932421D01*
X168311402Y-60917409D01*
X168296391Y-60932421D01*
X164529092Y-60932421D01*
X164510766Y-60902397D01*
X172259511Y-60902397D01*
X172274523Y-60917409D01*
X172289535Y-60902397D01*
X172274523Y-60887386D01*
X172259511Y-60902397D01*
X164510766Y-60902397D01*
X164510173Y-60901425D01*
X164505549Y-60896679D01*
X164458812Y-60865881D01*
X164432431Y-60868287D01*
X164390743Y-60868287D01*
X164391207Y-60863096D01*
X164386371Y-60837346D01*
X172239495Y-60837346D01*
X172243617Y-60855195D01*
X172259511Y-60857362D01*
X172284224Y-60846377D01*
X172279527Y-60837346D01*
X172243896Y-60833753D01*
X172239495Y-60837346D01*
X164386371Y-60837346D01*
X164385704Y-60833794D01*
X164369341Y-60858662D01*
X164363294Y-60872374D01*
X164343269Y-60914317D01*
X164336712Y-60899728D01*
X164335380Y-60869073D01*
X164313687Y-60812326D01*
X164453365Y-60812326D01*
X164468376Y-60827338D01*
X164483388Y-60812326D01*
X164468376Y-60797315D01*
X164453365Y-60812326D01*
X164313687Y-60812326D01*
X164310792Y-60804754D01*
X164265717Y-60756399D01*
X164189919Y-60700996D01*
X164138116Y-60663078D01*
X164104849Y-60630489D01*
X164111550Y-60618128D01*
X164156776Y-60634640D01*
X164219581Y-60675822D01*
X164221368Y-60677220D01*
X164286375Y-60719368D01*
X164336656Y-60737262D01*
X164337180Y-60737267D01*
X164345348Y-60723499D01*
X164309703Y-60690373D01*
X164309425Y-60690178D01*
X164266818Y-60645584D01*
X164262292Y-60610570D01*
X164292279Y-60601599D01*
X164319290Y-60628519D01*
X164349863Y-60663029D01*
X164367891Y-60647336D01*
X164375479Y-60628725D01*
X164372528Y-60567875D01*
X164349006Y-60527902D01*
X164307954Y-60470231D01*
X164317456Y-60441622D01*
X164348282Y-60437031D01*
X164388222Y-60454180D01*
X164393317Y-60468827D01*
X164411324Y-60487562D01*
X164420700Y-60483699D01*
X164436687Y-60445150D01*
X164438254Y-60374613D01*
X164437736Y-60369338D01*
X164434539Y-60317885D01*
X164439806Y-60314754D01*
X164441982Y-60321345D01*
X164482899Y-60361478D01*
X164567558Y-60384637D01*
X164652687Y-60392745D01*
X164684743Y-60384822D01*
X164669823Y-60355061D01*
X164636008Y-60319438D01*
X164588261Y-60265185D01*
X164574871Y-60235936D01*
X164598757Y-60240096D01*
X164610989Y-60247402D01*
X164669177Y-60268033D01*
X164723577Y-60275981D01*
X164787434Y-60280590D01*
X164816081Y-60283696D01*
X164841365Y-60309610D01*
X164873696Y-60361972D01*
X164911794Y-60415278D01*
X164944286Y-60436179D01*
X164957941Y-60420693D01*
X164948561Y-60384490D01*
X164915264Y-60295825D01*
X164914581Y-60271901D01*
X165083861Y-60271901D01*
X165098873Y-60286913D01*
X165113885Y-60271901D01*
X165102417Y-60260433D01*
X165294027Y-60260433D01*
X165312525Y-60276711D01*
X165324050Y-60271901D01*
X171358802Y-60271901D01*
X171373814Y-60286913D01*
X171375586Y-60285141D01*
X171659038Y-60285141D01*
X171680833Y-60315715D01*
X171689062Y-60316936D01*
X171718305Y-60306693D01*
X171719086Y-60303696D01*
X171698047Y-60278063D01*
X171689062Y-60271901D01*
X171661396Y-60274281D01*
X171659038Y-60285141D01*
X171375586Y-60285141D01*
X171388826Y-60271901D01*
X171373814Y-60256889D01*
X171358802Y-60271901D01*
X165324050Y-60271901D01*
X165349505Y-60236873D01*
X172209472Y-60236873D01*
X172213593Y-60254722D01*
X172229488Y-60256889D01*
X172254200Y-60245904D01*
X172249503Y-60236873D01*
X172213872Y-60233280D01*
X172209472Y-60236873D01*
X165349505Y-60236873D01*
X165352953Y-60232128D01*
X165354074Y-60223322D01*
X165345089Y-60215416D01*
X171790031Y-60215416D01*
X171808113Y-60225375D01*
X171861904Y-60201991D01*
X171868334Y-60198015D01*
X171895183Y-60164181D01*
X171890137Y-60147720D01*
X171854969Y-60148726D01*
X171817020Y-60176111D01*
X171790031Y-60215416D01*
X165345089Y-60215416D01*
X165335575Y-60207044D01*
X165324050Y-60211854D01*
X165295147Y-60251626D01*
X165294027Y-60260433D01*
X165102417Y-60260433D01*
X165098873Y-60256889D01*
X165083861Y-60271901D01*
X164914581Y-60271901D01*
X164913920Y-60248753D01*
X164951756Y-60230142D01*
X165035324Y-60226865D01*
X165117116Y-60221945D01*
X165166890Y-60209462D01*
X165173932Y-60201495D01*
X165163212Y-60181830D01*
X165624287Y-60181830D01*
X165639298Y-60196842D01*
X165641253Y-60194887D01*
X171546305Y-60194887D01*
X171550412Y-60196842D01*
X171577811Y-60175706D01*
X171583979Y-60166818D01*
X171591630Y-60138749D01*
X171587523Y-60136795D01*
X171560124Y-60157931D01*
X171553956Y-60166818D01*
X171546305Y-60194887D01*
X165641253Y-60194887D01*
X165654310Y-60181830D01*
X165639298Y-60166818D01*
X165624287Y-60181830D01*
X165163212Y-60181830D01*
X165149711Y-60157065D01*
X165101428Y-60116779D01*
X165514200Y-60116779D01*
X165518321Y-60134628D01*
X165534216Y-60136795D01*
X165558929Y-60125809D01*
X165554231Y-60116779D01*
X165518600Y-60113186D01*
X165514200Y-60116779D01*
X165101428Y-60116779D01*
X165092344Y-60109200D01*
X165046800Y-60086755D01*
X171368810Y-60086755D01*
X171372931Y-60104604D01*
X171388826Y-60106771D01*
X171413538Y-60095786D01*
X171408841Y-60086755D01*
X171373210Y-60083162D01*
X171368810Y-60086755D01*
X165046800Y-60086755D01*
X165024775Y-60075901D01*
X165008802Y-60071930D01*
X164959592Y-60044122D01*
X164954460Y-60031712D01*
X164993790Y-60031712D01*
X165008802Y-60046724D01*
X165023814Y-60031712D01*
X165008802Y-60016700D01*
X164993790Y-60031712D01*
X164954460Y-60031712D01*
X164948081Y-60016289D01*
X164932222Y-59994182D01*
X165043464Y-59994182D01*
X165082198Y-60015029D01*
X165098873Y-60016700D01*
X165145956Y-60002672D01*
X165154281Y-59994182D01*
X165140328Y-59977023D01*
X165098873Y-59971665D01*
X165050975Y-59979641D01*
X165043464Y-59994182D01*
X164932222Y-59994182D01*
X164924163Y-59982947D01*
X164889648Y-59981839D01*
X164850513Y-59982907D01*
X164860580Y-59959608D01*
X165203956Y-59959608D01*
X165221203Y-59967454D01*
X165245963Y-59950331D01*
X165257307Y-59936637D01*
X165964554Y-59936637D01*
X165968676Y-59954486D01*
X165984570Y-59956653D01*
X169482324Y-59956653D01*
X169489131Y-59982356D01*
X169510576Y-59986676D01*
X169551655Y-59971001D01*
X169557383Y-59956653D01*
X169535835Y-59927488D01*
X169529132Y-59926629D01*
X169488470Y-59948453D01*
X169482324Y-59956653D01*
X165984570Y-59956653D01*
X166009283Y-59945668D01*
X166004586Y-59936637D01*
X165968955Y-59933044D01*
X165964554Y-59936637D01*
X165257307Y-59936637D01*
X165276315Y-59913692D01*
X165276590Y-59911617D01*
X165324050Y-59911617D01*
X165339062Y-59926629D01*
X165354074Y-59911617D01*
X165339062Y-59896605D01*
X165324050Y-59911617D01*
X165276590Y-59911617D01*
X165277984Y-59901105D01*
X165248020Y-59903079D01*
X165214379Y-59933028D01*
X165203956Y-59959608D01*
X164860580Y-59959608D01*
X164862324Y-59955572D01*
X164869743Y-59946404D01*
X164889658Y-59906215D01*
X164859086Y-59875080D01*
X164847785Y-59868783D01*
X164777379Y-59851155D01*
X164735839Y-59856780D01*
X164700199Y-59862153D01*
X164704164Y-59846566D01*
X165274011Y-59846566D01*
X165278132Y-59864415D01*
X165294027Y-59866582D01*
X165318739Y-59855597D01*
X165314042Y-59846566D01*
X165278411Y-59842973D01*
X165274011Y-59846566D01*
X164704164Y-59846566D01*
X164705412Y-59841660D01*
X164743584Y-59816542D01*
X165123893Y-59816542D01*
X165128014Y-59834391D01*
X165143908Y-59836558D01*
X165369086Y-59836558D01*
X165371466Y-59864224D01*
X165382326Y-59866582D01*
X165403384Y-59851570D01*
X165624287Y-59851570D01*
X165639298Y-59866582D01*
X165654310Y-59851570D01*
X165639298Y-59836558D01*
X165624287Y-59851570D01*
X165403384Y-59851570D01*
X165412899Y-59844787D01*
X165414121Y-59836558D01*
X165408862Y-59821546D01*
X165504192Y-59821546D01*
X165519204Y-59836558D01*
X165534216Y-59821546D01*
X165519204Y-59806535D01*
X165504192Y-59821546D01*
X165408862Y-59821546D01*
X165403877Y-59807315D01*
X165400881Y-59806535D01*
X165375248Y-59827573D01*
X165369086Y-59836558D01*
X165143908Y-59836558D01*
X165168621Y-59825573D01*
X165163924Y-59816542D01*
X165128293Y-59812949D01*
X165123893Y-59816542D01*
X164743584Y-59816542D01*
X164750867Y-59811750D01*
X164783625Y-59806535D01*
X164841250Y-59791025D01*
X164860300Y-59773895D01*
X164869326Y-59769333D01*
X165156930Y-59769333D01*
X165186442Y-59774141D01*
X165220360Y-59769333D01*
X165277025Y-59769333D01*
X165306536Y-59774141D01*
X165345477Y-59768621D01*
X165345800Y-59761499D01*
X165504192Y-59761499D01*
X165519204Y-59776511D01*
X165534216Y-59761499D01*
X165519204Y-59746487D01*
X165504192Y-59761499D01*
X165345800Y-59761499D01*
X165345942Y-59758372D01*
X165305759Y-59751204D01*
X165288397Y-59756001D01*
X165277025Y-59769333D01*
X165220360Y-59769333D01*
X165225383Y-59768621D01*
X165225848Y-59758372D01*
X165185664Y-59751204D01*
X165168303Y-59756001D01*
X165156930Y-59769333D01*
X164869326Y-59769333D01*
X164902498Y-59752566D01*
X164932432Y-59754844D01*
X164989040Y-59743607D01*
X165001408Y-59731475D01*
X165053837Y-59731475D01*
X165068849Y-59746487D01*
X165083861Y-59731475D01*
X165077013Y-59724627D01*
X165444145Y-59724627D01*
X165461503Y-59731883D01*
X165461993Y-59731517D01*
X165610867Y-59731517D01*
X165618752Y-59754511D01*
X165626247Y-59763861D01*
X165663591Y-59801798D01*
X165686689Y-59795209D01*
X165697236Y-59779924D01*
X165689917Y-59761499D01*
X165744381Y-59761499D01*
X165759393Y-59776511D01*
X165774405Y-59761499D01*
X165759393Y-59746487D01*
X165744381Y-59761499D01*
X165689917Y-59761499D01*
X165686428Y-59752715D01*
X165652257Y-59737251D01*
X165610867Y-59731517D01*
X165461993Y-59731517D01*
X165503389Y-59700579D01*
X165504679Y-59699297D01*
X165547219Y-59634823D01*
X165548017Y-59553456D01*
X165545961Y-59542507D01*
X165526291Y-59476845D01*
X165504308Y-59446495D01*
X165502535Y-59446251D01*
X165493514Y-59471217D01*
X165503197Y-59532362D01*
X165506042Y-59542772D01*
X165519377Y-59615945D01*
X165502183Y-59655273D01*
X165488934Y-59664358D01*
X165449798Y-59704396D01*
X165444145Y-59724627D01*
X165077013Y-59724627D01*
X165068849Y-59716464D01*
X165053837Y-59731475D01*
X165001408Y-59731475D01*
X165017059Y-59716123D01*
X165022385Y-59712715D01*
X165361875Y-59712715D01*
X165383869Y-59698325D01*
X165387823Y-59694446D01*
X165411538Y-59655082D01*
X165408323Y-59640610D01*
X165385989Y-59649620D01*
X165371016Y-59677639D01*
X165361875Y-59712715D01*
X165022385Y-59712715D01*
X165067503Y-59683842D01*
X165147670Y-59673391D01*
X165230753Y-59686339D01*
X165264292Y-59701630D01*
X165300781Y-59696635D01*
X165308192Y-59687810D01*
X165296945Y-59660318D01*
X165247264Y-59638288D01*
X165170157Y-59589804D01*
X165138016Y-59532325D01*
X165103838Y-59471395D01*
X165064210Y-59446251D01*
X165037472Y-59453374D01*
X165048193Y-59484620D01*
X165067147Y-59512979D01*
X165106788Y-59580470D01*
X165100788Y-59614842D01*
X165045344Y-59626046D01*
X165023814Y-59626393D01*
X164954999Y-59615547D01*
X164935942Y-59589961D01*
X164970745Y-59560064D01*
X164994226Y-59551195D01*
X165039509Y-59526611D01*
X165034837Y-59504076D01*
X164990117Y-59490371D01*
X164915254Y-59492279D01*
X164909413Y-59493130D01*
X164833124Y-59499029D01*
X164787404Y-59477010D01*
X164745461Y-59413729D01*
X164743747Y-59410630D01*
X164717967Y-59357171D01*
X164718881Y-59341938D01*
X164726519Y-59347960D01*
X164774908Y-59367872D01*
X164801222Y-59354034D01*
X164840672Y-59345995D01*
X164885881Y-59391279D01*
X164886002Y-59391453D01*
X164919466Y-59427580D01*
X164933737Y-59419868D01*
X164933743Y-59419231D01*
X164941559Y-59394411D01*
X164974529Y-59412184D01*
X164984400Y-59420057D01*
X165020308Y-59444763D01*
X165020427Y-59423165D01*
X165013011Y-59402246D01*
X165298526Y-59402246D01*
X165300500Y-59432210D01*
X165330449Y-59465851D01*
X165357029Y-59476274D01*
X165364875Y-59459027D01*
X165347752Y-59434267D01*
X165311113Y-59403915D01*
X165298526Y-59402246D01*
X165013011Y-59402246D01*
X165012645Y-59401215D01*
X165001947Y-59361939D01*
X165020715Y-59371573D01*
X165026995Y-59377653D01*
X165064579Y-59396514D01*
X165099027Y-59365904D01*
X165141639Y-59334569D01*
X165213034Y-59333195D01*
X165244185Y-59338286D01*
X165315290Y-59356951D01*
X165352490Y-59377109D01*
X165354074Y-59381175D01*
X165379364Y-59401204D01*
X165414227Y-59407980D01*
X165456438Y-59401207D01*
X165460746Y-59360674D01*
X165455922Y-59338971D01*
X165449420Y-59287251D01*
X165472602Y-59279531D01*
X165484697Y-59283555D01*
X165531161Y-59324877D01*
X165552131Y-59366459D01*
X165595774Y-59442749D01*
X165658338Y-59475532D01*
X165663588Y-59475815D01*
X165674998Y-59457718D01*
X165670604Y-59448325D01*
X165674369Y-59409765D01*
X165683844Y-59401518D01*
X165710116Y-59401012D01*
X165710941Y-59437810D01*
X165688356Y-59495828D01*
X165667620Y-59529641D01*
X165643432Y-59577906D01*
X165652608Y-59596369D01*
X165680745Y-59620660D01*
X165684334Y-59641404D01*
X165700546Y-59681359D01*
X165714357Y-59686440D01*
X165742768Y-59664393D01*
X165748708Y-59594128D01*
X165745951Y-59558839D01*
X165755962Y-59514546D01*
X165771907Y-59506298D01*
X165803965Y-59531243D01*
X165845028Y-59592361D01*
X165884469Y-59669078D01*
X165911664Y-59740819D01*
X165916359Y-59785991D01*
X165925141Y-59829427D01*
X165957666Y-59876906D01*
X165989932Y-59896500D01*
X165997077Y-59869372D01*
X166002580Y-59821546D01*
X170878424Y-59821546D01*
X170893436Y-59836558D01*
X170908447Y-59821546D01*
X170893436Y-59806535D01*
X170878424Y-59821546D01*
X166002580Y-59821546D01*
X166005082Y-59799806D01*
X166007030Y-59774556D01*
X169744887Y-59774556D01*
X169748993Y-59776511D01*
X169776392Y-59755375D01*
X169782561Y-59746487D01*
X169790211Y-59718418D01*
X169786105Y-59716464D01*
X169758705Y-59737600D01*
X169752537Y-59746487D01*
X169744887Y-59774556D01*
X166007030Y-59774556D01*
X166009782Y-59738876D01*
X166014498Y-59671428D01*
X170878424Y-59671428D01*
X170893436Y-59686440D01*
X170908447Y-59671428D01*
X170893436Y-59656416D01*
X170878424Y-59671428D01*
X166014498Y-59671428D01*
X166019468Y-59600355D01*
X166019860Y-59596369D01*
X166134688Y-59596369D01*
X166145674Y-59621082D01*
X166154704Y-59616385D01*
X166158297Y-59580754D01*
X166154704Y-59576353D01*
X166136855Y-59580475D01*
X166134688Y-59596369D01*
X166019860Y-59596369D01*
X166028293Y-59510653D01*
X166038283Y-59458615D01*
X166051462Y-59433081D01*
X166066976Y-59423786D01*
X166100212Y-59438690D01*
X166113672Y-59467107D01*
X166124733Y-59498338D01*
X166125595Y-59494291D01*
X169658809Y-59494291D01*
X169672482Y-59504689D01*
X169719512Y-59487525D01*
X169736656Y-59477447D01*
X169737772Y-59476274D01*
X170908447Y-59476274D01*
X170919433Y-59500987D01*
X170928463Y-59496290D01*
X170930166Y-59479403D01*
X170983195Y-59479403D01*
X170986571Y-59505055D01*
X170998518Y-59521310D01*
X171053562Y-59559163D01*
X171084759Y-59565391D01*
X171113634Y-59559179D01*
X171094701Y-59535505D01*
X171076565Y-59521310D01*
X171148636Y-59521310D01*
X171163648Y-59536322D01*
X171178660Y-59521310D01*
X171163648Y-59506298D01*
X171148636Y-59521310D01*
X171076565Y-59521310D01*
X171075345Y-59520355D01*
X171016497Y-59484457D01*
X170983195Y-59479403D01*
X170930166Y-59479403D01*
X170932056Y-59460659D01*
X170928463Y-59456259D01*
X170910614Y-59460380D01*
X170908447Y-59476274D01*
X169737772Y-59476274D01*
X169766345Y-59446234D01*
X169764488Y-59433182D01*
X169731362Y-59436317D01*
X169690298Y-59460618D01*
X169658809Y-59494291D01*
X166125595Y-59494291D01*
X166130186Y-59472748D01*
X166131206Y-59456259D01*
X166144522Y-59400071D01*
X166160743Y-59381200D01*
X166188779Y-59347736D01*
X166208995Y-59299879D01*
X166217603Y-59250189D01*
X166197966Y-59249101D01*
X166174086Y-59244277D01*
X166167318Y-59200299D01*
X166174976Y-59134703D01*
X166186943Y-59091726D01*
X166959475Y-59091726D01*
X166961362Y-59102372D01*
X166990362Y-59115991D01*
X167060514Y-59140943D01*
X167091101Y-59135077D01*
X167095445Y-59115991D01*
X167069596Y-59094882D01*
X167012880Y-59088077D01*
X166959475Y-59091726D01*
X166186943Y-59091726D01*
X166191217Y-59076379D01*
X167759405Y-59076379D01*
X167773637Y-59147397D01*
X167797139Y-59196866D01*
X167812413Y-59206062D01*
X167820865Y-59180457D01*
X167818392Y-59161026D01*
X169107029Y-59161026D01*
X169122041Y-59176038D01*
X169137053Y-59161026D01*
X169122041Y-59146014D01*
X169107029Y-59161026D01*
X167818392Y-59161026D01*
X167812647Y-59115889D01*
X167804335Y-59080914D01*
X167782567Y-59016389D01*
X167765765Y-58997642D01*
X167760812Y-59008229D01*
X167759405Y-59076379D01*
X166191217Y-59076379D01*
X166194378Y-59065026D01*
X166209107Y-59035928D01*
X166775193Y-59035928D01*
X166779314Y-59053777D01*
X166795209Y-59055943D01*
X166819921Y-59044958D01*
X166815224Y-59035928D01*
X167015382Y-59035928D01*
X167019503Y-59053777D01*
X167035398Y-59055943D01*
X167060111Y-59044958D01*
X167055413Y-59035928D01*
X167019782Y-59032334D01*
X167015382Y-59035928D01*
X166815224Y-59035928D01*
X166779593Y-59032334D01*
X166775193Y-59035928D01*
X166209107Y-59035928D01*
X166222838Y-59008802D01*
X166237139Y-58993174D01*
X166271794Y-58949497D01*
X166263572Y-58926269D01*
X166219495Y-58931255D01*
X166155951Y-58976399D01*
X166085113Y-59050819D01*
X166019152Y-59143637D01*
X166017722Y-59146014D01*
X165978282Y-59207613D01*
X165959727Y-59220600D01*
X165954701Y-59189354D01*
X165954659Y-59183544D01*
X165966539Y-59130832D01*
X165986342Y-59115991D01*
X166004273Y-59097597D01*
X165999582Y-59085967D01*
X165957474Y-59061245D01*
X165919249Y-59055943D01*
X165873730Y-59069370D01*
X165873039Y-59115470D01*
X165877149Y-59156821D01*
X165846884Y-59152341D01*
X165832791Y-59145125D01*
X165775054Y-59101916D01*
X165753173Y-59075629D01*
X165708614Y-59047872D01*
X165640123Y-59038467D01*
X165583208Y-59029132D01*
X165774405Y-59029132D01*
X165789738Y-59054539D01*
X165833953Y-59029476D01*
X165853753Y-59010908D01*
X165884372Y-58973985D01*
X165866803Y-58969008D01*
X165821896Y-58984097D01*
X165780666Y-59013464D01*
X165774405Y-59029132D01*
X165583208Y-59029132D01*
X165567185Y-59026504D01*
X165540345Y-58988390D01*
X165551074Y-58943749D01*
X165575558Y-58935849D01*
X165627228Y-58912424D01*
X165651905Y-58883308D01*
X165676255Y-58852746D01*
X165683421Y-58873052D01*
X165699732Y-58887287D01*
X165746711Y-58850251D01*
X165753760Y-58843028D01*
X165800143Y-58776934D01*
X165795120Y-58733189D01*
X165787571Y-58702093D01*
X165816706Y-58695660D01*
X165869476Y-58671974D01*
X165883642Y-58650624D01*
X165920494Y-58610739D01*
X165941045Y-58605589D01*
X165989968Y-58583666D01*
X166020397Y-58553048D01*
X166079536Y-58512086D01*
X166134688Y-58500887D01*
X166209460Y-58489906D01*
X166250597Y-58471938D01*
X166343120Y-58436542D01*
X166440420Y-58446173D01*
X166480611Y-58467246D01*
X166518528Y-58503790D01*
X166516889Y-58545408D01*
X166496587Y-58587559D01*
X166448645Y-58645480D01*
X166375407Y-58665095D01*
X166353476Y-58665636D01*
X166280274Y-58675366D01*
X166260327Y-58703166D01*
X166246829Y-58754370D01*
X166202632Y-58815179D01*
X166147522Y-58862684D01*
X166111232Y-58875802D01*
X166085627Y-58892261D01*
X166089653Y-58905825D01*
X166124439Y-58933360D01*
X166161117Y-58920294D01*
X166571042Y-58920294D01*
X166601822Y-58949906D01*
X166658197Y-58988692D01*
X166670823Y-58986788D01*
X166666594Y-58980884D01*
X166735161Y-58980884D01*
X166750173Y-58995896D01*
X166765185Y-58980884D01*
X166750173Y-58965873D01*
X166735161Y-58980884D01*
X166666594Y-58980884D01*
X166645090Y-58950861D01*
X166598825Y-58912959D01*
X166575628Y-58905825D01*
X166571042Y-58920294D01*
X166161117Y-58920294D01*
X166174111Y-58915665D01*
X166238406Y-58859425D01*
X166288497Y-58818392D01*
X166314085Y-58816007D01*
X166315290Y-58821896D01*
X166321913Y-58844168D01*
X166341561Y-58820055D01*
X166371275Y-58797150D01*
X166387908Y-58812549D01*
X166393499Y-58865765D01*
X166387482Y-58879697D01*
X166387396Y-58902153D01*
X166408228Y-58898461D01*
X166441943Y-58867654D01*
X166442589Y-58860790D01*
X166765185Y-58860790D01*
X166781397Y-58900744D01*
X166795209Y-58905825D01*
X166821845Y-58881507D01*
X166825232Y-58860790D01*
X166809020Y-58820835D01*
X166795209Y-58815754D01*
X166768572Y-58840072D01*
X166765185Y-58860790D01*
X166442589Y-58860790D01*
X166443380Y-58852379D01*
X166460903Y-58816187D01*
X166480910Y-58804533D01*
X166519048Y-58807957D01*
X166525456Y-58824203D01*
X166536336Y-58842344D01*
X166547973Y-58830766D01*
X166595264Y-58802882D01*
X166612565Y-58800743D01*
X166658606Y-58779321D01*
X166667064Y-58764846D01*
X166668987Y-58746191D01*
X166650604Y-58739348D01*
X166600166Y-58744561D01*
X166505923Y-58762074D01*
X166471652Y-58768901D01*
X166425028Y-58769920D01*
X166426826Y-58748385D01*
X166472916Y-58710795D01*
X166529024Y-58678565D01*
X166587276Y-58641735D01*
X166597010Y-58610253D01*
X166583491Y-58588707D01*
X166564137Y-58552912D01*
X166581367Y-58545542D01*
X166613425Y-58565676D01*
X166615067Y-58574623D01*
X166637074Y-58591142D01*
X166660102Y-58586423D01*
X166698722Y-58586576D01*
X166705138Y-58599875D01*
X166681605Y-58637874D01*
X166667608Y-58645752D01*
X166662443Y-58657912D01*
X166697632Y-58663266D01*
X166744412Y-58677139D01*
X166767826Y-58703057D01*
X166756253Y-58723216D01*
X166738373Y-58725683D01*
X166704709Y-58749133D01*
X166691090Y-58796309D01*
X166706505Y-58831611D01*
X166736784Y-58821117D01*
X166762596Y-58777529D01*
X166801333Y-58717310D01*
X166841478Y-58708099D01*
X166867431Y-58747979D01*
X166869970Y-58790735D01*
X166878958Y-58858097D01*
X166906890Y-58875802D01*
X166933911Y-58891919D01*
X166930012Y-58906315D01*
X166894031Y-58923635D01*
X166883205Y-58919555D01*
X166862339Y-58930728D01*
X166856211Y-58971607D01*
X166859900Y-59019710D01*
X166877626Y-59012729D01*
X166899804Y-58984625D01*
X166949322Y-58947080D01*
X166986167Y-58945096D01*
X167027378Y-58934831D01*
X167040311Y-58905825D01*
X167245563Y-58905825D01*
X167256548Y-58930538D01*
X167265579Y-58925841D01*
X167269172Y-58890210D01*
X167265579Y-58885810D01*
X167247730Y-58889931D01*
X167245563Y-58905825D01*
X167040311Y-58905825D01*
X167048656Y-58887109D01*
X167073041Y-58833926D01*
X167117532Y-58828697D01*
X167130806Y-58832460D01*
X167173837Y-58844147D01*
X167171917Y-58830765D01*
X167137311Y-58793573D01*
X167070079Y-58734713D01*
X167020386Y-58701016D01*
X166995026Y-58680648D01*
X167245563Y-58680648D01*
X167260575Y-58695660D01*
X167275587Y-58680648D01*
X167260575Y-58665636D01*
X167245563Y-58680648D01*
X166995026Y-58680648D01*
X166988761Y-58675616D01*
X166999640Y-58666549D01*
X167024484Y-58648908D01*
X167020330Y-58635522D01*
X167026638Y-58616162D01*
X167068444Y-58616189D01*
X167125070Y-58633774D01*
X167149984Y-58646993D01*
X167195317Y-58658573D01*
X167208585Y-58652575D01*
X167201035Y-58623688D01*
X167162093Y-58575521D01*
X167108670Y-58524468D01*
X167057677Y-58486922D01*
X167028485Y-58477988D01*
X167006488Y-58462809D01*
X167005374Y-58453322D01*
X167028699Y-58430671D01*
X167084679Y-58431017D01*
G37*
%TD*%
M02*
