%TF.GenerationSoftware,KiCad,Pcbnew,9.0.4*%
%TF.CreationDate,2026-03-14T23:33:21+02:00*%
%TF.ProjectId,PCBv2Drona,50434276-3244-4726-9f6e-612e6b696361,rev?*%
%TF.SameCoordinates,Original*%
%TF.FileFunction,Paste,Top*%
%TF.FilePolarity,Positive*%
%FSLAX46Y46*%
G04 Gerber Fmt 4.6, Leading zero omitted, Abs format (unit mm)*
G04 Created by KiCad (PCBNEW 9.0.4) date 2026-03-14 23:33:21*
%MOMM*%
%LPD*%
G01*
G04 APERTURE LIST*
G04 Aperture macros list*
%AMRoundRect*
0 Rectangle with rounded corners*
0 $1 Rounding radius*
0 $2 $3 $4 $5 $6 $7 $8 $9 X,Y pos of 4 corners*
0 Add a 4 corners polygon primitive as box body*
4,1,4,$2,$3,$4,$5,$6,$7,$8,$9,$2,$3,0*
0 Add four circle primitives for the rounded corners*
1,1,$1+$1,$2,$3*
1,1,$1+$1,$4,$5*
1,1,$1+$1,$6,$7*
1,1,$1+$1,$8,$9*
0 Add four rect primitives between the rounded corners*
20,1,$1+$1,$2,$3,$4,$5,0*
20,1,$1+$1,$4,$5,$6,$7,0*
20,1,$1+$1,$6,$7,$8,$9,0*
20,1,$1+$1,$8,$9,$2,$3,0*%
G04 Aperture macros list end*
%ADD10RoundRect,0.182500X0.182500X0.182500X-0.182500X0.182500X-0.182500X-0.182500X0.182500X-0.182500X0*%
%ADD11RoundRect,0.062500X0.355000X0.062500X-0.355000X0.062500X-0.355000X-0.062500X0.355000X-0.062500X0*%
%ADD12RoundRect,0.062500X0.062500X0.355000X-0.062500X0.355000X-0.062500X-0.355000X0.062500X-0.355000X0*%
%ADD13RoundRect,0.237500X0.300000X0.237500X-0.300000X0.237500X-0.300000X-0.237500X0.300000X-0.237500X0*%
%ADD14RoundRect,0.237500X-0.250000X-0.237500X0.250000X-0.237500X0.250000X0.237500X-0.250000X0.237500X0*%
%ADD15RoundRect,0.237500X-0.237500X0.300000X-0.237500X-0.300000X0.237500X-0.300000X0.237500X0.300000X0*%
%ADD16RoundRect,0.237500X0.250000X0.237500X-0.250000X0.237500X-0.250000X-0.237500X0.250000X-0.237500X0*%
%ADD17RoundRect,0.250001X0.872499X1.044999X-0.872499X1.044999X-0.872499X-1.044999X0.872499X-1.044999X0*%
%ADD18RoundRect,0.237500X-0.237500X0.250000X-0.237500X-0.250000X0.237500X-0.250000X0.237500X0.250000X0*%
%ADD19RoundRect,0.237500X-0.300000X-0.237500X0.300000X-0.237500X0.300000X0.237500X-0.300000X0.237500X0*%
%ADD20RoundRect,0.237500X0.237500X-0.250000X0.237500X0.250000X-0.237500X0.250000X-0.237500X-0.250000X0*%
%ADD21RoundRect,0.182500X0.182500X-0.182500X0.182500X0.182500X-0.182500X0.182500X-0.182500X-0.182500X0*%
%ADD22RoundRect,0.062500X0.062500X-0.355000X0.062500X0.355000X-0.062500X0.355000X-0.062500X-0.355000X0*%
%ADD23RoundRect,0.062500X0.355000X-0.062500X0.355000X0.062500X-0.355000X0.062500X-0.355000X-0.062500X0*%
%ADD24R,0.750000X0.650000*%
%ADD25RoundRect,0.062500X0.187500X0.062500X-0.187500X0.062500X-0.187500X-0.062500X0.187500X-0.062500X0*%
%ADD26RoundRect,0.237500X0.287500X0.237500X-0.287500X0.237500X-0.287500X-0.237500X0.287500X-0.237500X0*%
%ADD27RoundRect,0.182500X-0.182500X0.182500X-0.182500X-0.182500X0.182500X-0.182500X0.182500X0.182500X0*%
%ADD28RoundRect,0.062500X-0.062500X0.355000X-0.062500X-0.355000X0.062500X-0.355000X0.062500X0.355000X0*%
%ADD29RoundRect,0.062500X-0.355000X0.062500X-0.355000X-0.062500X0.355000X-0.062500X0.355000X0.062500X0*%
%ADD30RoundRect,0.112500X0.262500X-0.387500X0.262500X0.387500X-0.262500X0.387500X-0.262500X-0.387500X0*%
%ADD31RoundRect,0.200000X1.150000X-0.200000X1.150000X0.200000X-1.150000X0.200000X-1.150000X-0.200000X0*%
%ADD32RoundRect,0.150000X-0.150000X-0.350000X0.150000X-0.350000X0.150000X0.350000X-0.150000X0.350000X0*%
%ADD33RoundRect,0.075000X-0.075000X-0.575000X0.075000X-0.575000X0.075000X0.575000X-0.075000X0.575000X0*%
%ADD34RoundRect,0.237500X0.237500X-0.287500X0.237500X0.287500X-0.237500X0.287500X-0.237500X-0.287500X0*%
%ADD35R,0.900000X0.900000*%
%ADD36R,1.500000X0.900000*%
%ADD37R,0.900000X1.500000*%
%ADD38RoundRect,0.250001X1.044999X-0.872499X1.044999X0.872499X-1.044999X0.872499X-1.044999X-0.872499X0*%
%ADD39RoundRect,0.250001X-0.872499X-1.044999X0.872499X-1.044999X0.872499X1.044999X-0.872499X1.044999X0*%
%ADD40RoundRect,0.150000X0.150000X-0.512500X0.150000X0.512500X-0.150000X0.512500X-0.150000X-0.512500X0*%
%ADD41RoundRect,0.250000X-1.500000X-0.650000X1.500000X-0.650000X1.500000X0.650000X-1.500000X0.650000X0*%
%ADD42RoundRect,0.050000X0.287500X0.075000X-0.287500X0.075000X-0.287500X-0.075000X0.287500X-0.075000X0*%
%ADD43RoundRect,0.050000X-0.075000X0.287500X-0.075000X-0.287500X0.075000X-0.287500X0.075000X0.287500X0*%
%ADD44R,4.000000X4.000000*%
%ADD45RoundRect,0.600000X-1.400000X-1.400000X1.400000X-1.400000X1.400000X1.400000X-1.400000X1.400000X0*%
%ADD46R,0.250000X0.275000*%
%ADD47R,0.275000X0.250000*%
%ADD48RoundRect,0.237500X-0.287500X-0.237500X0.287500X-0.237500X0.287500X0.237500X-0.287500X0.237500X0*%
%ADD49RoundRect,0.237500X0.237500X-0.300000X0.237500X0.300000X-0.237500X0.300000X-0.237500X-0.300000X0*%
G04 APERTURE END LIST*
D10*
%TO.C,U5*%
X93638328Y-55249787D03*
X93638328Y-54409787D03*
X92798328Y-55249787D03*
X92798328Y-54409787D03*
D11*
X94675828Y-55579787D03*
X94675828Y-55079787D03*
X94675828Y-54579787D03*
X94675828Y-54079787D03*
D12*
X93968328Y-53372287D03*
X93468328Y-53372287D03*
X92968328Y-53372287D03*
X92468328Y-53372287D03*
D11*
X91760828Y-54079787D03*
X91760828Y-54579787D03*
X91760828Y-55079787D03*
X91760828Y-55579787D03*
D12*
X92468328Y-56287287D03*
X92968328Y-56287287D03*
X93468328Y-56287287D03*
X93968328Y-56287287D03*
%TD*%
D13*
%TO.C,C27*%
X70232500Y-70450000D03*
X68507500Y-70450000D03*
%TD*%
D14*
%TO.C,R13*%
X48500000Y-57830000D03*
X50325000Y-57830000D03*
%TD*%
D15*
%TO.C,C4*%
X45800000Y-50200000D03*
X45800000Y-51925000D03*
%TD*%
D16*
%TO.C,R4*%
X78075000Y-64130000D03*
X76250000Y-64130000D03*
%TD*%
D14*
%TO.C,R15*%
X48500000Y-62730000D03*
X50325000Y-62730000D03*
%TD*%
D16*
%TO.C,R9*%
X59670000Y-68980000D03*
X57845000Y-68980000D03*
%TD*%
%TO.C,R10*%
X74300000Y-83900000D03*
X72475000Y-83900000D03*
%TD*%
D17*
%TO.C,C16*%
X115678328Y-75129787D03*
X109263328Y-75129787D03*
%TD*%
D15*
%TO.C,C18*%
X95703328Y-49904787D03*
X95703328Y-51629787D03*
%TD*%
D13*
%TO.C,C2*%
X77450000Y-72730000D03*
X75725000Y-72730000D03*
%TD*%
%TO.C,C1*%
X47050000Y-72680000D03*
X45325000Y-72680000D03*
%TD*%
D18*
%TO.C,R6*%
X72560000Y-52170000D03*
X72560000Y-53995000D03*
%TD*%
D19*
%TO.C,C9*%
X108428328Y-86929787D03*
X110153328Y-86929787D03*
%TD*%
D20*
%TO.C,R7*%
X72550000Y-50180000D03*
X72550000Y-48355000D03*
%TD*%
D15*
%TO.C,C23*%
X77600000Y-87930000D03*
X77600000Y-89655000D03*
%TD*%
D13*
%TO.C,C20*%
X116753328Y-71129787D03*
X115028328Y-71129787D03*
%TD*%
%TO.C,C25*%
X61330000Y-77020000D03*
X59605000Y-77020000D03*
%TD*%
D21*
%TO.C,U6*%
X111018328Y-68459787D03*
X111858328Y-68459787D03*
X111018328Y-67619787D03*
X111858328Y-67619787D03*
D22*
X110688328Y-69497287D03*
X111188328Y-69497287D03*
X111688328Y-69497287D03*
X112188328Y-69497287D03*
D23*
X112895828Y-68789787D03*
X112895828Y-68289787D03*
X112895828Y-67789787D03*
X112895828Y-67289787D03*
D22*
X112188328Y-66582287D03*
X111688328Y-66582287D03*
X111188328Y-66582287D03*
X110688328Y-66582287D03*
D23*
X109980828Y-67289787D03*
X109980828Y-67789787D03*
X109980828Y-68289787D03*
X109980828Y-68789787D03*
%TD*%
D24*
%TO.C,U7*%
X75150000Y-88580000D03*
X75150000Y-87780000D03*
D25*
X76100000Y-88930000D03*
X76100000Y-88430000D03*
X76100000Y-87930000D03*
X76100000Y-87430000D03*
X74200000Y-87430000D03*
X74200000Y-87930000D03*
X74200000Y-88430000D03*
X74200000Y-88930000D03*
%TD*%
D26*
%TO.C,FB2*%
X65550000Y-76950000D03*
X63800000Y-76950000D03*
%TD*%
D20*
%TO.C,R3*%
X67900000Y-94230000D03*
X67900000Y-92405000D03*
%TD*%
D27*
%TO.C,U4*%
X90198328Y-81352287D03*
X89358328Y-81352287D03*
X90198328Y-82192287D03*
X89358328Y-82192287D03*
D28*
X90528328Y-80314787D03*
X90028328Y-80314787D03*
X89528328Y-80314787D03*
X89028328Y-80314787D03*
D29*
X88320828Y-81022287D03*
X88320828Y-81522287D03*
X88320828Y-82022287D03*
X88320828Y-82522287D03*
D28*
X89028328Y-83229787D03*
X89528328Y-83229787D03*
X90028328Y-83229787D03*
X90528328Y-83229787D03*
D29*
X91235828Y-82522287D03*
X91235828Y-82022287D03*
X91235828Y-81522287D03*
X91235828Y-81022287D03*
%TD*%
D14*
%TO.C,R14*%
X48500000Y-60300000D03*
X50325000Y-60300000D03*
%TD*%
D15*
%TO.C,C14*%
X93028328Y-78304787D03*
X93028328Y-80029787D03*
%TD*%
D30*
%TO.C,SW1*%
X44850000Y-80830000D03*
X44850000Y-74830000D03*
X48600000Y-80830000D03*
X48600000Y-74830000D03*
%TD*%
D15*
%TO.C,C6*%
X50700000Y-50175000D03*
X50700000Y-51900000D03*
%TD*%
D31*
%TO.C,L1*%
X71600000Y-89430000D03*
X71600000Y-87130000D03*
%TD*%
D14*
%TO.C,R12*%
X48500000Y-55500000D03*
X50325000Y-55500000D03*
%TD*%
D19*
%TO.C,C24*%
X72500000Y-85630000D03*
X74225000Y-85630000D03*
%TD*%
D15*
%TO.C,C5*%
X49000000Y-50175000D03*
X49000000Y-51900000D03*
%TD*%
D30*
%TO.C,SW2*%
X73900000Y-80880000D03*
X73900000Y-74880000D03*
X77650000Y-80880000D03*
X77650000Y-74880000D03*
%TD*%
D14*
%TO.C,R16*%
X50000000Y-92630000D03*
X51825000Y-92630000D03*
%TD*%
D32*
%TO.C,J2*%
X58250000Y-91255000D03*
X59050000Y-91255000D03*
D33*
X60200000Y-91410000D03*
X61200000Y-91410000D03*
X61700000Y-91410000D03*
X62700000Y-91410000D03*
D32*
X63850000Y-91255000D03*
X64650000Y-91255000D03*
D33*
X63200000Y-91410000D03*
X62200000Y-91410000D03*
X60700000Y-91410000D03*
X59700000Y-91410000D03*
%TD*%
D20*
%TO.C,R2*%
X54900000Y-94555000D03*
X54900000Y-92730000D03*
%TD*%
D34*
%TO.C,D2*%
X71600000Y-77105000D03*
X71600000Y-75355000D03*
%TD*%
%TO.C,FB1*%
X47400000Y-51900000D03*
X47400000Y-50150000D03*
%TD*%
D14*
%TO.C,R5*%
X76250000Y-66130000D03*
X78075000Y-66130000D03*
%TD*%
D17*
%TO.C,C7*%
X109728328Y-90879787D03*
X103313328Y-90879787D03*
%TD*%
D35*
%TO.C,U2*%
X58430000Y-55210000D03*
X58430000Y-56610000D03*
X58430000Y-58010000D03*
X59830000Y-55210000D03*
X59830000Y-56610000D03*
X59830000Y-58010000D03*
X61230000Y-55210000D03*
X61230000Y-56610000D03*
X61230000Y-58010000D03*
D36*
X52580000Y-48890000D03*
X52580000Y-50160000D03*
X52580000Y-51430000D03*
X52580000Y-52700000D03*
X52580000Y-53970000D03*
X52580000Y-55240000D03*
X52580000Y-56510000D03*
X52580000Y-57780000D03*
X52580000Y-59050000D03*
X52580000Y-60320000D03*
X52580000Y-61590000D03*
X52580000Y-62860000D03*
X52580000Y-64130000D03*
X52580000Y-65400000D03*
D37*
X54345000Y-66650000D03*
X55615000Y-66650000D03*
X56885000Y-66650000D03*
X58155000Y-66650000D03*
X59425000Y-66650000D03*
X60695000Y-66650000D03*
X61965000Y-66650000D03*
X63235000Y-66650000D03*
X64505000Y-66650000D03*
X65775000Y-66650000D03*
X67045000Y-66650000D03*
X68315000Y-66650000D03*
D36*
X70080000Y-65400000D03*
X70080000Y-64130000D03*
X70080000Y-62860000D03*
X70080000Y-61590000D03*
X70080000Y-60320000D03*
X70080000Y-59050000D03*
X70080000Y-57780000D03*
X70080000Y-56510000D03*
X70080000Y-55240000D03*
X70080000Y-53970000D03*
X70080000Y-52700000D03*
X70080000Y-51430000D03*
X70080000Y-50160000D03*
X70080000Y-48890000D03*
%TD*%
D19*
%TO.C,C19*%
X106303328Y-69379787D03*
X108028328Y-69379787D03*
%TD*%
D38*
%TO.C,C8*%
X86120000Y-76100000D03*
X86120000Y-69685000D03*
%TD*%
D21*
%TO.C,U3*%
X110708328Y-84092287D03*
X111548328Y-84092287D03*
X110708328Y-83252287D03*
X111548328Y-83252287D03*
D22*
X110378328Y-85129787D03*
X110878328Y-85129787D03*
X111378328Y-85129787D03*
X111878328Y-85129787D03*
D23*
X112585828Y-84422287D03*
X112585828Y-83922287D03*
X112585828Y-83422287D03*
X112585828Y-82922287D03*
D22*
X111878328Y-82214787D03*
X111378328Y-82214787D03*
X110878328Y-82214787D03*
X110378328Y-82214787D03*
D23*
X109670828Y-82922287D03*
X109670828Y-83422287D03*
X109670828Y-83922287D03*
X109670828Y-84422287D03*
%TD*%
D39*
%TO.C,C15*%
X98603328Y-50729787D03*
X105018328Y-50729787D03*
%TD*%
D40*
%TO.C,U1*%
X54950000Y-78405000D03*
X55900000Y-78405000D03*
X56850000Y-78405000D03*
X56850000Y-76130000D03*
X55900000Y-76130000D03*
X54950000Y-76130000D03*
%TD*%
D13*
%TO.C,C26*%
X68885000Y-68750000D03*
X67160000Y-68750000D03*
%TD*%
D14*
%TO.C,R1*%
X45275000Y-70880000D03*
X47100000Y-70880000D03*
%TD*%
D41*
%TO.C,D1*%
X91753328Y-89979787D03*
X96753328Y-89979787D03*
%TD*%
D18*
%TO.C,R11*%
X71600000Y-78817500D03*
X71600000Y-80642500D03*
%TD*%
D19*
%TO.C,C13*%
X105965828Y-85079787D03*
X107690828Y-85079787D03*
%TD*%
D15*
%TO.C,C17*%
X96628328Y-54404787D03*
X96628328Y-56129787D03*
%TD*%
D19*
%TO.C,C22*%
X109165828Y-71379787D03*
X110890828Y-71379787D03*
%TD*%
D42*
%TO.C,U8*%
X60110000Y-74230000D03*
X60110000Y-73730000D03*
X60110000Y-73230000D03*
X60110000Y-72730000D03*
X60110000Y-72230000D03*
X60110000Y-71730000D03*
X60110000Y-71230000D03*
D43*
X61372000Y-70768000D03*
D42*
X62684000Y-71230000D03*
X62684000Y-71730000D03*
X62684000Y-72230000D03*
X62684000Y-72730000D03*
X62684000Y-73230000D03*
X62684000Y-73730000D03*
X62684000Y-74230000D03*
D43*
X61372000Y-74747500D03*
%TD*%
D15*
%TO.C,C30*%
X53000000Y-74937500D03*
X53000000Y-76662500D03*
%TD*%
D44*
%TO.C,J1*%
X91800000Y-94200000D03*
D45*
X96550000Y-94200000D03*
%TD*%
D46*
%TO.C,U9*%
X66512500Y-69967500D03*
X66012500Y-69967500D03*
D47*
X65500000Y-70230000D03*
X65500000Y-70730000D03*
X65500000Y-71230000D03*
D46*
X66012500Y-71492500D03*
X66512500Y-71492500D03*
D47*
X67025000Y-71230000D03*
X67025000Y-70730000D03*
X67025000Y-70230000D03*
%TD*%
D13*
%TO.C,C10*%
X115153328Y-86800000D03*
X113428328Y-86800000D03*
%TD*%
D14*
%TO.C,R8*%
X61660000Y-68990000D03*
X63485000Y-68990000D03*
%TD*%
D13*
%TO.C,C21*%
X96553328Y-58129787D03*
X94828328Y-58129787D03*
%TD*%
D48*
%TO.C,D3*%
X50050000Y-94580000D03*
X51800000Y-94580000D03*
%TD*%
D19*
%TO.C,C12*%
X85233328Y-78600000D03*
X86958328Y-78600000D03*
%TD*%
D49*
%TO.C,C29*%
X64100000Y-74435000D03*
X64100000Y-72710000D03*
%TD*%
D13*
%TO.C,C11*%
X91028328Y-78429787D03*
X89303328Y-78429787D03*
%TD*%
D19*
%TO.C,C3*%
X76300000Y-68130000D03*
X78025000Y-68130000D03*
%TD*%
D15*
%TO.C,C28*%
X58620000Y-71305000D03*
X58620000Y-73030000D03*
%TD*%
M02*
