%TF.GenerationSoftware,KiCad,Pcbnew,9.0.4*%
%TF.CreationDate,2026-03-14T23:33:21+02:00*%
%TF.ProjectId,PCBv2Drona,50434276-3244-4726-9f6e-612e6b696361,rev?*%
%TF.SameCoordinates,Original*%
%TF.FileFunction,Copper,L2,Inr*%
%TF.FilePolarity,Positive*%
%FSLAX46Y46*%
G04 Gerber Fmt 4.6, Leading zero omitted, Abs format (unit mm)*
G04 Created by KiCad (PCBNEW 9.0.4) date 2026-03-14 23:33:21*
%MOMM*%
%LPD*%
G01*
G04 APERTURE LIST*
%TA.AperFunction,HeatsinkPad*%
%ADD10C,0.600000*%
%TD*%
%TA.AperFunction,ComponentPad*%
%ADD11R,1.700000X1.700000*%
%TD*%
%TA.AperFunction,ComponentPad*%
%ADD12C,1.700000*%
%TD*%
%TA.AperFunction,HeatsinkPad*%
%ADD13O,1.200000X2.300000*%
%TD*%
%TA.AperFunction,ComponentPad*%
%ADD14C,3.800000*%
%TD*%
%TA.AperFunction,ComponentPad*%
%ADD15C,5.600000*%
%TD*%
%TA.AperFunction,ViaPad*%
%ADD16C,0.800000*%
%TD*%
%TA.AperFunction,ViaPad*%
%ADD17C,0.600000*%
%TD*%
%TA.AperFunction,ViaPad*%
%ADD18C,1.200000*%
%TD*%
G04 APERTURE END LIST*
D10*
%TO.N,GND*%
%TO.C,U5*%
X93718328Y-55329787D03*
X93718328Y-54329787D03*
X92718328Y-55329787D03*
X92718328Y-54329787D03*
%TD*%
D11*
%TO.N,SDA2*%
%TO.C,J6*%
X116528328Y-49629787D03*
D12*
%TO.N,SCL2*%
X116528328Y-52169787D03*
%TO.N,+3V3*%
X116528328Y-54709787D03*
%TO.N,VBAT*%
X116528328Y-57249787D03*
%TO.N,GND*%
X116528328Y-59789787D03*
%TD*%
D11*
%TO.N,M1_COMMAND*%
%TO.C,J3*%
X45000000Y-55600000D03*
D12*
%TO.N,M2_COMMAND*%
X45000000Y-58140000D03*
%TO.N,M3_COMMAND*%
X45000000Y-60680000D03*
%TO.N,M4_COMMAND*%
X45000000Y-63220000D03*
%TO.N,unconnected-(J3-Pin_5-Pad5)*%
X45000000Y-65760000D03*
%TD*%
D10*
%TO.N,GND*%
%TO.C,U6*%
X110938328Y-68539787D03*
X111938328Y-68539787D03*
X110938328Y-67539787D03*
X111938328Y-67539787D03*
%TD*%
%TO.N,GND*%
%TO.C,U7*%
X75150000Y-88680000D03*
X75150000Y-87680000D03*
%TD*%
%TO.N,GND*%
%TO.C,U4*%
X90278328Y-81272287D03*
X89278328Y-81272287D03*
X90278328Y-82272287D03*
X89278328Y-82272287D03*
%TD*%
D11*
%TO.N,M1_COMMAND*%
%TO.C,J5*%
X84070000Y-55610000D03*
D12*
%TO.N,M2_COMMAND*%
X84070000Y-58150000D03*
%TO.N,M3_COMMAND*%
X84070000Y-60690000D03*
%TO.N,M4_COMMAND*%
X84070000Y-63230000D03*
%TO.N,unconnected-(J5-Pin_5-Pad5)*%
X84070000Y-65770000D03*
%TD*%
D13*
%TO.N,GND*%
%TO.C,J2*%
X57130000Y-92050000D03*
X57130000Y-96230000D03*
X65770000Y-92050000D03*
X65770000Y-96230000D03*
%TD*%
D10*
%TO.N,GND*%
%TO.C,U2*%
X58430000Y-55910000D03*
X58430000Y-57310000D03*
X59130000Y-55210000D03*
X59130000Y-56610000D03*
X59130000Y-58010000D03*
X59830000Y-55910000D03*
X59830000Y-57310000D03*
X60530000Y-55210000D03*
X60530000Y-56610000D03*
X60530000Y-58010000D03*
X61230000Y-55910000D03*
X61230000Y-57310000D03*
%TD*%
%TO.N,GND*%
%TO.C,U3*%
X110628328Y-84172287D03*
X111628328Y-84172287D03*
X110628328Y-83172287D03*
X111628328Y-83172287D03*
%TD*%
D14*
%TO.N,GND*%
%TO.C,H1*%
X75500000Y-93500000D03*
%TD*%
D11*
%TO.N,SDA2*%
%TO.C,J4*%
X77500000Y-49500000D03*
D12*
%TO.N,SCL2*%
X77500000Y-52040000D03*
%TO.N,+3V3*%
X77500000Y-54580000D03*
%TO.N,VBAT*%
X77500000Y-57120000D03*
%TO.N,GND*%
X77500000Y-59660000D03*
%TD*%
D15*
%TO.N,GND*%
%TO.C,H2*%
X114528328Y-93629787D03*
%TD*%
D16*
%TO.N,GND*%
X105528328Y-92629787D03*
D17*
X61200000Y-73180000D03*
D16*
X78050000Y-69230000D03*
X55900000Y-79600000D03*
X101028328Y-94129787D03*
X73900000Y-79700000D03*
X44050000Y-72680000D03*
X77500000Y-91000000D03*
X99528328Y-92629787D03*
X57400000Y-71330000D03*
X59600000Y-77980000D03*
X76100000Y-91000000D03*
X105528328Y-94129787D03*
X105528328Y-89629787D03*
X70500000Y-80630000D03*
X53850000Y-92730000D03*
X68600000Y-48880000D03*
X102528328Y-95629787D03*
X46400000Y-49100000D03*
D17*
X66300000Y-70730000D03*
D18*
X74100000Y-59800000D03*
X86100000Y-67700000D03*
D16*
X51750000Y-91580000D03*
X105528328Y-91129787D03*
X101028328Y-91129787D03*
X102528328Y-94129787D03*
X104028328Y-94129787D03*
X71200000Y-70480000D03*
X99528328Y-89629787D03*
X105078328Y-69379787D03*
X95728328Y-48729787D03*
X53000000Y-78000000D03*
D18*
X107128328Y-50729787D03*
D16*
X75300000Y-86430000D03*
X65100000Y-74430000D03*
X104028328Y-95629787D03*
X105528328Y-95629787D03*
X99528328Y-94129787D03*
X108028328Y-71329787D03*
D17*
X64800000Y-70130000D03*
D16*
X50700000Y-53100000D03*
X66800000Y-89330000D03*
X75700000Y-71700000D03*
D17*
X61249904Y-72108223D03*
D16*
X99528328Y-91129787D03*
X101028328Y-95629787D03*
X94228328Y-78329787D03*
X69250000Y-92380000D03*
X101028328Y-89629787D03*
X117678328Y-72129787D03*
X48400000Y-53100000D03*
X67250000Y-96180000D03*
D17*
X90678328Y-54579787D03*
D16*
X57600000Y-90130000D03*
X97678328Y-58129787D03*
X55350000Y-96230000D03*
X79200000Y-66100000D03*
D18*
X106978328Y-75179787D03*
D16*
X44850000Y-81900000D03*
X116287500Y-86850000D03*
D17*
X89028328Y-84129787D03*
D16*
X97628328Y-54429787D03*
X49550000Y-53100000D03*
D17*
X91578328Y-77120000D03*
D16*
X99528328Y-95629787D03*
X101028328Y-92629787D03*
X104778328Y-85079787D03*
X83900000Y-78600000D03*
D17*
X111528328Y-81329787D03*
D16*
X108428328Y-87979787D03*
X45300000Y-49100000D03*
X69950000Y-68730000D03*
X53900000Y-48880000D03*
D17*
%TO.N,VBAT*%
X85878328Y-73779787D03*
X112378328Y-75379787D03*
D16*
X85528328Y-89629787D03*
D17*
X113828328Y-74079787D03*
D18*
X77600000Y-86500000D03*
D16*
X88528328Y-95629787D03*
D17*
X112378328Y-76729787D03*
D16*
X107778328Y-91429787D03*
D17*
X101678328Y-50529787D03*
X87228328Y-73829787D03*
D16*
X107728328Y-94729787D03*
D17*
X113828328Y-76729787D03*
X113828328Y-75379787D03*
D16*
X109378328Y-92979787D03*
X87028328Y-95629787D03*
X88528328Y-91129787D03*
X88528328Y-89629787D03*
X85528328Y-92629787D03*
D17*
X101678328Y-51779787D03*
D16*
X107728328Y-92979787D03*
D17*
X101678328Y-49279787D03*
X112378328Y-74079787D03*
D16*
X87028328Y-89629787D03*
D17*
X78100000Y-63130000D03*
X100428328Y-51729787D03*
X100428328Y-49279787D03*
D16*
X109378328Y-94729787D03*
X85528328Y-95629787D03*
D17*
X84478328Y-72379787D03*
D16*
X87028328Y-91129787D03*
D17*
X85878328Y-72379787D03*
D16*
X87028328Y-94129787D03*
D17*
X100428328Y-50529787D03*
D16*
X88528328Y-94129787D03*
D17*
X87228328Y-72379787D03*
D16*
X85528328Y-94129787D03*
X88528328Y-92629787D03*
X87028328Y-92629787D03*
X107778328Y-89979787D03*
X85528328Y-91129787D03*
D17*
X84478328Y-73779787D03*
D16*
%TO.N,+3V3*%
X110278328Y-72479787D03*
X69400000Y-83800000D03*
D17*
X110128328Y-65679787D03*
D16*
X97678328Y-56079787D03*
X45300000Y-69830000D03*
X73600000Y-48330000D03*
X89780000Y-77080000D03*
D17*
X110678328Y-81329787D03*
D16*
X107478328Y-68379787D03*
X44700000Y-52400000D03*
X52800000Y-94600000D03*
X64600000Y-68330000D03*
D17*
X90128328Y-55579787D03*
D16*
X68300000Y-76930000D03*
X94228328Y-80029787D03*
D17*
X94028365Y-58978280D03*
D16*
X107078328Y-86129787D03*
X69400000Y-85500000D03*
X56800000Y-69030000D03*
X73600000Y-54030000D03*
D17*
X90328328Y-84179787D03*
D16*
X71000000Y-85500000D03*
X44700000Y-51400000D03*
X71000000Y-83800000D03*
X109578328Y-85929787D03*
D17*
%TO.N,EN*%
X54100000Y-51430000D03*
X47100000Y-69730000D03*
D16*
%TO.N,VCCA*%
X63800000Y-76030000D03*
X58600000Y-74130000D03*
X65120000Y-72710000D03*
X61300000Y-76030000D03*
X68500000Y-71830000D03*
D17*
%TO.N,SDA2*%
X92328328Y-61079787D03*
X93578328Y-81479787D03*
X96628328Y-59679787D03*
X107928328Y-66179787D03*
X106353328Y-81604787D03*
%TO.N,SCL2*%
X92578328Y-81479787D03*
X107400000Y-83400000D03*
X93426839Y-57528225D03*
X108678328Y-67729787D03*
%TO.N,VBAT_SENSE*%
X75200000Y-68130000D03*
X58200000Y-65230000D03*
%TO.N,M3_COMMAND*%
X91828328Y-57329787D03*
%TO.N,M2_COMMAND*%
X87328328Y-61779787D03*
X87328328Y-63900000D03*
%TO.N,M1_COMMAND*%
X88978328Y-58479787D03*
X89028328Y-64229787D03*
%TO.N,/Regulator/<NO NET>*%
X75500000Y-83880000D03*
X74200000Y-89830000D03*
%TO.N,Net-(D2-A)*%
X71600000Y-74130000D03*
X68600000Y-63930000D03*
D16*
%TO.N,Net-(U1-VBUS)*%
X59800000Y-89330000D03*
X62200000Y-89330000D03*
X53900000Y-73800000D03*
X55900000Y-74800000D03*
%TD*%
%TA.AperFunction,Conductor*%
%TO.N,GND*%
G36*
X118458691Y-47519407D02*
G01*
X118494655Y-47568907D01*
X118499500Y-47599500D01*
X118499500Y-97400500D01*
X118480593Y-97458691D01*
X118431093Y-97494655D01*
X118400500Y-97499500D01*
X82099000Y-97499500D01*
X82040809Y-97480593D01*
X82004845Y-97431093D01*
X82000000Y-97400500D01*
X82000000Y-95550730D01*
X84927828Y-95550730D01*
X84927828Y-95708844D01*
X84968751Y-95861571D01*
X85047808Y-95998503D01*
X85159612Y-96110307D01*
X85296544Y-96189364D01*
X85449271Y-96230287D01*
X85449273Y-96230287D01*
X85607383Y-96230287D01*
X85607385Y-96230287D01*
X85760112Y-96189364D01*
X85897044Y-96110307D01*
X86008848Y-95998503D01*
X86087905Y-95861571D01*
X86128828Y-95708844D01*
X86128828Y-95550730D01*
X86427828Y-95550730D01*
X86427828Y-95708844D01*
X86468751Y-95861571D01*
X86547808Y-95998503D01*
X86659612Y-96110307D01*
X86796544Y-96189364D01*
X86949271Y-96230287D01*
X86949273Y-96230287D01*
X87107383Y-96230287D01*
X87107385Y-96230287D01*
X87260112Y-96189364D01*
X87397044Y-96110307D01*
X87508848Y-95998503D01*
X87587905Y-95861571D01*
X87628828Y-95708844D01*
X87628828Y-95550730D01*
X87927828Y-95550730D01*
X87927828Y-95708844D01*
X87968751Y-95861571D01*
X88047808Y-95998503D01*
X88159612Y-96110307D01*
X88296544Y-96189364D01*
X88449271Y-96230287D01*
X88449273Y-96230287D01*
X88607383Y-96230287D01*
X88607385Y-96230287D01*
X88760112Y-96189364D01*
X88897044Y-96110307D01*
X89008848Y-95998503D01*
X89087905Y-95861571D01*
X89128828Y-95708844D01*
X89128828Y-95550730D01*
X89087905Y-95398003D01*
X89008848Y-95261071D01*
X88897044Y-95149267D01*
X88760112Y-95070210D01*
X88607385Y-95029287D01*
X88449271Y-95029287D01*
X88296544Y-95070210D01*
X88159612Y-95149267D01*
X88047808Y-95261071D01*
X87968751Y-95398003D01*
X87927828Y-95550730D01*
X87628828Y-95550730D01*
X87587905Y-95398003D01*
X87508848Y-95261071D01*
X87397044Y-95149267D01*
X87260112Y-95070210D01*
X87107385Y-95029287D01*
X86949271Y-95029287D01*
X86796544Y-95070210D01*
X86659612Y-95149267D01*
X86547808Y-95261071D01*
X86468751Y-95398003D01*
X86427828Y-95550730D01*
X86128828Y-95550730D01*
X86087905Y-95398003D01*
X86008848Y-95261071D01*
X85897044Y-95149267D01*
X85760112Y-95070210D01*
X85607385Y-95029287D01*
X85449271Y-95029287D01*
X85296544Y-95070210D01*
X85159612Y-95149267D01*
X85047808Y-95261071D01*
X84968751Y-95398003D01*
X84927828Y-95550730D01*
X82000000Y-95550730D01*
X82000000Y-94050730D01*
X84927828Y-94050730D01*
X84927828Y-94208844D01*
X84968751Y-94361571D01*
X85047808Y-94498503D01*
X85159612Y-94610307D01*
X85296544Y-94689364D01*
X85449271Y-94730287D01*
X85449273Y-94730287D01*
X85607383Y-94730287D01*
X85607385Y-94730287D01*
X85760112Y-94689364D01*
X85897044Y-94610307D01*
X86008848Y-94498503D01*
X86087905Y-94361571D01*
X86128828Y-94208844D01*
X86128828Y-94050730D01*
X86427828Y-94050730D01*
X86427828Y-94208844D01*
X86468751Y-94361571D01*
X86547808Y-94498503D01*
X86659612Y-94610307D01*
X86796544Y-94689364D01*
X86949271Y-94730287D01*
X86949273Y-94730287D01*
X87107383Y-94730287D01*
X87107385Y-94730287D01*
X87260112Y-94689364D01*
X87397044Y-94610307D01*
X87508848Y-94498503D01*
X87587905Y-94361571D01*
X87628828Y-94208844D01*
X87628828Y-94050730D01*
X87927828Y-94050730D01*
X87927828Y-94208844D01*
X87968751Y-94361571D01*
X88047808Y-94498503D01*
X88159612Y-94610307D01*
X88296544Y-94689364D01*
X88449271Y-94730287D01*
X88449273Y-94730287D01*
X88607383Y-94730287D01*
X88607385Y-94730287D01*
X88760112Y-94689364D01*
X88827029Y-94650730D01*
X107127828Y-94650730D01*
X107127828Y-94808844D01*
X107168751Y-94961571D01*
X107247808Y-95098503D01*
X107359612Y-95210307D01*
X107496544Y-95289364D01*
X107649271Y-95330287D01*
X107649273Y-95330287D01*
X107807383Y-95330287D01*
X107807385Y-95330287D01*
X107960112Y-95289364D01*
X108097044Y-95210307D01*
X108208848Y-95098503D01*
X108287905Y-94961571D01*
X108328828Y-94808844D01*
X108328828Y-94650730D01*
X108777828Y-94650730D01*
X108777828Y-94808844D01*
X108818751Y-94961571D01*
X108897808Y-95098503D01*
X109009612Y-95210307D01*
X109146544Y-95289364D01*
X109299271Y-95330287D01*
X109299273Y-95330287D01*
X109457383Y-95330287D01*
X109457385Y-95330287D01*
X109610112Y-95289364D01*
X109747044Y-95210307D01*
X109858848Y-95098503D01*
X109937905Y-94961571D01*
X109978828Y-94808844D01*
X109978828Y-94650730D01*
X109937905Y-94498003D01*
X109858848Y-94361071D01*
X109747044Y-94249267D01*
X109610112Y-94170210D01*
X109457385Y-94129287D01*
X109299271Y-94129287D01*
X109146544Y-94170210D01*
X109009612Y-94249267D01*
X108897808Y-94361071D01*
X108818751Y-94498003D01*
X108777828Y-94650730D01*
X108328828Y-94650730D01*
X108287905Y-94498003D01*
X108208848Y-94361071D01*
X108097044Y-94249267D01*
X107960112Y-94170210D01*
X107807385Y-94129287D01*
X107649271Y-94129287D01*
X107496544Y-94170210D01*
X107359612Y-94249267D01*
X107247808Y-94361071D01*
X107168751Y-94498003D01*
X107127828Y-94650730D01*
X88827029Y-94650730D01*
X88897044Y-94610307D01*
X89008848Y-94498503D01*
X89087905Y-94361571D01*
X89128828Y-94208844D01*
X89128828Y-94050730D01*
X89087905Y-93898003D01*
X89008848Y-93761071D01*
X88897044Y-93649267D01*
X88760112Y-93570210D01*
X88607385Y-93529287D01*
X88449271Y-93529287D01*
X88296544Y-93570210D01*
X88159612Y-93649267D01*
X88047808Y-93761071D01*
X87968751Y-93898003D01*
X87927828Y-94050730D01*
X87628828Y-94050730D01*
X87587905Y-93898003D01*
X87508848Y-93761071D01*
X87397044Y-93649267D01*
X87260112Y-93570210D01*
X87107385Y-93529287D01*
X86949271Y-93529287D01*
X86796544Y-93570210D01*
X86659612Y-93649267D01*
X86547808Y-93761071D01*
X86468751Y-93898003D01*
X86427828Y-94050730D01*
X86128828Y-94050730D01*
X86087905Y-93898003D01*
X86008848Y-93761071D01*
X85897044Y-93649267D01*
X85760112Y-93570210D01*
X85607385Y-93529287D01*
X85449271Y-93529287D01*
X85296544Y-93570210D01*
X85159612Y-93649267D01*
X85047808Y-93761071D01*
X84968751Y-93898003D01*
X84927828Y-94050730D01*
X82000000Y-94050730D01*
X82000000Y-92550730D01*
X84927828Y-92550730D01*
X84927828Y-92708844D01*
X84968751Y-92861571D01*
X85047808Y-92998503D01*
X85159612Y-93110307D01*
X85296544Y-93189364D01*
X85449271Y-93230287D01*
X85449273Y-93230287D01*
X85607383Y-93230287D01*
X85607385Y-93230287D01*
X85760112Y-93189364D01*
X85897044Y-93110307D01*
X86008848Y-92998503D01*
X86087905Y-92861571D01*
X86128828Y-92708844D01*
X86128828Y-92550730D01*
X86427828Y-92550730D01*
X86427828Y-92708844D01*
X86468751Y-92861571D01*
X86547808Y-92998503D01*
X86659612Y-93110307D01*
X86796544Y-93189364D01*
X86949271Y-93230287D01*
X86949273Y-93230287D01*
X87107383Y-93230287D01*
X87107385Y-93230287D01*
X87260112Y-93189364D01*
X87397044Y-93110307D01*
X87508848Y-92998503D01*
X87587905Y-92861571D01*
X87628828Y-92708844D01*
X87628828Y-92550730D01*
X87927828Y-92550730D01*
X87927828Y-92708844D01*
X87968751Y-92861571D01*
X88047808Y-92998503D01*
X88159612Y-93110307D01*
X88296544Y-93189364D01*
X88449271Y-93230287D01*
X88449273Y-93230287D01*
X88607383Y-93230287D01*
X88607385Y-93230287D01*
X88760112Y-93189364D01*
X88897044Y-93110307D01*
X89008848Y-92998503D01*
X89065297Y-92900730D01*
X107127828Y-92900730D01*
X107127828Y-93058844D01*
X107168751Y-93211571D01*
X107247808Y-93348503D01*
X107359612Y-93460307D01*
X107496544Y-93539364D01*
X107649271Y-93580287D01*
X107649273Y-93580287D01*
X107807383Y-93580287D01*
X107807385Y-93580287D01*
X107960112Y-93539364D01*
X108097044Y-93460307D01*
X108208848Y-93348503D01*
X108287905Y-93211571D01*
X108328828Y-93058844D01*
X108328828Y-92900730D01*
X108777828Y-92900730D01*
X108777828Y-93058844D01*
X108818751Y-93211571D01*
X108897808Y-93348503D01*
X109009612Y-93460307D01*
X109146544Y-93539364D01*
X109299271Y-93580287D01*
X109299273Y-93580287D01*
X109457383Y-93580287D01*
X109457385Y-93580287D01*
X109610112Y-93539364D01*
X109747044Y-93460307D01*
X109858848Y-93348503D01*
X109937905Y-93211571D01*
X109978828Y-93058844D01*
X109978828Y-92900730D01*
X109937905Y-92748003D01*
X109858848Y-92611071D01*
X109747044Y-92499267D01*
X109610112Y-92420210D01*
X109457385Y-92379287D01*
X109299271Y-92379287D01*
X109146544Y-92420210D01*
X109009612Y-92499267D01*
X108897808Y-92611071D01*
X108818751Y-92748003D01*
X108777828Y-92900730D01*
X108328828Y-92900730D01*
X108287905Y-92748003D01*
X108208848Y-92611071D01*
X108097044Y-92499267D01*
X107960112Y-92420210D01*
X107807385Y-92379287D01*
X107649271Y-92379287D01*
X107496544Y-92420210D01*
X107359612Y-92499267D01*
X107247808Y-92611071D01*
X107168751Y-92748003D01*
X107127828Y-92900730D01*
X89065297Y-92900730D01*
X89087905Y-92861571D01*
X89128828Y-92708844D01*
X89128828Y-92550730D01*
X89087905Y-92398003D01*
X89008848Y-92261071D01*
X88897044Y-92149267D01*
X88760112Y-92070210D01*
X88607385Y-92029287D01*
X88449271Y-92029287D01*
X88296544Y-92070210D01*
X88159612Y-92149267D01*
X88047808Y-92261071D01*
X87968751Y-92398003D01*
X87927828Y-92550730D01*
X87628828Y-92550730D01*
X87587905Y-92398003D01*
X87508848Y-92261071D01*
X87397044Y-92149267D01*
X87260112Y-92070210D01*
X87107385Y-92029287D01*
X86949271Y-92029287D01*
X86796544Y-92070210D01*
X86659612Y-92149267D01*
X86547808Y-92261071D01*
X86468751Y-92398003D01*
X86427828Y-92550730D01*
X86128828Y-92550730D01*
X86087905Y-92398003D01*
X86008848Y-92261071D01*
X85897044Y-92149267D01*
X85760112Y-92070210D01*
X85607385Y-92029287D01*
X85449271Y-92029287D01*
X85296544Y-92070210D01*
X85159612Y-92149267D01*
X85047808Y-92261071D01*
X84968751Y-92398003D01*
X84927828Y-92550730D01*
X82000000Y-92550730D01*
X82000000Y-91050730D01*
X84927828Y-91050730D01*
X84927828Y-91208844D01*
X84968751Y-91361571D01*
X85047808Y-91498503D01*
X85159612Y-91610307D01*
X85296544Y-91689364D01*
X85449271Y-91730287D01*
X85449273Y-91730287D01*
X85607383Y-91730287D01*
X85607385Y-91730287D01*
X85760112Y-91689364D01*
X85897044Y-91610307D01*
X86008848Y-91498503D01*
X86087905Y-91361571D01*
X86128828Y-91208844D01*
X86128828Y-91050730D01*
X86427828Y-91050730D01*
X86427828Y-91208844D01*
X86468751Y-91361571D01*
X86547808Y-91498503D01*
X86659612Y-91610307D01*
X86796544Y-91689364D01*
X86949271Y-91730287D01*
X86949273Y-91730287D01*
X87107383Y-91730287D01*
X87107385Y-91730287D01*
X87260112Y-91689364D01*
X87397044Y-91610307D01*
X87508848Y-91498503D01*
X87587905Y-91361571D01*
X87628828Y-91208844D01*
X87628828Y-91050730D01*
X87927828Y-91050730D01*
X87927828Y-91208844D01*
X87968751Y-91361571D01*
X88047808Y-91498503D01*
X88159612Y-91610307D01*
X88296544Y-91689364D01*
X88449271Y-91730287D01*
X88449273Y-91730287D01*
X88607383Y-91730287D01*
X88607385Y-91730287D01*
X88760112Y-91689364D01*
X88897044Y-91610307D01*
X89008848Y-91498503D01*
X89087905Y-91361571D01*
X89090810Y-91350730D01*
X107177828Y-91350730D01*
X107177828Y-91508844D01*
X107218751Y-91661571D01*
X107297808Y-91798503D01*
X107409612Y-91910307D01*
X107546544Y-91989364D01*
X107699271Y-92030287D01*
X107699273Y-92030287D01*
X107857383Y-92030287D01*
X107857385Y-92030287D01*
X108010112Y-91989364D01*
X108147044Y-91910307D01*
X108258848Y-91798503D01*
X108337905Y-91661571D01*
X108378828Y-91508844D01*
X108378828Y-91350730D01*
X108337905Y-91198003D01*
X108258848Y-91061071D01*
X108147044Y-90949267D01*
X108010112Y-90870210D01*
X107857385Y-90829287D01*
X107699271Y-90829287D01*
X107546544Y-90870210D01*
X107409612Y-90949267D01*
X107297808Y-91061071D01*
X107218751Y-91198003D01*
X107177828Y-91350730D01*
X89090810Y-91350730D01*
X89128828Y-91208844D01*
X89128828Y-91050730D01*
X89087905Y-90898003D01*
X89008848Y-90761071D01*
X88897044Y-90649267D01*
X88760112Y-90570210D01*
X88607385Y-90529287D01*
X88449271Y-90529287D01*
X88296544Y-90570210D01*
X88159612Y-90649267D01*
X88047808Y-90761071D01*
X87968751Y-90898003D01*
X87927828Y-91050730D01*
X87628828Y-91050730D01*
X87587905Y-90898003D01*
X87508848Y-90761071D01*
X87397044Y-90649267D01*
X87260112Y-90570210D01*
X87107385Y-90529287D01*
X86949271Y-90529287D01*
X86796544Y-90570210D01*
X86659612Y-90649267D01*
X86547808Y-90761071D01*
X86468751Y-90898003D01*
X86427828Y-91050730D01*
X86128828Y-91050730D01*
X86087905Y-90898003D01*
X86008848Y-90761071D01*
X85897044Y-90649267D01*
X85760112Y-90570210D01*
X85607385Y-90529287D01*
X85449271Y-90529287D01*
X85296544Y-90570210D01*
X85159612Y-90649267D01*
X85047808Y-90761071D01*
X84968751Y-90898003D01*
X84927828Y-91050730D01*
X82000000Y-91050730D01*
X82000000Y-89550730D01*
X84927828Y-89550730D01*
X84927828Y-89708844D01*
X84968751Y-89861571D01*
X85047808Y-89998503D01*
X85159612Y-90110307D01*
X85296544Y-90189364D01*
X85449271Y-90230287D01*
X85449273Y-90230287D01*
X85607383Y-90230287D01*
X85607385Y-90230287D01*
X85760112Y-90189364D01*
X85897044Y-90110307D01*
X86008848Y-89998503D01*
X86087905Y-89861571D01*
X86128828Y-89708844D01*
X86128828Y-89550730D01*
X86427828Y-89550730D01*
X86427828Y-89708844D01*
X86468751Y-89861571D01*
X86547808Y-89998503D01*
X86659612Y-90110307D01*
X86796544Y-90189364D01*
X86949271Y-90230287D01*
X86949273Y-90230287D01*
X87107383Y-90230287D01*
X87107385Y-90230287D01*
X87260112Y-90189364D01*
X87397044Y-90110307D01*
X87508848Y-89998503D01*
X87587905Y-89861571D01*
X87628828Y-89708844D01*
X87628828Y-89550730D01*
X87927828Y-89550730D01*
X87927828Y-89708844D01*
X87968751Y-89861571D01*
X88047808Y-89998503D01*
X88159612Y-90110307D01*
X88296544Y-90189364D01*
X88449271Y-90230287D01*
X88449273Y-90230287D01*
X88607383Y-90230287D01*
X88607385Y-90230287D01*
X88760112Y-90189364D01*
X88897044Y-90110307D01*
X89008848Y-89998503D01*
X89065297Y-89900730D01*
X107177828Y-89900730D01*
X107177828Y-90058844D01*
X107218751Y-90211571D01*
X107297808Y-90348503D01*
X107409612Y-90460307D01*
X107546544Y-90539364D01*
X107699271Y-90580287D01*
X107699273Y-90580287D01*
X107857383Y-90580287D01*
X107857385Y-90580287D01*
X108010112Y-90539364D01*
X108147044Y-90460307D01*
X108258848Y-90348503D01*
X108337905Y-90211571D01*
X108378828Y-90058844D01*
X108378828Y-89900730D01*
X108337905Y-89748003D01*
X108258848Y-89611071D01*
X108147044Y-89499267D01*
X108010112Y-89420210D01*
X107857385Y-89379287D01*
X107699271Y-89379287D01*
X107546544Y-89420210D01*
X107409612Y-89499267D01*
X107297808Y-89611071D01*
X107218751Y-89748003D01*
X107177828Y-89900730D01*
X89065297Y-89900730D01*
X89087905Y-89861571D01*
X89128828Y-89708844D01*
X89128828Y-89550730D01*
X89087905Y-89398003D01*
X89008848Y-89261071D01*
X88897044Y-89149267D01*
X88760112Y-89070210D01*
X88607385Y-89029287D01*
X88449271Y-89029287D01*
X88296544Y-89070210D01*
X88159612Y-89149267D01*
X88047808Y-89261071D01*
X87968751Y-89398003D01*
X87927828Y-89550730D01*
X87628828Y-89550730D01*
X87587905Y-89398003D01*
X87508848Y-89261071D01*
X87397044Y-89149267D01*
X87260112Y-89070210D01*
X87107385Y-89029287D01*
X86949271Y-89029287D01*
X86796544Y-89070210D01*
X86659612Y-89149267D01*
X86547808Y-89261071D01*
X86468751Y-89398003D01*
X86427828Y-89550730D01*
X86128828Y-89550730D01*
X86087905Y-89398003D01*
X86008848Y-89261071D01*
X85897044Y-89149267D01*
X85760112Y-89070210D01*
X85607385Y-89029287D01*
X85449271Y-89029287D01*
X85296544Y-89070210D01*
X85159612Y-89149267D01*
X85047808Y-89261071D01*
X84968751Y-89398003D01*
X84927828Y-89550730D01*
X82000000Y-89550730D01*
X82000000Y-85500942D01*
X83399500Y-85500942D01*
X83399500Y-85658631D01*
X83430263Y-85813283D01*
X83430263Y-85813285D01*
X83490603Y-85958961D01*
X83490609Y-85958972D01*
X83523932Y-86008842D01*
X83578211Y-86090076D01*
X83689711Y-86201576D01*
X83767876Y-86253804D01*
X83820814Y-86289177D01*
X83820825Y-86289183D01*
X83843324Y-86298502D01*
X83966503Y-86349524D01*
X84121158Y-86380287D01*
X84121159Y-86380287D01*
X84278841Y-86380287D01*
X84278842Y-86380287D01*
X84433497Y-86349524D01*
X84579179Y-86289181D01*
X84710289Y-86201576D01*
X84821789Y-86090076D01*
X84848079Y-86050730D01*
X106477828Y-86050730D01*
X106477828Y-86208844D01*
X106518751Y-86361571D01*
X106597808Y-86498503D01*
X106709612Y-86610307D01*
X106846544Y-86689364D01*
X106999271Y-86730287D01*
X106999273Y-86730287D01*
X107157383Y-86730287D01*
X107157385Y-86730287D01*
X107310112Y-86689364D01*
X107447044Y-86610307D01*
X107558848Y-86498503D01*
X107637905Y-86361571D01*
X107678828Y-86208844D01*
X107678828Y-86050730D01*
X107637905Y-85898003D01*
X107610612Y-85850730D01*
X108977828Y-85850730D01*
X108977828Y-86008844D01*
X109018751Y-86161571D01*
X109097808Y-86298503D01*
X109209612Y-86410307D01*
X109346544Y-86489364D01*
X109499271Y-86530287D01*
X109499273Y-86530287D01*
X109657383Y-86530287D01*
X109657385Y-86530287D01*
X109810112Y-86489364D01*
X109947044Y-86410307D01*
X110058848Y-86298503D01*
X110137905Y-86161571D01*
X110178828Y-86008844D01*
X110178828Y-85850730D01*
X110137905Y-85698003D01*
X110058848Y-85561071D01*
X109947044Y-85449267D01*
X109810112Y-85370210D01*
X109657385Y-85329287D01*
X109499271Y-85329287D01*
X109346544Y-85370210D01*
X109209612Y-85449267D01*
X109097808Y-85561071D01*
X109018751Y-85698003D01*
X108977828Y-85850730D01*
X107610612Y-85850730D01*
X107558848Y-85761071D01*
X107447044Y-85649267D01*
X107310112Y-85570210D01*
X107157385Y-85529287D01*
X106999271Y-85529287D01*
X106846544Y-85570210D01*
X106709612Y-85649267D01*
X106597808Y-85761071D01*
X106518751Y-85898003D01*
X106477828Y-86050730D01*
X84848079Y-86050730D01*
X84876068Y-86008842D01*
X84889167Y-85989239D01*
X84909390Y-85958973D01*
X84909396Y-85958961D01*
X84969737Y-85813284D01*
X85000500Y-85658629D01*
X85000500Y-85500945D01*
X84969737Y-85346290D01*
X84909394Y-85200608D01*
X84909393Y-85200606D01*
X84909390Y-85200601D01*
X84874017Y-85147663D01*
X84821789Y-85069498D01*
X84710289Y-84957998D01*
X84658059Y-84923099D01*
X84579185Y-84870396D01*
X84579174Y-84870390D01*
X84433497Y-84810050D01*
X84333948Y-84790248D01*
X110293207Y-84790248D01*
X110296756Y-84792620D01*
X110424144Y-84845385D01*
X110559383Y-84872286D01*
X110559385Y-84872287D01*
X110697271Y-84872287D01*
X110697272Y-84872286D01*
X110832511Y-84845385D01*
X110959897Y-84792621D01*
X110959900Y-84792620D01*
X110963447Y-84790249D01*
X110963446Y-84790248D01*
X111293207Y-84790248D01*
X111296756Y-84792620D01*
X111424144Y-84845385D01*
X111559383Y-84872286D01*
X111559385Y-84872287D01*
X111697271Y-84872287D01*
X111697272Y-84872286D01*
X111832511Y-84845385D01*
X111959897Y-84792621D01*
X111959900Y-84792620D01*
X111963447Y-84790249D01*
X111628327Y-84455129D01*
X111293207Y-84790248D01*
X110963446Y-84790248D01*
X110628327Y-84455129D01*
X110293207Y-84790248D01*
X84333948Y-84790248D01*
X84278844Y-84779287D01*
X84278842Y-84779287D01*
X84121158Y-84779287D01*
X84121155Y-84779287D01*
X83966503Y-84810050D01*
X83966501Y-84810050D01*
X83820825Y-84870390D01*
X83820814Y-84870396D01*
X83689711Y-84957998D01*
X83689707Y-84958001D01*
X83578214Y-85069494D01*
X83578211Y-85069498D01*
X83490609Y-85200601D01*
X83490603Y-85200612D01*
X83430263Y-85346288D01*
X83430263Y-85346290D01*
X83399500Y-85500942D01*
X82000000Y-85500942D01*
X82000000Y-84113895D01*
X89827828Y-84113895D01*
X89827828Y-84245679D01*
X89830930Y-84257255D01*
X89861937Y-84372977D01*
X89927824Y-84487096D01*
X89927826Y-84487098D01*
X89927828Y-84487101D01*
X90021014Y-84580287D01*
X90021016Y-84580288D01*
X90021018Y-84580290D01*
X90135138Y-84646177D01*
X90135136Y-84646177D01*
X90135140Y-84646178D01*
X90135142Y-84646179D01*
X90262436Y-84680287D01*
X90262438Y-84680287D01*
X90394218Y-84680287D01*
X90394220Y-84680287D01*
X90521514Y-84646179D01*
X90521516Y-84646177D01*
X90521518Y-84646177D01*
X90635637Y-84580290D01*
X90635637Y-84580289D01*
X90635642Y-84580287D01*
X90728828Y-84487101D01*
X90747287Y-84455129D01*
X90794718Y-84372977D01*
X90794718Y-84372975D01*
X90794720Y-84372973D01*
X90828828Y-84245679D01*
X90828828Y-84113895D01*
X90826000Y-84103342D01*
X109928328Y-84103342D01*
X109928328Y-84241231D01*
X109955229Y-84376470D01*
X110007992Y-84503854D01*
X110007995Y-84503859D01*
X110010365Y-84507406D01*
X110345485Y-84172287D01*
X110315648Y-84142450D01*
X110478328Y-84142450D01*
X110478328Y-84202124D01*
X110501164Y-84257255D01*
X110543360Y-84299451D01*
X110598491Y-84322287D01*
X110658165Y-84322287D01*
X110713296Y-84299451D01*
X110755492Y-84257255D01*
X110778328Y-84202124D01*
X110778328Y-84172287D01*
X110911171Y-84172287D01*
X111128328Y-84389444D01*
X111345485Y-84172287D01*
X111315648Y-84142450D01*
X111478328Y-84142450D01*
X111478328Y-84202124D01*
X111501164Y-84257255D01*
X111543360Y-84299451D01*
X111598491Y-84322287D01*
X111658165Y-84322287D01*
X111713296Y-84299451D01*
X111755492Y-84257255D01*
X111778328Y-84202124D01*
X111778328Y-84172286D01*
X111911170Y-84172286D01*
X112246290Y-84507406D01*
X112248661Y-84503859D01*
X112248662Y-84503856D01*
X112301426Y-84376470D01*
X112328327Y-84241231D01*
X112328328Y-84241229D01*
X112328328Y-84103344D01*
X112328327Y-84103342D01*
X112301426Y-83968103D01*
X112248661Y-83840715D01*
X112246289Y-83837166D01*
X111911170Y-84172286D01*
X111778328Y-84172286D01*
X111778328Y-84142450D01*
X111755492Y-84087319D01*
X111713296Y-84045123D01*
X111658165Y-84022287D01*
X111598491Y-84022287D01*
X111543360Y-84045123D01*
X111501164Y-84087319D01*
X111478328Y-84142450D01*
X111315648Y-84142450D01*
X111128328Y-83955130D01*
X110911171Y-84172287D01*
X110778328Y-84172287D01*
X110778328Y-84142450D01*
X110755492Y-84087319D01*
X110713296Y-84045123D01*
X110658165Y-84022287D01*
X110598491Y-84022287D01*
X110543360Y-84045123D01*
X110501164Y-84087319D01*
X110478328Y-84142450D01*
X110315648Y-84142450D01*
X110010364Y-83837166D01*
X110007999Y-83840706D01*
X110007993Y-83840717D01*
X109955229Y-83968103D01*
X109928328Y-84103342D01*
X90826000Y-84103342D01*
X90794720Y-83986601D01*
X90794718Y-83986598D01*
X90794718Y-83986596D01*
X90728831Y-83872477D01*
X90728829Y-83872475D01*
X90728828Y-83872473D01*
X90635642Y-83779287D01*
X90635639Y-83779285D01*
X90635637Y-83779283D01*
X90521517Y-83713396D01*
X90521519Y-83713396D01*
X90472127Y-83700162D01*
X90394220Y-83679287D01*
X90262436Y-83679287D01*
X90184528Y-83700162D01*
X90135137Y-83713396D01*
X90021018Y-83779283D01*
X89927824Y-83872477D01*
X89861937Y-83986596D01*
X89861936Y-83986601D01*
X89827828Y-84113895D01*
X82000000Y-84113895D01*
X82000000Y-82500942D01*
X83399500Y-82500942D01*
X83399500Y-82658631D01*
X83430263Y-82813283D01*
X83430263Y-82813285D01*
X83490603Y-82958961D01*
X83490609Y-82958972D01*
X83532916Y-83022287D01*
X83578211Y-83090076D01*
X83689711Y-83201576D01*
X83749056Y-83241229D01*
X83820814Y-83289177D01*
X83820825Y-83289183D01*
X83845615Y-83299451D01*
X83966503Y-83349524D01*
X84121158Y-83380287D01*
X84121159Y-83380287D01*
X84278841Y-83380287D01*
X84278842Y-83380287D01*
X84433497Y-83349524D01*
X84470715Y-83334108D01*
X106899500Y-83334108D01*
X106899500Y-83465892D01*
X106919378Y-83540079D01*
X106933609Y-83593190D01*
X106999496Y-83707309D01*
X106999498Y-83707311D01*
X106999500Y-83707314D01*
X107092686Y-83800500D01*
X107092688Y-83800501D01*
X107092690Y-83800503D01*
X107206810Y-83866390D01*
X107206808Y-83866390D01*
X107206812Y-83866391D01*
X107206814Y-83866392D01*
X107334108Y-83900500D01*
X107334110Y-83900500D01*
X107465890Y-83900500D01*
X107465892Y-83900500D01*
X107593186Y-83866392D01*
X107593188Y-83866390D01*
X107593190Y-83866390D01*
X107707309Y-83800503D01*
X107707309Y-83800502D01*
X107707314Y-83800500D01*
X107800500Y-83707314D01*
X107800503Y-83707309D01*
X107820723Y-83672287D01*
X110411171Y-83672287D01*
X110628328Y-83889444D01*
X110845485Y-83672287D01*
X111411171Y-83672287D01*
X111628328Y-83889444D01*
X111845485Y-83672287D01*
X111628328Y-83455130D01*
X111411171Y-83672287D01*
X110845485Y-83672287D01*
X110628328Y-83455130D01*
X110411171Y-83672287D01*
X107820723Y-83672287D01*
X107866390Y-83593190D01*
X107866390Y-83593188D01*
X107866392Y-83593186D01*
X107900500Y-83465892D01*
X107900500Y-83334108D01*
X107866392Y-83206814D01*
X107866390Y-83206811D01*
X107866390Y-83206809D01*
X107832425Y-83147982D01*
X107806652Y-83103342D01*
X109928328Y-83103342D01*
X109928328Y-83241231D01*
X109955229Y-83376470D01*
X110007992Y-83503854D01*
X110007995Y-83503859D01*
X110010365Y-83507406D01*
X110345485Y-83172287D01*
X110315648Y-83142450D01*
X110478328Y-83142450D01*
X110478328Y-83202124D01*
X110501164Y-83257255D01*
X110543360Y-83299451D01*
X110598491Y-83322287D01*
X110658165Y-83322287D01*
X110713296Y-83299451D01*
X110755492Y-83257255D01*
X110778328Y-83202124D01*
X110778328Y-83172287D01*
X110911171Y-83172287D01*
X111128328Y-83389444D01*
X111345485Y-83172287D01*
X111315648Y-83142450D01*
X111478328Y-83142450D01*
X111478328Y-83202124D01*
X111501164Y-83257255D01*
X111543360Y-83299451D01*
X111598491Y-83322287D01*
X111658165Y-83322287D01*
X111713296Y-83299451D01*
X111755492Y-83257255D01*
X111778328Y-83202124D01*
X111778328Y-83172286D01*
X111911170Y-83172286D01*
X112246290Y-83507406D01*
X112248661Y-83503859D01*
X112248662Y-83503856D01*
X112301426Y-83376470D01*
X112328327Y-83241231D01*
X112328328Y-83241229D01*
X112328328Y-83103344D01*
X112328327Y-83103340D01*
X112301427Y-82968107D01*
X112301426Y-82968103D01*
X112294318Y-82950942D01*
X115999500Y-82950942D01*
X115999500Y-83108631D01*
X116030263Y-83263283D01*
X116030263Y-83263285D01*
X116090603Y-83408961D01*
X116090609Y-83408972D01*
X116143312Y-83487846D01*
X116178211Y-83540076D01*
X116289711Y-83651576D01*
X116367876Y-83703804D01*
X116420814Y-83739177D01*
X116420825Y-83739183D01*
X116474638Y-83761472D01*
X116566503Y-83799524D01*
X116721158Y-83830287D01*
X116721159Y-83830287D01*
X116878841Y-83830287D01*
X116878842Y-83830287D01*
X117033497Y-83799524D01*
X117179179Y-83739181D01*
X117310289Y-83651576D01*
X117421789Y-83540076D01*
X117509394Y-83408966D01*
X117569737Y-83263284D01*
X117600500Y-83108629D01*
X117600500Y-82950945D01*
X117569737Y-82796290D01*
X117549622Y-82747729D01*
X117509396Y-82650612D01*
X117509390Y-82650601D01*
X117474017Y-82597663D01*
X117421789Y-82519498D01*
X117310289Y-82407998D01*
X117217934Y-82346288D01*
X117179185Y-82320396D01*
X117179174Y-82320390D01*
X117033497Y-82260050D01*
X116878844Y-82229287D01*
X116878842Y-82229287D01*
X116721158Y-82229287D01*
X116721155Y-82229287D01*
X116566503Y-82260050D01*
X116566501Y-82260050D01*
X116420825Y-82320390D01*
X116420814Y-82320396D01*
X116289711Y-82407998D01*
X116289707Y-82408001D01*
X116178214Y-82519494D01*
X116178211Y-82519498D01*
X116090609Y-82650601D01*
X116090603Y-82650612D01*
X116030263Y-82796288D01*
X116030263Y-82796290D01*
X115999500Y-82950942D01*
X112294318Y-82950942D01*
X112248661Y-82840715D01*
X112246289Y-82837166D01*
X111911170Y-83172286D01*
X111778328Y-83172286D01*
X111778328Y-83142450D01*
X111755492Y-83087319D01*
X111713296Y-83045123D01*
X111658165Y-83022287D01*
X111598491Y-83022287D01*
X111543360Y-83045123D01*
X111501164Y-83087319D01*
X111478328Y-83142450D01*
X111315648Y-83142450D01*
X111128328Y-82955130D01*
X110911171Y-83172287D01*
X110778328Y-83172287D01*
X110778328Y-83142450D01*
X110755492Y-83087319D01*
X110713296Y-83045123D01*
X110658165Y-83022287D01*
X110598491Y-83022287D01*
X110543360Y-83045123D01*
X110501164Y-83087319D01*
X110478328Y-83142450D01*
X110315648Y-83142450D01*
X110010364Y-82837166D01*
X110007999Y-82840706D01*
X110007993Y-82840717D01*
X109955229Y-82968103D01*
X109928328Y-83103342D01*
X107806652Y-83103342D01*
X107800500Y-83092686D01*
X107707314Y-82999500D01*
X107707311Y-82999498D01*
X107707309Y-82999496D01*
X107593189Y-82933609D01*
X107593191Y-82933609D01*
X107543799Y-82920375D01*
X107465892Y-82899500D01*
X107334108Y-82899500D01*
X107256200Y-82920375D01*
X107206809Y-82933609D01*
X107092690Y-82999496D01*
X106999496Y-83092690D01*
X106933609Y-83206809D01*
X106918477Y-83263283D01*
X106899500Y-83334108D01*
X84470715Y-83334108D01*
X84579179Y-83289181D01*
X84579181Y-83289179D01*
X84579186Y-83289177D01*
X84644846Y-83245304D01*
X84666746Y-83230669D01*
X84710289Y-83201576D01*
X84821789Y-83090076D01*
X84909394Y-82958966D01*
X84937858Y-82890248D01*
X88943207Y-82890248D01*
X88946756Y-82892620D01*
X89074144Y-82945385D01*
X89209383Y-82972286D01*
X89209385Y-82972287D01*
X89347271Y-82972287D01*
X89347272Y-82972286D01*
X89482511Y-82945385D01*
X89609897Y-82892621D01*
X89609900Y-82892620D01*
X89613447Y-82890249D01*
X89613446Y-82890248D01*
X89943207Y-82890248D01*
X89946756Y-82892620D01*
X90074144Y-82945385D01*
X90209383Y-82972286D01*
X90209385Y-82972287D01*
X90347271Y-82972287D01*
X90347272Y-82972286D01*
X90482511Y-82945385D01*
X90609897Y-82892621D01*
X90609900Y-82892620D01*
X90613447Y-82890249D01*
X90278327Y-82555129D01*
X89943207Y-82890248D01*
X89613446Y-82890248D01*
X89278327Y-82555129D01*
X88943207Y-82890248D01*
X84937858Y-82890248D01*
X84969737Y-82813284D01*
X85000500Y-82658629D01*
X85000500Y-82500945D01*
X84969737Y-82346290D01*
X84939084Y-82272286D01*
X84924205Y-82236364D01*
X84910527Y-82203342D01*
X88578328Y-82203342D01*
X88578328Y-82341231D01*
X88605229Y-82476470D01*
X88657992Y-82603854D01*
X88657995Y-82603859D01*
X88660365Y-82607406D01*
X88995485Y-82272287D01*
X88965648Y-82242450D01*
X89128328Y-82242450D01*
X89128328Y-82302124D01*
X89151164Y-82357255D01*
X89193360Y-82399451D01*
X89248491Y-82422287D01*
X89308165Y-82422287D01*
X89363296Y-82399451D01*
X89405492Y-82357255D01*
X89428328Y-82302124D01*
X89428328Y-82272287D01*
X89561171Y-82272287D01*
X89778328Y-82489444D01*
X89995485Y-82272287D01*
X89965648Y-82242450D01*
X90128328Y-82242450D01*
X90128328Y-82302124D01*
X90151164Y-82357255D01*
X90193360Y-82399451D01*
X90248491Y-82422287D01*
X90308165Y-82422287D01*
X90363296Y-82399451D01*
X90405492Y-82357255D01*
X90428328Y-82302124D01*
X90428328Y-82272286D01*
X90561170Y-82272286D01*
X90896290Y-82607406D01*
X90898659Y-82603861D01*
X90919178Y-82554323D01*
X110293207Y-82554323D01*
X110628328Y-82889444D01*
X110963447Y-82554324D01*
X110963446Y-82554323D01*
X111293207Y-82554323D01*
X111628328Y-82889444D01*
X111963447Y-82554324D01*
X111959900Y-82551954D01*
X111959895Y-82551951D01*
X111832511Y-82499188D01*
X111697272Y-82472287D01*
X111559383Y-82472287D01*
X111424144Y-82499188D01*
X111296758Y-82551952D01*
X111296747Y-82551958D01*
X111293207Y-82554323D01*
X110963446Y-82554323D01*
X110959900Y-82551954D01*
X110959895Y-82551951D01*
X110832511Y-82499188D01*
X110697272Y-82472287D01*
X110559383Y-82472287D01*
X110424144Y-82499188D01*
X110296758Y-82551952D01*
X110296747Y-82551958D01*
X110293207Y-82554323D01*
X90919178Y-82554323D01*
X90919590Y-82553329D01*
X90919591Y-82553326D01*
X90951426Y-82476470D01*
X90978327Y-82341231D01*
X90978328Y-82341229D01*
X90978328Y-82203344D01*
X90978327Y-82203342D01*
X90951426Y-82068103D01*
X90898661Y-81940715D01*
X90896289Y-81937166D01*
X90561170Y-82272286D01*
X90428328Y-82272286D01*
X90428328Y-82242450D01*
X90405492Y-82187319D01*
X90363296Y-82145123D01*
X90308165Y-82122287D01*
X90248491Y-82122287D01*
X90193360Y-82145123D01*
X90151164Y-82187319D01*
X90128328Y-82242450D01*
X89965648Y-82242450D01*
X89778328Y-82055130D01*
X89561171Y-82272287D01*
X89428328Y-82272287D01*
X89428328Y-82242450D01*
X89405492Y-82187319D01*
X89363296Y-82145123D01*
X89308165Y-82122287D01*
X89248491Y-82122287D01*
X89193360Y-82145123D01*
X89151164Y-82187319D01*
X89128328Y-82242450D01*
X88965648Y-82242450D01*
X88660364Y-81937166D01*
X88657999Y-81940706D01*
X88657993Y-81940717D01*
X88605229Y-82068103D01*
X88578328Y-82203342D01*
X84910527Y-82203342D01*
X84909396Y-82200612D01*
X84909390Y-82200601D01*
X84872320Y-82145123D01*
X84821789Y-82069498D01*
X84710289Y-81957998D01*
X84658059Y-81923099D01*
X84579185Y-81870396D01*
X84579174Y-81870390D01*
X84464143Y-81822744D01*
X84433497Y-81810050D01*
X84433495Y-81810049D01*
X84278844Y-81779287D01*
X84278842Y-81779287D01*
X84121158Y-81779287D01*
X84121155Y-81779287D01*
X83966503Y-81810050D01*
X83966501Y-81810050D01*
X83820825Y-81870390D01*
X83820814Y-81870396D01*
X83689711Y-81957998D01*
X83689707Y-81958001D01*
X83578214Y-82069494D01*
X83578211Y-82069498D01*
X83490609Y-82200601D01*
X83490603Y-82200612D01*
X83430263Y-82346288D01*
X83430263Y-82346290D01*
X83399500Y-82500942D01*
X82000000Y-82500942D01*
X82000000Y-81772287D01*
X89061171Y-81772287D01*
X89278328Y-81989444D01*
X89495485Y-81772287D01*
X90061171Y-81772287D01*
X90278328Y-81989444D01*
X90495485Y-81772287D01*
X90278328Y-81555130D01*
X90061171Y-81772287D01*
X89495485Y-81772287D01*
X89278328Y-81555130D01*
X89061171Y-81772287D01*
X82000000Y-81772287D01*
X82000000Y-81203342D01*
X88578328Y-81203342D01*
X88578328Y-81341231D01*
X88605229Y-81476470D01*
X88657992Y-81603854D01*
X88657995Y-81603859D01*
X88660365Y-81607406D01*
X88995485Y-81272287D01*
X88965648Y-81242450D01*
X89128328Y-81242450D01*
X89128328Y-81302124D01*
X89151164Y-81357255D01*
X89193360Y-81399451D01*
X89248491Y-81422287D01*
X89308165Y-81422287D01*
X89363296Y-81399451D01*
X89405492Y-81357255D01*
X89428328Y-81302124D01*
X89428328Y-81272287D01*
X89561171Y-81272287D01*
X89778328Y-81489444D01*
X89995485Y-81272287D01*
X89965648Y-81242450D01*
X90128328Y-81242450D01*
X90128328Y-81302124D01*
X90151164Y-81357255D01*
X90193360Y-81399451D01*
X90248491Y-81422287D01*
X90308165Y-81422287D01*
X90363296Y-81399451D01*
X90405492Y-81357255D01*
X90428328Y-81302124D01*
X90428328Y-81272286D01*
X90561170Y-81272286D01*
X90896290Y-81607406D01*
X90898661Y-81603859D01*
X90898662Y-81603856D01*
X90951426Y-81476470D01*
X90963874Y-81413895D01*
X92077828Y-81413895D01*
X92077828Y-81545679D01*
X92093417Y-81603859D01*
X92111937Y-81672977D01*
X92177824Y-81787096D01*
X92177826Y-81787098D01*
X92177828Y-81787101D01*
X92271014Y-81880287D01*
X92271016Y-81880288D01*
X92271018Y-81880290D01*
X92385138Y-81946177D01*
X92385136Y-81946177D01*
X92385140Y-81946178D01*
X92385142Y-81946179D01*
X92512436Y-81980287D01*
X92512438Y-81980287D01*
X92644218Y-81980287D01*
X92644220Y-81980287D01*
X92771514Y-81946179D01*
X92771516Y-81946177D01*
X92771518Y-81946177D01*
X92885637Y-81880290D01*
X92885637Y-81880289D01*
X92885642Y-81880287D01*
X92978828Y-81787101D01*
X92992592Y-81763261D01*
X93038061Y-81722321D01*
X93098911Y-81715925D01*
X93151899Y-81746518D01*
X93164062Y-81763258D01*
X93177828Y-81787101D01*
X93271014Y-81880287D01*
X93271016Y-81880288D01*
X93271018Y-81880290D01*
X93385138Y-81946177D01*
X93385136Y-81946177D01*
X93385140Y-81946178D01*
X93385142Y-81946179D01*
X93512436Y-81980287D01*
X93512438Y-81980287D01*
X93644218Y-81980287D01*
X93644220Y-81980287D01*
X93771514Y-81946179D01*
X93771516Y-81946177D01*
X93771518Y-81946177D01*
X93885637Y-81880290D01*
X93885637Y-81880289D01*
X93885642Y-81880287D01*
X93978828Y-81787101D01*
X93978831Y-81787096D01*
X94044718Y-81672977D01*
X94044718Y-81672975D01*
X94044720Y-81672973D01*
X94078828Y-81545679D01*
X94078828Y-81538895D01*
X105852828Y-81538895D01*
X105852828Y-81670679D01*
X105868800Y-81730287D01*
X105886937Y-81797977D01*
X105952824Y-81912096D01*
X105952826Y-81912098D01*
X105952828Y-81912101D01*
X106046014Y-82005287D01*
X106046016Y-82005288D01*
X106046018Y-82005290D01*
X106160138Y-82071177D01*
X106160136Y-82071177D01*
X106160140Y-82071178D01*
X106160142Y-82071179D01*
X106287436Y-82105287D01*
X106287438Y-82105287D01*
X106419218Y-82105287D01*
X106419220Y-82105287D01*
X106546514Y-82071179D01*
X106546516Y-82071177D01*
X106546518Y-82071177D01*
X106660637Y-82005290D01*
X106660637Y-82005289D01*
X106660642Y-82005287D01*
X106753828Y-81912101D01*
X106772196Y-81880287D01*
X106819718Y-81797977D01*
X106819718Y-81797975D01*
X106819720Y-81797973D01*
X106853828Y-81670679D01*
X106853828Y-81538895D01*
X106819720Y-81411601D01*
X106819718Y-81411598D01*
X106819718Y-81411596D01*
X106759276Y-81306908D01*
X106759275Y-81306907D01*
X106753829Y-81297475D01*
X106753828Y-81297473D01*
X106720250Y-81263895D01*
X110177828Y-81263895D01*
X110177828Y-81395679D01*
X110184958Y-81422287D01*
X110211937Y-81522977D01*
X110277824Y-81637096D01*
X110277826Y-81637098D01*
X110277828Y-81637101D01*
X110371014Y-81730287D01*
X110371016Y-81730288D01*
X110371018Y-81730290D01*
X110485138Y-81796177D01*
X110485136Y-81796177D01*
X110485140Y-81796178D01*
X110485142Y-81796179D01*
X110612436Y-81830287D01*
X110612438Y-81830287D01*
X110744218Y-81830287D01*
X110744220Y-81830287D01*
X110871514Y-81796179D01*
X110871516Y-81796177D01*
X110871518Y-81796177D01*
X110985637Y-81730290D01*
X110985637Y-81730289D01*
X110985642Y-81730287D01*
X111078828Y-81637101D01*
X111078831Y-81637096D01*
X111144718Y-81522977D01*
X111144718Y-81522975D01*
X111144720Y-81522973D01*
X111178828Y-81395679D01*
X111178828Y-81263895D01*
X111144720Y-81136601D01*
X111144718Y-81136598D01*
X111144718Y-81136596D01*
X111078831Y-81022477D01*
X111078829Y-81022475D01*
X111078828Y-81022473D01*
X110985642Y-80929287D01*
X110985639Y-80929285D01*
X110985637Y-80929283D01*
X110871517Y-80863396D01*
X110871519Y-80863396D01*
X110822127Y-80850162D01*
X110744220Y-80829287D01*
X110612436Y-80829287D01*
X110534528Y-80850162D01*
X110485137Y-80863396D01*
X110371018Y-80929283D01*
X110277824Y-81022477D01*
X110211937Y-81136596D01*
X110202324Y-81172473D01*
X110177828Y-81263895D01*
X106720250Y-81263895D01*
X106660642Y-81204287D01*
X106660639Y-81204285D01*
X106660637Y-81204283D01*
X106546517Y-81138396D01*
X106546519Y-81138396D01*
X106497127Y-81125162D01*
X106419220Y-81104287D01*
X106287436Y-81104287D01*
X106209528Y-81125162D01*
X106160137Y-81138396D01*
X106046018Y-81204283D01*
X105952824Y-81297477D01*
X105886937Y-81411596D01*
X105869555Y-81476470D01*
X105852828Y-81538895D01*
X94078828Y-81538895D01*
X94078828Y-81413895D01*
X94044720Y-81286601D01*
X94044718Y-81286598D01*
X94044718Y-81286596D01*
X93978831Y-81172477D01*
X93978829Y-81172475D01*
X93978828Y-81172473D01*
X93885642Y-81079287D01*
X93885639Y-81079285D01*
X93885637Y-81079283D01*
X93771517Y-81013396D01*
X93771519Y-81013396D01*
X93722127Y-81000162D01*
X93644220Y-80979287D01*
X93512436Y-80979287D01*
X93434528Y-81000162D01*
X93385137Y-81013396D01*
X93271018Y-81079283D01*
X93177826Y-81172475D01*
X93164064Y-81196312D01*
X93118594Y-81237252D01*
X93057744Y-81243647D01*
X93004756Y-81213054D01*
X92992592Y-81196312D01*
X92978829Y-81172475D01*
X92978828Y-81172473D01*
X92885642Y-81079287D01*
X92885639Y-81079285D01*
X92885637Y-81079283D01*
X92771517Y-81013396D01*
X92771519Y-81013396D01*
X92722127Y-81000162D01*
X92644220Y-80979287D01*
X92512436Y-80979287D01*
X92434528Y-81000162D01*
X92385137Y-81013396D01*
X92271018Y-81079283D01*
X92177824Y-81172477D01*
X92111937Y-81286596D01*
X92093004Y-81357255D01*
X92077828Y-81413895D01*
X90963874Y-81413895D01*
X90969007Y-81388091D01*
X90969007Y-81388090D01*
X90978327Y-81341233D01*
X90978328Y-81341229D01*
X90978328Y-81203344D01*
X90978327Y-81203342D01*
X90951426Y-81068103D01*
X90898661Y-80940715D01*
X90896289Y-80937166D01*
X90561170Y-81272286D01*
X90428328Y-81272286D01*
X90428328Y-81242450D01*
X90405492Y-81187319D01*
X90363296Y-81145123D01*
X90308165Y-81122287D01*
X90248491Y-81122287D01*
X90193360Y-81145123D01*
X90151164Y-81187319D01*
X90128328Y-81242450D01*
X89965648Y-81242450D01*
X89778328Y-81055130D01*
X89561171Y-81272287D01*
X89428328Y-81272287D01*
X89428328Y-81242450D01*
X89405492Y-81187319D01*
X89363296Y-81145123D01*
X89308165Y-81122287D01*
X89248491Y-81122287D01*
X89193360Y-81145123D01*
X89151164Y-81187319D01*
X89128328Y-81242450D01*
X88965648Y-81242450D01*
X88660364Y-80937166D01*
X88657999Y-80940706D01*
X88657993Y-80940717D01*
X88605229Y-81068103D01*
X88578328Y-81203342D01*
X82000000Y-81203342D01*
X82000000Y-80654323D01*
X88943207Y-80654323D01*
X89278328Y-80989444D01*
X89613447Y-80654324D01*
X89613446Y-80654323D01*
X89943207Y-80654323D01*
X90278328Y-80989444D01*
X90613447Y-80654324D01*
X90609900Y-80651954D01*
X90609895Y-80651951D01*
X90482511Y-80599188D01*
X90347272Y-80572287D01*
X90209383Y-80572287D01*
X90074144Y-80599188D01*
X89946758Y-80651952D01*
X89946747Y-80651958D01*
X89943207Y-80654323D01*
X89613446Y-80654323D01*
X89609900Y-80651954D01*
X89609895Y-80651951D01*
X89482511Y-80599188D01*
X89347272Y-80572287D01*
X89209383Y-80572287D01*
X89074144Y-80599188D01*
X88946758Y-80651952D01*
X88946747Y-80651958D01*
X88943207Y-80654323D01*
X82000000Y-80654323D01*
X82000000Y-79950730D01*
X93627828Y-79950730D01*
X93627828Y-80108844D01*
X93668751Y-80261571D01*
X93747808Y-80398503D01*
X93859612Y-80510307D01*
X93996544Y-80589364D01*
X94149271Y-80630287D01*
X94149273Y-80630287D01*
X94307383Y-80630287D01*
X94307385Y-80630287D01*
X94460112Y-80589364D01*
X94597044Y-80510307D01*
X94708848Y-80398503D01*
X94787905Y-80261571D01*
X94828828Y-80108844D01*
X94828828Y-79950942D01*
X115999500Y-79950942D01*
X115999500Y-80108631D01*
X116030263Y-80263283D01*
X116030263Y-80263285D01*
X116090603Y-80408961D01*
X116090609Y-80408972D01*
X116143312Y-80487846D01*
X116178211Y-80540076D01*
X116289711Y-80651576D01*
X116367876Y-80703804D01*
X116420814Y-80739177D01*
X116420825Y-80739183D01*
X116474638Y-80761472D01*
X116566503Y-80799524D01*
X116721158Y-80830287D01*
X116721159Y-80830287D01*
X116878841Y-80830287D01*
X116878842Y-80830287D01*
X117033497Y-80799524D01*
X117179179Y-80739181D01*
X117310289Y-80651576D01*
X117421789Y-80540076D01*
X117509394Y-80408966D01*
X117569737Y-80263284D01*
X117600500Y-80108629D01*
X117600500Y-79950945D01*
X117569737Y-79796290D01*
X117509394Y-79650608D01*
X117509393Y-79650606D01*
X117509390Y-79650601D01*
X117474017Y-79597663D01*
X117421789Y-79519498D01*
X117310289Y-79407998D01*
X117258059Y-79373099D01*
X117179185Y-79320396D01*
X117179174Y-79320390D01*
X117033497Y-79260050D01*
X116878844Y-79229287D01*
X116878842Y-79229287D01*
X116721158Y-79229287D01*
X116721155Y-79229287D01*
X116566503Y-79260050D01*
X116566501Y-79260050D01*
X116420825Y-79320390D01*
X116420814Y-79320396D01*
X116289711Y-79407998D01*
X116289707Y-79408001D01*
X116178214Y-79519494D01*
X116178211Y-79519498D01*
X116090609Y-79650601D01*
X116090603Y-79650612D01*
X116030263Y-79796288D01*
X116030263Y-79796290D01*
X115999500Y-79950942D01*
X94828828Y-79950942D01*
X94828828Y-79950730D01*
X94787905Y-79798003D01*
X94708848Y-79661071D01*
X94597044Y-79549267D01*
X94460112Y-79470210D01*
X94307385Y-79429287D01*
X94149271Y-79429287D01*
X93996544Y-79470210D01*
X93859612Y-79549267D01*
X93747808Y-79661071D01*
X93668751Y-79798003D01*
X93627828Y-79950730D01*
X82000000Y-79950730D01*
X82000000Y-77000943D01*
X89179500Y-77000943D01*
X89179500Y-77159057D01*
X89220423Y-77311784D01*
X89299480Y-77448716D01*
X89411284Y-77560520D01*
X89548216Y-77639577D01*
X89700943Y-77680500D01*
X89700945Y-77680500D01*
X89859055Y-77680500D01*
X89859057Y-77680500D01*
X90011784Y-77639577D01*
X90148716Y-77560520D01*
X90260520Y-77448716D01*
X90339577Y-77311784D01*
X90380500Y-77159057D01*
X90380500Y-77000943D01*
X90339577Y-76848216D01*
X90260520Y-76711284D01*
X90213131Y-76663895D01*
X111877828Y-76663895D01*
X111877828Y-76795679D01*
X111891905Y-76848216D01*
X111911937Y-76922977D01*
X111977824Y-77037096D01*
X111977826Y-77037098D01*
X111977828Y-77037101D01*
X112071014Y-77130287D01*
X112071016Y-77130288D01*
X112071018Y-77130290D01*
X112185138Y-77196177D01*
X112185136Y-77196177D01*
X112185140Y-77196178D01*
X112185142Y-77196179D01*
X112312436Y-77230287D01*
X112312438Y-77230287D01*
X112444218Y-77230287D01*
X112444220Y-77230287D01*
X112571514Y-77196179D01*
X112571516Y-77196177D01*
X112571518Y-77196177D01*
X112685637Y-77130290D01*
X112685637Y-77130289D01*
X112685642Y-77130287D01*
X112778828Y-77037101D01*
X112844720Y-76922973D01*
X112878828Y-76795679D01*
X112878828Y-76663895D01*
X113327828Y-76663895D01*
X113327828Y-76795679D01*
X113341905Y-76848216D01*
X113361937Y-76922977D01*
X113427824Y-77037096D01*
X113427826Y-77037098D01*
X113427828Y-77037101D01*
X113521014Y-77130287D01*
X113521016Y-77130288D01*
X113521018Y-77130290D01*
X113635138Y-77196177D01*
X113635136Y-77196177D01*
X113635140Y-77196178D01*
X113635142Y-77196179D01*
X113762436Y-77230287D01*
X113762438Y-77230287D01*
X113894218Y-77230287D01*
X113894220Y-77230287D01*
X114021514Y-77196179D01*
X114021516Y-77196177D01*
X114021518Y-77196177D01*
X114135637Y-77130290D01*
X114135637Y-77130289D01*
X114135642Y-77130287D01*
X114228828Y-77037101D01*
X114294720Y-76922973D01*
X114328828Y-76795679D01*
X114328828Y-76663895D01*
X114294720Y-76536601D01*
X114294718Y-76536598D01*
X114294718Y-76536596D01*
X114228831Y-76422477D01*
X114228829Y-76422475D01*
X114228828Y-76422473D01*
X114135642Y-76329287D01*
X114135639Y-76329285D01*
X114135637Y-76329283D01*
X114021517Y-76263396D01*
X114021519Y-76263396D01*
X113972127Y-76250162D01*
X113894220Y-76229287D01*
X113762436Y-76229287D01*
X113684528Y-76250162D01*
X113635137Y-76263396D01*
X113521018Y-76329283D01*
X113427824Y-76422477D01*
X113361937Y-76536596D01*
X113361936Y-76536601D01*
X113327828Y-76663895D01*
X112878828Y-76663895D01*
X112844720Y-76536601D01*
X112844718Y-76536598D01*
X112844718Y-76536596D01*
X112778831Y-76422477D01*
X112778829Y-76422475D01*
X112778828Y-76422473D01*
X112685642Y-76329287D01*
X112685639Y-76329285D01*
X112685637Y-76329283D01*
X112571517Y-76263396D01*
X112571519Y-76263396D01*
X112522127Y-76250162D01*
X112444220Y-76229287D01*
X112312436Y-76229287D01*
X112234528Y-76250162D01*
X112185137Y-76263396D01*
X112071018Y-76329283D01*
X111977824Y-76422477D01*
X111911937Y-76536596D01*
X111911936Y-76536601D01*
X111877828Y-76663895D01*
X90213131Y-76663895D01*
X90148716Y-76599480D01*
X90011784Y-76520423D01*
X89859057Y-76479500D01*
X89700943Y-76479500D01*
X89548216Y-76520423D01*
X89411284Y-76599480D01*
X89299480Y-76711284D01*
X89220423Y-76848216D01*
X89179500Y-77000943D01*
X82000000Y-77000943D01*
X82000000Y-75313895D01*
X111877828Y-75313895D01*
X111877828Y-75445679D01*
X111907907Y-75557938D01*
X111911937Y-75572977D01*
X111977824Y-75687096D01*
X111977826Y-75687098D01*
X111977828Y-75687101D01*
X112071014Y-75780287D01*
X112071016Y-75780288D01*
X112071018Y-75780290D01*
X112185138Y-75846177D01*
X112185136Y-75846177D01*
X112185140Y-75846178D01*
X112185142Y-75846179D01*
X112312436Y-75880287D01*
X112312438Y-75880287D01*
X112444218Y-75880287D01*
X112444220Y-75880287D01*
X112571514Y-75846179D01*
X112571516Y-75846177D01*
X112571518Y-75846177D01*
X112685637Y-75780290D01*
X112685637Y-75780289D01*
X112685642Y-75780287D01*
X112778828Y-75687101D01*
X112844720Y-75572973D01*
X112878828Y-75445679D01*
X112878828Y-75313895D01*
X113327828Y-75313895D01*
X113327828Y-75445679D01*
X113357907Y-75557938D01*
X113361937Y-75572977D01*
X113427824Y-75687096D01*
X113427826Y-75687098D01*
X113427828Y-75687101D01*
X113521014Y-75780287D01*
X113521016Y-75780288D01*
X113521018Y-75780290D01*
X113635138Y-75846177D01*
X113635136Y-75846177D01*
X113635140Y-75846178D01*
X113635142Y-75846179D01*
X113762436Y-75880287D01*
X113762438Y-75880287D01*
X113894218Y-75880287D01*
X113894220Y-75880287D01*
X114021514Y-75846179D01*
X114021516Y-75846177D01*
X114021518Y-75846177D01*
X114135637Y-75780290D01*
X114135637Y-75780289D01*
X114135642Y-75780287D01*
X114228828Y-75687101D01*
X114294720Y-75572973D01*
X114328828Y-75445679D01*
X114328828Y-75313895D01*
X114294720Y-75186601D01*
X114294718Y-75186598D01*
X114294718Y-75186596D01*
X114228831Y-75072477D01*
X114228829Y-75072475D01*
X114228828Y-75072473D01*
X114135642Y-74979287D01*
X114135639Y-74979285D01*
X114135637Y-74979283D01*
X114021517Y-74913396D01*
X114021519Y-74913396D01*
X113972127Y-74900162D01*
X113894220Y-74879287D01*
X113762436Y-74879287D01*
X113684528Y-74900162D01*
X113635137Y-74913396D01*
X113521018Y-74979283D01*
X113427824Y-75072477D01*
X113361937Y-75186596D01*
X113361936Y-75186601D01*
X113327828Y-75313895D01*
X112878828Y-75313895D01*
X112844720Y-75186601D01*
X112844718Y-75186598D01*
X112844718Y-75186596D01*
X112778831Y-75072477D01*
X112778829Y-75072475D01*
X112778828Y-75072473D01*
X112685642Y-74979287D01*
X112685639Y-74979285D01*
X112685637Y-74979283D01*
X112571517Y-74913396D01*
X112571519Y-74913396D01*
X112522127Y-74900162D01*
X112444220Y-74879287D01*
X112312436Y-74879287D01*
X112234528Y-74900162D01*
X112185137Y-74913396D01*
X112071018Y-74979283D01*
X111977824Y-75072477D01*
X111911937Y-75186596D01*
X111911936Y-75186601D01*
X111877828Y-75313895D01*
X82000000Y-75313895D01*
X82000000Y-73713895D01*
X83977828Y-73713895D01*
X83977828Y-73845679D01*
X84007907Y-73957938D01*
X84011937Y-73972977D01*
X84077824Y-74087096D01*
X84077826Y-74087098D01*
X84077828Y-74087101D01*
X84171014Y-74180287D01*
X84171016Y-74180288D01*
X84171018Y-74180290D01*
X84285138Y-74246177D01*
X84285136Y-74246177D01*
X84285140Y-74246178D01*
X84285142Y-74246179D01*
X84412436Y-74280287D01*
X84412438Y-74280287D01*
X84544218Y-74280287D01*
X84544220Y-74280287D01*
X84671514Y-74246179D01*
X84671516Y-74246177D01*
X84671518Y-74246177D01*
X84785637Y-74180290D01*
X84785637Y-74180289D01*
X84785642Y-74180287D01*
X84878828Y-74087101D01*
X84915851Y-74022976D01*
X84944718Y-73972977D01*
X84944718Y-73972975D01*
X84944720Y-73972973D01*
X84978828Y-73845679D01*
X84978828Y-73713895D01*
X85377828Y-73713895D01*
X85377828Y-73845679D01*
X85407907Y-73957938D01*
X85411937Y-73972977D01*
X85477824Y-74087096D01*
X85477826Y-74087098D01*
X85477828Y-74087101D01*
X85571014Y-74180287D01*
X85571016Y-74180288D01*
X85571018Y-74180290D01*
X85685138Y-74246177D01*
X85685136Y-74246177D01*
X85685140Y-74246178D01*
X85685142Y-74246179D01*
X85812436Y-74280287D01*
X85812438Y-74280287D01*
X85944218Y-74280287D01*
X85944220Y-74280287D01*
X86071514Y-74246179D01*
X86071516Y-74246177D01*
X86071518Y-74246177D01*
X86185637Y-74180290D01*
X86185637Y-74180289D01*
X86185642Y-74180287D01*
X86278828Y-74087101D01*
X86315851Y-74022976D01*
X86344718Y-73972977D01*
X86344718Y-73972975D01*
X86344720Y-73972973D01*
X86378828Y-73845679D01*
X86378828Y-73763895D01*
X86727828Y-73763895D01*
X86727828Y-73895679D01*
X86748539Y-73972973D01*
X86761937Y-74022977D01*
X86827824Y-74137096D01*
X86827826Y-74137098D01*
X86827828Y-74137101D01*
X86921014Y-74230287D01*
X86921016Y-74230288D01*
X86921018Y-74230290D01*
X87035138Y-74296177D01*
X87035136Y-74296177D01*
X87035140Y-74296178D01*
X87035142Y-74296179D01*
X87162436Y-74330287D01*
X87162438Y-74330287D01*
X87294218Y-74330287D01*
X87294220Y-74330287D01*
X87421514Y-74296179D01*
X87421516Y-74296177D01*
X87421518Y-74296177D01*
X87535637Y-74230290D01*
X87535637Y-74230289D01*
X87535642Y-74230287D01*
X87628828Y-74137101D01*
X87694720Y-74022973D01*
X87697152Y-74013895D01*
X111877828Y-74013895D01*
X111877828Y-74145679D01*
X111900499Y-74230290D01*
X111911937Y-74272977D01*
X111977824Y-74387096D01*
X111977826Y-74387098D01*
X111977828Y-74387101D01*
X112071014Y-74480287D01*
X112071016Y-74480288D01*
X112071018Y-74480290D01*
X112185138Y-74546177D01*
X112185136Y-74546177D01*
X112185140Y-74546178D01*
X112185142Y-74546179D01*
X112312436Y-74580287D01*
X112312438Y-74580287D01*
X112444218Y-74580287D01*
X112444220Y-74580287D01*
X112571514Y-74546179D01*
X112571516Y-74546177D01*
X112571518Y-74546177D01*
X112685637Y-74480290D01*
X112685637Y-74480289D01*
X112685642Y-74480287D01*
X112778828Y-74387101D01*
X112831323Y-74296177D01*
X112844718Y-74272977D01*
X112844718Y-74272975D01*
X112844720Y-74272973D01*
X112878828Y-74145679D01*
X112878828Y-74013895D01*
X113327828Y-74013895D01*
X113327828Y-74145679D01*
X113350499Y-74230290D01*
X113361937Y-74272977D01*
X113427824Y-74387096D01*
X113427826Y-74387098D01*
X113427828Y-74387101D01*
X113521014Y-74480287D01*
X113521016Y-74480288D01*
X113521018Y-74480290D01*
X113635138Y-74546177D01*
X113635136Y-74546177D01*
X113635140Y-74546178D01*
X113635142Y-74546179D01*
X113762436Y-74580287D01*
X113762438Y-74580287D01*
X113894218Y-74580287D01*
X113894220Y-74580287D01*
X114021514Y-74546179D01*
X114021516Y-74546177D01*
X114021518Y-74546177D01*
X114135637Y-74480290D01*
X114135637Y-74480289D01*
X114135642Y-74480287D01*
X114228828Y-74387101D01*
X114281323Y-74296177D01*
X114294718Y-74272977D01*
X114294718Y-74272975D01*
X114294720Y-74272973D01*
X114328828Y-74145679D01*
X114328828Y-74013895D01*
X114294720Y-73886601D01*
X114294718Y-73886598D01*
X114294718Y-73886596D01*
X114228831Y-73772477D01*
X114228829Y-73772475D01*
X114228828Y-73772473D01*
X114135642Y-73679287D01*
X114135639Y-73679285D01*
X114135637Y-73679283D01*
X114021517Y-73613396D01*
X114021519Y-73613396D01*
X113972127Y-73600162D01*
X113894220Y-73579287D01*
X113762436Y-73579287D01*
X113684528Y-73600162D01*
X113635137Y-73613396D01*
X113521018Y-73679283D01*
X113427824Y-73772477D01*
X113361937Y-73886596D01*
X113342867Y-73957765D01*
X113327828Y-74013895D01*
X112878828Y-74013895D01*
X112844720Y-73886601D01*
X112844718Y-73886598D01*
X112844718Y-73886596D01*
X112778831Y-73772477D01*
X112778829Y-73772475D01*
X112778828Y-73772473D01*
X112685642Y-73679287D01*
X112685639Y-73679285D01*
X112685637Y-73679283D01*
X112571517Y-73613396D01*
X112571519Y-73613396D01*
X112522127Y-73600162D01*
X112444220Y-73579287D01*
X112312436Y-73579287D01*
X112234528Y-73600162D01*
X112185137Y-73613396D01*
X112071018Y-73679283D01*
X111977824Y-73772477D01*
X111911937Y-73886596D01*
X111892867Y-73957765D01*
X111877828Y-74013895D01*
X87697152Y-74013895D01*
X87728828Y-73895679D01*
X87728828Y-73763895D01*
X87694720Y-73636601D01*
X87694718Y-73636598D01*
X87694718Y-73636596D01*
X87628831Y-73522477D01*
X87628829Y-73522475D01*
X87628828Y-73522473D01*
X87535642Y-73429287D01*
X87535639Y-73429285D01*
X87535637Y-73429283D01*
X87421517Y-73363396D01*
X87421519Y-73363396D01*
X87372127Y-73350162D01*
X87294220Y-73329287D01*
X87162436Y-73329287D01*
X87084528Y-73350162D01*
X87035137Y-73363396D01*
X86921018Y-73429283D01*
X86827824Y-73522477D01*
X86761937Y-73636596D01*
X86750498Y-73679287D01*
X86727828Y-73763895D01*
X86378828Y-73763895D01*
X86378828Y-73713895D01*
X86344720Y-73586601D01*
X86344718Y-73586598D01*
X86344718Y-73586596D01*
X86278831Y-73472477D01*
X86278829Y-73472475D01*
X86278828Y-73472473D01*
X86185642Y-73379287D01*
X86185639Y-73379285D01*
X86185637Y-73379283D01*
X86071517Y-73313396D01*
X86071519Y-73313396D01*
X86022127Y-73300162D01*
X85944220Y-73279287D01*
X85812436Y-73279287D01*
X85734528Y-73300162D01*
X85685137Y-73313396D01*
X85571018Y-73379283D01*
X85477824Y-73472477D01*
X85411937Y-73586596D01*
X85404756Y-73613396D01*
X85377828Y-73713895D01*
X84978828Y-73713895D01*
X84944720Y-73586601D01*
X84944718Y-73586598D01*
X84944718Y-73586596D01*
X84878831Y-73472477D01*
X84878829Y-73472475D01*
X84878828Y-73472473D01*
X84785642Y-73379287D01*
X84785639Y-73379285D01*
X84785637Y-73379283D01*
X84671517Y-73313396D01*
X84671519Y-73313396D01*
X84622127Y-73300162D01*
X84544220Y-73279287D01*
X84412436Y-73279287D01*
X84334528Y-73300162D01*
X84285137Y-73313396D01*
X84171018Y-73379283D01*
X84077824Y-73472477D01*
X84011937Y-73586596D01*
X84004756Y-73613396D01*
X83977828Y-73713895D01*
X82000000Y-73713895D01*
X82000000Y-72313895D01*
X83977828Y-72313895D01*
X83977828Y-72445679D01*
X84007907Y-72557938D01*
X84011937Y-72572977D01*
X84077824Y-72687096D01*
X84077826Y-72687098D01*
X84077828Y-72687101D01*
X84171014Y-72780287D01*
X84171016Y-72780288D01*
X84171018Y-72780290D01*
X84285138Y-72846177D01*
X84285136Y-72846177D01*
X84285140Y-72846178D01*
X84285142Y-72846179D01*
X84412436Y-72880287D01*
X84412438Y-72880287D01*
X84544218Y-72880287D01*
X84544220Y-72880287D01*
X84671514Y-72846179D01*
X84671516Y-72846177D01*
X84671518Y-72846177D01*
X84785637Y-72780290D01*
X84785637Y-72780289D01*
X84785642Y-72780287D01*
X84878828Y-72687101D01*
X84944720Y-72572973D01*
X84978828Y-72445679D01*
X84978828Y-72313895D01*
X85377828Y-72313895D01*
X85377828Y-72445679D01*
X85407907Y-72557938D01*
X85411937Y-72572977D01*
X85477824Y-72687096D01*
X85477826Y-72687098D01*
X85477828Y-72687101D01*
X85571014Y-72780287D01*
X85571016Y-72780288D01*
X85571018Y-72780290D01*
X85685138Y-72846177D01*
X85685136Y-72846177D01*
X85685140Y-72846178D01*
X85685142Y-72846179D01*
X85812436Y-72880287D01*
X85812438Y-72880287D01*
X85944218Y-72880287D01*
X85944220Y-72880287D01*
X86071514Y-72846179D01*
X86071516Y-72846177D01*
X86071518Y-72846177D01*
X86185637Y-72780290D01*
X86185637Y-72780289D01*
X86185642Y-72780287D01*
X86278828Y-72687101D01*
X86344720Y-72572973D01*
X86378828Y-72445679D01*
X86378828Y-72313895D01*
X86727828Y-72313895D01*
X86727828Y-72445679D01*
X86757907Y-72557938D01*
X86761937Y-72572977D01*
X86827824Y-72687096D01*
X86827826Y-72687098D01*
X86827828Y-72687101D01*
X86921014Y-72780287D01*
X86921016Y-72780288D01*
X86921018Y-72780290D01*
X87035138Y-72846177D01*
X87035136Y-72846177D01*
X87035140Y-72846178D01*
X87035142Y-72846179D01*
X87162436Y-72880287D01*
X87162438Y-72880287D01*
X87294218Y-72880287D01*
X87294220Y-72880287D01*
X87421514Y-72846179D01*
X87421516Y-72846177D01*
X87421518Y-72846177D01*
X87535637Y-72780290D01*
X87535637Y-72780289D01*
X87535642Y-72780287D01*
X87628828Y-72687101D01*
X87694720Y-72572973D01*
X87728828Y-72445679D01*
X87728828Y-72400730D01*
X109677828Y-72400730D01*
X109677828Y-72558844D01*
X109718751Y-72711571D01*
X109797808Y-72848503D01*
X109909612Y-72960307D01*
X110046544Y-73039364D01*
X110199271Y-73080287D01*
X110199273Y-73080287D01*
X110357383Y-73080287D01*
X110357385Y-73080287D01*
X110510112Y-73039364D01*
X110647044Y-72960307D01*
X110758848Y-72848503D01*
X110837905Y-72711571D01*
X110878828Y-72558844D01*
X110878828Y-72400730D01*
X110837905Y-72248003D01*
X110758848Y-72111071D01*
X110647044Y-71999267D01*
X110510112Y-71920210D01*
X110357385Y-71879287D01*
X110199271Y-71879287D01*
X110046544Y-71920210D01*
X109909612Y-71999267D01*
X109797808Y-72111071D01*
X109718751Y-72248003D01*
X109677828Y-72400730D01*
X87728828Y-72400730D01*
X87728828Y-72313895D01*
X87694720Y-72186601D01*
X87694718Y-72186598D01*
X87694718Y-72186596D01*
X87628831Y-72072477D01*
X87628829Y-72072475D01*
X87628828Y-72072473D01*
X87535642Y-71979287D01*
X87535639Y-71979285D01*
X87535637Y-71979283D01*
X87421517Y-71913396D01*
X87421519Y-71913396D01*
X87372127Y-71900162D01*
X87294220Y-71879287D01*
X87162436Y-71879287D01*
X87084528Y-71900162D01*
X87035137Y-71913396D01*
X86921018Y-71979283D01*
X86827824Y-72072477D01*
X86761937Y-72186596D01*
X86742867Y-72257765D01*
X86727828Y-72313895D01*
X86378828Y-72313895D01*
X86344720Y-72186601D01*
X86344718Y-72186598D01*
X86344718Y-72186596D01*
X86278831Y-72072477D01*
X86278829Y-72072475D01*
X86278828Y-72072473D01*
X86185642Y-71979287D01*
X86185639Y-71979285D01*
X86185637Y-71979283D01*
X86071517Y-71913396D01*
X86071519Y-71913396D01*
X86022127Y-71900162D01*
X85944220Y-71879287D01*
X85812436Y-71879287D01*
X85734528Y-71900162D01*
X85685137Y-71913396D01*
X85571018Y-71979283D01*
X85477824Y-72072477D01*
X85411937Y-72186596D01*
X85392867Y-72257765D01*
X85377828Y-72313895D01*
X84978828Y-72313895D01*
X84944720Y-72186601D01*
X84944718Y-72186598D01*
X84944718Y-72186596D01*
X84878831Y-72072477D01*
X84878829Y-72072475D01*
X84878828Y-72072473D01*
X84785642Y-71979287D01*
X84785639Y-71979285D01*
X84785637Y-71979283D01*
X84671517Y-71913396D01*
X84671519Y-71913396D01*
X84622127Y-71900162D01*
X84544220Y-71879287D01*
X84412436Y-71879287D01*
X84334528Y-71900162D01*
X84285137Y-71913396D01*
X84171018Y-71979283D01*
X84077824Y-72072477D01*
X84011937Y-72186596D01*
X83992867Y-72257765D01*
X83977828Y-72313895D01*
X82000000Y-72313895D01*
X82000000Y-69157748D01*
X110603207Y-69157748D01*
X110606756Y-69160120D01*
X110734144Y-69212885D01*
X110869383Y-69239786D01*
X110869385Y-69239787D01*
X111007271Y-69239787D01*
X111007272Y-69239786D01*
X111142511Y-69212885D01*
X111269897Y-69160121D01*
X111269900Y-69160120D01*
X111273447Y-69157749D01*
X111273446Y-69157748D01*
X111603207Y-69157748D01*
X111606756Y-69160120D01*
X111734144Y-69212885D01*
X111869383Y-69239786D01*
X111869385Y-69239787D01*
X112007271Y-69239787D01*
X112007272Y-69239786D01*
X112142511Y-69212885D01*
X112269897Y-69160121D01*
X112269900Y-69160120D01*
X112273447Y-69157749D01*
X111938327Y-68822629D01*
X111603207Y-69157748D01*
X111273446Y-69157748D01*
X110938327Y-68822629D01*
X110603207Y-69157748D01*
X82000000Y-69157748D01*
X82000000Y-68300730D01*
X106877828Y-68300730D01*
X106877828Y-68458844D01*
X106918751Y-68611571D01*
X106997808Y-68748503D01*
X107109612Y-68860307D01*
X107246544Y-68939364D01*
X107399271Y-68980287D01*
X107399273Y-68980287D01*
X107557383Y-68980287D01*
X107557385Y-68980287D01*
X107710112Y-68939364D01*
X107847044Y-68860307D01*
X107958848Y-68748503D01*
X108037905Y-68611571D01*
X108075613Y-68470842D01*
X110238328Y-68470842D01*
X110238328Y-68608731D01*
X110265229Y-68743970D01*
X110317992Y-68871354D01*
X110317995Y-68871359D01*
X110320365Y-68874906D01*
X110655485Y-68539787D01*
X110625648Y-68509950D01*
X110788328Y-68509950D01*
X110788328Y-68569624D01*
X110811164Y-68624755D01*
X110853360Y-68666951D01*
X110908491Y-68689787D01*
X110968165Y-68689787D01*
X111023296Y-68666951D01*
X111065492Y-68624755D01*
X111088328Y-68569624D01*
X111088328Y-68539787D01*
X111221171Y-68539787D01*
X111438328Y-68756944D01*
X111655485Y-68539787D01*
X111625648Y-68509950D01*
X111788328Y-68509950D01*
X111788328Y-68569624D01*
X111811164Y-68624755D01*
X111853360Y-68666951D01*
X111908491Y-68689787D01*
X111968165Y-68689787D01*
X112023296Y-68666951D01*
X112065492Y-68624755D01*
X112088328Y-68569624D01*
X112088328Y-68539786D01*
X112221170Y-68539786D01*
X112556290Y-68874906D01*
X112558661Y-68871359D01*
X112558662Y-68871356D01*
X112611426Y-68743970D01*
X112638327Y-68608731D01*
X112638328Y-68608729D01*
X112638328Y-68470844D01*
X112638327Y-68470842D01*
X112611426Y-68335603D01*
X112558661Y-68208215D01*
X112556289Y-68204666D01*
X112221170Y-68539786D01*
X112088328Y-68539786D01*
X112088328Y-68509950D01*
X112065492Y-68454819D01*
X112023296Y-68412623D01*
X111968165Y-68389787D01*
X111908491Y-68389787D01*
X111853360Y-68412623D01*
X111811164Y-68454819D01*
X111788328Y-68509950D01*
X111625648Y-68509950D01*
X111438328Y-68322630D01*
X111221171Y-68539787D01*
X111088328Y-68539787D01*
X111088328Y-68509950D01*
X111065492Y-68454819D01*
X111023296Y-68412623D01*
X110968165Y-68389787D01*
X110908491Y-68389787D01*
X110853360Y-68412623D01*
X110811164Y-68454819D01*
X110788328Y-68509950D01*
X110625648Y-68509950D01*
X110320364Y-68204666D01*
X110317999Y-68208206D01*
X110317993Y-68208217D01*
X110265229Y-68335603D01*
X110238328Y-68470842D01*
X108075613Y-68470842D01*
X108078828Y-68458844D01*
X108078828Y-68300730D01*
X108037905Y-68148003D01*
X107958848Y-68011071D01*
X107847044Y-67899267D01*
X107710112Y-67820210D01*
X107557385Y-67779287D01*
X107399271Y-67779287D01*
X107246544Y-67820210D01*
X107109612Y-67899267D01*
X106997808Y-68011071D01*
X106918751Y-68148003D01*
X106877828Y-68300730D01*
X82000000Y-68300730D01*
X82000000Y-67663895D01*
X108177828Y-67663895D01*
X108177828Y-67795679D01*
X108198106Y-67871359D01*
X108211937Y-67922977D01*
X108277824Y-68037096D01*
X108277826Y-68037098D01*
X108277828Y-68037101D01*
X108371014Y-68130287D01*
X108371016Y-68130288D01*
X108371018Y-68130290D01*
X108485138Y-68196177D01*
X108485136Y-68196177D01*
X108485140Y-68196178D01*
X108485142Y-68196179D01*
X108612436Y-68230287D01*
X108612438Y-68230287D01*
X108744218Y-68230287D01*
X108744220Y-68230287D01*
X108871514Y-68196179D01*
X108871516Y-68196177D01*
X108871518Y-68196177D01*
X108985637Y-68130290D01*
X108985637Y-68130289D01*
X108985642Y-68130287D01*
X109076142Y-68039787D01*
X110721171Y-68039787D01*
X110938328Y-68256944D01*
X111155485Y-68039787D01*
X111721171Y-68039787D01*
X111938328Y-68256944D01*
X112155485Y-68039787D01*
X111938328Y-67822630D01*
X111721171Y-68039787D01*
X111155485Y-68039787D01*
X110938328Y-67822630D01*
X110721171Y-68039787D01*
X109076142Y-68039787D01*
X109078828Y-68037101D01*
X109144720Y-67922973D01*
X109178828Y-67795679D01*
X109178828Y-67663895D01*
X109144720Y-67536601D01*
X109144718Y-67536598D01*
X109144718Y-67536596D01*
X109132526Y-67515479D01*
X109106755Y-67470842D01*
X110238328Y-67470842D01*
X110238328Y-67608731D01*
X110265229Y-67743970D01*
X110317992Y-67871354D01*
X110317995Y-67871359D01*
X110320365Y-67874906D01*
X110655485Y-67539787D01*
X110625648Y-67509950D01*
X110788328Y-67509950D01*
X110788328Y-67569624D01*
X110811164Y-67624755D01*
X110853360Y-67666951D01*
X110908491Y-67689787D01*
X110968165Y-67689787D01*
X111023296Y-67666951D01*
X111065492Y-67624755D01*
X111088328Y-67569624D01*
X111088328Y-67539787D01*
X111221171Y-67539787D01*
X111438328Y-67756944D01*
X111655485Y-67539787D01*
X111625648Y-67509950D01*
X111788328Y-67509950D01*
X111788328Y-67569624D01*
X111811164Y-67624755D01*
X111853360Y-67666951D01*
X111908491Y-67689787D01*
X111968165Y-67689787D01*
X112023296Y-67666951D01*
X112065492Y-67624755D01*
X112088328Y-67569624D01*
X112088328Y-67539786D01*
X112221170Y-67539786D01*
X112556290Y-67874906D01*
X112558661Y-67871359D01*
X112558662Y-67871356D01*
X112611426Y-67743970D01*
X112638327Y-67608731D01*
X112638328Y-67608729D01*
X112638328Y-67521155D01*
X115999500Y-67521155D01*
X115999500Y-67678844D01*
X116019480Y-67779287D01*
X116028101Y-67822630D01*
X116030263Y-67833496D01*
X116030263Y-67833498D01*
X116090603Y-67979174D01*
X116090609Y-67979185D01*
X116129305Y-68037096D01*
X116178211Y-68110289D01*
X116289711Y-68221789D01*
X116367876Y-68274017D01*
X116420814Y-68309390D01*
X116420825Y-68309396D01*
X116474638Y-68331685D01*
X116566503Y-68369737D01*
X116721158Y-68400500D01*
X116721159Y-68400500D01*
X116878841Y-68400500D01*
X116878842Y-68400500D01*
X117033497Y-68369737D01*
X117179179Y-68309394D01*
X117310289Y-68221789D01*
X117421789Y-68110289D01*
X117509394Y-67979179D01*
X117569737Y-67833497D01*
X117600500Y-67678842D01*
X117600500Y-67521158D01*
X117569737Y-67366503D01*
X117509394Y-67220821D01*
X117509393Y-67220819D01*
X117509390Y-67220814D01*
X117474017Y-67167876D01*
X117421789Y-67089711D01*
X117310289Y-66978211D01*
X117258059Y-66943312D01*
X117179185Y-66890609D01*
X117179174Y-66890603D01*
X117033497Y-66830263D01*
X116878844Y-66799500D01*
X116878842Y-66799500D01*
X116721158Y-66799500D01*
X116721155Y-66799500D01*
X116566503Y-66830263D01*
X116566501Y-66830263D01*
X116420825Y-66890603D01*
X116420814Y-66890609D01*
X116289711Y-66978211D01*
X116289707Y-66978214D01*
X116178214Y-67089707D01*
X116178211Y-67089711D01*
X116090609Y-67220814D01*
X116090603Y-67220825D01*
X116030263Y-67366501D01*
X116030263Y-67366503D01*
X115999500Y-67521155D01*
X112638328Y-67521155D01*
X112638328Y-67470844D01*
X112638327Y-67470842D01*
X112611426Y-67335603D01*
X112558661Y-67208215D01*
X112556289Y-67204666D01*
X112221170Y-67539786D01*
X112088328Y-67539786D01*
X112088328Y-67509950D01*
X112065492Y-67454819D01*
X112023296Y-67412623D01*
X111968165Y-67389787D01*
X111908491Y-67389787D01*
X111853360Y-67412623D01*
X111811164Y-67454819D01*
X111788328Y-67509950D01*
X111625648Y-67509950D01*
X111438328Y-67322630D01*
X111221171Y-67539787D01*
X111088328Y-67539787D01*
X111088328Y-67509950D01*
X111065492Y-67454819D01*
X111023296Y-67412623D01*
X110968165Y-67389787D01*
X110908491Y-67389787D01*
X110853360Y-67412623D01*
X110811164Y-67454819D01*
X110788328Y-67509950D01*
X110625648Y-67509950D01*
X110320364Y-67204666D01*
X110317999Y-67208206D01*
X110317993Y-67208217D01*
X110265229Y-67335603D01*
X110238328Y-67470842D01*
X109106755Y-67470842D01*
X109078831Y-67422477D01*
X109078829Y-67422475D01*
X109078828Y-67422473D01*
X108985642Y-67329287D01*
X108985639Y-67329285D01*
X108985637Y-67329283D01*
X108871517Y-67263396D01*
X108871519Y-67263396D01*
X108822127Y-67250162D01*
X108744220Y-67229287D01*
X108612436Y-67229287D01*
X108534528Y-67250162D01*
X108485137Y-67263396D01*
X108371018Y-67329283D01*
X108277824Y-67422477D01*
X108211937Y-67536596D01*
X108192867Y-67607765D01*
X108177828Y-67663895D01*
X82000000Y-67663895D01*
X82000000Y-66921823D01*
X110603207Y-66921823D01*
X110938328Y-67256944D01*
X111273447Y-66921824D01*
X111273446Y-66921823D01*
X111603207Y-66921823D01*
X111938328Y-67256944D01*
X112273447Y-66921824D01*
X112269900Y-66919454D01*
X112269895Y-66919451D01*
X112142511Y-66866688D01*
X112007272Y-66839787D01*
X111869383Y-66839787D01*
X111734144Y-66866688D01*
X111606758Y-66919452D01*
X111606747Y-66919458D01*
X111603207Y-66921823D01*
X111273446Y-66921823D01*
X111269900Y-66919454D01*
X111269895Y-66919451D01*
X111142511Y-66866688D01*
X111007272Y-66839787D01*
X110869383Y-66839787D01*
X110734144Y-66866688D01*
X110606758Y-66919452D01*
X110606747Y-66919458D01*
X110603207Y-66921823D01*
X82000000Y-66921823D01*
X82000000Y-65666532D01*
X83019500Y-65666532D01*
X83019500Y-65873467D01*
X83059869Y-66076418D01*
X83139058Y-66267597D01*
X83209470Y-66372977D01*
X83254023Y-66439655D01*
X83400345Y-66585977D01*
X83572402Y-66700941D01*
X83763580Y-66780130D01*
X83966535Y-66820500D01*
X83966536Y-66820500D01*
X84173464Y-66820500D01*
X84173465Y-66820500D01*
X84376420Y-66780130D01*
X84567598Y-66700941D01*
X84739655Y-66585977D01*
X84885977Y-66439655D01*
X85000941Y-66267598D01*
X85064607Y-66113895D01*
X107427828Y-66113895D01*
X107427828Y-66245679D01*
X107457907Y-66357938D01*
X107461937Y-66372977D01*
X107527824Y-66487096D01*
X107527826Y-66487098D01*
X107527828Y-66487101D01*
X107621014Y-66580287D01*
X107621016Y-66580288D01*
X107621018Y-66580290D01*
X107735138Y-66646177D01*
X107735136Y-66646177D01*
X107735140Y-66646178D01*
X107735142Y-66646179D01*
X107862436Y-66680287D01*
X107862438Y-66680287D01*
X107994218Y-66680287D01*
X107994220Y-66680287D01*
X108121514Y-66646179D01*
X108121516Y-66646177D01*
X108121518Y-66646177D01*
X108235637Y-66580290D01*
X108235637Y-66580289D01*
X108235642Y-66580287D01*
X108328828Y-66487101D01*
X108356221Y-66439655D01*
X108394718Y-66372977D01*
X108394718Y-66372975D01*
X108394720Y-66372973D01*
X108428828Y-66245679D01*
X108428828Y-66113895D01*
X108394720Y-65986601D01*
X108394718Y-65986598D01*
X108394718Y-65986596D01*
X108328831Y-65872477D01*
X108328829Y-65872475D01*
X108328828Y-65872473D01*
X108235642Y-65779287D01*
X108235639Y-65779285D01*
X108235637Y-65779283D01*
X108121517Y-65713396D01*
X108121519Y-65713396D01*
X108107050Y-65709519D01*
X107994220Y-65679287D01*
X107862436Y-65679287D01*
X107784528Y-65700162D01*
X107735137Y-65713396D01*
X107621018Y-65779283D01*
X107527824Y-65872477D01*
X107461937Y-65986596D01*
X107461936Y-65986601D01*
X107427828Y-66113895D01*
X85064607Y-66113895D01*
X85080130Y-66076420D01*
X85120500Y-65873465D01*
X85120500Y-65666535D01*
X85110029Y-65613895D01*
X109627828Y-65613895D01*
X109627828Y-65745679D01*
X109657907Y-65857938D01*
X109661937Y-65872977D01*
X109727824Y-65987096D01*
X109727826Y-65987098D01*
X109727828Y-65987101D01*
X109821014Y-66080287D01*
X109821016Y-66080288D01*
X109821018Y-66080290D01*
X109935138Y-66146177D01*
X109935136Y-66146177D01*
X109935140Y-66146178D01*
X109935142Y-66146179D01*
X110062436Y-66180287D01*
X110062438Y-66180287D01*
X110194218Y-66180287D01*
X110194220Y-66180287D01*
X110321514Y-66146179D01*
X110321516Y-66146177D01*
X110321518Y-66146177D01*
X110435637Y-66080290D01*
X110435637Y-66080289D01*
X110435642Y-66080287D01*
X110528828Y-65987101D01*
X110594720Y-65872973D01*
X110628828Y-65745679D01*
X110628828Y-65613895D01*
X110594720Y-65486601D01*
X110594718Y-65486598D01*
X110594718Y-65486596D01*
X110528831Y-65372477D01*
X110528829Y-65372475D01*
X110528828Y-65372473D01*
X110435642Y-65279287D01*
X110435639Y-65279285D01*
X110435637Y-65279283D01*
X110321517Y-65213396D01*
X110321519Y-65213396D01*
X110272127Y-65200162D01*
X110194220Y-65179287D01*
X110062436Y-65179287D01*
X109984528Y-65200162D01*
X109935137Y-65213396D01*
X109821018Y-65279283D01*
X109727824Y-65372477D01*
X109661937Y-65486596D01*
X109661936Y-65486601D01*
X109627828Y-65613895D01*
X85110029Y-65613895D01*
X85080130Y-65463580D01*
X85000941Y-65272402D01*
X84885977Y-65100345D01*
X84739655Y-64954023D01*
X84567598Y-64839059D01*
X84567599Y-64839059D01*
X84567597Y-64839058D01*
X84376418Y-64759869D01*
X84173467Y-64719500D01*
X84173465Y-64719500D01*
X83966535Y-64719500D01*
X83966532Y-64719500D01*
X83763581Y-64759869D01*
X83572402Y-64839058D01*
X83400348Y-64954020D01*
X83254020Y-65100348D01*
X83139058Y-65272402D01*
X83059869Y-65463581D01*
X83019500Y-65666532D01*
X82000000Y-65666532D01*
X82000000Y-63126532D01*
X83019500Y-63126532D01*
X83019500Y-63333467D01*
X83059869Y-63536418D01*
X83139058Y-63727597D01*
X83254020Y-63899651D01*
X83254023Y-63899655D01*
X83400345Y-64045977D01*
X83572402Y-64160941D01*
X83763580Y-64240130D01*
X83966535Y-64280500D01*
X83966536Y-64280500D01*
X84173464Y-64280500D01*
X84173465Y-64280500D01*
X84376420Y-64240130D01*
X84567598Y-64160941D01*
X84739655Y-64045977D01*
X84885977Y-63899655D01*
X84929774Y-63834108D01*
X86827828Y-63834108D01*
X86827828Y-63965892D01*
X86831129Y-63978211D01*
X86861937Y-64093190D01*
X86927824Y-64207309D01*
X86927826Y-64207311D01*
X86927828Y-64207314D01*
X87021014Y-64300500D01*
X87021016Y-64300501D01*
X87021018Y-64300503D01*
X87135138Y-64366390D01*
X87135136Y-64366390D01*
X87135140Y-64366391D01*
X87135142Y-64366392D01*
X87262436Y-64400500D01*
X87262438Y-64400500D01*
X87394218Y-64400500D01*
X87394220Y-64400500D01*
X87521514Y-64366392D01*
X87521516Y-64366390D01*
X87521518Y-64366390D01*
X87635637Y-64300503D01*
X87635637Y-64300502D01*
X87635642Y-64300500D01*
X87728828Y-64207314D01*
X87728831Y-64207309D01*
X87753896Y-64163895D01*
X88527828Y-64163895D01*
X88527828Y-64295679D01*
X88546805Y-64366501D01*
X88561937Y-64422977D01*
X88627824Y-64537096D01*
X88627826Y-64537098D01*
X88627828Y-64537101D01*
X88721014Y-64630287D01*
X88721016Y-64630288D01*
X88721018Y-64630290D01*
X88835138Y-64696177D01*
X88835136Y-64696177D01*
X88835140Y-64696178D01*
X88835142Y-64696179D01*
X88962436Y-64730287D01*
X88962438Y-64730287D01*
X89094218Y-64730287D01*
X89094220Y-64730287D01*
X89221514Y-64696179D01*
X89221516Y-64696177D01*
X89221518Y-64696177D01*
X89335637Y-64630290D01*
X89335637Y-64630289D01*
X89335642Y-64630287D01*
X89428828Y-64537101D01*
X89438033Y-64521158D01*
X89438035Y-64521155D01*
X115999500Y-64521155D01*
X115999500Y-64678844D01*
X116030263Y-64833496D01*
X116030263Y-64833498D01*
X116090603Y-64979174D01*
X116090609Y-64979185D01*
X116143312Y-65058059D01*
X116178211Y-65110289D01*
X116289711Y-65221789D01*
X116365459Y-65272402D01*
X116420814Y-65309390D01*
X116420825Y-65309396D01*
X116474638Y-65331685D01*
X116566503Y-65369737D01*
X116721158Y-65400500D01*
X116721159Y-65400500D01*
X116878841Y-65400500D01*
X116878842Y-65400500D01*
X117033497Y-65369737D01*
X117179179Y-65309394D01*
X117310289Y-65221789D01*
X117421789Y-65110289D01*
X117509394Y-64979179D01*
X117569737Y-64833497D01*
X117600500Y-64678842D01*
X117600500Y-64521158D01*
X117569737Y-64366503D01*
X117509394Y-64220821D01*
X117509393Y-64220819D01*
X117509390Y-64220814D01*
X117469383Y-64160941D01*
X117421789Y-64089711D01*
X117310289Y-63978211D01*
X117258059Y-63943312D01*
X117179185Y-63890609D01*
X117179174Y-63890603D01*
X117033497Y-63830263D01*
X116878844Y-63799500D01*
X116878842Y-63799500D01*
X116721158Y-63799500D01*
X116721155Y-63799500D01*
X116566503Y-63830263D01*
X116566501Y-63830263D01*
X116420825Y-63890603D01*
X116420814Y-63890609D01*
X116289711Y-63978211D01*
X116289707Y-63978214D01*
X116178214Y-64089707D01*
X116178211Y-64089711D01*
X116090609Y-64220814D01*
X116090603Y-64220825D01*
X116030263Y-64366501D01*
X116030263Y-64366503D01*
X115999500Y-64521155D01*
X89438035Y-64521155D01*
X89469416Y-64466801D01*
X89469420Y-64466794D01*
X89475400Y-64456435D01*
X89494720Y-64422973D01*
X89528828Y-64295679D01*
X89528828Y-64163895D01*
X89494720Y-64036601D01*
X89494718Y-64036598D01*
X89494718Y-64036596D01*
X89428831Y-63922477D01*
X89428829Y-63922475D01*
X89428828Y-63922473D01*
X89335642Y-63829287D01*
X89335639Y-63829285D01*
X89335637Y-63829283D01*
X89221517Y-63763396D01*
X89221519Y-63763396D01*
X89172127Y-63750162D01*
X89094220Y-63729287D01*
X88962436Y-63729287D01*
X88884528Y-63750162D01*
X88835137Y-63763396D01*
X88721018Y-63829283D01*
X88627824Y-63922477D01*
X88561937Y-64036596D01*
X88559423Y-64045979D01*
X88527828Y-64163895D01*
X87753896Y-64163895D01*
X87786222Y-64107906D01*
X87786222Y-64107905D01*
X87786608Y-64107234D01*
X87794720Y-64093186D01*
X87828828Y-63965892D01*
X87828828Y-63834108D01*
X87794720Y-63706814D01*
X87794718Y-63706811D01*
X87794718Y-63706809D01*
X87728831Y-63592690D01*
X87728829Y-63592688D01*
X87728828Y-63592686D01*
X87635642Y-63499500D01*
X87635639Y-63499498D01*
X87635637Y-63499496D01*
X87521517Y-63433609D01*
X87521519Y-63433609D01*
X87472127Y-63420375D01*
X87394220Y-63399500D01*
X87262436Y-63399500D01*
X87184528Y-63420375D01*
X87135137Y-63433609D01*
X87021018Y-63499496D01*
X86927824Y-63592690D01*
X86861937Y-63706809D01*
X86861936Y-63706814D01*
X86827828Y-63834108D01*
X84929774Y-63834108D01*
X85000941Y-63727598D01*
X85080130Y-63536420D01*
X85120500Y-63333465D01*
X85120500Y-63126535D01*
X85080130Y-62923580D01*
X85000941Y-62732402D01*
X84885977Y-62560345D01*
X84739655Y-62414023D01*
X84567598Y-62299059D01*
X84567599Y-62299059D01*
X84567597Y-62299058D01*
X84376418Y-62219869D01*
X84173467Y-62179500D01*
X84173465Y-62179500D01*
X83966535Y-62179500D01*
X83966532Y-62179500D01*
X83763581Y-62219869D01*
X83572402Y-62299058D01*
X83400348Y-62414020D01*
X83254020Y-62560348D01*
X83139058Y-62732402D01*
X83059869Y-62923581D01*
X83019500Y-63126532D01*
X82000000Y-63126532D01*
X82000000Y-60586532D01*
X83019500Y-60586532D01*
X83019500Y-60793467D01*
X83059869Y-60996418D01*
X83139058Y-61187597D01*
X83139059Y-61187598D01*
X83254023Y-61359655D01*
X83400345Y-61505977D01*
X83572402Y-61620941D01*
X83763580Y-61700130D01*
X83966535Y-61740500D01*
X83966536Y-61740500D01*
X84173464Y-61740500D01*
X84173465Y-61740500D01*
X84307218Y-61713895D01*
X86827828Y-61713895D01*
X86827828Y-61845679D01*
X86857907Y-61957938D01*
X86861937Y-61972977D01*
X86927824Y-62087096D01*
X86927826Y-62087098D01*
X86927828Y-62087101D01*
X87021014Y-62180287D01*
X87021016Y-62180288D01*
X87021018Y-62180290D01*
X87135138Y-62246177D01*
X87135136Y-62246177D01*
X87135140Y-62246178D01*
X87135142Y-62246179D01*
X87262436Y-62280287D01*
X87262438Y-62280287D01*
X87394218Y-62280287D01*
X87394220Y-62280287D01*
X87521514Y-62246179D01*
X87521516Y-62246177D01*
X87521518Y-62246177D01*
X87635637Y-62180290D01*
X87635637Y-62180289D01*
X87635642Y-62180287D01*
X87728828Y-62087101D01*
X87794720Y-61972973D01*
X87828828Y-61845679D01*
X87828828Y-61713895D01*
X87794720Y-61586601D01*
X87794718Y-61586598D01*
X87794718Y-61586596D01*
X87728831Y-61472477D01*
X87728829Y-61472475D01*
X87728828Y-61472473D01*
X87635642Y-61379287D01*
X87635639Y-61379285D01*
X87635637Y-61379283D01*
X87521517Y-61313396D01*
X87521519Y-61313396D01*
X87472127Y-61300162D01*
X87394220Y-61279287D01*
X87262436Y-61279287D01*
X87184528Y-61300162D01*
X87135137Y-61313396D01*
X87021018Y-61379283D01*
X86927824Y-61472477D01*
X86861937Y-61586596D01*
X86861936Y-61586601D01*
X86827828Y-61713895D01*
X84307218Y-61713895D01*
X84376420Y-61700130D01*
X84567598Y-61620941D01*
X84739655Y-61505977D01*
X84885977Y-61359655D01*
X85000941Y-61187598D01*
X85072892Y-61013895D01*
X91827828Y-61013895D01*
X91827828Y-61145679D01*
X91839060Y-61187597D01*
X91861937Y-61272977D01*
X91927824Y-61387096D01*
X91927826Y-61387098D01*
X91927828Y-61387101D01*
X92021014Y-61480287D01*
X92021016Y-61480288D01*
X92021018Y-61480290D01*
X92135138Y-61546177D01*
X92135136Y-61546177D01*
X92135140Y-61546178D01*
X92135142Y-61546179D01*
X92262436Y-61580287D01*
X92262438Y-61580287D01*
X92394218Y-61580287D01*
X92394220Y-61580287D01*
X92521514Y-61546179D01*
X92521516Y-61546177D01*
X92521518Y-61546177D01*
X92635637Y-61480290D01*
X92635637Y-61480289D01*
X92635642Y-61480287D01*
X92728828Y-61387101D01*
X92728831Y-61387096D01*
X92794718Y-61272977D01*
X92794718Y-61272975D01*
X92794720Y-61272973D01*
X92828828Y-61145679D01*
X92828828Y-61013895D01*
X92794720Y-60886601D01*
X92753656Y-60815477D01*
X92753656Y-60815475D01*
X92728831Y-60772477D01*
X92728829Y-60772475D01*
X92728828Y-60772473D01*
X92635642Y-60679287D01*
X92635639Y-60679285D01*
X92635637Y-60679283D01*
X92521517Y-60613396D01*
X92521519Y-60613396D01*
X92472127Y-60600162D01*
X92394220Y-60579287D01*
X92262436Y-60579287D01*
X92184528Y-60600162D01*
X92135137Y-60613396D01*
X92021018Y-60679283D01*
X91927824Y-60772477D01*
X91861937Y-60886596D01*
X91861936Y-60886601D01*
X91827828Y-61013895D01*
X85072892Y-61013895D01*
X85080130Y-60996420D01*
X85120500Y-60793465D01*
X85120500Y-60586535D01*
X85080130Y-60383580D01*
X85000941Y-60192402D01*
X84885977Y-60020345D01*
X84739655Y-59874023D01*
X84738084Y-59872973D01*
X84567597Y-59759058D01*
X84473938Y-59720263D01*
X84376420Y-59679870D01*
X84376418Y-59679869D01*
X84173467Y-59639500D01*
X84173465Y-59639500D01*
X83966535Y-59639500D01*
X83966532Y-59639500D01*
X83763581Y-59679869D01*
X83572402Y-59759058D01*
X83400348Y-59874020D01*
X83254020Y-60020348D01*
X83139058Y-60192402D01*
X83059869Y-60383581D01*
X83019500Y-60586532D01*
X82000000Y-60586532D01*
X82000000Y-59613895D01*
X96127828Y-59613895D01*
X96127828Y-59745679D01*
X96139647Y-59789787D01*
X96161937Y-59872977D01*
X96227824Y-59987096D01*
X96227826Y-59987098D01*
X96227828Y-59987101D01*
X96321014Y-60080287D01*
X96321016Y-60080288D01*
X96321018Y-60080290D01*
X96435138Y-60146177D01*
X96435136Y-60146177D01*
X96435140Y-60146178D01*
X96435142Y-60146179D01*
X96562436Y-60180287D01*
X96562438Y-60180287D01*
X96694218Y-60180287D01*
X96694220Y-60180287D01*
X96821514Y-60146179D01*
X96821516Y-60146177D01*
X96821518Y-60146177D01*
X96935637Y-60080290D01*
X96935637Y-60080289D01*
X96935642Y-60080287D01*
X97028828Y-59987101D01*
X97094720Y-59872973D01*
X97128828Y-59745679D01*
X97128828Y-59691406D01*
X115278328Y-59691406D01*
X115278328Y-59888167D01*
X115309106Y-60082497D01*
X115309107Y-60082501D01*
X115369904Y-60269613D01*
X115369906Y-60269616D01*
X115459231Y-60444929D01*
X115459235Y-60444935D01*
X115514403Y-60520866D01*
X115514404Y-60520866D01*
X116060308Y-59974962D01*
X116062403Y-59982780D01*
X116128229Y-60096794D01*
X116221321Y-60189886D01*
X116335335Y-60255712D01*
X116343150Y-60257806D01*
X115797247Y-60803709D01*
X115797247Y-60803710D01*
X115873179Y-60858879D01*
X115873185Y-60858883D01*
X116048498Y-60948208D01*
X116048501Y-60948210D01*
X116235613Y-61009007D01*
X116235617Y-61009008D01*
X116429948Y-61039787D01*
X116626708Y-61039787D01*
X116821038Y-61009008D01*
X116821042Y-61009007D01*
X117008154Y-60948210D01*
X117008157Y-60948208D01*
X117183477Y-60858879D01*
X117259407Y-60803711D01*
X117259407Y-60803710D01*
X116713503Y-60257806D01*
X116721321Y-60255712D01*
X116835335Y-60189886D01*
X116928427Y-60096794D01*
X116994253Y-59982780D01*
X116996347Y-59974962D01*
X117542251Y-60520866D01*
X117542252Y-60520866D01*
X117597420Y-60444936D01*
X117686749Y-60269616D01*
X117686751Y-60269613D01*
X117747548Y-60082501D01*
X117747549Y-60082497D01*
X117778328Y-59888167D01*
X117778328Y-59691406D01*
X117747549Y-59497076D01*
X117747548Y-59497072D01*
X117686751Y-59309960D01*
X117686749Y-59309957D01*
X117597424Y-59134644D01*
X117597420Y-59134638D01*
X117542251Y-59058706D01*
X117542250Y-59058706D01*
X116996347Y-59604609D01*
X116994253Y-59596794D01*
X116928427Y-59482780D01*
X116835335Y-59389688D01*
X116721321Y-59323862D01*
X116713503Y-59321767D01*
X117259407Y-58775863D01*
X117259407Y-58775862D01*
X117183476Y-58720694D01*
X117183470Y-58720690D01*
X117008157Y-58631365D01*
X117008154Y-58631363D01*
X116821042Y-58570566D01*
X116821038Y-58570565D01*
X116626708Y-58539787D01*
X116429948Y-58539787D01*
X116235617Y-58570565D01*
X116235613Y-58570566D01*
X116048501Y-58631363D01*
X116048498Y-58631365D01*
X115873185Y-58720690D01*
X115873181Y-58720692D01*
X115797247Y-58775862D01*
X116343152Y-59321767D01*
X116335335Y-59323862D01*
X116221321Y-59389688D01*
X116128229Y-59482780D01*
X116062403Y-59596794D01*
X116060308Y-59604611D01*
X115514403Y-59058706D01*
X115459233Y-59134640D01*
X115459231Y-59134644D01*
X115369906Y-59309957D01*
X115369904Y-59309960D01*
X115309107Y-59497072D01*
X115309106Y-59497076D01*
X115278328Y-59691406D01*
X97128828Y-59691406D01*
X97128828Y-59613895D01*
X97094720Y-59486601D01*
X97094718Y-59486598D01*
X97094718Y-59486596D01*
X97028831Y-59372477D01*
X97028829Y-59372475D01*
X97028828Y-59372473D01*
X96935642Y-59279287D01*
X96935639Y-59279285D01*
X96935637Y-59279283D01*
X96821517Y-59213396D01*
X96821519Y-59213396D01*
X96772127Y-59200162D01*
X96694220Y-59179287D01*
X96562436Y-59179287D01*
X96484528Y-59200162D01*
X96435137Y-59213396D01*
X96321018Y-59279283D01*
X96227824Y-59372477D01*
X96161937Y-59486596D01*
X96161936Y-59486601D01*
X96127828Y-59613895D01*
X82000000Y-59613895D01*
X82000000Y-58046532D01*
X83019500Y-58046532D01*
X83019500Y-58253467D01*
X83059869Y-58456418D01*
X83139058Y-58647597D01*
X83232271Y-58787101D01*
X83254023Y-58819655D01*
X83400345Y-58965977D01*
X83572402Y-59080941D01*
X83763580Y-59160130D01*
X83966535Y-59200500D01*
X83966536Y-59200500D01*
X84173464Y-59200500D01*
X84173465Y-59200500D01*
X84376420Y-59160130D01*
X84567598Y-59080941D01*
X84739655Y-58965977D01*
X84885977Y-58819655D01*
X85000941Y-58647598D01*
X85080130Y-58456420D01*
X85088589Y-58413895D01*
X88477828Y-58413895D01*
X88477828Y-58545679D01*
X88500787Y-58631363D01*
X88511937Y-58672977D01*
X88577824Y-58787096D01*
X88577826Y-58787098D01*
X88577828Y-58787101D01*
X88671014Y-58880287D01*
X88671016Y-58880288D01*
X88671018Y-58880290D01*
X88785138Y-58946177D01*
X88785136Y-58946177D01*
X88785140Y-58946178D01*
X88785142Y-58946179D01*
X88912436Y-58980287D01*
X88912438Y-58980287D01*
X89044218Y-58980287D01*
X89044220Y-58980287D01*
X89171514Y-58946179D01*
X89171516Y-58946177D01*
X89171518Y-58946177D01*
X89230042Y-58912388D01*
X93527865Y-58912388D01*
X93527865Y-59044172D01*
X93537717Y-59080941D01*
X93561974Y-59171470D01*
X93627861Y-59285589D01*
X93627863Y-59285591D01*
X93627865Y-59285594D01*
X93721051Y-59378780D01*
X93721053Y-59378781D01*
X93721055Y-59378783D01*
X93835175Y-59444670D01*
X93835173Y-59444670D01*
X93835177Y-59444671D01*
X93835179Y-59444672D01*
X93962473Y-59478780D01*
X93962475Y-59478780D01*
X94094255Y-59478780D01*
X94094257Y-59478780D01*
X94221551Y-59444672D01*
X94221553Y-59444670D01*
X94221555Y-59444670D01*
X94335674Y-59378783D01*
X94335674Y-59378782D01*
X94335679Y-59378780D01*
X94428865Y-59285594D01*
X94494757Y-59171466D01*
X94528865Y-59044172D01*
X94528865Y-58912388D01*
X94494757Y-58785094D01*
X94494755Y-58785091D01*
X94494755Y-58785089D01*
X94428868Y-58670970D01*
X94428866Y-58670968D01*
X94428865Y-58670966D01*
X94335679Y-58577780D01*
X94335676Y-58577778D01*
X94335674Y-58577776D01*
X94221554Y-58511889D01*
X94221556Y-58511889D01*
X94172164Y-58498655D01*
X94094257Y-58477780D01*
X93962473Y-58477780D01*
X93884565Y-58498655D01*
X93835174Y-58511889D01*
X93721055Y-58577776D01*
X93627861Y-58670970D01*
X93561974Y-58785089D01*
X93552712Y-58819655D01*
X93527865Y-58912388D01*
X89230042Y-58912388D01*
X89285637Y-58880290D01*
X89285637Y-58880289D01*
X89285642Y-58880287D01*
X89378828Y-58787101D01*
X89417168Y-58720694D01*
X89444718Y-58672977D01*
X89444718Y-58672975D01*
X89444720Y-58672973D01*
X89478828Y-58545679D01*
X89478828Y-58413895D01*
X89444720Y-58286601D01*
X89444718Y-58286598D01*
X89444718Y-58286596D01*
X89378831Y-58172477D01*
X89378829Y-58172475D01*
X89378828Y-58172473D01*
X89285642Y-58079287D01*
X89285639Y-58079285D01*
X89285637Y-58079283D01*
X89171517Y-58013396D01*
X89171519Y-58013396D01*
X89122127Y-58000162D01*
X89044220Y-57979287D01*
X88912436Y-57979287D01*
X88834528Y-58000162D01*
X88785137Y-58013396D01*
X88671018Y-58079283D01*
X88577824Y-58172477D01*
X88511937Y-58286596D01*
X88511936Y-58286601D01*
X88477828Y-58413895D01*
X85088589Y-58413895D01*
X85120500Y-58253465D01*
X85120500Y-58046535D01*
X85080130Y-57843580D01*
X85000941Y-57652402D01*
X84885977Y-57480345D01*
X84739655Y-57334023D01*
X84634702Y-57263896D01*
X84634701Y-57263895D01*
X91327828Y-57263895D01*
X91327828Y-57395679D01*
X91345688Y-57462333D01*
X91361937Y-57522977D01*
X91427824Y-57637096D01*
X91427826Y-57637098D01*
X91427828Y-57637101D01*
X91521014Y-57730287D01*
X91521016Y-57730288D01*
X91521018Y-57730290D01*
X91635138Y-57796177D01*
X91635136Y-57796177D01*
X91635140Y-57796178D01*
X91635142Y-57796179D01*
X91762436Y-57830287D01*
X91762438Y-57830287D01*
X91894218Y-57830287D01*
X91894220Y-57830287D01*
X92021514Y-57796179D01*
X92021516Y-57796177D01*
X92021518Y-57796177D01*
X92135637Y-57730290D01*
X92135637Y-57730289D01*
X92135642Y-57730287D01*
X92228828Y-57637101D01*
X92253646Y-57594115D01*
X92294718Y-57522977D01*
X92294718Y-57522975D01*
X92294720Y-57522973D01*
X92310968Y-57462333D01*
X92926339Y-57462333D01*
X92926339Y-57594117D01*
X92956418Y-57706376D01*
X92960448Y-57721415D01*
X93026335Y-57835534D01*
X93026337Y-57835536D01*
X93026339Y-57835539D01*
X93119525Y-57928725D01*
X93119527Y-57928726D01*
X93119529Y-57928728D01*
X93233649Y-57994615D01*
X93233647Y-57994615D01*
X93233651Y-57994616D01*
X93233653Y-57994617D01*
X93360947Y-58028725D01*
X93360949Y-58028725D01*
X93492729Y-58028725D01*
X93492731Y-58028725D01*
X93620025Y-57994617D01*
X93620027Y-57994615D01*
X93620029Y-57994615D01*
X93734148Y-57928728D01*
X93734148Y-57928727D01*
X93734153Y-57928725D01*
X93827339Y-57835539D01*
X93878235Y-57747385D01*
X93893229Y-57721415D01*
X93893229Y-57721413D01*
X93893231Y-57721411D01*
X93927339Y-57594117D01*
X93927339Y-57462333D01*
X93893231Y-57335039D01*
X93893229Y-57335036D01*
X93893229Y-57335034D01*
X93827342Y-57220915D01*
X93827340Y-57220913D01*
X93827339Y-57220911D01*
X93752747Y-57146319D01*
X115477828Y-57146319D01*
X115477828Y-57353254D01*
X115518197Y-57556205D01*
X115597386Y-57747384D01*
X115712348Y-57919438D01*
X115712351Y-57919442D01*
X115858673Y-58065764D01*
X116030730Y-58180728D01*
X116221908Y-58259917D01*
X116424863Y-58300287D01*
X116424864Y-58300287D01*
X116631792Y-58300287D01*
X116631793Y-58300287D01*
X116834748Y-58259917D01*
X117025926Y-58180728D01*
X117197983Y-58065764D01*
X117344305Y-57919442D01*
X117459269Y-57747385D01*
X117538458Y-57556207D01*
X117578828Y-57353252D01*
X117578828Y-57146322D01*
X117538458Y-56943367D01*
X117459269Y-56752189D01*
X117344305Y-56580132D01*
X117197983Y-56433810D01*
X117025926Y-56318846D01*
X117025927Y-56318846D01*
X117025925Y-56318845D01*
X116834746Y-56239656D01*
X116631795Y-56199287D01*
X116631793Y-56199287D01*
X116424863Y-56199287D01*
X116424860Y-56199287D01*
X116221909Y-56239656D01*
X116030730Y-56318845D01*
X115858676Y-56433807D01*
X115712348Y-56580135D01*
X115597386Y-56752189D01*
X115518197Y-56943368D01*
X115477828Y-57146319D01*
X93752747Y-57146319D01*
X93734153Y-57127725D01*
X93734150Y-57127723D01*
X93734148Y-57127721D01*
X93620028Y-57061834D01*
X93620030Y-57061834D01*
X93570638Y-57048600D01*
X93492731Y-57027725D01*
X93360947Y-57027725D01*
X93283039Y-57048600D01*
X93233648Y-57061834D01*
X93119529Y-57127721D01*
X93026335Y-57220915D01*
X92960448Y-57335034D01*
X92960447Y-57335039D01*
X92926339Y-57462333D01*
X92310968Y-57462333D01*
X92328828Y-57395679D01*
X92328828Y-57263895D01*
X92294720Y-57136601D01*
X92294718Y-57136598D01*
X92294718Y-57136596D01*
X92228831Y-57022477D01*
X92228829Y-57022475D01*
X92228828Y-57022473D01*
X92135642Y-56929287D01*
X92135639Y-56929285D01*
X92135637Y-56929283D01*
X92021517Y-56863396D01*
X92021519Y-56863396D01*
X91972127Y-56850162D01*
X91894220Y-56829287D01*
X91762436Y-56829287D01*
X91684528Y-56850162D01*
X91635137Y-56863396D01*
X91521018Y-56929283D01*
X91427824Y-57022477D01*
X91361937Y-57136596D01*
X91361936Y-57136601D01*
X91327828Y-57263895D01*
X84634701Y-57263895D01*
X84567597Y-57219058D01*
X84376418Y-57139869D01*
X84173467Y-57099500D01*
X84173465Y-57099500D01*
X83966535Y-57099500D01*
X83966532Y-57099500D01*
X83763581Y-57139869D01*
X83572402Y-57219058D01*
X83400348Y-57334020D01*
X83254020Y-57480348D01*
X83139058Y-57652402D01*
X83059869Y-57843581D01*
X83019500Y-58046532D01*
X82000000Y-58046532D01*
X82000000Y-54740253D01*
X83019500Y-54740253D01*
X83019500Y-56479746D01*
X83019501Y-56479758D01*
X83031132Y-56538227D01*
X83031134Y-56538233D01*
X83075445Y-56604548D01*
X83075448Y-56604552D01*
X83141769Y-56648867D01*
X83186231Y-56657711D01*
X83200241Y-56660498D01*
X83200246Y-56660498D01*
X83200252Y-56660500D01*
X83200253Y-56660500D01*
X84939747Y-56660500D01*
X84939748Y-56660500D01*
X84998231Y-56648867D01*
X85064552Y-56604552D01*
X85108867Y-56538231D01*
X85120500Y-56479748D01*
X85120500Y-55513895D01*
X89627828Y-55513895D01*
X89627828Y-55645679D01*
X89632980Y-55664906D01*
X89661937Y-55772977D01*
X89727824Y-55887096D01*
X89727826Y-55887098D01*
X89727828Y-55887101D01*
X89821014Y-55980287D01*
X89821016Y-55980288D01*
X89821018Y-55980290D01*
X89935138Y-56046177D01*
X89935136Y-56046177D01*
X89935140Y-56046178D01*
X89935142Y-56046179D01*
X90062436Y-56080287D01*
X90062438Y-56080287D01*
X90194218Y-56080287D01*
X90194220Y-56080287D01*
X90321514Y-56046179D01*
X90321516Y-56046177D01*
X90321518Y-56046177D01*
X90435637Y-55980290D01*
X90435637Y-55980289D01*
X90435642Y-55980287D01*
X90468181Y-55947748D01*
X92383207Y-55947748D01*
X92386756Y-55950120D01*
X92514144Y-56002885D01*
X92649383Y-56029786D01*
X92649385Y-56029787D01*
X92787271Y-56029787D01*
X92787272Y-56029786D01*
X92922511Y-56002885D01*
X93049897Y-55950121D01*
X93049900Y-55950120D01*
X93053447Y-55947749D01*
X93053446Y-55947748D01*
X93383207Y-55947748D01*
X93386756Y-55950120D01*
X93514144Y-56002885D01*
X93649383Y-56029786D01*
X93649385Y-56029787D01*
X93787271Y-56029787D01*
X93787272Y-56029786D01*
X93922511Y-56002885D01*
X93927714Y-56000730D01*
X97077828Y-56000730D01*
X97077828Y-56158844D01*
X97118751Y-56311571D01*
X97197808Y-56448503D01*
X97309612Y-56560307D01*
X97446544Y-56639364D01*
X97599271Y-56680287D01*
X97599273Y-56680287D01*
X97757383Y-56680287D01*
X97757385Y-56680287D01*
X97910112Y-56639364D01*
X98047044Y-56560307D01*
X98158848Y-56448503D01*
X98237905Y-56311571D01*
X98278828Y-56158844D01*
X98278828Y-56000730D01*
X98237905Y-55848003D01*
X98158848Y-55711071D01*
X98047044Y-55599267D01*
X97910112Y-55520210D01*
X97757385Y-55479287D01*
X97599271Y-55479287D01*
X97446544Y-55520210D01*
X97309612Y-55599267D01*
X97197808Y-55711071D01*
X97118751Y-55848003D01*
X97077828Y-56000730D01*
X93927714Y-56000730D01*
X94049897Y-55950121D01*
X94049900Y-55950120D01*
X94053447Y-55947749D01*
X93718327Y-55612629D01*
X93383207Y-55947748D01*
X93053446Y-55947748D01*
X92718327Y-55612629D01*
X92383207Y-55947748D01*
X90468181Y-55947748D01*
X90528828Y-55887101D01*
X90551402Y-55848003D01*
X90594718Y-55772977D01*
X90594718Y-55772975D01*
X90594720Y-55772973D01*
X90628828Y-55645679D01*
X90628828Y-55513895D01*
X90594720Y-55386601D01*
X90594718Y-55386598D01*
X90594718Y-55386596D01*
X90547885Y-55305479D01*
X90528831Y-55272477D01*
X90528829Y-55272475D01*
X90528828Y-55272473D01*
X90517197Y-55260842D01*
X92018328Y-55260842D01*
X92018328Y-55398731D01*
X92045229Y-55533970D01*
X92097992Y-55661354D01*
X92097995Y-55661359D01*
X92100365Y-55664906D01*
X92435485Y-55329787D01*
X92405648Y-55299950D01*
X92568328Y-55299950D01*
X92568328Y-55359624D01*
X92591164Y-55414755D01*
X92633360Y-55456951D01*
X92688491Y-55479787D01*
X92748165Y-55479787D01*
X92803296Y-55456951D01*
X92845492Y-55414755D01*
X92868328Y-55359624D01*
X92868328Y-55329787D01*
X93001171Y-55329787D01*
X93218328Y-55546944D01*
X93435485Y-55329787D01*
X93405648Y-55299950D01*
X93568328Y-55299950D01*
X93568328Y-55359624D01*
X93591164Y-55414755D01*
X93633360Y-55456951D01*
X93688491Y-55479787D01*
X93748165Y-55479787D01*
X93803296Y-55456951D01*
X93845492Y-55414755D01*
X93868328Y-55359624D01*
X93868328Y-55329786D01*
X94001170Y-55329786D01*
X94336290Y-55664906D01*
X94338661Y-55661359D01*
X94338662Y-55661356D01*
X94391426Y-55533970D01*
X94418327Y-55398731D01*
X94418328Y-55398729D01*
X94418328Y-55260844D01*
X94418327Y-55260842D01*
X94391426Y-55125603D01*
X94338661Y-54998215D01*
X94336289Y-54994666D01*
X94001170Y-55329786D01*
X93868328Y-55329786D01*
X93868328Y-55299950D01*
X93845492Y-55244819D01*
X93803296Y-55202623D01*
X93748165Y-55179787D01*
X93688491Y-55179787D01*
X93633360Y-55202623D01*
X93591164Y-55244819D01*
X93568328Y-55299950D01*
X93405648Y-55299950D01*
X93218328Y-55112630D01*
X93001171Y-55329787D01*
X92868328Y-55329787D01*
X92868328Y-55299950D01*
X92845492Y-55244819D01*
X92803296Y-55202623D01*
X92748165Y-55179787D01*
X92688491Y-55179787D01*
X92633360Y-55202623D01*
X92591164Y-55244819D01*
X92568328Y-55299950D01*
X92405648Y-55299950D01*
X92100364Y-54994666D01*
X92097999Y-54998206D01*
X92097993Y-54998217D01*
X92045229Y-55125603D01*
X92018328Y-55260842D01*
X90517197Y-55260842D01*
X90435642Y-55179287D01*
X90435639Y-55179285D01*
X90435637Y-55179283D01*
X90321517Y-55113396D01*
X90321519Y-55113396D01*
X90272127Y-55100162D01*
X90194220Y-55079287D01*
X90062436Y-55079287D01*
X89984528Y-55100162D01*
X89935137Y-55113396D01*
X89821018Y-55179283D01*
X89727824Y-55272477D01*
X89661937Y-55386596D01*
X89661936Y-55386601D01*
X89627828Y-55513895D01*
X85120500Y-55513895D01*
X85120500Y-54829787D01*
X92501171Y-54829787D01*
X92718328Y-55046944D01*
X92935485Y-54829787D01*
X93501171Y-54829787D01*
X93718328Y-55046944D01*
X93935485Y-54829787D01*
X93718328Y-54612630D01*
X93501171Y-54829787D01*
X92935485Y-54829787D01*
X92718328Y-54612630D01*
X92501171Y-54829787D01*
X85120500Y-54829787D01*
X85120500Y-54740252D01*
X85108867Y-54681769D01*
X85064552Y-54615448D01*
X85050896Y-54606323D01*
X84998233Y-54571134D01*
X84998231Y-54571133D01*
X84998228Y-54571132D01*
X84998227Y-54571132D01*
X84939758Y-54559501D01*
X84939748Y-54559500D01*
X83200252Y-54559500D01*
X83200251Y-54559500D01*
X83200241Y-54559501D01*
X83141772Y-54571132D01*
X83141766Y-54571134D01*
X83075451Y-54615445D01*
X83075445Y-54615451D01*
X83031134Y-54681766D01*
X83031132Y-54681772D01*
X83019501Y-54740241D01*
X83019500Y-54740253D01*
X82000000Y-54740253D01*
X82000000Y-54260842D01*
X92018328Y-54260842D01*
X92018328Y-54398731D01*
X92045229Y-54533970D01*
X92097992Y-54661354D01*
X92097995Y-54661359D01*
X92100365Y-54664906D01*
X92435485Y-54329787D01*
X92405648Y-54299950D01*
X92568328Y-54299950D01*
X92568328Y-54359624D01*
X92591164Y-54414755D01*
X92633360Y-54456951D01*
X92688491Y-54479787D01*
X92748165Y-54479787D01*
X92803296Y-54456951D01*
X92845492Y-54414755D01*
X92868328Y-54359624D01*
X92868328Y-54329787D01*
X93001171Y-54329787D01*
X93218328Y-54546944D01*
X93435485Y-54329787D01*
X93405648Y-54299950D01*
X93568328Y-54299950D01*
X93568328Y-54359624D01*
X93591164Y-54414755D01*
X93633360Y-54456951D01*
X93688491Y-54479787D01*
X93748165Y-54479787D01*
X93803296Y-54456951D01*
X93845492Y-54414755D01*
X93868328Y-54359624D01*
X93868328Y-54329786D01*
X94001170Y-54329786D01*
X94336290Y-54664906D01*
X94338661Y-54661359D01*
X94338662Y-54661356D01*
X94361459Y-54606319D01*
X115477828Y-54606319D01*
X115477828Y-54813254D01*
X115518197Y-55016205D01*
X115597386Y-55207384D01*
X115699109Y-55359624D01*
X115712351Y-55379442D01*
X115858673Y-55525764D01*
X116030730Y-55640728D01*
X116221908Y-55719917D01*
X116424863Y-55760287D01*
X116424864Y-55760287D01*
X116631792Y-55760287D01*
X116631793Y-55760287D01*
X116834748Y-55719917D01*
X117025926Y-55640728D01*
X117197983Y-55525764D01*
X117344305Y-55379442D01*
X117459269Y-55207385D01*
X117538458Y-55016207D01*
X117578828Y-54813252D01*
X117578828Y-54606322D01*
X117538458Y-54403367D01*
X117459269Y-54212189D01*
X117344305Y-54040132D01*
X117197983Y-53893810D01*
X117025926Y-53778846D01*
X117025927Y-53778846D01*
X117025925Y-53778845D01*
X116834746Y-53699656D01*
X116631795Y-53659287D01*
X116631793Y-53659287D01*
X116424863Y-53659287D01*
X116424860Y-53659287D01*
X116221909Y-53699656D01*
X116030730Y-53778845D01*
X115858676Y-53893807D01*
X115712348Y-54040135D01*
X115597386Y-54212189D01*
X115518197Y-54403368D01*
X115477828Y-54606319D01*
X94361459Y-54606319D01*
X94379165Y-54563573D01*
X94391426Y-54533970D01*
X94418327Y-54398731D01*
X94418328Y-54398729D01*
X94418328Y-54260844D01*
X94418327Y-54260842D01*
X94391426Y-54125603D01*
X94338661Y-53998215D01*
X94336289Y-53994666D01*
X94001170Y-54329786D01*
X93868328Y-54329786D01*
X93868328Y-54299950D01*
X93845492Y-54244819D01*
X93803296Y-54202623D01*
X93748165Y-54179787D01*
X93688491Y-54179787D01*
X93633360Y-54202623D01*
X93591164Y-54244819D01*
X93568328Y-54299950D01*
X93405648Y-54299950D01*
X93218328Y-54112630D01*
X93001171Y-54329787D01*
X92868328Y-54329787D01*
X92868328Y-54299950D01*
X92845492Y-54244819D01*
X92803296Y-54202623D01*
X92748165Y-54179787D01*
X92688491Y-54179787D01*
X92633360Y-54202623D01*
X92591164Y-54244819D01*
X92568328Y-54299950D01*
X92405648Y-54299950D01*
X92100364Y-53994666D01*
X92097999Y-53998206D01*
X92097993Y-53998217D01*
X92045229Y-54125603D01*
X92018328Y-54260842D01*
X82000000Y-54260842D01*
X82000000Y-53711823D01*
X92383207Y-53711823D01*
X92718328Y-54046944D01*
X93053447Y-53711824D01*
X93053446Y-53711823D01*
X93383207Y-53711823D01*
X93718328Y-54046944D01*
X94053447Y-53711824D01*
X94049900Y-53709454D01*
X94049895Y-53709451D01*
X93922511Y-53656688D01*
X93787272Y-53629787D01*
X93649383Y-53629787D01*
X93514144Y-53656688D01*
X93386758Y-53709452D01*
X93386747Y-53709458D01*
X93383207Y-53711823D01*
X93053446Y-53711823D01*
X93049900Y-53709454D01*
X93049895Y-53709451D01*
X92922511Y-53656688D01*
X92787272Y-53629787D01*
X92649383Y-53629787D01*
X92514144Y-53656688D01*
X92386758Y-53709452D01*
X92386747Y-53709458D01*
X92383207Y-53711823D01*
X82000000Y-53711823D01*
X82000000Y-51663895D01*
X99927828Y-51663895D01*
X99927828Y-51795679D01*
X99945965Y-51863367D01*
X99961937Y-51922977D01*
X100027824Y-52037096D01*
X100027826Y-52037098D01*
X100027828Y-52037101D01*
X100121014Y-52130287D01*
X100121016Y-52130288D01*
X100121018Y-52130290D01*
X100235138Y-52196177D01*
X100235136Y-52196177D01*
X100235140Y-52196178D01*
X100235142Y-52196179D01*
X100362436Y-52230287D01*
X100362438Y-52230287D01*
X100494218Y-52230287D01*
X100494220Y-52230287D01*
X100621514Y-52196179D01*
X100621516Y-52196177D01*
X100621518Y-52196177D01*
X100735637Y-52130290D01*
X100735637Y-52130289D01*
X100735642Y-52130287D01*
X100828828Y-52037101D01*
X100843340Y-52011965D01*
X100894718Y-51922977D01*
X100894718Y-51922975D01*
X100894720Y-51922973D01*
X100928828Y-51795679D01*
X100928828Y-51713895D01*
X101177828Y-51713895D01*
X101177828Y-51845679D01*
X101182568Y-51863368D01*
X101211937Y-51972977D01*
X101277824Y-52087096D01*
X101277826Y-52087098D01*
X101277828Y-52087101D01*
X101371014Y-52180287D01*
X101371016Y-52180288D01*
X101371018Y-52180290D01*
X101485138Y-52246177D01*
X101485136Y-52246177D01*
X101485140Y-52246178D01*
X101485142Y-52246179D01*
X101612436Y-52280287D01*
X101612438Y-52280287D01*
X101744218Y-52280287D01*
X101744220Y-52280287D01*
X101871514Y-52246179D01*
X101871516Y-52246177D01*
X101871518Y-52246177D01*
X101985637Y-52180290D01*
X101985637Y-52180289D01*
X101985642Y-52180287D01*
X102078828Y-52087101D01*
X102090827Y-52066319D01*
X115477828Y-52066319D01*
X115477828Y-52273254D01*
X115518197Y-52476205D01*
X115597386Y-52667384D01*
X115597387Y-52667385D01*
X115712351Y-52839442D01*
X115858673Y-52985764D01*
X116030730Y-53100728D01*
X116221908Y-53179917D01*
X116424863Y-53220287D01*
X116424864Y-53220287D01*
X116631792Y-53220287D01*
X116631793Y-53220287D01*
X116834748Y-53179917D01*
X117025926Y-53100728D01*
X117197983Y-52985764D01*
X117344305Y-52839442D01*
X117459269Y-52667385D01*
X117538458Y-52476207D01*
X117578828Y-52273252D01*
X117578828Y-52066322D01*
X117538458Y-51863367D01*
X117459269Y-51672189D01*
X117344305Y-51500132D01*
X117197983Y-51353810D01*
X117197979Y-51353807D01*
X117025925Y-51238845D01*
X116834746Y-51159656D01*
X116631795Y-51119287D01*
X116631793Y-51119287D01*
X116424863Y-51119287D01*
X116424860Y-51119287D01*
X116221909Y-51159656D01*
X116030730Y-51238845D01*
X115858676Y-51353807D01*
X115712348Y-51500135D01*
X115597386Y-51672189D01*
X115518197Y-51863368D01*
X115477828Y-52066319D01*
X102090827Y-52066319D01*
X102107699Y-52037096D01*
X102122208Y-52011965D01*
X102122212Y-52011958D01*
X102124919Y-52007268D01*
X102144720Y-51972973D01*
X102178828Y-51845679D01*
X102178828Y-51713895D01*
X102144720Y-51586601D01*
X102144718Y-51586598D01*
X102144718Y-51586596D01*
X102078831Y-51472477D01*
X102078829Y-51472475D01*
X102078828Y-51472473D01*
X101985642Y-51379287D01*
X101985639Y-51379285D01*
X101985637Y-51379283D01*
X101871517Y-51313396D01*
X101871519Y-51313396D01*
X101822127Y-51300162D01*
X101744220Y-51279287D01*
X101612436Y-51279287D01*
X101534528Y-51300162D01*
X101485137Y-51313396D01*
X101371018Y-51379283D01*
X101277824Y-51472477D01*
X101211937Y-51586596D01*
X101211936Y-51586601D01*
X101177828Y-51713895D01*
X100928828Y-51713895D01*
X100928828Y-51663895D01*
X100894720Y-51536601D01*
X100894718Y-51536598D01*
X100894718Y-51536596D01*
X100828831Y-51422477D01*
X100828829Y-51422475D01*
X100828828Y-51422473D01*
X100735642Y-51329287D01*
X100735639Y-51329285D01*
X100735637Y-51329283D01*
X100621517Y-51263396D01*
X100621519Y-51263396D01*
X100572127Y-51250162D01*
X100494220Y-51229287D01*
X100362436Y-51229287D01*
X100284528Y-51250162D01*
X100235137Y-51263396D01*
X100121018Y-51329283D01*
X100027824Y-51422477D01*
X99961937Y-51536596D01*
X99961936Y-51536601D01*
X99927828Y-51663895D01*
X82000000Y-51663895D01*
X82000000Y-50463895D01*
X99927828Y-50463895D01*
X99927828Y-50595679D01*
X99957907Y-50707938D01*
X99961937Y-50722977D01*
X100027824Y-50837096D01*
X100027826Y-50837098D01*
X100027828Y-50837101D01*
X100121014Y-50930287D01*
X100121016Y-50930288D01*
X100121018Y-50930290D01*
X100235138Y-50996177D01*
X100235136Y-50996177D01*
X100235140Y-50996178D01*
X100235142Y-50996179D01*
X100362436Y-51030287D01*
X100362438Y-51030287D01*
X100494218Y-51030287D01*
X100494220Y-51030287D01*
X100621514Y-50996179D01*
X100621516Y-50996177D01*
X100621518Y-50996177D01*
X100735637Y-50930290D01*
X100735637Y-50930289D01*
X100735642Y-50930287D01*
X100828828Y-50837101D01*
X100894720Y-50722973D01*
X100928828Y-50595679D01*
X100928828Y-50463895D01*
X101177828Y-50463895D01*
X101177828Y-50595679D01*
X101207907Y-50707938D01*
X101211937Y-50722977D01*
X101277824Y-50837096D01*
X101277826Y-50837098D01*
X101277828Y-50837101D01*
X101371014Y-50930287D01*
X101371016Y-50930288D01*
X101371018Y-50930290D01*
X101485138Y-50996177D01*
X101485136Y-50996177D01*
X101485140Y-50996178D01*
X101485142Y-50996179D01*
X101612436Y-51030287D01*
X101612438Y-51030287D01*
X101744218Y-51030287D01*
X101744220Y-51030287D01*
X101871514Y-50996179D01*
X101871516Y-50996177D01*
X101871518Y-50996177D01*
X101985637Y-50930290D01*
X101985637Y-50930289D01*
X101985642Y-50930287D01*
X102078828Y-50837101D01*
X102144720Y-50722973D01*
X102178828Y-50595679D01*
X102178828Y-50463895D01*
X102144720Y-50336601D01*
X102144718Y-50336598D01*
X102144718Y-50336596D01*
X102078831Y-50222477D01*
X102078829Y-50222475D01*
X102078828Y-50222473D01*
X101985642Y-50129287D01*
X101985639Y-50129285D01*
X101985637Y-50129283D01*
X101871517Y-50063396D01*
X101871519Y-50063396D01*
X101822127Y-50050162D01*
X101744220Y-50029287D01*
X101612436Y-50029287D01*
X101534528Y-50050162D01*
X101485137Y-50063396D01*
X101371018Y-50129283D01*
X101277824Y-50222477D01*
X101211937Y-50336596D01*
X101211936Y-50336601D01*
X101177828Y-50463895D01*
X100928828Y-50463895D01*
X100894720Y-50336601D01*
X100894718Y-50336598D01*
X100894718Y-50336596D01*
X100828831Y-50222477D01*
X100828829Y-50222475D01*
X100828828Y-50222473D01*
X100735642Y-50129287D01*
X100735639Y-50129285D01*
X100735637Y-50129283D01*
X100621517Y-50063396D01*
X100621519Y-50063396D01*
X100572127Y-50050162D01*
X100494220Y-50029287D01*
X100362436Y-50029287D01*
X100284528Y-50050162D01*
X100235137Y-50063396D01*
X100121018Y-50129283D01*
X100027824Y-50222477D01*
X99961937Y-50336596D01*
X99961936Y-50336601D01*
X99927828Y-50463895D01*
X82000000Y-50463895D01*
X82000000Y-49121155D01*
X87827828Y-49121155D01*
X87827828Y-49278844D01*
X87858591Y-49433496D01*
X87858591Y-49433498D01*
X87918931Y-49579174D01*
X87918937Y-49579185D01*
X87971640Y-49658059D01*
X88006539Y-49710289D01*
X88118039Y-49821789D01*
X88196204Y-49874017D01*
X88249142Y-49909390D01*
X88249153Y-49909396D01*
X88302966Y-49931685D01*
X88394831Y-49969737D01*
X88549486Y-50000500D01*
X88549487Y-50000500D01*
X88707169Y-50000500D01*
X88707170Y-50000500D01*
X88861825Y-49969737D01*
X89007507Y-49909394D01*
X89138617Y-49821789D01*
X89250117Y-49710289D01*
X89337722Y-49579179D01*
X89398065Y-49433497D01*
X89428828Y-49278842D01*
X89428828Y-49121158D01*
X89428827Y-49121155D01*
X90827828Y-49121155D01*
X90827828Y-49278844D01*
X90858591Y-49433496D01*
X90858591Y-49433498D01*
X90918931Y-49579174D01*
X90918937Y-49579185D01*
X90971640Y-49658059D01*
X91006539Y-49710289D01*
X91118039Y-49821789D01*
X91196204Y-49874017D01*
X91249142Y-49909390D01*
X91249153Y-49909396D01*
X91302966Y-49931685D01*
X91394831Y-49969737D01*
X91549486Y-50000500D01*
X91549487Y-50000500D01*
X91707169Y-50000500D01*
X91707170Y-50000500D01*
X91861825Y-49969737D01*
X92007507Y-49909394D01*
X92138617Y-49821789D01*
X92250117Y-49710289D01*
X92337722Y-49579179D01*
X92398065Y-49433497D01*
X92428828Y-49278842D01*
X92428828Y-49213895D01*
X99927828Y-49213895D01*
X99927828Y-49345679D01*
X99951358Y-49433496D01*
X99961937Y-49472977D01*
X100027824Y-49587096D01*
X100027826Y-49587098D01*
X100027828Y-49587101D01*
X100121014Y-49680287D01*
X100121016Y-49680288D01*
X100121018Y-49680290D01*
X100235138Y-49746177D01*
X100235136Y-49746177D01*
X100235140Y-49746178D01*
X100235142Y-49746179D01*
X100362436Y-49780287D01*
X100362438Y-49780287D01*
X100494218Y-49780287D01*
X100494220Y-49780287D01*
X100621514Y-49746179D01*
X100621516Y-49746177D01*
X100621518Y-49746177D01*
X100735637Y-49680290D01*
X100735637Y-49680289D01*
X100735642Y-49680287D01*
X100828828Y-49587101D01*
X100894720Y-49472973D01*
X100928828Y-49345679D01*
X100928828Y-49213895D01*
X101177828Y-49213895D01*
X101177828Y-49345679D01*
X101201358Y-49433496D01*
X101211937Y-49472977D01*
X101277824Y-49587096D01*
X101277826Y-49587098D01*
X101277828Y-49587101D01*
X101371014Y-49680287D01*
X101371016Y-49680288D01*
X101371018Y-49680290D01*
X101485138Y-49746177D01*
X101485136Y-49746177D01*
X101485140Y-49746178D01*
X101485142Y-49746179D01*
X101612436Y-49780287D01*
X101612438Y-49780287D01*
X101744218Y-49780287D01*
X101744220Y-49780287D01*
X101871514Y-49746179D01*
X101871516Y-49746177D01*
X101871518Y-49746177D01*
X101985637Y-49680290D01*
X101985637Y-49680289D01*
X101985642Y-49680287D01*
X102078828Y-49587101D01*
X102144720Y-49472973D01*
X102178828Y-49345679D01*
X102178828Y-49213895D01*
X102144720Y-49086601D01*
X102144718Y-49086598D01*
X102144718Y-49086596D01*
X102078831Y-48972477D01*
X102078829Y-48972475D01*
X102078828Y-48972473D01*
X101985642Y-48879287D01*
X101919173Y-48840911D01*
X101919172Y-48840909D01*
X101871517Y-48813396D01*
X101871519Y-48813396D01*
X101822127Y-48800162D01*
X101744220Y-48779287D01*
X101612436Y-48779287D01*
X101534528Y-48800162D01*
X101485137Y-48813396D01*
X101371018Y-48879283D01*
X101277824Y-48972477D01*
X101211937Y-49086596D01*
X101202676Y-49121159D01*
X101177828Y-49213895D01*
X100928828Y-49213895D01*
X100894720Y-49086601D01*
X100894718Y-49086598D01*
X100894718Y-49086596D01*
X100828831Y-48972477D01*
X100828829Y-48972475D01*
X100828828Y-48972473D01*
X100735642Y-48879287D01*
X100735639Y-48879285D01*
X100735637Y-48879283D01*
X100621517Y-48813396D01*
X100621519Y-48813396D01*
X100572127Y-48800162D01*
X100494220Y-48779287D01*
X100362436Y-48779287D01*
X100284528Y-48800162D01*
X100235137Y-48813396D01*
X100121018Y-48879283D01*
X100027824Y-48972477D01*
X99961937Y-49086596D01*
X99952676Y-49121159D01*
X99927828Y-49213895D01*
X92428828Y-49213895D01*
X92428828Y-49121158D01*
X92398065Y-48966503D01*
X92337722Y-48820821D01*
X92337721Y-48820819D01*
X92337718Y-48820814D01*
X92297109Y-48760040D01*
X115477828Y-48760040D01*
X115477828Y-50499533D01*
X115477829Y-50499545D01*
X115489460Y-50558014D01*
X115489462Y-50558020D01*
X115533773Y-50624335D01*
X115533776Y-50624339D01*
X115600097Y-50668654D01*
X115644559Y-50677498D01*
X115658569Y-50680285D01*
X115658574Y-50680285D01*
X115658580Y-50680287D01*
X115658581Y-50680287D01*
X117398075Y-50680287D01*
X117398076Y-50680287D01*
X117456559Y-50668654D01*
X117522880Y-50624339D01*
X117567195Y-50558018D01*
X117578828Y-50499535D01*
X117578828Y-48760039D01*
X117567195Y-48701556D01*
X117522880Y-48635235D01*
X117522876Y-48635232D01*
X117456561Y-48590921D01*
X117456559Y-48590920D01*
X117456556Y-48590919D01*
X117456555Y-48590919D01*
X117398086Y-48579288D01*
X117398076Y-48579287D01*
X115658580Y-48579287D01*
X115658579Y-48579287D01*
X115658569Y-48579288D01*
X115600100Y-48590919D01*
X115600094Y-48590921D01*
X115533779Y-48635232D01*
X115533773Y-48635238D01*
X115489462Y-48701553D01*
X115489460Y-48701559D01*
X115477829Y-48760028D01*
X115477828Y-48760040D01*
X92297109Y-48760040D01*
X92297101Y-48760028D01*
X92250117Y-48689711D01*
X92138617Y-48578211D01*
X92086387Y-48543312D01*
X92007513Y-48490609D01*
X92007502Y-48490603D01*
X91861825Y-48430263D01*
X91707172Y-48399500D01*
X91707170Y-48399500D01*
X91549486Y-48399500D01*
X91549483Y-48399500D01*
X91394831Y-48430263D01*
X91394829Y-48430263D01*
X91249153Y-48490603D01*
X91249142Y-48490609D01*
X91118039Y-48578211D01*
X91118035Y-48578214D01*
X91006542Y-48689707D01*
X91006539Y-48689711D01*
X90918937Y-48820814D01*
X90918931Y-48820825D01*
X90858591Y-48966501D01*
X90858591Y-48966503D01*
X90827828Y-49121155D01*
X89428827Y-49121155D01*
X89398065Y-48966503D01*
X89337722Y-48820821D01*
X89337721Y-48820819D01*
X89337718Y-48820814D01*
X89297101Y-48760028D01*
X89250117Y-48689711D01*
X89138617Y-48578211D01*
X89086387Y-48543312D01*
X89007513Y-48490609D01*
X89007502Y-48490603D01*
X88861825Y-48430263D01*
X88707172Y-48399500D01*
X88707170Y-48399500D01*
X88549486Y-48399500D01*
X88549483Y-48399500D01*
X88394831Y-48430263D01*
X88394829Y-48430263D01*
X88249153Y-48490603D01*
X88249142Y-48490609D01*
X88118039Y-48578211D01*
X88118035Y-48578214D01*
X88006542Y-48689707D01*
X88006539Y-48689711D01*
X87918937Y-48820814D01*
X87918931Y-48820825D01*
X87858591Y-48966501D01*
X87858591Y-48966503D01*
X87827828Y-49121155D01*
X82000000Y-49121155D01*
X82000000Y-47599500D01*
X82018907Y-47541309D01*
X82068407Y-47505345D01*
X82099000Y-47500500D01*
X118400500Y-47500500D01*
X118458691Y-47519407D01*
G37*
%TD.AperFunction*%
%TD*%
%TA.AperFunction,Conductor*%
%TO.N,GND*%
G36*
X79959191Y-47519407D02*
G01*
X79995155Y-47568907D01*
X80000000Y-47599500D01*
X80000000Y-97400500D01*
X79981093Y-97458691D01*
X79931593Y-97494655D01*
X79901000Y-97499500D01*
X66677152Y-97499500D01*
X66618961Y-97480593D01*
X66582997Y-97431093D01*
X66582997Y-97369907D01*
X66594837Y-97345498D01*
X66656185Y-97253685D01*
X66656191Y-97253673D01*
X66731570Y-97071690D01*
X66731570Y-97071688D01*
X66769999Y-96878493D01*
X66770000Y-96878490D01*
X66770000Y-96355001D01*
X66769999Y-96355000D01*
X66175000Y-96355000D01*
X66175000Y-96105000D01*
X66769999Y-96105000D01*
X66770000Y-96104999D01*
X66770000Y-95581509D01*
X66769999Y-95581506D01*
X66731570Y-95388311D01*
X66731570Y-95388309D01*
X66656191Y-95206326D01*
X66656185Y-95206314D01*
X66546750Y-95042537D01*
X66546747Y-95042533D01*
X66407466Y-94903252D01*
X66407462Y-94903249D01*
X66243685Y-94793814D01*
X66243673Y-94793808D01*
X66061689Y-94718429D01*
X65895000Y-94685272D01*
X65895000Y-95299206D01*
X65823319Y-95280000D01*
X65716681Y-95280000D01*
X65645000Y-95299206D01*
X65645000Y-94685272D01*
X65478311Y-94718429D01*
X65478309Y-94718429D01*
X65296326Y-94793808D01*
X65296314Y-94793814D01*
X65132537Y-94903249D01*
X65132533Y-94903252D01*
X64993252Y-95042533D01*
X64993249Y-95042537D01*
X64883814Y-95206314D01*
X64883808Y-95206326D01*
X64808429Y-95388309D01*
X64808429Y-95388311D01*
X64770000Y-95581506D01*
X64770000Y-96104999D01*
X64770001Y-96105000D01*
X65365000Y-96105000D01*
X65365000Y-96355000D01*
X64770001Y-96355000D01*
X64770000Y-96355001D01*
X64770000Y-96878493D01*
X64808429Y-97071688D01*
X64808429Y-97071690D01*
X64883808Y-97253673D01*
X64883814Y-97253685D01*
X64945163Y-97345498D01*
X64961772Y-97404386D01*
X64940595Y-97461790D01*
X64889721Y-97495783D01*
X64862848Y-97499500D01*
X58037152Y-97499500D01*
X57978961Y-97480593D01*
X57942997Y-97431093D01*
X57942997Y-97369907D01*
X57954837Y-97345498D01*
X58016185Y-97253685D01*
X58016191Y-97253673D01*
X58091570Y-97071690D01*
X58091570Y-97071688D01*
X58129999Y-96878493D01*
X58130000Y-96878490D01*
X58130000Y-96355001D01*
X58129999Y-96355000D01*
X57535000Y-96355000D01*
X57535000Y-96105000D01*
X58129999Y-96105000D01*
X58130000Y-96104999D01*
X58130000Y-95581509D01*
X58129999Y-95581506D01*
X58091570Y-95388311D01*
X58091570Y-95388309D01*
X58016191Y-95206326D01*
X58016185Y-95206314D01*
X57906750Y-95042537D01*
X57906747Y-95042533D01*
X57767466Y-94903252D01*
X57767462Y-94903249D01*
X57603685Y-94793814D01*
X57603673Y-94793808D01*
X57421689Y-94718429D01*
X57255000Y-94685272D01*
X57255000Y-95299206D01*
X57183319Y-95280000D01*
X57076681Y-95280000D01*
X57005000Y-95299206D01*
X57005000Y-94685272D01*
X56838311Y-94718429D01*
X56838309Y-94718429D01*
X56656326Y-94793808D01*
X56656314Y-94793814D01*
X56492537Y-94903249D01*
X56492533Y-94903252D01*
X56353252Y-95042533D01*
X56353249Y-95042537D01*
X56243814Y-95206314D01*
X56243808Y-95206326D01*
X56168429Y-95388309D01*
X56168429Y-95388311D01*
X56130000Y-95581506D01*
X56130000Y-96104999D01*
X56130001Y-96105000D01*
X56725000Y-96105000D01*
X56725000Y-96355000D01*
X56130001Y-96355000D01*
X56130000Y-96355001D01*
X56130000Y-96878493D01*
X56168429Y-97071688D01*
X56168429Y-97071690D01*
X56243808Y-97253673D01*
X56243814Y-97253685D01*
X56305163Y-97345498D01*
X56321772Y-97404386D01*
X56300595Y-97461790D01*
X56249721Y-97495783D01*
X56222848Y-97499500D01*
X43599500Y-97499500D01*
X43541309Y-97480593D01*
X43505345Y-97431093D01*
X43500500Y-97400500D01*
X43500500Y-94520943D01*
X52199500Y-94520943D01*
X52199500Y-94679057D01*
X52240423Y-94831784D01*
X52319480Y-94968716D01*
X52431284Y-95080520D01*
X52568216Y-95159577D01*
X52720943Y-95200500D01*
X52720945Y-95200500D01*
X52879055Y-95200500D01*
X52879057Y-95200500D01*
X53031784Y-95159577D01*
X53168716Y-95080520D01*
X53280520Y-94968716D01*
X53359577Y-94831784D01*
X53400500Y-94679057D01*
X53400500Y-94520943D01*
X53359577Y-94368216D01*
X53280520Y-94231284D01*
X53168716Y-94119480D01*
X53031784Y-94040423D01*
X52879057Y-93999500D01*
X52720943Y-93999500D01*
X52568216Y-94040423D01*
X52431284Y-94119480D01*
X52319480Y-94231284D01*
X52240423Y-94368216D01*
X52199500Y-94520943D01*
X43500500Y-94520943D01*
X43500500Y-91401506D01*
X56130000Y-91401506D01*
X56130000Y-91924999D01*
X56130001Y-91925000D01*
X56725000Y-91925000D01*
X56725000Y-92175000D01*
X56130001Y-92175000D01*
X56130000Y-92175001D01*
X56130000Y-92698493D01*
X56168429Y-92891688D01*
X56168429Y-92891690D01*
X56243808Y-93073673D01*
X56243814Y-93073685D01*
X56353249Y-93237462D01*
X56353252Y-93237466D01*
X56492533Y-93376747D01*
X56492537Y-93376750D01*
X56656314Y-93486185D01*
X56656326Y-93486191D01*
X56838309Y-93561570D01*
X56838312Y-93561571D01*
X57004999Y-93594726D01*
X57005000Y-93594726D01*
X57005000Y-92980793D01*
X57076681Y-93000000D01*
X57183319Y-93000000D01*
X57255000Y-92980793D01*
X57255000Y-93594726D01*
X57421687Y-93561571D01*
X57421690Y-93561570D01*
X57603673Y-93486191D01*
X57603685Y-93486185D01*
X57767462Y-93376750D01*
X57767466Y-93376747D01*
X57906747Y-93237466D01*
X57906750Y-93237462D01*
X58016183Y-93073686D01*
X58017766Y-93070726D01*
X58018875Y-93069659D01*
X58018892Y-93069634D01*
X58018897Y-93069637D01*
X58061866Y-93028313D01*
X58122473Y-93019921D01*
X58160085Y-93035067D01*
X58161263Y-93035854D01*
X58161267Y-93035858D01*
X58263714Y-93104311D01*
X58377548Y-93151463D01*
X58498394Y-93175500D01*
X58498396Y-93175500D01*
X58621604Y-93175500D01*
X58621606Y-93175500D01*
X58742452Y-93151463D01*
X58856286Y-93104311D01*
X58958733Y-93035858D01*
X59045858Y-92948733D01*
X59114311Y-92846286D01*
X59161463Y-92732452D01*
X59185500Y-92611606D01*
X59185500Y-92488394D01*
X59185499Y-92488391D01*
X63714500Y-92488391D01*
X63714500Y-92611608D01*
X63738536Y-92732450D01*
X63785688Y-92846285D01*
X63785689Y-92846286D01*
X63854142Y-92948733D01*
X63941267Y-93035858D01*
X64043714Y-93104311D01*
X64157548Y-93151463D01*
X64278394Y-93175500D01*
X64278396Y-93175500D01*
X64401604Y-93175500D01*
X64401606Y-93175500D01*
X64522452Y-93151463D01*
X64636286Y-93104311D01*
X64738733Y-93035858D01*
X64738738Y-93035852D01*
X64739914Y-93035067D01*
X64798802Y-93018458D01*
X64856205Y-93039635D01*
X64882223Y-93070708D01*
X64883809Y-93073675D01*
X64993249Y-93237462D01*
X64993252Y-93237466D01*
X65132533Y-93376747D01*
X65132537Y-93376750D01*
X65296314Y-93486185D01*
X65296326Y-93486191D01*
X65478309Y-93561570D01*
X65478312Y-93561571D01*
X65644999Y-93594726D01*
X65645000Y-93594726D01*
X65645000Y-92980793D01*
X65716681Y-93000000D01*
X65823319Y-93000000D01*
X65895000Y-92980793D01*
X65895000Y-93594726D01*
X66061687Y-93561571D01*
X66061690Y-93561570D01*
X66243673Y-93486191D01*
X66243685Y-93486185D01*
X66407462Y-93376750D01*
X66407466Y-93376747D01*
X66546747Y-93237466D01*
X66546750Y-93237462D01*
X66656185Y-93073685D01*
X66656191Y-93073673D01*
X66731570Y-92891690D01*
X66731570Y-92891688D01*
X66769999Y-92698493D01*
X66770000Y-92698490D01*
X66770000Y-92175001D01*
X66769999Y-92175000D01*
X66175000Y-92175000D01*
X66175000Y-91925000D01*
X66769999Y-91925000D01*
X66770000Y-91924999D01*
X66770000Y-91401509D01*
X66769999Y-91401506D01*
X66731570Y-91208311D01*
X66731570Y-91208309D01*
X66656191Y-91026326D01*
X66656185Y-91026314D01*
X66546750Y-90862537D01*
X66546747Y-90862533D01*
X66407466Y-90723252D01*
X66407462Y-90723249D01*
X66243685Y-90613814D01*
X66243673Y-90613808D01*
X66061689Y-90538429D01*
X65895000Y-90505272D01*
X65895000Y-91119206D01*
X65823319Y-91100000D01*
X65716681Y-91100000D01*
X65645000Y-91119206D01*
X65645000Y-90505272D01*
X65478311Y-90538429D01*
X65478309Y-90538429D01*
X65296326Y-90613808D01*
X65296314Y-90613814D01*
X65132537Y-90723249D01*
X65132533Y-90723252D01*
X64993252Y-90862533D01*
X64993249Y-90862537D01*
X64883814Y-91026314D01*
X64883808Y-91026326D01*
X64808429Y-91208309D01*
X64808429Y-91208311D01*
X64770000Y-91401506D01*
X64770000Y-91902911D01*
X64751093Y-91961102D01*
X64701593Y-91997066D01*
X64640407Y-91997066D01*
X64633114Y-91994375D01*
X64522450Y-91948536D01*
X64401608Y-91924500D01*
X64401606Y-91924500D01*
X64278394Y-91924500D01*
X64278391Y-91924500D01*
X64157549Y-91948536D01*
X64043714Y-91995688D01*
X63941267Y-92064142D01*
X63941263Y-92064145D01*
X63854145Y-92151263D01*
X63854142Y-92151267D01*
X63785688Y-92253714D01*
X63738536Y-92367549D01*
X63714500Y-92488391D01*
X59185499Y-92488391D01*
X59161463Y-92367548D01*
X59114311Y-92253714D01*
X59045858Y-92151267D01*
X58958733Y-92064142D01*
X58856286Y-91995689D01*
X58856287Y-91995689D01*
X58856285Y-91995688D01*
X58742450Y-91948536D01*
X58621608Y-91924500D01*
X58621606Y-91924500D01*
X58498394Y-91924500D01*
X58498391Y-91924500D01*
X58377549Y-91948536D01*
X58266886Y-91994375D01*
X58205889Y-91999176D01*
X58153720Y-91967206D01*
X58130305Y-91910678D01*
X58130000Y-91902911D01*
X58130000Y-91401509D01*
X58129999Y-91401506D01*
X58091570Y-91208311D01*
X58091570Y-91208309D01*
X58016191Y-91026326D01*
X58016185Y-91026314D01*
X57906750Y-90862537D01*
X57906747Y-90862533D01*
X57767466Y-90723252D01*
X57767462Y-90723249D01*
X57603685Y-90613814D01*
X57603673Y-90613808D01*
X57421689Y-90538429D01*
X57255000Y-90505272D01*
X57255000Y-91119206D01*
X57183319Y-91100000D01*
X57076681Y-91100000D01*
X57005000Y-91119206D01*
X57005000Y-90505272D01*
X56838311Y-90538429D01*
X56838309Y-90538429D01*
X56656326Y-90613808D01*
X56656314Y-90613814D01*
X56492537Y-90723249D01*
X56492533Y-90723252D01*
X56353252Y-90862533D01*
X56353249Y-90862537D01*
X56243814Y-91026314D01*
X56243808Y-91026326D01*
X56168429Y-91208309D01*
X56168429Y-91208311D01*
X56130000Y-91401506D01*
X43500500Y-91401506D01*
X43500500Y-89250943D01*
X59199500Y-89250943D01*
X59199500Y-89409057D01*
X59240423Y-89561784D01*
X59319480Y-89698716D01*
X59431284Y-89810520D01*
X59568216Y-89889577D01*
X59720943Y-89930500D01*
X59720945Y-89930500D01*
X59879055Y-89930500D01*
X59879057Y-89930500D01*
X60031784Y-89889577D01*
X60168716Y-89810520D01*
X60280520Y-89698716D01*
X60359577Y-89561784D01*
X60400500Y-89409057D01*
X60400500Y-89250943D01*
X61599500Y-89250943D01*
X61599500Y-89409057D01*
X61640423Y-89561784D01*
X61719480Y-89698716D01*
X61831284Y-89810520D01*
X61968216Y-89889577D01*
X62120943Y-89930500D01*
X62120945Y-89930500D01*
X62279055Y-89930500D01*
X62279057Y-89930500D01*
X62431784Y-89889577D01*
X62568716Y-89810520D01*
X62615128Y-89764108D01*
X73699500Y-89764108D01*
X73699500Y-89895892D01*
X73708773Y-89930500D01*
X73733609Y-90023190D01*
X73799496Y-90137309D01*
X73799498Y-90137311D01*
X73799500Y-90137314D01*
X73892686Y-90230500D01*
X73892688Y-90230501D01*
X73892690Y-90230503D01*
X74006810Y-90296390D01*
X74006808Y-90296390D01*
X74006812Y-90296391D01*
X74006814Y-90296392D01*
X74134108Y-90330500D01*
X74134110Y-90330500D01*
X74265890Y-90330500D01*
X74265892Y-90330500D01*
X74393186Y-90296392D01*
X74393188Y-90296390D01*
X74393190Y-90296390D01*
X74507309Y-90230503D01*
X74507309Y-90230502D01*
X74507314Y-90230500D01*
X74600500Y-90137314D01*
X74666392Y-90023186D01*
X74700500Y-89895892D01*
X74700500Y-89764108D01*
X74666392Y-89636814D01*
X74666390Y-89636811D01*
X74666390Y-89636809D01*
X74600503Y-89522690D01*
X74600501Y-89522688D01*
X74600500Y-89522686D01*
X74507314Y-89429500D01*
X74507311Y-89429498D01*
X74507309Y-89429496D01*
X74393189Y-89363609D01*
X74393191Y-89363609D01*
X74343799Y-89350375D01*
X74265892Y-89329500D01*
X74134108Y-89329500D01*
X74056200Y-89350375D01*
X74006809Y-89363609D01*
X73892690Y-89429496D01*
X73799496Y-89522690D01*
X73733609Y-89636809D01*
X73733608Y-89636814D01*
X73699500Y-89764108D01*
X62615128Y-89764108D01*
X62680520Y-89698716D01*
X62759577Y-89561784D01*
X62800500Y-89409057D01*
X62800500Y-89255478D01*
X74751297Y-89255478D01*
X74818428Y-89300333D01*
X74945816Y-89353098D01*
X75081055Y-89379999D01*
X75081057Y-89380000D01*
X75218943Y-89380000D01*
X75218944Y-89379999D01*
X75354183Y-89353098D01*
X75481571Y-89300333D01*
X75548701Y-89255478D01*
X75149999Y-88856776D01*
X74751297Y-89255478D01*
X62800500Y-89255478D01*
X62800500Y-89250943D01*
X62759577Y-89098216D01*
X62680520Y-88961284D01*
X62568716Y-88849480D01*
X62431784Y-88770423D01*
X62279057Y-88729500D01*
X62120943Y-88729500D01*
X61968216Y-88770423D01*
X61831284Y-88849480D01*
X61719480Y-88961284D01*
X61640423Y-89098216D01*
X61599500Y-89250943D01*
X60400500Y-89250943D01*
X60359577Y-89098216D01*
X60280520Y-88961284D01*
X60168716Y-88849480D01*
X60031784Y-88770423D01*
X59879057Y-88729500D01*
X59720943Y-88729500D01*
X59568216Y-88770423D01*
X59431284Y-88849480D01*
X59319480Y-88961284D01*
X59240423Y-89098216D01*
X59199500Y-89250943D01*
X43500500Y-89250943D01*
X43500500Y-88611055D01*
X74450000Y-88611055D01*
X74450000Y-88748944D01*
X74476901Y-88884183D01*
X74529666Y-89011571D01*
X74574521Y-89078701D01*
X74973223Y-88680000D01*
X74943386Y-88650163D01*
X75000000Y-88650163D01*
X75000000Y-88709837D01*
X75022836Y-88764968D01*
X75065032Y-88807164D01*
X75120163Y-88830000D01*
X75179837Y-88830000D01*
X75234968Y-88807164D01*
X75277164Y-88764968D01*
X75300000Y-88709837D01*
X75300000Y-88679999D01*
X75326776Y-88679999D01*
X75725478Y-89078701D01*
X75770333Y-89011571D01*
X75823098Y-88884183D01*
X75849999Y-88748944D01*
X75850000Y-88748942D01*
X75850000Y-88611057D01*
X75849999Y-88611055D01*
X75823098Y-88475816D01*
X75770333Y-88348428D01*
X75725477Y-88281296D01*
X75326776Y-88679999D01*
X75300000Y-88679999D01*
X75300000Y-88650163D01*
X75277164Y-88595032D01*
X75234968Y-88552836D01*
X75179837Y-88530000D01*
X75120163Y-88530000D01*
X75065032Y-88552836D01*
X75022836Y-88595032D01*
X75000000Y-88650163D01*
X74943386Y-88650163D01*
X74574520Y-88281297D01*
X74529666Y-88348427D01*
X74476901Y-88475816D01*
X74450000Y-88611055D01*
X43500500Y-88611055D01*
X43500500Y-88180000D01*
X74826777Y-88180000D01*
X75150000Y-88503223D01*
X75473223Y-88180000D01*
X75150000Y-87856777D01*
X74826777Y-88180000D01*
X43500500Y-88180000D01*
X43500500Y-87611055D01*
X74450000Y-87611055D01*
X74450000Y-87748944D01*
X74476901Y-87884183D01*
X74529666Y-88011571D01*
X74574520Y-88078700D01*
X74584232Y-88068989D01*
X74584234Y-88068987D01*
X74973223Y-87680000D01*
X74943386Y-87650163D01*
X75000000Y-87650163D01*
X75000000Y-87709837D01*
X75022836Y-87764968D01*
X75065032Y-87807164D01*
X75120163Y-87830000D01*
X75179837Y-87830000D01*
X75234968Y-87807164D01*
X75277164Y-87764968D01*
X75300000Y-87709837D01*
X75300000Y-87679999D01*
X75326776Y-87679999D01*
X75725478Y-88078701D01*
X75770333Y-88011571D01*
X75823098Y-87884183D01*
X75849999Y-87748944D01*
X75850000Y-87748942D01*
X75850000Y-87611057D01*
X75849999Y-87611055D01*
X75823098Y-87475816D01*
X75770333Y-87348428D01*
X75725478Y-87281297D01*
X75326776Y-87679999D01*
X75300000Y-87679999D01*
X75300000Y-87650163D01*
X75277164Y-87595032D01*
X75234968Y-87552836D01*
X75179837Y-87530000D01*
X75120163Y-87530000D01*
X75065032Y-87552836D01*
X75022836Y-87595032D01*
X75000000Y-87650163D01*
X74943386Y-87650163D01*
X74574520Y-87281297D01*
X74529666Y-87348427D01*
X74476901Y-87475816D01*
X74450000Y-87611055D01*
X43500500Y-87611055D01*
X43500500Y-87104520D01*
X74751297Y-87104520D01*
X75150000Y-87503223D01*
X75548701Y-87104521D01*
X75481571Y-87059666D01*
X75354183Y-87006901D01*
X75218944Y-86980000D01*
X75081055Y-86980000D01*
X74945816Y-87006901D01*
X74818427Y-87059666D01*
X74751297Y-87104520D01*
X43500500Y-87104520D01*
X43500500Y-86421155D01*
X76799500Y-86421155D01*
X76799500Y-86578844D01*
X76830263Y-86733496D01*
X76830263Y-86733498D01*
X76890603Y-86879174D01*
X76890609Y-86879185D01*
X76943312Y-86958059D01*
X76978211Y-87010289D01*
X77089711Y-87121789D01*
X77167876Y-87174017D01*
X77220814Y-87209390D01*
X77220825Y-87209396D01*
X77274638Y-87231685D01*
X77366503Y-87269737D01*
X77521158Y-87300500D01*
X77521159Y-87300500D01*
X77678841Y-87300500D01*
X77678842Y-87300500D01*
X77833497Y-87269737D01*
X77979179Y-87209394D01*
X78110289Y-87121789D01*
X78221789Y-87010289D01*
X78309394Y-86879179D01*
X78369737Y-86733497D01*
X78400500Y-86578842D01*
X78400500Y-86421158D01*
X78369737Y-86266503D01*
X78309394Y-86120821D01*
X78309393Y-86120819D01*
X78309390Y-86120814D01*
X78268471Y-86059576D01*
X78221789Y-85989711D01*
X78110289Y-85878211D01*
X78058059Y-85843312D01*
X77979185Y-85790609D01*
X77979174Y-85790603D01*
X77833497Y-85730263D01*
X77678844Y-85699500D01*
X77678842Y-85699500D01*
X77521158Y-85699500D01*
X77521155Y-85699500D01*
X77366503Y-85730263D01*
X77366501Y-85730263D01*
X77220825Y-85790603D01*
X77220814Y-85790609D01*
X77089711Y-85878211D01*
X77089707Y-85878214D01*
X76978214Y-85989707D01*
X76978211Y-85989711D01*
X76890609Y-86120814D01*
X76890603Y-86120825D01*
X76830263Y-86266501D01*
X76830263Y-86266503D01*
X76799500Y-86421155D01*
X43500500Y-86421155D01*
X43500500Y-85420943D01*
X68799500Y-85420943D01*
X68799500Y-85579057D01*
X68840423Y-85731784D01*
X68919480Y-85868716D01*
X69031284Y-85980520D01*
X69168216Y-86059577D01*
X69320943Y-86100500D01*
X69320945Y-86100500D01*
X69479055Y-86100500D01*
X69479057Y-86100500D01*
X69631784Y-86059577D01*
X69768716Y-85980520D01*
X69880520Y-85868716D01*
X69959577Y-85731784D01*
X70000500Y-85579057D01*
X70000500Y-85420943D01*
X70399500Y-85420943D01*
X70399500Y-85579057D01*
X70440423Y-85731784D01*
X70519480Y-85868716D01*
X70631284Y-85980520D01*
X70768216Y-86059577D01*
X70920943Y-86100500D01*
X70920945Y-86100500D01*
X71079055Y-86100500D01*
X71079057Y-86100500D01*
X71231784Y-86059577D01*
X71368716Y-85980520D01*
X71480520Y-85868716D01*
X71559577Y-85731784D01*
X71600500Y-85579057D01*
X71600500Y-85420943D01*
X71559577Y-85268216D01*
X71480520Y-85131284D01*
X71368716Y-85019480D01*
X71231784Y-84940423D01*
X71079057Y-84899500D01*
X70920943Y-84899500D01*
X70768216Y-84940423D01*
X70631284Y-85019480D01*
X70519480Y-85131284D01*
X70440423Y-85268216D01*
X70399500Y-85420943D01*
X70000500Y-85420943D01*
X69959577Y-85268216D01*
X69880520Y-85131284D01*
X69768716Y-85019480D01*
X69631784Y-84940423D01*
X69479057Y-84899500D01*
X69320943Y-84899500D01*
X69168216Y-84940423D01*
X69031284Y-85019480D01*
X68919480Y-85131284D01*
X68840423Y-85268216D01*
X68799500Y-85420943D01*
X43500500Y-85420943D01*
X43500500Y-83720943D01*
X68799500Y-83720943D01*
X68799500Y-83879057D01*
X68840423Y-84031784D01*
X68919480Y-84168716D01*
X69031284Y-84280520D01*
X69168216Y-84359577D01*
X69320943Y-84400500D01*
X69320945Y-84400500D01*
X69479055Y-84400500D01*
X69479057Y-84400500D01*
X69631784Y-84359577D01*
X69768716Y-84280520D01*
X69880520Y-84168716D01*
X69959577Y-84031784D01*
X70000500Y-83879057D01*
X70000500Y-83720943D01*
X70399500Y-83720943D01*
X70399500Y-83879057D01*
X70440423Y-84031784D01*
X70519480Y-84168716D01*
X70631284Y-84280520D01*
X70768216Y-84359577D01*
X70920943Y-84400500D01*
X70920945Y-84400500D01*
X71079055Y-84400500D01*
X71079057Y-84400500D01*
X71231784Y-84359577D01*
X71368716Y-84280520D01*
X71480520Y-84168716D01*
X71559577Y-84031784D01*
X71600500Y-83879057D01*
X71600500Y-83814108D01*
X74999500Y-83814108D01*
X74999500Y-83945892D01*
X75029579Y-84058151D01*
X75033609Y-84073190D01*
X75099496Y-84187309D01*
X75099498Y-84187311D01*
X75099500Y-84187314D01*
X75192686Y-84280500D01*
X75192688Y-84280501D01*
X75192690Y-84280503D01*
X75306810Y-84346390D01*
X75306808Y-84346390D01*
X75306812Y-84346391D01*
X75306814Y-84346392D01*
X75434108Y-84380500D01*
X75434110Y-84380500D01*
X75565890Y-84380500D01*
X75565892Y-84380500D01*
X75693186Y-84346392D01*
X75693188Y-84346390D01*
X75693190Y-84346390D01*
X75807309Y-84280503D01*
X75807309Y-84280502D01*
X75807314Y-84280500D01*
X75900500Y-84187314D01*
X75966392Y-84073186D01*
X76000500Y-83945892D01*
X76000500Y-83814108D01*
X75966392Y-83686814D01*
X75966390Y-83686811D01*
X75966390Y-83686809D01*
X75900503Y-83572690D01*
X75900501Y-83572688D01*
X75900500Y-83572686D01*
X75807314Y-83479500D01*
X75807311Y-83479498D01*
X75807309Y-83479496D01*
X75693189Y-83413609D01*
X75693191Y-83413609D01*
X75643799Y-83400375D01*
X75565892Y-83379500D01*
X75434108Y-83379500D01*
X75356200Y-83400375D01*
X75306809Y-83413609D01*
X75192690Y-83479496D01*
X75099496Y-83572690D01*
X75033609Y-83686809D01*
X75033608Y-83686814D01*
X74999500Y-83814108D01*
X71600500Y-83814108D01*
X71600500Y-83720943D01*
X71559577Y-83568216D01*
X71480520Y-83431284D01*
X71368716Y-83319480D01*
X71231784Y-83240423D01*
X71079057Y-83199500D01*
X70920943Y-83199500D01*
X70768216Y-83240423D01*
X70631284Y-83319480D01*
X70519480Y-83431284D01*
X70440423Y-83568216D01*
X70399500Y-83720943D01*
X70000500Y-83720943D01*
X69959577Y-83568216D01*
X69880520Y-83431284D01*
X69768716Y-83319480D01*
X69631784Y-83240423D01*
X69479057Y-83199500D01*
X69320943Y-83199500D01*
X69168216Y-83240423D01*
X69031284Y-83319480D01*
X68919480Y-83431284D01*
X68840423Y-83568216D01*
X68799500Y-83720943D01*
X43500500Y-83720943D01*
X43500500Y-76850943D01*
X67699500Y-76850943D01*
X67699500Y-77009057D01*
X67740423Y-77161784D01*
X67819480Y-77298716D01*
X67931284Y-77410520D01*
X68068216Y-77489577D01*
X68220943Y-77530500D01*
X68220945Y-77530500D01*
X68379055Y-77530500D01*
X68379057Y-77530500D01*
X68531784Y-77489577D01*
X68668716Y-77410520D01*
X68780520Y-77298716D01*
X68859577Y-77161784D01*
X68900500Y-77009057D01*
X68900500Y-76850943D01*
X68859577Y-76698216D01*
X68780520Y-76561284D01*
X68668716Y-76449480D01*
X68531784Y-76370423D01*
X68379057Y-76329500D01*
X68220943Y-76329500D01*
X68068216Y-76370423D01*
X67931284Y-76449480D01*
X67819480Y-76561284D01*
X67740423Y-76698216D01*
X67699500Y-76850943D01*
X43500500Y-76850943D01*
X43500500Y-75950943D01*
X60699500Y-75950943D01*
X60699500Y-76109057D01*
X60740423Y-76261784D01*
X60819480Y-76398716D01*
X60931284Y-76510520D01*
X61068216Y-76589577D01*
X61220943Y-76630500D01*
X61220945Y-76630500D01*
X61379055Y-76630500D01*
X61379057Y-76630500D01*
X61531784Y-76589577D01*
X61668716Y-76510520D01*
X61780520Y-76398716D01*
X61859577Y-76261784D01*
X61900500Y-76109057D01*
X61900500Y-75950943D01*
X63199500Y-75950943D01*
X63199500Y-76109057D01*
X63240423Y-76261784D01*
X63319480Y-76398716D01*
X63431284Y-76510520D01*
X63568216Y-76589577D01*
X63720943Y-76630500D01*
X63720945Y-76630500D01*
X63879055Y-76630500D01*
X63879057Y-76630500D01*
X64031784Y-76589577D01*
X64168716Y-76510520D01*
X64280520Y-76398716D01*
X64359577Y-76261784D01*
X64400500Y-76109057D01*
X64400500Y-75950943D01*
X64359577Y-75798216D01*
X64280520Y-75661284D01*
X64168716Y-75549480D01*
X64031784Y-75470423D01*
X63879057Y-75429500D01*
X63720943Y-75429500D01*
X63568216Y-75470423D01*
X63431284Y-75549480D01*
X63319480Y-75661284D01*
X63240423Y-75798216D01*
X63199500Y-75950943D01*
X61900500Y-75950943D01*
X61859577Y-75798216D01*
X61780520Y-75661284D01*
X61668716Y-75549480D01*
X61531784Y-75470423D01*
X61379057Y-75429500D01*
X61220943Y-75429500D01*
X61068216Y-75470423D01*
X60931284Y-75549480D01*
X60819480Y-75661284D01*
X60740423Y-75798216D01*
X60699500Y-75950943D01*
X43500500Y-75950943D01*
X43500500Y-74720943D01*
X55299500Y-74720943D01*
X55299500Y-74879057D01*
X55340423Y-75031784D01*
X55419480Y-75168716D01*
X55531284Y-75280520D01*
X55668216Y-75359577D01*
X55820943Y-75400500D01*
X55820945Y-75400500D01*
X55979055Y-75400500D01*
X55979057Y-75400500D01*
X56131784Y-75359577D01*
X56268716Y-75280520D01*
X56380520Y-75168716D01*
X56459577Y-75031784D01*
X56500500Y-74879057D01*
X56500500Y-74720943D01*
X56459577Y-74568216D01*
X56380520Y-74431284D01*
X56268716Y-74319480D01*
X56131784Y-74240423D01*
X55979057Y-74199500D01*
X55820943Y-74199500D01*
X55668216Y-74240423D01*
X55531284Y-74319480D01*
X55419480Y-74431284D01*
X55340423Y-74568216D01*
X55299500Y-74720943D01*
X43500500Y-74720943D01*
X43500500Y-73720943D01*
X53299500Y-73720943D01*
X53299500Y-73879057D01*
X53340423Y-74031784D01*
X53419480Y-74168716D01*
X53531284Y-74280520D01*
X53668216Y-74359577D01*
X53820943Y-74400500D01*
X53820945Y-74400500D01*
X53979055Y-74400500D01*
X53979057Y-74400500D01*
X54131784Y-74359577D01*
X54268716Y-74280520D01*
X54380520Y-74168716D01*
X54448516Y-74050943D01*
X57999500Y-74050943D01*
X57999500Y-74209057D01*
X58040423Y-74361784D01*
X58119480Y-74498716D01*
X58231284Y-74610520D01*
X58368216Y-74689577D01*
X58520943Y-74730500D01*
X58520945Y-74730500D01*
X58679055Y-74730500D01*
X58679057Y-74730500D01*
X58831784Y-74689577D01*
X58968716Y-74610520D01*
X59080520Y-74498716D01*
X59159577Y-74361784D01*
X59200500Y-74209057D01*
X59200500Y-74064108D01*
X71099500Y-74064108D01*
X71099500Y-74195892D01*
X71100467Y-74199500D01*
X71133609Y-74323190D01*
X71199496Y-74437309D01*
X71199498Y-74437311D01*
X71199500Y-74437314D01*
X71292686Y-74530500D01*
X71292688Y-74530501D01*
X71292690Y-74530503D01*
X71406810Y-74596390D01*
X71406808Y-74596390D01*
X71406812Y-74596391D01*
X71406814Y-74596392D01*
X71534108Y-74630500D01*
X71534110Y-74630500D01*
X71665890Y-74630500D01*
X71665892Y-74630500D01*
X71793186Y-74596392D01*
X71793188Y-74596390D01*
X71793190Y-74596390D01*
X71907309Y-74530503D01*
X71907309Y-74530502D01*
X71907314Y-74530500D01*
X72000500Y-74437314D01*
X72000503Y-74437309D01*
X72066390Y-74323190D01*
X72066390Y-74323188D01*
X72066392Y-74323186D01*
X72100500Y-74195892D01*
X72100500Y-74064108D01*
X72066392Y-73936814D01*
X72066390Y-73936811D01*
X72066390Y-73936809D01*
X72000503Y-73822690D01*
X72000501Y-73822688D01*
X72000500Y-73822686D01*
X71907314Y-73729500D01*
X71907311Y-73729498D01*
X71907309Y-73729496D01*
X71793189Y-73663609D01*
X71793191Y-73663609D01*
X71740459Y-73649480D01*
X71665892Y-73629500D01*
X71534108Y-73629500D01*
X71459541Y-73649480D01*
X71406809Y-73663609D01*
X71292690Y-73729496D01*
X71199496Y-73822690D01*
X71133609Y-73936809D01*
X71133608Y-73936814D01*
X71099500Y-74064108D01*
X59200500Y-74064108D01*
X59200500Y-74050943D01*
X59159577Y-73898216D01*
X59080520Y-73761284D01*
X58968716Y-73649480D01*
X58831784Y-73570423D01*
X58679057Y-73529500D01*
X58520943Y-73529500D01*
X58368216Y-73570423D01*
X58231284Y-73649480D01*
X58119480Y-73761284D01*
X58040423Y-73898216D01*
X57999500Y-74050943D01*
X54448516Y-74050943D01*
X54459577Y-74031784D01*
X54500500Y-73879057D01*
X54500500Y-73720943D01*
X54459577Y-73568216D01*
X54380520Y-73431284D01*
X54268716Y-73319480D01*
X54131784Y-73240423D01*
X53979057Y-73199500D01*
X53820943Y-73199500D01*
X53668216Y-73240423D01*
X53531284Y-73319480D01*
X53419480Y-73431284D01*
X53340423Y-73568216D01*
X53299500Y-73720943D01*
X43500500Y-73720943D01*
X43500500Y-72630943D01*
X64519500Y-72630943D01*
X64519500Y-72789057D01*
X64560423Y-72941784D01*
X64639480Y-73078716D01*
X64751284Y-73190520D01*
X64888216Y-73269577D01*
X65040943Y-73310500D01*
X65040945Y-73310500D01*
X65199055Y-73310500D01*
X65199057Y-73310500D01*
X65351784Y-73269577D01*
X65488716Y-73190520D01*
X65600520Y-73078716D01*
X65679577Y-72941784D01*
X65720500Y-72789057D01*
X65720500Y-72630943D01*
X65679577Y-72478216D01*
X65600520Y-72341284D01*
X65488716Y-72229480D01*
X65351784Y-72150423D01*
X65199057Y-72109500D01*
X65040943Y-72109500D01*
X64888216Y-72150423D01*
X64751284Y-72229480D01*
X64639480Y-72341284D01*
X64560423Y-72478216D01*
X64519500Y-72630943D01*
X43500500Y-72630943D01*
X43500500Y-71750943D01*
X67899500Y-71750943D01*
X67899500Y-71909057D01*
X67940423Y-72061784D01*
X68019480Y-72198716D01*
X68131284Y-72310520D01*
X68268216Y-72389577D01*
X68420943Y-72430500D01*
X68420945Y-72430500D01*
X68579055Y-72430500D01*
X68579057Y-72430500D01*
X68731784Y-72389577D01*
X68868716Y-72310520D01*
X68980520Y-72198716D01*
X69059577Y-72061784D01*
X69100500Y-71909057D01*
X69100500Y-71750943D01*
X69059577Y-71598216D01*
X68980520Y-71461284D01*
X68868716Y-71349480D01*
X68731784Y-71270423D01*
X68579057Y-71229500D01*
X68420943Y-71229500D01*
X68268216Y-71270423D01*
X68131284Y-71349480D01*
X68019480Y-71461284D01*
X67940423Y-71598216D01*
X67899500Y-71750943D01*
X43500500Y-71750943D01*
X43500500Y-69750943D01*
X44699500Y-69750943D01*
X44699500Y-69909057D01*
X44740423Y-70061784D01*
X44819480Y-70198716D01*
X44931284Y-70310520D01*
X45068216Y-70389577D01*
X45220943Y-70430500D01*
X45220945Y-70430500D01*
X45379055Y-70430500D01*
X45379057Y-70430500D01*
X45531784Y-70389577D01*
X45668716Y-70310520D01*
X45780520Y-70198716D01*
X45859577Y-70061784D01*
X45900500Y-69909057D01*
X45900500Y-69750943D01*
X45877233Y-69664108D01*
X46599500Y-69664108D01*
X46599500Y-69795892D01*
X46629579Y-69908151D01*
X46633609Y-69923190D01*
X46699496Y-70037309D01*
X46699498Y-70037311D01*
X46699500Y-70037314D01*
X46792686Y-70130500D01*
X46792688Y-70130501D01*
X46792690Y-70130503D01*
X46906810Y-70196390D01*
X46906808Y-70196390D01*
X46906812Y-70196391D01*
X46906814Y-70196392D01*
X47034108Y-70230500D01*
X47034110Y-70230500D01*
X47165890Y-70230500D01*
X47165892Y-70230500D01*
X47293186Y-70196392D01*
X47293188Y-70196390D01*
X47293190Y-70196390D01*
X47407309Y-70130503D01*
X47407309Y-70130502D01*
X47407314Y-70130500D01*
X47500500Y-70037314D01*
X47566392Y-69923186D01*
X47600500Y-69795892D01*
X47600500Y-69664108D01*
X47566392Y-69536814D01*
X47566390Y-69536811D01*
X47566390Y-69536809D01*
X47500503Y-69422690D01*
X47500501Y-69422688D01*
X47500500Y-69422686D01*
X47407314Y-69329500D01*
X47407311Y-69329498D01*
X47407309Y-69329496D01*
X47293189Y-69263609D01*
X47293191Y-69263609D01*
X47243799Y-69250375D01*
X47165892Y-69229500D01*
X47034108Y-69229500D01*
X46956200Y-69250375D01*
X46906809Y-69263609D01*
X46792690Y-69329496D01*
X46699496Y-69422690D01*
X46633609Y-69536809D01*
X46614539Y-69607978D01*
X46599500Y-69664108D01*
X45877233Y-69664108D01*
X45859577Y-69598216D01*
X45780520Y-69461284D01*
X45668716Y-69349480D01*
X45531784Y-69270423D01*
X45379057Y-69229500D01*
X45220943Y-69229500D01*
X45068216Y-69270423D01*
X44931284Y-69349480D01*
X44819480Y-69461284D01*
X44740423Y-69598216D01*
X44699500Y-69750943D01*
X43500500Y-69750943D01*
X43500500Y-68950943D01*
X56199500Y-68950943D01*
X56199500Y-69109057D01*
X56240423Y-69261784D01*
X56319480Y-69398716D01*
X56431284Y-69510520D01*
X56568216Y-69589577D01*
X56720943Y-69630500D01*
X56720945Y-69630500D01*
X56879055Y-69630500D01*
X56879057Y-69630500D01*
X57031784Y-69589577D01*
X57168716Y-69510520D01*
X57280520Y-69398716D01*
X57359577Y-69261784D01*
X57400500Y-69109057D01*
X57400500Y-68950943D01*
X57359577Y-68798216D01*
X57280520Y-68661284D01*
X57168716Y-68549480D01*
X57031784Y-68470423D01*
X56879057Y-68429500D01*
X56720943Y-68429500D01*
X56568216Y-68470423D01*
X56431284Y-68549480D01*
X56319480Y-68661284D01*
X56240423Y-68798216D01*
X56199500Y-68950943D01*
X43500500Y-68950943D01*
X43500500Y-68250943D01*
X63999500Y-68250943D01*
X63999500Y-68409057D01*
X64040423Y-68561784D01*
X64119480Y-68698716D01*
X64231284Y-68810520D01*
X64368216Y-68889577D01*
X64520943Y-68930500D01*
X64520945Y-68930500D01*
X64679055Y-68930500D01*
X64679057Y-68930500D01*
X64831784Y-68889577D01*
X64968716Y-68810520D01*
X65080520Y-68698716D01*
X65159577Y-68561784D01*
X65200500Y-68409057D01*
X65200500Y-68250943D01*
X65159577Y-68098216D01*
X65139885Y-68064108D01*
X74699500Y-68064108D01*
X74699500Y-68195892D01*
X74714251Y-68250943D01*
X74733609Y-68323190D01*
X74799496Y-68437309D01*
X74799498Y-68437311D01*
X74799500Y-68437314D01*
X74892686Y-68530500D01*
X74892688Y-68530501D01*
X74892690Y-68530503D01*
X75006810Y-68596390D01*
X75006808Y-68596390D01*
X75006812Y-68596391D01*
X75006814Y-68596392D01*
X75134108Y-68630500D01*
X75134110Y-68630500D01*
X75265890Y-68630500D01*
X75265892Y-68630500D01*
X75393186Y-68596392D01*
X75393188Y-68596390D01*
X75393190Y-68596390D01*
X75507309Y-68530503D01*
X75507309Y-68530502D01*
X75507314Y-68530500D01*
X75600500Y-68437314D01*
X75600503Y-68437309D01*
X75666390Y-68323190D01*
X75666390Y-68323188D01*
X75666392Y-68323186D01*
X75700500Y-68195892D01*
X75700500Y-68064108D01*
X75666392Y-67936814D01*
X75666390Y-67936811D01*
X75666390Y-67936809D01*
X75600503Y-67822690D01*
X75600501Y-67822688D01*
X75600500Y-67822686D01*
X75507314Y-67729500D01*
X75507311Y-67729498D01*
X75507309Y-67729496D01*
X75393189Y-67663609D01*
X75393191Y-67663609D01*
X75343799Y-67650375D01*
X75265892Y-67629500D01*
X75134108Y-67629500D01*
X75056200Y-67650375D01*
X75006809Y-67663609D01*
X74892690Y-67729496D01*
X74799496Y-67822690D01*
X74733609Y-67936809D01*
X74733608Y-67936814D01*
X74699500Y-68064108D01*
X65139885Y-68064108D01*
X65080520Y-67961284D01*
X64968716Y-67849480D01*
X64831784Y-67770423D01*
X64679057Y-67729500D01*
X64520943Y-67729500D01*
X64368216Y-67770423D01*
X64231284Y-67849480D01*
X64119480Y-67961284D01*
X64040423Y-68098216D01*
X63999500Y-68250943D01*
X43500500Y-68250943D01*
X43500500Y-65656532D01*
X43949500Y-65656532D01*
X43949500Y-65863467D01*
X43989869Y-66066418D01*
X44069058Y-66257597D01*
X44069059Y-66257598D01*
X44184023Y-66429655D01*
X44330345Y-66575977D01*
X44502402Y-66690941D01*
X44693580Y-66770130D01*
X44896535Y-66810500D01*
X44896536Y-66810500D01*
X45103464Y-66810500D01*
X45103465Y-66810500D01*
X45306420Y-66770130D01*
X45497598Y-66690941D01*
X45669655Y-66575977D01*
X45815977Y-66429655D01*
X45930941Y-66257598D01*
X46010130Y-66066420D01*
X46050500Y-65863465D01*
X46050500Y-65656535D01*
X46010130Y-65453580D01*
X45930941Y-65262402D01*
X45865264Y-65164108D01*
X57699500Y-65164108D01*
X57699500Y-65295892D01*
X57729579Y-65408151D01*
X57733609Y-65423190D01*
X57799496Y-65537309D01*
X57799498Y-65537311D01*
X57799500Y-65537314D01*
X57892686Y-65630500D01*
X57892688Y-65630501D01*
X57892690Y-65630503D01*
X58006810Y-65696390D01*
X58006808Y-65696390D01*
X58006812Y-65696391D01*
X58006814Y-65696392D01*
X58134108Y-65730500D01*
X58134110Y-65730500D01*
X58265890Y-65730500D01*
X58265892Y-65730500D01*
X58393186Y-65696392D01*
X58393188Y-65696390D01*
X58393190Y-65696390D01*
X58507309Y-65630503D01*
X58507309Y-65630502D01*
X58507314Y-65630500D01*
X58600500Y-65537314D01*
X58600503Y-65537309D01*
X58666390Y-65423190D01*
X58666390Y-65423188D01*
X58666392Y-65423186D01*
X58700500Y-65295892D01*
X58700500Y-65164108D01*
X58666392Y-65036814D01*
X58666390Y-65036811D01*
X58666390Y-65036809D01*
X58600503Y-64922690D01*
X58600501Y-64922688D01*
X58600500Y-64922686D01*
X58507314Y-64829500D01*
X58507311Y-64829498D01*
X58507309Y-64829496D01*
X58393189Y-64763609D01*
X58393191Y-64763609D01*
X58341911Y-64749869D01*
X58265892Y-64729500D01*
X58134108Y-64729500D01*
X58058089Y-64749869D01*
X58006809Y-64763609D01*
X57892690Y-64829496D01*
X57799496Y-64922690D01*
X57733609Y-65036809D01*
X57719264Y-65090348D01*
X57699500Y-65164108D01*
X45865264Y-65164108D01*
X45815977Y-65090345D01*
X45669655Y-64944023D01*
X45637722Y-64922686D01*
X45497597Y-64829058D01*
X45306418Y-64749869D01*
X45103467Y-64709500D01*
X45103465Y-64709500D01*
X44896535Y-64709500D01*
X44896532Y-64709500D01*
X44693581Y-64749869D01*
X44502402Y-64829058D01*
X44330348Y-64944020D01*
X44184020Y-65090348D01*
X44069058Y-65262402D01*
X43989869Y-65453581D01*
X43949500Y-65656532D01*
X43500500Y-65656532D01*
X43500500Y-63116532D01*
X43949500Y-63116532D01*
X43949500Y-63323467D01*
X43989869Y-63526418D01*
X44069058Y-63717597D01*
X44125867Y-63802618D01*
X44184023Y-63889655D01*
X44330345Y-64035977D01*
X44502402Y-64150941D01*
X44693580Y-64230130D01*
X44896535Y-64270500D01*
X44896536Y-64270500D01*
X45103464Y-64270500D01*
X45103465Y-64270500D01*
X45306420Y-64230130D01*
X45497598Y-64150941D01*
X45669655Y-64035977D01*
X45815977Y-63889655D01*
X45833047Y-63864108D01*
X68099500Y-63864108D01*
X68099500Y-63995892D01*
X68129579Y-64108151D01*
X68133609Y-64123190D01*
X68199496Y-64237309D01*
X68199498Y-64237311D01*
X68199500Y-64237314D01*
X68292686Y-64330500D01*
X68292688Y-64330501D01*
X68292690Y-64330503D01*
X68406810Y-64396390D01*
X68406808Y-64396390D01*
X68406812Y-64396391D01*
X68406814Y-64396392D01*
X68534108Y-64430500D01*
X68534110Y-64430500D01*
X68665890Y-64430500D01*
X68665892Y-64430500D01*
X68793186Y-64396392D01*
X68793188Y-64396390D01*
X68793190Y-64396390D01*
X68907309Y-64330503D01*
X68907309Y-64330502D01*
X68907314Y-64330500D01*
X69000500Y-64237314D01*
X69066392Y-64123186D01*
X69100500Y-63995892D01*
X69100500Y-63864108D01*
X69066392Y-63736814D01*
X69066390Y-63736811D01*
X69066390Y-63736809D01*
X69000503Y-63622690D01*
X69000501Y-63622688D01*
X69000500Y-63622686D01*
X68907314Y-63529500D01*
X68907311Y-63529498D01*
X68907309Y-63529496D01*
X68793189Y-63463609D01*
X68793191Y-63463609D01*
X68743799Y-63450375D01*
X68665892Y-63429500D01*
X68534108Y-63429500D01*
X68456200Y-63450375D01*
X68406809Y-63463609D01*
X68292690Y-63529496D01*
X68199496Y-63622690D01*
X68133609Y-63736809D01*
X68133608Y-63736814D01*
X68099500Y-63864108D01*
X45833047Y-63864108D01*
X45930941Y-63717598D01*
X46010130Y-63526420D01*
X46050500Y-63323465D01*
X46050500Y-63116535D01*
X46040072Y-63064108D01*
X77599500Y-63064108D01*
X77599500Y-63195892D01*
X77629579Y-63308151D01*
X77633609Y-63323190D01*
X77699496Y-63437309D01*
X77699498Y-63437311D01*
X77699500Y-63437314D01*
X77792686Y-63530500D01*
X77792688Y-63530501D01*
X77792690Y-63530503D01*
X77906810Y-63596390D01*
X77906808Y-63596390D01*
X77906812Y-63596391D01*
X77906814Y-63596392D01*
X78034108Y-63630500D01*
X78034110Y-63630500D01*
X78165890Y-63630500D01*
X78165892Y-63630500D01*
X78293186Y-63596392D01*
X78293188Y-63596390D01*
X78293190Y-63596390D01*
X78407309Y-63530503D01*
X78407309Y-63530502D01*
X78407314Y-63530500D01*
X78500500Y-63437314D01*
X78500503Y-63437309D01*
X78566390Y-63323190D01*
X78566390Y-63323188D01*
X78566392Y-63323186D01*
X78600500Y-63195892D01*
X78600500Y-63064108D01*
X78566392Y-62936814D01*
X78566390Y-62936811D01*
X78566390Y-62936809D01*
X78500503Y-62822690D01*
X78500501Y-62822688D01*
X78500500Y-62822686D01*
X78407314Y-62729500D01*
X78407311Y-62729498D01*
X78407309Y-62729496D01*
X78293189Y-62663609D01*
X78293191Y-62663609D01*
X78243799Y-62650375D01*
X78165892Y-62629500D01*
X78034108Y-62629500D01*
X77956200Y-62650375D01*
X77906809Y-62663609D01*
X77792690Y-62729496D01*
X77699496Y-62822690D01*
X77633609Y-62936809D01*
X77633608Y-62936814D01*
X77599500Y-63064108D01*
X46040072Y-63064108D01*
X46010130Y-62913580D01*
X45930941Y-62722402D01*
X45815977Y-62550345D01*
X45669655Y-62404023D01*
X45497598Y-62289059D01*
X45497599Y-62289059D01*
X45497597Y-62289058D01*
X45306418Y-62209869D01*
X45103467Y-62169500D01*
X45103465Y-62169500D01*
X44896535Y-62169500D01*
X44896532Y-62169500D01*
X44693581Y-62209869D01*
X44502402Y-62289058D01*
X44330348Y-62404020D01*
X44184020Y-62550348D01*
X44069058Y-62722402D01*
X43989869Y-62913581D01*
X43949500Y-63116532D01*
X43500500Y-63116532D01*
X43500500Y-60576532D01*
X43949500Y-60576532D01*
X43949500Y-60783467D01*
X43989869Y-60986418D01*
X44069058Y-61177597D01*
X44069059Y-61177598D01*
X44184023Y-61349655D01*
X44330345Y-61495977D01*
X44502402Y-61610941D01*
X44693580Y-61690130D01*
X44896535Y-61730500D01*
X44896536Y-61730500D01*
X45103464Y-61730500D01*
X45103465Y-61730500D01*
X45306420Y-61690130D01*
X45497598Y-61610941D01*
X45669655Y-61495977D01*
X45815977Y-61349655D01*
X45930941Y-61177598D01*
X46010130Y-60986420D01*
X46050500Y-60783465D01*
X46050500Y-60576535D01*
X46010130Y-60373580D01*
X45930941Y-60182402D01*
X45815977Y-60010345D01*
X45669655Y-59864023D01*
X45669651Y-59864020D01*
X45497597Y-59749058D01*
X45306418Y-59669869D01*
X45230813Y-59654831D01*
X45103467Y-59629500D01*
X45103465Y-59629500D01*
X44896535Y-59629500D01*
X44896532Y-59629500D01*
X44693581Y-59669869D01*
X44502402Y-59749058D01*
X44330348Y-59864020D01*
X44184020Y-60010348D01*
X44069058Y-60182402D01*
X43989869Y-60373581D01*
X43949500Y-60576532D01*
X43500500Y-60576532D01*
X43500500Y-59561619D01*
X76250000Y-59561619D01*
X76250000Y-59758380D01*
X76280778Y-59952710D01*
X76280779Y-59952714D01*
X76341576Y-60139826D01*
X76341578Y-60139829D01*
X76430903Y-60315142D01*
X76430907Y-60315147D01*
X76530709Y-60452511D01*
X76530710Y-60452511D01*
X77069269Y-59913951D01*
X77099901Y-59967007D01*
X77192993Y-60060099D01*
X77246046Y-60090729D01*
X76707487Y-60629289D01*
X76707487Y-60629290D01*
X76844852Y-60729092D01*
X76844857Y-60729096D01*
X77020170Y-60818421D01*
X77020173Y-60818423D01*
X77207285Y-60879220D01*
X77207289Y-60879221D01*
X77401620Y-60910000D01*
X77598380Y-60910000D01*
X77792710Y-60879221D01*
X77792714Y-60879220D01*
X77979826Y-60818423D01*
X77979829Y-60818421D01*
X78155145Y-60729094D01*
X78292511Y-60629289D01*
X77753952Y-60090730D01*
X77807007Y-60060099D01*
X77900099Y-59967007D01*
X77930730Y-59913952D01*
X78469289Y-60452511D01*
X78569094Y-60315145D01*
X78658421Y-60139829D01*
X78658423Y-60139826D01*
X78719220Y-59952714D01*
X78719221Y-59952710D01*
X78750000Y-59758380D01*
X78750000Y-59561619D01*
X78719221Y-59367289D01*
X78719220Y-59367285D01*
X78658423Y-59180173D01*
X78658421Y-59180170D01*
X78569096Y-59004857D01*
X78569092Y-59004852D01*
X78469289Y-58867487D01*
X77930729Y-59406046D01*
X77900099Y-59352993D01*
X77807007Y-59259901D01*
X77753951Y-59229269D01*
X78292511Y-58690710D01*
X78292511Y-58690709D01*
X78155147Y-58590907D01*
X78155142Y-58590903D01*
X77979829Y-58501578D01*
X77979826Y-58501576D01*
X77792714Y-58440779D01*
X77792710Y-58440778D01*
X77598380Y-58410000D01*
X77401620Y-58410000D01*
X77207289Y-58440778D01*
X77207285Y-58440779D01*
X77020173Y-58501576D01*
X77020170Y-58501578D01*
X76844857Y-58590903D01*
X76844851Y-58590907D01*
X76707487Y-58690709D01*
X76707487Y-58690710D01*
X77246047Y-59229270D01*
X77192993Y-59259901D01*
X77099901Y-59352993D01*
X77069270Y-59406047D01*
X76530710Y-58867487D01*
X76530709Y-58867487D01*
X76430907Y-59004851D01*
X76430903Y-59004857D01*
X76341578Y-59180170D01*
X76341576Y-59180173D01*
X76280779Y-59367285D01*
X76280778Y-59367289D01*
X76250000Y-59561619D01*
X43500500Y-59561619D01*
X43500500Y-58036532D01*
X43949500Y-58036532D01*
X43949500Y-58243467D01*
X43989869Y-58446418D01*
X44069058Y-58637597D01*
X44069059Y-58637598D01*
X44184023Y-58809655D01*
X44330345Y-58955977D01*
X44502402Y-59070941D01*
X44693580Y-59150130D01*
X44896535Y-59190500D01*
X44896536Y-59190500D01*
X45103464Y-59190500D01*
X45103465Y-59190500D01*
X45306420Y-59150130D01*
X45497598Y-59070941D01*
X45669655Y-58955977D01*
X45815977Y-58809655D01*
X45930941Y-58637598D01*
X46010130Y-58446420D01*
X46050500Y-58243465D01*
X46050500Y-58036535D01*
X46010130Y-57833580D01*
X45930941Y-57642402D01*
X45815977Y-57470345D01*
X45669655Y-57324023D01*
X45669651Y-57324020D01*
X45497597Y-57209058D01*
X45306418Y-57129869D01*
X45200337Y-57108769D01*
X45103467Y-57089500D01*
X45103465Y-57089500D01*
X44896535Y-57089500D01*
X44896532Y-57089500D01*
X44693581Y-57129869D01*
X44502402Y-57209058D01*
X44330348Y-57324020D01*
X44184020Y-57470348D01*
X44069058Y-57642402D01*
X43989869Y-57833581D01*
X43949500Y-58036532D01*
X43500500Y-58036532D01*
X43500500Y-57016532D01*
X76449500Y-57016532D01*
X76449500Y-57223467D01*
X76489869Y-57426418D01*
X76569058Y-57617597D01*
X76569059Y-57617598D01*
X76684023Y-57789655D01*
X76830345Y-57935977D01*
X77002402Y-58050941D01*
X77193580Y-58130130D01*
X77396535Y-58170500D01*
X77396536Y-58170500D01*
X77603464Y-58170500D01*
X77603465Y-58170500D01*
X77806420Y-58130130D01*
X77997598Y-58050941D01*
X78169655Y-57935977D01*
X78315977Y-57789655D01*
X78430941Y-57617598D01*
X78510130Y-57426420D01*
X78550500Y-57223465D01*
X78550500Y-57016535D01*
X78510130Y-56813580D01*
X78430941Y-56622402D01*
X78315977Y-56450345D01*
X78169655Y-56304023D01*
X77997598Y-56189059D01*
X77997599Y-56189059D01*
X77997597Y-56189058D01*
X77806418Y-56109869D01*
X77603467Y-56069500D01*
X77603465Y-56069500D01*
X77396535Y-56069500D01*
X77396532Y-56069500D01*
X77193581Y-56109869D01*
X77002402Y-56189058D01*
X76830348Y-56304020D01*
X76684020Y-56450348D01*
X76569058Y-56622402D01*
X76489869Y-56813581D01*
X76449500Y-57016532D01*
X43500500Y-57016532D01*
X43500500Y-54730253D01*
X43949500Y-54730253D01*
X43949500Y-56469746D01*
X43949501Y-56469758D01*
X43961132Y-56528227D01*
X43961133Y-56528231D01*
X44005448Y-56594552D01*
X44071769Y-56638867D01*
X44116231Y-56647711D01*
X44130241Y-56650498D01*
X44130246Y-56650498D01*
X44130252Y-56650500D01*
X44130253Y-56650500D01*
X45869747Y-56650500D01*
X45869748Y-56650500D01*
X45928231Y-56638867D01*
X45994552Y-56594552D01*
X46038867Y-56528231D01*
X46050500Y-56469748D01*
X46050500Y-54730252D01*
X46038867Y-54671769D01*
X45994552Y-54605448D01*
X45970800Y-54589577D01*
X45928233Y-54561134D01*
X45928231Y-54561133D01*
X45928228Y-54561132D01*
X45928227Y-54561132D01*
X45869758Y-54549501D01*
X45869748Y-54549500D01*
X44130252Y-54549500D01*
X44130251Y-54549500D01*
X44130241Y-54549501D01*
X44071772Y-54561132D01*
X44071766Y-54561134D01*
X44005451Y-54605445D01*
X44005445Y-54605451D01*
X43961134Y-54671766D01*
X43961132Y-54671772D01*
X43949501Y-54730241D01*
X43949500Y-54730253D01*
X43500500Y-54730253D01*
X43500500Y-53950943D01*
X72999500Y-53950943D01*
X72999500Y-54109057D01*
X73040423Y-54261784D01*
X73119480Y-54398716D01*
X73231284Y-54510520D01*
X73368216Y-54589577D01*
X73520943Y-54630500D01*
X73520945Y-54630500D01*
X73679055Y-54630500D01*
X73679057Y-54630500D01*
X73831784Y-54589577D01*
X73968716Y-54510520D01*
X74002704Y-54476532D01*
X76449500Y-54476532D01*
X76449500Y-54683467D01*
X76489869Y-54886418D01*
X76569058Y-55077597D01*
X76569059Y-55077598D01*
X76684023Y-55249655D01*
X76830345Y-55395977D01*
X77002402Y-55510941D01*
X77193580Y-55590130D01*
X77396535Y-55630500D01*
X77396536Y-55630500D01*
X77603464Y-55630500D01*
X77603465Y-55630500D01*
X77806420Y-55590130D01*
X77997598Y-55510941D01*
X78169655Y-55395977D01*
X78315977Y-55249655D01*
X78430941Y-55077598D01*
X78510130Y-54886420D01*
X78550500Y-54683465D01*
X78550500Y-54476535D01*
X78510130Y-54273580D01*
X78430941Y-54082402D01*
X78315977Y-53910345D01*
X78169655Y-53764023D01*
X78169651Y-53764020D01*
X77997597Y-53649058D01*
X77806418Y-53569869D01*
X77603467Y-53529500D01*
X77603465Y-53529500D01*
X77396535Y-53529500D01*
X77396532Y-53529500D01*
X77193581Y-53569869D01*
X77002402Y-53649058D01*
X76830348Y-53764020D01*
X76684020Y-53910348D01*
X76569058Y-54082402D01*
X76489869Y-54273581D01*
X76449500Y-54476532D01*
X74002704Y-54476532D01*
X74080520Y-54398716D01*
X74159577Y-54261784D01*
X74200500Y-54109057D01*
X74200500Y-53950943D01*
X74159577Y-53798216D01*
X74080520Y-53661284D01*
X73968716Y-53549480D01*
X73831784Y-53470423D01*
X73679057Y-53429500D01*
X73520943Y-53429500D01*
X73368216Y-53470423D01*
X73231284Y-53549480D01*
X73119480Y-53661284D01*
X73040423Y-53798216D01*
X72999500Y-53950943D01*
X43500500Y-53950943D01*
X43500500Y-51320943D01*
X44099500Y-51320943D01*
X44099500Y-51479057D01*
X44140423Y-51631784D01*
X44219480Y-51768716D01*
X44280762Y-51829998D01*
X44308538Y-51884513D01*
X44298967Y-51944945D01*
X44280763Y-51970000D01*
X44219480Y-52031284D01*
X44140423Y-52168216D01*
X44099500Y-52320943D01*
X44099500Y-52479057D01*
X44140423Y-52631784D01*
X44219480Y-52768716D01*
X44331284Y-52880520D01*
X44468216Y-52959577D01*
X44620943Y-53000500D01*
X44620945Y-53000500D01*
X44779055Y-53000500D01*
X44779057Y-53000500D01*
X44931784Y-52959577D01*
X45068716Y-52880520D01*
X45180520Y-52768716D01*
X45259577Y-52631784D01*
X45300500Y-52479057D01*
X45300500Y-52320943D01*
X45259577Y-52168216D01*
X45180520Y-52031284D01*
X45119237Y-51970001D01*
X45102184Y-51936532D01*
X76449500Y-51936532D01*
X76449500Y-52143467D01*
X76489869Y-52346418D01*
X76569058Y-52537597D01*
X76684020Y-52709651D01*
X76684023Y-52709655D01*
X76830345Y-52855977D01*
X77002402Y-52970941D01*
X77193580Y-53050130D01*
X77396535Y-53090500D01*
X77396536Y-53090500D01*
X77603464Y-53090500D01*
X77603465Y-53090500D01*
X77806420Y-53050130D01*
X77997598Y-52970941D01*
X78169655Y-52855977D01*
X78315977Y-52709655D01*
X78430941Y-52537598D01*
X78510130Y-52346420D01*
X78550500Y-52143465D01*
X78550500Y-51936535D01*
X78510130Y-51733580D01*
X78430941Y-51542402D01*
X78315977Y-51370345D01*
X78169655Y-51224023D01*
X78169651Y-51224020D01*
X77997597Y-51109058D01*
X77806418Y-51029869D01*
X77603467Y-50989500D01*
X77603465Y-50989500D01*
X77396535Y-50989500D01*
X77396532Y-50989500D01*
X77193581Y-51029869D01*
X77002402Y-51109058D01*
X76830348Y-51224020D01*
X76684020Y-51370348D01*
X76569058Y-51542402D01*
X76489869Y-51733581D01*
X76449500Y-51936532D01*
X45102184Y-51936532D01*
X45091462Y-51915487D01*
X45101033Y-51855055D01*
X45119236Y-51829999D01*
X45180520Y-51768716D01*
X45259577Y-51631784D01*
X45300500Y-51479057D01*
X45300500Y-51364108D01*
X53599500Y-51364108D01*
X53599500Y-51495892D01*
X53629579Y-51608151D01*
X53633609Y-51623190D01*
X53699496Y-51737309D01*
X53699498Y-51737311D01*
X53699500Y-51737314D01*
X53792686Y-51830500D01*
X53792688Y-51830501D01*
X53792690Y-51830503D01*
X53906810Y-51896390D01*
X53906808Y-51896390D01*
X53906812Y-51896391D01*
X53906814Y-51896392D01*
X54034108Y-51930500D01*
X54034110Y-51930500D01*
X54165890Y-51930500D01*
X54165892Y-51930500D01*
X54293186Y-51896392D01*
X54293188Y-51896390D01*
X54293190Y-51896390D01*
X54380567Y-51845943D01*
X54380575Y-51845937D01*
X54407314Y-51830500D01*
X54500500Y-51737314D01*
X54566392Y-51623186D01*
X54600500Y-51495892D01*
X54600500Y-51364108D01*
X54566392Y-51236814D01*
X54566390Y-51236811D01*
X54566390Y-51236809D01*
X54500503Y-51122690D01*
X54500501Y-51122688D01*
X54500500Y-51122686D01*
X54407314Y-51029500D01*
X54407311Y-51029498D01*
X54407309Y-51029496D01*
X54293189Y-50963609D01*
X54293191Y-50963609D01*
X54243799Y-50950375D01*
X54165892Y-50929500D01*
X54034108Y-50929500D01*
X53956200Y-50950375D01*
X53906809Y-50963609D01*
X53792690Y-51029496D01*
X53699496Y-51122690D01*
X53633609Y-51236809D01*
X53633608Y-51236814D01*
X53599500Y-51364108D01*
X45300500Y-51364108D01*
X45300500Y-51320943D01*
X45259577Y-51168216D01*
X45180520Y-51031284D01*
X45068716Y-50919480D01*
X44931784Y-50840423D01*
X44779057Y-50799500D01*
X44620943Y-50799500D01*
X44468216Y-50840423D01*
X44331284Y-50919480D01*
X44219480Y-51031284D01*
X44140423Y-51168216D01*
X44099500Y-51320943D01*
X43500500Y-51320943D01*
X43500500Y-48250943D01*
X72999500Y-48250943D01*
X72999500Y-48409057D01*
X73040423Y-48561784D01*
X73119480Y-48698716D01*
X73231284Y-48810520D01*
X73368216Y-48889577D01*
X73520943Y-48930500D01*
X73520945Y-48930500D01*
X73679055Y-48930500D01*
X73679057Y-48930500D01*
X73831784Y-48889577D01*
X73968716Y-48810520D01*
X74080520Y-48698716D01*
X74120047Y-48630253D01*
X76449500Y-48630253D01*
X76449500Y-50369746D01*
X76449501Y-50369758D01*
X76461132Y-50428227D01*
X76461133Y-50428231D01*
X76505448Y-50494552D01*
X76571769Y-50538867D01*
X76616231Y-50547711D01*
X76630241Y-50550498D01*
X76630246Y-50550498D01*
X76630252Y-50550500D01*
X76630253Y-50550500D01*
X78369747Y-50550500D01*
X78369748Y-50550500D01*
X78428231Y-50538867D01*
X78494552Y-50494552D01*
X78538867Y-50428231D01*
X78550500Y-50369748D01*
X78550500Y-48630252D01*
X78538867Y-48571769D01*
X78494552Y-48505448D01*
X78494548Y-48505445D01*
X78428233Y-48461134D01*
X78428231Y-48461133D01*
X78428228Y-48461132D01*
X78428227Y-48461132D01*
X78369758Y-48449501D01*
X78369748Y-48449500D01*
X76630252Y-48449500D01*
X76630251Y-48449500D01*
X76630241Y-48449501D01*
X76571772Y-48461132D01*
X76571766Y-48461134D01*
X76505451Y-48505445D01*
X76505445Y-48505451D01*
X76461134Y-48571766D01*
X76461132Y-48571772D01*
X76449501Y-48630241D01*
X76449500Y-48630253D01*
X74120047Y-48630253D01*
X74159577Y-48561784D01*
X74200500Y-48409057D01*
X74200500Y-48250943D01*
X74159577Y-48098216D01*
X74080520Y-47961284D01*
X73968716Y-47849480D01*
X73831784Y-47770423D01*
X73679057Y-47729500D01*
X73520943Y-47729500D01*
X73368216Y-47770423D01*
X73231284Y-47849480D01*
X73119480Y-47961284D01*
X73040423Y-48098216D01*
X72999500Y-48250943D01*
X43500500Y-48250943D01*
X43500500Y-47599500D01*
X43519407Y-47541309D01*
X43568907Y-47505345D01*
X43599500Y-47500500D01*
X79901000Y-47500500D01*
X79959191Y-47519407D01*
G37*
%TD.AperFunction*%
%TD*%
M02*
