%TF.GenerationSoftware,KiCad,Pcbnew,9.0.4*%
%TF.CreationDate,2026-03-14T23:33:21+02:00*%
%TF.ProjectId,PCBv2Drona,50434276-3244-4726-9f6e-612e6b696361,rev?*%
%TF.SameCoordinates,Original*%
%TF.FileFunction,Legend,Top*%
%TF.FilePolarity,Positive*%
%FSLAX46Y46*%
G04 Gerber Fmt 4.6, Leading zero omitted, Abs format (unit mm)*
G04 Created by KiCad (PCBNEW 9.0.4) date 2026-03-14 23:33:21*
%MOMM*%
%LPD*%
G01*
G04 APERTURE LIST*
%ADD10C,0.200000*%
%ADD11C,0.150000*%
%ADD12C,0.120000*%
G04 APERTURE END LIST*
D10*
X80000000Y-97100000D02*
X80000000Y-47400000D01*
X82000000Y-97000000D02*
X82000000Y-47400000D01*
G36*
X44996605Y-86502240D02*
G01*
X45063678Y-86569313D01*
X45099130Y-86640218D01*
X45141101Y-86808099D01*
X45141101Y-86926337D01*
X45099130Y-87094218D01*
X45063677Y-87165124D01*
X44996606Y-87232197D01*
X44891541Y-87267219D01*
X44769673Y-87267219D01*
X44769673Y-86467219D01*
X44891541Y-86467219D01*
X44996605Y-86502240D01*
G37*
G36*
X53753294Y-86497024D02*
G01*
X53777963Y-86521692D01*
X53813416Y-86592599D01*
X53855387Y-86760480D01*
X53855387Y-86973956D01*
X53813416Y-87141837D01*
X53777963Y-87212743D01*
X53753294Y-87237413D01*
X53693685Y-87267219D01*
X53645661Y-87267219D01*
X53586051Y-87237414D01*
X53561384Y-87212746D01*
X53525929Y-87141837D01*
X53483959Y-86973956D01*
X53483959Y-86760481D01*
X53525929Y-86592599D01*
X53561383Y-86521692D01*
X53586051Y-86497023D01*
X53645661Y-86467219D01*
X53693685Y-86467219D01*
X53753294Y-86497024D01*
G37*
G36*
X47091844Y-85368486D02*
G01*
X47111296Y-85387938D01*
X47141101Y-85447548D01*
X47141101Y-85543191D01*
X47111296Y-85602799D01*
X47086627Y-85627469D01*
X47027018Y-85657275D01*
X46769673Y-85657275D01*
X46769673Y-85333465D01*
X46986779Y-85333465D01*
X47091844Y-85368486D01*
G37*
G36*
X47039008Y-84887080D02*
G01*
X47063677Y-84911748D01*
X47093482Y-84971358D01*
X47093482Y-85019382D01*
X47063677Y-85078991D01*
X47039008Y-85103659D01*
X46979399Y-85133465D01*
X46769673Y-85133465D01*
X46769673Y-84857275D01*
X46979399Y-84857275D01*
X47039008Y-84887080D01*
G37*
G36*
X48758510Y-84892296D02*
G01*
X48825583Y-84959369D01*
X48861035Y-85030274D01*
X48903006Y-85198155D01*
X48903006Y-85316393D01*
X48861035Y-85484274D01*
X48825582Y-85555180D01*
X48758511Y-85622253D01*
X48653446Y-85657275D01*
X48531578Y-85657275D01*
X48531578Y-84857275D01*
X48653446Y-84857275D01*
X48758510Y-84892296D01*
G37*
G36*
X50372342Y-85220413D02*
G01*
X50397011Y-85245081D01*
X50426816Y-85304691D01*
X50426816Y-85543191D01*
X50397011Y-85602799D01*
X50372342Y-85627469D01*
X50312733Y-85657275D01*
X50217090Y-85657275D01*
X50157480Y-85627470D01*
X50132813Y-85602802D01*
X50103007Y-85543190D01*
X50103007Y-85304691D01*
X50132812Y-85245081D01*
X50157480Y-85220412D01*
X50217090Y-85190608D01*
X50312733Y-85190608D01*
X50372342Y-85220413D01*
G37*
G36*
X52188721Y-85647852D02*
G01*
X52169876Y-85657275D01*
X51978995Y-85657275D01*
X51934685Y-85635120D01*
X51912531Y-85590810D01*
X51912531Y-85542786D01*
X51934686Y-85498476D01*
X51978995Y-85476322D01*
X52188721Y-85476322D01*
X52188721Y-85647852D01*
G37*
G36*
X45086627Y-84887080D02*
G01*
X45111296Y-84911748D01*
X45141101Y-84971358D01*
X45141101Y-85067001D01*
X45111296Y-85126610D01*
X45086627Y-85151278D01*
X45027018Y-85181084D01*
X44769673Y-85181084D01*
X44769673Y-84857275D01*
X45027018Y-84857275D01*
X45086627Y-84887080D01*
G37*
G36*
X54166498Y-87578330D02*
G01*
X44458562Y-87578330D01*
X44458562Y-86367219D01*
X44569673Y-86367219D01*
X44569673Y-87367219D01*
X44571594Y-87386728D01*
X44586526Y-87422776D01*
X44614116Y-87450366D01*
X44650164Y-87465298D01*
X44669673Y-87467219D01*
X44907768Y-87467219D01*
X44917641Y-87466246D01*
X44920275Y-87466434D01*
X44923738Y-87465646D01*
X44927277Y-87465298D01*
X44929719Y-87464286D01*
X44939391Y-87462087D01*
X45082247Y-87414468D01*
X45100148Y-87406477D01*
X45102863Y-87404122D01*
X45106183Y-87402747D01*
X45121336Y-87390310D01*
X45216574Y-87295071D01*
X45222866Y-87287404D01*
X45224863Y-87285673D01*
X45226756Y-87282665D01*
X45229011Y-87279918D01*
X45230022Y-87277476D01*
X45235306Y-87269082D01*
X45282925Y-87173845D01*
X45283471Y-87172416D01*
X45283901Y-87171837D01*
X45286822Y-87163660D01*
X45289931Y-87155536D01*
X45289982Y-87154815D01*
X45290496Y-87153377D01*
X45338115Y-86962901D01*
X45338615Y-86959519D01*
X45339180Y-86958156D01*
X45339903Y-86950805D01*
X45340983Y-86943508D01*
X45340765Y-86942049D01*
X45341101Y-86938647D01*
X45341101Y-86795790D01*
X45340765Y-86792387D01*
X45340983Y-86790929D01*
X45339903Y-86783631D01*
X45339180Y-86776281D01*
X45338615Y-86774917D01*
X45338115Y-86771536D01*
X45320369Y-86700552D01*
X45569673Y-86700552D01*
X45569673Y-87224361D01*
X45571594Y-87243870D01*
X45572969Y-87247190D01*
X45573224Y-87250773D01*
X45580230Y-87269082D01*
X45627849Y-87364321D01*
X45629902Y-87367584D01*
X45630416Y-87369123D01*
X45632078Y-87371039D01*
X45638292Y-87380911D01*
X45647763Y-87389125D01*
X45655980Y-87398600D01*
X45665850Y-87404812D01*
X45667768Y-87406476D01*
X45669308Y-87406989D01*
X45672571Y-87409043D01*
X45767808Y-87456662D01*
X45786117Y-87463668D01*
X45789700Y-87463922D01*
X45793021Y-87465298D01*
X45812530Y-87467219D01*
X45955387Y-87467219D01*
X45974896Y-87465298D01*
X45978216Y-87463922D01*
X45981800Y-87463668D01*
X46000108Y-87456662D01*
X46032691Y-87440370D01*
X46042687Y-87450366D01*
X46078735Y-87465298D01*
X46117753Y-87465298D01*
X46153801Y-87450366D01*
X46181391Y-87422776D01*
X46196323Y-87386728D01*
X46198244Y-87367219D01*
X46198244Y-86700552D01*
X46474435Y-86700552D01*
X46474435Y-87367219D01*
X46476356Y-87386728D01*
X46491288Y-87422776D01*
X46518878Y-87450366D01*
X46554926Y-87465298D01*
X46593944Y-87465298D01*
X46629992Y-87450366D01*
X46657582Y-87422776D01*
X46672514Y-87386728D01*
X46674435Y-87367219D01*
X46674435Y-86837211D01*
X46681289Y-86830356D01*
X46740899Y-86800552D01*
X46836542Y-86800552D01*
X46880851Y-86822707D01*
X46903006Y-86867016D01*
X46903006Y-87367219D01*
X46904927Y-87386728D01*
X46919859Y-87422776D01*
X46947449Y-87450366D01*
X46983497Y-87465298D01*
X47022515Y-87465298D01*
X47058563Y-87450366D01*
X47086153Y-87422776D01*
X47101085Y-87386728D01*
X47103006Y-87367219D01*
X47103006Y-86867016D01*
X47125161Y-86822706D01*
X47169470Y-86800552D01*
X47265113Y-86800552D01*
X47309423Y-86822706D01*
X47331578Y-86867016D01*
X47331578Y-87367219D01*
X47333499Y-87386728D01*
X47348431Y-87422776D01*
X47376021Y-87450366D01*
X47412069Y-87465298D01*
X47451087Y-87465298D01*
X47487135Y-87450366D01*
X47514725Y-87422776D01*
X47529657Y-87386728D01*
X47531578Y-87367219D01*
X47531578Y-86843409D01*
X47529657Y-86823900D01*
X47528281Y-86820579D01*
X47528027Y-86816996D01*
X47521021Y-86798687D01*
X47473402Y-86703450D01*
X47471578Y-86700552D01*
X47807768Y-86700552D01*
X47807768Y-87367219D01*
X47809689Y-87386728D01*
X47824621Y-87422776D01*
X47852211Y-87450366D01*
X47888259Y-87465298D01*
X47927277Y-87465298D01*
X47963325Y-87450366D01*
X47990915Y-87422776D01*
X48005847Y-87386728D01*
X48007768Y-87367219D01*
X48007768Y-86700552D01*
X48005847Y-86681043D01*
X48143022Y-86681043D01*
X48143022Y-86720061D01*
X48157954Y-86756109D01*
X48185544Y-86783699D01*
X48221592Y-86798631D01*
X48241101Y-86800552D01*
X48283958Y-86800552D01*
X48283958Y-87224361D01*
X48285879Y-87243870D01*
X48287254Y-87247190D01*
X48287509Y-87250773D01*
X48294515Y-87269082D01*
X48342134Y-87364321D01*
X48344187Y-87367584D01*
X48344701Y-87369123D01*
X48346363Y-87371039D01*
X48352577Y-87380911D01*
X48362048Y-87389125D01*
X48370265Y-87398600D01*
X48380135Y-87404812D01*
X48382053Y-87406476D01*
X48383593Y-87406989D01*
X48386856Y-87409043D01*
X48482093Y-87456662D01*
X48500402Y-87463668D01*
X48503985Y-87463922D01*
X48507306Y-87465298D01*
X48526815Y-87467219D01*
X48622053Y-87467219D01*
X48641562Y-87465298D01*
X48677610Y-87450366D01*
X48705200Y-87422776D01*
X48720132Y-87386728D01*
X48720132Y-87347710D01*
X48705200Y-87311662D01*
X48677610Y-87284072D01*
X48641562Y-87269140D01*
X48622053Y-87267219D01*
X48550422Y-87267219D01*
X48506112Y-87245064D01*
X48483958Y-87200754D01*
X48483958Y-86800552D01*
X48622053Y-86800552D01*
X48641562Y-86798631D01*
X48677610Y-86783699D01*
X48705200Y-86756109D01*
X48720132Y-86720061D01*
X48720132Y-86700552D01*
X48855387Y-86700552D01*
X48855387Y-87367219D01*
X48857308Y-87386728D01*
X48872240Y-87422776D01*
X48899830Y-87450366D01*
X48935878Y-87465298D01*
X48974896Y-87465298D01*
X49010944Y-87450366D01*
X49038534Y-87422776D01*
X49053466Y-87386728D01*
X49055387Y-87367219D01*
X49055387Y-86914635D01*
X49085192Y-86855025D01*
X49109860Y-86830356D01*
X49169470Y-86800552D01*
X49241101Y-86800552D01*
X49260610Y-86798631D01*
X49296658Y-86783699D01*
X49324248Y-86756109D01*
X49339180Y-86720061D01*
X49339180Y-86700552D01*
X49474435Y-86700552D01*
X49474435Y-87224361D01*
X49476356Y-87243870D01*
X49477731Y-87247190D01*
X49477986Y-87250773D01*
X49484992Y-87269082D01*
X49532611Y-87364321D01*
X49534664Y-87367584D01*
X49535178Y-87369123D01*
X49536840Y-87371039D01*
X49543054Y-87380911D01*
X49552525Y-87389125D01*
X49560742Y-87398600D01*
X49570612Y-87404812D01*
X49572530Y-87406476D01*
X49574070Y-87406989D01*
X49577333Y-87409043D01*
X49672570Y-87456662D01*
X49690879Y-87463668D01*
X49694462Y-87463922D01*
X49697783Y-87465298D01*
X49717292Y-87467219D01*
X49860149Y-87467219D01*
X49879658Y-87465298D01*
X49882978Y-87463922D01*
X49886562Y-87463668D01*
X49904870Y-87456662D01*
X49937453Y-87440370D01*
X49947449Y-87450366D01*
X49983497Y-87465298D01*
X50022515Y-87465298D01*
X50058563Y-87450366D01*
X50086153Y-87422776D01*
X50101085Y-87386728D01*
X50103006Y-87367219D01*
X50103006Y-86715167D01*
X51046937Y-86715167D01*
X51051690Y-86734186D01*
X51289785Y-87400852D01*
X51298155Y-87418579D01*
X51301525Y-87422301D01*
X51303673Y-87426836D01*
X51314524Y-87436659D01*
X51324342Y-87447504D01*
X51328874Y-87449651D01*
X51332599Y-87453023D01*
X51346389Y-87457947D01*
X51359604Y-87464208D01*
X51364614Y-87464457D01*
X51369344Y-87466146D01*
X51383965Y-87465418D01*
X51398574Y-87466145D01*
X51403299Y-87464457D01*
X51408314Y-87464208D01*
X51421540Y-87457942D01*
X51435319Y-87453022D01*
X51439039Y-87449653D01*
X51443576Y-87447505D01*
X51453398Y-87436654D01*
X51464245Y-87426836D01*
X51466392Y-87422301D01*
X51469763Y-87418579D01*
X51478133Y-87400853D01*
X51497113Y-87347710D01*
X51809690Y-87347710D01*
X51809690Y-87386728D01*
X51824622Y-87422776D01*
X51852212Y-87450366D01*
X51888260Y-87465298D01*
X51907769Y-87467219D01*
X52526816Y-87467219D01*
X52546325Y-87465298D01*
X52582373Y-87450366D01*
X52609963Y-87422776D01*
X52624895Y-87386728D01*
X52624895Y-87347710D01*
X52609963Y-87311662D01*
X52598392Y-87300091D01*
X52809690Y-87300091D01*
X52809690Y-87339109D01*
X52815280Y-87352604D01*
X52824622Y-87375158D01*
X52824626Y-87375162D01*
X52837058Y-87390311D01*
X52884677Y-87437929D01*
X52899830Y-87450366D01*
X52906243Y-87453022D01*
X52935879Y-87465298D01*
X52974897Y-87465298D01*
X53010945Y-87450366D01*
X53026099Y-87437930D01*
X53073717Y-87390311D01*
X53086154Y-87375158D01*
X53092906Y-87358856D01*
X53101085Y-87339110D01*
X53101086Y-87300092D01*
X53086155Y-87264043D01*
X53073718Y-87248890D01*
X53026099Y-87201270D01*
X53010946Y-87188833D01*
X52988752Y-87179640D01*
X52974897Y-87173901D01*
X52935879Y-87173901D01*
X52925321Y-87178274D01*
X52899831Y-87188832D01*
X52899830Y-87188833D01*
X52884676Y-87201270D01*
X52837058Y-87248890D01*
X52824621Y-87264043D01*
X52815662Y-87285673D01*
X52809690Y-87300091D01*
X52598392Y-87300091D01*
X52582373Y-87284072D01*
X52546325Y-87269140D01*
X52526816Y-87267219D01*
X52149191Y-87267219D01*
X52549908Y-86866501D01*
X52562344Y-86851347D01*
X52563718Y-86848028D01*
X52566074Y-86845313D01*
X52574065Y-86827413D01*
X52600479Y-86748171D01*
X53283959Y-86748171D01*
X53283959Y-86986266D01*
X53284294Y-86989668D01*
X53284077Y-86991127D01*
X53285156Y-86998424D01*
X53285880Y-87005775D01*
X53286444Y-87007138D01*
X53286945Y-87010520D01*
X53334564Y-87200995D01*
X53335077Y-87202432D01*
X53335129Y-87203155D01*
X53338237Y-87211279D01*
X53341159Y-87219456D01*
X53341589Y-87220036D01*
X53342135Y-87221463D01*
X53389754Y-87316701D01*
X53395037Y-87325093D01*
X53396049Y-87327537D01*
X53398305Y-87330286D01*
X53400197Y-87333291D01*
X53402191Y-87335020D01*
X53408486Y-87342690D01*
X53456104Y-87390310D01*
X53463772Y-87396603D01*
X53465504Y-87398600D01*
X53468512Y-87400493D01*
X53471258Y-87402747D01*
X53473698Y-87403757D01*
X53482095Y-87409043D01*
X53577332Y-87456662D01*
X53595641Y-87463668D01*
X53599224Y-87463922D01*
X53602545Y-87465298D01*
X53622054Y-87467219D01*
X53717292Y-87467219D01*
X53736801Y-87465298D01*
X53740121Y-87463922D01*
X53743705Y-87463668D01*
X53762013Y-87456662D01*
X53857251Y-87409043D01*
X53865646Y-87403758D01*
X53868088Y-87402747D01*
X53870835Y-87400491D01*
X53873841Y-87398600D01*
X53875571Y-87396605D01*
X53883241Y-87390310D01*
X53930860Y-87342690D01*
X53937152Y-87335023D01*
X53939149Y-87333292D01*
X53941042Y-87330284D01*
X53943297Y-87327537D01*
X53944308Y-87325095D01*
X53949592Y-87316701D01*
X53997211Y-87221464D01*
X53997757Y-87220035D01*
X53998187Y-87219456D01*
X54001108Y-87211279D01*
X54004217Y-87203155D01*
X54004268Y-87202434D01*
X54004782Y-87200996D01*
X54052401Y-87010520D01*
X54052901Y-87007138D01*
X54053466Y-87005775D01*
X54054189Y-86998424D01*
X54055269Y-86991127D01*
X54055051Y-86989668D01*
X54055387Y-86986266D01*
X54055387Y-86748171D01*
X54055051Y-86744768D01*
X54055269Y-86743310D01*
X54054189Y-86736012D01*
X54053466Y-86728662D01*
X54052901Y-86727298D01*
X54052401Y-86723917D01*
X54004782Y-86533441D01*
X54004268Y-86532002D01*
X54004217Y-86531282D01*
X54001108Y-86523157D01*
X53998187Y-86514981D01*
X53997757Y-86514401D01*
X53997211Y-86512973D01*
X53949592Y-86417736D01*
X53944306Y-86409339D01*
X53943296Y-86406899D01*
X53941042Y-86404153D01*
X53939149Y-86401145D01*
X53937151Y-86399412D01*
X53930859Y-86391746D01*
X53883241Y-86344127D01*
X53875570Y-86337832D01*
X53873841Y-86335838D01*
X53870833Y-86333944D01*
X53868087Y-86331691D01*
X53865647Y-86330680D01*
X53857251Y-86325395D01*
X53762013Y-86277776D01*
X53743705Y-86270770D01*
X53740121Y-86270515D01*
X53736801Y-86269140D01*
X53717292Y-86267219D01*
X53622054Y-86267219D01*
X53602545Y-86269140D01*
X53599224Y-86270515D01*
X53595641Y-86270770D01*
X53577332Y-86277776D01*
X53482095Y-86325395D01*
X53473698Y-86330680D01*
X53471258Y-86331691D01*
X53468512Y-86333944D01*
X53465504Y-86335838D01*
X53463771Y-86337835D01*
X53456105Y-86344128D01*
X53408486Y-86391746D01*
X53402191Y-86399416D01*
X53400197Y-86401146D01*
X53398303Y-86404153D01*
X53396050Y-86406900D01*
X53395039Y-86409339D01*
X53389754Y-86417736D01*
X53342135Y-86512974D01*
X53341589Y-86514400D01*
X53341159Y-86514981D01*
X53338237Y-86523157D01*
X53335129Y-86531282D01*
X53335077Y-86532004D01*
X53334564Y-86533442D01*
X53286945Y-86723917D01*
X53286444Y-86727298D01*
X53285880Y-86728662D01*
X53285156Y-86736012D01*
X53284077Y-86743310D01*
X53284294Y-86744768D01*
X53283959Y-86748171D01*
X52600479Y-86748171D01*
X52621684Y-86684556D01*
X52623883Y-86674883D01*
X52624895Y-86672442D01*
X52625243Y-86668904D01*
X52626031Y-86665441D01*
X52625843Y-86662806D01*
X52626816Y-86652933D01*
X52626816Y-86557695D01*
X52624895Y-86538186D01*
X52623519Y-86534865D01*
X52623265Y-86531282D01*
X52616259Y-86512973D01*
X52568640Y-86417736D01*
X52563354Y-86409339D01*
X52562344Y-86406899D01*
X52560090Y-86404153D01*
X52558197Y-86401145D01*
X52556199Y-86399412D01*
X52549907Y-86391746D01*
X52502289Y-86344127D01*
X52494618Y-86337832D01*
X52492889Y-86335838D01*
X52489881Y-86333944D01*
X52487135Y-86331691D01*
X52484695Y-86330680D01*
X52476299Y-86325395D01*
X52381061Y-86277776D01*
X52362753Y-86270770D01*
X52359169Y-86270515D01*
X52355849Y-86269140D01*
X52336340Y-86267219D01*
X52098245Y-86267219D01*
X52078736Y-86269140D01*
X52075415Y-86270515D01*
X52071832Y-86270770D01*
X52053523Y-86277776D01*
X51958286Y-86325395D01*
X51949889Y-86330680D01*
X51947449Y-86331691D01*
X51944703Y-86333944D01*
X51941695Y-86335838D01*
X51939962Y-86337835D01*
X51932296Y-86344128D01*
X51884677Y-86391746D01*
X51872241Y-86406900D01*
X51857309Y-86442948D01*
X51857309Y-86481966D01*
X51872241Y-86518014D01*
X51899831Y-86545604D01*
X51935879Y-86560536D01*
X51974897Y-86560536D01*
X52010945Y-86545604D01*
X52026099Y-86533168D01*
X52062242Y-86497023D01*
X52121852Y-86467219D01*
X52312733Y-86467219D01*
X52372342Y-86497024D01*
X52397011Y-86521692D01*
X52426816Y-86581302D01*
X52426816Y-86636706D01*
X52391794Y-86741770D01*
X51837058Y-87296508D01*
X51824623Y-87311661D01*
X51824622Y-87311662D01*
X51809690Y-87347710D01*
X51497113Y-87347710D01*
X51716228Y-86734186D01*
X51720981Y-86715167D01*
X51719043Y-86676197D01*
X51702340Y-86640935D01*
X51673414Y-86614749D01*
X51636669Y-86601626D01*
X51597699Y-86603563D01*
X51562437Y-86620267D01*
X51536250Y-86649192D01*
X51527880Y-86666919D01*
X51383959Y-87069897D01*
X51240038Y-86666918D01*
X51231668Y-86649192D01*
X51205481Y-86620266D01*
X51170219Y-86603563D01*
X51131249Y-86601625D01*
X51094504Y-86614748D01*
X51065578Y-86640935D01*
X51048875Y-86676197D01*
X51046937Y-86715167D01*
X50103006Y-86715167D01*
X50103006Y-86700552D01*
X50101085Y-86681043D01*
X50086153Y-86644995D01*
X50058563Y-86617405D01*
X50022515Y-86602473D01*
X49983497Y-86602473D01*
X49947449Y-86617405D01*
X49919859Y-86644995D01*
X49904927Y-86681043D01*
X49903006Y-86700552D01*
X49903006Y-87230559D01*
X49896151Y-87237413D01*
X49836542Y-87267219D01*
X49740899Y-87267219D01*
X49696589Y-87245064D01*
X49674435Y-87200754D01*
X49674435Y-86700552D01*
X49672514Y-86681043D01*
X49657582Y-86644995D01*
X49629992Y-86617405D01*
X49593944Y-86602473D01*
X49554926Y-86602473D01*
X49518878Y-86617405D01*
X49491288Y-86644995D01*
X49476356Y-86681043D01*
X49474435Y-86700552D01*
X49339180Y-86700552D01*
X49339180Y-86681043D01*
X49324248Y-86644995D01*
X49296658Y-86617405D01*
X49260610Y-86602473D01*
X49241101Y-86600552D01*
X49145863Y-86600552D01*
X49126354Y-86602473D01*
X49123033Y-86603848D01*
X49119450Y-86604103D01*
X49101141Y-86611109D01*
X49036812Y-86643273D01*
X49010944Y-86617405D01*
X48974896Y-86602473D01*
X48935878Y-86602473D01*
X48899830Y-86617405D01*
X48872240Y-86644995D01*
X48857308Y-86681043D01*
X48855387Y-86700552D01*
X48720132Y-86700552D01*
X48720132Y-86681043D01*
X48705200Y-86644995D01*
X48677610Y-86617405D01*
X48641562Y-86602473D01*
X48622053Y-86600552D01*
X48483958Y-86600552D01*
X48483958Y-86367219D01*
X48482037Y-86347710D01*
X48467105Y-86311662D01*
X48439515Y-86284072D01*
X48403467Y-86269140D01*
X48364449Y-86269140D01*
X48328401Y-86284072D01*
X48300811Y-86311662D01*
X48285879Y-86347710D01*
X48283958Y-86367219D01*
X48283958Y-86600552D01*
X48241101Y-86600552D01*
X48221592Y-86602473D01*
X48185544Y-86617405D01*
X48157954Y-86644995D01*
X48143022Y-86681043D01*
X48005847Y-86681043D01*
X47990915Y-86644995D01*
X47963325Y-86617405D01*
X47927277Y-86602473D01*
X47888259Y-86602473D01*
X47852211Y-86617405D01*
X47824621Y-86644995D01*
X47809689Y-86681043D01*
X47807768Y-86700552D01*
X47471578Y-86700552D01*
X47471348Y-86700187D01*
X47470835Y-86698647D01*
X47469171Y-86696729D01*
X47462959Y-86686859D01*
X47453484Y-86678642D01*
X47445270Y-86669171D01*
X47435398Y-86662957D01*
X47433482Y-86661295D01*
X47431943Y-86660781D01*
X47428680Y-86658728D01*
X47333441Y-86611109D01*
X47315132Y-86604103D01*
X47311549Y-86603848D01*
X47308229Y-86602473D01*
X47288720Y-86600552D01*
X47145863Y-86600552D01*
X47126354Y-86602473D01*
X47123033Y-86603848D01*
X47119450Y-86604103D01*
X47101141Y-86611109D01*
X47005904Y-86658728D01*
X47003005Y-86660552D01*
X47000108Y-86658728D01*
X46904870Y-86611109D01*
X46886562Y-86604103D01*
X46882978Y-86603848D01*
X46879658Y-86602473D01*
X46860149Y-86600552D01*
X46717292Y-86600552D01*
X46697783Y-86602473D01*
X46694462Y-86603848D01*
X46690879Y-86604103D01*
X46672570Y-86611109D01*
X46639987Y-86627400D01*
X46629992Y-86617405D01*
X46593944Y-86602473D01*
X46554926Y-86602473D01*
X46518878Y-86617405D01*
X46491288Y-86644995D01*
X46476356Y-86681043D01*
X46474435Y-86700552D01*
X46198244Y-86700552D01*
X46196323Y-86681043D01*
X46181391Y-86644995D01*
X46153801Y-86617405D01*
X46117753Y-86602473D01*
X46078735Y-86602473D01*
X46042687Y-86617405D01*
X46015097Y-86644995D01*
X46000165Y-86681043D01*
X45998244Y-86700552D01*
X45998244Y-87230559D01*
X45991389Y-87237413D01*
X45931780Y-87267219D01*
X45836137Y-87267219D01*
X45791827Y-87245064D01*
X45769673Y-87200754D01*
X45769673Y-86700552D01*
X45767752Y-86681043D01*
X45752820Y-86644995D01*
X45725230Y-86617405D01*
X45689182Y-86602473D01*
X45650164Y-86602473D01*
X45614116Y-86617405D01*
X45586526Y-86644995D01*
X45571594Y-86681043D01*
X45569673Y-86700552D01*
X45320369Y-86700552D01*
X45290496Y-86581060D01*
X45289982Y-86579621D01*
X45289931Y-86578901D01*
X45286822Y-86570776D01*
X45283901Y-86562600D01*
X45283471Y-86562020D01*
X45282925Y-86560592D01*
X45235306Y-86465355D01*
X45230019Y-86456956D01*
X45229010Y-86454519D01*
X45226758Y-86451775D01*
X45224863Y-86448764D01*
X45222865Y-86447031D01*
X45216574Y-86439365D01*
X45172538Y-86395329D01*
X47762070Y-86395329D01*
X47762070Y-86434347D01*
X47777002Y-86470395D01*
X47789438Y-86485549D01*
X47837057Y-86533167D01*
X47852210Y-86545604D01*
X47862768Y-86549977D01*
X47888259Y-86560536D01*
X47927277Y-86560536D01*
X47963325Y-86545604D01*
X47978479Y-86533168D01*
X48026097Y-86485549D01*
X48038534Y-86470396D01*
X48053465Y-86434347D01*
X48053465Y-86395329D01*
X48050605Y-86388425D01*
X48038534Y-86359280D01*
X48026097Y-86344127D01*
X47978479Y-86296508D01*
X47963325Y-86284072D01*
X47927277Y-86269140D01*
X47888259Y-86269140D01*
X47862768Y-86279698D01*
X47852210Y-86284072D01*
X47837057Y-86296509D01*
X47789438Y-86344127D01*
X47777003Y-86359280D01*
X47777002Y-86359281D01*
X47762070Y-86395329D01*
X45172538Y-86395329D01*
X45121336Y-86344127D01*
X45106182Y-86331691D01*
X45102863Y-86330316D01*
X45100148Y-86327961D01*
X45082247Y-86319970D01*
X44939391Y-86272351D01*
X44929719Y-86270151D01*
X44927277Y-86269140D01*
X44923738Y-86268791D01*
X44920275Y-86268004D01*
X44917641Y-86268191D01*
X44907768Y-86267219D01*
X44669673Y-86267219D01*
X44650164Y-86269140D01*
X44614116Y-86284072D01*
X44586526Y-86311662D01*
X44571594Y-86347710D01*
X44569673Y-86367219D01*
X44458562Y-86367219D01*
X44458562Y-84757275D01*
X44569673Y-84757275D01*
X44569673Y-85757275D01*
X44571594Y-85776784D01*
X44586526Y-85812832D01*
X44614116Y-85840422D01*
X44650164Y-85855354D01*
X44689182Y-85855354D01*
X44725230Y-85840422D01*
X44752820Y-85812832D01*
X44767752Y-85776784D01*
X44769673Y-85757275D01*
X44769673Y-85381084D01*
X45050625Y-85381084D01*
X45070134Y-85379163D01*
X45073454Y-85377787D01*
X45077038Y-85377533D01*
X45095346Y-85370527D01*
X45190584Y-85322908D01*
X45198980Y-85317622D01*
X45201420Y-85316612D01*
X45204166Y-85314358D01*
X45207174Y-85312465D01*
X45208903Y-85310470D01*
X45216574Y-85304176D01*
X45264192Y-85256557D01*
X45270484Y-85248890D01*
X45272482Y-85247158D01*
X45274375Y-85244149D01*
X45276629Y-85241404D01*
X45277639Y-85238963D01*
X45282925Y-85230567D01*
X45305286Y-85185846D01*
X45522054Y-85185846D01*
X45522054Y-85328703D01*
X45522389Y-85332105D01*
X45522172Y-85333564D01*
X45523251Y-85340861D01*
X45523975Y-85348212D01*
X45524539Y-85349575D01*
X45525040Y-85352957D01*
X45572659Y-85543432D01*
X45573172Y-85544869D01*
X45573224Y-85545592D01*
X45576332Y-85553716D01*
X45579254Y-85561893D01*
X45579684Y-85562473D01*
X45580230Y-85563900D01*
X45627849Y-85659138D01*
X45633131Y-85667530D01*
X45634144Y-85669974D01*
X45636400Y-85672723D01*
X45638292Y-85675728D01*
X45640286Y-85677457D01*
X45646581Y-85685127D01*
X45741819Y-85780367D01*
X45756972Y-85792803D01*
X45760291Y-85794178D01*
X45763007Y-85796533D01*
X45780907Y-85804524D01*
X45923764Y-85852143D01*
X45933436Y-85854342D01*
X45935878Y-85855354D01*
X45939415Y-85855702D01*
X45942879Y-85856490D01*
X45945513Y-85856302D01*
X45955387Y-85857275D01*
X46050625Y-85857275D01*
X46060498Y-85856302D01*
X46063132Y-85856490D01*
X46066595Y-85855702D01*
X46070134Y-85855354D01*
X46072576Y-85854342D01*
X46082248Y-85852143D01*
X46225104Y-85804524D01*
X46243005Y-85796533D01*
X46245720Y-85794178D01*
X46249040Y-85792803D01*
X46264193Y-85780366D01*
X46311812Y-85732746D01*
X46324249Y-85717593D01*
X46339180Y-85681544D01*
X46339179Y-85642526D01*
X46324248Y-85606478D01*
X46296657Y-85578888D01*
X46260609Y-85563957D01*
X46221591Y-85563958D01*
X46185543Y-85578889D01*
X46170389Y-85591326D01*
X46139462Y-85622253D01*
X46034398Y-85657275D01*
X45971613Y-85657275D01*
X45866548Y-85622253D01*
X45799478Y-85555183D01*
X45764024Y-85484274D01*
X45722054Y-85316393D01*
X45722054Y-85198156D01*
X45764024Y-85030274D01*
X45799477Y-84959368D01*
X45866549Y-84892296D01*
X45971613Y-84857275D01*
X46034398Y-84857275D01*
X46139463Y-84892296D01*
X46170390Y-84923223D01*
X46185543Y-84935660D01*
X46221592Y-84950591D01*
X46260610Y-84950591D01*
X46296658Y-84935660D01*
X46324248Y-84908070D01*
X46339179Y-84872022D01*
X46339179Y-84833004D01*
X46324248Y-84796955D01*
X46311811Y-84781802D01*
X46287285Y-84757275D01*
X46569673Y-84757275D01*
X46569673Y-85757275D01*
X46571594Y-85776784D01*
X46586526Y-85812832D01*
X46614116Y-85840422D01*
X46650164Y-85855354D01*
X46669673Y-85857275D01*
X47050625Y-85857275D01*
X47070134Y-85855354D01*
X47073454Y-85853978D01*
X47077038Y-85853724D01*
X47095346Y-85846718D01*
X47190584Y-85799099D01*
X47198979Y-85793814D01*
X47201421Y-85792803D01*
X47204168Y-85790547D01*
X47207174Y-85788656D01*
X47208904Y-85786661D01*
X47216574Y-85780366D01*
X47264193Y-85732746D01*
X47270485Y-85725079D01*
X47272482Y-85723348D01*
X47274375Y-85720340D01*
X47276630Y-85717593D01*
X47277641Y-85715151D01*
X47282925Y-85706757D01*
X47330544Y-85611520D01*
X47337550Y-85593211D01*
X47337804Y-85589627D01*
X47339180Y-85586307D01*
X47341101Y-85566798D01*
X47341101Y-85423941D01*
X47339180Y-85404432D01*
X47337804Y-85401111D01*
X47337550Y-85397528D01*
X47330544Y-85379219D01*
X47282925Y-85283982D01*
X47277639Y-85275585D01*
X47276629Y-85273145D01*
X47274375Y-85270399D01*
X47272482Y-85267391D01*
X47270484Y-85265658D01*
X47264192Y-85257992D01*
X47216574Y-85210373D01*
X47215785Y-85209725D01*
X47216573Y-85208938D01*
X47222865Y-85201271D01*
X47224863Y-85199539D01*
X47226756Y-85196530D01*
X47229010Y-85193785D01*
X47230020Y-85191344D01*
X47235306Y-85182948D01*
X47282925Y-85087711D01*
X47289931Y-85069402D01*
X47290185Y-85065818D01*
X47291561Y-85062498D01*
X47293482Y-85042989D01*
X47293482Y-84947751D01*
X47291561Y-84928242D01*
X47290185Y-84924921D01*
X47289931Y-84921338D01*
X47282925Y-84903029D01*
X47235306Y-84807792D01*
X47230020Y-84799395D01*
X47229010Y-84796955D01*
X47226756Y-84794209D01*
X47224863Y-84791201D01*
X47222865Y-84789468D01*
X47216573Y-84781802D01*
X47192047Y-84757275D01*
X48331578Y-84757275D01*
X48331578Y-85757275D01*
X48333499Y-85776784D01*
X48348431Y-85812832D01*
X48376021Y-85840422D01*
X48412069Y-85855354D01*
X48431578Y-85857275D01*
X48669673Y-85857275D01*
X48679546Y-85856302D01*
X48682180Y-85856490D01*
X48685643Y-85855702D01*
X48689182Y-85855354D01*
X48691624Y-85854342D01*
X48701296Y-85852143D01*
X48844152Y-85804524D01*
X48862053Y-85796533D01*
X48864768Y-85794178D01*
X48868088Y-85792803D01*
X48883241Y-85780366D01*
X48978479Y-85685127D01*
X48984771Y-85677460D01*
X48986768Y-85675729D01*
X48988661Y-85672721D01*
X48990916Y-85669974D01*
X48991927Y-85667532D01*
X48997211Y-85659138D01*
X49044830Y-85563901D01*
X49045376Y-85562472D01*
X49045806Y-85561893D01*
X49048727Y-85553716D01*
X49051836Y-85545592D01*
X49051887Y-85544871D01*
X49052401Y-85543433D01*
X49100020Y-85352957D01*
X49100520Y-85349575D01*
X49101085Y-85348212D01*
X49101808Y-85340861D01*
X49102888Y-85333564D01*
X49102670Y-85332105D01*
X49103006Y-85328703D01*
X49103006Y-85185846D01*
X49102670Y-85182443D01*
X49102888Y-85180985D01*
X49101808Y-85173687D01*
X49101085Y-85166337D01*
X49100520Y-85164973D01*
X49100020Y-85161592D01*
X49082274Y-85090608D01*
X49331578Y-85090608D01*
X49331578Y-85757275D01*
X49333499Y-85776784D01*
X49348431Y-85812832D01*
X49376021Y-85840422D01*
X49412069Y-85855354D01*
X49451087Y-85855354D01*
X49487135Y-85840422D01*
X49514725Y-85812832D01*
X49529657Y-85776784D01*
X49531578Y-85757275D01*
X49531578Y-85304691D01*
X49543382Y-85281084D01*
X49903007Y-85281084D01*
X49903007Y-85566798D01*
X49904928Y-85586307D01*
X49906303Y-85589627D01*
X49906558Y-85593211D01*
X49913564Y-85611519D01*
X49961183Y-85706757D01*
X49966466Y-85715149D01*
X49967478Y-85717593D01*
X49969734Y-85720342D01*
X49971626Y-85723347D01*
X49973620Y-85725076D01*
X49979915Y-85732746D01*
X50027533Y-85780366D01*
X50035201Y-85786659D01*
X50036933Y-85788656D01*
X50039941Y-85790549D01*
X50042687Y-85792803D01*
X50045127Y-85793813D01*
X50053524Y-85799099D01*
X50148761Y-85846718D01*
X50167070Y-85853724D01*
X50170653Y-85853978D01*
X50173974Y-85855354D01*
X50193483Y-85857275D01*
X50336340Y-85857275D01*
X50355849Y-85855354D01*
X50359169Y-85853978D01*
X50362753Y-85853724D01*
X50381061Y-85846718D01*
X50476299Y-85799099D01*
X50484694Y-85793814D01*
X50487136Y-85792803D01*
X50489883Y-85790547D01*
X50492889Y-85788656D01*
X50494619Y-85786661D01*
X50502289Y-85780366D01*
X50549908Y-85732746D01*
X50556200Y-85725079D01*
X50558197Y-85723348D01*
X50560090Y-85720340D01*
X50562345Y-85717593D01*
X50563356Y-85715151D01*
X50568640Y-85706757D01*
X50616259Y-85611520D01*
X50623265Y-85593211D01*
X50623519Y-85589627D01*
X50624895Y-85586307D01*
X50626816Y-85566798D01*
X50626816Y-85281084D01*
X50624895Y-85261575D01*
X50623519Y-85258254D01*
X50623265Y-85254671D01*
X50616259Y-85236362D01*
X50568640Y-85141125D01*
X50563354Y-85132728D01*
X50562344Y-85130288D01*
X50560090Y-85127542D01*
X50558197Y-85124534D01*
X50556199Y-85122801D01*
X50549907Y-85115135D01*
X50525381Y-85090608D01*
X50855388Y-85090608D01*
X50855388Y-85757275D01*
X50857309Y-85776784D01*
X50872241Y-85812832D01*
X50899831Y-85840422D01*
X50935879Y-85855354D01*
X50974897Y-85855354D01*
X51010945Y-85840422D01*
X51038535Y-85812832D01*
X51053467Y-85776784D01*
X51055388Y-85757275D01*
X51055388Y-85227267D01*
X51062242Y-85220412D01*
X51121852Y-85190608D01*
X51217495Y-85190608D01*
X51261804Y-85212763D01*
X51283959Y-85257072D01*
X51283959Y-85757275D01*
X51285880Y-85776784D01*
X51300812Y-85812832D01*
X51328402Y-85840422D01*
X51364450Y-85855354D01*
X51403468Y-85855354D01*
X51439516Y-85840422D01*
X51467106Y-85812832D01*
X51482038Y-85776784D01*
X51483959Y-85757275D01*
X51483959Y-85519179D01*
X51712531Y-85519179D01*
X51712531Y-85614417D01*
X51714452Y-85633926D01*
X51715827Y-85637246D01*
X51716082Y-85640829D01*
X51723088Y-85659138D01*
X51770707Y-85754377D01*
X51772760Y-85757640D01*
X51773274Y-85759179D01*
X51774936Y-85761095D01*
X51781150Y-85770967D01*
X51790621Y-85779181D01*
X51798838Y-85788656D01*
X51808708Y-85794868D01*
X51810626Y-85796532D01*
X51812166Y-85797045D01*
X51815429Y-85799099D01*
X51910666Y-85846718D01*
X51928975Y-85853724D01*
X51932558Y-85853978D01*
X51935879Y-85855354D01*
X51955388Y-85857275D01*
X52193483Y-85857275D01*
X52212992Y-85855354D01*
X52216312Y-85853978D01*
X52219896Y-85853724D01*
X52238204Y-85846718D01*
X52242807Y-85844416D01*
X52269212Y-85855354D01*
X52308230Y-85855354D01*
X52344278Y-85840422D01*
X52371868Y-85812832D01*
X52386800Y-85776784D01*
X52388721Y-85757275D01*
X52388721Y-85233465D01*
X52386800Y-85213956D01*
X52385424Y-85210635D01*
X52385170Y-85207052D01*
X52378164Y-85188743D01*
X52330545Y-85093506D01*
X52328490Y-85090242D01*
X52327978Y-85088704D01*
X52326316Y-85086788D01*
X52320102Y-85076915D01*
X52310626Y-85068697D01*
X52302413Y-85059227D01*
X52292541Y-85053013D01*
X52290625Y-85051351D01*
X52289086Y-85050837D01*
X52285823Y-85048784D01*
X52190585Y-85001165D01*
X52172277Y-84994159D01*
X52168693Y-84993904D01*
X52165373Y-84992529D01*
X52145864Y-84990608D01*
X51955388Y-84990608D01*
X51935879Y-84992529D01*
X51932558Y-84993904D01*
X51928975Y-84994159D01*
X51910666Y-85001165D01*
X51815429Y-85048784D01*
X51798838Y-85059227D01*
X51773274Y-85088704D01*
X51760935Y-85125720D01*
X51763701Y-85164640D01*
X51781150Y-85199539D01*
X51810627Y-85225103D01*
X51847643Y-85237442D01*
X51886563Y-85234676D01*
X51904871Y-85227670D01*
X51978995Y-85190608D01*
X52122257Y-85190608D01*
X52166566Y-85212763D01*
X52188721Y-85257072D01*
X52188721Y-85266899D01*
X52169876Y-85276322D01*
X51955388Y-85276322D01*
X51935879Y-85278243D01*
X51932558Y-85279618D01*
X51928975Y-85279873D01*
X51910666Y-85286879D01*
X51815429Y-85334498D01*
X51812165Y-85336552D01*
X51810627Y-85337065D01*
X51808711Y-85338726D01*
X51798838Y-85344941D01*
X51790620Y-85354416D01*
X51781150Y-85362630D01*
X51774936Y-85372501D01*
X51773274Y-85374418D01*
X51772760Y-85375956D01*
X51770707Y-85379220D01*
X51723088Y-85474458D01*
X51716082Y-85492766D01*
X51715827Y-85496349D01*
X51714452Y-85499670D01*
X51712531Y-85519179D01*
X51483959Y-85519179D01*
X51483959Y-85233465D01*
X51482038Y-85213956D01*
X51480662Y-85210635D01*
X51480408Y-85207052D01*
X51473402Y-85188743D01*
X51425783Y-85093506D01*
X51423728Y-85090242D01*
X51423216Y-85088704D01*
X51421554Y-85086788D01*
X51415340Y-85076915D01*
X51405864Y-85068697D01*
X51397651Y-85059227D01*
X51387779Y-85053013D01*
X51385863Y-85051351D01*
X51384324Y-85050837D01*
X51381061Y-85048784D01*
X51285823Y-85001165D01*
X51267515Y-84994159D01*
X51263931Y-84993904D01*
X51260611Y-84992529D01*
X51241102Y-84990608D01*
X51098245Y-84990608D01*
X51078736Y-84992529D01*
X51075415Y-84993904D01*
X51071832Y-84994159D01*
X51053523Y-85001165D01*
X51020940Y-85017456D01*
X51010945Y-85007461D01*
X50974897Y-84992529D01*
X50935879Y-84992529D01*
X50899831Y-85007461D01*
X50872241Y-85035051D01*
X50857309Y-85071099D01*
X50855388Y-85090608D01*
X50525381Y-85090608D01*
X50502289Y-85067516D01*
X50494618Y-85061221D01*
X50492889Y-85059227D01*
X50489881Y-85057333D01*
X50487135Y-85055080D01*
X50484695Y-85054069D01*
X50476299Y-85048784D01*
X50381061Y-85001165D01*
X50362753Y-84994159D01*
X50359169Y-84993904D01*
X50355849Y-84992529D01*
X50336340Y-84990608D01*
X50193483Y-84990608D01*
X50173974Y-84992529D01*
X50170653Y-84993904D01*
X50167070Y-84994159D01*
X50148761Y-85001165D01*
X50053524Y-85048784D01*
X50045127Y-85054069D01*
X50042687Y-85055080D01*
X50039941Y-85057333D01*
X50036933Y-85059227D01*
X50035200Y-85061224D01*
X50027534Y-85067517D01*
X49979915Y-85115135D01*
X49973620Y-85122805D01*
X49971626Y-85124535D01*
X49969732Y-85127542D01*
X49967479Y-85130289D01*
X49966468Y-85132728D01*
X49961183Y-85141125D01*
X49913564Y-85236363D01*
X49906558Y-85254671D01*
X49906303Y-85258254D01*
X49904928Y-85261575D01*
X49903007Y-85281084D01*
X49543382Y-85281084D01*
X49561383Y-85245081D01*
X49586051Y-85220412D01*
X49645661Y-85190608D01*
X49717292Y-85190608D01*
X49736801Y-85188687D01*
X49772849Y-85173755D01*
X49800439Y-85146165D01*
X49815371Y-85110117D01*
X49815371Y-85071099D01*
X49800439Y-85035051D01*
X49772849Y-85007461D01*
X49736801Y-84992529D01*
X49717292Y-84990608D01*
X49622054Y-84990608D01*
X49602545Y-84992529D01*
X49599224Y-84993904D01*
X49595641Y-84994159D01*
X49577332Y-85001165D01*
X49513003Y-85033329D01*
X49487135Y-85007461D01*
X49451087Y-84992529D01*
X49412069Y-84992529D01*
X49376021Y-85007461D01*
X49348431Y-85035051D01*
X49333499Y-85071099D01*
X49331578Y-85090608D01*
X49082274Y-85090608D01*
X49052401Y-84971116D01*
X49051887Y-84969677D01*
X49051836Y-84968957D01*
X49048727Y-84960832D01*
X49045806Y-84952656D01*
X49045376Y-84952076D01*
X49044830Y-84950648D01*
X48997211Y-84855411D01*
X48991924Y-84847012D01*
X48990915Y-84844575D01*
X48988663Y-84841831D01*
X48986768Y-84838820D01*
X48984770Y-84837087D01*
X48978479Y-84829421D01*
X48883241Y-84734183D01*
X48868087Y-84721747D01*
X48864768Y-84720372D01*
X48862053Y-84718017D01*
X48844152Y-84710026D01*
X48701296Y-84662407D01*
X48691624Y-84660207D01*
X48689182Y-84659196D01*
X48685643Y-84658847D01*
X48682180Y-84658060D01*
X48679546Y-84658247D01*
X48669673Y-84657275D01*
X48431578Y-84657275D01*
X48412069Y-84659196D01*
X48376021Y-84674128D01*
X48348431Y-84701718D01*
X48333499Y-84737766D01*
X48331578Y-84757275D01*
X47192047Y-84757275D01*
X47168955Y-84734183D01*
X47161284Y-84727888D01*
X47159555Y-84725894D01*
X47156547Y-84724000D01*
X47153801Y-84721747D01*
X47151361Y-84720736D01*
X47142965Y-84715451D01*
X47047727Y-84667832D01*
X47029419Y-84660826D01*
X47025835Y-84660571D01*
X47022515Y-84659196D01*
X47003006Y-84657275D01*
X46669673Y-84657275D01*
X46650164Y-84659196D01*
X46614116Y-84674128D01*
X46586526Y-84701718D01*
X46571594Y-84737766D01*
X46569673Y-84757275D01*
X46287285Y-84757275D01*
X46264193Y-84734183D01*
X46249039Y-84721747D01*
X46245720Y-84720372D01*
X46243005Y-84718017D01*
X46225104Y-84710026D01*
X46082248Y-84662407D01*
X46072576Y-84660207D01*
X46070134Y-84659196D01*
X46066595Y-84658847D01*
X46063132Y-84658060D01*
X46060498Y-84658247D01*
X46050625Y-84657275D01*
X45955387Y-84657275D01*
X45945513Y-84658247D01*
X45942879Y-84658060D01*
X45939415Y-84658847D01*
X45935878Y-84659196D01*
X45933436Y-84660207D01*
X45923764Y-84662407D01*
X45780907Y-84710026D01*
X45763007Y-84718017D01*
X45760291Y-84720372D01*
X45756973Y-84721747D01*
X45741819Y-84734183D01*
X45646581Y-84829421D01*
X45640286Y-84837091D01*
X45638292Y-84838821D01*
X45636398Y-84841828D01*
X45634145Y-84844575D01*
X45633134Y-84847014D01*
X45627849Y-84855411D01*
X45580230Y-84950649D01*
X45579684Y-84952075D01*
X45579254Y-84952656D01*
X45576332Y-84960832D01*
X45573224Y-84968957D01*
X45573172Y-84969679D01*
X45572659Y-84971117D01*
X45525040Y-85161592D01*
X45524539Y-85164973D01*
X45523975Y-85166337D01*
X45523251Y-85173687D01*
X45522172Y-85180985D01*
X45522389Y-85182443D01*
X45522054Y-85185846D01*
X45305286Y-85185846D01*
X45330544Y-85135330D01*
X45337550Y-85117021D01*
X45337804Y-85113437D01*
X45339180Y-85110117D01*
X45341101Y-85090608D01*
X45341101Y-84947751D01*
X45339180Y-84928242D01*
X45337804Y-84924921D01*
X45337550Y-84921338D01*
X45330544Y-84903029D01*
X45282925Y-84807792D01*
X45277639Y-84799395D01*
X45276629Y-84796955D01*
X45274375Y-84794209D01*
X45272482Y-84791201D01*
X45270484Y-84789468D01*
X45264192Y-84781802D01*
X45216574Y-84734183D01*
X45208903Y-84727888D01*
X45207174Y-84725894D01*
X45204166Y-84724000D01*
X45201420Y-84721747D01*
X45198980Y-84720736D01*
X45190584Y-84715451D01*
X45095346Y-84667832D01*
X45077038Y-84660826D01*
X45073454Y-84660571D01*
X45070134Y-84659196D01*
X45050625Y-84657275D01*
X44669673Y-84657275D01*
X44650164Y-84659196D01*
X44614116Y-84674128D01*
X44586526Y-84701718D01*
X44571594Y-84737766D01*
X44569673Y-84757275D01*
X44458562Y-84757275D01*
X44458562Y-84546164D01*
X54166498Y-84546164D01*
X54166498Y-87578330D01*
G37*
D11*
G36*
X48411399Y-94179077D02*
G01*
X48441806Y-94209484D01*
X48476064Y-94278000D01*
X48476064Y-94385447D01*
X48441806Y-94453963D01*
X48411399Y-94484370D01*
X48342883Y-94518628D01*
X48054636Y-94518628D01*
X48054636Y-94144819D01*
X48342883Y-94144819D01*
X48411399Y-94179077D01*
G37*
G36*
X46268542Y-94179077D02*
G01*
X46298949Y-94209484D01*
X46333207Y-94278000D01*
X46333207Y-94385447D01*
X46298949Y-94453963D01*
X46268542Y-94484370D01*
X46200026Y-94518628D01*
X45911779Y-94518628D01*
X45911779Y-94144819D01*
X46200026Y-94144819D01*
X46268542Y-94179077D01*
G37*
G36*
X48737175Y-95255913D02*
G01*
X45650668Y-95255913D01*
X45650668Y-94069819D01*
X45761779Y-94069819D01*
X45761779Y-95069819D01*
X45763220Y-95084451D01*
X45774419Y-95111487D01*
X45795111Y-95132179D01*
X45822147Y-95143378D01*
X45851411Y-95143378D01*
X45878447Y-95132179D01*
X45899139Y-95111487D01*
X45910338Y-95084451D01*
X45911779Y-95069819D01*
X45911779Y-94668628D01*
X46217731Y-94668628D01*
X46232363Y-94667187D01*
X46234852Y-94666155D01*
X46237540Y-94665965D01*
X46251272Y-94660710D01*
X46346510Y-94613091D01*
X46352809Y-94609126D01*
X46354637Y-94608369D01*
X46356693Y-94606680D01*
X46358953Y-94605259D01*
X46360252Y-94603760D01*
X46366002Y-94599042D01*
X46413621Y-94551423D01*
X46418339Y-94545673D01*
X46419838Y-94544374D01*
X46421259Y-94542114D01*
X46422948Y-94540058D01*
X46423705Y-94538230D01*
X46427670Y-94531931D01*
X46475289Y-94436693D01*
X46480544Y-94422962D01*
X46480735Y-94420272D01*
X46481766Y-94417784D01*
X46483207Y-94403152D01*
X46483207Y-94260295D01*
X46481766Y-94245663D01*
X46480735Y-94243174D01*
X46480544Y-94240485D01*
X46475289Y-94226754D01*
X46427670Y-94131516D01*
X46423705Y-94125216D01*
X46422948Y-94123389D01*
X46421259Y-94121332D01*
X46419838Y-94119073D01*
X46418339Y-94117773D01*
X46413621Y-94112024D01*
X46374220Y-94072623D01*
X46666593Y-94072623D01*
X46668581Y-94087191D01*
X46906676Y-95087191D01*
X46908405Y-95092210D01*
X46908645Y-95094012D01*
X46909587Y-95095640D01*
X46911466Y-95101091D01*
X46917852Y-95109915D01*
X46923307Y-95119337D01*
X46926364Y-95121677D01*
X46928623Y-95124798D01*
X46937898Y-95130505D01*
X46946545Y-95137124D01*
X46950265Y-95138116D01*
X46953545Y-95140134D01*
X46964299Y-95141858D01*
X46974821Y-95144664D01*
X46978636Y-95144157D01*
X46982440Y-95144767D01*
X46993038Y-95142243D01*
X47003829Y-95140810D01*
X47007160Y-95138881D01*
X47010908Y-95137989D01*
X47019732Y-95131602D01*
X47029154Y-95126148D01*
X47031494Y-95123090D01*
X47034615Y-95120832D01*
X47040322Y-95111556D01*
X47046941Y-95102910D01*
X47048966Y-95097510D01*
X47049951Y-95095910D01*
X47050238Y-95094118D01*
X47052104Y-95089144D01*
X47170111Y-94646613D01*
X47288120Y-95089144D01*
X47289985Y-95094119D01*
X47290273Y-95095910D01*
X47291257Y-95097509D01*
X47293283Y-95102911D01*
X47299903Y-95111559D01*
X47305609Y-95120832D01*
X47308729Y-95123090D01*
X47311070Y-95126148D01*
X47320491Y-95131602D01*
X47329316Y-95137989D01*
X47333063Y-95138881D01*
X47336395Y-95140810D01*
X47347188Y-95142244D01*
X47357784Y-95144767D01*
X47361585Y-95144157D01*
X47365404Y-95144665D01*
X47375935Y-95141856D01*
X47386679Y-95140134D01*
X47389955Y-95138118D01*
X47393679Y-95137125D01*
X47402329Y-95130503D01*
X47411601Y-95124798D01*
X47413859Y-95121677D01*
X47416917Y-95119337D01*
X47422372Y-95109914D01*
X47428758Y-95101091D01*
X47430635Y-95095642D01*
X47431579Y-95094013D01*
X47431818Y-95092209D01*
X47433548Y-95087191D01*
X47671644Y-94087191D01*
X47673632Y-94072623D01*
X47673182Y-94069819D01*
X47904636Y-94069819D01*
X47904636Y-95069819D01*
X47906077Y-95084451D01*
X47917276Y-95111487D01*
X47937968Y-95132179D01*
X47965004Y-95143378D01*
X47994268Y-95143378D01*
X48021304Y-95132179D01*
X48041996Y-95111487D01*
X48053195Y-95084451D01*
X48054636Y-95069819D01*
X48054636Y-94668628D01*
X48178682Y-94668628D01*
X48489622Y-95112829D01*
X48499193Y-95123989D01*
X48523872Y-95139716D01*
X48552689Y-95144802D01*
X48581260Y-95138472D01*
X48605234Y-95121690D01*
X48620961Y-95097012D01*
X48626046Y-95068194D01*
X48619717Y-95039623D01*
X48612507Y-95026810D01*
X48361703Y-94668518D01*
X48375220Y-94667187D01*
X48377709Y-94666155D01*
X48380397Y-94665965D01*
X48394129Y-94660710D01*
X48489367Y-94613091D01*
X48495666Y-94609126D01*
X48497494Y-94608369D01*
X48499550Y-94606680D01*
X48501810Y-94605259D01*
X48503109Y-94603760D01*
X48508859Y-94599042D01*
X48556478Y-94551423D01*
X48561196Y-94545673D01*
X48562695Y-94544374D01*
X48564116Y-94542114D01*
X48565805Y-94540058D01*
X48566562Y-94538230D01*
X48570527Y-94531931D01*
X48618146Y-94436693D01*
X48623401Y-94422962D01*
X48623592Y-94420272D01*
X48624623Y-94417784D01*
X48626064Y-94403152D01*
X48626064Y-94260295D01*
X48624623Y-94245663D01*
X48623592Y-94243174D01*
X48623401Y-94240485D01*
X48618146Y-94226754D01*
X48570527Y-94131516D01*
X48566562Y-94125216D01*
X48565805Y-94123389D01*
X48564116Y-94121332D01*
X48562695Y-94119073D01*
X48561196Y-94117773D01*
X48556478Y-94112024D01*
X48508859Y-94064405D01*
X48503109Y-94059686D01*
X48501810Y-94058188D01*
X48499550Y-94056766D01*
X48497494Y-94055078D01*
X48495666Y-94054320D01*
X48489367Y-94050356D01*
X48394129Y-94002737D01*
X48380397Y-93997482D01*
X48377709Y-93997291D01*
X48375220Y-93996260D01*
X48360588Y-93994819D01*
X47979636Y-93994819D01*
X47965004Y-93996260D01*
X47937968Y-94007459D01*
X47917276Y-94028151D01*
X47906077Y-94055187D01*
X47904636Y-94069819D01*
X47673182Y-94069819D01*
X47668999Y-94043728D01*
X47653663Y-94018806D01*
X47629956Y-94001650D01*
X47601488Y-93994871D01*
X47572593Y-93999504D01*
X47547671Y-94014840D01*
X47530514Y-94038547D01*
X47525724Y-94052448D01*
X47356471Y-94763303D01*
X47242580Y-94336208D01*
X47241294Y-94332780D01*
X47241103Y-94331339D01*
X47240111Y-94329626D01*
X47237417Y-94322442D01*
X47231402Y-94314583D01*
X47226441Y-94306015D01*
X47222582Y-94303061D01*
X47219630Y-94299204D01*
X47211065Y-94294245D01*
X47203203Y-94288227D01*
X47198506Y-94286974D01*
X47194305Y-94284542D01*
X47184498Y-94283239D01*
X47174928Y-94280687D01*
X47170109Y-94281327D01*
X47165297Y-94280688D01*
X47155736Y-94283237D01*
X47145919Y-94284542D01*
X47141713Y-94286976D01*
X47137021Y-94288228D01*
X47129161Y-94294243D01*
X47120594Y-94299204D01*
X47117640Y-94303062D01*
X47113783Y-94306015D01*
X47108824Y-94314580D01*
X47102807Y-94322441D01*
X47100110Y-94329630D01*
X47099121Y-94331340D01*
X47098929Y-94332779D01*
X47097644Y-94336208D01*
X46983752Y-94763303D01*
X46814501Y-94052447D01*
X46809711Y-94038547D01*
X46792554Y-94014840D01*
X46767632Y-93999504D01*
X46738737Y-93994871D01*
X46710269Y-94001649D01*
X46686562Y-94018806D01*
X46671226Y-94043728D01*
X46666593Y-94072623D01*
X46374220Y-94072623D01*
X46366002Y-94064405D01*
X46360252Y-94059686D01*
X46358953Y-94058188D01*
X46356693Y-94056766D01*
X46354637Y-94055078D01*
X46352809Y-94054320D01*
X46346510Y-94050356D01*
X46251272Y-94002737D01*
X46237540Y-93997482D01*
X46234852Y-93997291D01*
X46232363Y-93996260D01*
X46217731Y-93994819D01*
X45836779Y-93994819D01*
X45822147Y-93996260D01*
X45795111Y-94007459D01*
X45774419Y-94028151D01*
X45763220Y-94055187D01*
X45761779Y-94069819D01*
X45650668Y-94069819D01*
X45650668Y-93883708D01*
X48737175Y-93883708D01*
X48737175Y-95255913D01*
G37*
X91436779Y-97088866D02*
X92198684Y-97088866D01*
X91817731Y-97469819D02*
X91817731Y-96707914D01*
G36*
X70088617Y-76783324D02*
G01*
X70160561Y-76855267D01*
X70194819Y-76923783D01*
X70194819Y-77078849D01*
X70160561Y-77147364D01*
X70088617Y-77219307D01*
X69927251Y-77259649D01*
X69612386Y-77259649D01*
X69451019Y-77219307D01*
X69379077Y-77147365D01*
X69344819Y-77078849D01*
X69344819Y-76923783D01*
X69379077Y-76855267D01*
X69451019Y-76783324D01*
X69612386Y-76742983D01*
X69927251Y-76742983D01*
X70088617Y-76783324D01*
G37*
G36*
X70455930Y-77949331D02*
G01*
X69083708Y-77949331D01*
X69083708Y-77748588D01*
X69196260Y-77748588D01*
X69196260Y-77777852D01*
X69207459Y-77804888D01*
X69228151Y-77825580D01*
X69255187Y-77836779D01*
X69269819Y-77838220D01*
X70269819Y-77838220D01*
X70284451Y-77836779D01*
X70311487Y-77825580D01*
X70332179Y-77804888D01*
X70343378Y-77777852D01*
X70343378Y-77748588D01*
X70332179Y-77721552D01*
X70311487Y-77700860D01*
X70284451Y-77689661D01*
X70269819Y-77688220D01*
X69269819Y-77688220D01*
X69255187Y-77689661D01*
X69228151Y-77700860D01*
X69207459Y-77721552D01*
X69196260Y-77748588D01*
X69083708Y-77748588D01*
X69083708Y-76906078D01*
X69194819Y-76906078D01*
X69194819Y-77096554D01*
X69196260Y-77111186D01*
X69197291Y-77113675D01*
X69197482Y-77116363D01*
X69202737Y-77130095D01*
X69250356Y-77225333D01*
X69254320Y-77231632D01*
X69255078Y-77233460D01*
X69256766Y-77235516D01*
X69258188Y-77237776D01*
X69259686Y-77239075D01*
X69264405Y-77244825D01*
X69359643Y-77340063D01*
X69371008Y-77349391D01*
X69376161Y-77351525D01*
X69380640Y-77354844D01*
X69394486Y-77359791D01*
X69584962Y-77407410D01*
X69587498Y-77407785D01*
X69588520Y-77408208D01*
X69594032Y-77408750D01*
X69599506Y-77409560D01*
X69600598Y-77409397D01*
X69603152Y-77409649D01*
X69936485Y-77409649D01*
X69939038Y-77409397D01*
X69940131Y-77409560D01*
X69945604Y-77408750D01*
X69951117Y-77408208D01*
X69952138Y-77407785D01*
X69954675Y-77407410D01*
X70145151Y-77359791D01*
X70158997Y-77354844D01*
X70163476Y-77351524D01*
X70168628Y-77349391D01*
X70179994Y-77340063D01*
X70275233Y-77244825D01*
X70279953Y-77239074D01*
X70281450Y-77237776D01*
X70282869Y-77235521D01*
X70284561Y-77233460D01*
X70285319Y-77231627D01*
X70289282Y-77225333D01*
X70336901Y-77130095D01*
X70342156Y-77116364D01*
X70342347Y-77113674D01*
X70343378Y-77111186D01*
X70344819Y-77096554D01*
X70344819Y-76906078D01*
X70343378Y-76891446D01*
X70342347Y-76888957D01*
X70342156Y-76886268D01*
X70336901Y-76872537D01*
X70289282Y-76777299D01*
X70285319Y-76771004D01*
X70284561Y-76769172D01*
X70282869Y-76767110D01*
X70281450Y-76764856D01*
X70279953Y-76763557D01*
X70275233Y-76757807D01*
X70179994Y-76662569D01*
X70168628Y-76653241D01*
X70163476Y-76651107D01*
X70158997Y-76647788D01*
X70145151Y-76642841D01*
X69954675Y-76595222D01*
X69952138Y-76594846D01*
X69951117Y-76594424D01*
X69945604Y-76593881D01*
X69940131Y-76593072D01*
X69939038Y-76593234D01*
X69936485Y-76592983D01*
X69603152Y-76592983D01*
X69600598Y-76593234D01*
X69599506Y-76593072D01*
X69594032Y-76593881D01*
X69588520Y-76594424D01*
X69587498Y-76594846D01*
X69584962Y-76595222D01*
X69394486Y-76642841D01*
X69380640Y-76647788D01*
X69376161Y-76651106D01*
X69371008Y-76653241D01*
X69359643Y-76662569D01*
X69264405Y-76757807D01*
X69259686Y-76763556D01*
X69258188Y-76764856D01*
X69256766Y-76767115D01*
X69255078Y-76769172D01*
X69254320Y-76770999D01*
X69250356Y-76777299D01*
X69202737Y-76872537D01*
X69197482Y-76886269D01*
X69197291Y-76888956D01*
X69196260Y-76891446D01*
X69194819Y-76906078D01*
X69083708Y-76906078D01*
X69083708Y-75715602D01*
X69194819Y-75715602D01*
X69194819Y-76334649D01*
X69196260Y-76349281D01*
X69207459Y-76376317D01*
X69228151Y-76397009D01*
X69255187Y-76408208D01*
X69284451Y-76408208D01*
X69311487Y-76397009D01*
X69332179Y-76376317D01*
X69343378Y-76349281D01*
X69344819Y-76334649D01*
X69344819Y-75880884D01*
X69601383Y-76105378D01*
X69607707Y-76109899D01*
X69609103Y-76111295D01*
X69610426Y-76111843D01*
X69613344Y-76113929D01*
X69624881Y-76117830D01*
X69636139Y-76122494D01*
X69638670Y-76122494D01*
X69641065Y-76123304D01*
X69653218Y-76122494D01*
X69665403Y-76122494D01*
X69667739Y-76121526D01*
X69670263Y-76121358D01*
X69681188Y-76115955D01*
X69692439Y-76111295D01*
X69694225Y-76109508D01*
X69696495Y-76108386D01*
X69704520Y-76099213D01*
X69713131Y-76090603D01*
X69714099Y-76088266D01*
X69715765Y-76086362D01*
X69719666Y-76074824D01*
X69724330Y-76063567D01*
X69724681Y-76059996D01*
X69725140Y-76058641D01*
X69725008Y-76056673D01*
X69725771Y-76048935D01*
X69725771Y-75923783D01*
X69760029Y-75855267D01*
X69790436Y-75824860D01*
X69858952Y-75790602D01*
X70061637Y-75790602D01*
X70130153Y-75824860D01*
X70160561Y-75855267D01*
X70194819Y-75923783D01*
X70194819Y-76174087D01*
X70160561Y-76242602D01*
X70121548Y-76281615D01*
X70112220Y-76292981D01*
X70101021Y-76320017D01*
X70101021Y-76349280D01*
X70112219Y-76376316D01*
X70132912Y-76397009D01*
X70159948Y-76408208D01*
X70189211Y-76408208D01*
X70216247Y-76397010D01*
X70227612Y-76387683D01*
X70275232Y-76340064D01*
X70279950Y-76334314D01*
X70281450Y-76333014D01*
X70282872Y-76330754D01*
X70284560Y-76328698D01*
X70285317Y-76326870D01*
X70289282Y-76320571D01*
X70336901Y-76225333D01*
X70342156Y-76211602D01*
X70342347Y-76208912D01*
X70343378Y-76206424D01*
X70344819Y-76191792D01*
X70344819Y-75906078D01*
X70343378Y-75891446D01*
X70342347Y-75888957D01*
X70342156Y-75886268D01*
X70336901Y-75872537D01*
X70289282Y-75777299D01*
X70285317Y-75770999D01*
X70284560Y-75769172D01*
X70282872Y-75767115D01*
X70281450Y-75764856D01*
X70279950Y-75763555D01*
X70275232Y-75757806D01*
X70227612Y-75710187D01*
X70221863Y-75705469D01*
X70220564Y-75703971D01*
X70218305Y-75702549D01*
X70216247Y-75700860D01*
X70214417Y-75700102D01*
X70208121Y-75696139D01*
X70112883Y-75648520D01*
X70099151Y-75643265D01*
X70096463Y-75643074D01*
X70093974Y-75642043D01*
X70079342Y-75640602D01*
X69841247Y-75640602D01*
X69826615Y-75642043D01*
X69824126Y-75643073D01*
X69821437Y-75643265D01*
X69807706Y-75648520D01*
X69712468Y-75696139D01*
X69706168Y-75700103D01*
X69704341Y-75700861D01*
X69702284Y-75702549D01*
X69700025Y-75703971D01*
X69698725Y-75705469D01*
X69692976Y-75710188D01*
X69645357Y-75757807D01*
X69640638Y-75763556D01*
X69639140Y-75764856D01*
X69637718Y-75767115D01*
X69636030Y-75769172D01*
X69635272Y-75770999D01*
X69631308Y-75777299D01*
X69583689Y-75872537D01*
X69578516Y-75886054D01*
X69319207Y-75659159D01*
X69312882Y-75654637D01*
X69311487Y-75653242D01*
X69310163Y-75652693D01*
X69307246Y-75650608D01*
X69295708Y-75646706D01*
X69284451Y-75642043D01*
X69281920Y-75642043D01*
X69279525Y-75641233D01*
X69267372Y-75642043D01*
X69255187Y-75642043D01*
X69252850Y-75643010D01*
X69250327Y-75643179D01*
X69239401Y-75648581D01*
X69228151Y-75653242D01*
X69226364Y-75655028D01*
X69224095Y-75656151D01*
X69216069Y-75665323D01*
X69207459Y-75673934D01*
X69206490Y-75676270D01*
X69204825Y-75678175D01*
X69200923Y-75689712D01*
X69196260Y-75700970D01*
X69195908Y-75704540D01*
X69195450Y-75705896D01*
X69195581Y-75707863D01*
X69194819Y-75715602D01*
X69083708Y-75715602D01*
X69083708Y-74715602D01*
X69194819Y-74715602D01*
X69194819Y-75382268D01*
X69196260Y-75396900D01*
X69207459Y-75423936D01*
X69228151Y-75444628D01*
X69255187Y-75455827D01*
X69284451Y-75455827D01*
X69311487Y-75444628D01*
X69332179Y-75423936D01*
X69343378Y-75396900D01*
X69344819Y-75382268D01*
X69344819Y-74829342D01*
X70240275Y-75213109D01*
X70254291Y-75217548D01*
X70283553Y-75217905D01*
X70310723Y-75207037D01*
X70331666Y-75186598D01*
X70343194Y-75159700D01*
X70343550Y-75130439D01*
X70332682Y-75103269D01*
X70312244Y-75082325D01*
X70299363Y-75075237D01*
X69299363Y-74646666D01*
X69285346Y-74642227D01*
X69284881Y-74642221D01*
X69284451Y-74642043D01*
X69270265Y-74642043D01*
X69256085Y-74641870D01*
X69255653Y-74642043D01*
X69255187Y-74642043D01*
X69242097Y-74647464D01*
X69228915Y-74652738D01*
X69228581Y-74653063D01*
X69228151Y-74653242D01*
X69218131Y-74663261D01*
X69207971Y-74673177D01*
X69207787Y-74673605D01*
X69207459Y-74673934D01*
X69202032Y-74687034D01*
X69196444Y-74700075D01*
X69196438Y-74700539D01*
X69196260Y-74700970D01*
X69194819Y-74715602D01*
X69083708Y-74715602D01*
X69083708Y-74530759D01*
X70455930Y-74530759D01*
X70455930Y-77949331D01*
G37*
D10*
G36*
X110826610Y-57588703D02*
G01*
X110851279Y-57613371D01*
X110881084Y-57672981D01*
X110881084Y-57930326D01*
X110557275Y-57930326D01*
X110557275Y-57672981D01*
X110587080Y-57613371D01*
X110611748Y-57588702D01*
X110671358Y-57558898D01*
X110767001Y-57558898D01*
X110826610Y-57588703D01*
G37*
G36*
X112794218Y-57600868D02*
G01*
X112865127Y-57636322D01*
X112932197Y-57703392D01*
X112967219Y-57808457D01*
X112967219Y-57930326D01*
X112167219Y-57930326D01*
X112167219Y-57808458D01*
X112202240Y-57703393D01*
X112269313Y-57636321D01*
X112340218Y-57600868D01*
X112508099Y-57558898D01*
X112626337Y-57558898D01*
X112794218Y-57600868D01*
G37*
G36*
X110778991Y-55636322D02*
G01*
X110803660Y-55660990D01*
X110833465Y-55720600D01*
X110833465Y-55930326D01*
X110557275Y-55930326D01*
X110557275Y-55720600D01*
X110587080Y-55660990D01*
X110611748Y-55636321D01*
X110671358Y-55606517D01*
X110719382Y-55606517D01*
X110778991Y-55636322D01*
G37*
G36*
X111302802Y-55588704D02*
G01*
X111327470Y-55613371D01*
X111357275Y-55672981D01*
X111357275Y-55930326D01*
X111033465Y-55930326D01*
X111033465Y-55713220D01*
X111068486Y-55608154D01*
X111087938Y-55588702D01*
X111147548Y-55558898D01*
X111243191Y-55558898D01*
X111302802Y-55588704D01*
G37*
G36*
X111184274Y-53838963D02*
G01*
X111255183Y-53874417D01*
X111322253Y-53941487D01*
X111357275Y-54046552D01*
X111357275Y-54168421D01*
X110557275Y-54168421D01*
X110557275Y-54046553D01*
X110592296Y-53941488D01*
X110659369Y-53874416D01*
X110730274Y-53838963D01*
X110898155Y-53796993D01*
X111016393Y-53796993D01*
X111184274Y-53838963D01*
G37*
G36*
X111302802Y-52302989D02*
G01*
X111327470Y-52327656D01*
X111357275Y-52387266D01*
X111357275Y-52482909D01*
X111327470Y-52542518D01*
X111302802Y-52567185D01*
X111243191Y-52596992D01*
X111004691Y-52596992D01*
X110945081Y-52567187D01*
X110920413Y-52542518D01*
X110890608Y-52482908D01*
X110890608Y-52387266D01*
X110920413Y-52327656D01*
X110945081Y-52302987D01*
X111004691Y-52273183D01*
X111243191Y-52273183D01*
X111302802Y-52302989D01*
G37*
G36*
X111357275Y-50530123D02*
G01*
X111357275Y-50721004D01*
X111335120Y-50765313D01*
X111290810Y-50787468D01*
X111242786Y-50787468D01*
X111198477Y-50765313D01*
X111176322Y-50721003D01*
X111176322Y-50511278D01*
X111347852Y-50511278D01*
X111357275Y-50530123D01*
G37*
G36*
X112841837Y-48886582D02*
G01*
X112912746Y-48922037D01*
X112937414Y-48946704D01*
X112967219Y-49006314D01*
X112967219Y-49054338D01*
X112937414Y-49113947D01*
X112912746Y-49138614D01*
X112841837Y-49174069D01*
X112673956Y-49216040D01*
X112460480Y-49216040D01*
X112292599Y-49174069D01*
X112221692Y-49138616D01*
X112197024Y-49113947D01*
X112167219Y-49054337D01*
X112167219Y-49006314D01*
X112197024Y-48946704D01*
X112221692Y-48922035D01*
X112292599Y-48886582D01*
X112460480Y-48844612D01*
X112673956Y-48844612D01*
X112841837Y-48886582D01*
G37*
G36*
X113278330Y-58241437D02*
G01*
X110246164Y-58241437D01*
X110246164Y-57649374D01*
X110357275Y-57649374D01*
X110357275Y-58030326D01*
X110359196Y-58049835D01*
X110374128Y-58085883D01*
X110401718Y-58113473D01*
X110437766Y-58128405D01*
X110457275Y-58130326D01*
X111457275Y-58130326D01*
X111476784Y-58128405D01*
X111512832Y-58113473D01*
X111540422Y-58085883D01*
X111555354Y-58049835D01*
X111555354Y-58010817D01*
X111540422Y-57974769D01*
X111512832Y-57947179D01*
X111476784Y-57932247D01*
X111457275Y-57930326D01*
X111081084Y-57930326D01*
X111081084Y-57792231D01*
X111967219Y-57792231D01*
X111967219Y-58030326D01*
X111969140Y-58049835D01*
X111984072Y-58085883D01*
X112011662Y-58113473D01*
X112047710Y-58128405D01*
X112067219Y-58130326D01*
X113067219Y-58130326D01*
X113086728Y-58128405D01*
X113122776Y-58113473D01*
X113150366Y-58085883D01*
X113165298Y-58049835D01*
X113167219Y-58030326D01*
X113167219Y-57792231D01*
X113166246Y-57782357D01*
X113166434Y-57779723D01*
X113165646Y-57776259D01*
X113165298Y-57772722D01*
X113164286Y-57770280D01*
X113162087Y-57760608D01*
X113114468Y-57617751D01*
X113106477Y-57599851D01*
X113104122Y-57597135D01*
X113102747Y-57593816D01*
X113090311Y-57578663D01*
X112995071Y-57483425D01*
X112987401Y-57477130D01*
X112985672Y-57475136D01*
X112982667Y-57473244D01*
X112979918Y-57470988D01*
X112977474Y-57469975D01*
X112969082Y-57464693D01*
X112873844Y-57417074D01*
X112872417Y-57416528D01*
X112871837Y-57416098D01*
X112863660Y-57413176D01*
X112855536Y-57410068D01*
X112854813Y-57410016D01*
X112853376Y-57409503D01*
X112662901Y-57361884D01*
X112659519Y-57361383D01*
X112658156Y-57360819D01*
X112650805Y-57360095D01*
X112643508Y-57359016D01*
X112642049Y-57359233D01*
X112638647Y-57358898D01*
X112495790Y-57358898D01*
X112492387Y-57359233D01*
X112490929Y-57359016D01*
X112483631Y-57360095D01*
X112476281Y-57360819D01*
X112474917Y-57361383D01*
X112471536Y-57361884D01*
X112281060Y-57409503D01*
X112279621Y-57410016D01*
X112278901Y-57410068D01*
X112270776Y-57413176D01*
X112262600Y-57416098D01*
X112262020Y-57416527D01*
X112260592Y-57417074D01*
X112165355Y-57464693D01*
X112156956Y-57469979D01*
X112154519Y-57470989D01*
X112151775Y-57473240D01*
X112148764Y-57475136D01*
X112147031Y-57477133D01*
X112139365Y-57483425D01*
X112044127Y-57578663D01*
X112031691Y-57593817D01*
X112030316Y-57597135D01*
X112027961Y-57599851D01*
X112019970Y-57617752D01*
X111972351Y-57760608D01*
X111970151Y-57770279D01*
X111969140Y-57772722D01*
X111968791Y-57776260D01*
X111968004Y-57779724D01*
X111968191Y-57782357D01*
X111967219Y-57792231D01*
X111081084Y-57792231D01*
X111081084Y-57649374D01*
X111079163Y-57629865D01*
X111077787Y-57626544D01*
X111077533Y-57622961D01*
X111070527Y-57604652D01*
X111022908Y-57509415D01*
X111017622Y-57501018D01*
X111016612Y-57498578D01*
X111014358Y-57495832D01*
X111012465Y-57492824D01*
X111010467Y-57491091D01*
X111004175Y-57483425D01*
X110956557Y-57435806D01*
X110948886Y-57429511D01*
X110947157Y-57427517D01*
X110944149Y-57425623D01*
X110941403Y-57423370D01*
X110938963Y-57422359D01*
X110930567Y-57417074D01*
X110835329Y-57369455D01*
X110817021Y-57362449D01*
X110813437Y-57362194D01*
X110810117Y-57360819D01*
X110790608Y-57358898D01*
X110647751Y-57358898D01*
X110628242Y-57360819D01*
X110624921Y-57362194D01*
X110621338Y-57362449D01*
X110603029Y-57369455D01*
X110507792Y-57417074D01*
X110499395Y-57422359D01*
X110496955Y-57423370D01*
X110494209Y-57425623D01*
X110491201Y-57427517D01*
X110489468Y-57429514D01*
X110481802Y-57435807D01*
X110434183Y-57483425D01*
X110427888Y-57491095D01*
X110425894Y-57492825D01*
X110424000Y-57495832D01*
X110421747Y-57498579D01*
X110420736Y-57501018D01*
X110415451Y-57509415D01*
X110367832Y-57604653D01*
X110360826Y-57622961D01*
X110360571Y-57626544D01*
X110359196Y-57629865D01*
X110357275Y-57649374D01*
X110246164Y-57649374D01*
X110246164Y-56649374D01*
X110357275Y-56649374D01*
X110357275Y-56744612D01*
X110358247Y-56754485D01*
X110358060Y-56757119D01*
X110358847Y-56760582D01*
X110359196Y-56764121D01*
X110360207Y-56766563D01*
X110362407Y-56776235D01*
X110410026Y-56919091D01*
X110418017Y-56936992D01*
X110420372Y-56939707D01*
X110421747Y-56943026D01*
X110434183Y-56958180D01*
X110529421Y-57053418D01*
X110537087Y-57059709D01*
X110538820Y-57061707D01*
X110541831Y-57063602D01*
X110544575Y-57065854D01*
X110547012Y-57066863D01*
X110555411Y-57072150D01*
X110650648Y-57119769D01*
X110652076Y-57120315D01*
X110652656Y-57120745D01*
X110660832Y-57123666D01*
X110668957Y-57126775D01*
X110669677Y-57126826D01*
X110671116Y-57127340D01*
X110861592Y-57174959D01*
X110864973Y-57175459D01*
X110866337Y-57176024D01*
X110873687Y-57176747D01*
X110880985Y-57177827D01*
X110882443Y-57177609D01*
X110885846Y-57177945D01*
X111028703Y-57177945D01*
X111032105Y-57177609D01*
X111033564Y-57177827D01*
X111040861Y-57176747D01*
X111048212Y-57176024D01*
X111049575Y-57175459D01*
X111052957Y-57174959D01*
X111243432Y-57127340D01*
X111244869Y-57126826D01*
X111245592Y-57126775D01*
X111253716Y-57123666D01*
X111261893Y-57120745D01*
X111262473Y-57120314D01*
X111263900Y-57119769D01*
X111359138Y-57072150D01*
X111367530Y-57066867D01*
X111369974Y-57065855D01*
X111372723Y-57063598D01*
X111375728Y-57061707D01*
X111377457Y-57059712D01*
X111385127Y-57053418D01*
X111480367Y-56958180D01*
X111492803Y-56943027D01*
X111494178Y-56939707D01*
X111496533Y-56936992D01*
X111504524Y-56919092D01*
X111552143Y-56776235D01*
X111554342Y-56766562D01*
X111555354Y-56764121D01*
X111555702Y-56760583D01*
X111556490Y-56757120D01*
X111556302Y-56754485D01*
X111557275Y-56744612D01*
X111557275Y-56649374D01*
X111556302Y-56639500D01*
X111556490Y-56636866D01*
X111555702Y-56633402D01*
X111555354Y-56629865D01*
X111554342Y-56627423D01*
X111552143Y-56617751D01*
X111540308Y-56582246D01*
X112302473Y-56582246D01*
X112302473Y-56621264D01*
X112317405Y-56657312D01*
X112344995Y-56684902D01*
X112381043Y-56699834D01*
X112400552Y-56701755D01*
X112930560Y-56701755D01*
X112937414Y-56708609D01*
X112967219Y-56768219D01*
X112967219Y-56863862D01*
X112945064Y-56908171D01*
X112900754Y-56930326D01*
X112400552Y-56930326D01*
X112381043Y-56932247D01*
X112344995Y-56947179D01*
X112317405Y-56974769D01*
X112302473Y-57010817D01*
X112302473Y-57049835D01*
X112317405Y-57085883D01*
X112344995Y-57113473D01*
X112381043Y-57128405D01*
X112400552Y-57130326D01*
X112924361Y-57130326D01*
X112943870Y-57128405D01*
X112947190Y-57127029D01*
X112950773Y-57126775D01*
X112969082Y-57119769D01*
X113064321Y-57072150D01*
X113067584Y-57070096D01*
X113069123Y-57069583D01*
X113071039Y-57067920D01*
X113080911Y-57061707D01*
X113089125Y-57052235D01*
X113098600Y-57044019D01*
X113104812Y-57034148D01*
X113106476Y-57032231D01*
X113106989Y-57030690D01*
X113109043Y-57027428D01*
X113156662Y-56932191D01*
X113163668Y-56913882D01*
X113163922Y-56910298D01*
X113165298Y-56906978D01*
X113167219Y-56887469D01*
X113167219Y-56744612D01*
X113165298Y-56725103D01*
X113163922Y-56721782D01*
X113163668Y-56718199D01*
X113156662Y-56699890D01*
X113140370Y-56667307D01*
X113150366Y-56657312D01*
X113165298Y-56621264D01*
X113165298Y-56582246D01*
X113150366Y-56546198D01*
X113122776Y-56518608D01*
X113086728Y-56503676D01*
X113067219Y-56501755D01*
X112400552Y-56501755D01*
X112381043Y-56503676D01*
X112344995Y-56518608D01*
X112317405Y-56546198D01*
X112302473Y-56582246D01*
X111540308Y-56582246D01*
X111504524Y-56474894D01*
X111496533Y-56456994D01*
X111494178Y-56454278D01*
X111492803Y-56450959D01*
X111480366Y-56435805D01*
X111432746Y-56388187D01*
X111417593Y-56375750D01*
X111381544Y-56360819D01*
X111342526Y-56360820D01*
X111306478Y-56375751D01*
X111278888Y-56403341D01*
X111263957Y-56439390D01*
X111263958Y-56478408D01*
X111278889Y-56514456D01*
X111291326Y-56529609D01*
X111322253Y-56560535D01*
X111357275Y-56665600D01*
X111357275Y-56728385D01*
X111322253Y-56833450D01*
X111255183Y-56900520D01*
X111184274Y-56935974D01*
X111016393Y-56977945D01*
X110898155Y-56977945D01*
X110730274Y-56935974D01*
X110659369Y-56900522D01*
X110592296Y-56833449D01*
X110557275Y-56728385D01*
X110557275Y-56665601D01*
X110592296Y-56560535D01*
X110623223Y-56529609D01*
X110635660Y-56514456D01*
X110650591Y-56478407D01*
X110650591Y-56439389D01*
X110635660Y-56403341D01*
X110608070Y-56375751D01*
X110572022Y-56360820D01*
X110533004Y-56360820D01*
X110496955Y-56375751D01*
X110481802Y-56388188D01*
X110434183Y-56435806D01*
X110421747Y-56450960D01*
X110420372Y-56454278D01*
X110418017Y-56456994D01*
X110410026Y-56474895D01*
X110362407Y-56617751D01*
X110360207Y-56627422D01*
X110359196Y-56629865D01*
X110358847Y-56633403D01*
X110358060Y-56636867D01*
X110358247Y-56639500D01*
X110357275Y-56649374D01*
X110246164Y-56649374D01*
X110246164Y-55696993D01*
X110357275Y-55696993D01*
X110357275Y-56030326D01*
X110359196Y-56049835D01*
X110374128Y-56085883D01*
X110401718Y-56113473D01*
X110437766Y-56128405D01*
X110457275Y-56130326D01*
X111457275Y-56130326D01*
X111476784Y-56128405D01*
X111512832Y-56113473D01*
X111540422Y-56085883D01*
X111555354Y-56049835D01*
X111557275Y-56030326D01*
X111557275Y-55649374D01*
X111555354Y-55629865D01*
X111553978Y-55626544D01*
X111553724Y-55622961D01*
X111546718Y-55604652D01*
X111499099Y-55509415D01*
X111493813Y-55501018D01*
X111492803Y-55498578D01*
X111490549Y-55495832D01*
X111488656Y-55492824D01*
X111486659Y-55491092D01*
X111480366Y-55483424D01*
X111432746Y-55435806D01*
X111425076Y-55429511D01*
X111423347Y-55427517D01*
X111420342Y-55425625D01*
X111417593Y-55423369D01*
X111415149Y-55422357D01*
X111406757Y-55417074D01*
X111395167Y-55411279D01*
X112300552Y-55411279D01*
X112300552Y-55554136D01*
X112302473Y-55573645D01*
X112303848Y-55576965D01*
X112304103Y-55580549D01*
X112311109Y-55598857D01*
X112358728Y-55694095D01*
X112360552Y-55696993D01*
X112358728Y-55699891D01*
X112311109Y-55795129D01*
X112304103Y-55813437D01*
X112303848Y-55817020D01*
X112302473Y-55820341D01*
X112300552Y-55839850D01*
X112300552Y-55982707D01*
X112302473Y-56002216D01*
X112303848Y-56005536D01*
X112304103Y-56009120D01*
X112311109Y-56027428D01*
X112327400Y-56060011D01*
X112317405Y-56070007D01*
X112302473Y-56106055D01*
X112302473Y-56145073D01*
X112317405Y-56181121D01*
X112344995Y-56208711D01*
X112381043Y-56223643D01*
X112400552Y-56225564D01*
X113067219Y-56225564D01*
X113086728Y-56223643D01*
X113122776Y-56208711D01*
X113150366Y-56181121D01*
X113165298Y-56145073D01*
X113165298Y-56106055D01*
X113150366Y-56070007D01*
X113122776Y-56042417D01*
X113086728Y-56027485D01*
X113067219Y-56025564D01*
X112537212Y-56025564D01*
X112530357Y-56018709D01*
X112500552Y-55959099D01*
X112500552Y-55863457D01*
X112522707Y-55819147D01*
X112567016Y-55796993D01*
X113067219Y-55796993D01*
X113086728Y-55795072D01*
X113122776Y-55780140D01*
X113150366Y-55752550D01*
X113165298Y-55716502D01*
X113165298Y-55677484D01*
X113150366Y-55641436D01*
X113122776Y-55613846D01*
X113086728Y-55598914D01*
X113067219Y-55596993D01*
X112567016Y-55596993D01*
X112522707Y-55574838D01*
X112500552Y-55530528D01*
X112500552Y-55434885D01*
X112522706Y-55390575D01*
X112567016Y-55368421D01*
X113067219Y-55368421D01*
X113086728Y-55366500D01*
X113122776Y-55351568D01*
X113150366Y-55323978D01*
X113165298Y-55287930D01*
X113165298Y-55248912D01*
X113150366Y-55212864D01*
X113122776Y-55185274D01*
X113086728Y-55170342D01*
X113067219Y-55168421D01*
X112543409Y-55168421D01*
X112523900Y-55170342D01*
X112520579Y-55171717D01*
X112516996Y-55171972D01*
X112498687Y-55178978D01*
X112403450Y-55226597D01*
X112400187Y-55228650D01*
X112398647Y-55229164D01*
X112396729Y-55230827D01*
X112386859Y-55237040D01*
X112378642Y-55246514D01*
X112369171Y-55254729D01*
X112362957Y-55264600D01*
X112361295Y-55266517D01*
X112360781Y-55268055D01*
X112358728Y-55271319D01*
X112311109Y-55366558D01*
X112304103Y-55384867D01*
X112303848Y-55388449D01*
X112302473Y-55391770D01*
X112300552Y-55411279D01*
X111395167Y-55411279D01*
X111311519Y-55369455D01*
X111293211Y-55362449D01*
X111289627Y-55362194D01*
X111286307Y-55360819D01*
X111266798Y-55358898D01*
X111123941Y-55358898D01*
X111104432Y-55360819D01*
X111101111Y-55362194D01*
X111097528Y-55362449D01*
X111079219Y-55369455D01*
X110983982Y-55417074D01*
X110975585Y-55422359D01*
X110973145Y-55423370D01*
X110970399Y-55425623D01*
X110967391Y-55427517D01*
X110965658Y-55429514D01*
X110957992Y-55435807D01*
X110910373Y-55483425D01*
X110909726Y-55484213D01*
X110908938Y-55483425D01*
X110901267Y-55477130D01*
X110899538Y-55475136D01*
X110896530Y-55473242D01*
X110893784Y-55470989D01*
X110891344Y-55469978D01*
X110882948Y-55464693D01*
X110787710Y-55417074D01*
X110769402Y-55410068D01*
X110765818Y-55409813D01*
X110762498Y-55408438D01*
X110742989Y-55406517D01*
X110647751Y-55406517D01*
X110628242Y-55408438D01*
X110624921Y-55409813D01*
X110621338Y-55410068D01*
X110603029Y-55417074D01*
X110507792Y-55464693D01*
X110499395Y-55469978D01*
X110496955Y-55470989D01*
X110494209Y-55473242D01*
X110491201Y-55475136D01*
X110489468Y-55477133D01*
X110481802Y-55483426D01*
X110434183Y-55531044D01*
X110427888Y-55538714D01*
X110425894Y-55540444D01*
X110424000Y-55543451D01*
X110421747Y-55546198D01*
X110420736Y-55548637D01*
X110415451Y-55557034D01*
X110367832Y-55652272D01*
X110360826Y-55670580D01*
X110360571Y-55674163D01*
X110359196Y-55677484D01*
X110357275Y-55696993D01*
X110246164Y-55696993D01*
X110246164Y-54772722D01*
X111969140Y-54772722D01*
X111969140Y-54811740D01*
X111984072Y-54847788D01*
X111996508Y-54862942D01*
X112044127Y-54910560D01*
X112059280Y-54922997D01*
X112069838Y-54927370D01*
X112095329Y-54937929D01*
X112134347Y-54937929D01*
X112170395Y-54922997D01*
X112185549Y-54910561D01*
X112233167Y-54862942D01*
X112245604Y-54847789D01*
X112256973Y-54820341D01*
X112260536Y-54811740D01*
X112260536Y-54772722D01*
X112302473Y-54772722D01*
X112302473Y-54811740D01*
X112317405Y-54847788D01*
X112344995Y-54875378D01*
X112381043Y-54890310D01*
X112400552Y-54892231D01*
X113067219Y-54892231D01*
X113086728Y-54890310D01*
X113122776Y-54875378D01*
X113150366Y-54847788D01*
X113165298Y-54811740D01*
X113165298Y-54772722D01*
X113150366Y-54736674D01*
X113122776Y-54709084D01*
X113086728Y-54694152D01*
X113067219Y-54692231D01*
X112400552Y-54692231D01*
X112381043Y-54694152D01*
X112344995Y-54709084D01*
X112317405Y-54736674D01*
X112302473Y-54772722D01*
X112260536Y-54772722D01*
X112245604Y-54736674D01*
X112245604Y-54736673D01*
X112233167Y-54721520D01*
X112185549Y-54673901D01*
X112170395Y-54661465D01*
X112134347Y-54646533D01*
X112095329Y-54646533D01*
X112069838Y-54657091D01*
X112059280Y-54661465D01*
X112044127Y-54673902D01*
X111996508Y-54721520D01*
X111984073Y-54736673D01*
X111984072Y-54736674D01*
X111969140Y-54772722D01*
X110246164Y-54772722D01*
X110246164Y-54030326D01*
X110357275Y-54030326D01*
X110357275Y-54268421D01*
X110359196Y-54287930D01*
X110374128Y-54323978D01*
X110401718Y-54351568D01*
X110437766Y-54366500D01*
X110457275Y-54368421D01*
X111457275Y-54368421D01*
X111476784Y-54366500D01*
X111512832Y-54351568D01*
X111540422Y-54323978D01*
X111551791Y-54296532D01*
X111969140Y-54296532D01*
X111969140Y-54335550D01*
X111984072Y-54371598D01*
X112011662Y-54399188D01*
X112047710Y-54414120D01*
X112067219Y-54416041D01*
X112300552Y-54416041D01*
X112300552Y-54458898D01*
X112302473Y-54478407D01*
X112317405Y-54514455D01*
X112344995Y-54542045D01*
X112381043Y-54556977D01*
X112420061Y-54556977D01*
X112456109Y-54542045D01*
X112483699Y-54514455D01*
X112498631Y-54478407D01*
X112500552Y-54458898D01*
X112500552Y-54416041D01*
X112924361Y-54416041D01*
X112943870Y-54414120D01*
X112947190Y-54412744D01*
X112950773Y-54412490D01*
X112969082Y-54405484D01*
X113064321Y-54357865D01*
X113067584Y-54355811D01*
X113069123Y-54355298D01*
X113071039Y-54353635D01*
X113080911Y-54347422D01*
X113089125Y-54337950D01*
X113098600Y-54329734D01*
X113104812Y-54319863D01*
X113106476Y-54317946D01*
X113106989Y-54316405D01*
X113109043Y-54313143D01*
X113156662Y-54217906D01*
X113163668Y-54199597D01*
X113163922Y-54196013D01*
X113165298Y-54192693D01*
X113167219Y-54173184D01*
X113167219Y-54077946D01*
X113165298Y-54058437D01*
X113150366Y-54022389D01*
X113122776Y-53994799D01*
X113086728Y-53979867D01*
X113047710Y-53979867D01*
X113011662Y-53994799D01*
X112984072Y-54022389D01*
X112969140Y-54058437D01*
X112967219Y-54077946D01*
X112967219Y-54149577D01*
X112945064Y-54193886D01*
X112900754Y-54216041D01*
X112500552Y-54216041D01*
X112500552Y-54077946D01*
X112498631Y-54058437D01*
X112483699Y-54022389D01*
X112456109Y-53994799D01*
X112420061Y-53979867D01*
X112381043Y-53979867D01*
X112344995Y-53994799D01*
X112317405Y-54022389D01*
X112302473Y-54058437D01*
X112300552Y-54077946D01*
X112300552Y-54216041D01*
X112067219Y-54216041D01*
X112047710Y-54217962D01*
X112011662Y-54232894D01*
X111984072Y-54260484D01*
X111969140Y-54296532D01*
X111551791Y-54296532D01*
X111555354Y-54287930D01*
X111557275Y-54268421D01*
X111557275Y-54030326D01*
X111556302Y-54020452D01*
X111556490Y-54017818D01*
X111555702Y-54014354D01*
X111555354Y-54010817D01*
X111554342Y-54008375D01*
X111552143Y-53998703D01*
X111504524Y-53855846D01*
X111496533Y-53837946D01*
X111494178Y-53835230D01*
X111492803Y-53831911D01*
X111480367Y-53816758D01*
X111385127Y-53721520D01*
X111377457Y-53715225D01*
X111375728Y-53713231D01*
X111372723Y-53711339D01*
X111369974Y-53709083D01*
X111367530Y-53708070D01*
X111359138Y-53702788D01*
X111263900Y-53655169D01*
X111262473Y-53654623D01*
X111261893Y-53654193D01*
X111253716Y-53651271D01*
X111245592Y-53648163D01*
X111244869Y-53648111D01*
X111243432Y-53647598D01*
X111052957Y-53599979D01*
X111049575Y-53599478D01*
X111048212Y-53598914D01*
X111040861Y-53598190D01*
X111033564Y-53597111D01*
X111032105Y-53597328D01*
X111028703Y-53596993D01*
X110885846Y-53596993D01*
X110882443Y-53597328D01*
X110880985Y-53597111D01*
X110873687Y-53598190D01*
X110866337Y-53598914D01*
X110864973Y-53599478D01*
X110861592Y-53599979D01*
X110671116Y-53647598D01*
X110669677Y-53648111D01*
X110668957Y-53648163D01*
X110660832Y-53651271D01*
X110652656Y-53654193D01*
X110652076Y-53654622D01*
X110650648Y-53655169D01*
X110555411Y-53702788D01*
X110547012Y-53708074D01*
X110544575Y-53709084D01*
X110541831Y-53711335D01*
X110538820Y-53713231D01*
X110537087Y-53715228D01*
X110529421Y-53721520D01*
X110434183Y-53816758D01*
X110421747Y-53831912D01*
X110420372Y-53835230D01*
X110418017Y-53837946D01*
X110410026Y-53855847D01*
X110362407Y-53998703D01*
X110360207Y-54008374D01*
X110359196Y-54010817D01*
X110358847Y-54014355D01*
X110358060Y-54017819D01*
X110358247Y-54020452D01*
X110357275Y-54030326D01*
X110246164Y-54030326D01*
X110246164Y-53458898D01*
X112300552Y-53458898D01*
X112300552Y-53554136D01*
X112302473Y-53573645D01*
X112303848Y-53576965D01*
X112304103Y-53580549D01*
X112311109Y-53598857D01*
X112343273Y-53663186D01*
X112317405Y-53689055D01*
X112302473Y-53725103D01*
X112302473Y-53764121D01*
X112317405Y-53800169D01*
X112344995Y-53827759D01*
X112381043Y-53842691D01*
X112400552Y-53844612D01*
X113067219Y-53844612D01*
X113086728Y-53842691D01*
X113122776Y-53827759D01*
X113150366Y-53800169D01*
X113165298Y-53764121D01*
X113165298Y-53725103D01*
X113150366Y-53689055D01*
X113122776Y-53661465D01*
X113086728Y-53646533D01*
X113067219Y-53644612D01*
X112614635Y-53644612D01*
X112555025Y-53614807D01*
X112530357Y-53590138D01*
X112500552Y-53530528D01*
X112500552Y-53458898D01*
X112498631Y-53439389D01*
X112483699Y-53403341D01*
X112456109Y-53375751D01*
X112420061Y-53360819D01*
X112381043Y-53360819D01*
X112344995Y-53375751D01*
X112317405Y-53403341D01*
X112302473Y-53439389D01*
X112300552Y-53458898D01*
X110246164Y-53458898D01*
X110246164Y-52982707D01*
X110690608Y-52982707D01*
X110690608Y-53077945D01*
X110692529Y-53097454D01*
X110693904Y-53100774D01*
X110694159Y-53104358D01*
X110701165Y-53122666D01*
X110733329Y-53186995D01*
X110707461Y-53212864D01*
X110692529Y-53248912D01*
X110692529Y-53287930D01*
X110707461Y-53323978D01*
X110735051Y-53351568D01*
X110771099Y-53366500D01*
X110790608Y-53368421D01*
X111457275Y-53368421D01*
X111476784Y-53366500D01*
X111512832Y-53351568D01*
X111540422Y-53323978D01*
X111555354Y-53287930D01*
X111555354Y-53248912D01*
X111540422Y-53212864D01*
X111512832Y-53185274D01*
X111476784Y-53170342D01*
X111457275Y-53168421D01*
X111004691Y-53168421D01*
X110945081Y-53138616D01*
X110920413Y-53113947D01*
X110890608Y-53054337D01*
X110890608Y-52982707D01*
X110888687Y-52963198D01*
X110873755Y-52927150D01*
X110846165Y-52899560D01*
X110810117Y-52884628D01*
X110771099Y-52884628D01*
X110735051Y-52899560D01*
X110707461Y-52927150D01*
X110692529Y-52963198D01*
X110690608Y-52982707D01*
X110246164Y-52982707D01*
X110246164Y-52363659D01*
X110690608Y-52363659D01*
X110690608Y-52506516D01*
X110692529Y-52526025D01*
X110693904Y-52529345D01*
X110694159Y-52532929D01*
X110701165Y-52551237D01*
X110748784Y-52646475D01*
X110754069Y-52654871D01*
X110755080Y-52657311D01*
X110757333Y-52660057D01*
X110759227Y-52663065D01*
X110761221Y-52664794D01*
X110767516Y-52672465D01*
X110815135Y-52720083D01*
X110822801Y-52726375D01*
X110824534Y-52728373D01*
X110827542Y-52730266D01*
X110830288Y-52732520D01*
X110832728Y-52733530D01*
X110841125Y-52738816D01*
X110936362Y-52786435D01*
X110954671Y-52793441D01*
X110958254Y-52793695D01*
X110961575Y-52795071D01*
X110981084Y-52796992D01*
X111266798Y-52796992D01*
X111286307Y-52795071D01*
X111289627Y-52793695D01*
X111293211Y-52793441D01*
X111311519Y-52786435D01*
X111406757Y-52738816D01*
X111415149Y-52733532D01*
X111417593Y-52732521D01*
X111420342Y-52730264D01*
X111423347Y-52728373D01*
X111425076Y-52726378D01*
X111432746Y-52720084D01*
X111475348Y-52677484D01*
X112302473Y-52677484D01*
X112302473Y-52716502D01*
X112317405Y-52752550D01*
X112344995Y-52780140D01*
X112381043Y-52795072D01*
X112400552Y-52796993D01*
X112930560Y-52796993D01*
X112937414Y-52803847D01*
X112967219Y-52863457D01*
X112967219Y-52959100D01*
X112945064Y-53003409D01*
X112900754Y-53025564D01*
X112400552Y-53025564D01*
X112381043Y-53027485D01*
X112344995Y-53042417D01*
X112317405Y-53070007D01*
X112302473Y-53106055D01*
X112302473Y-53145073D01*
X112317405Y-53181121D01*
X112344995Y-53208711D01*
X112381043Y-53223643D01*
X112400552Y-53225564D01*
X112924361Y-53225564D01*
X112943870Y-53223643D01*
X112947190Y-53222267D01*
X112950773Y-53222013D01*
X112969082Y-53215007D01*
X113064321Y-53167388D01*
X113067584Y-53165334D01*
X113069123Y-53164821D01*
X113071039Y-53163158D01*
X113080911Y-53156945D01*
X113089125Y-53147473D01*
X113098600Y-53139257D01*
X113104812Y-53129386D01*
X113106476Y-53127469D01*
X113106989Y-53125928D01*
X113109043Y-53122666D01*
X113156662Y-53027429D01*
X113163668Y-53009120D01*
X113163922Y-53005536D01*
X113165298Y-53002216D01*
X113167219Y-52982707D01*
X113167219Y-52839850D01*
X113165298Y-52820341D01*
X113163922Y-52817020D01*
X113163668Y-52813437D01*
X113156662Y-52795128D01*
X113140370Y-52762545D01*
X113150366Y-52752550D01*
X113165298Y-52716502D01*
X113165298Y-52677484D01*
X113150366Y-52641436D01*
X113122776Y-52613846D01*
X113086728Y-52598914D01*
X113067219Y-52596993D01*
X112400552Y-52596993D01*
X112381043Y-52598914D01*
X112344995Y-52613846D01*
X112317405Y-52641436D01*
X112302473Y-52677484D01*
X111475348Y-52677484D01*
X111480366Y-52672466D01*
X111486659Y-52664797D01*
X111488656Y-52663066D01*
X111490549Y-52660057D01*
X111492803Y-52657312D01*
X111493813Y-52654871D01*
X111499099Y-52646475D01*
X111546718Y-52551238D01*
X111553724Y-52532929D01*
X111553978Y-52529345D01*
X111555354Y-52526025D01*
X111557275Y-52506516D01*
X111557275Y-52363659D01*
X111555354Y-52344150D01*
X111553978Y-52340829D01*
X111553724Y-52337246D01*
X111546718Y-52318937D01*
X111499099Y-52223700D01*
X111493813Y-52215303D01*
X111492803Y-52212863D01*
X111490549Y-52210117D01*
X111488656Y-52207109D01*
X111486659Y-52205377D01*
X111480366Y-52197709D01*
X111432746Y-52150091D01*
X111425076Y-52143796D01*
X111423347Y-52141802D01*
X111420342Y-52139910D01*
X111417593Y-52137654D01*
X111415149Y-52136642D01*
X111406757Y-52131359D01*
X111311519Y-52083740D01*
X111293211Y-52076734D01*
X111289627Y-52076479D01*
X111286307Y-52075104D01*
X111266798Y-52073183D01*
X110981084Y-52073183D01*
X110961575Y-52075104D01*
X110958254Y-52076479D01*
X110954671Y-52076734D01*
X110936362Y-52083740D01*
X110841125Y-52131359D01*
X110832728Y-52136644D01*
X110830288Y-52137655D01*
X110827542Y-52139908D01*
X110824534Y-52141802D01*
X110822801Y-52143799D01*
X110815135Y-52150092D01*
X110767516Y-52197710D01*
X110761221Y-52205380D01*
X110759227Y-52207110D01*
X110757333Y-52210117D01*
X110755080Y-52212864D01*
X110754069Y-52215303D01*
X110748784Y-52223700D01*
X110701165Y-52318938D01*
X110694159Y-52337246D01*
X110693904Y-52340829D01*
X110692529Y-52344150D01*
X110690608Y-52363659D01*
X110246164Y-52363659D01*
X110246164Y-51458897D01*
X110690608Y-51458897D01*
X110690608Y-51601754D01*
X110692529Y-51621263D01*
X110693904Y-51624583D01*
X110694159Y-51628167D01*
X110701165Y-51646475D01*
X110717456Y-51679058D01*
X110707461Y-51689054D01*
X110692529Y-51725102D01*
X110692529Y-51764120D01*
X110707461Y-51800168D01*
X110735051Y-51827758D01*
X110771099Y-51842690D01*
X110790608Y-51844611D01*
X111457275Y-51844611D01*
X111476784Y-51842690D01*
X111512832Y-51827758D01*
X111540422Y-51800168D01*
X111555354Y-51764120D01*
X111555354Y-51725102D01*
X111540422Y-51689054D01*
X111512832Y-51661464D01*
X111476784Y-51646532D01*
X111457275Y-51644611D01*
X110927268Y-51644611D01*
X110920413Y-51637756D01*
X110890608Y-51578146D01*
X110890608Y-51482504D01*
X110912763Y-51438194D01*
X110957072Y-51416040D01*
X111457275Y-51416040D01*
X111476784Y-51414119D01*
X111512832Y-51399187D01*
X111540422Y-51371597D01*
X111555354Y-51335549D01*
X111555354Y-51296531D01*
X111540422Y-51260483D01*
X111512832Y-51232893D01*
X111476784Y-51217961D01*
X111457275Y-51216040D01*
X110933465Y-51216040D01*
X110913956Y-51217961D01*
X110910635Y-51219336D01*
X110907052Y-51219591D01*
X110888743Y-51226597D01*
X110793506Y-51274216D01*
X110790242Y-51276270D01*
X110788704Y-51276783D01*
X110786788Y-51278444D01*
X110776915Y-51284659D01*
X110768697Y-51294134D01*
X110759227Y-51302348D01*
X110753013Y-51312219D01*
X110751351Y-51314136D01*
X110750837Y-51315674D01*
X110748784Y-51318938D01*
X110701165Y-51414176D01*
X110694159Y-51432484D01*
X110693904Y-51436067D01*
X110692529Y-51439388D01*
X110690608Y-51458897D01*
X110246164Y-51458897D01*
X110246164Y-51063330D01*
X112301625Y-51063330D01*
X112303563Y-51102300D01*
X112320266Y-51137562D01*
X112349192Y-51163749D01*
X112366918Y-51172119D01*
X112769897Y-51316040D01*
X112366918Y-51459961D01*
X112349192Y-51468331D01*
X112320266Y-51494518D01*
X112303563Y-51529780D01*
X112301625Y-51568750D01*
X112314748Y-51605495D01*
X112340935Y-51634421D01*
X112376197Y-51651124D01*
X112415167Y-51653062D01*
X112434186Y-51648309D01*
X113100852Y-51410214D01*
X113118579Y-51401844D01*
X113122301Y-51398473D01*
X113126836Y-51396326D01*
X113136657Y-51385476D01*
X113147504Y-51375657D01*
X113149651Y-51371122D01*
X113153022Y-51367400D01*
X113157943Y-51353618D01*
X113164208Y-51340395D01*
X113164457Y-51335380D01*
X113166145Y-51330655D01*
X113165418Y-51316040D01*
X113166145Y-51301425D01*
X113164457Y-51296699D01*
X113164208Y-51291685D01*
X113157943Y-51278461D01*
X113153022Y-51264680D01*
X113149651Y-51260957D01*
X113147504Y-51256423D01*
X113136657Y-51246603D01*
X113126836Y-51235754D01*
X113122301Y-51233606D01*
X113118579Y-51230236D01*
X113100852Y-51221866D01*
X112434186Y-50983771D01*
X112415167Y-50979018D01*
X112376197Y-50980956D01*
X112340935Y-50997659D01*
X112314748Y-51026585D01*
X112301625Y-51063330D01*
X110246164Y-51063330D01*
X110246164Y-50554135D01*
X110690608Y-50554135D01*
X110690608Y-50744611D01*
X110692529Y-50764120D01*
X110693904Y-50767440D01*
X110694159Y-50771024D01*
X110701165Y-50789332D01*
X110748784Y-50884570D01*
X110759227Y-50901160D01*
X110788704Y-50926725D01*
X110825720Y-50939063D01*
X110864640Y-50936298D01*
X110899538Y-50918849D01*
X110925103Y-50889372D01*
X110937442Y-50852356D01*
X110934676Y-50813436D01*
X110927670Y-50795127D01*
X110890608Y-50721003D01*
X110890608Y-50577742D01*
X110912763Y-50533432D01*
X110957072Y-50511278D01*
X110966899Y-50511278D01*
X110976322Y-50530123D01*
X110976322Y-50744611D01*
X110978243Y-50764120D01*
X110979618Y-50767440D01*
X110979873Y-50771024D01*
X110986879Y-50789332D01*
X111034498Y-50884570D01*
X111036551Y-50887833D01*
X111037065Y-50889372D01*
X111038727Y-50891288D01*
X111044941Y-50901160D01*
X111054411Y-50909373D01*
X111062629Y-50918849D01*
X111072502Y-50925063D01*
X111074418Y-50926725D01*
X111075956Y-50927237D01*
X111079220Y-50929292D01*
X111174457Y-50976911D01*
X111192766Y-50983917D01*
X111196349Y-50984171D01*
X111199670Y-50985547D01*
X111219179Y-50987468D01*
X111314417Y-50987468D01*
X111333926Y-50985547D01*
X111337246Y-50984171D01*
X111340829Y-50983917D01*
X111359138Y-50976911D01*
X111454377Y-50929292D01*
X111457640Y-50927238D01*
X111459179Y-50926725D01*
X111461095Y-50925062D01*
X111470967Y-50918849D01*
X111479181Y-50909377D01*
X111488656Y-50901161D01*
X111494868Y-50891290D01*
X111496532Y-50889373D01*
X111497045Y-50887832D01*
X111499099Y-50884570D01*
X111546718Y-50789333D01*
X111553724Y-50771024D01*
X111553978Y-50767440D01*
X111555354Y-50764120D01*
X111557275Y-50744611D01*
X111557275Y-50506516D01*
X111555354Y-50487007D01*
X111553978Y-50483686D01*
X111553724Y-50480103D01*
X111546718Y-50461794D01*
X111544416Y-50457191D01*
X111555354Y-50430787D01*
X111555354Y-50391769D01*
X111543710Y-50363659D01*
X111967219Y-50363659D01*
X111967219Y-50601754D01*
X111969140Y-50621263D01*
X111970515Y-50624583D01*
X111970770Y-50628167D01*
X111977776Y-50646475D01*
X112025395Y-50741713D01*
X112030680Y-50750109D01*
X112031691Y-50752549D01*
X112033944Y-50755295D01*
X112035838Y-50758303D01*
X112037832Y-50760032D01*
X112044127Y-50767703D01*
X112091746Y-50815321D01*
X112106899Y-50827758D01*
X112142948Y-50842689D01*
X112181966Y-50842689D01*
X112218014Y-50827758D01*
X112245604Y-50800168D01*
X112260535Y-50764120D01*
X112260535Y-50725102D01*
X112245604Y-50689053D01*
X112233167Y-50673900D01*
X112197024Y-50637756D01*
X112167219Y-50578146D01*
X112167219Y-50387266D01*
X112197024Y-50327656D01*
X112221692Y-50302987D01*
X112281302Y-50273183D01*
X112336706Y-50273183D01*
X112441770Y-50308204D01*
X112996508Y-50862941D01*
X113011662Y-50875377D01*
X113047710Y-50890309D01*
X113086728Y-50890309D01*
X113122776Y-50875377D01*
X113150366Y-50847787D01*
X113165298Y-50811739D01*
X113167219Y-50792230D01*
X113167219Y-50173183D01*
X113165298Y-50153674D01*
X113150366Y-50117626D01*
X113122776Y-50090036D01*
X113086728Y-50075104D01*
X113047710Y-50075104D01*
X113011662Y-50090036D01*
X112984072Y-50117626D01*
X112969140Y-50153674D01*
X112967219Y-50173183D01*
X112967219Y-50550808D01*
X112566501Y-50150091D01*
X112551347Y-50137655D01*
X112548028Y-50136280D01*
X112545313Y-50133925D01*
X112527412Y-50125934D01*
X112384556Y-50078315D01*
X112374884Y-50076115D01*
X112372442Y-50075104D01*
X112368903Y-50074755D01*
X112365440Y-50073968D01*
X112362806Y-50074155D01*
X112352933Y-50073183D01*
X112257695Y-50073183D01*
X112238186Y-50075104D01*
X112234865Y-50076479D01*
X112231282Y-50076734D01*
X112212973Y-50083740D01*
X112117736Y-50131359D01*
X112109339Y-50136644D01*
X112106899Y-50137655D01*
X112104153Y-50139908D01*
X112101145Y-50141802D01*
X112099412Y-50143799D01*
X112091746Y-50150092D01*
X112044127Y-50197710D01*
X112037832Y-50205380D01*
X112035838Y-50207110D01*
X112033944Y-50210117D01*
X112031691Y-50212864D01*
X112030680Y-50215303D01*
X112025395Y-50223700D01*
X111977776Y-50318938D01*
X111970770Y-50337246D01*
X111970515Y-50340829D01*
X111969140Y-50344150D01*
X111967219Y-50363659D01*
X111543710Y-50363659D01*
X111540422Y-50355721D01*
X111512832Y-50328131D01*
X111476784Y-50313199D01*
X111457275Y-50311278D01*
X110933465Y-50311278D01*
X110913956Y-50313199D01*
X110910635Y-50314574D01*
X110907052Y-50314829D01*
X110888743Y-50321835D01*
X110793506Y-50369454D01*
X110790242Y-50371508D01*
X110788704Y-50372021D01*
X110786788Y-50373682D01*
X110776915Y-50379897D01*
X110768697Y-50389372D01*
X110759227Y-50397586D01*
X110753013Y-50407457D01*
X110751351Y-50409374D01*
X110750837Y-50410912D01*
X110748784Y-50414176D01*
X110701165Y-50509414D01*
X110694159Y-50527722D01*
X110693904Y-50531305D01*
X110692529Y-50534626D01*
X110690608Y-50554135D01*
X110246164Y-50554135D01*
X110246164Y-49725102D01*
X112873901Y-49725102D01*
X112873901Y-49764120D01*
X112875385Y-49767703D01*
X112888832Y-49800168D01*
X112888833Y-49800169D01*
X112901270Y-49815322D01*
X112948890Y-49862941D01*
X112964043Y-49875378D01*
X112989533Y-49885935D01*
X113000091Y-49890309D01*
X113000092Y-49890309D01*
X113039109Y-49890309D01*
X113060226Y-49881561D01*
X113075158Y-49875377D01*
X113075162Y-49875372D01*
X113090311Y-49862941D01*
X113137929Y-49815322D01*
X113150366Y-49800169D01*
X113161735Y-49772721D01*
X113165298Y-49764120D01*
X113165298Y-49725102D01*
X113150366Y-49689054D01*
X113150366Y-49689053D01*
X113137929Y-49673900D01*
X113090311Y-49626281D01*
X113075162Y-49613849D01*
X113075158Y-49613845D01*
X113060226Y-49607660D01*
X113039109Y-49598913D01*
X113000091Y-49598913D01*
X112989533Y-49603286D01*
X112964043Y-49613844D01*
X112948890Y-49626281D01*
X112901270Y-49673900D01*
X112888833Y-49689053D01*
X112888832Y-49689054D01*
X112878274Y-49714544D01*
X112873901Y-49725102D01*
X110246164Y-49725102D01*
X110246164Y-48982707D01*
X111967219Y-48982707D01*
X111967219Y-49077945D01*
X111969140Y-49097454D01*
X111970515Y-49100774D01*
X111970770Y-49104358D01*
X111977776Y-49122666D01*
X112025395Y-49217904D01*
X112030680Y-49226300D01*
X112031691Y-49228740D01*
X112033944Y-49231486D01*
X112035838Y-49234494D01*
X112037832Y-49236223D01*
X112044127Y-49243894D01*
X112091746Y-49291512D01*
X112099412Y-49297804D01*
X112101145Y-49299802D01*
X112104153Y-49301695D01*
X112106899Y-49303949D01*
X112109339Y-49304959D01*
X112117736Y-49310245D01*
X112212973Y-49357864D01*
X112214401Y-49358410D01*
X112214981Y-49358840D01*
X112223157Y-49361761D01*
X112231282Y-49364870D01*
X112232002Y-49364921D01*
X112233441Y-49365435D01*
X112423917Y-49413054D01*
X112427298Y-49413554D01*
X112428662Y-49414119D01*
X112436012Y-49414842D01*
X112443310Y-49415922D01*
X112444768Y-49415704D01*
X112448171Y-49416040D01*
X112686266Y-49416040D01*
X112689668Y-49415704D01*
X112691127Y-49415922D01*
X112698424Y-49414842D01*
X112705775Y-49414119D01*
X112707138Y-49413554D01*
X112710520Y-49413054D01*
X112900995Y-49365435D01*
X112902432Y-49364921D01*
X112903155Y-49364870D01*
X112911279Y-49361761D01*
X112919456Y-49358840D01*
X112920036Y-49358409D01*
X112921463Y-49357864D01*
X113016701Y-49310245D01*
X113025093Y-49304961D01*
X113027537Y-49303950D01*
X113030286Y-49301693D01*
X113033291Y-49299802D01*
X113035020Y-49297807D01*
X113042690Y-49291513D01*
X113090310Y-49243895D01*
X113096603Y-49236226D01*
X113098600Y-49234495D01*
X113100493Y-49231486D01*
X113102747Y-49228741D01*
X113103757Y-49226300D01*
X113109043Y-49217904D01*
X113156662Y-49122667D01*
X113163668Y-49104358D01*
X113163922Y-49100774D01*
X113165298Y-49097454D01*
X113167219Y-49077945D01*
X113167219Y-48982707D01*
X113165298Y-48963198D01*
X113163922Y-48959877D01*
X113163668Y-48956294D01*
X113156662Y-48937985D01*
X113109043Y-48842748D01*
X113103757Y-48834351D01*
X113102747Y-48831911D01*
X113100493Y-48829165D01*
X113098600Y-48826157D01*
X113096603Y-48824425D01*
X113090310Y-48816757D01*
X113042690Y-48769139D01*
X113035020Y-48762844D01*
X113033291Y-48760850D01*
X113030286Y-48758958D01*
X113027537Y-48756702D01*
X113025093Y-48755690D01*
X113016701Y-48750407D01*
X112921463Y-48702788D01*
X112920036Y-48702242D01*
X112919456Y-48701812D01*
X112911279Y-48698890D01*
X112903155Y-48695782D01*
X112902432Y-48695730D01*
X112900995Y-48695217D01*
X112710520Y-48647598D01*
X112707138Y-48647097D01*
X112705775Y-48646533D01*
X112698424Y-48645809D01*
X112691127Y-48644730D01*
X112689668Y-48644947D01*
X112686266Y-48644612D01*
X112448171Y-48644612D01*
X112444768Y-48644947D01*
X112443310Y-48644730D01*
X112436012Y-48645809D01*
X112428662Y-48646533D01*
X112427298Y-48647097D01*
X112423917Y-48647598D01*
X112233441Y-48695217D01*
X112232002Y-48695730D01*
X112231282Y-48695782D01*
X112223157Y-48698890D01*
X112214981Y-48701812D01*
X112214401Y-48702241D01*
X112212973Y-48702788D01*
X112117736Y-48750407D01*
X112109339Y-48755692D01*
X112106899Y-48756703D01*
X112104153Y-48758956D01*
X112101145Y-48760850D01*
X112099412Y-48762847D01*
X112091746Y-48769140D01*
X112044127Y-48816758D01*
X112037832Y-48824428D01*
X112035838Y-48826158D01*
X112033944Y-48829165D01*
X112031691Y-48831912D01*
X112030680Y-48834351D01*
X112025395Y-48842748D01*
X111977776Y-48937986D01*
X111970770Y-48956294D01*
X111970515Y-48959877D01*
X111969140Y-48963198D01*
X111967219Y-48982707D01*
X110246164Y-48982707D01*
X110246164Y-48533501D01*
X113278330Y-48533501D01*
X113278330Y-58241437D01*
G37*
D11*
X96136779Y-97088866D02*
X96898684Y-97088866D01*
X70157142Y-72489580D02*
X70109523Y-72537200D01*
X70109523Y-72537200D02*
X69966666Y-72584819D01*
X69966666Y-72584819D02*
X69871428Y-72584819D01*
X69871428Y-72584819D02*
X69728571Y-72537200D01*
X69728571Y-72537200D02*
X69633333Y-72441961D01*
X69633333Y-72441961D02*
X69585714Y-72346723D01*
X69585714Y-72346723D02*
X69538095Y-72156247D01*
X69538095Y-72156247D02*
X69538095Y-72013390D01*
X69538095Y-72013390D02*
X69585714Y-71822914D01*
X69585714Y-71822914D02*
X69633333Y-71727676D01*
X69633333Y-71727676D02*
X69728571Y-71632438D01*
X69728571Y-71632438D02*
X69871428Y-71584819D01*
X69871428Y-71584819D02*
X69966666Y-71584819D01*
X69966666Y-71584819D02*
X70109523Y-71632438D01*
X70109523Y-71632438D02*
X70157142Y-71680057D01*
X70538095Y-71680057D02*
X70585714Y-71632438D01*
X70585714Y-71632438D02*
X70680952Y-71584819D01*
X70680952Y-71584819D02*
X70919047Y-71584819D01*
X70919047Y-71584819D02*
X71014285Y-71632438D01*
X71014285Y-71632438D02*
X71061904Y-71680057D01*
X71061904Y-71680057D02*
X71109523Y-71775295D01*
X71109523Y-71775295D02*
X71109523Y-71870533D01*
X71109523Y-71870533D02*
X71061904Y-72013390D01*
X71061904Y-72013390D02*
X70490476Y-72584819D01*
X70490476Y-72584819D02*
X71109523Y-72584819D01*
X71442857Y-71584819D02*
X72109523Y-71584819D01*
X72109523Y-71584819D02*
X71680952Y-72584819D01*
X74133333Y-64534819D02*
X73800000Y-64058628D01*
X73561905Y-64534819D02*
X73561905Y-63534819D01*
X73561905Y-63534819D02*
X73942857Y-63534819D01*
X73942857Y-63534819D02*
X74038095Y-63582438D01*
X74038095Y-63582438D02*
X74085714Y-63630057D01*
X74085714Y-63630057D02*
X74133333Y-63725295D01*
X74133333Y-63725295D02*
X74133333Y-63868152D01*
X74133333Y-63868152D02*
X74085714Y-63963390D01*
X74085714Y-63963390D02*
X74038095Y-64011009D01*
X74038095Y-64011009D02*
X73942857Y-64058628D01*
X73942857Y-64058628D02*
X73561905Y-64058628D01*
X74990476Y-63868152D02*
X74990476Y-64534819D01*
X74752381Y-63487200D02*
X74514286Y-64201485D01*
X74514286Y-64201485D02*
X75133333Y-64201485D01*
X55033333Y-69484819D02*
X54700000Y-69008628D01*
X54461905Y-69484819D02*
X54461905Y-68484819D01*
X54461905Y-68484819D02*
X54842857Y-68484819D01*
X54842857Y-68484819D02*
X54938095Y-68532438D01*
X54938095Y-68532438D02*
X54985714Y-68580057D01*
X54985714Y-68580057D02*
X55033333Y-68675295D01*
X55033333Y-68675295D02*
X55033333Y-68818152D01*
X55033333Y-68818152D02*
X54985714Y-68913390D01*
X54985714Y-68913390D02*
X54938095Y-68961009D01*
X54938095Y-68961009D02*
X54842857Y-69008628D01*
X54842857Y-69008628D02*
X54461905Y-69008628D01*
X55509524Y-69484819D02*
X55700000Y-69484819D01*
X55700000Y-69484819D02*
X55795238Y-69437200D01*
X55795238Y-69437200D02*
X55842857Y-69389580D01*
X55842857Y-69389580D02*
X55938095Y-69246723D01*
X55938095Y-69246723D02*
X55985714Y-69056247D01*
X55985714Y-69056247D02*
X55985714Y-68675295D01*
X55985714Y-68675295D02*
X55938095Y-68580057D01*
X55938095Y-68580057D02*
X55890476Y-68532438D01*
X55890476Y-68532438D02*
X55795238Y-68484819D01*
X55795238Y-68484819D02*
X55604762Y-68484819D01*
X55604762Y-68484819D02*
X55509524Y-68532438D01*
X55509524Y-68532438D02*
X55461905Y-68580057D01*
X55461905Y-68580057D02*
X55414286Y-68675295D01*
X55414286Y-68675295D02*
X55414286Y-68913390D01*
X55414286Y-68913390D02*
X55461905Y-69008628D01*
X55461905Y-69008628D02*
X55509524Y-69056247D01*
X55509524Y-69056247D02*
X55604762Y-69103866D01*
X55604762Y-69103866D02*
X55795238Y-69103866D01*
X55795238Y-69103866D02*
X55890476Y-69056247D01*
X55890476Y-69056247D02*
X55938095Y-69008628D01*
X55938095Y-69008628D02*
X55985714Y-68913390D01*
X72682142Y-82874819D02*
X72348809Y-82398628D01*
X72110714Y-82874819D02*
X72110714Y-81874819D01*
X72110714Y-81874819D02*
X72491666Y-81874819D01*
X72491666Y-81874819D02*
X72586904Y-81922438D01*
X72586904Y-81922438D02*
X72634523Y-81970057D01*
X72634523Y-81970057D02*
X72682142Y-82065295D01*
X72682142Y-82065295D02*
X72682142Y-82208152D01*
X72682142Y-82208152D02*
X72634523Y-82303390D01*
X72634523Y-82303390D02*
X72586904Y-82351009D01*
X72586904Y-82351009D02*
X72491666Y-82398628D01*
X72491666Y-82398628D02*
X72110714Y-82398628D01*
X73634523Y-82874819D02*
X73063095Y-82874819D01*
X73348809Y-82874819D02*
X73348809Y-81874819D01*
X73348809Y-81874819D02*
X73253571Y-82017676D01*
X73253571Y-82017676D02*
X73158333Y-82112914D01*
X73158333Y-82112914D02*
X73063095Y-82160533D01*
X74253571Y-81874819D02*
X74348809Y-81874819D01*
X74348809Y-81874819D02*
X74444047Y-81922438D01*
X74444047Y-81922438D02*
X74491666Y-81970057D01*
X74491666Y-81970057D02*
X74539285Y-82065295D01*
X74539285Y-82065295D02*
X74586904Y-82255771D01*
X74586904Y-82255771D02*
X74586904Y-82493866D01*
X74586904Y-82493866D02*
X74539285Y-82684342D01*
X74539285Y-82684342D02*
X74491666Y-82779580D01*
X74491666Y-82779580D02*
X74444047Y-82827200D01*
X74444047Y-82827200D02*
X74348809Y-82874819D01*
X74348809Y-82874819D02*
X74253571Y-82874819D01*
X74253571Y-82874819D02*
X74158333Y-82827200D01*
X74158333Y-82827200D02*
X74110714Y-82779580D01*
X74110714Y-82779580D02*
X74063095Y-82684342D01*
X74063095Y-82684342D02*
X74015476Y-82493866D01*
X74015476Y-82493866D02*
X74015476Y-82255771D01*
X74015476Y-82255771D02*
X74063095Y-82065295D01*
X74063095Y-82065295D02*
X74110714Y-81970057D01*
X74110714Y-81970057D02*
X74158333Y-81922438D01*
X74158333Y-81922438D02*
X74253571Y-81874819D01*
X109357142Y-78959580D02*
X109309523Y-79007200D01*
X109309523Y-79007200D02*
X109166666Y-79054819D01*
X109166666Y-79054819D02*
X109071428Y-79054819D01*
X109071428Y-79054819D02*
X108928571Y-79007200D01*
X108928571Y-79007200D02*
X108833333Y-78911961D01*
X108833333Y-78911961D02*
X108785714Y-78816723D01*
X108785714Y-78816723D02*
X108738095Y-78626247D01*
X108738095Y-78626247D02*
X108738095Y-78483390D01*
X108738095Y-78483390D02*
X108785714Y-78292914D01*
X108785714Y-78292914D02*
X108833333Y-78197676D01*
X108833333Y-78197676D02*
X108928571Y-78102438D01*
X108928571Y-78102438D02*
X109071428Y-78054819D01*
X109071428Y-78054819D02*
X109166666Y-78054819D01*
X109166666Y-78054819D02*
X109309523Y-78102438D01*
X109309523Y-78102438D02*
X109357142Y-78150057D01*
X110309523Y-79054819D02*
X109738095Y-79054819D01*
X110023809Y-79054819D02*
X110023809Y-78054819D01*
X110023809Y-78054819D02*
X109928571Y-78197676D01*
X109928571Y-78197676D02*
X109833333Y-78292914D01*
X109833333Y-78292914D02*
X109738095Y-78340533D01*
X111166666Y-78054819D02*
X110976190Y-78054819D01*
X110976190Y-78054819D02*
X110880952Y-78102438D01*
X110880952Y-78102438D02*
X110833333Y-78150057D01*
X110833333Y-78150057D02*
X110738095Y-78292914D01*
X110738095Y-78292914D02*
X110690476Y-78483390D01*
X110690476Y-78483390D02*
X110690476Y-78864342D01*
X110690476Y-78864342D02*
X110738095Y-78959580D01*
X110738095Y-78959580D02*
X110785714Y-79007200D01*
X110785714Y-79007200D02*
X110880952Y-79054819D01*
X110880952Y-79054819D02*
X111071428Y-79054819D01*
X111071428Y-79054819D02*
X111166666Y-79007200D01*
X111166666Y-79007200D02*
X111214285Y-78959580D01*
X111214285Y-78959580D02*
X111261904Y-78864342D01*
X111261904Y-78864342D02*
X111261904Y-78626247D01*
X111261904Y-78626247D02*
X111214285Y-78531009D01*
X111214285Y-78531009D02*
X111166666Y-78483390D01*
X111166666Y-78483390D02*
X111071428Y-78435771D01*
X111071428Y-78435771D02*
X110880952Y-78435771D01*
X110880952Y-78435771D02*
X110785714Y-78483390D01*
X110785714Y-78483390D02*
X110738095Y-78531009D01*
X110738095Y-78531009D02*
X110690476Y-78626247D01*
X94459580Y-51542857D02*
X94507200Y-51590476D01*
X94507200Y-51590476D02*
X94554819Y-51733333D01*
X94554819Y-51733333D02*
X94554819Y-51828571D01*
X94554819Y-51828571D02*
X94507200Y-51971428D01*
X94507200Y-51971428D02*
X94411961Y-52066666D01*
X94411961Y-52066666D02*
X94316723Y-52114285D01*
X94316723Y-52114285D02*
X94126247Y-52161904D01*
X94126247Y-52161904D02*
X93983390Y-52161904D01*
X93983390Y-52161904D02*
X93792914Y-52114285D01*
X93792914Y-52114285D02*
X93697676Y-52066666D01*
X93697676Y-52066666D02*
X93602438Y-51971428D01*
X93602438Y-51971428D02*
X93554819Y-51828571D01*
X93554819Y-51828571D02*
X93554819Y-51733333D01*
X93554819Y-51733333D02*
X93602438Y-51590476D01*
X93602438Y-51590476D02*
X93650057Y-51542857D01*
X94554819Y-50590476D02*
X94554819Y-51161904D01*
X94554819Y-50876190D02*
X93554819Y-50876190D01*
X93554819Y-50876190D02*
X93697676Y-50971428D01*
X93697676Y-50971428D02*
X93792914Y-51066666D01*
X93792914Y-51066666D02*
X93840533Y-51161904D01*
X93983390Y-50019047D02*
X93935771Y-50114285D01*
X93935771Y-50114285D02*
X93888152Y-50161904D01*
X93888152Y-50161904D02*
X93792914Y-50209523D01*
X93792914Y-50209523D02*
X93745295Y-50209523D01*
X93745295Y-50209523D02*
X93650057Y-50161904D01*
X93650057Y-50161904D02*
X93602438Y-50114285D01*
X93602438Y-50114285D02*
X93554819Y-50019047D01*
X93554819Y-50019047D02*
X93554819Y-49828571D01*
X93554819Y-49828571D02*
X93602438Y-49733333D01*
X93602438Y-49733333D02*
X93650057Y-49685714D01*
X93650057Y-49685714D02*
X93745295Y-49638095D01*
X93745295Y-49638095D02*
X93792914Y-49638095D01*
X93792914Y-49638095D02*
X93888152Y-49685714D01*
X93888152Y-49685714D02*
X93935771Y-49733333D01*
X93935771Y-49733333D02*
X93983390Y-49828571D01*
X93983390Y-49828571D02*
X93983390Y-50019047D01*
X93983390Y-50019047D02*
X94031009Y-50114285D01*
X94031009Y-50114285D02*
X94078628Y-50161904D01*
X94078628Y-50161904D02*
X94173866Y-50209523D01*
X94173866Y-50209523D02*
X94364342Y-50209523D01*
X94364342Y-50209523D02*
X94459580Y-50161904D01*
X94459580Y-50161904D02*
X94507200Y-50114285D01*
X94507200Y-50114285D02*
X94554819Y-50019047D01*
X94554819Y-50019047D02*
X94554819Y-49828571D01*
X94554819Y-49828571D02*
X94507200Y-49733333D01*
X94507200Y-49733333D02*
X94459580Y-49685714D01*
X94459580Y-49685714D02*
X94364342Y-49638095D01*
X94364342Y-49638095D02*
X94173866Y-49638095D01*
X94173866Y-49638095D02*
X94078628Y-49685714D01*
X94078628Y-49685714D02*
X94031009Y-49733333D01*
X94031009Y-49733333D02*
X93983390Y-49828571D01*
X74309580Y-72896666D02*
X74357200Y-72944285D01*
X74357200Y-72944285D02*
X74404819Y-73087142D01*
X74404819Y-73087142D02*
X74404819Y-73182380D01*
X74404819Y-73182380D02*
X74357200Y-73325237D01*
X74357200Y-73325237D02*
X74261961Y-73420475D01*
X74261961Y-73420475D02*
X74166723Y-73468094D01*
X74166723Y-73468094D02*
X73976247Y-73515713D01*
X73976247Y-73515713D02*
X73833390Y-73515713D01*
X73833390Y-73515713D02*
X73642914Y-73468094D01*
X73642914Y-73468094D02*
X73547676Y-73420475D01*
X73547676Y-73420475D02*
X73452438Y-73325237D01*
X73452438Y-73325237D02*
X73404819Y-73182380D01*
X73404819Y-73182380D02*
X73404819Y-73087142D01*
X73404819Y-73087142D02*
X73452438Y-72944285D01*
X73452438Y-72944285D02*
X73500057Y-72896666D01*
X73500057Y-72515713D02*
X73452438Y-72468094D01*
X73452438Y-72468094D02*
X73404819Y-72372856D01*
X73404819Y-72372856D02*
X73404819Y-72134761D01*
X73404819Y-72134761D02*
X73452438Y-72039523D01*
X73452438Y-72039523D02*
X73500057Y-71991904D01*
X73500057Y-71991904D02*
X73595295Y-71944285D01*
X73595295Y-71944285D02*
X73690533Y-71944285D01*
X73690533Y-71944285D02*
X73833390Y-71991904D01*
X73833390Y-71991904D02*
X74404819Y-72563332D01*
X74404819Y-72563332D02*
X74404819Y-71944285D01*
X48883333Y-73089580D02*
X48835714Y-73137200D01*
X48835714Y-73137200D02*
X48692857Y-73184819D01*
X48692857Y-73184819D02*
X48597619Y-73184819D01*
X48597619Y-73184819D02*
X48454762Y-73137200D01*
X48454762Y-73137200D02*
X48359524Y-73041961D01*
X48359524Y-73041961D02*
X48311905Y-72946723D01*
X48311905Y-72946723D02*
X48264286Y-72756247D01*
X48264286Y-72756247D02*
X48264286Y-72613390D01*
X48264286Y-72613390D02*
X48311905Y-72422914D01*
X48311905Y-72422914D02*
X48359524Y-72327676D01*
X48359524Y-72327676D02*
X48454762Y-72232438D01*
X48454762Y-72232438D02*
X48597619Y-72184819D01*
X48597619Y-72184819D02*
X48692857Y-72184819D01*
X48692857Y-72184819D02*
X48835714Y-72232438D01*
X48835714Y-72232438D02*
X48883333Y-72280057D01*
X49835714Y-73184819D02*
X49264286Y-73184819D01*
X49550000Y-73184819D02*
X49550000Y-72184819D01*
X49550000Y-72184819D02*
X49454762Y-72327676D01*
X49454762Y-72327676D02*
X49359524Y-72422914D01*
X49359524Y-72422914D02*
X49264286Y-72470533D01*
X74233333Y-52584819D02*
X73900000Y-52108628D01*
X73661905Y-52584819D02*
X73661905Y-51584819D01*
X73661905Y-51584819D02*
X74042857Y-51584819D01*
X74042857Y-51584819D02*
X74138095Y-51632438D01*
X74138095Y-51632438D02*
X74185714Y-51680057D01*
X74185714Y-51680057D02*
X74233333Y-51775295D01*
X74233333Y-51775295D02*
X74233333Y-51918152D01*
X74233333Y-51918152D02*
X74185714Y-52013390D01*
X74185714Y-52013390D02*
X74138095Y-52061009D01*
X74138095Y-52061009D02*
X74042857Y-52108628D01*
X74042857Y-52108628D02*
X73661905Y-52108628D01*
X75090476Y-51584819D02*
X74900000Y-51584819D01*
X74900000Y-51584819D02*
X74804762Y-51632438D01*
X74804762Y-51632438D02*
X74757143Y-51680057D01*
X74757143Y-51680057D02*
X74661905Y-51822914D01*
X74661905Y-51822914D02*
X74614286Y-52013390D01*
X74614286Y-52013390D02*
X74614286Y-52394342D01*
X74614286Y-52394342D02*
X74661905Y-52489580D01*
X74661905Y-52489580D02*
X74709524Y-52537200D01*
X74709524Y-52537200D02*
X74804762Y-52584819D01*
X74804762Y-52584819D02*
X74995238Y-52584819D01*
X74995238Y-52584819D02*
X75090476Y-52537200D01*
X75090476Y-52537200D02*
X75138095Y-52489580D01*
X75138095Y-52489580D02*
X75185714Y-52394342D01*
X75185714Y-52394342D02*
X75185714Y-52156247D01*
X75185714Y-52156247D02*
X75138095Y-52061009D01*
X75138095Y-52061009D02*
X75090476Y-52013390D01*
X75090476Y-52013390D02*
X74995238Y-51965771D01*
X74995238Y-51965771D02*
X74804762Y-51965771D01*
X74804762Y-51965771D02*
X74709524Y-52013390D01*
X74709524Y-52013390D02*
X74661905Y-52061009D01*
X74661905Y-52061009D02*
X74614286Y-52156247D01*
X106333333Y-87759580D02*
X106285714Y-87807200D01*
X106285714Y-87807200D02*
X106142857Y-87854819D01*
X106142857Y-87854819D02*
X106047619Y-87854819D01*
X106047619Y-87854819D02*
X105904762Y-87807200D01*
X105904762Y-87807200D02*
X105809524Y-87711961D01*
X105809524Y-87711961D02*
X105761905Y-87616723D01*
X105761905Y-87616723D02*
X105714286Y-87426247D01*
X105714286Y-87426247D02*
X105714286Y-87283390D01*
X105714286Y-87283390D02*
X105761905Y-87092914D01*
X105761905Y-87092914D02*
X105809524Y-86997676D01*
X105809524Y-86997676D02*
X105904762Y-86902438D01*
X105904762Y-86902438D02*
X106047619Y-86854819D01*
X106047619Y-86854819D02*
X106142857Y-86854819D01*
X106142857Y-86854819D02*
X106285714Y-86902438D01*
X106285714Y-86902438D02*
X106333333Y-86950057D01*
X106809524Y-87854819D02*
X107000000Y-87854819D01*
X107000000Y-87854819D02*
X107095238Y-87807200D01*
X107095238Y-87807200D02*
X107142857Y-87759580D01*
X107142857Y-87759580D02*
X107238095Y-87616723D01*
X107238095Y-87616723D02*
X107285714Y-87426247D01*
X107285714Y-87426247D02*
X107285714Y-87045295D01*
X107285714Y-87045295D02*
X107238095Y-86950057D01*
X107238095Y-86950057D02*
X107190476Y-86902438D01*
X107190476Y-86902438D02*
X107095238Y-86854819D01*
X107095238Y-86854819D02*
X106904762Y-86854819D01*
X106904762Y-86854819D02*
X106809524Y-86902438D01*
X106809524Y-86902438D02*
X106761905Y-86950057D01*
X106761905Y-86950057D02*
X106714286Y-87045295D01*
X106714286Y-87045295D02*
X106714286Y-87283390D01*
X106714286Y-87283390D02*
X106761905Y-87378628D01*
X106761905Y-87378628D02*
X106809524Y-87426247D01*
X106809524Y-87426247D02*
X106904762Y-87473866D01*
X106904762Y-87473866D02*
X107095238Y-87473866D01*
X107095238Y-87473866D02*
X107190476Y-87426247D01*
X107190476Y-87426247D02*
X107238095Y-87378628D01*
X107238095Y-87378628D02*
X107285714Y-87283390D01*
X74233333Y-50584819D02*
X73900000Y-50108628D01*
X73661905Y-50584819D02*
X73661905Y-49584819D01*
X73661905Y-49584819D02*
X74042857Y-49584819D01*
X74042857Y-49584819D02*
X74138095Y-49632438D01*
X74138095Y-49632438D02*
X74185714Y-49680057D01*
X74185714Y-49680057D02*
X74233333Y-49775295D01*
X74233333Y-49775295D02*
X74233333Y-49918152D01*
X74233333Y-49918152D02*
X74185714Y-50013390D01*
X74185714Y-50013390D02*
X74138095Y-50061009D01*
X74138095Y-50061009D02*
X74042857Y-50108628D01*
X74042857Y-50108628D02*
X73661905Y-50108628D01*
X74566667Y-49584819D02*
X75233333Y-49584819D01*
X75233333Y-49584819D02*
X74804762Y-50584819D01*
X79459580Y-89442857D02*
X79507200Y-89490476D01*
X79507200Y-89490476D02*
X79554819Y-89633333D01*
X79554819Y-89633333D02*
X79554819Y-89728571D01*
X79554819Y-89728571D02*
X79507200Y-89871428D01*
X79507200Y-89871428D02*
X79411961Y-89966666D01*
X79411961Y-89966666D02*
X79316723Y-90014285D01*
X79316723Y-90014285D02*
X79126247Y-90061904D01*
X79126247Y-90061904D02*
X78983390Y-90061904D01*
X78983390Y-90061904D02*
X78792914Y-90014285D01*
X78792914Y-90014285D02*
X78697676Y-89966666D01*
X78697676Y-89966666D02*
X78602438Y-89871428D01*
X78602438Y-89871428D02*
X78554819Y-89728571D01*
X78554819Y-89728571D02*
X78554819Y-89633333D01*
X78554819Y-89633333D02*
X78602438Y-89490476D01*
X78602438Y-89490476D02*
X78650057Y-89442857D01*
X78650057Y-89061904D02*
X78602438Y-89014285D01*
X78602438Y-89014285D02*
X78554819Y-88919047D01*
X78554819Y-88919047D02*
X78554819Y-88680952D01*
X78554819Y-88680952D02*
X78602438Y-88585714D01*
X78602438Y-88585714D02*
X78650057Y-88538095D01*
X78650057Y-88538095D02*
X78745295Y-88490476D01*
X78745295Y-88490476D02*
X78840533Y-88490476D01*
X78840533Y-88490476D02*
X78983390Y-88538095D01*
X78983390Y-88538095D02*
X79554819Y-89109523D01*
X79554819Y-89109523D02*
X79554819Y-88490476D01*
X78554819Y-88157142D02*
X78554819Y-87538095D01*
X78554819Y-87538095D02*
X78935771Y-87871428D01*
X78935771Y-87871428D02*
X78935771Y-87728571D01*
X78935771Y-87728571D02*
X78983390Y-87633333D01*
X78983390Y-87633333D02*
X79031009Y-87585714D01*
X79031009Y-87585714D02*
X79126247Y-87538095D01*
X79126247Y-87538095D02*
X79364342Y-87538095D01*
X79364342Y-87538095D02*
X79459580Y-87585714D01*
X79459580Y-87585714D02*
X79507200Y-87633333D01*
X79507200Y-87633333D02*
X79554819Y-87728571D01*
X79554819Y-87728571D02*
X79554819Y-88014285D01*
X79554819Y-88014285D02*
X79507200Y-88109523D01*
X79507200Y-88109523D02*
X79459580Y-88157142D01*
X113887908Y-71872644D02*
X113935528Y-71920263D01*
X113935528Y-71920263D02*
X113983147Y-72063120D01*
X113983147Y-72063120D02*
X113983147Y-72158358D01*
X113983147Y-72158358D02*
X113935528Y-72301215D01*
X113935528Y-72301215D02*
X113840289Y-72396453D01*
X113840289Y-72396453D02*
X113745051Y-72444072D01*
X113745051Y-72444072D02*
X113554575Y-72491691D01*
X113554575Y-72491691D02*
X113411718Y-72491691D01*
X113411718Y-72491691D02*
X113221242Y-72444072D01*
X113221242Y-72444072D02*
X113126004Y-72396453D01*
X113126004Y-72396453D02*
X113030766Y-72301215D01*
X113030766Y-72301215D02*
X112983147Y-72158358D01*
X112983147Y-72158358D02*
X112983147Y-72063120D01*
X112983147Y-72063120D02*
X113030766Y-71920263D01*
X113030766Y-71920263D02*
X113078385Y-71872644D01*
X113078385Y-71491691D02*
X113030766Y-71444072D01*
X113030766Y-71444072D02*
X112983147Y-71348834D01*
X112983147Y-71348834D02*
X112983147Y-71110739D01*
X112983147Y-71110739D02*
X113030766Y-71015501D01*
X113030766Y-71015501D02*
X113078385Y-70967882D01*
X113078385Y-70967882D02*
X113173623Y-70920263D01*
X113173623Y-70920263D02*
X113268861Y-70920263D01*
X113268861Y-70920263D02*
X113411718Y-70967882D01*
X113411718Y-70967882D02*
X113983147Y-71539310D01*
X113983147Y-71539310D02*
X113983147Y-70920263D01*
X112983147Y-70301215D02*
X112983147Y-70205977D01*
X112983147Y-70205977D02*
X113030766Y-70110739D01*
X113030766Y-70110739D02*
X113078385Y-70063120D01*
X113078385Y-70063120D02*
X113173623Y-70015501D01*
X113173623Y-70015501D02*
X113364099Y-69967882D01*
X113364099Y-69967882D02*
X113602194Y-69967882D01*
X113602194Y-69967882D02*
X113792670Y-70015501D01*
X113792670Y-70015501D02*
X113887908Y-70063120D01*
X113887908Y-70063120D02*
X113935528Y-70110739D01*
X113935528Y-70110739D02*
X113983147Y-70205977D01*
X113983147Y-70205977D02*
X113983147Y-70301215D01*
X113983147Y-70301215D02*
X113935528Y-70396453D01*
X113935528Y-70396453D02*
X113887908Y-70444072D01*
X113887908Y-70444072D02*
X113792670Y-70491691D01*
X113792670Y-70491691D02*
X113602194Y-70539310D01*
X113602194Y-70539310D02*
X113364099Y-70539310D01*
X113364099Y-70539310D02*
X113173623Y-70491691D01*
X113173623Y-70491691D02*
X113078385Y-70444072D01*
X113078385Y-70444072D02*
X113030766Y-70396453D01*
X113030766Y-70396453D02*
X112983147Y-70301215D01*
G36*
X87143253Y-49840930D02*
G01*
X85104365Y-49840930D01*
X85104365Y-48654819D01*
X85215476Y-48654819D01*
X85215476Y-49654819D01*
X85216917Y-49669451D01*
X85228116Y-49696487D01*
X85248808Y-49717179D01*
X85275844Y-49728378D01*
X85305108Y-49728378D01*
X85332144Y-49717179D01*
X85352836Y-49696487D01*
X85364035Y-49669451D01*
X85365476Y-49654819D01*
X85365476Y-48992886D01*
X85555845Y-49400821D01*
X85559019Y-49406180D01*
X85559679Y-49407993D01*
X85560853Y-49409275D01*
X85563339Y-49413471D01*
X85571748Y-49421171D01*
X85579443Y-49429574D01*
X85582461Y-49430982D01*
X85584920Y-49433234D01*
X85595632Y-49437129D01*
X85605961Y-49441950D01*
X85609289Y-49442096D01*
X85612421Y-49443235D01*
X85623815Y-49442734D01*
X85635197Y-49443234D01*
X85638325Y-49442096D01*
X85641657Y-49441950D01*
X85651992Y-49437126D01*
X85662698Y-49433234D01*
X85665153Y-49430984D01*
X85668175Y-49429575D01*
X85675876Y-49421164D01*
X85684279Y-49413470D01*
X85686762Y-49409277D01*
X85687939Y-49407993D01*
X85688599Y-49406177D01*
X85691773Y-49400820D01*
X85882142Y-48992886D01*
X85882142Y-49654819D01*
X85883583Y-49669451D01*
X85894782Y-49696487D01*
X85915474Y-49717179D01*
X85942510Y-49728378D01*
X85971774Y-49728378D01*
X85998810Y-49717179D01*
X86019502Y-49696487D01*
X86030701Y-49669451D01*
X86032142Y-49654819D01*
X86032142Y-48654819D01*
X86031194Y-48645197D01*
X86031272Y-48643431D01*
X86030927Y-48642482D01*
X86030701Y-48640187D01*
X86264536Y-48640187D01*
X86264536Y-48669451D01*
X86275735Y-48696487D01*
X86296427Y-48717179D01*
X86323463Y-48728378D01*
X86338095Y-48729819D01*
X86791860Y-48729819D01*
X86567366Y-48986383D01*
X86562844Y-48992707D01*
X86561449Y-48994103D01*
X86560900Y-48995426D01*
X86558815Y-48998344D01*
X86554913Y-49009881D01*
X86550250Y-49021139D01*
X86550250Y-49023669D01*
X86549440Y-49026065D01*
X86550250Y-49038218D01*
X86550250Y-49050403D01*
X86551217Y-49052739D01*
X86551386Y-49055263D01*
X86556788Y-49066188D01*
X86561449Y-49077439D01*
X86563235Y-49079225D01*
X86564358Y-49081495D01*
X86573530Y-49089520D01*
X86582141Y-49098131D01*
X86584477Y-49099099D01*
X86586382Y-49100765D01*
X86597919Y-49104666D01*
X86609177Y-49109330D01*
X86612747Y-49109681D01*
X86614103Y-49110140D01*
X86616070Y-49110008D01*
X86623809Y-49110771D01*
X86748961Y-49110771D01*
X86817477Y-49145029D01*
X86847884Y-49175436D01*
X86882142Y-49243952D01*
X86882142Y-49446637D01*
X86847883Y-49515153D01*
X86817476Y-49545561D01*
X86748961Y-49579819D01*
X86498657Y-49579819D01*
X86430141Y-49545561D01*
X86391129Y-49506548D01*
X86379763Y-49497220D01*
X86352727Y-49486021D01*
X86323464Y-49486021D01*
X86296428Y-49497219D01*
X86275735Y-49517912D01*
X86264536Y-49544948D01*
X86264536Y-49574211D01*
X86275734Y-49601247D01*
X86285061Y-49612612D01*
X86332680Y-49660232D01*
X86338429Y-49664950D01*
X86339730Y-49666450D01*
X86341989Y-49667872D01*
X86344046Y-49669560D01*
X86345873Y-49670317D01*
X86352173Y-49674282D01*
X86447411Y-49721901D01*
X86461142Y-49727156D01*
X86463831Y-49727347D01*
X86466320Y-49728378D01*
X86480952Y-49729819D01*
X86766666Y-49729819D01*
X86781298Y-49728378D01*
X86783787Y-49727346D01*
X86786475Y-49727156D01*
X86800207Y-49721901D01*
X86895445Y-49674282D01*
X86901744Y-49670317D01*
X86903572Y-49669560D01*
X86905628Y-49667872D01*
X86907888Y-49666450D01*
X86909188Y-49664950D01*
X86914938Y-49660232D01*
X86962556Y-49612613D01*
X86967274Y-49606863D01*
X86968773Y-49605564D01*
X86970194Y-49603305D01*
X86971884Y-49601247D01*
X86972641Y-49599417D01*
X86976605Y-49593121D01*
X87024224Y-49497883D01*
X87029479Y-49484152D01*
X87029670Y-49481462D01*
X87030701Y-49478974D01*
X87032142Y-49464342D01*
X87032142Y-49226247D01*
X87030701Y-49211615D01*
X87029670Y-49209126D01*
X87029479Y-49206437D01*
X87024224Y-49192706D01*
X86976605Y-49097468D01*
X86972640Y-49091168D01*
X86971883Y-49089341D01*
X86970194Y-49087284D01*
X86968773Y-49085025D01*
X86967274Y-49083725D01*
X86962556Y-49077976D01*
X86914937Y-49030357D01*
X86909187Y-49025638D01*
X86907888Y-49024140D01*
X86905628Y-49022718D01*
X86903572Y-49021030D01*
X86901744Y-49020272D01*
X86895445Y-49016308D01*
X86800207Y-48968689D01*
X86786689Y-48963516D01*
X87013585Y-48704207D01*
X87018106Y-48697882D01*
X87019502Y-48696487D01*
X87020050Y-48695163D01*
X87022136Y-48692246D01*
X87026037Y-48680708D01*
X87030701Y-48669451D01*
X87030701Y-48666920D01*
X87031511Y-48664525D01*
X87030701Y-48652371D01*
X87030701Y-48640187D01*
X87029733Y-48637850D01*
X87029565Y-48635327D01*
X87024162Y-48624401D01*
X87019502Y-48613151D01*
X87017715Y-48611364D01*
X87016593Y-48609095D01*
X87007420Y-48601069D01*
X86998810Y-48592459D01*
X86996473Y-48591490D01*
X86994569Y-48589825D01*
X86983031Y-48585923D01*
X86971774Y-48581260D01*
X86968203Y-48580908D01*
X86966848Y-48580450D01*
X86964880Y-48580581D01*
X86957142Y-48579819D01*
X86338095Y-48579819D01*
X86323463Y-48581260D01*
X86296427Y-48592459D01*
X86275735Y-48613151D01*
X86264536Y-48640187D01*
X86030701Y-48640187D01*
X86025719Y-48628160D01*
X86021272Y-48615930D01*
X86020142Y-48614696D01*
X86019502Y-48613151D01*
X86010302Y-48603951D01*
X86001508Y-48594348D01*
X85999991Y-48593640D01*
X85998810Y-48592459D01*
X85986797Y-48587482D01*
X85974990Y-48581973D01*
X85973317Y-48581899D01*
X85971774Y-48581260D01*
X85958768Y-48581260D01*
X85945754Y-48580688D01*
X85944181Y-48581260D01*
X85942510Y-48581260D01*
X85930491Y-48586238D01*
X85918253Y-48590689D01*
X85917019Y-48591819D01*
X85915474Y-48592459D01*
X85906275Y-48601657D01*
X85896672Y-48610452D01*
X85895496Y-48612436D01*
X85894782Y-48613151D01*
X85894105Y-48614784D01*
X85889178Y-48623102D01*
X85623808Y-49191750D01*
X85358440Y-48623103D01*
X85353514Y-48614787D01*
X85352836Y-48613151D01*
X85352120Y-48612435D01*
X85350946Y-48610453D01*
X85341349Y-48601664D01*
X85332144Y-48592459D01*
X85330598Y-48591818D01*
X85329365Y-48590689D01*
X85317134Y-48586241D01*
X85305108Y-48581260D01*
X85303434Y-48581260D01*
X85301864Y-48580689D01*
X85288863Y-48581260D01*
X85275844Y-48581260D01*
X85274299Y-48581899D01*
X85272628Y-48581973D01*
X85260829Y-48587479D01*
X85248808Y-48592459D01*
X85247625Y-48593641D01*
X85246110Y-48594349D01*
X85237321Y-48603945D01*
X85228116Y-48613151D01*
X85227475Y-48614696D01*
X85226346Y-48615930D01*
X85221898Y-48628160D01*
X85216917Y-48640187D01*
X85216690Y-48642482D01*
X85216346Y-48643431D01*
X85216423Y-48645197D01*
X85215476Y-48654819D01*
X85104365Y-48654819D01*
X85104365Y-48468708D01*
X87143253Y-48468708D01*
X87143253Y-49840930D01*
G37*
X59864642Y-79459580D02*
X59817023Y-79507200D01*
X59817023Y-79507200D02*
X59674166Y-79554819D01*
X59674166Y-79554819D02*
X59578928Y-79554819D01*
X59578928Y-79554819D02*
X59436071Y-79507200D01*
X59436071Y-79507200D02*
X59340833Y-79411961D01*
X59340833Y-79411961D02*
X59293214Y-79316723D01*
X59293214Y-79316723D02*
X59245595Y-79126247D01*
X59245595Y-79126247D02*
X59245595Y-78983390D01*
X59245595Y-78983390D02*
X59293214Y-78792914D01*
X59293214Y-78792914D02*
X59340833Y-78697676D01*
X59340833Y-78697676D02*
X59436071Y-78602438D01*
X59436071Y-78602438D02*
X59578928Y-78554819D01*
X59578928Y-78554819D02*
X59674166Y-78554819D01*
X59674166Y-78554819D02*
X59817023Y-78602438D01*
X59817023Y-78602438D02*
X59864642Y-78650057D01*
X60245595Y-78650057D02*
X60293214Y-78602438D01*
X60293214Y-78602438D02*
X60388452Y-78554819D01*
X60388452Y-78554819D02*
X60626547Y-78554819D01*
X60626547Y-78554819D02*
X60721785Y-78602438D01*
X60721785Y-78602438D02*
X60769404Y-78650057D01*
X60769404Y-78650057D02*
X60817023Y-78745295D01*
X60817023Y-78745295D02*
X60817023Y-78840533D01*
X60817023Y-78840533D02*
X60769404Y-78983390D01*
X60769404Y-78983390D02*
X60197976Y-79554819D01*
X60197976Y-79554819D02*
X60817023Y-79554819D01*
X61721785Y-78554819D02*
X61245595Y-78554819D01*
X61245595Y-78554819D02*
X61197976Y-79031009D01*
X61197976Y-79031009D02*
X61245595Y-78983390D01*
X61245595Y-78983390D02*
X61340833Y-78935771D01*
X61340833Y-78935771D02*
X61578928Y-78935771D01*
X61578928Y-78935771D02*
X61674166Y-78983390D01*
X61674166Y-78983390D02*
X61721785Y-79031009D01*
X61721785Y-79031009D02*
X61769404Y-79126247D01*
X61769404Y-79126247D02*
X61769404Y-79364342D01*
X61769404Y-79364342D02*
X61721785Y-79459580D01*
X61721785Y-79459580D02*
X61674166Y-79507200D01*
X61674166Y-79507200D02*
X61578928Y-79554819D01*
X61578928Y-79554819D02*
X61340833Y-79554819D01*
X61340833Y-79554819D02*
X61245595Y-79507200D01*
X61245595Y-79507200D02*
X61197976Y-79459580D01*
X63826666Y-79131009D02*
X63493333Y-79131009D01*
X63493333Y-79654819D02*
X63493333Y-78654819D01*
X63493333Y-78654819D02*
X63969523Y-78654819D01*
X64683809Y-79131009D02*
X64826666Y-79178628D01*
X64826666Y-79178628D02*
X64874285Y-79226247D01*
X64874285Y-79226247D02*
X64921904Y-79321485D01*
X64921904Y-79321485D02*
X64921904Y-79464342D01*
X64921904Y-79464342D02*
X64874285Y-79559580D01*
X64874285Y-79559580D02*
X64826666Y-79607200D01*
X64826666Y-79607200D02*
X64731428Y-79654819D01*
X64731428Y-79654819D02*
X64350476Y-79654819D01*
X64350476Y-79654819D02*
X64350476Y-78654819D01*
X64350476Y-78654819D02*
X64683809Y-78654819D01*
X64683809Y-78654819D02*
X64779047Y-78702438D01*
X64779047Y-78702438D02*
X64826666Y-78750057D01*
X64826666Y-78750057D02*
X64874285Y-78845295D01*
X64874285Y-78845295D02*
X64874285Y-78940533D01*
X64874285Y-78940533D02*
X64826666Y-79035771D01*
X64826666Y-79035771D02*
X64779047Y-79083390D01*
X64779047Y-79083390D02*
X64683809Y-79131009D01*
X64683809Y-79131009D02*
X64350476Y-79131009D01*
X65302857Y-78750057D02*
X65350476Y-78702438D01*
X65350476Y-78702438D02*
X65445714Y-78654819D01*
X65445714Y-78654819D02*
X65683809Y-78654819D01*
X65683809Y-78654819D02*
X65779047Y-78702438D01*
X65779047Y-78702438D02*
X65826666Y-78750057D01*
X65826666Y-78750057D02*
X65874285Y-78845295D01*
X65874285Y-78845295D02*
X65874285Y-78940533D01*
X65874285Y-78940533D02*
X65826666Y-79083390D01*
X65826666Y-79083390D02*
X65255238Y-79654819D01*
X65255238Y-79654819D02*
X65874285Y-79654819D01*
X68354819Y-90471666D02*
X67878628Y-90804999D01*
X68354819Y-91043094D02*
X67354819Y-91043094D01*
X67354819Y-91043094D02*
X67354819Y-90662142D01*
X67354819Y-90662142D02*
X67402438Y-90566904D01*
X67402438Y-90566904D02*
X67450057Y-90519285D01*
X67450057Y-90519285D02*
X67545295Y-90471666D01*
X67545295Y-90471666D02*
X67688152Y-90471666D01*
X67688152Y-90471666D02*
X67783390Y-90519285D01*
X67783390Y-90519285D02*
X67831009Y-90566904D01*
X67831009Y-90566904D02*
X67878628Y-90662142D01*
X67878628Y-90662142D02*
X67878628Y-91043094D01*
X67354819Y-90138332D02*
X67354819Y-89519285D01*
X67354819Y-89519285D02*
X67735771Y-89852618D01*
X67735771Y-89852618D02*
X67735771Y-89709761D01*
X67735771Y-89709761D02*
X67783390Y-89614523D01*
X67783390Y-89614523D02*
X67831009Y-89566904D01*
X67831009Y-89566904D02*
X67926247Y-89519285D01*
X67926247Y-89519285D02*
X68164342Y-89519285D01*
X68164342Y-89519285D02*
X68259580Y-89566904D01*
X68259580Y-89566904D02*
X68307200Y-89614523D01*
X68307200Y-89614523D02*
X68354819Y-89709761D01*
X68354819Y-89709761D02*
X68354819Y-89995475D01*
X68354819Y-89995475D02*
X68307200Y-90090713D01*
X68307200Y-90090713D02*
X68259580Y-90138332D01*
X93459580Y-76542857D02*
X93507200Y-76590476D01*
X93507200Y-76590476D02*
X93554819Y-76733333D01*
X93554819Y-76733333D02*
X93554819Y-76828571D01*
X93554819Y-76828571D02*
X93507200Y-76971428D01*
X93507200Y-76971428D02*
X93411961Y-77066666D01*
X93411961Y-77066666D02*
X93316723Y-77114285D01*
X93316723Y-77114285D02*
X93126247Y-77161904D01*
X93126247Y-77161904D02*
X92983390Y-77161904D01*
X92983390Y-77161904D02*
X92792914Y-77114285D01*
X92792914Y-77114285D02*
X92697676Y-77066666D01*
X92697676Y-77066666D02*
X92602438Y-76971428D01*
X92602438Y-76971428D02*
X92554819Y-76828571D01*
X92554819Y-76828571D02*
X92554819Y-76733333D01*
X92554819Y-76733333D02*
X92602438Y-76590476D01*
X92602438Y-76590476D02*
X92650057Y-76542857D01*
X93554819Y-75590476D02*
X93554819Y-76161904D01*
X93554819Y-75876190D02*
X92554819Y-75876190D01*
X92554819Y-75876190D02*
X92697676Y-75971428D01*
X92697676Y-75971428D02*
X92792914Y-76066666D01*
X92792914Y-76066666D02*
X92840533Y-76161904D01*
X92888152Y-74733333D02*
X93554819Y-74733333D01*
X92507200Y-74971428D02*
X93221485Y-75209523D01*
X93221485Y-75209523D02*
X93221485Y-74590476D01*
X46237800Y-76476667D02*
X46190180Y-76619524D01*
X46190180Y-76619524D02*
X46190180Y-76857619D01*
X46190180Y-76857619D02*
X46237800Y-76952857D01*
X46237800Y-76952857D02*
X46285419Y-77000476D01*
X46285419Y-77000476D02*
X46380657Y-77048095D01*
X46380657Y-77048095D02*
X46475895Y-77048095D01*
X46475895Y-77048095D02*
X46571133Y-77000476D01*
X46571133Y-77000476D02*
X46618752Y-76952857D01*
X46618752Y-76952857D02*
X46666371Y-76857619D01*
X46666371Y-76857619D02*
X46713990Y-76667143D01*
X46713990Y-76667143D02*
X46761609Y-76571905D01*
X46761609Y-76571905D02*
X46809228Y-76524286D01*
X46809228Y-76524286D02*
X46904466Y-76476667D01*
X46904466Y-76476667D02*
X46999704Y-76476667D01*
X46999704Y-76476667D02*
X47094942Y-76524286D01*
X47094942Y-76524286D02*
X47142561Y-76571905D01*
X47142561Y-76571905D02*
X47190180Y-76667143D01*
X47190180Y-76667143D02*
X47190180Y-76905238D01*
X47190180Y-76905238D02*
X47142561Y-77048095D01*
X47190180Y-77381429D02*
X46190180Y-77619524D01*
X46190180Y-77619524D02*
X46904466Y-77810000D01*
X46904466Y-77810000D02*
X46190180Y-78000476D01*
X46190180Y-78000476D02*
X47190180Y-78238572D01*
X46190180Y-79143333D02*
X46190180Y-78571905D01*
X46190180Y-78857619D02*
X47190180Y-78857619D01*
X47190180Y-78857619D02*
X47047323Y-78762381D01*
X47047323Y-78762381D02*
X46952085Y-78667143D01*
X46952085Y-78667143D02*
X46904466Y-78571905D01*
X71733333Y-91454819D02*
X71257143Y-91454819D01*
X71257143Y-91454819D02*
X71257143Y-90454819D01*
X72590476Y-91454819D02*
X72019048Y-91454819D01*
X72304762Y-91454819D02*
X72304762Y-90454819D01*
X72304762Y-90454819D02*
X72209524Y-90597676D01*
X72209524Y-90597676D02*
X72114286Y-90692914D01*
X72114286Y-90692914D02*
X72019048Y-90740533D01*
X66957142Y-86089580D02*
X66909523Y-86137200D01*
X66909523Y-86137200D02*
X66766666Y-86184819D01*
X66766666Y-86184819D02*
X66671428Y-86184819D01*
X66671428Y-86184819D02*
X66528571Y-86137200D01*
X66528571Y-86137200D02*
X66433333Y-86041961D01*
X66433333Y-86041961D02*
X66385714Y-85946723D01*
X66385714Y-85946723D02*
X66338095Y-85756247D01*
X66338095Y-85756247D02*
X66338095Y-85613390D01*
X66338095Y-85613390D02*
X66385714Y-85422914D01*
X66385714Y-85422914D02*
X66433333Y-85327676D01*
X66433333Y-85327676D02*
X66528571Y-85232438D01*
X66528571Y-85232438D02*
X66671428Y-85184819D01*
X66671428Y-85184819D02*
X66766666Y-85184819D01*
X66766666Y-85184819D02*
X66909523Y-85232438D01*
X66909523Y-85232438D02*
X66957142Y-85280057D01*
X67338095Y-85280057D02*
X67385714Y-85232438D01*
X67385714Y-85232438D02*
X67480952Y-85184819D01*
X67480952Y-85184819D02*
X67719047Y-85184819D01*
X67719047Y-85184819D02*
X67814285Y-85232438D01*
X67814285Y-85232438D02*
X67861904Y-85280057D01*
X67861904Y-85280057D02*
X67909523Y-85375295D01*
X67909523Y-85375295D02*
X67909523Y-85470533D01*
X67909523Y-85470533D02*
X67861904Y-85613390D01*
X67861904Y-85613390D02*
X67290476Y-86184819D01*
X67290476Y-86184819D02*
X67909523Y-86184819D01*
X68766666Y-85518152D02*
X68766666Y-86184819D01*
X68528571Y-85137200D02*
X68290476Y-85851485D01*
X68290476Y-85851485D02*
X68909523Y-85851485D01*
X75472800Y-76526667D02*
X75425180Y-76669524D01*
X75425180Y-76669524D02*
X75425180Y-76907619D01*
X75425180Y-76907619D02*
X75472800Y-77002857D01*
X75472800Y-77002857D02*
X75520419Y-77050476D01*
X75520419Y-77050476D02*
X75615657Y-77098095D01*
X75615657Y-77098095D02*
X75710895Y-77098095D01*
X75710895Y-77098095D02*
X75806133Y-77050476D01*
X75806133Y-77050476D02*
X75853752Y-77002857D01*
X75853752Y-77002857D02*
X75901371Y-76907619D01*
X75901371Y-76907619D02*
X75948990Y-76717143D01*
X75948990Y-76717143D02*
X75996609Y-76621905D01*
X75996609Y-76621905D02*
X76044228Y-76574286D01*
X76044228Y-76574286D02*
X76139466Y-76526667D01*
X76139466Y-76526667D02*
X76234704Y-76526667D01*
X76234704Y-76526667D02*
X76329942Y-76574286D01*
X76329942Y-76574286D02*
X76377561Y-76621905D01*
X76377561Y-76621905D02*
X76425180Y-76717143D01*
X76425180Y-76717143D02*
X76425180Y-76955238D01*
X76425180Y-76955238D02*
X76377561Y-77098095D01*
X76425180Y-77431429D02*
X75425180Y-77669524D01*
X75425180Y-77669524D02*
X76139466Y-77860000D01*
X76139466Y-77860000D02*
X75425180Y-78050476D01*
X75425180Y-78050476D02*
X76425180Y-78288572D01*
X76329942Y-78621905D02*
X76377561Y-78669524D01*
X76377561Y-78669524D02*
X76425180Y-78764762D01*
X76425180Y-78764762D02*
X76425180Y-79002857D01*
X76425180Y-79002857D02*
X76377561Y-79098095D01*
X76377561Y-79098095D02*
X76329942Y-79145714D01*
X76329942Y-79145714D02*
X76234704Y-79193333D01*
X76234704Y-79193333D02*
X76139466Y-79193333D01*
X76139466Y-79193333D02*
X75996609Y-79145714D01*
X75996609Y-79145714D02*
X75425180Y-78574286D01*
X75425180Y-78574286D02*
X75425180Y-79193333D01*
G36*
X117841812Y-85740930D02*
G01*
X115804365Y-85740930D01*
X115804365Y-84554819D01*
X115915476Y-84554819D01*
X115915476Y-85554819D01*
X115916917Y-85569451D01*
X115928116Y-85596487D01*
X115948808Y-85617179D01*
X115975844Y-85628378D01*
X116005108Y-85628378D01*
X116032144Y-85617179D01*
X116052836Y-85596487D01*
X116064035Y-85569451D01*
X116065476Y-85554819D01*
X116065476Y-84892886D01*
X116255845Y-85300821D01*
X116259019Y-85306180D01*
X116259679Y-85307993D01*
X116260853Y-85309275D01*
X116263339Y-85313471D01*
X116271748Y-85321171D01*
X116279443Y-85329574D01*
X116282461Y-85330982D01*
X116284920Y-85333234D01*
X116295632Y-85337129D01*
X116305961Y-85341950D01*
X116309289Y-85342096D01*
X116312421Y-85343235D01*
X116323815Y-85342734D01*
X116335197Y-85343234D01*
X116338325Y-85342096D01*
X116341657Y-85341950D01*
X116351992Y-85337126D01*
X116362698Y-85333234D01*
X116365153Y-85330984D01*
X116368175Y-85329575D01*
X116375876Y-85321164D01*
X116384279Y-85313470D01*
X116386762Y-85309277D01*
X116387939Y-85307993D01*
X116388599Y-85306177D01*
X116391773Y-85300820D01*
X116582142Y-84892886D01*
X116582142Y-85554819D01*
X116583583Y-85569451D01*
X116594782Y-85596487D01*
X116615474Y-85617179D01*
X116642510Y-85628378D01*
X116671774Y-85628378D01*
X116698810Y-85617179D01*
X116719502Y-85596487D01*
X116730701Y-85569451D01*
X116732142Y-85554819D01*
X116732142Y-84831152D01*
X117011303Y-84831152D01*
X117013377Y-84860342D01*
X117026464Y-84886517D01*
X117048572Y-84905690D01*
X117076333Y-84914944D01*
X117105523Y-84912870D01*
X117119255Y-84907615D01*
X117214493Y-84859996D01*
X117220792Y-84856031D01*
X117222620Y-84855274D01*
X117224676Y-84853585D01*
X117226936Y-84852164D01*
X117228235Y-84850665D01*
X117233985Y-84845947D01*
X117296428Y-84783504D01*
X117296428Y-85479819D01*
X117085714Y-85479819D01*
X117071082Y-85481260D01*
X117044046Y-85492459D01*
X117023354Y-85513151D01*
X117012155Y-85540187D01*
X117012155Y-85569451D01*
X117023354Y-85596487D01*
X117044046Y-85617179D01*
X117071082Y-85628378D01*
X117085714Y-85629819D01*
X117657142Y-85629819D01*
X117671774Y-85628378D01*
X117698810Y-85617179D01*
X117719502Y-85596487D01*
X117730701Y-85569451D01*
X117730701Y-85540187D01*
X117719502Y-85513151D01*
X117698810Y-85492459D01*
X117671774Y-85481260D01*
X117657142Y-85479819D01*
X117446428Y-85479819D01*
X117446428Y-84554819D01*
X117446422Y-84554766D01*
X117446428Y-84554740D01*
X117446412Y-84554663D01*
X117444987Y-84540187D01*
X117442145Y-84533326D01*
X117440689Y-84526045D01*
X117436599Y-84519938D01*
X117433788Y-84513151D01*
X117428539Y-84507902D01*
X117424406Y-84501730D01*
X117418289Y-84497652D01*
X117413096Y-84492459D01*
X117406236Y-84489617D01*
X117400057Y-84485498D01*
X117392848Y-84484072D01*
X117386060Y-84481260D01*
X117378633Y-84481260D01*
X117371349Y-84479819D01*
X117364144Y-84481260D01*
X117356796Y-84481260D01*
X117349935Y-84484101D01*
X117342655Y-84485558D01*
X117336549Y-84489646D01*
X117329760Y-84492459D01*
X117324509Y-84497709D01*
X117318340Y-84501841D01*
X117309119Y-84513099D01*
X117309068Y-84513151D01*
X117309058Y-84513173D01*
X117309024Y-84513216D01*
X117217904Y-84649896D01*
X117136525Y-84731275D01*
X117052173Y-84773451D01*
X117039730Y-84781283D01*
X117020557Y-84803391D01*
X117011303Y-84831152D01*
X116732142Y-84831152D01*
X116732142Y-84554819D01*
X116731194Y-84545197D01*
X116731272Y-84543431D01*
X116730927Y-84542482D01*
X116730701Y-84540187D01*
X116725719Y-84528160D01*
X116721272Y-84515930D01*
X116720142Y-84514696D01*
X116719502Y-84513151D01*
X116710302Y-84503951D01*
X116701508Y-84494348D01*
X116699991Y-84493640D01*
X116698810Y-84492459D01*
X116686797Y-84487482D01*
X116674990Y-84481973D01*
X116673317Y-84481899D01*
X116671774Y-84481260D01*
X116658768Y-84481260D01*
X116645754Y-84480688D01*
X116644181Y-84481260D01*
X116642510Y-84481260D01*
X116630491Y-84486238D01*
X116618253Y-84490689D01*
X116617019Y-84491819D01*
X116615474Y-84492459D01*
X116606275Y-84501657D01*
X116596672Y-84510452D01*
X116595496Y-84512436D01*
X116594782Y-84513151D01*
X116594105Y-84514784D01*
X116589178Y-84523102D01*
X116323808Y-85091750D01*
X116058440Y-84523103D01*
X116053514Y-84514787D01*
X116052836Y-84513151D01*
X116052120Y-84512435D01*
X116050946Y-84510453D01*
X116041349Y-84501664D01*
X116032144Y-84492459D01*
X116030598Y-84491818D01*
X116029365Y-84490689D01*
X116017134Y-84486241D01*
X116005108Y-84481260D01*
X116003434Y-84481260D01*
X116001864Y-84480689D01*
X115988863Y-84481260D01*
X115975844Y-84481260D01*
X115974299Y-84481899D01*
X115972628Y-84481973D01*
X115960829Y-84487479D01*
X115948808Y-84492459D01*
X115947625Y-84493641D01*
X115946110Y-84494349D01*
X115937321Y-84503945D01*
X115928116Y-84513151D01*
X115927475Y-84514696D01*
X115926346Y-84515930D01*
X115921898Y-84528160D01*
X115916917Y-84540187D01*
X115916690Y-84542482D01*
X115916346Y-84543431D01*
X115916423Y-84545197D01*
X115915476Y-84554819D01*
X115804365Y-84554819D01*
X115804365Y-84368708D01*
X117841812Y-84368708D01*
X117841812Y-85740930D01*
G37*
X46857142Y-93054819D02*
X46523809Y-92578628D01*
X46285714Y-93054819D02*
X46285714Y-92054819D01*
X46285714Y-92054819D02*
X46666666Y-92054819D01*
X46666666Y-92054819D02*
X46761904Y-92102438D01*
X46761904Y-92102438D02*
X46809523Y-92150057D01*
X46809523Y-92150057D02*
X46857142Y-92245295D01*
X46857142Y-92245295D02*
X46857142Y-92388152D01*
X46857142Y-92388152D02*
X46809523Y-92483390D01*
X46809523Y-92483390D02*
X46761904Y-92531009D01*
X46761904Y-92531009D02*
X46666666Y-92578628D01*
X46666666Y-92578628D02*
X46285714Y-92578628D01*
X47809523Y-93054819D02*
X47238095Y-93054819D01*
X47523809Y-93054819D02*
X47523809Y-92054819D01*
X47523809Y-92054819D02*
X47428571Y-92197676D01*
X47428571Y-92197676D02*
X47333333Y-92292914D01*
X47333333Y-92292914D02*
X47238095Y-92340533D01*
X48666666Y-92054819D02*
X48476190Y-92054819D01*
X48476190Y-92054819D02*
X48380952Y-92102438D01*
X48380952Y-92102438D02*
X48333333Y-92150057D01*
X48333333Y-92150057D02*
X48238095Y-92292914D01*
X48238095Y-92292914D02*
X48190476Y-92483390D01*
X48190476Y-92483390D02*
X48190476Y-92864342D01*
X48190476Y-92864342D02*
X48238095Y-92959580D01*
X48238095Y-92959580D02*
X48285714Y-93007200D01*
X48285714Y-93007200D02*
X48380952Y-93054819D01*
X48380952Y-93054819D02*
X48571428Y-93054819D01*
X48571428Y-93054819D02*
X48666666Y-93007200D01*
X48666666Y-93007200D02*
X48714285Y-92959580D01*
X48714285Y-92959580D02*
X48761904Y-92864342D01*
X48761904Y-92864342D02*
X48761904Y-92626247D01*
X48761904Y-92626247D02*
X48714285Y-92531009D01*
X48714285Y-92531009D02*
X48666666Y-92483390D01*
X48666666Y-92483390D02*
X48571428Y-92435771D01*
X48571428Y-92435771D02*
X48380952Y-92435771D01*
X48380952Y-92435771D02*
X48285714Y-92483390D01*
X48285714Y-92483390D02*
X48238095Y-92531009D01*
X48238095Y-92531009D02*
X48190476Y-92626247D01*
X55304819Y-91096666D02*
X54828628Y-91429999D01*
X55304819Y-91668094D02*
X54304819Y-91668094D01*
X54304819Y-91668094D02*
X54304819Y-91287142D01*
X54304819Y-91287142D02*
X54352438Y-91191904D01*
X54352438Y-91191904D02*
X54400057Y-91144285D01*
X54400057Y-91144285D02*
X54495295Y-91096666D01*
X54495295Y-91096666D02*
X54638152Y-91096666D01*
X54638152Y-91096666D02*
X54733390Y-91144285D01*
X54733390Y-91144285D02*
X54781009Y-91191904D01*
X54781009Y-91191904D02*
X54828628Y-91287142D01*
X54828628Y-91287142D02*
X54828628Y-91668094D01*
X54400057Y-90715713D02*
X54352438Y-90668094D01*
X54352438Y-90668094D02*
X54304819Y-90572856D01*
X54304819Y-90572856D02*
X54304819Y-90334761D01*
X54304819Y-90334761D02*
X54352438Y-90239523D01*
X54352438Y-90239523D02*
X54400057Y-90191904D01*
X54400057Y-90191904D02*
X54495295Y-90144285D01*
X54495295Y-90144285D02*
X54590533Y-90144285D01*
X54590533Y-90144285D02*
X54733390Y-90191904D01*
X54733390Y-90191904D02*
X55304819Y-90763332D01*
X55304819Y-90763332D02*
X55304819Y-90144285D01*
X74233333Y-66584819D02*
X73900000Y-66108628D01*
X73661905Y-66584819D02*
X73661905Y-65584819D01*
X73661905Y-65584819D02*
X74042857Y-65584819D01*
X74042857Y-65584819D02*
X74138095Y-65632438D01*
X74138095Y-65632438D02*
X74185714Y-65680057D01*
X74185714Y-65680057D02*
X74233333Y-65775295D01*
X74233333Y-65775295D02*
X74233333Y-65918152D01*
X74233333Y-65918152D02*
X74185714Y-66013390D01*
X74185714Y-66013390D02*
X74138095Y-66061009D01*
X74138095Y-66061009D02*
X74042857Y-66108628D01*
X74042857Y-66108628D02*
X73661905Y-66108628D01*
X75138095Y-65584819D02*
X74661905Y-65584819D01*
X74661905Y-65584819D02*
X74614286Y-66061009D01*
X74614286Y-66061009D02*
X74661905Y-66013390D01*
X74661905Y-66013390D02*
X74757143Y-65965771D01*
X74757143Y-65965771D02*
X74995238Y-65965771D01*
X74995238Y-65965771D02*
X75090476Y-66013390D01*
X75090476Y-66013390D02*
X75138095Y-66061009D01*
X75138095Y-66061009D02*
X75185714Y-66156247D01*
X75185714Y-66156247D02*
X75185714Y-66394342D01*
X75185714Y-66394342D02*
X75138095Y-66489580D01*
X75138095Y-66489580D02*
X75090476Y-66537200D01*
X75090476Y-66537200D02*
X74995238Y-66584819D01*
X74995238Y-66584819D02*
X74757143Y-66584819D01*
X74757143Y-66584819D02*
X74661905Y-66537200D01*
X74661905Y-66537200D02*
X74614286Y-66489580D01*
X103533333Y-88159580D02*
X103485714Y-88207200D01*
X103485714Y-88207200D02*
X103342857Y-88254819D01*
X103342857Y-88254819D02*
X103247619Y-88254819D01*
X103247619Y-88254819D02*
X103104762Y-88207200D01*
X103104762Y-88207200D02*
X103009524Y-88111961D01*
X103009524Y-88111961D02*
X102961905Y-88016723D01*
X102961905Y-88016723D02*
X102914286Y-87826247D01*
X102914286Y-87826247D02*
X102914286Y-87683390D01*
X102914286Y-87683390D02*
X102961905Y-87492914D01*
X102961905Y-87492914D02*
X103009524Y-87397676D01*
X103009524Y-87397676D02*
X103104762Y-87302438D01*
X103104762Y-87302438D02*
X103247619Y-87254819D01*
X103247619Y-87254819D02*
X103342857Y-87254819D01*
X103342857Y-87254819D02*
X103485714Y-87302438D01*
X103485714Y-87302438D02*
X103533333Y-87350057D01*
X103866667Y-87254819D02*
X104533333Y-87254819D01*
X104533333Y-87254819D02*
X104104762Y-88254819D01*
G36*
X85243253Y-88340930D02*
G01*
X83204365Y-88340930D01*
X83204365Y-87154819D01*
X83315476Y-87154819D01*
X83315476Y-88154819D01*
X83316917Y-88169451D01*
X83328116Y-88196487D01*
X83348808Y-88217179D01*
X83375844Y-88228378D01*
X83405108Y-88228378D01*
X83432144Y-88217179D01*
X83452836Y-88196487D01*
X83464035Y-88169451D01*
X83465476Y-88154819D01*
X83465476Y-87492886D01*
X83655845Y-87900821D01*
X83659019Y-87906180D01*
X83659679Y-87907993D01*
X83660853Y-87909275D01*
X83663339Y-87913471D01*
X83671748Y-87921171D01*
X83679443Y-87929574D01*
X83682461Y-87930982D01*
X83684920Y-87933234D01*
X83695632Y-87937129D01*
X83705961Y-87941950D01*
X83709289Y-87942096D01*
X83712421Y-87943235D01*
X83723815Y-87942734D01*
X83735197Y-87943234D01*
X83738325Y-87942096D01*
X83741657Y-87941950D01*
X83751992Y-87937126D01*
X83762698Y-87933234D01*
X83765153Y-87930984D01*
X83768175Y-87929575D01*
X83775876Y-87921164D01*
X83784279Y-87913470D01*
X83786762Y-87909277D01*
X83787939Y-87907993D01*
X83788599Y-87906177D01*
X83791773Y-87900820D01*
X83982142Y-87492886D01*
X83982142Y-88154819D01*
X83983583Y-88169451D01*
X83994782Y-88196487D01*
X84015474Y-88217179D01*
X84042510Y-88228378D01*
X84071774Y-88228378D01*
X84098810Y-88217179D01*
X84119502Y-88196487D01*
X84130701Y-88169451D01*
X84132142Y-88154819D01*
X84132142Y-88140187D01*
X84364536Y-88140187D01*
X84364536Y-88169451D01*
X84375735Y-88196487D01*
X84396427Y-88217179D01*
X84423463Y-88228378D01*
X84438095Y-88229819D01*
X85057142Y-88229819D01*
X85071774Y-88228378D01*
X85098810Y-88217179D01*
X85119502Y-88196487D01*
X85130701Y-88169451D01*
X85130701Y-88140187D01*
X85119502Y-88113151D01*
X85098810Y-88092459D01*
X85071774Y-88081260D01*
X85057142Y-88079819D01*
X84619161Y-88079819D01*
X85062556Y-87636423D01*
X85071884Y-87625058D01*
X85072915Y-87622567D01*
X85074680Y-87620533D01*
X85080674Y-87607107D01*
X85128293Y-87464251D01*
X85129942Y-87456995D01*
X85130701Y-87455165D01*
X85130962Y-87452511D01*
X85131553Y-87449914D01*
X85131412Y-87447939D01*
X85132142Y-87440533D01*
X85132142Y-87345295D01*
X85130701Y-87330663D01*
X85129670Y-87328174D01*
X85129479Y-87325485D01*
X85124224Y-87311754D01*
X85076605Y-87216516D01*
X85072640Y-87210216D01*
X85071883Y-87208389D01*
X85070194Y-87206332D01*
X85068773Y-87204073D01*
X85067274Y-87202773D01*
X85062556Y-87197024D01*
X85014937Y-87149405D01*
X85009187Y-87144686D01*
X85007888Y-87143188D01*
X85005628Y-87141766D01*
X85003572Y-87140078D01*
X85001744Y-87139320D01*
X84995445Y-87135356D01*
X84900207Y-87087737D01*
X84886475Y-87082482D01*
X84883787Y-87082291D01*
X84881298Y-87081260D01*
X84866666Y-87079819D01*
X84628571Y-87079819D01*
X84613939Y-87081260D01*
X84611450Y-87082290D01*
X84608761Y-87082482D01*
X84595030Y-87087737D01*
X84499792Y-87135356D01*
X84493492Y-87139320D01*
X84491665Y-87140078D01*
X84489608Y-87141766D01*
X84487349Y-87143188D01*
X84486049Y-87144686D01*
X84480300Y-87149405D01*
X84432681Y-87197024D01*
X84423354Y-87208389D01*
X84412155Y-87235426D01*
X84412155Y-87264688D01*
X84423354Y-87291725D01*
X84444046Y-87312417D01*
X84471083Y-87323616D01*
X84500345Y-87323616D01*
X84527382Y-87312417D01*
X84538747Y-87303090D01*
X84577760Y-87264077D01*
X84646276Y-87229819D01*
X84848961Y-87229819D01*
X84917477Y-87264077D01*
X84947884Y-87294484D01*
X84982142Y-87363000D01*
X84982142Y-87428363D01*
X84943970Y-87542876D01*
X84385062Y-88101786D01*
X84375735Y-88113151D01*
X84364536Y-88140187D01*
X84132142Y-88140187D01*
X84132142Y-87154819D01*
X84131194Y-87145197D01*
X84131272Y-87143431D01*
X84130927Y-87142482D01*
X84130701Y-87140187D01*
X84125719Y-87128160D01*
X84121272Y-87115930D01*
X84120142Y-87114696D01*
X84119502Y-87113151D01*
X84110302Y-87103951D01*
X84101508Y-87094348D01*
X84099991Y-87093640D01*
X84098810Y-87092459D01*
X84086797Y-87087482D01*
X84074990Y-87081973D01*
X84073317Y-87081899D01*
X84071774Y-87081260D01*
X84058768Y-87081260D01*
X84045754Y-87080688D01*
X84044181Y-87081260D01*
X84042510Y-87081260D01*
X84030491Y-87086238D01*
X84018253Y-87090689D01*
X84017019Y-87091819D01*
X84015474Y-87092459D01*
X84006275Y-87101657D01*
X83996672Y-87110452D01*
X83995496Y-87112436D01*
X83994782Y-87113151D01*
X83994105Y-87114784D01*
X83989178Y-87123102D01*
X83723808Y-87691750D01*
X83458440Y-87123103D01*
X83453514Y-87114787D01*
X83452836Y-87113151D01*
X83452120Y-87112435D01*
X83450946Y-87110453D01*
X83441349Y-87101664D01*
X83432144Y-87092459D01*
X83430598Y-87091818D01*
X83429365Y-87090689D01*
X83417134Y-87086241D01*
X83405108Y-87081260D01*
X83403434Y-87081260D01*
X83401864Y-87080689D01*
X83388863Y-87081260D01*
X83375844Y-87081260D01*
X83374299Y-87081899D01*
X83372628Y-87081973D01*
X83360829Y-87087479D01*
X83348808Y-87092459D01*
X83347625Y-87093641D01*
X83346110Y-87094349D01*
X83337321Y-87103945D01*
X83328116Y-87113151D01*
X83327475Y-87114696D01*
X83326346Y-87115930D01*
X83321898Y-87128160D01*
X83316917Y-87140187D01*
X83316690Y-87142482D01*
X83316346Y-87143431D01*
X83316423Y-87145197D01*
X83315476Y-87154819D01*
X83204365Y-87154819D01*
X83204365Y-86968708D01*
X85243253Y-86968708D01*
X85243253Y-88340930D01*
G37*
X104557142Y-68359580D02*
X104509523Y-68407200D01*
X104509523Y-68407200D02*
X104366666Y-68454819D01*
X104366666Y-68454819D02*
X104271428Y-68454819D01*
X104271428Y-68454819D02*
X104128571Y-68407200D01*
X104128571Y-68407200D02*
X104033333Y-68311961D01*
X104033333Y-68311961D02*
X103985714Y-68216723D01*
X103985714Y-68216723D02*
X103938095Y-68026247D01*
X103938095Y-68026247D02*
X103938095Y-67883390D01*
X103938095Y-67883390D02*
X103985714Y-67692914D01*
X103985714Y-67692914D02*
X104033333Y-67597676D01*
X104033333Y-67597676D02*
X104128571Y-67502438D01*
X104128571Y-67502438D02*
X104271428Y-67454819D01*
X104271428Y-67454819D02*
X104366666Y-67454819D01*
X104366666Y-67454819D02*
X104509523Y-67502438D01*
X104509523Y-67502438D02*
X104557142Y-67550057D01*
X105509523Y-68454819D02*
X104938095Y-68454819D01*
X105223809Y-68454819D02*
X105223809Y-67454819D01*
X105223809Y-67454819D02*
X105128571Y-67597676D01*
X105128571Y-67597676D02*
X105033333Y-67692914D01*
X105033333Y-67692914D02*
X104938095Y-67740533D01*
X105985714Y-68454819D02*
X106176190Y-68454819D01*
X106176190Y-68454819D02*
X106271428Y-68407200D01*
X106271428Y-68407200D02*
X106319047Y-68359580D01*
X106319047Y-68359580D02*
X106414285Y-68216723D01*
X106414285Y-68216723D02*
X106461904Y-68026247D01*
X106461904Y-68026247D02*
X106461904Y-67645295D01*
X106461904Y-67645295D02*
X106414285Y-67550057D01*
X106414285Y-67550057D02*
X106366666Y-67502438D01*
X106366666Y-67502438D02*
X106271428Y-67454819D01*
X106271428Y-67454819D02*
X106080952Y-67454819D01*
X106080952Y-67454819D02*
X105985714Y-67502438D01*
X105985714Y-67502438D02*
X105938095Y-67550057D01*
X105938095Y-67550057D02*
X105890476Y-67645295D01*
X105890476Y-67645295D02*
X105890476Y-67883390D01*
X105890476Y-67883390D02*
X105938095Y-67978628D01*
X105938095Y-67978628D02*
X105985714Y-68026247D01*
X105985714Y-68026247D02*
X106080952Y-68073866D01*
X106080952Y-68073866D02*
X106271428Y-68073866D01*
X106271428Y-68073866D02*
X106366666Y-68026247D01*
X106366666Y-68026247D02*
X106414285Y-67978628D01*
X106414285Y-67978628D02*
X106461904Y-67883390D01*
X89879580Y-71101666D02*
X89927200Y-71149285D01*
X89927200Y-71149285D02*
X89974819Y-71292142D01*
X89974819Y-71292142D02*
X89974819Y-71387380D01*
X89974819Y-71387380D02*
X89927200Y-71530237D01*
X89927200Y-71530237D02*
X89831961Y-71625475D01*
X89831961Y-71625475D02*
X89736723Y-71673094D01*
X89736723Y-71673094D02*
X89546247Y-71720713D01*
X89546247Y-71720713D02*
X89403390Y-71720713D01*
X89403390Y-71720713D02*
X89212914Y-71673094D01*
X89212914Y-71673094D02*
X89117676Y-71625475D01*
X89117676Y-71625475D02*
X89022438Y-71530237D01*
X89022438Y-71530237D02*
X88974819Y-71387380D01*
X88974819Y-71387380D02*
X88974819Y-71292142D01*
X88974819Y-71292142D02*
X89022438Y-71149285D01*
X89022438Y-71149285D02*
X89070057Y-71101666D01*
X89403390Y-70530237D02*
X89355771Y-70625475D01*
X89355771Y-70625475D02*
X89308152Y-70673094D01*
X89308152Y-70673094D02*
X89212914Y-70720713D01*
X89212914Y-70720713D02*
X89165295Y-70720713D01*
X89165295Y-70720713D02*
X89070057Y-70673094D01*
X89070057Y-70673094D02*
X89022438Y-70625475D01*
X89022438Y-70625475D02*
X88974819Y-70530237D01*
X88974819Y-70530237D02*
X88974819Y-70339761D01*
X88974819Y-70339761D02*
X89022438Y-70244523D01*
X89022438Y-70244523D02*
X89070057Y-70196904D01*
X89070057Y-70196904D02*
X89165295Y-70149285D01*
X89165295Y-70149285D02*
X89212914Y-70149285D01*
X89212914Y-70149285D02*
X89308152Y-70196904D01*
X89308152Y-70196904D02*
X89355771Y-70244523D01*
X89355771Y-70244523D02*
X89403390Y-70339761D01*
X89403390Y-70339761D02*
X89403390Y-70530237D01*
X89403390Y-70530237D02*
X89451009Y-70625475D01*
X89451009Y-70625475D02*
X89498628Y-70673094D01*
X89498628Y-70673094D02*
X89593866Y-70720713D01*
X89593866Y-70720713D02*
X89784342Y-70720713D01*
X89784342Y-70720713D02*
X89879580Y-70673094D01*
X89879580Y-70673094D02*
X89927200Y-70625475D01*
X89927200Y-70625475D02*
X89974819Y-70530237D01*
X89974819Y-70530237D02*
X89974819Y-70339761D01*
X89974819Y-70339761D02*
X89927200Y-70244523D01*
X89927200Y-70244523D02*
X89879580Y-70196904D01*
X89879580Y-70196904D02*
X89784342Y-70149285D01*
X89784342Y-70149285D02*
X89593866Y-70149285D01*
X89593866Y-70149285D02*
X89498628Y-70196904D01*
X89498628Y-70196904D02*
X89451009Y-70244523D01*
X89451009Y-70244523D02*
X89403390Y-70339761D01*
X104360470Y-54489367D02*
X104312851Y-54536987D01*
X104312851Y-54536987D02*
X104169994Y-54584606D01*
X104169994Y-54584606D02*
X104074756Y-54584606D01*
X104074756Y-54584606D02*
X103931899Y-54536987D01*
X103931899Y-54536987D02*
X103836661Y-54441748D01*
X103836661Y-54441748D02*
X103789042Y-54346510D01*
X103789042Y-54346510D02*
X103741423Y-54156034D01*
X103741423Y-54156034D02*
X103741423Y-54013177D01*
X103741423Y-54013177D02*
X103789042Y-53822701D01*
X103789042Y-53822701D02*
X103836661Y-53727463D01*
X103836661Y-53727463D02*
X103931899Y-53632225D01*
X103931899Y-53632225D02*
X104074756Y-53584606D01*
X104074756Y-53584606D02*
X104169994Y-53584606D01*
X104169994Y-53584606D02*
X104312851Y-53632225D01*
X104312851Y-53632225D02*
X104360470Y-53679844D01*
X105312851Y-54584606D02*
X104741423Y-54584606D01*
X105027137Y-54584606D02*
X105027137Y-53584606D01*
X105027137Y-53584606D02*
X104931899Y-53727463D01*
X104931899Y-53727463D02*
X104836661Y-53822701D01*
X104836661Y-53822701D02*
X104741423Y-53870320D01*
X106217613Y-53584606D02*
X105741423Y-53584606D01*
X105741423Y-53584606D02*
X105693804Y-54060796D01*
X105693804Y-54060796D02*
X105741423Y-54013177D01*
X105741423Y-54013177D02*
X105836661Y-53965558D01*
X105836661Y-53965558D02*
X106074756Y-53965558D01*
X106074756Y-53965558D02*
X106169994Y-54013177D01*
X106169994Y-54013177D02*
X106217613Y-54060796D01*
X106217613Y-54060796D02*
X106265232Y-54156034D01*
X106265232Y-54156034D02*
X106265232Y-54394129D01*
X106265232Y-54394129D02*
X106217613Y-54489367D01*
X106217613Y-54489367D02*
X106169994Y-54536987D01*
X106169994Y-54536987D02*
X106074756Y-54584606D01*
X106074756Y-54584606D02*
X105836661Y-54584606D01*
X105836661Y-54584606D02*
X105741423Y-54536987D01*
X105741423Y-54536987D02*
X105693804Y-54489367D01*
X71157142Y-69159580D02*
X71109523Y-69207200D01*
X71109523Y-69207200D02*
X70966666Y-69254819D01*
X70966666Y-69254819D02*
X70871428Y-69254819D01*
X70871428Y-69254819D02*
X70728571Y-69207200D01*
X70728571Y-69207200D02*
X70633333Y-69111961D01*
X70633333Y-69111961D02*
X70585714Y-69016723D01*
X70585714Y-69016723D02*
X70538095Y-68826247D01*
X70538095Y-68826247D02*
X70538095Y-68683390D01*
X70538095Y-68683390D02*
X70585714Y-68492914D01*
X70585714Y-68492914D02*
X70633333Y-68397676D01*
X70633333Y-68397676D02*
X70728571Y-68302438D01*
X70728571Y-68302438D02*
X70871428Y-68254819D01*
X70871428Y-68254819D02*
X70966666Y-68254819D01*
X70966666Y-68254819D02*
X71109523Y-68302438D01*
X71109523Y-68302438D02*
X71157142Y-68350057D01*
X71538095Y-68350057D02*
X71585714Y-68302438D01*
X71585714Y-68302438D02*
X71680952Y-68254819D01*
X71680952Y-68254819D02*
X71919047Y-68254819D01*
X71919047Y-68254819D02*
X72014285Y-68302438D01*
X72014285Y-68302438D02*
X72061904Y-68350057D01*
X72061904Y-68350057D02*
X72109523Y-68445295D01*
X72109523Y-68445295D02*
X72109523Y-68540533D01*
X72109523Y-68540533D02*
X72061904Y-68683390D01*
X72061904Y-68683390D02*
X71490476Y-69254819D01*
X71490476Y-69254819D02*
X72109523Y-69254819D01*
X72966666Y-68254819D02*
X72776190Y-68254819D01*
X72776190Y-68254819D02*
X72680952Y-68302438D01*
X72680952Y-68302438D02*
X72633333Y-68350057D01*
X72633333Y-68350057D02*
X72538095Y-68492914D01*
X72538095Y-68492914D02*
X72490476Y-68683390D01*
X72490476Y-68683390D02*
X72490476Y-69064342D01*
X72490476Y-69064342D02*
X72538095Y-69159580D01*
X72538095Y-69159580D02*
X72585714Y-69207200D01*
X72585714Y-69207200D02*
X72680952Y-69254819D01*
X72680952Y-69254819D02*
X72871428Y-69254819D01*
X72871428Y-69254819D02*
X72966666Y-69207200D01*
X72966666Y-69207200D02*
X73014285Y-69159580D01*
X73014285Y-69159580D02*
X73061904Y-69064342D01*
X73061904Y-69064342D02*
X73061904Y-68826247D01*
X73061904Y-68826247D02*
X73014285Y-68731009D01*
X73014285Y-68731009D02*
X72966666Y-68683390D01*
X72966666Y-68683390D02*
X72871428Y-68635771D01*
X72871428Y-68635771D02*
X72680952Y-68635771D01*
X72680952Y-68635771D02*
X72585714Y-68683390D01*
X72585714Y-68683390D02*
X72538095Y-68731009D01*
X72538095Y-68731009D02*
X72490476Y-68826247D01*
X48883333Y-71334819D02*
X48550000Y-70858628D01*
X48311905Y-71334819D02*
X48311905Y-70334819D01*
X48311905Y-70334819D02*
X48692857Y-70334819D01*
X48692857Y-70334819D02*
X48788095Y-70382438D01*
X48788095Y-70382438D02*
X48835714Y-70430057D01*
X48835714Y-70430057D02*
X48883333Y-70525295D01*
X48883333Y-70525295D02*
X48883333Y-70668152D01*
X48883333Y-70668152D02*
X48835714Y-70763390D01*
X48835714Y-70763390D02*
X48788095Y-70811009D01*
X48788095Y-70811009D02*
X48692857Y-70858628D01*
X48692857Y-70858628D02*
X48311905Y-70858628D01*
X49835714Y-71334819D02*
X49264286Y-71334819D01*
X49550000Y-71334819D02*
X49550000Y-70334819D01*
X49550000Y-70334819D02*
X49454762Y-70477676D01*
X49454762Y-70477676D02*
X49359524Y-70572914D01*
X49359524Y-70572914D02*
X49264286Y-70620533D01*
X89661905Y-87854819D02*
X89661905Y-86854819D01*
X89661905Y-86854819D02*
X89900000Y-86854819D01*
X89900000Y-86854819D02*
X90042857Y-86902438D01*
X90042857Y-86902438D02*
X90138095Y-86997676D01*
X90138095Y-86997676D02*
X90185714Y-87092914D01*
X90185714Y-87092914D02*
X90233333Y-87283390D01*
X90233333Y-87283390D02*
X90233333Y-87426247D01*
X90233333Y-87426247D02*
X90185714Y-87616723D01*
X90185714Y-87616723D02*
X90138095Y-87711961D01*
X90138095Y-87711961D02*
X90042857Y-87807200D01*
X90042857Y-87807200D02*
X89900000Y-87854819D01*
X89900000Y-87854819D02*
X89661905Y-87854819D01*
X91185714Y-87854819D02*
X90614286Y-87854819D01*
X90900000Y-87854819D02*
X90900000Y-86854819D01*
X90900000Y-86854819D02*
X90804762Y-86997676D01*
X90804762Y-86997676D02*
X90709524Y-87092914D01*
X90709524Y-87092914D02*
X90614286Y-87140533D01*
X68057142Y-81154819D02*
X67723809Y-80678628D01*
X67485714Y-81154819D02*
X67485714Y-80154819D01*
X67485714Y-80154819D02*
X67866666Y-80154819D01*
X67866666Y-80154819D02*
X67961904Y-80202438D01*
X67961904Y-80202438D02*
X68009523Y-80250057D01*
X68009523Y-80250057D02*
X68057142Y-80345295D01*
X68057142Y-80345295D02*
X68057142Y-80488152D01*
X68057142Y-80488152D02*
X68009523Y-80583390D01*
X68009523Y-80583390D02*
X67961904Y-80631009D01*
X67961904Y-80631009D02*
X67866666Y-80678628D01*
X67866666Y-80678628D02*
X67485714Y-80678628D01*
X69009523Y-81154819D02*
X68438095Y-81154819D01*
X68723809Y-81154819D02*
X68723809Y-80154819D01*
X68723809Y-80154819D02*
X68628571Y-80297676D01*
X68628571Y-80297676D02*
X68533333Y-80392914D01*
X68533333Y-80392914D02*
X68438095Y-80440533D01*
X69961904Y-81154819D02*
X69390476Y-81154819D01*
X69676190Y-81154819D02*
X69676190Y-80154819D01*
X69676190Y-80154819D02*
X69580952Y-80297676D01*
X69580952Y-80297676D02*
X69485714Y-80392914D01*
X69485714Y-80392914D02*
X69390476Y-80440533D01*
X104457142Y-83759580D02*
X104409523Y-83807200D01*
X104409523Y-83807200D02*
X104266666Y-83854819D01*
X104266666Y-83854819D02*
X104171428Y-83854819D01*
X104171428Y-83854819D02*
X104028571Y-83807200D01*
X104028571Y-83807200D02*
X103933333Y-83711961D01*
X103933333Y-83711961D02*
X103885714Y-83616723D01*
X103885714Y-83616723D02*
X103838095Y-83426247D01*
X103838095Y-83426247D02*
X103838095Y-83283390D01*
X103838095Y-83283390D02*
X103885714Y-83092914D01*
X103885714Y-83092914D02*
X103933333Y-82997676D01*
X103933333Y-82997676D02*
X104028571Y-82902438D01*
X104028571Y-82902438D02*
X104171428Y-82854819D01*
X104171428Y-82854819D02*
X104266666Y-82854819D01*
X104266666Y-82854819D02*
X104409523Y-82902438D01*
X104409523Y-82902438D02*
X104457142Y-82950057D01*
X105409523Y-83854819D02*
X104838095Y-83854819D01*
X105123809Y-83854819D02*
X105123809Y-82854819D01*
X105123809Y-82854819D02*
X105028571Y-82997676D01*
X105028571Y-82997676D02*
X104933333Y-83092914D01*
X104933333Y-83092914D02*
X104838095Y-83140533D01*
X105742857Y-82854819D02*
X106361904Y-82854819D01*
X106361904Y-82854819D02*
X106028571Y-83235771D01*
X106028571Y-83235771D02*
X106171428Y-83235771D01*
X106171428Y-83235771D02*
X106266666Y-83283390D01*
X106266666Y-83283390D02*
X106314285Y-83331009D01*
X106314285Y-83331009D02*
X106361904Y-83426247D01*
X106361904Y-83426247D02*
X106361904Y-83664342D01*
X106361904Y-83664342D02*
X106314285Y-83759580D01*
X106314285Y-83759580D02*
X106266666Y-83807200D01*
X106266666Y-83807200D02*
X106171428Y-83854819D01*
X106171428Y-83854819D02*
X105885714Y-83854819D01*
X105885714Y-83854819D02*
X105790476Y-83807200D01*
X105790476Y-83807200D02*
X105742857Y-83759580D01*
X99359580Y-55942857D02*
X99407200Y-55990476D01*
X99407200Y-55990476D02*
X99454819Y-56133333D01*
X99454819Y-56133333D02*
X99454819Y-56228571D01*
X99454819Y-56228571D02*
X99407200Y-56371428D01*
X99407200Y-56371428D02*
X99311961Y-56466666D01*
X99311961Y-56466666D02*
X99216723Y-56514285D01*
X99216723Y-56514285D02*
X99026247Y-56561904D01*
X99026247Y-56561904D02*
X98883390Y-56561904D01*
X98883390Y-56561904D02*
X98692914Y-56514285D01*
X98692914Y-56514285D02*
X98597676Y-56466666D01*
X98597676Y-56466666D02*
X98502438Y-56371428D01*
X98502438Y-56371428D02*
X98454819Y-56228571D01*
X98454819Y-56228571D02*
X98454819Y-56133333D01*
X98454819Y-56133333D02*
X98502438Y-55990476D01*
X98502438Y-55990476D02*
X98550057Y-55942857D01*
X99454819Y-54990476D02*
X99454819Y-55561904D01*
X99454819Y-55276190D02*
X98454819Y-55276190D01*
X98454819Y-55276190D02*
X98597676Y-55371428D01*
X98597676Y-55371428D02*
X98692914Y-55466666D01*
X98692914Y-55466666D02*
X98740533Y-55561904D01*
X98454819Y-54657142D02*
X98454819Y-53990476D01*
X98454819Y-53990476D02*
X99454819Y-54419047D01*
X105385470Y-72039367D02*
X105337851Y-72086987D01*
X105337851Y-72086987D02*
X105194994Y-72134606D01*
X105194994Y-72134606D02*
X105099756Y-72134606D01*
X105099756Y-72134606D02*
X104956899Y-72086987D01*
X104956899Y-72086987D02*
X104861661Y-71991748D01*
X104861661Y-71991748D02*
X104814042Y-71896510D01*
X104814042Y-71896510D02*
X104766423Y-71706034D01*
X104766423Y-71706034D02*
X104766423Y-71563177D01*
X104766423Y-71563177D02*
X104814042Y-71372701D01*
X104814042Y-71372701D02*
X104861661Y-71277463D01*
X104861661Y-71277463D02*
X104956899Y-71182225D01*
X104956899Y-71182225D02*
X105099756Y-71134606D01*
X105099756Y-71134606D02*
X105194994Y-71134606D01*
X105194994Y-71134606D02*
X105337851Y-71182225D01*
X105337851Y-71182225D02*
X105385470Y-71229844D01*
X105766423Y-71229844D02*
X105814042Y-71182225D01*
X105814042Y-71182225D02*
X105909280Y-71134606D01*
X105909280Y-71134606D02*
X106147375Y-71134606D01*
X106147375Y-71134606D02*
X106242613Y-71182225D01*
X106242613Y-71182225D02*
X106290232Y-71229844D01*
X106290232Y-71229844D02*
X106337851Y-71325082D01*
X106337851Y-71325082D02*
X106337851Y-71420320D01*
X106337851Y-71420320D02*
X106290232Y-71563177D01*
X106290232Y-71563177D02*
X105718804Y-72134606D01*
X105718804Y-72134606D02*
X106337851Y-72134606D01*
X106718804Y-71229844D02*
X106766423Y-71182225D01*
X106766423Y-71182225D02*
X106861661Y-71134606D01*
X106861661Y-71134606D02*
X107099756Y-71134606D01*
X107099756Y-71134606D02*
X107194994Y-71182225D01*
X107194994Y-71182225D02*
X107242613Y-71229844D01*
X107242613Y-71229844D02*
X107290232Y-71325082D01*
X107290232Y-71325082D02*
X107290232Y-71420320D01*
X107290232Y-71420320D02*
X107242613Y-71563177D01*
X107242613Y-71563177D02*
X106671185Y-72134606D01*
X106671185Y-72134606D02*
X107290232Y-72134606D01*
X51659580Y-76442857D02*
X51707200Y-76490476D01*
X51707200Y-76490476D02*
X51754819Y-76633333D01*
X51754819Y-76633333D02*
X51754819Y-76728571D01*
X51754819Y-76728571D02*
X51707200Y-76871428D01*
X51707200Y-76871428D02*
X51611961Y-76966666D01*
X51611961Y-76966666D02*
X51516723Y-77014285D01*
X51516723Y-77014285D02*
X51326247Y-77061904D01*
X51326247Y-77061904D02*
X51183390Y-77061904D01*
X51183390Y-77061904D02*
X50992914Y-77014285D01*
X50992914Y-77014285D02*
X50897676Y-76966666D01*
X50897676Y-76966666D02*
X50802438Y-76871428D01*
X50802438Y-76871428D02*
X50754819Y-76728571D01*
X50754819Y-76728571D02*
X50754819Y-76633333D01*
X50754819Y-76633333D02*
X50802438Y-76490476D01*
X50802438Y-76490476D02*
X50850057Y-76442857D01*
X50754819Y-76109523D02*
X50754819Y-75490476D01*
X50754819Y-75490476D02*
X51135771Y-75823809D01*
X51135771Y-75823809D02*
X51135771Y-75680952D01*
X51135771Y-75680952D02*
X51183390Y-75585714D01*
X51183390Y-75585714D02*
X51231009Y-75538095D01*
X51231009Y-75538095D02*
X51326247Y-75490476D01*
X51326247Y-75490476D02*
X51564342Y-75490476D01*
X51564342Y-75490476D02*
X51659580Y-75538095D01*
X51659580Y-75538095D02*
X51707200Y-75585714D01*
X51707200Y-75585714D02*
X51754819Y-75680952D01*
X51754819Y-75680952D02*
X51754819Y-75966666D01*
X51754819Y-75966666D02*
X51707200Y-76061904D01*
X51707200Y-76061904D02*
X51659580Y-76109523D01*
X50754819Y-74871428D02*
X50754819Y-74776190D01*
X50754819Y-74776190D02*
X50802438Y-74680952D01*
X50802438Y-74680952D02*
X50850057Y-74633333D01*
X50850057Y-74633333D02*
X50945295Y-74585714D01*
X50945295Y-74585714D02*
X51135771Y-74538095D01*
X51135771Y-74538095D02*
X51373866Y-74538095D01*
X51373866Y-74538095D02*
X51564342Y-74585714D01*
X51564342Y-74585714D02*
X51659580Y-74633333D01*
X51659580Y-74633333D02*
X51707200Y-74680952D01*
X51707200Y-74680952D02*
X51754819Y-74776190D01*
X51754819Y-74776190D02*
X51754819Y-74871428D01*
X51754819Y-74871428D02*
X51707200Y-74966666D01*
X51707200Y-74966666D02*
X51659580Y-75014285D01*
X51659580Y-75014285D02*
X51564342Y-75061904D01*
X51564342Y-75061904D02*
X51373866Y-75109523D01*
X51373866Y-75109523D02*
X51135771Y-75109523D01*
X51135771Y-75109523D02*
X50945295Y-75061904D01*
X50945295Y-75061904D02*
X50850057Y-75014285D01*
X50850057Y-75014285D02*
X50802438Y-74966666D01*
X50802438Y-74966666D02*
X50754819Y-74871428D01*
X113535470Y-88909580D02*
X113487851Y-88957200D01*
X113487851Y-88957200D02*
X113344994Y-89004819D01*
X113344994Y-89004819D02*
X113249756Y-89004819D01*
X113249756Y-89004819D02*
X113106899Y-88957200D01*
X113106899Y-88957200D02*
X113011661Y-88861961D01*
X113011661Y-88861961D02*
X112964042Y-88766723D01*
X112964042Y-88766723D02*
X112916423Y-88576247D01*
X112916423Y-88576247D02*
X112916423Y-88433390D01*
X112916423Y-88433390D02*
X112964042Y-88242914D01*
X112964042Y-88242914D02*
X113011661Y-88147676D01*
X113011661Y-88147676D02*
X113106899Y-88052438D01*
X113106899Y-88052438D02*
X113249756Y-88004819D01*
X113249756Y-88004819D02*
X113344994Y-88004819D01*
X113344994Y-88004819D02*
X113487851Y-88052438D01*
X113487851Y-88052438D02*
X113535470Y-88100057D01*
X114487851Y-89004819D02*
X113916423Y-89004819D01*
X114202137Y-89004819D02*
X114202137Y-88004819D01*
X114202137Y-88004819D02*
X114106899Y-88147676D01*
X114106899Y-88147676D02*
X114011661Y-88242914D01*
X114011661Y-88242914D02*
X113916423Y-88290533D01*
X115106899Y-88004819D02*
X115202137Y-88004819D01*
X115202137Y-88004819D02*
X115297375Y-88052438D01*
X115297375Y-88052438D02*
X115344994Y-88100057D01*
X115344994Y-88100057D02*
X115392613Y-88195295D01*
X115392613Y-88195295D02*
X115440232Y-88385771D01*
X115440232Y-88385771D02*
X115440232Y-88623866D01*
X115440232Y-88623866D02*
X115392613Y-88814342D01*
X115392613Y-88814342D02*
X115344994Y-88909580D01*
X115344994Y-88909580D02*
X115297375Y-88957200D01*
X115297375Y-88957200D02*
X115202137Y-89004819D01*
X115202137Y-89004819D02*
X115106899Y-89004819D01*
X115106899Y-89004819D02*
X115011661Y-88957200D01*
X115011661Y-88957200D02*
X114964042Y-88909580D01*
X114964042Y-88909580D02*
X114916423Y-88814342D01*
X114916423Y-88814342D02*
X114868804Y-88623866D01*
X114868804Y-88623866D02*
X114868804Y-88385771D01*
X114868804Y-88385771D02*
X114916423Y-88195295D01*
X114916423Y-88195295D02*
X114964042Y-88100057D01*
X114964042Y-88100057D02*
X115011661Y-88052438D01*
X115011661Y-88052438D02*
X115106899Y-88004819D01*
X94185470Y-60389367D02*
X94137851Y-60436987D01*
X94137851Y-60436987D02*
X93994994Y-60484606D01*
X93994994Y-60484606D02*
X93899756Y-60484606D01*
X93899756Y-60484606D02*
X93756899Y-60436987D01*
X93756899Y-60436987D02*
X93661661Y-60341748D01*
X93661661Y-60341748D02*
X93614042Y-60246510D01*
X93614042Y-60246510D02*
X93566423Y-60056034D01*
X93566423Y-60056034D02*
X93566423Y-59913177D01*
X93566423Y-59913177D02*
X93614042Y-59722701D01*
X93614042Y-59722701D02*
X93661661Y-59627463D01*
X93661661Y-59627463D02*
X93756899Y-59532225D01*
X93756899Y-59532225D02*
X93899756Y-59484606D01*
X93899756Y-59484606D02*
X93994994Y-59484606D01*
X93994994Y-59484606D02*
X94137851Y-59532225D01*
X94137851Y-59532225D02*
X94185470Y-59579844D01*
X94566423Y-59579844D02*
X94614042Y-59532225D01*
X94614042Y-59532225D02*
X94709280Y-59484606D01*
X94709280Y-59484606D02*
X94947375Y-59484606D01*
X94947375Y-59484606D02*
X95042613Y-59532225D01*
X95042613Y-59532225D02*
X95090232Y-59579844D01*
X95090232Y-59579844D02*
X95137851Y-59675082D01*
X95137851Y-59675082D02*
X95137851Y-59770320D01*
X95137851Y-59770320D02*
X95090232Y-59913177D01*
X95090232Y-59913177D02*
X94518804Y-60484606D01*
X94518804Y-60484606D02*
X95137851Y-60484606D01*
X96090232Y-60484606D02*
X95518804Y-60484606D01*
X95804518Y-60484606D02*
X95804518Y-59484606D01*
X95804518Y-59484606D02*
X95709280Y-59627463D01*
X95709280Y-59627463D02*
X95614042Y-59722701D01*
X95614042Y-59722701D02*
X95518804Y-59770320D01*
X85057142Y-80559580D02*
X85009523Y-80607200D01*
X85009523Y-80607200D02*
X84866666Y-80654819D01*
X84866666Y-80654819D02*
X84771428Y-80654819D01*
X84771428Y-80654819D02*
X84628571Y-80607200D01*
X84628571Y-80607200D02*
X84533333Y-80511961D01*
X84533333Y-80511961D02*
X84485714Y-80416723D01*
X84485714Y-80416723D02*
X84438095Y-80226247D01*
X84438095Y-80226247D02*
X84438095Y-80083390D01*
X84438095Y-80083390D02*
X84485714Y-79892914D01*
X84485714Y-79892914D02*
X84533333Y-79797676D01*
X84533333Y-79797676D02*
X84628571Y-79702438D01*
X84628571Y-79702438D02*
X84771428Y-79654819D01*
X84771428Y-79654819D02*
X84866666Y-79654819D01*
X84866666Y-79654819D02*
X85009523Y-79702438D01*
X85009523Y-79702438D02*
X85057142Y-79750057D01*
X86009523Y-80654819D02*
X85438095Y-80654819D01*
X85723809Y-80654819D02*
X85723809Y-79654819D01*
X85723809Y-79654819D02*
X85628571Y-79797676D01*
X85628571Y-79797676D02*
X85533333Y-79892914D01*
X85533333Y-79892914D02*
X85438095Y-79940533D01*
X86390476Y-79750057D02*
X86438095Y-79702438D01*
X86438095Y-79702438D02*
X86533333Y-79654819D01*
X86533333Y-79654819D02*
X86771428Y-79654819D01*
X86771428Y-79654819D02*
X86866666Y-79702438D01*
X86866666Y-79702438D02*
X86914285Y-79750057D01*
X86914285Y-79750057D02*
X86961904Y-79845295D01*
X86961904Y-79845295D02*
X86961904Y-79940533D01*
X86961904Y-79940533D02*
X86914285Y-80083390D01*
X86914285Y-80083390D02*
X86342857Y-80654819D01*
X86342857Y-80654819D02*
X86961904Y-80654819D01*
G36*
X117789431Y-63239489D02*
G01*
X115704365Y-63239489D01*
X115704365Y-62054819D01*
X115815476Y-62054819D01*
X115815476Y-63054819D01*
X115816917Y-63069451D01*
X115828116Y-63096487D01*
X115848808Y-63117179D01*
X115875844Y-63128378D01*
X115905108Y-63128378D01*
X115932144Y-63117179D01*
X115952836Y-63096487D01*
X115964035Y-63069451D01*
X115965476Y-63054819D01*
X115965476Y-62392886D01*
X116155845Y-62800821D01*
X116159019Y-62806180D01*
X116159679Y-62807993D01*
X116160853Y-62809275D01*
X116163339Y-62813471D01*
X116171748Y-62821171D01*
X116179443Y-62829574D01*
X116182461Y-62830982D01*
X116184920Y-62833234D01*
X116195632Y-62837129D01*
X116205961Y-62841950D01*
X116209289Y-62842096D01*
X116212421Y-62843235D01*
X116223815Y-62842734D01*
X116235197Y-62843234D01*
X116238325Y-62842096D01*
X116241657Y-62841950D01*
X116251992Y-62837126D01*
X116262698Y-62833234D01*
X116265153Y-62830984D01*
X116268175Y-62829575D01*
X116275876Y-62821164D01*
X116284279Y-62813470D01*
X116286762Y-62809277D01*
X116287939Y-62807993D01*
X116288599Y-62806177D01*
X116291773Y-62800820D01*
X116482142Y-62392886D01*
X116482142Y-63054819D01*
X116483583Y-63069451D01*
X116494782Y-63096487D01*
X116515474Y-63117179D01*
X116542510Y-63128378D01*
X116571774Y-63128378D01*
X116598810Y-63117179D01*
X116619502Y-63096487D01*
X116630701Y-63069451D01*
X116632142Y-63054819D01*
X116632142Y-62712105D01*
X116911303Y-62712105D01*
X116912155Y-62724090D01*
X116912155Y-62736117D01*
X116913187Y-62738608D01*
X116913378Y-62741295D01*
X116918752Y-62752044D01*
X116923354Y-62763153D01*
X116925259Y-62765058D01*
X116926464Y-62767468D01*
X116935546Y-62775345D01*
X116944046Y-62783845D01*
X116946534Y-62784875D01*
X116948571Y-62786642D01*
X116959974Y-62790443D01*
X116971082Y-62795044D01*
X116974908Y-62795420D01*
X116976334Y-62795896D01*
X116978308Y-62795755D01*
X116985714Y-62796485D01*
X117386904Y-62796485D01*
X117386904Y-63054819D01*
X117388345Y-63069451D01*
X117399544Y-63096487D01*
X117420236Y-63117179D01*
X117447272Y-63128378D01*
X117476536Y-63128378D01*
X117503572Y-63117179D01*
X117524264Y-63096487D01*
X117535463Y-63069451D01*
X117536904Y-63054819D01*
X117536904Y-62796485D01*
X117604761Y-62796485D01*
X117619393Y-62795044D01*
X117646429Y-62783845D01*
X117667121Y-62763153D01*
X117678320Y-62736117D01*
X117678320Y-62706853D01*
X117667121Y-62679817D01*
X117646429Y-62659125D01*
X117619393Y-62647926D01*
X117604761Y-62646485D01*
X117536904Y-62646485D01*
X117536904Y-62388152D01*
X117535463Y-62373520D01*
X117524264Y-62346484D01*
X117503572Y-62325792D01*
X117476536Y-62314593D01*
X117447272Y-62314593D01*
X117420236Y-62325792D01*
X117399544Y-62346484D01*
X117388345Y-62373520D01*
X117386904Y-62388152D01*
X117386904Y-62646485D01*
X117089771Y-62646485D01*
X117294960Y-62030918D01*
X117298220Y-62016581D01*
X117296145Y-61987391D01*
X117283059Y-61961217D01*
X117260951Y-61942043D01*
X117233189Y-61932789D01*
X117203999Y-61934864D01*
X117177826Y-61947951D01*
X117158652Y-61970058D01*
X117152658Y-61983483D01*
X116914563Y-62697768D01*
X116912913Y-62705021D01*
X116912155Y-62706853D01*
X116912155Y-62708358D01*
X116911303Y-62712105D01*
X116632142Y-62712105D01*
X116632142Y-62054819D01*
X116631194Y-62045197D01*
X116631272Y-62043431D01*
X116630927Y-62042482D01*
X116630701Y-62040187D01*
X116625719Y-62028160D01*
X116621272Y-62015930D01*
X116620142Y-62014696D01*
X116619502Y-62013151D01*
X116610302Y-62003951D01*
X116601508Y-61994348D01*
X116599991Y-61993640D01*
X116598810Y-61992459D01*
X116586797Y-61987482D01*
X116574990Y-61981973D01*
X116573317Y-61981899D01*
X116571774Y-61981260D01*
X116558768Y-61981260D01*
X116545754Y-61980688D01*
X116544181Y-61981260D01*
X116542510Y-61981260D01*
X116530491Y-61986238D01*
X116518253Y-61990689D01*
X116517019Y-61991819D01*
X116515474Y-61992459D01*
X116506275Y-62001657D01*
X116496672Y-62010452D01*
X116495496Y-62012436D01*
X116494782Y-62013151D01*
X116494105Y-62014784D01*
X116489178Y-62023102D01*
X116223808Y-62591750D01*
X115958440Y-62023103D01*
X115953514Y-62014787D01*
X115952836Y-62013151D01*
X115952120Y-62012435D01*
X115950946Y-62010453D01*
X115941349Y-62001664D01*
X115932144Y-61992459D01*
X115930598Y-61991818D01*
X115929365Y-61990689D01*
X115917134Y-61986241D01*
X115905108Y-61981260D01*
X115903434Y-61981260D01*
X115901864Y-61980689D01*
X115888863Y-61981260D01*
X115875844Y-61981260D01*
X115874299Y-61981899D01*
X115872628Y-61981973D01*
X115860829Y-61987479D01*
X115848808Y-61992459D01*
X115847625Y-61993641D01*
X115846110Y-61994349D01*
X115837321Y-62003945D01*
X115828116Y-62013151D01*
X115827475Y-62014696D01*
X115826346Y-62015930D01*
X115821898Y-62028160D01*
X115816917Y-62040187D01*
X115816690Y-62042482D01*
X115816346Y-62043431D01*
X115816423Y-62045197D01*
X115815476Y-62054819D01*
X115704365Y-62054819D01*
X115704365Y-61821678D01*
X117789431Y-61821678D01*
X117789431Y-63239489D01*
G37*
X66457142Y-74889580D02*
X66409523Y-74937200D01*
X66409523Y-74937200D02*
X66266666Y-74984819D01*
X66266666Y-74984819D02*
X66171428Y-74984819D01*
X66171428Y-74984819D02*
X66028571Y-74937200D01*
X66028571Y-74937200D02*
X65933333Y-74841961D01*
X65933333Y-74841961D02*
X65885714Y-74746723D01*
X65885714Y-74746723D02*
X65838095Y-74556247D01*
X65838095Y-74556247D02*
X65838095Y-74413390D01*
X65838095Y-74413390D02*
X65885714Y-74222914D01*
X65885714Y-74222914D02*
X65933333Y-74127676D01*
X65933333Y-74127676D02*
X66028571Y-74032438D01*
X66028571Y-74032438D02*
X66171428Y-73984819D01*
X66171428Y-73984819D02*
X66266666Y-73984819D01*
X66266666Y-73984819D02*
X66409523Y-74032438D01*
X66409523Y-74032438D02*
X66457142Y-74080057D01*
X66838095Y-74080057D02*
X66885714Y-74032438D01*
X66885714Y-74032438D02*
X66980952Y-73984819D01*
X66980952Y-73984819D02*
X67219047Y-73984819D01*
X67219047Y-73984819D02*
X67314285Y-74032438D01*
X67314285Y-74032438D02*
X67361904Y-74080057D01*
X67361904Y-74080057D02*
X67409523Y-74175295D01*
X67409523Y-74175295D02*
X67409523Y-74270533D01*
X67409523Y-74270533D02*
X67361904Y-74413390D01*
X67361904Y-74413390D02*
X66790476Y-74984819D01*
X66790476Y-74984819D02*
X67409523Y-74984819D01*
X67885714Y-74984819D02*
X68076190Y-74984819D01*
X68076190Y-74984819D02*
X68171428Y-74937200D01*
X68171428Y-74937200D02*
X68219047Y-74889580D01*
X68219047Y-74889580D02*
X68314285Y-74746723D01*
X68314285Y-74746723D02*
X68361904Y-74556247D01*
X68361904Y-74556247D02*
X68361904Y-74175295D01*
X68361904Y-74175295D02*
X68314285Y-74080057D01*
X68314285Y-74080057D02*
X68266666Y-74032438D01*
X68266666Y-74032438D02*
X68171428Y-73984819D01*
X68171428Y-73984819D02*
X67980952Y-73984819D01*
X67980952Y-73984819D02*
X67885714Y-74032438D01*
X67885714Y-74032438D02*
X67838095Y-74080057D01*
X67838095Y-74080057D02*
X67790476Y-74175295D01*
X67790476Y-74175295D02*
X67790476Y-74413390D01*
X67790476Y-74413390D02*
X67838095Y-74508628D01*
X67838095Y-74508628D02*
X67885714Y-74556247D01*
X67885714Y-74556247D02*
X67980952Y-74603866D01*
X67980952Y-74603866D02*
X68171428Y-74603866D01*
X68171428Y-74603866D02*
X68266666Y-74556247D01*
X68266666Y-74556247D02*
X68314285Y-74508628D01*
X68314285Y-74508628D02*
X68361904Y-74413390D01*
X89557142Y-76359580D02*
X89509523Y-76407200D01*
X89509523Y-76407200D02*
X89366666Y-76454819D01*
X89366666Y-76454819D02*
X89271428Y-76454819D01*
X89271428Y-76454819D02*
X89128571Y-76407200D01*
X89128571Y-76407200D02*
X89033333Y-76311961D01*
X89033333Y-76311961D02*
X88985714Y-76216723D01*
X88985714Y-76216723D02*
X88938095Y-76026247D01*
X88938095Y-76026247D02*
X88938095Y-75883390D01*
X88938095Y-75883390D02*
X88985714Y-75692914D01*
X88985714Y-75692914D02*
X89033333Y-75597676D01*
X89033333Y-75597676D02*
X89128571Y-75502438D01*
X89128571Y-75502438D02*
X89271428Y-75454819D01*
X89271428Y-75454819D02*
X89366666Y-75454819D01*
X89366666Y-75454819D02*
X89509523Y-75502438D01*
X89509523Y-75502438D02*
X89557142Y-75550057D01*
X90509523Y-76454819D02*
X89938095Y-76454819D01*
X90223809Y-76454819D02*
X90223809Y-75454819D01*
X90223809Y-75454819D02*
X90128571Y-75597676D01*
X90128571Y-75597676D02*
X90033333Y-75692914D01*
X90033333Y-75692914D02*
X89938095Y-75740533D01*
X91461904Y-76454819D02*
X90890476Y-76454819D01*
X91176190Y-76454819D02*
X91176190Y-75454819D01*
X91176190Y-75454819D02*
X91080952Y-75597676D01*
X91080952Y-75597676D02*
X90985714Y-75692914D01*
X90985714Y-75692914D02*
X90890476Y-75740533D01*
X76133333Y-70089580D02*
X76085714Y-70137200D01*
X76085714Y-70137200D02*
X75942857Y-70184819D01*
X75942857Y-70184819D02*
X75847619Y-70184819D01*
X75847619Y-70184819D02*
X75704762Y-70137200D01*
X75704762Y-70137200D02*
X75609524Y-70041961D01*
X75609524Y-70041961D02*
X75561905Y-69946723D01*
X75561905Y-69946723D02*
X75514286Y-69756247D01*
X75514286Y-69756247D02*
X75514286Y-69613390D01*
X75514286Y-69613390D02*
X75561905Y-69422914D01*
X75561905Y-69422914D02*
X75609524Y-69327676D01*
X75609524Y-69327676D02*
X75704762Y-69232438D01*
X75704762Y-69232438D02*
X75847619Y-69184819D01*
X75847619Y-69184819D02*
X75942857Y-69184819D01*
X75942857Y-69184819D02*
X76085714Y-69232438D01*
X76085714Y-69232438D02*
X76133333Y-69280057D01*
X76466667Y-69184819D02*
X77085714Y-69184819D01*
X77085714Y-69184819D02*
X76752381Y-69565771D01*
X76752381Y-69565771D02*
X76895238Y-69565771D01*
X76895238Y-69565771D02*
X76990476Y-69613390D01*
X76990476Y-69613390D02*
X77038095Y-69661009D01*
X77038095Y-69661009D02*
X77085714Y-69756247D01*
X77085714Y-69756247D02*
X77085714Y-69994342D01*
X77085714Y-69994342D02*
X77038095Y-70089580D01*
X77038095Y-70089580D02*
X76990476Y-70137200D01*
X76990476Y-70137200D02*
X76895238Y-70184819D01*
X76895238Y-70184819D02*
X76609524Y-70184819D01*
X76609524Y-70184819D02*
X76514286Y-70137200D01*
X76514286Y-70137200D02*
X76466667Y-70089580D01*
X55757142Y-73459580D02*
X55709523Y-73507200D01*
X55709523Y-73507200D02*
X55566666Y-73554819D01*
X55566666Y-73554819D02*
X55471428Y-73554819D01*
X55471428Y-73554819D02*
X55328571Y-73507200D01*
X55328571Y-73507200D02*
X55233333Y-73411961D01*
X55233333Y-73411961D02*
X55185714Y-73316723D01*
X55185714Y-73316723D02*
X55138095Y-73126247D01*
X55138095Y-73126247D02*
X55138095Y-72983390D01*
X55138095Y-72983390D02*
X55185714Y-72792914D01*
X55185714Y-72792914D02*
X55233333Y-72697676D01*
X55233333Y-72697676D02*
X55328571Y-72602438D01*
X55328571Y-72602438D02*
X55471428Y-72554819D01*
X55471428Y-72554819D02*
X55566666Y-72554819D01*
X55566666Y-72554819D02*
X55709523Y-72602438D01*
X55709523Y-72602438D02*
X55757142Y-72650057D01*
X56138095Y-72650057D02*
X56185714Y-72602438D01*
X56185714Y-72602438D02*
X56280952Y-72554819D01*
X56280952Y-72554819D02*
X56519047Y-72554819D01*
X56519047Y-72554819D02*
X56614285Y-72602438D01*
X56614285Y-72602438D02*
X56661904Y-72650057D01*
X56661904Y-72650057D02*
X56709523Y-72745295D01*
X56709523Y-72745295D02*
X56709523Y-72840533D01*
X56709523Y-72840533D02*
X56661904Y-72983390D01*
X56661904Y-72983390D02*
X56090476Y-73554819D01*
X56090476Y-73554819D02*
X56709523Y-73554819D01*
X57280952Y-72983390D02*
X57185714Y-72935771D01*
X57185714Y-72935771D02*
X57138095Y-72888152D01*
X57138095Y-72888152D02*
X57090476Y-72792914D01*
X57090476Y-72792914D02*
X57090476Y-72745295D01*
X57090476Y-72745295D02*
X57138095Y-72650057D01*
X57138095Y-72650057D02*
X57185714Y-72602438D01*
X57185714Y-72602438D02*
X57280952Y-72554819D01*
X57280952Y-72554819D02*
X57471428Y-72554819D01*
X57471428Y-72554819D02*
X57566666Y-72602438D01*
X57566666Y-72602438D02*
X57614285Y-72650057D01*
X57614285Y-72650057D02*
X57661904Y-72745295D01*
X57661904Y-72745295D02*
X57661904Y-72792914D01*
X57661904Y-72792914D02*
X57614285Y-72888152D01*
X57614285Y-72888152D02*
X57566666Y-72935771D01*
X57566666Y-72935771D02*
X57471428Y-72983390D01*
X57471428Y-72983390D02*
X57280952Y-72983390D01*
X57280952Y-72983390D02*
X57185714Y-73031009D01*
X57185714Y-73031009D02*
X57138095Y-73078628D01*
X57138095Y-73078628D02*
X57090476Y-73173866D01*
X57090476Y-73173866D02*
X57090476Y-73364342D01*
X57090476Y-73364342D02*
X57138095Y-73459580D01*
X57138095Y-73459580D02*
X57185714Y-73507200D01*
X57185714Y-73507200D02*
X57280952Y-73554819D01*
X57280952Y-73554819D02*
X57471428Y-73554819D01*
X57471428Y-73554819D02*
X57566666Y-73507200D01*
X57566666Y-73507200D02*
X57614285Y-73459580D01*
X57614285Y-73459580D02*
X57661904Y-73364342D01*
X57661904Y-73364342D02*
X57661904Y-73173866D01*
X57661904Y-73173866D02*
X57614285Y-73078628D01*
X57614285Y-73078628D02*
X57566666Y-73031009D01*
X57566666Y-73031009D02*
X57471428Y-72983390D01*
D12*
%TO.C,U5*%
X91608328Y-53219787D02*
X91608328Y-53694787D01*
X91608328Y-56439787D02*
X91608328Y-55964787D01*
X92083328Y-53219787D02*
X91608328Y-53219787D01*
X92083328Y-56439787D02*
X91608328Y-56439787D01*
X94353328Y-53219787D02*
X94828328Y-53219787D01*
X94353328Y-56439787D02*
X94528328Y-56439787D01*
X94828328Y-53219787D02*
X94828328Y-53694787D01*
X94828328Y-55964787D02*
X94828328Y-56199787D01*
X95068328Y-56769787D02*
X94588328Y-56769787D01*
X94828328Y-56439787D01*
X95068328Y-56769787D01*
G36*
X95068328Y-56769787D02*
G01*
X94588328Y-56769787D01*
X94828328Y-56439787D01*
X95068328Y-56769787D01*
G37*
D11*
%TO.C,C27*%
X69516267Y-69940000D02*
X69223733Y-69940000D01*
X69516267Y-70960000D02*
X69223733Y-70960000D01*
%TO.C,R13*%
X49157776Y-57307500D02*
X49667224Y-57307500D01*
X49157776Y-58352500D02*
X49667224Y-58352500D01*
%TO.C,C4*%
X45290000Y-50916233D02*
X45290000Y-51208767D01*
X46310000Y-50916233D02*
X46310000Y-51208767D01*
%TO.C,R4*%
X77417224Y-63607500D02*
X76907776Y-63607500D01*
X77417224Y-64652500D02*
X76907776Y-64652500D01*
%TO.C,R15*%
X49157776Y-62207500D02*
X49667224Y-62207500D01*
X49157776Y-63252500D02*
X49667224Y-63252500D01*
%TO.C,R9*%
X59012224Y-68457500D02*
X58502776Y-68457500D01*
X59012224Y-69502500D02*
X58502776Y-69502500D01*
%TO.C,R10*%
X73642224Y-83377500D02*
X73132776Y-83377500D01*
X73642224Y-84422500D02*
X73132776Y-84422500D01*
%TO.C,C16*%
X108820828Y-77389787D02*
X117060828Y-77389787D01*
X117060828Y-72869787D02*
X111220828Y-72869787D01*
X117060828Y-77389787D02*
X117060828Y-72869787D01*
%TO.C,C18*%
X95193328Y-50621020D02*
X95193328Y-50913554D01*
X96213328Y-50621020D02*
X96213328Y-50913554D01*
%TO.C,C2*%
X76733767Y-72220000D02*
X76441233Y-72220000D01*
X76733767Y-73240000D02*
X76441233Y-73240000D01*
%TO.C,C1*%
X46333767Y-72170000D02*
X46041233Y-72170000D01*
X46333767Y-73190000D02*
X46041233Y-73190000D01*
%TO.C,R6*%
X72037500Y-52827776D02*
X72037500Y-53337224D01*
X73082500Y-52827776D02*
X73082500Y-53337224D01*
%TO.C,J6*%
X115198328Y-50899787D02*
X115198328Y-61119787D01*
X115198328Y-50899787D02*
X117858328Y-50899787D01*
X115198328Y-61119787D02*
X117858328Y-61119787D01*
X116528328Y-48299787D02*
X117858328Y-48299787D01*
X117858328Y-48299787D02*
X117858328Y-49629787D01*
X117858328Y-50899787D02*
X117858328Y-61119787D01*
%TO.C,C9*%
X109144561Y-86419787D02*
X109437095Y-86419787D01*
X109144561Y-87439787D02*
X109437095Y-87439787D01*
%TO.C,R7*%
X72027500Y-49522224D02*
X72027500Y-49012776D01*
X73072500Y-49522224D02*
X73072500Y-49012776D01*
%TO.C,C23*%
X77090000Y-88646233D02*
X77090000Y-88938767D01*
X78110000Y-88646233D02*
X78110000Y-88938767D01*
%TO.C,C20*%
X116037095Y-70619787D02*
X115744561Y-70619787D01*
X116037095Y-71639787D02*
X115744561Y-71639787D01*
%TO.C,J3*%
X43620000Y-54220000D02*
X45000000Y-54220000D01*
X43620000Y-55600000D02*
X43620000Y-54220000D01*
X43620000Y-56870000D02*
X43620000Y-67140000D01*
X43620000Y-56870000D02*
X46380000Y-56870000D01*
X43620000Y-67140000D02*
X46380000Y-67140000D01*
X46380000Y-56870000D02*
X46380000Y-67140000D01*
%TO.C,C25*%
X60613767Y-76510000D02*
X60321233Y-76510000D01*
X60613767Y-77530000D02*
X60321233Y-77530000D01*
D12*
%TO.C,U6*%
X109828328Y-66429787D02*
X110303328Y-66429787D01*
X109828328Y-66904787D02*
X109828328Y-66429787D01*
X109828328Y-69174787D02*
X109828328Y-69349787D01*
X110303328Y-69649787D02*
X110068328Y-69649787D01*
X113048328Y-66429787D02*
X112573328Y-66429787D01*
X113048328Y-66904787D02*
X113048328Y-66429787D01*
X113048328Y-69174787D02*
X113048328Y-69649787D01*
X113048328Y-69649787D02*
X112573328Y-69649787D01*
X109828328Y-69649787D02*
X109498328Y-69889787D01*
X109498328Y-69409787D01*
X109828328Y-69649787D01*
G36*
X109828328Y-69649787D02*
G01*
X109498328Y-69889787D01*
X109498328Y-69409787D01*
X109828328Y-69649787D01*
G37*
D11*
%TO.C,U7*%
X75550000Y-87040000D02*
X74750000Y-87040000D01*
X75600000Y-89320000D02*
X74700000Y-89320000D01*
X76573075Y-89610000D02*
X76573075Y-89330000D01*
X76853075Y-89330000D01*
X76573075Y-89610000D01*
G36*
X76573075Y-89610000D02*
G01*
X76573075Y-89330000D01*
X76853075Y-89330000D01*
X76573075Y-89610000D01*
G37*
%TO.C,FB2*%
X64846267Y-76440000D02*
X64503733Y-76440000D01*
X64846267Y-77460000D02*
X64503733Y-77460000D01*
%TO.C,R3*%
X67377500Y-93572224D02*
X67377500Y-93062776D01*
X68422500Y-93572224D02*
X68422500Y-93062776D01*
D12*
%TO.C,U4*%
X88168328Y-80162287D02*
X88643328Y-80162287D01*
X88168328Y-80637287D02*
X88168328Y-80162287D01*
X88168328Y-82907287D02*
X88168328Y-83382287D01*
X88168328Y-83382287D02*
X88643328Y-83382287D01*
X90913328Y-80162287D02*
X91148328Y-80162287D01*
X91388328Y-80637287D02*
X91388328Y-80462287D01*
X91388328Y-82907287D02*
X91388328Y-83382287D01*
X91388328Y-83382287D02*
X90913328Y-83382287D01*
X91718328Y-80402287D02*
X91388328Y-80162287D01*
X91718328Y-79922287D01*
X91718328Y-80402287D01*
G36*
X91718328Y-80402287D02*
G01*
X91388328Y-80162287D01*
X91718328Y-79922287D01*
X91718328Y-80402287D01*
G37*
D11*
%TO.C,J5*%
X82740000Y-56880000D02*
X82740000Y-67100000D01*
X82740000Y-56880000D02*
X85400000Y-56880000D01*
X82740000Y-67100000D02*
X85400000Y-67100000D01*
X84070000Y-54280000D02*
X85400000Y-54280000D01*
X85400000Y-54280000D02*
X85400000Y-55610000D01*
X85400000Y-56880000D02*
X85400000Y-67100000D01*
%TO.C,R14*%
X49157776Y-59777500D02*
X49667224Y-59777500D01*
X49157776Y-60822500D02*
X49667224Y-60822500D01*
%TO.C,C14*%
X92518328Y-79021020D02*
X92518328Y-79313554D01*
X93538328Y-79021020D02*
X93538328Y-79313554D01*
%TO.C,C6*%
X50190000Y-50891233D02*
X50190000Y-51183767D01*
X51210000Y-50891233D02*
X51210000Y-51183767D01*
%TO.C,L1*%
X69990000Y-89890000D02*
X69990000Y-86670000D01*
X73210000Y-86670000D02*
X73210000Y-89890000D01*
%TO.C,R12*%
X49157776Y-54977500D02*
X49667224Y-54977500D01*
X49157776Y-56022500D02*
X49667224Y-56022500D01*
%TO.C,C24*%
X73216233Y-85120000D02*
X73508767Y-85120000D01*
X73216233Y-86140000D02*
X73508767Y-86140000D01*
%TO.C,C5*%
X48490000Y-50891233D02*
X48490000Y-51183767D01*
X49510000Y-50891233D02*
X49510000Y-51183767D01*
%TO.C,R16*%
X50657776Y-92107500D02*
X51167224Y-92107500D01*
X50657776Y-93152500D02*
X51167224Y-93152500D01*
%TO.C,R2*%
X54377500Y-93897224D02*
X54377500Y-93387776D01*
X55422500Y-93897224D02*
X55422500Y-93387776D01*
%TO.C,D2*%
X70865000Y-75430000D02*
X70865000Y-77890000D01*
X70865000Y-77890000D02*
X72335000Y-77890000D01*
X72335000Y-77890000D02*
X72335000Y-75430000D01*
%TO.C,FB1*%
X46890000Y-51196267D02*
X46890000Y-50853733D01*
X47910000Y-51196267D02*
X47910000Y-50853733D01*
%TO.C,R5*%
X76907776Y-65607500D02*
X77417224Y-65607500D01*
X76907776Y-66652500D02*
X77417224Y-66652500D01*
%TO.C,C7*%
X102870828Y-93139787D02*
X103860828Y-93139787D01*
X110120828Y-93139787D02*
X111110828Y-93139787D01*
X111110828Y-88619787D02*
X102870828Y-88619787D01*
X111110828Y-93139787D02*
X111110828Y-88619787D01*
%TO.C,U2*%
X52130000Y-66250000D02*
X52130000Y-67100000D01*
X52130000Y-67100000D02*
X53480000Y-67100000D01*
X70530000Y-67100000D02*
X69180000Y-67100000D01*
X70530000Y-67100000D02*
X70530000Y-66250000D01*
X52130000Y-48125000D02*
X51630000Y-48125000D01*
X52130000Y-47625000D01*
X52130000Y-48125000D01*
G36*
X52130000Y-48125000D02*
G01*
X51630000Y-48125000D01*
X52130000Y-47625000D01*
X52130000Y-48125000D01*
G37*
%TO.C,C19*%
X107019561Y-68869787D02*
X107312095Y-68869787D01*
X107019561Y-69889787D02*
X107312095Y-69889787D01*
%TO.C,C8*%
X83860000Y-69242500D02*
X83860000Y-77482500D01*
X83860000Y-77482500D02*
X88380000Y-77482500D01*
X88380000Y-77482500D02*
X88380000Y-69242500D01*
D12*
%TO.C,U3*%
X109518328Y-82062287D02*
X109993328Y-82062287D01*
X109518328Y-82537287D02*
X109518328Y-82062287D01*
X109518328Y-84807287D02*
X109518328Y-84982287D01*
X109993328Y-85282287D02*
X109758328Y-85282287D01*
X112738328Y-82062287D02*
X112263328Y-82062287D01*
X112738328Y-82537287D02*
X112738328Y-82062287D01*
X112738328Y-84807287D02*
X112738328Y-85282287D01*
X112738328Y-85282287D02*
X112263328Y-85282287D01*
X109518328Y-85282287D02*
X109188328Y-85522287D01*
X109188328Y-85042287D01*
X109518328Y-85282287D01*
G36*
X109518328Y-85282287D02*
G01*
X109188328Y-85522287D01*
X109188328Y-85042287D01*
X109518328Y-85282287D01*
G37*
D11*
%TO.C,C15*%
X97220828Y-48469787D02*
X97220828Y-52989787D01*
X97220828Y-52989787D02*
X105460828Y-52989787D01*
X105460828Y-48469787D02*
X97220828Y-48469787D01*
%TO.C,U1*%
X54340000Y-77267500D02*
X54340000Y-76467500D01*
X54340000Y-77267500D02*
X54340000Y-78067500D01*
X57460000Y-77267500D02*
X57460000Y-76467500D01*
X57460000Y-77267500D02*
X57460000Y-78067500D01*
X54300000Y-78567500D02*
X53970000Y-78807500D01*
X53970000Y-78327500D01*
X54300000Y-78567500D01*
G36*
X54300000Y-78567500D02*
G01*
X53970000Y-78807500D01*
X53970000Y-78327500D01*
X54300000Y-78567500D01*
G37*
%TO.C,C26*%
X68168767Y-68240000D02*
X67876233Y-68240000D01*
X68168767Y-69260000D02*
X67876233Y-69260000D01*
%TO.C,R1*%
X45932776Y-70357500D02*
X46442224Y-70357500D01*
X45932776Y-71402500D02*
X46442224Y-71402500D01*
%TO.C,D1*%
X89743328Y-88329787D02*
X89743328Y-91629787D01*
X89743328Y-88329787D02*
X96753328Y-88329787D01*
X89743328Y-91629787D02*
X96753328Y-91629787D01*
%TO.C,R11*%
X71077500Y-79475276D02*
X71077500Y-79984724D01*
X72122500Y-79475276D02*
X72122500Y-79984724D01*
%TO.C,C13*%
X106682061Y-84569787D02*
X106974595Y-84569787D01*
X106682061Y-85589787D02*
X106974595Y-85589787D01*
%TO.C,C17*%
X96118328Y-55121020D02*
X96118328Y-55413554D01*
X97138328Y-55121020D02*
X97138328Y-55413554D01*
%TO.C,C22*%
X109882061Y-70869787D02*
X110174595Y-70869787D01*
X109882061Y-71889787D02*
X110174595Y-71889787D01*
%TO.C,U8*%
X59772000Y-70430000D02*
X59772000Y-70730000D01*
X59772000Y-74730000D02*
X59772000Y-75130000D01*
X59772000Y-75130000D02*
X60172000Y-75130000D01*
X60072000Y-70430000D02*
X59772000Y-70430000D01*
X62572000Y-75130000D02*
X62972000Y-75130000D01*
X62672000Y-70430000D02*
X62972000Y-70430000D01*
X62972000Y-70430000D02*
X62972000Y-70730000D01*
X62972000Y-74730000D02*
X62972000Y-75130000D01*
X60222000Y-74730000D02*
G75*
G02*
X60122000Y-74730000I-50000J0D01*
G01*
X60122000Y-74730000D02*
G75*
G02*
X60222000Y-74730000I50000J0D01*
G01*
%TO.C,C30*%
X52490000Y-75653733D02*
X52490000Y-75946267D01*
X53510000Y-75653733D02*
X53510000Y-75946267D01*
%TO.C,U9*%
X65162500Y-69630000D02*
X65162500Y-69830000D01*
X65162500Y-71630000D02*
X65162500Y-71830000D01*
X65162500Y-71830000D02*
X65362500Y-71830000D01*
X65362500Y-69630000D02*
X65162500Y-69630000D01*
X67162500Y-71830000D02*
X67362500Y-71830000D01*
X67362500Y-71830000D02*
X67362500Y-71630000D01*
X67162500Y-69630000D02*
X67362500Y-69630000D01*
X67362500Y-69830000D01*
X67162500Y-69830000D01*
X67162500Y-69630000D01*
G36*
X67162500Y-69630000D02*
G01*
X67362500Y-69630000D01*
X67362500Y-69830000D01*
X67162500Y-69830000D01*
X67162500Y-69630000D01*
G37*
%TO.C,C10*%
X114437095Y-86290000D02*
X114144561Y-86290000D01*
X114437095Y-87310000D02*
X114144561Y-87310000D01*
%TO.C,R8*%
X62317776Y-68467500D02*
X62827224Y-68467500D01*
X62317776Y-69512500D02*
X62827224Y-69512500D01*
%TO.C,C21*%
X95837095Y-57619787D02*
X95544561Y-57619787D01*
X95837095Y-58639787D02*
X95544561Y-58639787D01*
%TO.C,D3*%
X49265000Y-93845000D02*
X49265000Y-95315000D01*
X49265000Y-95315000D02*
X51725000Y-95315000D01*
X51725000Y-93845000D02*
X49265000Y-93845000D01*
%TO.C,C12*%
X85949561Y-78090000D02*
X86242095Y-78090000D01*
X85949561Y-79110000D02*
X86242095Y-79110000D01*
%TO.C,C29*%
X63590000Y-73718767D02*
X63590000Y-73426233D01*
X64610000Y-73718767D02*
X64610000Y-73426233D01*
%TO.C,C11*%
X90312095Y-77919787D02*
X90019561Y-77919787D01*
X90312095Y-78939787D02*
X90019561Y-78939787D01*
%TO.C,J4*%
X76120000Y-48120000D02*
X77500000Y-48120000D01*
X76120000Y-49500000D02*
X76120000Y-48120000D01*
X76120000Y-50770000D02*
X76120000Y-61040000D01*
X76120000Y-50770000D02*
X78880000Y-50770000D01*
X76120000Y-61040000D02*
X78880000Y-61040000D01*
X78880000Y-50770000D02*
X78880000Y-61040000D01*
%TO.C,C3*%
X77016233Y-67620000D02*
X77308767Y-67620000D01*
X77016233Y-68640000D02*
X77308767Y-68640000D01*
%TO.C,C28*%
X58110000Y-72021233D02*
X58110000Y-72313767D01*
X59130000Y-72021233D02*
X59130000Y-72313767D01*
%TD*%
M02*
