%TF.GenerationSoftware,KiCad,Pcbnew,9.0.4*%
%TF.CreationDate,2026-03-14T23:33:22+02:00*%
%TF.ProjectId,PCBv2Drona,50434276-3244-4726-9f6e-612e6b696361,rev?*%
%TF.SameCoordinates,Original*%
%TF.FileFunction,Legend,Bot*%
%TF.FilePolarity,Positive*%
%FSLAX46Y46*%
G04 Gerber Fmt 4.6, Leading zero omitted, Abs format (unit mm)*
G04 Created by KiCad (PCBNEW 9.0.4) date 2026-03-14 23:33:22*
%MOMM*%
%LPD*%
G01*
G04 APERTURE LIST*
%ADD10C,0.300000*%
G04 APERTURE END LIST*
D10*
X97870996Y-63611653D02*
X97156710Y-63111653D01*
X97870996Y-62754510D02*
X96370996Y-62754510D01*
X96370996Y-62754510D02*
X96370996Y-63325939D01*
X96370996Y-63325939D02*
X96442425Y-63468796D01*
X96442425Y-63468796D02*
X96513853Y-63540225D01*
X96513853Y-63540225D02*
X96656710Y-63611653D01*
X96656710Y-63611653D02*
X96870996Y-63611653D01*
X96870996Y-63611653D02*
X97013853Y-63540225D01*
X97013853Y-63540225D02*
X97085282Y-63468796D01*
X97085282Y-63468796D02*
X97156710Y-63325939D01*
X97156710Y-63325939D02*
X97156710Y-62754510D01*
X97799568Y-64825939D02*
X97870996Y-64683082D01*
X97870996Y-64683082D02*
X97870996Y-64397368D01*
X97870996Y-64397368D02*
X97799568Y-64254510D01*
X97799568Y-64254510D02*
X97656710Y-64183082D01*
X97656710Y-64183082D02*
X97085282Y-64183082D01*
X97085282Y-64183082D02*
X96942425Y-64254510D01*
X96942425Y-64254510D02*
X96870996Y-64397368D01*
X96870996Y-64397368D02*
X96870996Y-64683082D01*
X96870996Y-64683082D02*
X96942425Y-64825939D01*
X96942425Y-64825939D02*
X97085282Y-64897368D01*
X97085282Y-64897368D02*
X97228139Y-64897368D01*
X97228139Y-64897368D02*
X97370996Y-64183082D01*
X97870996Y-66183082D02*
X97085282Y-66183082D01*
X97085282Y-66183082D02*
X96942425Y-66111653D01*
X96942425Y-66111653D02*
X96870996Y-65968796D01*
X96870996Y-65968796D02*
X96870996Y-65683082D01*
X96870996Y-65683082D02*
X96942425Y-65540224D01*
X97799568Y-66183082D02*
X97870996Y-66040224D01*
X97870996Y-66040224D02*
X97870996Y-65683082D01*
X97870996Y-65683082D02*
X97799568Y-65540224D01*
X97799568Y-65540224D02*
X97656710Y-65468796D01*
X97656710Y-65468796D02*
X97513853Y-65468796D01*
X97513853Y-65468796D02*
X97370996Y-65540224D01*
X97370996Y-65540224D02*
X97299568Y-65683082D01*
X97299568Y-65683082D02*
X97299568Y-66040224D01*
X97299568Y-66040224D02*
X97228139Y-66183082D01*
X97870996Y-67111653D02*
X97799568Y-66968796D01*
X97799568Y-66968796D02*
X97656710Y-66897367D01*
X97656710Y-66897367D02*
X96370996Y-66897367D01*
X97870996Y-67683081D02*
X96870996Y-67683081D01*
X96370996Y-67683081D02*
X96442425Y-67611653D01*
X96442425Y-67611653D02*
X96513853Y-67683081D01*
X96513853Y-67683081D02*
X96442425Y-67754510D01*
X96442425Y-67754510D02*
X96370996Y-67683081D01*
X96370996Y-67683081D02*
X96513853Y-67683081D01*
X96870996Y-68254510D02*
X96870996Y-69040225D01*
X96870996Y-69040225D02*
X97870996Y-68254510D01*
X97870996Y-68254510D02*
X97870996Y-69040225D01*
X97870996Y-70254511D02*
X97085282Y-70254511D01*
X97085282Y-70254511D02*
X96942425Y-70183082D01*
X96942425Y-70183082D02*
X96870996Y-70040225D01*
X96870996Y-70040225D02*
X96870996Y-69754511D01*
X96870996Y-69754511D02*
X96942425Y-69611653D01*
X97799568Y-70254511D02*
X97870996Y-70111653D01*
X97870996Y-70111653D02*
X97870996Y-69754511D01*
X97870996Y-69754511D02*
X97799568Y-69611653D01*
X97799568Y-69611653D02*
X97656710Y-69540225D01*
X97656710Y-69540225D02*
X97513853Y-69540225D01*
X97513853Y-69540225D02*
X97370996Y-69611653D01*
X97370996Y-69611653D02*
X97299568Y-69754511D01*
X97299568Y-69754511D02*
X97299568Y-70111653D01*
X97299568Y-70111653D02*
X97228139Y-70254511D01*
X96870996Y-70754511D02*
X96870996Y-71325939D01*
X96370996Y-70968796D02*
X97656710Y-70968796D01*
X97656710Y-70968796D02*
X97799568Y-71040225D01*
X97799568Y-71040225D02*
X97870996Y-71183082D01*
X97870996Y-71183082D02*
X97870996Y-71325939D01*
X97870996Y-73611654D02*
X96370996Y-73611654D01*
X97799568Y-73611654D02*
X97870996Y-73468796D01*
X97870996Y-73468796D02*
X97870996Y-73183082D01*
X97870996Y-73183082D02*
X97799568Y-73040225D01*
X97799568Y-73040225D02*
X97728139Y-72968796D01*
X97728139Y-72968796D02*
X97585282Y-72897368D01*
X97585282Y-72897368D02*
X97156710Y-72897368D01*
X97156710Y-72897368D02*
X97013853Y-72968796D01*
X97013853Y-72968796D02*
X96942425Y-73040225D01*
X96942425Y-73040225D02*
X96870996Y-73183082D01*
X96870996Y-73183082D02*
X96870996Y-73468796D01*
X96870996Y-73468796D02*
X96942425Y-73611654D01*
X97799568Y-74897368D02*
X97870996Y-74754511D01*
X97870996Y-74754511D02*
X97870996Y-74468797D01*
X97870996Y-74468797D02*
X97799568Y-74325939D01*
X97799568Y-74325939D02*
X97656710Y-74254511D01*
X97656710Y-74254511D02*
X97085282Y-74254511D01*
X97085282Y-74254511D02*
X96942425Y-74325939D01*
X96942425Y-74325939D02*
X96870996Y-74468797D01*
X96870996Y-74468797D02*
X96870996Y-74754511D01*
X96870996Y-74754511D02*
X96942425Y-74897368D01*
X96942425Y-74897368D02*
X97085282Y-74968797D01*
X97085282Y-74968797D02*
X97228139Y-74968797D01*
X97228139Y-74968797D02*
X97370996Y-74254511D01*
X97728139Y-75611653D02*
X97799568Y-75683082D01*
X97799568Y-75683082D02*
X97870996Y-75611653D01*
X97870996Y-75611653D02*
X97799568Y-75540225D01*
X97799568Y-75540225D02*
X97728139Y-75611653D01*
X97728139Y-75611653D02*
X97870996Y-75611653D01*
X96942425Y-75611653D02*
X97013853Y-75683082D01*
X97013853Y-75683082D02*
X97085282Y-75611653D01*
X97085282Y-75611653D02*
X97013853Y-75540225D01*
X97013853Y-75540225D02*
X96942425Y-75611653D01*
X96942425Y-75611653D02*
X97085282Y-75611653D01*
X98857341Y-63540225D02*
X98785912Y-63397368D01*
X98785912Y-63397368D02*
X98785912Y-63183082D01*
X98785912Y-63183082D02*
X98857341Y-62968796D01*
X98857341Y-62968796D02*
X99000198Y-62825939D01*
X99000198Y-62825939D02*
X99143055Y-62754510D01*
X99143055Y-62754510D02*
X99428769Y-62683082D01*
X99428769Y-62683082D02*
X99643055Y-62683082D01*
X99643055Y-62683082D02*
X99928769Y-62754510D01*
X99928769Y-62754510D02*
X100071626Y-62825939D01*
X100071626Y-62825939D02*
X100214484Y-62968796D01*
X100214484Y-62968796D02*
X100285912Y-63183082D01*
X100285912Y-63183082D02*
X100285912Y-63325939D01*
X100285912Y-63325939D02*
X100214484Y-63540225D01*
X100214484Y-63540225D02*
X100143055Y-63611653D01*
X100143055Y-63611653D02*
X99643055Y-63611653D01*
X99643055Y-63611653D02*
X99643055Y-63325939D01*
X100285912Y-64254510D02*
X99285912Y-64254510D01*
X99571626Y-64254510D02*
X99428769Y-64325939D01*
X99428769Y-64325939D02*
X99357341Y-64397368D01*
X99357341Y-64397368D02*
X99285912Y-64540225D01*
X99285912Y-64540225D02*
X99285912Y-64683082D01*
X100285912Y-65397367D02*
X100214484Y-65254510D01*
X100214484Y-65254510D02*
X100143055Y-65183081D01*
X100143055Y-65183081D02*
X100000198Y-65111653D01*
X100000198Y-65111653D02*
X99571626Y-65111653D01*
X99571626Y-65111653D02*
X99428769Y-65183081D01*
X99428769Y-65183081D02*
X99357341Y-65254510D01*
X99357341Y-65254510D02*
X99285912Y-65397367D01*
X99285912Y-65397367D02*
X99285912Y-65611653D01*
X99285912Y-65611653D02*
X99357341Y-65754510D01*
X99357341Y-65754510D02*
X99428769Y-65825939D01*
X99428769Y-65825939D02*
X99571626Y-65897367D01*
X99571626Y-65897367D02*
X100000198Y-65897367D01*
X100000198Y-65897367D02*
X100143055Y-65825939D01*
X100143055Y-65825939D02*
X100214484Y-65754510D01*
X100214484Y-65754510D02*
X100285912Y-65611653D01*
X100285912Y-65611653D02*
X100285912Y-65397367D01*
X99285912Y-66397367D02*
X99285912Y-67183082D01*
X99285912Y-67183082D02*
X100285912Y-66397367D01*
X100285912Y-66397367D02*
X100285912Y-67183082D01*
X100285912Y-68397368D02*
X99500198Y-68397368D01*
X99500198Y-68397368D02*
X99357341Y-68325939D01*
X99357341Y-68325939D02*
X99285912Y-68183082D01*
X99285912Y-68183082D02*
X99285912Y-67897368D01*
X99285912Y-67897368D02*
X99357341Y-67754510D01*
X100214484Y-68397368D02*
X100285912Y-68254510D01*
X100285912Y-68254510D02*
X100285912Y-67897368D01*
X100285912Y-67897368D02*
X100214484Y-67754510D01*
X100214484Y-67754510D02*
X100071626Y-67683082D01*
X100071626Y-67683082D02*
X99928769Y-67683082D01*
X99928769Y-67683082D02*
X99785912Y-67754510D01*
X99785912Y-67754510D02*
X99714484Y-67897368D01*
X99714484Y-67897368D02*
X99714484Y-68254510D01*
X99714484Y-68254510D02*
X99643055Y-68397368D01*
X100285912Y-70254510D02*
X98785912Y-70254510D01*
X98785912Y-70254510D02*
X99857341Y-70754510D01*
X99857341Y-70754510D02*
X98785912Y-71254510D01*
X98785912Y-71254510D02*
X100285912Y-71254510D01*
X100285912Y-71968796D02*
X99285912Y-71968796D01*
X98785912Y-71968796D02*
X98857341Y-71897368D01*
X98857341Y-71897368D02*
X98928769Y-71968796D01*
X98928769Y-71968796D02*
X98857341Y-72040225D01*
X98857341Y-72040225D02*
X98785912Y-71968796D01*
X98785912Y-71968796D02*
X98928769Y-71968796D01*
X100285912Y-72683082D02*
X98785912Y-72683082D01*
X100285912Y-73325940D02*
X99500198Y-73325940D01*
X99500198Y-73325940D02*
X99357341Y-73254511D01*
X99357341Y-73254511D02*
X99285912Y-73111654D01*
X99285912Y-73111654D02*
X99285912Y-72897368D01*
X99285912Y-72897368D02*
X99357341Y-72754511D01*
X99357341Y-72754511D02*
X99428769Y-72683082D01*
X100285912Y-74683083D02*
X99500198Y-74683083D01*
X99500198Y-74683083D02*
X99357341Y-74611654D01*
X99357341Y-74611654D02*
X99285912Y-74468797D01*
X99285912Y-74468797D02*
X99285912Y-74183083D01*
X99285912Y-74183083D02*
X99357341Y-74040225D01*
X100214484Y-74683083D02*
X100285912Y-74540225D01*
X100285912Y-74540225D02*
X100285912Y-74183083D01*
X100285912Y-74183083D02*
X100214484Y-74040225D01*
X100214484Y-74040225D02*
X100071626Y-73968797D01*
X100071626Y-73968797D02*
X99928769Y-73968797D01*
X99928769Y-73968797D02*
X99785912Y-74040225D01*
X99785912Y-74040225D02*
X99714484Y-74183083D01*
X99714484Y-74183083D02*
X99714484Y-74540225D01*
X99714484Y-74540225D02*
X99643055Y-74683083D01*
X100285912Y-75397368D02*
X99285912Y-75397368D01*
X98785912Y-75397368D02*
X98857341Y-75325940D01*
X98857341Y-75325940D02*
X98928769Y-75397368D01*
X98928769Y-75397368D02*
X98857341Y-75468797D01*
X98857341Y-75468797D02*
X98785912Y-75397368D01*
X98785912Y-75397368D02*
X98928769Y-75397368D01*
X100285912Y-78111654D02*
X99571626Y-77611654D01*
X100285912Y-77254511D02*
X98785912Y-77254511D01*
X98785912Y-77254511D02*
X98785912Y-77825940D01*
X98785912Y-77825940D02*
X98857341Y-77968797D01*
X98857341Y-77968797D02*
X98928769Y-78040226D01*
X98928769Y-78040226D02*
X99071626Y-78111654D01*
X99071626Y-78111654D02*
X99285912Y-78111654D01*
X99285912Y-78111654D02*
X99428769Y-78040226D01*
X99428769Y-78040226D02*
X99500198Y-77968797D01*
X99500198Y-77968797D02*
X99571626Y-77825940D01*
X99571626Y-77825940D02*
X99571626Y-77254511D01*
X100285912Y-78968797D02*
X100214484Y-78825940D01*
X100214484Y-78825940D02*
X100143055Y-78754511D01*
X100143055Y-78754511D02*
X100000198Y-78683083D01*
X100000198Y-78683083D02*
X99571626Y-78683083D01*
X99571626Y-78683083D02*
X99428769Y-78754511D01*
X99428769Y-78754511D02*
X99357341Y-78825940D01*
X99357341Y-78825940D02*
X99285912Y-78968797D01*
X99285912Y-78968797D02*
X99285912Y-79183083D01*
X99285912Y-79183083D02*
X99357341Y-79325940D01*
X99357341Y-79325940D02*
X99428769Y-79397369D01*
X99428769Y-79397369D02*
X99571626Y-79468797D01*
X99571626Y-79468797D02*
X100000198Y-79468797D01*
X100000198Y-79468797D02*
X100143055Y-79397369D01*
X100143055Y-79397369D02*
X100214484Y-79325940D01*
X100214484Y-79325940D02*
X100285912Y-79183083D01*
X100285912Y-79183083D02*
X100285912Y-78968797D01*
X100285912Y-80325940D02*
X100214484Y-80183083D01*
X100214484Y-80183083D02*
X100071626Y-80111654D01*
X100071626Y-80111654D02*
X98785912Y-80111654D01*
X100285912Y-81540226D02*
X99500198Y-81540226D01*
X99500198Y-81540226D02*
X99357341Y-81468797D01*
X99357341Y-81468797D02*
X99285912Y-81325940D01*
X99285912Y-81325940D02*
X99285912Y-81040226D01*
X99285912Y-81040226D02*
X99357341Y-80897368D01*
X100214484Y-81540226D02*
X100285912Y-81397368D01*
X100285912Y-81397368D02*
X100285912Y-81040226D01*
X100285912Y-81040226D02*
X100214484Y-80897368D01*
X100214484Y-80897368D02*
X100071626Y-80825940D01*
X100071626Y-80825940D02*
X99928769Y-80825940D01*
X99928769Y-80825940D02*
X99785912Y-80897368D01*
X99785912Y-80897368D02*
X99714484Y-81040226D01*
X99714484Y-81040226D02*
X99714484Y-81397368D01*
X99714484Y-81397368D02*
X99643055Y-81540226D01*
X99285912Y-82254511D02*
X100285912Y-82254511D01*
X99428769Y-82254511D02*
X99357341Y-82325940D01*
X99357341Y-82325940D02*
X99285912Y-82468797D01*
X99285912Y-82468797D02*
X99285912Y-82683083D01*
X99285912Y-82683083D02*
X99357341Y-82825940D01*
X99357341Y-82825940D02*
X99500198Y-82897369D01*
X99500198Y-82897369D02*
X100285912Y-82897369D01*
X100285912Y-84254512D02*
X98785912Y-84254512D01*
X100214484Y-84254512D02*
X100285912Y-84111654D01*
X100285912Y-84111654D02*
X100285912Y-83825940D01*
X100285912Y-83825940D02*
X100214484Y-83683083D01*
X100214484Y-83683083D02*
X100143055Y-83611654D01*
X100143055Y-83611654D02*
X100000198Y-83540226D01*
X100000198Y-83540226D02*
X99571626Y-83540226D01*
X99571626Y-83540226D02*
X99428769Y-83611654D01*
X99428769Y-83611654D02*
X99357341Y-83683083D01*
X99357341Y-83683083D02*
X99285912Y-83825940D01*
X99285912Y-83825940D02*
X99285912Y-84111654D01*
X99285912Y-84111654D02*
X99357341Y-84254512D01*
X102629400Y-62683082D02*
X102700828Y-62897368D01*
X102700828Y-62897368D02*
X102700828Y-63254510D01*
X102700828Y-63254510D02*
X102629400Y-63397368D01*
X102629400Y-63397368D02*
X102557971Y-63468796D01*
X102557971Y-63468796D02*
X102415114Y-63540225D01*
X102415114Y-63540225D02*
X102272257Y-63540225D01*
X102272257Y-63540225D02*
X102129400Y-63468796D01*
X102129400Y-63468796D02*
X102057971Y-63397368D01*
X102057971Y-63397368D02*
X101986542Y-63254510D01*
X101986542Y-63254510D02*
X101915114Y-62968796D01*
X101915114Y-62968796D02*
X101843685Y-62825939D01*
X101843685Y-62825939D02*
X101772257Y-62754510D01*
X101772257Y-62754510D02*
X101629400Y-62683082D01*
X101629400Y-62683082D02*
X101486542Y-62683082D01*
X101486542Y-62683082D02*
X101343685Y-62754510D01*
X101343685Y-62754510D02*
X101272257Y-62825939D01*
X101272257Y-62825939D02*
X101200828Y-62968796D01*
X101200828Y-62968796D02*
X101200828Y-63325939D01*
X101200828Y-63325939D02*
X101272257Y-63540225D01*
X101700828Y-63968796D02*
X101700828Y-64540224D01*
X101200828Y-64183081D02*
X102486542Y-64183081D01*
X102486542Y-64183081D02*
X102629400Y-64254510D01*
X102629400Y-64254510D02*
X102700828Y-64397367D01*
X102700828Y-64397367D02*
X102700828Y-64540224D01*
X102629400Y-65611653D02*
X102700828Y-65468796D01*
X102700828Y-65468796D02*
X102700828Y-65183082D01*
X102700828Y-65183082D02*
X102629400Y-65040224D01*
X102629400Y-65040224D02*
X102486542Y-64968796D01*
X102486542Y-64968796D02*
X101915114Y-64968796D01*
X101915114Y-64968796D02*
X101772257Y-65040224D01*
X101772257Y-65040224D02*
X101700828Y-65183082D01*
X101700828Y-65183082D02*
X101700828Y-65468796D01*
X101700828Y-65468796D02*
X101772257Y-65611653D01*
X101772257Y-65611653D02*
X101915114Y-65683082D01*
X101915114Y-65683082D02*
X102057971Y-65683082D01*
X102057971Y-65683082D02*
X102200828Y-64968796D01*
X101700828Y-66111653D02*
X101700828Y-66683081D01*
X102700828Y-66325938D02*
X101415114Y-66325938D01*
X101415114Y-66325938D02*
X101272257Y-66397367D01*
X101272257Y-66397367D02*
X101200828Y-66540224D01*
X101200828Y-66540224D02*
X101200828Y-66683081D01*
X102700828Y-67825939D02*
X101915114Y-67825939D01*
X101915114Y-67825939D02*
X101772257Y-67754510D01*
X101772257Y-67754510D02*
X101700828Y-67611653D01*
X101700828Y-67611653D02*
X101700828Y-67325939D01*
X101700828Y-67325939D02*
X101772257Y-67183081D01*
X102629400Y-67825939D02*
X102700828Y-67683081D01*
X102700828Y-67683081D02*
X102700828Y-67325939D01*
X102700828Y-67325939D02*
X102629400Y-67183081D01*
X102629400Y-67183081D02*
X102486542Y-67111653D01*
X102486542Y-67111653D02*
X102343685Y-67111653D01*
X102343685Y-67111653D02*
X102200828Y-67183081D01*
X102200828Y-67183081D02*
X102129400Y-67325939D01*
X102129400Y-67325939D02*
X102129400Y-67683081D01*
X102129400Y-67683081D02*
X102057971Y-67825939D01*
X101700828Y-68540224D02*
X102700828Y-68540224D01*
X101843685Y-68540224D02*
X101772257Y-68611653D01*
X101772257Y-68611653D02*
X101700828Y-68754510D01*
X101700828Y-68754510D02*
X101700828Y-68968796D01*
X101700828Y-68968796D02*
X101772257Y-69111653D01*
X101772257Y-69111653D02*
X101915114Y-69183082D01*
X101915114Y-69183082D02*
X102700828Y-69183082D01*
X102700828Y-71040224D02*
X101200828Y-71040224D01*
X101200828Y-71040224D02*
X101200828Y-71397367D01*
X101200828Y-71397367D02*
X101272257Y-71611653D01*
X101272257Y-71611653D02*
X101415114Y-71754510D01*
X101415114Y-71754510D02*
X101557971Y-71825939D01*
X101557971Y-71825939D02*
X101843685Y-71897367D01*
X101843685Y-71897367D02*
X102057971Y-71897367D01*
X102057971Y-71897367D02*
X102343685Y-71825939D01*
X102343685Y-71825939D02*
X102486542Y-71754510D01*
X102486542Y-71754510D02*
X102629400Y-71611653D01*
X102629400Y-71611653D02*
X102700828Y-71397367D01*
X102700828Y-71397367D02*
X102700828Y-71040224D01*
X101700828Y-73183082D02*
X102700828Y-73183082D01*
X101700828Y-72540224D02*
X102486542Y-72540224D01*
X102486542Y-72540224D02*
X102629400Y-72611653D01*
X102629400Y-72611653D02*
X102700828Y-72754510D01*
X102700828Y-72754510D02*
X102700828Y-72968796D01*
X102700828Y-72968796D02*
X102629400Y-73111653D01*
X102629400Y-73111653D02*
X102557971Y-73183082D01*
X102700828Y-73897367D02*
X101700828Y-73897367D01*
X101843685Y-73897367D02*
X101772257Y-73968796D01*
X101772257Y-73968796D02*
X101700828Y-74111653D01*
X101700828Y-74111653D02*
X101700828Y-74325939D01*
X101700828Y-74325939D02*
X101772257Y-74468796D01*
X101772257Y-74468796D02*
X101915114Y-74540225D01*
X101915114Y-74540225D02*
X102700828Y-74540225D01*
X101915114Y-74540225D02*
X101772257Y-74611653D01*
X101772257Y-74611653D02*
X101700828Y-74754510D01*
X101700828Y-74754510D02*
X101700828Y-74968796D01*
X101700828Y-74968796D02*
X101772257Y-75111653D01*
X101772257Y-75111653D02*
X101915114Y-75183082D01*
X101915114Y-75183082D02*
X102700828Y-75183082D01*
X102700828Y-75897367D02*
X101700828Y-75897367D01*
X101200828Y-75897367D02*
X101272257Y-75825939D01*
X101272257Y-75825939D02*
X101343685Y-75897367D01*
X101343685Y-75897367D02*
X101272257Y-75968796D01*
X101272257Y-75968796D02*
X101200828Y-75897367D01*
X101200828Y-75897367D02*
X101343685Y-75897367D01*
X101700828Y-76397368D02*
X101700828Y-76968796D01*
X101200828Y-76611653D02*
X102486542Y-76611653D01*
X102486542Y-76611653D02*
X102629400Y-76683082D01*
X102629400Y-76683082D02*
X102700828Y-76825939D01*
X102700828Y-76825939D02*
X102700828Y-76968796D01*
X102700828Y-77468796D02*
X101700828Y-77468796D01*
X101986542Y-77468796D02*
X101843685Y-77540225D01*
X101843685Y-77540225D02*
X101772257Y-77611654D01*
X101772257Y-77611654D02*
X101700828Y-77754511D01*
X101700828Y-77754511D02*
X101700828Y-77897368D01*
X101700828Y-79040225D02*
X102700828Y-79040225D01*
X101700828Y-78397367D02*
X102486542Y-78397367D01*
X102486542Y-78397367D02*
X102629400Y-78468796D01*
X102629400Y-78468796D02*
X102700828Y-78611653D01*
X102700828Y-78611653D02*
X102700828Y-78825939D01*
X102700828Y-78825939D02*
X102629400Y-78968796D01*
X102629400Y-78968796D02*
X102557971Y-79040225D01*
M02*
