M48
; DRILL file {KiCad 9.0.4} date 2026-03-14T23:33:23+0200
; FORMAT={-:-/ absolute / metric / decimal}
; #@! TF.CreationDate,2026-03-14T23:33:23+02:00
; #@! TF.GenerationSoftware,Kicad,Pcbnew,9.0.4
; #@! TF.FileFunction,Plated,1,4,PTH
FMAT,2
METRIC
; #@! TA.AperFunction,Plated,PTH,ComponentDrill
T1C0.200
; #@! TA.AperFunction,Plated,PTH,ViaDrill
T2C0.300
; #@! TA.AperFunction,Plated,PTH,ComponentDrill
T3C0.300
; #@! TA.AperFunction,Plated,PTH,ViaDrill
T4C0.400
; #@! TA.AperFunction,Plated,PTH,ViaDrill
T5C0.800
; #@! TA.AperFunction,Plated,PTH,ComponentDrill
T6C0.810
; #@! TA.AperFunction,Plated,PTH,ComponentDrill
T7C1.000
; #@! TA.AperFunction,Plated,PTH,ComponentDrill
T8C2.200
; #@! TA.AperFunction,Plated,PTH,ComponentDrill
T9C3.200
%
G90
G05
T1
X58.43Y-55.91
X58.43Y-57.31
X59.13Y-55.21
X59.13Y-56.61
X59.13Y-58.01
X59.83Y-55.91
X59.83Y-57.31
X60.53Y-55.21
X60.53Y-56.61
X60.53Y-58.01
X61.23Y-55.91
X61.23Y-57.31
T2
X47.1Y-69.73
X54.1Y-51.43
X58.2Y-65.23
X61.2Y-73.18
X61.25Y-72.108
X64.8Y-70.13
X66.3Y-70.73
X68.6Y-63.93
X71.6Y-74.13
X74.2Y-89.83
X75.2Y-68.13
X75.5Y-83.88
X78.1Y-63.13
X84.478Y-72.38
X84.478Y-73.78
X85.878Y-72.38
X85.878Y-73.78
X87.228Y-72.38
X87.228Y-73.83
X87.328Y-61.78
X87.328Y-63.9
X88.978Y-58.48
X89.028Y-64.23
X89.028Y-84.13
X90.128Y-55.58
X90.328Y-84.18
X90.678Y-54.58
X91.578Y-77.12
X91.828Y-57.33
X92.328Y-61.08
X92.578Y-81.48
X93.427Y-57.528
X93.578Y-81.48
X94.028Y-58.978
X96.628Y-59.68
X100.428Y-49.28
X100.428Y-50.53
X100.428Y-51.73
X101.678Y-49.28
X101.678Y-50.53
X101.678Y-51.78
X106.353Y-81.605
X107.4Y-83.4
X107.928Y-66.18
X108.678Y-67.73
X110.128Y-65.68
X110.678Y-81.33
X111.528Y-81.33
X112.378Y-74.08
X112.378Y-75.38
X112.378Y-76.73
X113.828Y-74.08
X113.828Y-75.38
X113.828Y-76.73
T3
X75.15Y-87.68
X75.15Y-88.68
X89.278Y-81.272
X89.278Y-82.272
X90.278Y-81.272
X90.278Y-82.272
X92.718Y-54.33
X92.718Y-55.33
X93.718Y-54.33
X93.718Y-55.33
X110.628Y-83.172
X110.628Y-84.172
X110.938Y-67.54
X110.938Y-68.54
X111.628Y-83.172
X111.628Y-84.172
X111.938Y-67.54
X111.938Y-68.54
T4
X44.05Y-72.68
X44.7Y-51.4
X44.7Y-52.4
X44.85Y-81.9
X45.3Y-49.1
X45.3Y-69.83
X46.4Y-49.1
X48.4Y-53.1
X49.55Y-53.1
X50.7Y-53.1
X51.75Y-91.58
X52.8Y-94.6
X53.0Y-78.0
X53.85Y-92.73
X53.9Y-48.88
X53.9Y-73.8
X55.35Y-96.23
X55.9Y-74.8
X55.9Y-79.6
X56.8Y-69.03
X57.4Y-71.33
X57.6Y-90.13
X58.6Y-74.13
X59.6Y-77.98
X59.8Y-89.33
X61.3Y-76.03
X62.2Y-89.33
X63.8Y-76.03
X64.6Y-68.33
X65.1Y-74.43
X65.12Y-72.71
X66.8Y-89.33
X67.25Y-96.18
X68.3Y-76.93
X68.5Y-71.83
X68.6Y-48.88
X69.25Y-92.38
X69.4Y-83.8
X69.4Y-85.5
X69.95Y-68.73
X70.5Y-80.63
X71.0Y-83.8
X71.0Y-85.5
X71.2Y-70.48
X73.6Y-48.33
X73.6Y-54.03
X73.9Y-79.7
X75.3Y-86.43
X75.7Y-71.7
X76.1Y-91.0
X77.5Y-91.0
X78.05Y-69.23
X79.2Y-66.1
X83.9Y-78.6
X85.528Y-89.63
X85.528Y-91.13
X85.528Y-92.63
X85.528Y-94.13
X85.528Y-95.63
X87.028Y-89.63
X87.028Y-91.13
X87.028Y-92.63
X87.028Y-94.13
X87.028Y-95.63
X88.528Y-89.63
X88.528Y-91.13
X88.528Y-92.63
X88.528Y-94.13
X88.528Y-95.63
X89.78Y-77.08
X94.228Y-78.33
X94.228Y-80.03
X95.728Y-48.73
X97.628Y-54.43
X97.678Y-56.08
X97.678Y-58.13
X99.528Y-89.63
X99.528Y-91.13
X99.528Y-92.63
X99.528Y-94.13
X99.528Y-95.63
X101.028Y-89.63
X101.028Y-91.13
X101.028Y-92.63
X101.028Y-94.13
X101.028Y-95.63
X102.528Y-94.13
X102.528Y-95.63
X104.028Y-94.13
X104.028Y-95.63
X104.778Y-85.08
X105.078Y-69.38
X105.528Y-89.63
X105.528Y-91.13
X105.528Y-92.63
X105.528Y-94.13
X105.528Y-95.63
X107.078Y-86.13
X107.478Y-68.38
X107.728Y-92.98
X107.728Y-94.73
X107.778Y-89.98
X107.778Y-91.43
X108.028Y-71.33
X108.428Y-87.98
X109.378Y-92.98
X109.378Y-94.73
X109.578Y-85.93
X110.278Y-72.48
X116.287Y-86.85
X117.678Y-72.13
T5
X74.1Y-59.8
X77.6Y-86.5
X86.1Y-67.7
X106.978Y-75.18
X107.128Y-50.73
T7
X45.0Y-55.6
X45.0Y-58.14
X45.0Y-60.68
X45.0Y-63.22
X45.0Y-65.76
X77.5Y-49.5
X77.5Y-52.04
X77.5Y-54.58
X77.5Y-57.12
X77.5Y-59.66
X84.07Y-55.61
X84.07Y-58.15
X84.07Y-60.69
X84.07Y-63.23
X84.07Y-65.77
X84.2Y-82.58
X84.2Y-85.58
X88.628Y-49.2
X91.628Y-49.2
X116.528Y-49.63
X116.528Y-52.17
X116.528Y-54.71
X116.528Y-57.25
X116.528Y-59.79
X116.8Y-64.6
X116.8Y-67.6
X116.8Y-80.03
X116.8Y-83.03
T8
X75.5Y-93.5
T9
X114.528Y-93.63
T6
G00X57.13Y-91.505
M15
G01X57.13Y-92.595
M16
G05
G00X57.13Y-95.685
M15
G01X57.13Y-96.775
M16
G05
G00X65.77Y-91.505
M15
G01X65.77Y-92.595
M16
G05
G00X65.77Y-95.685
M15
G01X65.77Y-96.775
M16
G05
M30
