%TF.GenerationSoftware,KiCad,Pcbnew,9.0.4*%
%TF.CreationDate,2026-03-14T23:33:21+02:00*%
%TF.ProjectId,PCBv2Drona,50434276-3244-4726-9f6e-612e6b696361,rev?*%
%TF.SameCoordinates,Original*%
%TF.FileFunction,Copper,L4,Bot*%
%TF.FilePolarity,Positive*%
%FSLAX46Y46*%
G04 Gerber Fmt 4.6, Leading zero omitted, Abs format (unit mm)*
G04 Created by KiCad (PCBNEW 9.0.4) date 2026-03-14 23:33:21*
%MOMM*%
%LPD*%
G01*
G04 APERTURE LIST*
G04 Aperture macros list*
%AMRoundRect*
0 Rectangle with rounded corners*
0 $1 Rounding radius*
0 $2 $3 $4 $5 $6 $7 $8 $9 X,Y pos of 4 corners*
0 Add a 4 corners polygon primitive as box body*
4,1,4,$2,$3,$4,$5,$6,$7,$8,$9,$2,$3,0*
0 Add four circle primitives for the rounded corners*
1,1,$1+$1,$2,$3*
1,1,$1+$1,$4,$5*
1,1,$1+$1,$6,$7*
1,1,$1+$1,$8,$9*
0 Add four rect primitives between the rounded corners*
20,1,$1+$1,$2,$3,$4,$5,0*
20,1,$1+$1,$4,$5,$6,$7,0*
20,1,$1+$1,$6,$7,$8,$9,0*
20,1,$1+$1,$8,$9,$2,$3,0*%
G04 Aperture macros list end*
%TA.AperFunction,HeatsinkPad*%
%ADD10C,0.600000*%
%TD*%
%TA.AperFunction,HeatsinkPad*%
%ADD11R,1.680000X1.680000*%
%TD*%
%TA.AperFunction,ComponentPad*%
%ADD12R,1.700000X1.700000*%
%TD*%
%TA.AperFunction,ComponentPad*%
%ADD13C,1.700000*%
%TD*%
%TA.AperFunction,ComponentPad*%
%ADD14R,2.000000X2.000000*%
%TD*%
%TA.AperFunction,ComponentPad*%
%ADD15RoundRect,0.400000X0.600000X0.600000X-0.600000X0.600000X-0.600000X-0.600000X0.600000X-0.600000X0*%
%TD*%
%TA.AperFunction,SMDPad,CuDef*%
%ADD16R,0.900000X1.600000*%
%TD*%
%TA.AperFunction,ComponentPad*%
%ADD17RoundRect,0.400000X0.600000X-0.600000X0.600000X0.600000X-0.600000X0.600000X-0.600000X-0.600000X0*%
%TD*%
%TA.AperFunction,HeatsinkPad*%
%ADD18O,1.200000X2.300000*%
%TD*%
%TA.AperFunction,ComponentPad*%
%ADD19RoundRect,0.400000X-0.600000X0.600000X-0.600000X-0.600000X0.600000X-0.600000X0.600000X0.600000X0*%
%TD*%
%TA.AperFunction,ViaPad*%
%ADD20C,0.800000*%
%TD*%
%TA.AperFunction,ViaPad*%
%ADD21C,0.600000*%
%TD*%
%TA.AperFunction,ViaPad*%
%ADD22C,1.200000*%
%TD*%
%TA.AperFunction,Conductor*%
%ADD23C,0.200000*%
%TD*%
%TA.AperFunction,Conductor*%
%ADD24C,0.500000*%
%TD*%
G04 APERTURE END LIST*
D10*
%TO.P,U5,17,Pad*%
%TO.N,GND*%
X93718328Y-55329787D03*
X93718328Y-54329787D03*
D11*
X93218328Y-54829787D03*
D10*
X92718328Y-55329787D03*
X92718328Y-54329787D03*
%TD*%
D12*
%TO.P,J6,1,Pin_1*%
%TO.N,SDA2*%
X116528328Y-49629787D03*
D13*
%TO.P,J6,2,Pin_2*%
%TO.N,SCL2*%
X116528328Y-52169787D03*
%TO.P,J6,3,Pin_3*%
%TO.N,+3V3*%
X116528328Y-54709787D03*
%TO.P,J6,4,Pin_4*%
%TO.N,VBAT*%
X116528328Y-57249787D03*
%TO.P,J6,5,Pin_5*%
%TO.N,GND*%
X116528328Y-59789787D03*
%TD*%
D12*
%TO.P,J3,1,Pin_1*%
%TO.N,M1_COMMAND*%
X45000000Y-55600000D03*
D13*
%TO.P,J3,2,Pin_2*%
%TO.N,M2_COMMAND*%
X45000000Y-58140000D03*
%TO.P,J3,3,Pin_3*%
%TO.N,M3_COMMAND*%
X45000000Y-60680000D03*
%TO.P,J3,4,Pin_4*%
%TO.N,M4_COMMAND*%
X45000000Y-63220000D03*
%TO.P,J3,5,Pin_5*%
%TO.N,unconnected-(J3-Pin_5-Pad5)*%
X45000000Y-65760000D03*
%TD*%
D14*
%TO.P,M3,1,+*%
%TO.N,Net-(M3-+)*%
X91628328Y-49200000D03*
D15*
%TO.P,M3,2,-*%
%TO.N,Net-(M3--)*%
X88628328Y-49200000D03*
%TD*%
D10*
%TO.P,U6,17,Pad*%
%TO.N,GND*%
X110938328Y-68539787D03*
X111938328Y-68539787D03*
D11*
X111438328Y-68039787D03*
D10*
X110938328Y-67539787D03*
X111938328Y-67539787D03*
%TD*%
%TO.P,U7,9,PAD*%
%TO.N,GND*%
X75150000Y-88680000D03*
D16*
X75150000Y-88180000D03*
D10*
X75150000Y-87680000D03*
%TD*%
%TO.P,U4,17,Pad*%
%TO.N,GND*%
X90278328Y-81272287D03*
X89278328Y-81272287D03*
D11*
X89778328Y-81772287D03*
D10*
X90278328Y-82272287D03*
X89278328Y-82272287D03*
%TD*%
D12*
%TO.P,J5,1,Pin_1*%
%TO.N,M1_COMMAND*%
X84070000Y-55610000D03*
D13*
%TO.P,J5,2,Pin_2*%
%TO.N,M2_COMMAND*%
X84070000Y-58150000D03*
%TO.P,J5,3,Pin_3*%
%TO.N,M3_COMMAND*%
X84070000Y-60690000D03*
%TO.P,J5,4,Pin_4*%
%TO.N,M4_COMMAND*%
X84070000Y-63230000D03*
%TO.P,J5,5,Pin_5*%
%TO.N,unconnected-(J5-Pin_5-Pad5)*%
X84070000Y-65770000D03*
%TD*%
D14*
%TO.P,M1,1,+*%
%TO.N,Net-(M1-+)*%
X116800000Y-83029787D03*
D17*
%TO.P,M1,2,-*%
%TO.N,Net-(M1--)*%
X116800000Y-80029787D03*
%TD*%
D18*
%TO.P,J2,S1,SHIELD*%
%TO.N,GND*%
X57130000Y-92050000D03*
X57130000Y-96230000D03*
X65770000Y-92050000D03*
X65770000Y-96230000D03*
%TD*%
D10*
%TO.P,U2,41,EPAD*%
%TO.N,GND*%
X58430000Y-55910000D03*
X58430000Y-57310000D03*
X59130000Y-55210000D03*
X59130000Y-56610000D03*
X59130000Y-58010000D03*
X59830000Y-55910000D03*
X59830000Y-57310000D03*
X60530000Y-55210000D03*
X60530000Y-56610000D03*
X60530000Y-58010000D03*
X61230000Y-55910000D03*
X61230000Y-57310000D03*
%TD*%
D14*
%TO.P,M2,1,+*%
%TO.N,Net-(M2-+)*%
X84200000Y-82579787D03*
D19*
%TO.P,M2,2,-*%
%TO.N,Net-(M2--)*%
X84200000Y-85579787D03*
%TD*%
D10*
%TO.P,U3,17,Pad*%
%TO.N,GND*%
X110628328Y-84172287D03*
X111628328Y-84172287D03*
D11*
X111128328Y-83672287D03*
D10*
X110628328Y-83172287D03*
X111628328Y-83172287D03*
%TD*%
D14*
%TO.P,M4,1,+*%
%TO.N,Net-(M4-+)*%
X116800000Y-67600000D03*
D17*
%TO.P,M4,2,-*%
%TO.N,Net-(M4--)*%
X116800000Y-64600000D03*
%TD*%
D12*
%TO.P,J4,1,Pin_1*%
%TO.N,SDA2*%
X77500000Y-49500000D03*
D13*
%TO.P,J4,2,Pin_2*%
%TO.N,SCL2*%
X77500000Y-52040000D03*
%TO.P,J4,3,Pin_3*%
%TO.N,+3V3*%
X77500000Y-54580000D03*
%TO.P,J4,4,Pin_4*%
%TO.N,VBAT*%
X77500000Y-57120000D03*
%TO.P,J4,5,Pin_5*%
%TO.N,GND*%
X77500000Y-59660000D03*
%TD*%
D20*
%TO.N,GND*%
X105528328Y-92629787D03*
D21*
X61200000Y-73180000D03*
D20*
X78050000Y-69230000D03*
X55900000Y-79600000D03*
X101028328Y-94129787D03*
X73900000Y-79700000D03*
X44050000Y-72680000D03*
X77500000Y-91000000D03*
X99528328Y-92629787D03*
X57400000Y-71330000D03*
X59600000Y-77980000D03*
X76100000Y-91000000D03*
X105528328Y-94129787D03*
X105528328Y-89629787D03*
X70500000Y-80630000D03*
X53850000Y-92730000D03*
X68600000Y-48880000D03*
X102528328Y-95629787D03*
X46400000Y-49100000D03*
D21*
X66300000Y-70730000D03*
D22*
X74100000Y-59800000D03*
X86100000Y-67700000D03*
D20*
X51750000Y-91580000D03*
X105528328Y-91129787D03*
X101028328Y-91129787D03*
X102528328Y-94129787D03*
X104028328Y-94129787D03*
X71200000Y-70480000D03*
X99528328Y-89629787D03*
X105078328Y-69379787D03*
X95728328Y-48729787D03*
X53000000Y-78000000D03*
D22*
X107128328Y-50729787D03*
D20*
X75300000Y-86430000D03*
X65100000Y-74430000D03*
X104028328Y-95629787D03*
X105528328Y-95629787D03*
X99528328Y-94129787D03*
X108028328Y-71329787D03*
D21*
X64800000Y-70130000D03*
D20*
X50700000Y-53100000D03*
X66800000Y-89330000D03*
X75700000Y-71700000D03*
D21*
X61249904Y-72108223D03*
D20*
X99528328Y-91129787D03*
X101028328Y-95629787D03*
X94228328Y-78329787D03*
X69250000Y-92380000D03*
X101028328Y-89629787D03*
X117678328Y-72129787D03*
X48400000Y-53100000D03*
X67250000Y-96180000D03*
D21*
X90678328Y-54579787D03*
D20*
X57600000Y-90130000D03*
X97678328Y-58129787D03*
X55350000Y-96230000D03*
X79200000Y-66100000D03*
D22*
X106978328Y-75179787D03*
D20*
X44850000Y-81900000D03*
X116287500Y-86850000D03*
D21*
X89028328Y-84129787D03*
D20*
X97628328Y-54429787D03*
X49550000Y-53100000D03*
D21*
X91578328Y-77120000D03*
D20*
X99528328Y-95629787D03*
X101028328Y-92629787D03*
X104778328Y-85079787D03*
X83900000Y-78600000D03*
D21*
X111528328Y-81329787D03*
D20*
X108428328Y-87979787D03*
X45300000Y-49100000D03*
X69950000Y-68730000D03*
X53900000Y-48880000D03*
D21*
%TO.N,VBAT*%
X85878328Y-73779787D03*
X112378328Y-75379787D03*
D20*
X85528328Y-89629787D03*
D21*
X113828328Y-74079787D03*
D22*
X77600000Y-86500000D03*
D20*
X88528328Y-95629787D03*
D21*
X112378328Y-76729787D03*
D20*
X107778328Y-91429787D03*
D21*
X101678328Y-50529787D03*
X87228328Y-73829787D03*
D20*
X107728328Y-94729787D03*
D21*
X113828328Y-76729787D03*
X113828328Y-75379787D03*
D20*
X109378328Y-92979787D03*
X87028328Y-95629787D03*
X88528328Y-91129787D03*
X88528328Y-89629787D03*
X85528328Y-92629787D03*
D21*
X101678328Y-51779787D03*
D20*
X107728328Y-92979787D03*
D21*
X101678328Y-49279787D03*
X112378328Y-74079787D03*
D20*
X87028328Y-89629787D03*
D21*
X78100000Y-63130000D03*
X100428328Y-51729787D03*
X100428328Y-49279787D03*
D20*
X109378328Y-94729787D03*
X85528328Y-95629787D03*
D21*
X84478328Y-72379787D03*
D20*
X87028328Y-91129787D03*
D21*
X85878328Y-72379787D03*
D20*
X87028328Y-94129787D03*
D21*
X100428328Y-50529787D03*
D20*
X88528328Y-94129787D03*
D21*
X87228328Y-72379787D03*
D20*
X85528328Y-94129787D03*
X88528328Y-92629787D03*
X87028328Y-92629787D03*
X107778328Y-89979787D03*
X85528328Y-91129787D03*
D21*
X84478328Y-73779787D03*
D20*
%TO.N,+3V3*%
X110278328Y-72479787D03*
X69400000Y-83800000D03*
D21*
X110128328Y-65679787D03*
D20*
X97678328Y-56079787D03*
X45300000Y-69830000D03*
X73600000Y-48330000D03*
X89780000Y-77080000D03*
D21*
X110678328Y-81329787D03*
D20*
X107478328Y-68379787D03*
X44700000Y-52400000D03*
X52800000Y-94600000D03*
X64600000Y-68330000D03*
D21*
X90128328Y-55579787D03*
D20*
X68300000Y-76930000D03*
X94228328Y-80029787D03*
D21*
X94028365Y-58978280D03*
D20*
X107078328Y-86129787D03*
X69400000Y-85500000D03*
X56800000Y-69030000D03*
X73600000Y-54030000D03*
D21*
X90328328Y-84179787D03*
D20*
X71000000Y-85500000D03*
X44700000Y-51400000D03*
X71000000Y-83800000D03*
X109578328Y-85929787D03*
D21*
%TO.N,EN*%
X54100000Y-51430000D03*
X47100000Y-69730000D03*
D20*
%TO.N,VCCA*%
X63800000Y-76030000D03*
X58600000Y-74130000D03*
X65120000Y-72710000D03*
X61300000Y-76030000D03*
X68500000Y-71830000D03*
D21*
%TO.N,SDA2*%
X92328328Y-61079787D03*
X93578328Y-81479787D03*
X96628328Y-59679787D03*
X107928328Y-66179787D03*
X106353328Y-81604787D03*
%TO.N,SCL2*%
X92578328Y-81479787D03*
X107400000Y-83400000D03*
X93426839Y-57528225D03*
X108678328Y-67729787D03*
%TO.N,VBAT_SENSE*%
X75200000Y-68130000D03*
X58200000Y-65230000D03*
%TO.N,M3_COMMAND*%
X91828328Y-57329787D03*
%TO.N,M2_COMMAND*%
X87328328Y-61779787D03*
X87328328Y-63900000D03*
%TO.N,M1_COMMAND*%
X88978328Y-58479787D03*
X89028328Y-64229787D03*
%TO.N,/Regulator/<NO NET>*%
X75500000Y-83880000D03*
X74200000Y-89830000D03*
%TO.N,Net-(D2-A)*%
X71600000Y-74130000D03*
X68600000Y-63930000D03*
D20*
%TO.N,Net-(U1-VBUS)*%
X59800000Y-89330000D03*
X62200000Y-89330000D03*
X53900000Y-73800000D03*
X55900000Y-74800000D03*
%TD*%
D23*
%TO.N,EN*%
X47100000Y-64680000D02*
X54100000Y-57680000D01*
X47100000Y-69730000D02*
X47100000Y-64680000D01*
X54100000Y-57680000D02*
X54100000Y-51430000D01*
%TO.N,SDA2*%
X113778328Y-49629787D02*
X106528328Y-56879787D01*
X106478328Y-66129787D02*
X100028328Y-59679787D01*
X106528328Y-56879787D02*
X106528328Y-64779787D01*
X93528328Y-62279787D02*
X93528328Y-81429787D01*
X93628328Y-81529787D02*
X93578328Y-81479787D01*
X116528328Y-49629787D02*
X113778328Y-49629787D01*
X106528328Y-64779787D02*
X107928328Y-66179787D01*
X93528328Y-81429787D02*
X93578328Y-81479787D01*
X92328328Y-61079787D02*
X93528328Y-62279787D01*
X106353328Y-81604787D02*
X106278328Y-81529787D01*
X107928328Y-66179787D02*
X107878328Y-66129787D01*
X107878328Y-66129787D02*
X106478328Y-66129787D01*
X106278328Y-81529787D02*
X93628328Y-81529787D01*
X100028328Y-59679787D02*
X96628328Y-59679787D01*
%TO.N,SCL2*%
X94028365Y-58129750D02*
X93426839Y-57528225D01*
X108678328Y-66979787D02*
X108678328Y-67729787D01*
X114778328Y-52179787D02*
X114788328Y-52169787D01*
X90978328Y-79879787D02*
X90978328Y-61179787D01*
X108678328Y-66979787D02*
X102878401Y-66979787D01*
X102878401Y-66979787D02*
X94028365Y-58129750D01*
X114728328Y-52179787D02*
X108678328Y-58229787D01*
X107400000Y-83400000D02*
X106948541Y-83400000D01*
X106900000Y-83400000D02*
X94450000Y-83400000D01*
X114728328Y-52179787D02*
X114778328Y-52179787D01*
X90978328Y-61179787D02*
X94028365Y-58129750D01*
X108678328Y-58229787D02*
X108678328Y-66979787D01*
X92578328Y-81479787D02*
X90978328Y-79879787D01*
X114788328Y-52169787D02*
X116528328Y-52169787D01*
X94398541Y-83300000D02*
X92578328Y-81479787D01*
%TO.N,VBAT_SENSE*%
X75200000Y-68130000D02*
X75200000Y-66680000D01*
X71450000Y-62930000D02*
X60500000Y-62930000D01*
X60500000Y-62930000D02*
X58200000Y-65230000D01*
X75200000Y-66680000D02*
X71450000Y-62930000D01*
%TO.N,M3_COMMAND*%
X87158328Y-57329787D02*
X91828328Y-57329787D01*
X84278328Y-60209787D02*
X87158328Y-57329787D01*
%TO.N,M2_COMMAND*%
X87328328Y-61779787D02*
X87328328Y-63900000D01*
%TO.N,M1_COMMAND*%
X89028328Y-64229787D02*
X89028328Y-58529787D01*
X89028328Y-58529787D02*
X88978328Y-58479787D01*
X88978328Y-58479787D02*
X88828328Y-58329787D01*
%TO.N,/Regulator/<NO NET>*%
X77850000Y-83880000D02*
X75500000Y-83880000D01*
X78550000Y-84580000D02*
X77850000Y-83880000D01*
X77430000Y-90300000D02*
X78550000Y-89180000D01*
X74670000Y-90300000D02*
X77430000Y-90300000D01*
X78550000Y-89180000D02*
X78550000Y-84580000D01*
X74200000Y-89830000D02*
X74670000Y-90300000D01*
%TO.N,Net-(D2-A)*%
X71600000Y-74130000D02*
X72600000Y-73130000D01*
X72600000Y-67930000D02*
X68600000Y-63930000D01*
X72600000Y-73130000D02*
X72600000Y-67930000D01*
D24*
%TO.N,Net-(U1-VBUS)*%
X53900000Y-73800000D02*
X54900000Y-73800000D01*
X54900000Y-73800000D02*
X55900000Y-74800000D01*
X59800000Y-89330000D02*
X62200000Y-89330000D01*
%TD*%
M02*
