%TF.GenerationSoftware,KiCad,Pcbnew,9.0.4*%
%TF.CreationDate,2026-03-14T23:33:22+02:00*%
%TF.ProjectId,PCBv2Drona,50434276-3244-4726-9f6e-612e6b696361,rev?*%
%TF.SameCoordinates,Original*%
%TF.FileFunction,Soldermask,Bot*%
%TF.FilePolarity,Negative*%
%FSLAX46Y46*%
G04 Gerber Fmt 4.6, Leading zero omitted, Abs format (unit mm)*
G04 Created by KiCad (PCBNEW 9.0.4) date 2026-03-14 23:33:22*
%MOMM*%
%LPD*%
G01*
G04 APERTURE LIST*
G04 APERTURE END LIST*
G36*
X57318395Y-95058946D02*
G01*
X57435936Y-95107633D01*
X57541721Y-95178316D01*
X57631684Y-95268279D01*
X57702367Y-95374064D01*
X57751054Y-95491605D01*
X57775875Y-95616387D01*
X57779000Y-95680000D01*
X57779000Y-96780000D01*
X57775875Y-96843613D01*
X57751054Y-96968395D01*
X57702367Y-97085936D01*
X57631684Y-97191721D01*
X57541721Y-97281684D01*
X57435936Y-97352367D01*
X57318395Y-97401054D01*
X57193613Y-97425875D01*
X57066387Y-97425875D01*
X56941605Y-97401054D01*
X56824064Y-97352367D01*
X56718279Y-97281684D01*
X56628316Y-97191721D01*
X56557633Y-97085936D01*
X56508946Y-96968395D01*
X56484125Y-96843613D01*
X56481000Y-96780000D01*
X56481000Y-95680000D01*
X56484125Y-95616387D01*
X56508946Y-95491605D01*
X56557633Y-95374064D01*
X56628316Y-95268279D01*
X56718279Y-95178316D01*
X56824064Y-95107633D01*
X56941605Y-95058946D01*
X57066387Y-95034125D01*
X57193613Y-95034125D01*
X57318395Y-95058946D01*
G37*
G36*
X65958395Y-95058946D02*
G01*
X66075936Y-95107633D01*
X66181721Y-95178316D01*
X66271684Y-95268279D01*
X66342367Y-95374064D01*
X66391054Y-95491605D01*
X66415875Y-95616387D01*
X66419000Y-95680000D01*
X66419000Y-96780000D01*
X66415875Y-96843613D01*
X66391054Y-96968395D01*
X66342367Y-97085936D01*
X66271684Y-97191721D01*
X66181721Y-97281684D01*
X66075936Y-97352367D01*
X65958395Y-97401054D01*
X65833613Y-97425875D01*
X65706387Y-97425875D01*
X65581605Y-97401054D01*
X65464064Y-97352367D01*
X65358279Y-97281684D01*
X65268316Y-97191721D01*
X65197633Y-97085936D01*
X65148946Y-96968395D01*
X65124125Y-96843613D01*
X65121000Y-96780000D01*
X65121000Y-95680000D01*
X65124125Y-95616387D01*
X65148946Y-95491605D01*
X65197633Y-95374064D01*
X65268316Y-95268279D01*
X65358279Y-95178316D01*
X65464064Y-95107633D01*
X65581605Y-95058946D01*
X65706387Y-95034125D01*
X65833613Y-95034125D01*
X65958395Y-95058946D01*
G37*
G36*
X57318395Y-90878946D02*
G01*
X57435936Y-90927633D01*
X57541721Y-90998316D01*
X57631684Y-91088279D01*
X57702367Y-91194064D01*
X57751054Y-91311605D01*
X57775875Y-91436387D01*
X57779000Y-91500000D01*
X57779000Y-92600000D01*
X57775875Y-92663613D01*
X57751054Y-92788395D01*
X57702367Y-92905936D01*
X57631684Y-93011721D01*
X57541721Y-93101684D01*
X57435936Y-93172367D01*
X57318395Y-93221054D01*
X57193613Y-93245875D01*
X57066387Y-93245875D01*
X56941605Y-93221054D01*
X56824064Y-93172367D01*
X56718279Y-93101684D01*
X56628316Y-93011721D01*
X56557633Y-92905936D01*
X56508946Y-92788395D01*
X56484125Y-92663613D01*
X56481000Y-92600000D01*
X56481000Y-91500000D01*
X56484125Y-91436387D01*
X56508946Y-91311605D01*
X56557633Y-91194064D01*
X56628316Y-91088279D01*
X56718279Y-90998316D01*
X56824064Y-90927633D01*
X56941605Y-90878946D01*
X57066387Y-90854125D01*
X57193613Y-90854125D01*
X57318395Y-90878946D01*
G37*
G36*
X65958395Y-90878946D02*
G01*
X66075936Y-90927633D01*
X66181721Y-90998316D01*
X66271684Y-91088279D01*
X66342367Y-91194064D01*
X66391054Y-91311605D01*
X66415875Y-91436387D01*
X66419000Y-91500000D01*
X66419000Y-92600000D01*
X66415875Y-92663613D01*
X66391054Y-92788395D01*
X66342367Y-92905936D01*
X66271684Y-93011721D01*
X66181721Y-93101684D01*
X66075936Y-93172367D01*
X65958395Y-93221054D01*
X65833613Y-93245875D01*
X65706387Y-93245875D01*
X65581605Y-93221054D01*
X65464064Y-93172367D01*
X65358279Y-93101684D01*
X65268316Y-93011721D01*
X65197633Y-92905936D01*
X65148946Y-92788395D01*
X65124125Y-92663613D01*
X65121000Y-92600000D01*
X65121000Y-91500000D01*
X65124125Y-91436387D01*
X65148946Y-91311605D01*
X65197633Y-91194064D01*
X65268316Y-91088279D01*
X65358279Y-90998316D01*
X65464064Y-90927633D01*
X65581605Y-90878946D01*
X65706387Y-90854125D01*
X65833613Y-90854125D01*
X65958395Y-90878946D01*
G37*
G36*
X58684372Y-92249739D02*
G01*
X58757847Y-92292160D01*
X58817840Y-92352153D01*
X58860261Y-92425628D01*
X58882220Y-92507579D01*
X58882220Y-92592421D01*
X58860261Y-92674372D01*
X58817840Y-92747847D01*
X58757847Y-92807840D01*
X58684372Y-92850261D01*
X58602421Y-92872220D01*
X58517579Y-92872220D01*
X58435628Y-92850261D01*
X58362153Y-92807840D01*
X58302160Y-92747847D01*
X58259739Y-92674372D01*
X58237780Y-92592421D01*
X58237780Y-92507579D01*
X58259739Y-92425628D01*
X58302160Y-92352153D01*
X58362153Y-92292160D01*
X58435628Y-92249739D01*
X58517579Y-92227780D01*
X58602421Y-92227780D01*
X58684372Y-92249739D01*
G37*
G36*
X64464372Y-92249739D02*
G01*
X64537847Y-92292160D01*
X64597840Y-92352153D01*
X64640261Y-92425628D01*
X64662220Y-92507579D01*
X64662220Y-92592421D01*
X64640261Y-92674372D01*
X64597840Y-92747847D01*
X64537847Y-92807840D01*
X64464372Y-92850261D01*
X64382421Y-92872220D01*
X64297579Y-92872220D01*
X64215628Y-92850261D01*
X64142153Y-92807840D01*
X64082160Y-92747847D01*
X64039739Y-92674372D01*
X64017780Y-92592421D01*
X64017780Y-92507579D01*
X64039739Y-92425628D01*
X64082160Y-92352153D01*
X64142153Y-92292160D01*
X64215628Y-92249739D01*
X64297579Y-92227780D01*
X64382421Y-92227780D01*
X64464372Y-92249739D01*
G37*
G36*
X84906283Y-84491214D02*
G01*
X84912985Y-84493713D01*
X84917866Y-84494300D01*
X84975621Y-84517076D01*
X85039624Y-84540948D01*
X85043485Y-84543838D01*
X85044823Y-84544366D01*
X85093506Y-84581284D01*
X85153553Y-84626234D01*
X85198521Y-84686305D01*
X85235420Y-84734963D01*
X85235947Y-84736300D01*
X85238839Y-84740163D01*
X85262725Y-84804203D01*
X85285486Y-84861921D01*
X85286071Y-84866797D01*
X85288573Y-84873504D01*
X85300000Y-84979787D01*
X85300000Y-86179787D01*
X85288573Y-86286070D01*
X85286071Y-86292776D01*
X85285486Y-86297653D01*
X85262728Y-86355362D01*
X85238839Y-86419411D01*
X85235946Y-86423274D01*
X85235420Y-86424610D01*
X85198579Y-86473191D01*
X85153553Y-86533340D01*
X85093404Y-86578366D01*
X85044823Y-86615207D01*
X85043487Y-86615733D01*
X85039624Y-86618626D01*
X84975565Y-86642518D01*
X84917865Y-86665273D01*
X84912989Y-86665858D01*
X84906283Y-86668360D01*
X84800000Y-86679787D01*
X83600000Y-86679787D01*
X83493717Y-86668360D01*
X83487011Y-86665858D01*
X83482133Y-86665273D01*
X83424406Y-86642508D01*
X83360376Y-86618626D01*
X83356513Y-86615734D01*
X83355176Y-86615207D01*
X83306518Y-86578308D01*
X83246447Y-86533340D01*
X83201497Y-86473293D01*
X83164579Y-86424610D01*
X83164051Y-86423272D01*
X83161161Y-86419411D01*
X83137285Y-86355398D01*
X83114513Y-86297652D01*
X83113927Y-86292772D01*
X83111427Y-86286070D01*
X83100000Y-86179787D01*
X83100000Y-84979787D01*
X83111427Y-84873504D01*
X83113926Y-84866801D01*
X83114513Y-84861920D01*
X83137296Y-84804146D01*
X83161161Y-84740163D01*
X83164050Y-84736302D01*
X83164579Y-84734963D01*
X83201555Y-84686202D01*
X83246447Y-84626234D01*
X83306415Y-84581342D01*
X83355176Y-84544366D01*
X83356515Y-84543837D01*
X83360376Y-84540948D01*
X83424369Y-84517079D01*
X83482134Y-84494300D01*
X83487014Y-84493713D01*
X83493717Y-84491214D01*
X83600000Y-84479787D01*
X84800000Y-84479787D01*
X84906283Y-84491214D01*
G37*
G36*
X117838268Y-81937399D02*
G01*
X117870711Y-81959076D01*
X117892388Y-81991519D01*
X117900000Y-82029787D01*
X117900000Y-84029787D01*
X117892388Y-84068055D01*
X117870711Y-84100498D01*
X117838268Y-84122175D01*
X117800000Y-84129787D01*
X115800000Y-84129787D01*
X115761732Y-84122175D01*
X115729289Y-84100498D01*
X115707612Y-84068055D01*
X115700000Y-84029787D01*
X115700000Y-82029787D01*
X115707612Y-81991519D01*
X115729289Y-81959076D01*
X115761732Y-81937399D01*
X115800000Y-81929787D01*
X117800000Y-81929787D01*
X117838268Y-81937399D01*
G37*
G36*
X85238268Y-81487399D02*
G01*
X85270711Y-81509076D01*
X85292388Y-81541519D01*
X85300000Y-81579787D01*
X85300000Y-83579787D01*
X85292388Y-83618055D01*
X85270711Y-83650498D01*
X85238268Y-83672175D01*
X85200000Y-83679787D01*
X83200000Y-83679787D01*
X83161732Y-83672175D01*
X83129289Y-83650498D01*
X83107612Y-83618055D01*
X83100000Y-83579787D01*
X83100000Y-81579787D01*
X83107612Y-81541519D01*
X83129289Y-81509076D01*
X83161732Y-81487399D01*
X83200000Y-81479787D01*
X85200000Y-81479787D01*
X85238268Y-81487399D01*
G37*
G36*
X117506283Y-78941214D02*
G01*
X117512985Y-78943713D01*
X117517866Y-78944300D01*
X117575621Y-78967076D01*
X117639624Y-78990948D01*
X117643485Y-78993838D01*
X117644823Y-78994366D01*
X117693506Y-79031284D01*
X117753553Y-79076234D01*
X117798521Y-79136305D01*
X117835420Y-79184963D01*
X117835947Y-79186300D01*
X117838839Y-79190163D01*
X117862725Y-79254203D01*
X117885486Y-79311921D01*
X117886071Y-79316797D01*
X117888573Y-79323504D01*
X117900000Y-79429787D01*
X117900000Y-80629787D01*
X117888573Y-80736070D01*
X117886071Y-80742776D01*
X117885486Y-80747653D01*
X117862728Y-80805362D01*
X117838839Y-80869411D01*
X117835946Y-80873274D01*
X117835420Y-80874610D01*
X117798579Y-80923191D01*
X117753553Y-80983340D01*
X117693404Y-81028366D01*
X117644823Y-81065207D01*
X117643487Y-81065733D01*
X117639624Y-81068626D01*
X117575565Y-81092518D01*
X117517865Y-81115273D01*
X117512989Y-81115858D01*
X117506283Y-81118360D01*
X117400000Y-81129787D01*
X116200000Y-81129787D01*
X116093717Y-81118360D01*
X116087011Y-81115858D01*
X116082133Y-81115273D01*
X116024406Y-81092508D01*
X115960376Y-81068626D01*
X115956513Y-81065734D01*
X115955176Y-81065207D01*
X115906518Y-81028308D01*
X115846447Y-80983340D01*
X115801497Y-80923293D01*
X115764579Y-80874610D01*
X115764051Y-80873272D01*
X115761161Y-80869411D01*
X115737285Y-80805398D01*
X115714513Y-80747652D01*
X115713927Y-80742772D01*
X115711427Y-80736070D01*
X115700000Y-80629787D01*
X115700000Y-79429787D01*
X115711427Y-79323504D01*
X115713926Y-79316801D01*
X115714513Y-79311920D01*
X115737296Y-79254146D01*
X115761161Y-79190163D01*
X115764050Y-79186302D01*
X115764579Y-79184963D01*
X115801555Y-79136202D01*
X115846447Y-79076234D01*
X115906415Y-79031342D01*
X115955176Y-78994366D01*
X115956515Y-78993837D01*
X115960376Y-78990948D01*
X116024369Y-78967079D01*
X116082134Y-78944300D01*
X116087014Y-78943713D01*
X116093717Y-78941214D01*
X116200000Y-78929787D01*
X117400000Y-78929787D01*
X117506283Y-78941214D01*
G37*
G36*
X117838268Y-66507612D02*
G01*
X117870711Y-66529289D01*
X117892388Y-66561732D01*
X117900000Y-66600000D01*
X117900000Y-68600000D01*
X117892388Y-68638268D01*
X117870711Y-68670711D01*
X117838268Y-68692388D01*
X117800000Y-68700000D01*
X115800000Y-68700000D01*
X115761732Y-68692388D01*
X115729289Y-68670711D01*
X115707612Y-68638268D01*
X115700000Y-68600000D01*
X115700000Y-66600000D01*
X115707612Y-66561732D01*
X115729289Y-66529289D01*
X115761732Y-66507612D01*
X115800000Y-66500000D01*
X117800000Y-66500000D01*
X117838268Y-66507612D01*
G37*
G36*
X84345770Y-64860907D02*
G01*
X84517827Y-64932175D01*
X84672674Y-65035640D01*
X84804360Y-65167326D01*
X84907825Y-65322173D01*
X84979093Y-65494230D01*
X85015425Y-65676884D01*
X85015425Y-65863116D01*
X84979093Y-66045770D01*
X84907825Y-66217827D01*
X84804360Y-66372674D01*
X84672674Y-66504360D01*
X84517827Y-66607825D01*
X84345770Y-66679093D01*
X84163116Y-66715425D01*
X83976884Y-66715425D01*
X83794230Y-66679093D01*
X83622173Y-66607825D01*
X83467326Y-66504360D01*
X83335640Y-66372674D01*
X83232175Y-66217827D01*
X83160907Y-66045770D01*
X83124575Y-65863116D01*
X83124575Y-65676884D01*
X83160907Y-65494230D01*
X83232175Y-65322173D01*
X83335640Y-65167326D01*
X83467326Y-65035640D01*
X83622173Y-64932175D01*
X83794230Y-64860907D01*
X83976884Y-64824575D01*
X84163116Y-64824575D01*
X84345770Y-64860907D01*
G37*
G36*
X45275770Y-64850907D02*
G01*
X45447827Y-64922175D01*
X45602674Y-65025640D01*
X45734360Y-65157326D01*
X45837825Y-65312173D01*
X45909093Y-65484230D01*
X45945425Y-65666884D01*
X45945425Y-65853116D01*
X45909093Y-66035770D01*
X45837825Y-66207827D01*
X45734360Y-66362674D01*
X45602674Y-66494360D01*
X45447827Y-66597825D01*
X45275770Y-66669093D01*
X45093116Y-66705425D01*
X44906884Y-66705425D01*
X44724230Y-66669093D01*
X44552173Y-66597825D01*
X44397326Y-66494360D01*
X44265640Y-66362674D01*
X44162175Y-66207827D01*
X44090907Y-66035770D01*
X44054575Y-65853116D01*
X44054575Y-65666884D01*
X44090907Y-65484230D01*
X44162175Y-65312173D01*
X44265640Y-65157326D01*
X44397326Y-65025640D01*
X44552173Y-64922175D01*
X44724230Y-64850907D01*
X44906884Y-64814575D01*
X45093116Y-64814575D01*
X45275770Y-64850907D01*
G37*
G36*
X117506283Y-63511427D02*
G01*
X117512985Y-63513926D01*
X117517866Y-63514513D01*
X117575621Y-63537289D01*
X117639624Y-63561161D01*
X117643485Y-63564051D01*
X117644823Y-63564579D01*
X117693506Y-63601497D01*
X117753553Y-63646447D01*
X117798521Y-63706518D01*
X117835420Y-63755176D01*
X117835947Y-63756513D01*
X117838839Y-63760376D01*
X117862725Y-63824416D01*
X117885486Y-63882134D01*
X117886071Y-63887010D01*
X117888573Y-63893717D01*
X117900000Y-64000000D01*
X117900000Y-65200000D01*
X117888573Y-65306283D01*
X117886071Y-65312989D01*
X117885486Y-65317866D01*
X117862728Y-65375575D01*
X117838839Y-65439624D01*
X117835946Y-65443487D01*
X117835420Y-65444823D01*
X117798579Y-65493404D01*
X117753553Y-65553553D01*
X117693404Y-65598579D01*
X117644823Y-65635420D01*
X117643487Y-65635946D01*
X117639624Y-65638839D01*
X117575565Y-65662731D01*
X117517865Y-65685486D01*
X117512989Y-65686071D01*
X117506283Y-65688573D01*
X117400000Y-65700000D01*
X116200000Y-65700000D01*
X116093717Y-65688573D01*
X116087011Y-65686071D01*
X116082133Y-65685486D01*
X116024406Y-65662721D01*
X115960376Y-65638839D01*
X115956513Y-65635947D01*
X115955176Y-65635420D01*
X115906518Y-65598521D01*
X115846447Y-65553553D01*
X115801497Y-65493506D01*
X115764579Y-65444823D01*
X115764051Y-65443485D01*
X115761161Y-65439624D01*
X115737285Y-65375611D01*
X115714513Y-65317865D01*
X115713927Y-65312985D01*
X115711427Y-65306283D01*
X115700000Y-65200000D01*
X115700000Y-64000000D01*
X115711427Y-63893717D01*
X115713926Y-63887014D01*
X115714513Y-63882133D01*
X115737296Y-63824359D01*
X115761161Y-63760376D01*
X115764050Y-63756515D01*
X115764579Y-63755176D01*
X115801555Y-63706415D01*
X115846447Y-63646447D01*
X115906415Y-63601555D01*
X115955176Y-63564579D01*
X115956515Y-63564050D01*
X115960376Y-63561161D01*
X116024369Y-63537292D01*
X116082134Y-63514513D01*
X116087014Y-63513926D01*
X116093717Y-63511427D01*
X116200000Y-63500000D01*
X117400000Y-63500000D01*
X117506283Y-63511427D01*
G37*
G36*
X84345770Y-62320907D02*
G01*
X84517827Y-62392175D01*
X84672674Y-62495640D01*
X84804360Y-62627326D01*
X84907825Y-62782173D01*
X84979093Y-62954230D01*
X85015425Y-63136884D01*
X85015425Y-63323116D01*
X84979093Y-63505770D01*
X84907825Y-63677827D01*
X84804360Y-63832674D01*
X84672674Y-63964360D01*
X84517827Y-64067825D01*
X84345770Y-64139093D01*
X84163116Y-64175425D01*
X83976884Y-64175425D01*
X83794230Y-64139093D01*
X83622173Y-64067825D01*
X83467326Y-63964360D01*
X83335640Y-63832674D01*
X83232175Y-63677827D01*
X83160907Y-63505770D01*
X83124575Y-63323116D01*
X83124575Y-63136884D01*
X83160907Y-62954230D01*
X83232175Y-62782173D01*
X83335640Y-62627326D01*
X83467326Y-62495640D01*
X83622173Y-62392175D01*
X83794230Y-62320907D01*
X83976884Y-62284575D01*
X84163116Y-62284575D01*
X84345770Y-62320907D01*
G37*
G36*
X45275770Y-62310907D02*
G01*
X45447827Y-62382175D01*
X45602674Y-62485640D01*
X45734360Y-62617326D01*
X45837825Y-62772173D01*
X45909093Y-62944230D01*
X45945425Y-63126884D01*
X45945425Y-63313116D01*
X45909093Y-63495770D01*
X45837825Y-63667827D01*
X45734360Y-63822674D01*
X45602674Y-63954360D01*
X45447827Y-64057825D01*
X45275770Y-64129093D01*
X45093116Y-64165425D01*
X44906884Y-64165425D01*
X44724230Y-64129093D01*
X44552173Y-64057825D01*
X44397326Y-63954360D01*
X44265640Y-63822674D01*
X44162175Y-63667827D01*
X44090907Y-63495770D01*
X44054575Y-63313116D01*
X44054575Y-63126884D01*
X44090907Y-62944230D01*
X44162175Y-62772173D01*
X44265640Y-62617326D01*
X44397326Y-62485640D01*
X44552173Y-62382175D01*
X44724230Y-62310907D01*
X44906884Y-62274575D01*
X45093116Y-62274575D01*
X45275770Y-62310907D01*
G37*
G36*
X84345770Y-59780907D02*
G01*
X84517827Y-59852175D01*
X84672674Y-59955640D01*
X84804360Y-60087326D01*
X84907825Y-60242173D01*
X84979093Y-60414230D01*
X85015425Y-60596884D01*
X85015425Y-60783116D01*
X84979093Y-60965770D01*
X84907825Y-61137827D01*
X84804360Y-61292674D01*
X84672674Y-61424360D01*
X84517827Y-61527825D01*
X84345770Y-61599093D01*
X84163116Y-61635425D01*
X83976884Y-61635425D01*
X83794230Y-61599093D01*
X83622173Y-61527825D01*
X83467326Y-61424360D01*
X83335640Y-61292674D01*
X83232175Y-61137827D01*
X83160907Y-60965770D01*
X83124575Y-60783116D01*
X83124575Y-60596884D01*
X83160907Y-60414230D01*
X83232175Y-60242173D01*
X83335640Y-60087326D01*
X83467326Y-59955640D01*
X83622173Y-59852175D01*
X83794230Y-59780907D01*
X83976884Y-59744575D01*
X84163116Y-59744575D01*
X84345770Y-59780907D01*
G37*
G36*
X45275770Y-59770907D02*
G01*
X45447827Y-59842175D01*
X45602674Y-59945640D01*
X45734360Y-60077326D01*
X45837825Y-60232173D01*
X45909093Y-60404230D01*
X45945425Y-60586884D01*
X45945425Y-60773116D01*
X45909093Y-60955770D01*
X45837825Y-61127827D01*
X45734360Y-61282674D01*
X45602674Y-61414360D01*
X45447827Y-61517825D01*
X45275770Y-61589093D01*
X45093116Y-61625425D01*
X44906884Y-61625425D01*
X44724230Y-61589093D01*
X44552173Y-61517825D01*
X44397326Y-61414360D01*
X44265640Y-61282674D01*
X44162175Y-61127827D01*
X44090907Y-60955770D01*
X44054575Y-60773116D01*
X44054575Y-60586884D01*
X44090907Y-60404230D01*
X44162175Y-60232173D01*
X44265640Y-60077326D01*
X44397326Y-59945640D01*
X44552173Y-59842175D01*
X44724230Y-59770907D01*
X44906884Y-59734575D01*
X45093116Y-59734575D01*
X45275770Y-59770907D01*
G37*
G36*
X116804098Y-58880694D02*
G01*
X116976155Y-58951962D01*
X117131002Y-59055427D01*
X117262688Y-59187113D01*
X117366153Y-59341960D01*
X117437421Y-59514017D01*
X117473753Y-59696671D01*
X117473753Y-59882903D01*
X117437421Y-60065557D01*
X117366153Y-60237614D01*
X117262688Y-60392461D01*
X117131002Y-60524147D01*
X116976155Y-60627612D01*
X116804098Y-60698880D01*
X116621444Y-60735212D01*
X116435212Y-60735212D01*
X116252558Y-60698880D01*
X116080501Y-60627612D01*
X115925654Y-60524147D01*
X115793968Y-60392461D01*
X115690503Y-60237614D01*
X115619235Y-60065557D01*
X115582903Y-59882903D01*
X115582903Y-59696671D01*
X115619235Y-59514017D01*
X115690503Y-59341960D01*
X115793968Y-59187113D01*
X115925654Y-59055427D01*
X116080501Y-58951962D01*
X116252558Y-58880694D01*
X116435212Y-58844362D01*
X116621444Y-58844362D01*
X116804098Y-58880694D01*
G37*
G36*
X77775770Y-58750907D02*
G01*
X77947827Y-58822175D01*
X78102674Y-58925640D01*
X78234360Y-59057326D01*
X78337825Y-59212173D01*
X78409093Y-59384230D01*
X78445425Y-59566884D01*
X78445425Y-59753116D01*
X78409093Y-59935770D01*
X78337825Y-60107827D01*
X78234360Y-60262674D01*
X78102674Y-60394360D01*
X77947827Y-60497825D01*
X77775770Y-60569093D01*
X77593116Y-60605425D01*
X77406884Y-60605425D01*
X77224230Y-60569093D01*
X77052173Y-60497825D01*
X76897326Y-60394360D01*
X76765640Y-60262674D01*
X76662175Y-60107827D01*
X76590907Y-59935770D01*
X76554575Y-59753116D01*
X76554575Y-59566884D01*
X76590907Y-59384230D01*
X76662175Y-59212173D01*
X76765640Y-59057326D01*
X76897326Y-58925640D01*
X77052173Y-58822175D01*
X77224230Y-58750907D01*
X77406884Y-58714575D01*
X77593116Y-58714575D01*
X77775770Y-58750907D01*
G37*
G36*
X84345770Y-57240907D02*
G01*
X84517827Y-57312175D01*
X84672674Y-57415640D01*
X84804360Y-57547326D01*
X84907825Y-57702173D01*
X84979093Y-57874230D01*
X85015425Y-58056884D01*
X85015425Y-58243116D01*
X84979093Y-58425770D01*
X84907825Y-58597827D01*
X84804360Y-58752674D01*
X84672674Y-58884360D01*
X84517827Y-58987825D01*
X84345770Y-59059093D01*
X84163116Y-59095425D01*
X83976884Y-59095425D01*
X83794230Y-59059093D01*
X83622173Y-58987825D01*
X83467326Y-58884360D01*
X83335640Y-58752674D01*
X83232175Y-58597827D01*
X83160907Y-58425770D01*
X83124575Y-58243116D01*
X83124575Y-58056884D01*
X83160907Y-57874230D01*
X83232175Y-57702173D01*
X83335640Y-57547326D01*
X83467326Y-57415640D01*
X83622173Y-57312175D01*
X83794230Y-57240907D01*
X83976884Y-57204575D01*
X84163116Y-57204575D01*
X84345770Y-57240907D01*
G37*
G36*
X45275770Y-57230907D02*
G01*
X45447827Y-57302175D01*
X45602674Y-57405640D01*
X45734360Y-57537326D01*
X45837825Y-57692173D01*
X45909093Y-57864230D01*
X45945425Y-58046884D01*
X45945425Y-58233116D01*
X45909093Y-58415770D01*
X45837825Y-58587827D01*
X45734360Y-58742674D01*
X45602674Y-58874360D01*
X45447827Y-58977825D01*
X45275770Y-59049093D01*
X45093116Y-59085425D01*
X44906884Y-59085425D01*
X44724230Y-59049093D01*
X44552173Y-58977825D01*
X44397326Y-58874360D01*
X44265640Y-58742674D01*
X44162175Y-58587827D01*
X44090907Y-58415770D01*
X44054575Y-58233116D01*
X44054575Y-58046884D01*
X44090907Y-57864230D01*
X44162175Y-57692173D01*
X44265640Y-57537326D01*
X44397326Y-57405640D01*
X44552173Y-57302175D01*
X44724230Y-57230907D01*
X44906884Y-57194575D01*
X45093116Y-57194575D01*
X45275770Y-57230907D01*
G37*
G36*
X116804098Y-56340694D02*
G01*
X116976155Y-56411962D01*
X117131002Y-56515427D01*
X117262688Y-56647113D01*
X117366153Y-56801960D01*
X117437421Y-56974017D01*
X117473753Y-57156671D01*
X117473753Y-57342903D01*
X117437421Y-57525557D01*
X117366153Y-57697614D01*
X117262688Y-57852461D01*
X117131002Y-57984147D01*
X116976155Y-58087612D01*
X116804098Y-58158880D01*
X116621444Y-58195212D01*
X116435212Y-58195212D01*
X116252558Y-58158880D01*
X116080501Y-58087612D01*
X115925654Y-57984147D01*
X115793968Y-57852461D01*
X115690503Y-57697614D01*
X115619235Y-57525557D01*
X115582903Y-57342903D01*
X115582903Y-57156671D01*
X115619235Y-56974017D01*
X115690503Y-56801960D01*
X115793968Y-56647113D01*
X115925654Y-56515427D01*
X116080501Y-56411962D01*
X116252558Y-56340694D01*
X116435212Y-56304362D01*
X116621444Y-56304362D01*
X116804098Y-56340694D01*
G37*
G36*
X77775770Y-56210907D02*
G01*
X77947827Y-56282175D01*
X78102674Y-56385640D01*
X78234360Y-56517326D01*
X78337825Y-56672173D01*
X78409093Y-56844230D01*
X78445425Y-57026884D01*
X78445425Y-57213116D01*
X78409093Y-57395770D01*
X78337825Y-57567827D01*
X78234360Y-57722674D01*
X78102674Y-57854360D01*
X77947827Y-57957825D01*
X77775770Y-58029093D01*
X77593116Y-58065425D01*
X77406884Y-58065425D01*
X77224230Y-58029093D01*
X77052173Y-57957825D01*
X76897326Y-57854360D01*
X76765640Y-57722674D01*
X76662175Y-57567827D01*
X76590907Y-57395770D01*
X76554575Y-57213116D01*
X76554575Y-57026884D01*
X76590907Y-56844230D01*
X76662175Y-56672173D01*
X76765640Y-56517326D01*
X76897326Y-56385640D01*
X77052173Y-56282175D01*
X77224230Y-56210907D01*
X77406884Y-56174575D01*
X77593116Y-56174575D01*
X77775770Y-56210907D01*
G37*
G36*
X84958268Y-54667612D02*
G01*
X84990711Y-54689289D01*
X85012388Y-54721732D01*
X85020000Y-54760000D01*
X85020000Y-56460000D01*
X85012388Y-56498268D01*
X84990711Y-56530711D01*
X84958268Y-56552388D01*
X84920000Y-56560000D01*
X83220000Y-56560000D01*
X83181732Y-56552388D01*
X83149289Y-56530711D01*
X83127612Y-56498268D01*
X83120000Y-56460000D01*
X83120000Y-54760000D01*
X83127612Y-54721732D01*
X83149289Y-54689289D01*
X83181732Y-54667612D01*
X83220000Y-54660000D01*
X84920000Y-54660000D01*
X84958268Y-54667612D01*
G37*
G36*
X45888268Y-54657612D02*
G01*
X45920711Y-54679289D01*
X45942388Y-54711732D01*
X45950000Y-54750000D01*
X45950000Y-56450000D01*
X45942388Y-56488268D01*
X45920711Y-56520711D01*
X45888268Y-56542388D01*
X45850000Y-56550000D01*
X44150000Y-56550000D01*
X44111732Y-56542388D01*
X44079289Y-56520711D01*
X44057612Y-56488268D01*
X44050000Y-56450000D01*
X44050000Y-54750000D01*
X44057612Y-54711732D01*
X44079289Y-54679289D01*
X44111732Y-54657612D01*
X44150000Y-54650000D01*
X45850000Y-54650000D01*
X45888268Y-54657612D01*
G37*
G36*
X116804098Y-53800694D02*
G01*
X116976155Y-53871962D01*
X117131002Y-53975427D01*
X117262688Y-54107113D01*
X117366153Y-54261960D01*
X117437421Y-54434017D01*
X117473753Y-54616671D01*
X117473753Y-54802903D01*
X117437421Y-54985557D01*
X117366153Y-55157614D01*
X117262688Y-55312461D01*
X117131002Y-55444147D01*
X116976155Y-55547612D01*
X116804098Y-55618880D01*
X116621444Y-55655212D01*
X116435212Y-55655212D01*
X116252558Y-55618880D01*
X116080501Y-55547612D01*
X115925654Y-55444147D01*
X115793968Y-55312461D01*
X115690503Y-55157614D01*
X115619235Y-54985557D01*
X115582903Y-54802903D01*
X115582903Y-54616671D01*
X115619235Y-54434017D01*
X115690503Y-54261960D01*
X115793968Y-54107113D01*
X115925654Y-53975427D01*
X116080501Y-53871962D01*
X116252558Y-53800694D01*
X116435212Y-53764362D01*
X116621444Y-53764362D01*
X116804098Y-53800694D01*
G37*
G36*
X77775770Y-53670907D02*
G01*
X77947827Y-53742175D01*
X78102674Y-53845640D01*
X78234360Y-53977326D01*
X78337825Y-54132173D01*
X78409093Y-54304230D01*
X78445425Y-54486884D01*
X78445425Y-54673116D01*
X78409093Y-54855770D01*
X78337825Y-55027827D01*
X78234360Y-55182674D01*
X78102674Y-55314360D01*
X77947827Y-55417825D01*
X77775770Y-55489093D01*
X77593116Y-55525425D01*
X77406884Y-55525425D01*
X77224230Y-55489093D01*
X77052173Y-55417825D01*
X76897326Y-55314360D01*
X76765640Y-55182674D01*
X76662175Y-55027827D01*
X76590907Y-54855770D01*
X76554575Y-54673116D01*
X76554575Y-54486884D01*
X76590907Y-54304230D01*
X76662175Y-54132173D01*
X76765640Y-53977326D01*
X76897326Y-53845640D01*
X77052173Y-53742175D01*
X77224230Y-53670907D01*
X77406884Y-53634575D01*
X77593116Y-53634575D01*
X77775770Y-53670907D01*
G37*
G36*
X116804098Y-51260694D02*
G01*
X116976155Y-51331962D01*
X117131002Y-51435427D01*
X117262688Y-51567113D01*
X117366153Y-51721960D01*
X117437421Y-51894017D01*
X117473753Y-52076671D01*
X117473753Y-52262903D01*
X117437421Y-52445557D01*
X117366153Y-52617614D01*
X117262688Y-52772461D01*
X117131002Y-52904147D01*
X116976155Y-53007612D01*
X116804098Y-53078880D01*
X116621444Y-53115212D01*
X116435212Y-53115212D01*
X116252558Y-53078880D01*
X116080501Y-53007612D01*
X115925654Y-52904147D01*
X115793968Y-52772461D01*
X115690503Y-52617614D01*
X115619235Y-52445557D01*
X115582903Y-52262903D01*
X115582903Y-52076671D01*
X115619235Y-51894017D01*
X115690503Y-51721960D01*
X115793968Y-51567113D01*
X115925654Y-51435427D01*
X116080501Y-51331962D01*
X116252558Y-51260694D01*
X116435212Y-51224362D01*
X116621444Y-51224362D01*
X116804098Y-51260694D01*
G37*
G36*
X77775770Y-51130907D02*
G01*
X77947827Y-51202175D01*
X78102674Y-51305640D01*
X78234360Y-51437326D01*
X78337825Y-51592173D01*
X78409093Y-51764230D01*
X78445425Y-51946884D01*
X78445425Y-52133116D01*
X78409093Y-52315770D01*
X78337825Y-52487827D01*
X78234360Y-52642674D01*
X78102674Y-52774360D01*
X77947827Y-52877825D01*
X77775770Y-52949093D01*
X77593116Y-52985425D01*
X77406884Y-52985425D01*
X77224230Y-52949093D01*
X77052173Y-52877825D01*
X76897326Y-52774360D01*
X76765640Y-52642674D01*
X76662175Y-52487827D01*
X76590907Y-52315770D01*
X76554575Y-52133116D01*
X76554575Y-51946884D01*
X76590907Y-51764230D01*
X76662175Y-51592173D01*
X76765640Y-51437326D01*
X76897326Y-51305640D01*
X77052173Y-51202175D01*
X77224230Y-51130907D01*
X77406884Y-51094575D01*
X77593116Y-51094575D01*
X77775770Y-51130907D01*
G37*
G36*
X117416596Y-48687399D02*
G01*
X117449039Y-48709076D01*
X117470716Y-48741519D01*
X117478328Y-48779787D01*
X117478328Y-50479787D01*
X117470716Y-50518055D01*
X117449039Y-50550498D01*
X117416596Y-50572175D01*
X117378328Y-50579787D01*
X115678328Y-50579787D01*
X115640060Y-50572175D01*
X115607617Y-50550498D01*
X115585940Y-50518055D01*
X115578328Y-50479787D01*
X115578328Y-48779787D01*
X115585940Y-48741519D01*
X115607617Y-48709076D01*
X115640060Y-48687399D01*
X115678328Y-48679787D01*
X117378328Y-48679787D01*
X117416596Y-48687399D01*
G37*
G36*
X78388268Y-48557612D02*
G01*
X78420711Y-48579289D01*
X78442388Y-48611732D01*
X78450000Y-48650000D01*
X78450000Y-50350000D01*
X78442388Y-50388268D01*
X78420711Y-50420711D01*
X78388268Y-50442388D01*
X78350000Y-50450000D01*
X76650000Y-50450000D01*
X76611732Y-50442388D01*
X76579289Y-50420711D01*
X76557612Y-50388268D01*
X76550000Y-50350000D01*
X76550000Y-48650000D01*
X76557612Y-48611732D01*
X76579289Y-48579289D01*
X76611732Y-48557612D01*
X76650000Y-48550000D01*
X78350000Y-48550000D01*
X78388268Y-48557612D01*
G37*
G36*
X89334611Y-48111427D02*
G01*
X89341313Y-48113926D01*
X89346194Y-48114513D01*
X89403949Y-48137289D01*
X89467952Y-48161161D01*
X89471813Y-48164051D01*
X89473151Y-48164579D01*
X89521834Y-48201497D01*
X89581881Y-48246447D01*
X89626849Y-48306518D01*
X89663748Y-48355176D01*
X89664275Y-48356513D01*
X89667167Y-48360376D01*
X89691053Y-48424416D01*
X89713814Y-48482134D01*
X89714399Y-48487010D01*
X89716901Y-48493717D01*
X89728328Y-48600000D01*
X89728328Y-49800000D01*
X89716901Y-49906283D01*
X89714399Y-49912989D01*
X89713814Y-49917866D01*
X89691056Y-49975575D01*
X89667167Y-50039624D01*
X89664274Y-50043487D01*
X89663748Y-50044823D01*
X89626907Y-50093404D01*
X89581881Y-50153553D01*
X89521732Y-50198579D01*
X89473151Y-50235420D01*
X89471815Y-50235946D01*
X89467952Y-50238839D01*
X89403893Y-50262731D01*
X89346193Y-50285486D01*
X89341317Y-50286071D01*
X89334611Y-50288573D01*
X89228328Y-50300000D01*
X88028328Y-50300000D01*
X87922045Y-50288573D01*
X87915339Y-50286071D01*
X87910461Y-50285486D01*
X87852734Y-50262721D01*
X87788704Y-50238839D01*
X87784841Y-50235947D01*
X87783504Y-50235420D01*
X87734846Y-50198521D01*
X87674775Y-50153553D01*
X87629825Y-50093506D01*
X87592907Y-50044823D01*
X87592379Y-50043485D01*
X87589489Y-50039624D01*
X87565613Y-49975611D01*
X87542841Y-49917865D01*
X87542255Y-49912985D01*
X87539755Y-49906283D01*
X87528328Y-49800000D01*
X87528328Y-48600000D01*
X87539755Y-48493717D01*
X87542254Y-48487014D01*
X87542841Y-48482133D01*
X87565624Y-48424359D01*
X87589489Y-48360376D01*
X87592378Y-48356515D01*
X87592907Y-48355176D01*
X87629883Y-48306415D01*
X87674775Y-48246447D01*
X87734743Y-48201555D01*
X87783504Y-48164579D01*
X87784843Y-48164050D01*
X87788704Y-48161161D01*
X87852697Y-48137292D01*
X87910462Y-48114513D01*
X87915342Y-48113926D01*
X87922045Y-48111427D01*
X88028328Y-48100000D01*
X89228328Y-48100000D01*
X89334611Y-48111427D01*
G37*
G36*
X92666596Y-48107612D02*
G01*
X92699039Y-48129289D01*
X92720716Y-48161732D01*
X92728328Y-48200000D01*
X92728328Y-50200000D01*
X92720716Y-50238268D01*
X92699039Y-50270711D01*
X92666596Y-50292388D01*
X92628328Y-50300000D01*
X90628328Y-50300000D01*
X90590060Y-50292388D01*
X90557617Y-50270711D01*
X90535940Y-50238268D01*
X90528328Y-50200000D01*
X90528328Y-48200000D01*
X90535940Y-48161732D01*
X90557617Y-48129289D01*
X90590060Y-48107612D01*
X90628328Y-48100000D01*
X92628328Y-48100000D01*
X92666596Y-48107612D01*
G37*
M02*
