%TF.GenerationSoftware,KiCad,Pcbnew,9.0.4*%
%TF.CreationDate,2025-10-07T14:12:27+03:00*%
%TF.ProjectId,XIaoShield,5849616f-5368-4696-956c-642e6b696361,rev?*%
%TF.SameCoordinates,Original*%
%TF.FileFunction,Copper,L2,Bot*%
%TF.FilePolarity,Positive*%
%FSLAX46Y46*%
G04 Gerber Fmt 4.6, Leading zero omitted, Abs format (unit mm)*
G04 Created by KiCad (PCBNEW 9.0.4) date 2025-10-07 14:12:27*
%MOMM*%
%LPD*%
G01*
G04 APERTURE LIST*
G04 Aperture macros list*
%AMRoundRect*
0 Rectangle with rounded corners*
0 $1 Rounding radius*
0 $2 $3 $4 $5 $6 $7 $8 $9 X,Y pos of 4 corners*
0 Add a 4 corners polygon primitive as box body*
4,1,4,$2,$3,$4,$5,$6,$7,$8,$9,$2,$3,0*
0 Add four circle primitives for the rounded corners*
1,1,$1+$1,$2,$3*
1,1,$1+$1,$4,$5*
1,1,$1+$1,$6,$7*
1,1,$1+$1,$8,$9*
0 Add four rect primitives between the rounded corners*
20,1,$1+$1,$2,$3,$4,$5,0*
20,1,$1+$1,$4,$5,$6,$7,0*
20,1,$1+$1,$6,$7,$8,$9,0*
20,1,$1+$1,$8,$9,$2,$3,0*%
G04 Aperture macros list end*
%TA.AperFunction,ComponentPad*%
%ADD10R,1.700000X1.700000*%
%TD*%
%TA.AperFunction,ComponentPad*%
%ADD11C,1.700000*%
%TD*%
%TA.AperFunction,ComponentPad*%
%ADD12RoundRect,0.250000X-0.350000X-0.625000X0.350000X-0.625000X0.350000X0.625000X-0.350000X0.625000X0*%
%TD*%
%TA.AperFunction,ComponentPad*%
%ADD13O,1.200000X1.750000*%
%TD*%
%TA.AperFunction,ViaPad*%
%ADD14C,0.800000*%
%TD*%
%TA.AperFunction,Conductor*%
%ADD15C,0.250000*%
%TD*%
G04 APERTURE END LIST*
D10*
%TO.P,J6,1,Pin_1*%
%TO.N,VBAT*%
X182660000Y-67920000D03*
D11*
%TO.P,J6,2,Pin_2*%
%TO.N,Net-(D4-A)*%
X182660000Y-70460000D03*
%TD*%
D12*
%TO.P,J7,1,Pin_1*%
%TO.N,GND*%
X163530000Y-82080000D03*
D13*
%TO.P,J7,2,Pin_2*%
%TO.N,VBAT*%
X165530000Y-82080000D03*
%TD*%
D10*
%TO.P,J8,1,Pin_1*%
%TO.N,unconnected-(J8-Pin_1-Pad1)*%
X161000000Y-57200000D03*
D11*
%TO.P,J8,2,Pin_2*%
%TO.N,unconnected-(J8-Pin_2-Pad2)*%
X161000000Y-59740000D03*
%TO.P,J8,3,Pin_3*%
%TO.N,/BAT_V*%
X161000000Y-62280000D03*
%TO.P,J8,4,Pin_4*%
%TO.N,/M2*%
X161000000Y-64820000D03*
%TO.P,J8,5,Pin_5*%
%TO.N,INT_GYR*%
X161000000Y-67360000D03*
%TO.P,J8,6,Pin_6*%
%TO.N,IMU_SDA*%
X161000000Y-69900000D03*
%TO.P,J8,7,Pin_7*%
%TO.N,IMU_SCL*%
X161000000Y-72440000D03*
%TO.P,J8,8,Pin_8*%
%TO.N,/M3*%
X161000000Y-74980000D03*
%TO.P,J8,9,Pin_9*%
%TO.N,unconnected-(J8-Pin_9-Pad9)*%
X161000000Y-77520000D03*
%TD*%
D10*
%TO.P,J5,1,Pin_1*%
%TO.N,unconnected-(J5-Pin_1-Pad1)*%
X175600000Y-57200000D03*
D11*
%TO.P,J5,2,Pin_2*%
%TO.N,GND*%
X175600000Y-59740000D03*
%TO.P,J5,3,Pin_3*%
%TO.N,VCC*%
X175600000Y-62280000D03*
%TO.P,J5,4,Pin_4*%
%TO.N,/M1*%
X175600000Y-64820000D03*
%TO.P,J5,5,Pin_5*%
%TO.N,unconnected-(J5-Pin_5-Pad5)*%
X175600000Y-67360000D03*
%TO.P,J5,6,Pin_6*%
%TO.N,unconnected-(J5-Pin_6-Pad6)*%
X175600000Y-69900000D03*
%TO.P,J5,7,Pin_7*%
%TO.N,unconnected-(J5-Pin_7-Pad7)*%
X175600000Y-72440000D03*
%TO.P,J5,8,Pin_8*%
%TO.N,/M4*%
X175600000Y-74980000D03*
%TO.P,J5,9,Pin_9*%
%TO.N,unconnected-(J5-Pin_9-Pad9)*%
X175600000Y-77520000D03*
%TD*%
D10*
%TO.P,J4,1,Pin_1*%
%TO.N,Net-(D3-A)*%
X154000000Y-70540000D03*
D11*
%TO.P,J4,2,Pin_2*%
%TO.N,VBAT*%
X154000000Y-68000000D03*
%TD*%
D10*
%TO.P,J3,1,Pin_1*%
%TO.N,VBAT*%
X154000000Y-57460000D03*
D11*
%TO.P,J3,2,Pin_2*%
%TO.N,Net-(D2-A)*%
X154000000Y-60000000D03*
%TD*%
D10*
%TO.P,J1,1,Pin_1*%
%TO.N,Net-(D1-A)*%
X182680000Y-60070000D03*
D11*
%TO.P,J1,2,Pin_2*%
%TO.N,VBAT*%
X182680000Y-57530000D03*
%TD*%
D12*
%TO.P,J2,1,Pin_1*%
%TO.N,GND*%
X171060000Y-82060000D03*
D13*
%TO.P,J2,2,Pin_2*%
%TO.N,VBAT*%
X173060000Y-82060000D03*
%TD*%
D14*
%TO.N,GND*%
X179400000Y-66400000D03*
X158600000Y-72800000D03*
X163400000Y-67800000D03*
X166200000Y-63600000D03*
X168200000Y-66300000D03*
X158400000Y-61400000D03*
X169900000Y-73900000D03*
X166367653Y-71057653D03*
X178100000Y-76100000D03*
%TO.N,IMU_SDA*%
X165612653Y-72000000D03*
X164587347Y-70787347D03*
%TD*%
D15*
%TO.N,IMU_SDA*%
X165612653Y-72000000D02*
X165300000Y-72000000D01*
X165300000Y-72000000D02*
X164587347Y-71287347D01*
X164587347Y-71287347D02*
X164587347Y-70787347D01*
%TD*%
%TA.AperFunction,Conductor*%
%TO.N,GND*%
G36*
X183002702Y-52000617D02*
G01*
X183386771Y-52017386D01*
X183397506Y-52018326D01*
X183775971Y-52068152D01*
X183786597Y-52070025D01*
X184159284Y-52152648D01*
X184169710Y-52155442D01*
X184533765Y-52270227D01*
X184543911Y-52273920D01*
X184896578Y-52420000D01*
X184906369Y-52424566D01*
X185244942Y-52600816D01*
X185254310Y-52606224D01*
X185576244Y-52811318D01*
X185585105Y-52817523D01*
X185887930Y-53049889D01*
X185896217Y-53056843D01*
X186177635Y-53314715D01*
X186185284Y-53322364D01*
X186443156Y-53603782D01*
X186450110Y-53612069D01*
X186682476Y-53914894D01*
X186688681Y-53923755D01*
X186893775Y-54245689D01*
X186899183Y-54255057D01*
X187075430Y-54593623D01*
X187080002Y-54603427D01*
X187226075Y-54956078D01*
X187229775Y-54966244D01*
X187344554Y-55330278D01*
X187347354Y-55340727D01*
X187429971Y-55713389D01*
X187431849Y-55724042D01*
X187481671Y-56102473D01*
X187482614Y-56113249D01*
X187499382Y-56497297D01*
X187499500Y-56502706D01*
X187499500Y-81497293D01*
X187499382Y-81502702D01*
X187482614Y-81886750D01*
X187481671Y-81897526D01*
X187431849Y-82275957D01*
X187429971Y-82286610D01*
X187347354Y-82659272D01*
X187344554Y-82669721D01*
X187229775Y-83033755D01*
X187226075Y-83043921D01*
X187080002Y-83396572D01*
X187075430Y-83406376D01*
X186899183Y-83744942D01*
X186893775Y-83754310D01*
X186688681Y-84076244D01*
X186682476Y-84085105D01*
X186450110Y-84387930D01*
X186443156Y-84396217D01*
X186185284Y-84677635D01*
X186177635Y-84685284D01*
X185896217Y-84943156D01*
X185887930Y-84950110D01*
X185585105Y-85182476D01*
X185576244Y-85188681D01*
X185254310Y-85393775D01*
X185244942Y-85399183D01*
X184906376Y-85575430D01*
X184896572Y-85580002D01*
X184543921Y-85726075D01*
X184533755Y-85729775D01*
X184169721Y-85844554D01*
X184159272Y-85847354D01*
X183786610Y-85929971D01*
X183775957Y-85931849D01*
X183397526Y-85981671D01*
X183386750Y-85982614D01*
X183002703Y-85999382D01*
X182997294Y-85999500D01*
X154002706Y-85999500D01*
X153997297Y-85999382D01*
X153613249Y-85982614D01*
X153602473Y-85981671D01*
X153224042Y-85931849D01*
X153213389Y-85929971D01*
X152840727Y-85847354D01*
X152830278Y-85844554D01*
X152466244Y-85729775D01*
X152456078Y-85726075D01*
X152103427Y-85580002D01*
X152093623Y-85575430D01*
X151755057Y-85399183D01*
X151745689Y-85393775D01*
X151423755Y-85188681D01*
X151414894Y-85182476D01*
X151112069Y-84950110D01*
X151103782Y-84943156D01*
X150822364Y-84685284D01*
X150814715Y-84677635D01*
X150556843Y-84396217D01*
X150549889Y-84387930D01*
X150317523Y-84085105D01*
X150311318Y-84076244D01*
X150106224Y-83754310D01*
X150100816Y-83744942D01*
X149973924Y-83501185D01*
X149924566Y-83406369D01*
X149919997Y-83396572D01*
X149902724Y-83354871D01*
X149773920Y-83043911D01*
X149770224Y-83033755D01*
X149655442Y-82669710D01*
X149652648Y-82659284D01*
X149570025Y-82286597D01*
X149568152Y-82275971D01*
X149518326Y-81897506D01*
X149517386Y-81886771D01*
X149500618Y-81502702D01*
X149500500Y-81497293D01*
X149500500Y-80878711D01*
X153149500Y-80878711D01*
X153149500Y-81121288D01*
X153173330Y-81302302D01*
X153181162Y-81361789D01*
X153181367Y-81362555D01*
X153243947Y-81596104D01*
X153332546Y-81810000D01*
X153336776Y-81820212D01*
X153458064Y-82030289D01*
X153458066Y-82030292D01*
X153458067Y-82030293D01*
X153605733Y-82222736D01*
X153605739Y-82222743D01*
X153777256Y-82394260D01*
X153777263Y-82394266D01*
X153890321Y-82481018D01*
X153969711Y-82541936D01*
X154179788Y-82663224D01*
X154353037Y-82734986D01*
X154401321Y-82754986D01*
X154403900Y-82756054D01*
X154638211Y-82818838D01*
X154781462Y-82837697D01*
X154878711Y-82850500D01*
X154878712Y-82850500D01*
X155121289Y-82850500D01*
X155169388Y-82844167D01*
X155361789Y-82818838D01*
X155596100Y-82756054D01*
X155820212Y-82663224D01*
X156030289Y-82541936D01*
X156222738Y-82394265D01*
X156394265Y-82222738D01*
X156541936Y-82030289D01*
X156663224Y-81820212D01*
X156756054Y-81596100D01*
X156807256Y-81405013D01*
X162430000Y-81405013D01*
X162430000Y-81830000D01*
X163249670Y-81830000D01*
X163229925Y-81849745D01*
X163180556Y-81935255D01*
X163155000Y-82030630D01*
X163155000Y-82129370D01*
X163180556Y-82224745D01*
X163229925Y-82310255D01*
X163249670Y-82330000D01*
X162430001Y-82330000D01*
X162430001Y-82754986D01*
X162440494Y-82857697D01*
X162495641Y-83024119D01*
X162495643Y-83024124D01*
X162587684Y-83173345D01*
X162711654Y-83297315D01*
X162860875Y-83389356D01*
X162860880Y-83389358D01*
X163027302Y-83444505D01*
X163027309Y-83444506D01*
X163130019Y-83454999D01*
X163279999Y-83454999D01*
X163280000Y-83454998D01*
X163280000Y-82360330D01*
X163299745Y-82380075D01*
X163385255Y-82429444D01*
X163480630Y-82455000D01*
X163579370Y-82455000D01*
X163674745Y-82429444D01*
X163760255Y-82380075D01*
X163780000Y-82360330D01*
X163780000Y-83454999D01*
X163929972Y-83454999D01*
X163929986Y-83454998D01*
X164032697Y-83444505D01*
X164199119Y-83389358D01*
X164199124Y-83389356D01*
X164348345Y-83297315D01*
X164472315Y-83173345D01*
X164511945Y-83109094D01*
X164563893Y-83062368D01*
X164632855Y-83051145D01*
X164696937Y-83078988D01*
X164705166Y-83086508D01*
X164813072Y-83194414D01*
X164953212Y-83296232D01*
X165107555Y-83374873D01*
X165272299Y-83428402D01*
X165443389Y-83455500D01*
X165443390Y-83455500D01*
X165616610Y-83455500D01*
X165616611Y-83455500D01*
X165787701Y-83428402D01*
X165952445Y-83374873D01*
X166106788Y-83296232D01*
X166246928Y-83194414D01*
X166369414Y-83071928D01*
X166471232Y-82931788D01*
X166549873Y-82777445D01*
X166603402Y-82612701D01*
X166630500Y-82441611D01*
X166630500Y-81718389D01*
X166603402Y-81547299D01*
X166550672Y-81385013D01*
X169960000Y-81385013D01*
X169960000Y-81810000D01*
X170779670Y-81810000D01*
X170759925Y-81829745D01*
X170710556Y-81915255D01*
X170685000Y-82010630D01*
X170685000Y-82109370D01*
X170710556Y-82204745D01*
X170759925Y-82290255D01*
X170779670Y-82310000D01*
X169960001Y-82310000D01*
X169960001Y-82734986D01*
X169970494Y-82837697D01*
X170025641Y-83004119D01*
X170025643Y-83004124D01*
X170117684Y-83153345D01*
X170241654Y-83277315D01*
X170390875Y-83369356D01*
X170390880Y-83369358D01*
X170557302Y-83424505D01*
X170557309Y-83424506D01*
X170660019Y-83434999D01*
X170809999Y-83434999D01*
X170810000Y-83434998D01*
X170810000Y-82340330D01*
X170829745Y-82360075D01*
X170915255Y-82409444D01*
X171010630Y-82435000D01*
X171109370Y-82435000D01*
X171204745Y-82409444D01*
X171290255Y-82360075D01*
X171310000Y-82340330D01*
X171310000Y-83434999D01*
X171459972Y-83434999D01*
X171459986Y-83434998D01*
X171562697Y-83424505D01*
X171729119Y-83369358D01*
X171729124Y-83369356D01*
X171878345Y-83277315D01*
X172002315Y-83153345D01*
X172041945Y-83089094D01*
X172093893Y-83042368D01*
X172162855Y-83031145D01*
X172226937Y-83058988D01*
X172235166Y-83066508D01*
X172343072Y-83174414D01*
X172483212Y-83276232D01*
X172637555Y-83354873D01*
X172802299Y-83408402D01*
X172973389Y-83435500D01*
X172973390Y-83435500D01*
X173146610Y-83435500D01*
X173146611Y-83435500D01*
X173317701Y-83408402D01*
X173482445Y-83354873D01*
X173636788Y-83276232D01*
X173776928Y-83174414D01*
X173899414Y-83051928D01*
X174001232Y-82911788D01*
X174079873Y-82757445D01*
X174133402Y-82592701D01*
X174160500Y-82421611D01*
X174160500Y-81698389D01*
X174133402Y-81527299D01*
X174079873Y-81362555D01*
X174001232Y-81208212D01*
X173899414Y-81068072D01*
X173776928Y-80945586D01*
X173684883Y-80878711D01*
X180149500Y-80878711D01*
X180149500Y-81121288D01*
X180173330Y-81302302D01*
X180181162Y-81361789D01*
X180181367Y-81362555D01*
X180243947Y-81596104D01*
X180332546Y-81810000D01*
X180336776Y-81820212D01*
X180458064Y-82030289D01*
X180458066Y-82030292D01*
X180458067Y-82030293D01*
X180605733Y-82222736D01*
X180605739Y-82222743D01*
X180777256Y-82394260D01*
X180777263Y-82394266D01*
X180890321Y-82481018D01*
X180969711Y-82541936D01*
X181179788Y-82663224D01*
X181353037Y-82734986D01*
X181401321Y-82754986D01*
X181403900Y-82756054D01*
X181638211Y-82818838D01*
X181781462Y-82837697D01*
X181878711Y-82850500D01*
X181878712Y-82850500D01*
X182121289Y-82850500D01*
X182169388Y-82844167D01*
X182361789Y-82818838D01*
X182596100Y-82756054D01*
X182820212Y-82663224D01*
X183030289Y-82541936D01*
X183222738Y-82394265D01*
X183394265Y-82222738D01*
X183541936Y-82030289D01*
X183663224Y-81820212D01*
X183756054Y-81596100D01*
X183818838Y-81361789D01*
X183850500Y-81121288D01*
X183850500Y-80878712D01*
X183818838Y-80638211D01*
X183756054Y-80403900D01*
X183663224Y-80179788D01*
X183541936Y-79969711D01*
X183394265Y-79777262D01*
X183394260Y-79777256D01*
X183222743Y-79605739D01*
X183222736Y-79605733D01*
X183030293Y-79458067D01*
X183030292Y-79458066D01*
X183030289Y-79458064D01*
X182820212Y-79336776D01*
X182820205Y-79336773D01*
X182596104Y-79243947D01*
X182361785Y-79181161D01*
X182121289Y-79149500D01*
X182121288Y-79149500D01*
X181878712Y-79149500D01*
X181878711Y-79149500D01*
X181638214Y-79181161D01*
X181403895Y-79243947D01*
X181179794Y-79336773D01*
X181179785Y-79336777D01*
X180969706Y-79458067D01*
X180777263Y-79605733D01*
X180777256Y-79605739D01*
X180605739Y-79777256D01*
X180605733Y-79777263D01*
X180458067Y-79969706D01*
X180336777Y-80179785D01*
X180336773Y-80179794D01*
X180243947Y-80403895D01*
X180181161Y-80638214D01*
X180149500Y-80878711D01*
X173684883Y-80878711D01*
X173636788Y-80843768D01*
X173482445Y-80765127D01*
X173317701Y-80711598D01*
X173317699Y-80711597D01*
X173317698Y-80711597D01*
X173186271Y-80690781D01*
X173146611Y-80684500D01*
X172973389Y-80684500D01*
X172933728Y-80690781D01*
X172802302Y-80711597D01*
X172637552Y-80765128D01*
X172483211Y-80843768D01*
X172343073Y-80945585D01*
X172235166Y-81053492D01*
X172173843Y-81086976D01*
X172104151Y-81081992D01*
X172048218Y-81040120D01*
X172041946Y-81030906D01*
X172002317Y-80966656D01*
X171878345Y-80842684D01*
X171729124Y-80750643D01*
X171729119Y-80750641D01*
X171562697Y-80695494D01*
X171562690Y-80695493D01*
X171459986Y-80685000D01*
X171310000Y-80685000D01*
X171310000Y-81779670D01*
X171290255Y-81759925D01*
X171204745Y-81710556D01*
X171109370Y-81685000D01*
X171010630Y-81685000D01*
X170915255Y-81710556D01*
X170829745Y-81759925D01*
X170810000Y-81779670D01*
X170810000Y-80685000D01*
X170660027Y-80685000D01*
X170660012Y-80685001D01*
X170557302Y-80695494D01*
X170390880Y-80750641D01*
X170390875Y-80750643D01*
X170241654Y-80842684D01*
X170117684Y-80966654D01*
X170025643Y-81115875D01*
X170025641Y-81115880D01*
X169970494Y-81282302D01*
X169970493Y-81282309D01*
X169960000Y-81385013D01*
X166550672Y-81385013D01*
X166549873Y-81382555D01*
X166471232Y-81228212D01*
X166369414Y-81088072D01*
X166246928Y-80965586D01*
X166106788Y-80863768D01*
X165952445Y-80785127D01*
X165787701Y-80731598D01*
X165787699Y-80731597D01*
X165787698Y-80731597D01*
X165656271Y-80710781D01*
X165616611Y-80704500D01*
X165443389Y-80704500D01*
X165403728Y-80710781D01*
X165272302Y-80731597D01*
X165107552Y-80785128D01*
X164953211Y-80863768D01*
X164813073Y-80965585D01*
X164705166Y-81073492D01*
X164643843Y-81106976D01*
X164574151Y-81101992D01*
X164518218Y-81060120D01*
X164511946Y-81050906D01*
X164472317Y-80986656D01*
X164348345Y-80862684D01*
X164199124Y-80770643D01*
X164199119Y-80770641D01*
X164032697Y-80715494D01*
X164032690Y-80715493D01*
X163929986Y-80705000D01*
X163780000Y-80705000D01*
X163780000Y-81799670D01*
X163760255Y-81779925D01*
X163674745Y-81730556D01*
X163579370Y-81705000D01*
X163480630Y-81705000D01*
X163385255Y-81730556D01*
X163299745Y-81779925D01*
X163280000Y-81799670D01*
X163280000Y-80705000D01*
X163130027Y-80705000D01*
X163130012Y-80705001D01*
X163027302Y-80715494D01*
X162860880Y-80770641D01*
X162860875Y-80770643D01*
X162711654Y-80862684D01*
X162587684Y-80986654D01*
X162495643Y-81135875D01*
X162495641Y-81135880D01*
X162440494Y-81302302D01*
X162440493Y-81302309D01*
X162430000Y-81405013D01*
X156807256Y-81405013D01*
X156818838Y-81361789D01*
X156850500Y-81121288D01*
X156850500Y-80878712D01*
X156818838Y-80638211D01*
X156756054Y-80403900D01*
X156663224Y-80179788D01*
X156541936Y-79969711D01*
X156394265Y-79777262D01*
X156394260Y-79777256D01*
X156222743Y-79605739D01*
X156222736Y-79605733D01*
X156030293Y-79458067D01*
X156030292Y-79458066D01*
X156030289Y-79458064D01*
X155820212Y-79336776D01*
X155820205Y-79336773D01*
X155596104Y-79243947D01*
X155361785Y-79181161D01*
X155121289Y-79149500D01*
X155121288Y-79149500D01*
X154878712Y-79149500D01*
X154878711Y-79149500D01*
X154638214Y-79181161D01*
X154403895Y-79243947D01*
X154179794Y-79336773D01*
X154179785Y-79336777D01*
X153969706Y-79458067D01*
X153777263Y-79605733D01*
X153777256Y-79605739D01*
X153605739Y-79777256D01*
X153605733Y-79777263D01*
X153458067Y-79969706D01*
X153336777Y-80179785D01*
X153336773Y-80179794D01*
X153243947Y-80403895D01*
X153181161Y-80638214D01*
X153149500Y-80878711D01*
X149500500Y-80878711D01*
X149500500Y-67893713D01*
X152649500Y-67893713D01*
X152649500Y-68106286D01*
X152682753Y-68316239D01*
X152748444Y-68518414D01*
X152844951Y-68707820D01*
X152969890Y-68879786D01*
X153083430Y-68993326D01*
X153116915Y-69054649D01*
X153111931Y-69124341D01*
X153070059Y-69180274D01*
X153039083Y-69197189D01*
X152907669Y-69246203D01*
X152907664Y-69246206D01*
X152792455Y-69332452D01*
X152792452Y-69332455D01*
X152706206Y-69447664D01*
X152706202Y-69447671D01*
X152655908Y-69582517D01*
X152649501Y-69642116D01*
X152649501Y-69642123D01*
X152649500Y-69642135D01*
X152649500Y-71437870D01*
X152649501Y-71437876D01*
X152655908Y-71497483D01*
X152706202Y-71632328D01*
X152706206Y-71632335D01*
X152792452Y-71747544D01*
X152792455Y-71747547D01*
X152907664Y-71833793D01*
X152907671Y-71833797D01*
X153042517Y-71884091D01*
X153042516Y-71884091D01*
X153049444Y-71884835D01*
X153102127Y-71890500D01*
X154897872Y-71890499D01*
X154957483Y-71884091D01*
X155092331Y-71833796D01*
X155207546Y-71747546D01*
X155293796Y-71632331D01*
X155344091Y-71497483D01*
X155350500Y-71437873D01*
X155350499Y-69642128D01*
X155344091Y-69582517D01*
X155343232Y-69580215D01*
X155293797Y-69447671D01*
X155293793Y-69447664D01*
X155207547Y-69332455D01*
X155207544Y-69332452D01*
X155092335Y-69246206D01*
X155092328Y-69246202D01*
X154960917Y-69197189D01*
X154904983Y-69155318D01*
X154880566Y-69089853D01*
X154895418Y-69021580D01*
X154916563Y-68993332D01*
X155030104Y-68879792D01*
X155075091Y-68817873D01*
X155155048Y-68707820D01*
X155155047Y-68707820D01*
X155155051Y-68707816D01*
X155251557Y-68518412D01*
X155317246Y-68316243D01*
X155350500Y-68106287D01*
X155350500Y-67893713D01*
X155317246Y-67683757D01*
X155251557Y-67481588D01*
X155155051Y-67292184D01*
X155155049Y-67292181D01*
X155155048Y-67292179D01*
X155030109Y-67120213D01*
X154879786Y-66969890D01*
X154707820Y-66844951D01*
X154518414Y-66748444D01*
X154518413Y-66748443D01*
X154518412Y-66748443D01*
X154316243Y-66682754D01*
X154316241Y-66682753D01*
X154316240Y-66682753D01*
X154154957Y-66657208D01*
X154106287Y-66649500D01*
X153893713Y-66649500D01*
X153845042Y-66657208D01*
X153683760Y-66682753D01*
X153481585Y-66748444D01*
X153292179Y-66844951D01*
X153120213Y-66969890D01*
X152969890Y-67120213D01*
X152844951Y-67292179D01*
X152748444Y-67481585D01*
X152682753Y-67683760D01*
X152649500Y-67893713D01*
X149500500Y-67893713D01*
X149500500Y-56562135D01*
X152649500Y-56562135D01*
X152649500Y-58357870D01*
X152649501Y-58357876D01*
X152655908Y-58417483D01*
X152706202Y-58552328D01*
X152706206Y-58552335D01*
X152792452Y-58667544D01*
X152792455Y-58667547D01*
X152907664Y-58753793D01*
X152907671Y-58753797D01*
X153039082Y-58802810D01*
X153095016Y-58844681D01*
X153119433Y-58910145D01*
X153104582Y-58978418D01*
X153083431Y-59006673D01*
X152969889Y-59120215D01*
X152844951Y-59292179D01*
X152748444Y-59481585D01*
X152682753Y-59683760D01*
X152649500Y-59893713D01*
X152649500Y-60106286D01*
X152673594Y-60258414D01*
X152682754Y-60316243D01*
X152743018Y-60501717D01*
X152748444Y-60518414D01*
X152844951Y-60707820D01*
X152969890Y-60879786D01*
X153120213Y-61030109D01*
X153292179Y-61155048D01*
X153292181Y-61155049D01*
X153292184Y-61155051D01*
X153481588Y-61251557D01*
X153683757Y-61317246D01*
X153893713Y-61350500D01*
X153893714Y-61350500D01*
X154106286Y-61350500D01*
X154106287Y-61350500D01*
X154316243Y-61317246D01*
X154518412Y-61251557D01*
X154707816Y-61155051D01*
X154729789Y-61139086D01*
X154879786Y-61030109D01*
X154879788Y-61030106D01*
X154879792Y-61030104D01*
X155030104Y-60879792D01*
X155030106Y-60879788D01*
X155030109Y-60879786D01*
X155155048Y-60707820D01*
X155155047Y-60707820D01*
X155155051Y-60707816D01*
X155251557Y-60518412D01*
X155317246Y-60316243D01*
X155350500Y-60106287D01*
X155350500Y-59893713D01*
X155317246Y-59683757D01*
X155251557Y-59481588D01*
X155155051Y-59292184D01*
X155155049Y-59292181D01*
X155155048Y-59292179D01*
X155030109Y-59120213D01*
X154916569Y-59006673D01*
X154883084Y-58945350D01*
X154888068Y-58875658D01*
X154929940Y-58819725D01*
X154960915Y-58802810D01*
X155092331Y-58753796D01*
X155207546Y-58667546D01*
X155293796Y-58552331D01*
X155344091Y-58417483D01*
X155350500Y-58357873D01*
X155350499Y-56562128D01*
X155344091Y-56502517D01*
X155343152Y-56500000D01*
X155293797Y-56367671D01*
X155293796Y-56367670D01*
X155293796Y-56367669D01*
X155244737Y-56302135D01*
X159649500Y-56302135D01*
X159649500Y-58097870D01*
X159649501Y-58097876D01*
X159655908Y-58157483D01*
X159706202Y-58292328D01*
X159706206Y-58292335D01*
X159792452Y-58407544D01*
X159792455Y-58407547D01*
X159907664Y-58493793D01*
X159907671Y-58493797D01*
X160039082Y-58542810D01*
X160095016Y-58584681D01*
X160119433Y-58650145D01*
X160104582Y-58718418D01*
X160083431Y-58746673D01*
X159969889Y-58860215D01*
X159844951Y-59032179D01*
X159748444Y-59221585D01*
X159682753Y-59423760D01*
X159649500Y-59633713D01*
X159649500Y-59846286D01*
X159682735Y-60056127D01*
X159682754Y-60056243D01*
X159699014Y-60106287D01*
X159748444Y-60258414D01*
X159844951Y-60447820D01*
X159969890Y-60619786D01*
X160120213Y-60770109D01*
X160292182Y-60895050D01*
X160300946Y-60899516D01*
X160351742Y-60947491D01*
X160368536Y-61015312D01*
X160345998Y-61081447D01*
X160300946Y-61120484D01*
X160292182Y-61124949D01*
X160120213Y-61249890D01*
X159969890Y-61400213D01*
X159844951Y-61572179D01*
X159748444Y-61761585D01*
X159682753Y-61963760D01*
X159649500Y-62173713D01*
X159649500Y-62386286D01*
X159682753Y-62596239D01*
X159748444Y-62798414D01*
X159844951Y-62987820D01*
X159969890Y-63159786D01*
X160120213Y-63310109D01*
X160292182Y-63435050D01*
X160300946Y-63439516D01*
X160351742Y-63487491D01*
X160368536Y-63555312D01*
X160345998Y-63621447D01*
X160300946Y-63660484D01*
X160292182Y-63664949D01*
X160120213Y-63789890D01*
X159969890Y-63940213D01*
X159844951Y-64112179D01*
X159748444Y-64301585D01*
X159682753Y-64503760D01*
X159649500Y-64713713D01*
X159649500Y-64926286D01*
X159682753Y-65136239D01*
X159748444Y-65338414D01*
X159844951Y-65527820D01*
X159969890Y-65699786D01*
X160120213Y-65850109D01*
X160292182Y-65975050D01*
X160300946Y-65979516D01*
X160351742Y-66027491D01*
X160368536Y-66095312D01*
X160345998Y-66161447D01*
X160300946Y-66200484D01*
X160292182Y-66204949D01*
X160120213Y-66329890D01*
X159969890Y-66480213D01*
X159844951Y-66652179D01*
X159748444Y-66841585D01*
X159682753Y-67043760D01*
X159670645Y-67120208D01*
X159649500Y-67253713D01*
X159649500Y-67466287D01*
X159682754Y-67676243D01*
X159685196Y-67683760D01*
X159748444Y-67878414D01*
X159844951Y-68067820D01*
X159969890Y-68239786D01*
X160120213Y-68390109D01*
X160292182Y-68515050D01*
X160300946Y-68519516D01*
X160351742Y-68567491D01*
X160368536Y-68635312D01*
X160345998Y-68701447D01*
X160300946Y-68740484D01*
X160292182Y-68744949D01*
X160120213Y-68869890D01*
X159969890Y-69020213D01*
X159844951Y-69192179D01*
X159748444Y-69381585D01*
X159682753Y-69583760D01*
X159649500Y-69793713D01*
X159649500Y-70006286D01*
X159682289Y-70213312D01*
X159682754Y-70216243D01*
X159729721Y-70360793D01*
X159748444Y-70418414D01*
X159844951Y-70607820D01*
X159969890Y-70779786D01*
X160120213Y-70930109D01*
X160292182Y-71055050D01*
X160300946Y-71059516D01*
X160351742Y-71107491D01*
X160368536Y-71175312D01*
X160345998Y-71241447D01*
X160300946Y-71280484D01*
X160292182Y-71284949D01*
X160120213Y-71409890D01*
X159969890Y-71560213D01*
X159844951Y-71732179D01*
X159748444Y-71921585D01*
X159682753Y-72123760D01*
X159649500Y-72333713D01*
X159649500Y-72546286D01*
X159682753Y-72756239D01*
X159748444Y-72958414D01*
X159844951Y-73147820D01*
X159969890Y-73319786D01*
X160120213Y-73470109D01*
X160292182Y-73595050D01*
X160300946Y-73599516D01*
X160351742Y-73647491D01*
X160368536Y-73715312D01*
X160345998Y-73781447D01*
X160300946Y-73820484D01*
X160292182Y-73824949D01*
X160120213Y-73949890D01*
X159969890Y-74100213D01*
X159844951Y-74272179D01*
X159748444Y-74461585D01*
X159682753Y-74663760D01*
X159649500Y-74873713D01*
X159649500Y-75086286D01*
X159682753Y-75296239D01*
X159748444Y-75498414D01*
X159844951Y-75687820D01*
X159969890Y-75859786D01*
X160120213Y-76010109D01*
X160292182Y-76135050D01*
X160300946Y-76139516D01*
X160351742Y-76187491D01*
X160368536Y-76255312D01*
X160345998Y-76321447D01*
X160300946Y-76360484D01*
X160292182Y-76364949D01*
X160120213Y-76489890D01*
X159969890Y-76640213D01*
X159844951Y-76812179D01*
X159748444Y-77001585D01*
X159682753Y-77203760D01*
X159649500Y-77413713D01*
X159649500Y-77626286D01*
X159682753Y-77836239D01*
X159748444Y-78038414D01*
X159844951Y-78227820D01*
X159969890Y-78399786D01*
X160120213Y-78550109D01*
X160292179Y-78675048D01*
X160292181Y-78675049D01*
X160292184Y-78675051D01*
X160481588Y-78771557D01*
X160683757Y-78837246D01*
X160893713Y-78870500D01*
X160893714Y-78870500D01*
X161106286Y-78870500D01*
X161106287Y-78870500D01*
X161316243Y-78837246D01*
X161518412Y-78771557D01*
X161707816Y-78675051D01*
X161729789Y-78659086D01*
X161879786Y-78550109D01*
X161879788Y-78550106D01*
X161879792Y-78550104D01*
X162030104Y-78399792D01*
X162030106Y-78399788D01*
X162030109Y-78399786D01*
X162155048Y-78227820D01*
X162155047Y-78227820D01*
X162155051Y-78227816D01*
X162251557Y-78038412D01*
X162317246Y-77836243D01*
X162350500Y-77626287D01*
X162350500Y-77413713D01*
X162317246Y-77203757D01*
X162251557Y-77001588D01*
X162155051Y-76812184D01*
X162155049Y-76812181D01*
X162155048Y-76812179D01*
X162030109Y-76640213D01*
X161879786Y-76489890D01*
X161707820Y-76364951D01*
X161707115Y-76364591D01*
X161699054Y-76360485D01*
X161648259Y-76312512D01*
X161631463Y-76244692D01*
X161653999Y-76178556D01*
X161699054Y-76139515D01*
X161707816Y-76135051D01*
X161729789Y-76119086D01*
X161879786Y-76010109D01*
X161879788Y-76010106D01*
X161879792Y-76010104D01*
X162030104Y-75859792D01*
X162030106Y-75859788D01*
X162030109Y-75859786D01*
X162155048Y-75687820D01*
X162155047Y-75687820D01*
X162155051Y-75687816D01*
X162251557Y-75498412D01*
X162317246Y-75296243D01*
X162350500Y-75086287D01*
X162350500Y-74873713D01*
X162317246Y-74663757D01*
X162251557Y-74461588D01*
X162155051Y-74272184D01*
X162155049Y-74272181D01*
X162155048Y-74272179D01*
X162030109Y-74100213D01*
X161879786Y-73949890D01*
X161707820Y-73824951D01*
X161707115Y-73824591D01*
X161699054Y-73820485D01*
X161648259Y-73772512D01*
X161631463Y-73704692D01*
X161653999Y-73638556D01*
X161699054Y-73599515D01*
X161707816Y-73595051D01*
X161729789Y-73579086D01*
X161879786Y-73470109D01*
X161879788Y-73470106D01*
X161879792Y-73470104D01*
X162030104Y-73319792D01*
X162030106Y-73319788D01*
X162030109Y-73319786D01*
X162155048Y-73147820D01*
X162155047Y-73147820D01*
X162155051Y-73147816D01*
X162251557Y-72958412D01*
X162317246Y-72756243D01*
X162350500Y-72546287D01*
X162350500Y-72333713D01*
X162317246Y-72123757D01*
X162251557Y-71921588D01*
X162155051Y-71732184D01*
X162155049Y-71732181D01*
X162155048Y-71732179D01*
X162030109Y-71560213D01*
X161879786Y-71409890D01*
X161707820Y-71284951D01*
X161707115Y-71284591D01*
X161699054Y-71280485D01*
X161648259Y-71232512D01*
X161631463Y-71164692D01*
X161653999Y-71098556D01*
X161699054Y-71059515D01*
X161707816Y-71055051D01*
X161813299Y-70978414D01*
X161879786Y-70930109D01*
X161879788Y-70930106D01*
X161879792Y-70930104D01*
X162030104Y-70779792D01*
X162040092Y-70766043D01*
X162089056Y-70698651D01*
X163686847Y-70698651D01*
X163686847Y-70876042D01*
X163721450Y-71050005D01*
X163721453Y-71050014D01*
X163789330Y-71213887D01*
X163789337Y-71213900D01*
X163887881Y-71361380D01*
X163887882Y-71361381D01*
X163887883Y-71361382D01*
X163961079Y-71434578D01*
X163962897Y-71437105D01*
X163964342Y-71437967D01*
X163971095Y-71448501D01*
X163984405Y-71467004D01*
X163986321Y-71470855D01*
X164033035Y-71583633D01*
X164065575Y-71632331D01*
X164069963Y-71638898D01*
X164069965Y-71638902D01*
X164101485Y-71686075D01*
X164101486Y-71686076D01*
X164101489Y-71686080D01*
X164188614Y-71773205D01*
X164188616Y-71773206D01*
X164195682Y-71780272D01*
X164195681Y-71780272D01*
X164195685Y-71780275D01*
X164777882Y-72362473D01*
X164804761Y-72402700D01*
X164814636Y-72426540D01*
X164814638Y-72426544D01*
X164913188Y-72574034D01*
X164913191Y-72574038D01*
X165038614Y-72699461D01*
X165038618Y-72699464D01*
X165186099Y-72798009D01*
X165186112Y-72798016D01*
X165309016Y-72848923D01*
X165349987Y-72865894D01*
X165349989Y-72865894D01*
X165349994Y-72865896D01*
X165523957Y-72900499D01*
X165523960Y-72900500D01*
X165523962Y-72900500D01*
X165701346Y-72900500D01*
X165701347Y-72900499D01*
X165759335Y-72888964D01*
X165875311Y-72865896D01*
X165875314Y-72865894D01*
X165875319Y-72865894D01*
X166039200Y-72798013D01*
X166186688Y-72699464D01*
X166312117Y-72574035D01*
X166410666Y-72426547D01*
X166478547Y-72262666D01*
X166513153Y-72088691D01*
X166513153Y-71911309D01*
X166513153Y-71911306D01*
X166513152Y-71911304D01*
X166478549Y-71737341D01*
X166478546Y-71737332D01*
X166410669Y-71573459D01*
X166410662Y-71573446D01*
X166312117Y-71425965D01*
X166312114Y-71425961D01*
X166186691Y-71300538D01*
X166186687Y-71300535D01*
X166039206Y-71201990D01*
X166039193Y-71201983D01*
X165875320Y-71134106D01*
X165875311Y-71134103D01*
X165701347Y-71099500D01*
X165701344Y-71099500D01*
X165594492Y-71099500D01*
X165527453Y-71079815D01*
X165481698Y-71027011D01*
X165471754Y-70957853D01*
X165472875Y-70951308D01*
X165487847Y-70876040D01*
X165487847Y-70698653D01*
X165487846Y-70698651D01*
X165453243Y-70524688D01*
X165453240Y-70524679D01*
X165385363Y-70360806D01*
X165385356Y-70360793D01*
X165286811Y-70213312D01*
X165286808Y-70213308D01*
X165161385Y-70087885D01*
X165161381Y-70087882D01*
X165013900Y-69989337D01*
X165013887Y-69989330D01*
X164850014Y-69921453D01*
X164850005Y-69921450D01*
X164676041Y-69886847D01*
X164676038Y-69886847D01*
X164498656Y-69886847D01*
X164498653Y-69886847D01*
X164324688Y-69921450D01*
X164324679Y-69921453D01*
X164160806Y-69989330D01*
X164160793Y-69989337D01*
X164013312Y-70087882D01*
X164013308Y-70087885D01*
X163887885Y-70213308D01*
X163887882Y-70213312D01*
X163789337Y-70360793D01*
X163789330Y-70360806D01*
X163721453Y-70524679D01*
X163721450Y-70524688D01*
X163686847Y-70698651D01*
X162089056Y-70698651D01*
X162146433Y-70619679D01*
X162155048Y-70607820D01*
X162155051Y-70607816D01*
X162251557Y-70418412D01*
X162317246Y-70216243D01*
X162350500Y-70006287D01*
X162350500Y-69793713D01*
X162317246Y-69583757D01*
X162251557Y-69381588D01*
X162155051Y-69192184D01*
X162155049Y-69192181D01*
X162155048Y-69192179D01*
X162030109Y-69020213D01*
X161879786Y-68869890D01*
X161707820Y-68744951D01*
X161707115Y-68744591D01*
X161699054Y-68740485D01*
X161648259Y-68692512D01*
X161631463Y-68624692D01*
X161653999Y-68558556D01*
X161699054Y-68519515D01*
X161707816Y-68515051D01*
X161729789Y-68499086D01*
X161879786Y-68390109D01*
X161879788Y-68390106D01*
X161879792Y-68390104D01*
X162030104Y-68239792D01*
X162030106Y-68239788D01*
X162030109Y-68239786D01*
X162155048Y-68067820D01*
X162155047Y-68067820D01*
X162155051Y-68067816D01*
X162251557Y-67878412D01*
X162317246Y-67676243D01*
X162350500Y-67466287D01*
X162350500Y-67253713D01*
X162317246Y-67043757D01*
X162251557Y-66841588D01*
X162155051Y-66652184D01*
X162155049Y-66652181D01*
X162155048Y-66652179D01*
X162030109Y-66480213D01*
X161879786Y-66329890D01*
X161707820Y-66204951D01*
X161707115Y-66204591D01*
X161699054Y-66200485D01*
X161648259Y-66152512D01*
X161631463Y-66084692D01*
X161653999Y-66018556D01*
X161699054Y-65979515D01*
X161707816Y-65975051D01*
X161729789Y-65959086D01*
X161879786Y-65850109D01*
X161879788Y-65850106D01*
X161879792Y-65850104D01*
X162030104Y-65699792D01*
X162030106Y-65699788D01*
X162030109Y-65699786D01*
X162155048Y-65527820D01*
X162155047Y-65527820D01*
X162155051Y-65527816D01*
X162251557Y-65338412D01*
X162317246Y-65136243D01*
X162350500Y-64926287D01*
X162350500Y-64713713D01*
X162317246Y-64503757D01*
X162251557Y-64301588D01*
X162155051Y-64112184D01*
X162155049Y-64112181D01*
X162155048Y-64112179D01*
X162030109Y-63940213D01*
X161879786Y-63789890D01*
X161707820Y-63664951D01*
X161707115Y-63664591D01*
X161699054Y-63660485D01*
X161648259Y-63612512D01*
X161631463Y-63544692D01*
X161653999Y-63478556D01*
X161699054Y-63439515D01*
X161707816Y-63435051D01*
X161729789Y-63419086D01*
X161879786Y-63310109D01*
X161879788Y-63310106D01*
X161879792Y-63310104D01*
X162030104Y-63159792D01*
X162030106Y-63159788D01*
X162030109Y-63159786D01*
X162155048Y-62987820D01*
X162155047Y-62987820D01*
X162155051Y-62987816D01*
X162251557Y-62798412D01*
X162317246Y-62596243D01*
X162350500Y-62386287D01*
X162350500Y-62173713D01*
X162317246Y-61963757D01*
X162251557Y-61761588D01*
X162155051Y-61572184D01*
X162155049Y-61572181D01*
X162155048Y-61572179D01*
X162030109Y-61400213D01*
X161879786Y-61249890D01*
X161707820Y-61124951D01*
X161707115Y-61124591D01*
X161699054Y-61120485D01*
X161648259Y-61072512D01*
X161631463Y-61004692D01*
X161653999Y-60938556D01*
X161699054Y-60899515D01*
X161707816Y-60895051D01*
X161762572Y-60855269D01*
X161879786Y-60770109D01*
X161879788Y-60770106D01*
X161879792Y-60770104D01*
X162030104Y-60619792D01*
X162030106Y-60619788D01*
X162030109Y-60619786D01*
X162155048Y-60447820D01*
X162155047Y-60447820D01*
X162155051Y-60447816D01*
X162251557Y-60258412D01*
X162317246Y-60056243D01*
X162350500Y-59846287D01*
X162350500Y-59633713D01*
X162317246Y-59423757D01*
X162251557Y-59221588D01*
X162155051Y-59032184D01*
X162155049Y-59032181D01*
X162155048Y-59032179D01*
X162030109Y-58860213D01*
X161916569Y-58746673D01*
X161883084Y-58685350D01*
X161888068Y-58615658D01*
X161929940Y-58559725D01*
X161960915Y-58542810D01*
X162092331Y-58493796D01*
X162207546Y-58407546D01*
X162293796Y-58292331D01*
X162344091Y-58157483D01*
X162350500Y-58097873D01*
X162350499Y-56302128D01*
X162344091Y-56242517D01*
X162320587Y-56179500D01*
X162293797Y-56107671D01*
X162293793Y-56107664D01*
X162207547Y-55992456D01*
X162207548Y-55992456D01*
X162207546Y-55992454D01*
X162182786Y-55973918D01*
X162182785Y-55973917D01*
X162092335Y-55906206D01*
X162092328Y-55906202D01*
X162018620Y-55878711D01*
X166649500Y-55878711D01*
X166649500Y-56121288D01*
X166681161Y-56361785D01*
X166743947Y-56596104D01*
X166836773Y-56820205D01*
X166836777Y-56820214D01*
X166858974Y-56858661D01*
X166958064Y-57030289D01*
X166958066Y-57030292D01*
X166958067Y-57030293D01*
X167105733Y-57222736D01*
X167105739Y-57222743D01*
X167277256Y-57394260D01*
X167277262Y-57394265D01*
X167469711Y-57541936D01*
X167679788Y-57663224D01*
X167903900Y-57756054D01*
X168138211Y-57818838D01*
X168318586Y-57842584D01*
X168378711Y-57850500D01*
X168378712Y-57850500D01*
X168621289Y-57850500D01*
X168669388Y-57844167D01*
X168861789Y-57818838D01*
X169096100Y-57756054D01*
X169320212Y-57663224D01*
X169530289Y-57541936D01*
X169722738Y-57394265D01*
X169894265Y-57222738D01*
X170041936Y-57030289D01*
X170163224Y-56820212D01*
X170256054Y-56596100D01*
X170318838Y-56361789D01*
X170326691Y-56302135D01*
X174249500Y-56302135D01*
X174249500Y-58097870D01*
X174249501Y-58097876D01*
X174255908Y-58157483D01*
X174306202Y-58292328D01*
X174306206Y-58292335D01*
X174392452Y-58407544D01*
X174392455Y-58407547D01*
X174507664Y-58493793D01*
X174507671Y-58493797D01*
X174552618Y-58510561D01*
X174642517Y-58544091D01*
X174702127Y-58550500D01*
X174712685Y-58550499D01*
X174779723Y-58570179D01*
X174800372Y-58586818D01*
X175470591Y-59257037D01*
X175407007Y-59274075D01*
X175292993Y-59339901D01*
X175199901Y-59432993D01*
X175134075Y-59547007D01*
X175117037Y-59610591D01*
X174484728Y-58978282D01*
X174484727Y-58978282D01*
X174445380Y-59032439D01*
X174348904Y-59221782D01*
X174283242Y-59423869D01*
X174283242Y-59423872D01*
X174250000Y-59633753D01*
X174250000Y-59846246D01*
X174283242Y-60056127D01*
X174283242Y-60056130D01*
X174348904Y-60258217D01*
X174445375Y-60447550D01*
X174484728Y-60501716D01*
X175117037Y-59869408D01*
X175134075Y-59932993D01*
X175199901Y-60047007D01*
X175292993Y-60140099D01*
X175407007Y-60205925D01*
X175470590Y-60222962D01*
X174838282Y-60855269D01*
X174838282Y-60855270D01*
X174892452Y-60894626D01*
X174892451Y-60894626D01*
X174901495Y-60899234D01*
X174952292Y-60947208D01*
X174969087Y-61015029D01*
X174946550Y-61081164D01*
X174901499Y-61120202D01*
X174892182Y-61124949D01*
X174720213Y-61249890D01*
X174569890Y-61400213D01*
X174444951Y-61572179D01*
X174348444Y-61761585D01*
X174282753Y-61963760D01*
X174249500Y-62173713D01*
X174249500Y-62386286D01*
X174282753Y-62596239D01*
X174348444Y-62798414D01*
X174444951Y-62987820D01*
X174569890Y-63159786D01*
X174720213Y-63310109D01*
X174892182Y-63435050D01*
X174900946Y-63439516D01*
X174951742Y-63487491D01*
X174968536Y-63555312D01*
X174945998Y-63621447D01*
X174900946Y-63660484D01*
X174892182Y-63664949D01*
X174720213Y-63789890D01*
X174569890Y-63940213D01*
X174444951Y-64112179D01*
X174348444Y-64301585D01*
X174282753Y-64503760D01*
X174249500Y-64713713D01*
X174249500Y-64926286D01*
X174282753Y-65136239D01*
X174348444Y-65338414D01*
X174444951Y-65527820D01*
X174569890Y-65699786D01*
X174720213Y-65850109D01*
X174892182Y-65975050D01*
X174900946Y-65979516D01*
X174951742Y-66027491D01*
X174968536Y-66095312D01*
X174945998Y-66161447D01*
X174900946Y-66200484D01*
X174892182Y-66204949D01*
X174720213Y-66329890D01*
X174569890Y-66480213D01*
X174444951Y-66652179D01*
X174348444Y-66841585D01*
X174282753Y-67043760D01*
X174270645Y-67120208D01*
X174249500Y-67253713D01*
X174249500Y-67466287D01*
X174282754Y-67676243D01*
X174285196Y-67683760D01*
X174348444Y-67878414D01*
X174444951Y-68067820D01*
X174569890Y-68239786D01*
X174720213Y-68390109D01*
X174892182Y-68515050D01*
X174900946Y-68519516D01*
X174951742Y-68567491D01*
X174968536Y-68635312D01*
X174945998Y-68701447D01*
X174900946Y-68740484D01*
X174892182Y-68744949D01*
X174720213Y-68869890D01*
X174569890Y-69020213D01*
X174444951Y-69192179D01*
X174348444Y-69381585D01*
X174282753Y-69583760D01*
X174249500Y-69793713D01*
X174249500Y-70006286D01*
X174282289Y-70213312D01*
X174282754Y-70216243D01*
X174329721Y-70360793D01*
X174348444Y-70418414D01*
X174444951Y-70607820D01*
X174569890Y-70779786D01*
X174720213Y-70930109D01*
X174892182Y-71055050D01*
X174900946Y-71059516D01*
X174951742Y-71107491D01*
X174968536Y-71175312D01*
X174945998Y-71241447D01*
X174900946Y-71280484D01*
X174892182Y-71284949D01*
X174720213Y-71409890D01*
X174569890Y-71560213D01*
X174444951Y-71732179D01*
X174348444Y-71921585D01*
X174282753Y-72123760D01*
X174249500Y-72333713D01*
X174249500Y-72546286D01*
X174282753Y-72756239D01*
X174348444Y-72958414D01*
X174444951Y-73147820D01*
X174569890Y-73319786D01*
X174720213Y-73470109D01*
X174892182Y-73595050D01*
X174900946Y-73599516D01*
X174951742Y-73647491D01*
X174968536Y-73715312D01*
X174945998Y-73781447D01*
X174900946Y-73820484D01*
X174892182Y-73824949D01*
X174720213Y-73949890D01*
X174569890Y-74100213D01*
X174444951Y-74272179D01*
X174348444Y-74461585D01*
X174282753Y-74663760D01*
X174249500Y-74873713D01*
X174249500Y-75086286D01*
X174282753Y-75296239D01*
X174348444Y-75498414D01*
X174444951Y-75687820D01*
X174569890Y-75859786D01*
X174720213Y-76010109D01*
X174892182Y-76135050D01*
X174900946Y-76139516D01*
X174951742Y-76187491D01*
X174968536Y-76255312D01*
X174945998Y-76321447D01*
X174900946Y-76360484D01*
X174892182Y-76364949D01*
X174720213Y-76489890D01*
X174569890Y-76640213D01*
X174444951Y-76812179D01*
X174348444Y-77001585D01*
X174282753Y-77203760D01*
X174249500Y-77413713D01*
X174249500Y-77626286D01*
X174282753Y-77836239D01*
X174348444Y-78038414D01*
X174444951Y-78227820D01*
X174569890Y-78399786D01*
X174720213Y-78550109D01*
X174892179Y-78675048D01*
X174892181Y-78675049D01*
X174892184Y-78675051D01*
X175081588Y-78771557D01*
X175283757Y-78837246D01*
X175493713Y-78870500D01*
X175493714Y-78870500D01*
X175706286Y-78870500D01*
X175706287Y-78870500D01*
X175916243Y-78837246D01*
X176118412Y-78771557D01*
X176307816Y-78675051D01*
X176329789Y-78659086D01*
X176479786Y-78550109D01*
X176479788Y-78550106D01*
X176479792Y-78550104D01*
X176630104Y-78399792D01*
X176630106Y-78399788D01*
X176630109Y-78399786D01*
X176755048Y-78227820D01*
X176755047Y-78227820D01*
X176755051Y-78227816D01*
X176851557Y-78038412D01*
X176917246Y-77836243D01*
X176950500Y-77626287D01*
X176950500Y-77413713D01*
X176917246Y-77203757D01*
X176851557Y-77001588D01*
X176755051Y-76812184D01*
X176755049Y-76812181D01*
X176755048Y-76812179D01*
X176630109Y-76640213D01*
X176479786Y-76489890D01*
X176307820Y-76364951D01*
X176307115Y-76364591D01*
X176299054Y-76360485D01*
X176248259Y-76312512D01*
X176231463Y-76244692D01*
X176253999Y-76178556D01*
X176299054Y-76139515D01*
X176307816Y-76135051D01*
X176329789Y-76119086D01*
X176479786Y-76010109D01*
X176479788Y-76010106D01*
X176479792Y-76010104D01*
X176630104Y-75859792D01*
X176630106Y-75859788D01*
X176630109Y-75859786D01*
X176755048Y-75687820D01*
X176755047Y-75687820D01*
X176755051Y-75687816D01*
X176851557Y-75498412D01*
X176917246Y-75296243D01*
X176950500Y-75086287D01*
X176950500Y-74873713D01*
X176917246Y-74663757D01*
X176851557Y-74461588D01*
X176755051Y-74272184D01*
X176755049Y-74272181D01*
X176755048Y-74272179D01*
X176630109Y-74100213D01*
X176479786Y-73949890D01*
X176307820Y-73824951D01*
X176307115Y-73824591D01*
X176299054Y-73820485D01*
X176248259Y-73772512D01*
X176231463Y-73704692D01*
X176253999Y-73638556D01*
X176299054Y-73599515D01*
X176307816Y-73595051D01*
X176329789Y-73579086D01*
X176479786Y-73470109D01*
X176479788Y-73470106D01*
X176479792Y-73470104D01*
X176630104Y-73319792D01*
X176630106Y-73319788D01*
X176630109Y-73319786D01*
X176755048Y-73147820D01*
X176755047Y-73147820D01*
X176755051Y-73147816D01*
X176851557Y-72958412D01*
X176917246Y-72756243D01*
X176950500Y-72546287D01*
X176950500Y-72333713D01*
X176917246Y-72123757D01*
X176851557Y-71921588D01*
X176755051Y-71732184D01*
X176755049Y-71732181D01*
X176755048Y-71732179D01*
X176630109Y-71560213D01*
X176479786Y-71409890D01*
X176307820Y-71284951D01*
X176307115Y-71284591D01*
X176299054Y-71280485D01*
X176248259Y-71232512D01*
X176231463Y-71164692D01*
X176253999Y-71098556D01*
X176299054Y-71059515D01*
X176307816Y-71055051D01*
X176413299Y-70978414D01*
X176479786Y-70930109D01*
X176479788Y-70930106D01*
X176479792Y-70930104D01*
X176630104Y-70779792D01*
X176630106Y-70779788D01*
X176630109Y-70779786D01*
X176755048Y-70607820D01*
X176755047Y-70607820D01*
X176755051Y-70607816D01*
X176851557Y-70418412D01*
X176917246Y-70216243D01*
X176950500Y-70006287D01*
X176950500Y-69793713D01*
X176917246Y-69583757D01*
X176851557Y-69381588D01*
X176755051Y-69192184D01*
X176755049Y-69192181D01*
X176755048Y-69192179D01*
X176630109Y-69020213D01*
X176479786Y-68869890D01*
X176307820Y-68744951D01*
X176307115Y-68744591D01*
X176299054Y-68740485D01*
X176248259Y-68692512D01*
X176231463Y-68624692D01*
X176253999Y-68558556D01*
X176299054Y-68519515D01*
X176307816Y-68515051D01*
X176329789Y-68499086D01*
X176479786Y-68390109D01*
X176479788Y-68390106D01*
X176479792Y-68390104D01*
X176630104Y-68239792D01*
X176630106Y-68239788D01*
X176630109Y-68239786D01*
X176755048Y-68067820D01*
X176755047Y-68067820D01*
X176755051Y-68067816D01*
X176851557Y-67878412D01*
X176917246Y-67676243D01*
X176950500Y-67466287D01*
X176950500Y-67253713D01*
X176917246Y-67043757D01*
X176910221Y-67022135D01*
X181309500Y-67022135D01*
X181309500Y-68817870D01*
X181309501Y-68817876D01*
X181315908Y-68877483D01*
X181366202Y-69012328D01*
X181366206Y-69012335D01*
X181452452Y-69127544D01*
X181452455Y-69127547D01*
X181567664Y-69213793D01*
X181567671Y-69213797D01*
X181699082Y-69262810D01*
X181755016Y-69304681D01*
X181779433Y-69370145D01*
X181764582Y-69438418D01*
X181743431Y-69466673D01*
X181629889Y-69580215D01*
X181504951Y-69752179D01*
X181408444Y-69941585D01*
X181342753Y-70143760D01*
X181309500Y-70353713D01*
X181309500Y-70566286D01*
X181330464Y-70698651D01*
X181342754Y-70776243D01*
X181399636Y-70951308D01*
X181408444Y-70978414D01*
X181504951Y-71167820D01*
X181629890Y-71339786D01*
X181780213Y-71490109D01*
X181952179Y-71615048D01*
X181952181Y-71615049D01*
X181952184Y-71615051D01*
X182141588Y-71711557D01*
X182343757Y-71777246D01*
X182553713Y-71810500D01*
X182553714Y-71810500D01*
X182766286Y-71810500D01*
X182766287Y-71810500D01*
X182976243Y-71777246D01*
X183178412Y-71711557D01*
X183367816Y-71615051D01*
X183389789Y-71599086D01*
X183539786Y-71490109D01*
X183539788Y-71490106D01*
X183539792Y-71490104D01*
X183690104Y-71339792D01*
X183690106Y-71339788D01*
X183690109Y-71339786D01*
X183815048Y-71167820D01*
X183815047Y-71167820D01*
X183815051Y-71167816D01*
X183911557Y-70978412D01*
X183977246Y-70776243D01*
X184010500Y-70566287D01*
X184010500Y-70353713D01*
X183977246Y-70143757D01*
X183911557Y-69941588D01*
X183815051Y-69752184D01*
X183815049Y-69752181D01*
X183815048Y-69752179D01*
X183690109Y-69580213D01*
X183576569Y-69466673D01*
X183543084Y-69405350D01*
X183548068Y-69335658D01*
X183589940Y-69279725D01*
X183620915Y-69262810D01*
X183752331Y-69213796D01*
X183867546Y-69127546D01*
X183953796Y-69012331D01*
X184004091Y-68877483D01*
X184010500Y-68817873D01*
X184010499Y-67022128D01*
X184004091Y-66962517D01*
X183958987Y-66841588D01*
X183953797Y-66827671D01*
X183953793Y-66827664D01*
X183867547Y-66712455D01*
X183867544Y-66712452D01*
X183752335Y-66626206D01*
X183752328Y-66626202D01*
X183617482Y-66575908D01*
X183617483Y-66575908D01*
X183557883Y-66569501D01*
X183557881Y-66569500D01*
X183557873Y-66569500D01*
X183557864Y-66569500D01*
X181762129Y-66569500D01*
X181762123Y-66569501D01*
X181702516Y-66575908D01*
X181567671Y-66626202D01*
X181567664Y-66626206D01*
X181452455Y-66712452D01*
X181452452Y-66712455D01*
X181366206Y-66827664D01*
X181366202Y-66827671D01*
X181315908Y-66962517D01*
X181309501Y-67022116D01*
X181309501Y-67022123D01*
X181309500Y-67022135D01*
X176910221Y-67022135D01*
X176851557Y-66841588D01*
X176755051Y-66652184D01*
X176755049Y-66652181D01*
X176755048Y-66652179D01*
X176630109Y-66480213D01*
X176479786Y-66329890D01*
X176307820Y-66204951D01*
X176307115Y-66204591D01*
X176299054Y-66200485D01*
X176248259Y-66152512D01*
X176231463Y-66084692D01*
X176253999Y-66018556D01*
X176299054Y-65979515D01*
X176307816Y-65975051D01*
X176329789Y-65959086D01*
X176479786Y-65850109D01*
X176479788Y-65850106D01*
X176479792Y-65850104D01*
X176630104Y-65699792D01*
X176630106Y-65699788D01*
X176630109Y-65699786D01*
X176755048Y-65527820D01*
X176755047Y-65527820D01*
X176755051Y-65527816D01*
X176851557Y-65338412D01*
X176917246Y-65136243D01*
X176950500Y-64926287D01*
X176950500Y-64713713D01*
X176917246Y-64503757D01*
X176851557Y-64301588D01*
X176755051Y-64112184D01*
X176755049Y-64112181D01*
X176755048Y-64112179D01*
X176630109Y-63940213D01*
X176479786Y-63789890D01*
X176307820Y-63664951D01*
X176307115Y-63664591D01*
X176299054Y-63660485D01*
X176248259Y-63612512D01*
X176231463Y-63544692D01*
X176253999Y-63478556D01*
X176299054Y-63439515D01*
X176307816Y-63435051D01*
X176329789Y-63419086D01*
X176479786Y-63310109D01*
X176479788Y-63310106D01*
X176479792Y-63310104D01*
X176630104Y-63159792D01*
X176630106Y-63159788D01*
X176630109Y-63159786D01*
X176755048Y-62987820D01*
X176755047Y-62987820D01*
X176755051Y-62987816D01*
X176851557Y-62798412D01*
X176917246Y-62596243D01*
X176950500Y-62386287D01*
X176950500Y-62173713D01*
X176917246Y-61963757D01*
X176851557Y-61761588D01*
X176755051Y-61572184D01*
X176755049Y-61572181D01*
X176755048Y-61572179D01*
X176630109Y-61400213D01*
X176479786Y-61249890D01*
X176307817Y-61124949D01*
X176298504Y-61120204D01*
X176247707Y-61072230D01*
X176230912Y-61004409D01*
X176253449Y-60938274D01*
X176298507Y-60899232D01*
X176307555Y-60894622D01*
X176361716Y-60855270D01*
X176361717Y-60855270D01*
X175729408Y-60222962D01*
X175792993Y-60205925D01*
X175907007Y-60140099D01*
X176000099Y-60047007D01*
X176065925Y-59932993D01*
X176082962Y-59869409D01*
X176715270Y-60501717D01*
X176715270Y-60501716D01*
X176754622Y-60447554D01*
X176851095Y-60258217D01*
X176916757Y-60056130D01*
X176916757Y-60056127D01*
X176950000Y-59846246D01*
X176950000Y-59633753D01*
X176916757Y-59423872D01*
X176916757Y-59423869D01*
X176851095Y-59221782D01*
X176754624Y-59032449D01*
X176715270Y-58978282D01*
X176715269Y-58978282D01*
X176082962Y-59610590D01*
X176065925Y-59547007D01*
X176000099Y-59432993D01*
X175907007Y-59339901D01*
X175792993Y-59274075D01*
X175729409Y-59257037D01*
X176399627Y-58586818D01*
X176460950Y-58553333D01*
X176487307Y-58550499D01*
X176497872Y-58550499D01*
X176557483Y-58544091D01*
X176692331Y-58493796D01*
X176807546Y-58407546D01*
X176893796Y-58292331D01*
X176944091Y-58157483D01*
X176950500Y-58097873D01*
X176950499Y-57423713D01*
X181329500Y-57423713D01*
X181329500Y-57636287D01*
X181333767Y-57663226D01*
X181362753Y-57846239D01*
X181428444Y-58048414D01*
X181524951Y-58237820D01*
X181649890Y-58409786D01*
X181763430Y-58523326D01*
X181796915Y-58584649D01*
X181791931Y-58654341D01*
X181750059Y-58710274D01*
X181719083Y-58727189D01*
X181587669Y-58776203D01*
X181587664Y-58776206D01*
X181472455Y-58862452D01*
X181472452Y-58862455D01*
X181386206Y-58977664D01*
X181386202Y-58977671D01*
X181335908Y-59112517D01*
X181329501Y-59172116D01*
X181329501Y-59172123D01*
X181329500Y-59172135D01*
X181329500Y-60967870D01*
X181329501Y-60967876D01*
X181335908Y-61027483D01*
X181386202Y-61162328D01*
X181386206Y-61162335D01*
X181472452Y-61277544D01*
X181472455Y-61277547D01*
X181587664Y-61363793D01*
X181587671Y-61363797D01*
X181722517Y-61414091D01*
X181722516Y-61414091D01*
X181729444Y-61414835D01*
X181782127Y-61420500D01*
X183577872Y-61420499D01*
X183637483Y-61414091D01*
X183772331Y-61363796D01*
X183887546Y-61277546D01*
X183973796Y-61162331D01*
X184024091Y-61027483D01*
X184030500Y-60967873D01*
X184030499Y-59172128D01*
X184024091Y-59112517D01*
X183974075Y-58978418D01*
X183973797Y-58977671D01*
X183973793Y-58977664D01*
X183887547Y-58862455D01*
X183887544Y-58862452D01*
X183772335Y-58776206D01*
X183772328Y-58776202D01*
X183640917Y-58727189D01*
X183584983Y-58685318D01*
X183560566Y-58619853D01*
X183575418Y-58551580D01*
X183596563Y-58523332D01*
X183710104Y-58409792D01*
X183835051Y-58237816D01*
X183931557Y-58048412D01*
X183997246Y-57846243D01*
X184030500Y-57636287D01*
X184030500Y-57423713D01*
X183997246Y-57213757D01*
X183931557Y-57011588D01*
X183835051Y-56822184D01*
X183835049Y-56822181D01*
X183835048Y-56822179D01*
X183710109Y-56650213D01*
X183559786Y-56499890D01*
X183387820Y-56374951D01*
X183198414Y-56278444D01*
X183198413Y-56278443D01*
X183198412Y-56278443D01*
X182996243Y-56212754D01*
X182996241Y-56212753D01*
X182996240Y-56212753D01*
X182834957Y-56187208D01*
X182786287Y-56179500D01*
X182573713Y-56179500D01*
X182525042Y-56187208D01*
X182363760Y-56212753D01*
X182161585Y-56278444D01*
X181972179Y-56374951D01*
X181800213Y-56499890D01*
X181649890Y-56650213D01*
X181524951Y-56822179D01*
X181428444Y-57011585D01*
X181362753Y-57213760D01*
X181334165Y-57394260D01*
X181329500Y-57423713D01*
X176950499Y-57423713D01*
X176950499Y-57030293D01*
X176950499Y-56302129D01*
X176950498Y-56302123D01*
X176950497Y-56302116D01*
X176944091Y-56242517D01*
X176920587Y-56179500D01*
X176893797Y-56107671D01*
X176893793Y-56107664D01*
X176807547Y-55992455D01*
X176807544Y-55992452D01*
X176692335Y-55906206D01*
X176692328Y-55906202D01*
X176557482Y-55855908D01*
X176557483Y-55855908D01*
X176497883Y-55849501D01*
X176497881Y-55849500D01*
X176497873Y-55849500D01*
X176497864Y-55849500D01*
X174702129Y-55849500D01*
X174702123Y-55849501D01*
X174642516Y-55855908D01*
X174507671Y-55906202D01*
X174507664Y-55906206D01*
X174392455Y-55992452D01*
X174392452Y-55992455D01*
X174306206Y-56107664D01*
X174306202Y-56107671D01*
X174255908Y-56242517D01*
X174252046Y-56278443D01*
X174249501Y-56302123D01*
X174249500Y-56302135D01*
X170326691Y-56302135D01*
X170350500Y-56121288D01*
X170350500Y-55878712D01*
X170318838Y-55638211D01*
X170256054Y-55403900D01*
X170163224Y-55179788D01*
X170041936Y-54969711D01*
X169894265Y-54777262D01*
X169894260Y-54777256D01*
X169722743Y-54605739D01*
X169722736Y-54605733D01*
X169530293Y-54458067D01*
X169530292Y-54458066D01*
X169530289Y-54458064D01*
X169320212Y-54336776D01*
X169320205Y-54336773D01*
X169096104Y-54243947D01*
X168861785Y-54181161D01*
X168621289Y-54149500D01*
X168621288Y-54149500D01*
X168378712Y-54149500D01*
X168378711Y-54149500D01*
X168138214Y-54181161D01*
X167903895Y-54243947D01*
X167679794Y-54336773D01*
X167679785Y-54336777D01*
X167469706Y-54458067D01*
X167277263Y-54605733D01*
X167277256Y-54605739D01*
X167105739Y-54777256D01*
X167105733Y-54777263D01*
X166958067Y-54969706D01*
X166836777Y-55179785D01*
X166836773Y-55179794D01*
X166743947Y-55403895D01*
X166681161Y-55638214D01*
X166649500Y-55878711D01*
X162018620Y-55878711D01*
X161957482Y-55855908D01*
X161957483Y-55855908D01*
X161897883Y-55849501D01*
X161897881Y-55849500D01*
X161897873Y-55849500D01*
X161897864Y-55849500D01*
X160102129Y-55849500D01*
X160102123Y-55849501D01*
X160042516Y-55855908D01*
X159907671Y-55906202D01*
X159907664Y-55906206D01*
X159792455Y-55992452D01*
X159792452Y-55992455D01*
X159706206Y-56107664D01*
X159706202Y-56107671D01*
X159655908Y-56242517D01*
X159652046Y-56278443D01*
X159649501Y-56302123D01*
X159649500Y-56302135D01*
X155244737Y-56302135D01*
X155207546Y-56252454D01*
X155154514Y-56212754D01*
X155092335Y-56166206D01*
X155092328Y-56166202D01*
X154957482Y-56115908D01*
X154957483Y-56115908D01*
X154897883Y-56109501D01*
X154897881Y-56109500D01*
X154897873Y-56109500D01*
X154897864Y-56109500D01*
X153102129Y-56109500D01*
X153102123Y-56109501D01*
X153042516Y-56115908D01*
X152907671Y-56166202D01*
X152907664Y-56166206D01*
X152792455Y-56252452D01*
X152792452Y-56252455D01*
X152706206Y-56367664D01*
X152706202Y-56367671D01*
X152655908Y-56502517D01*
X152649501Y-56562116D01*
X152649501Y-56562123D01*
X152649500Y-56562135D01*
X149500500Y-56562135D01*
X149500500Y-56502706D01*
X149500618Y-56497297D01*
X149503377Y-56434108D01*
X149517386Y-56113226D01*
X149518326Y-56102495D01*
X149568152Y-55724025D01*
X149570025Y-55713405D01*
X149652649Y-55340709D01*
X149655440Y-55330295D01*
X149770230Y-54966227D01*
X149773917Y-54956095D01*
X149920003Y-54603412D01*
X149924561Y-54593638D01*
X150100822Y-54255045D01*
X150106217Y-54245700D01*
X150311325Y-53923744D01*
X150317515Y-53914905D01*
X150549896Y-53612060D01*
X150556834Y-53603791D01*
X150814726Y-53322352D01*
X150822352Y-53314726D01*
X151103791Y-53056834D01*
X151112060Y-53049896D01*
X151414905Y-52817515D01*
X151423744Y-52811325D01*
X151745700Y-52606217D01*
X151755045Y-52600822D01*
X152093638Y-52424561D01*
X152103412Y-52420003D01*
X152456095Y-52273917D01*
X152466227Y-52270230D01*
X152830295Y-52155440D01*
X152840709Y-52152649D01*
X153213405Y-52070025D01*
X153224025Y-52068152D01*
X153602495Y-52018326D01*
X153613226Y-52017386D01*
X153997297Y-52000617D01*
X154002706Y-52000500D01*
X154065892Y-52000500D01*
X182934108Y-52000500D01*
X182997294Y-52000500D01*
X183002702Y-52000617D01*
G37*
%TD.AperFunction*%
%TD*%
M02*
